<svg xmlns="http://www.w3.org/2000/svg" viewBox="0 0 114.64 95.69"><defs><style>.cls-1{fill:#a25641;fill-rule:evenodd;}</style></defs><g id="Layer_2" data-name="Layer 2"><g id="regije"><path id="baranja" class="cls-1" d="M1.41,45.14c0,.89-.09,2-.08,2.62-.45.15-1,1.48-1.33,1.78,0,1.18.61,3,.61,3.84.15,0,1.34.44,1.34.59H3c.15-.14,1-.59,1.34-.88v-.3c.45-.3.45-.15.74-.59a2.4,2.4,0,0,0,.89-.44c.45,0,1,.14,1.34.14a4.05,4.05,0,0,1,.3,1.93c.15,0,.75,1,.9,1,0,.15.15.44.15.59.14,0,.44.74.45,1,.29.29.59.74,1,.74l.44.44c.45,0,2.67-.15,2.67-.59.3,0,1.34.15,1.34.59.29,0,1,.3,1.33.3l.15-.3h.15a17.81,17.81,0,0,0,1.17-2.36,6.91,6.91,0,0,1,.75.14v1.78c-.29.15-.44.59-.59.59v.3c-.14.14-.59.59-.59.74-.29,0-.44.44-.59.44,0,.44-.14.89-.14,1.33.15,0,.45.3.6.3l.14.29a1,1,0,0,1,.9.74.49.49,0,0,1,.3.12c.3,0,.74-.27,1-.27.73-2.21.58-3.84.57-6.5H20c.15-.3.59-.45.74-.59,1.49,0,1.64.74,2.82,1,0,.3,0,.45.15.59,0,.45-.13,2.37-.58,2.37v1.92c.15,0,.3.3.3.44h1c.58-1.92.12-5.61,1.6-7.09v-.3c.89,0,1.78.89,2.52.89,0,.59.45,1,.45,1.77-.44,0-1.18.6-1.62.74,0,.15-.15.3-.15.45-1,0-1.62,2.07-1.62,2.95l.6.6h1a1,1,0,0,1,1-.6c0-.14.74-.44,1-.44a5.17,5.17,0,0,1,1-1.48h1c.29.3.59.74,1,.74,0,.3.15.59.3.59v.74c-.15.15-.59.59-.59.89l-.15.15h-.44c0,.15-.45.59-.59.59-.44,1.48-1.63,2.22-1.62,4.14.9.89,3.72,1.18,5,1.18,0-.15.15-.29.29-.44h.3c0-.3.44-.74.59-.89h.15a.45.45,0,0,0,.12-.29c0,.15.32.29.47.44v2.07c-.15.15-.59.59-.89.59,0,.15-.14.3-.14.45-.15,0-.59.59-.59.73l-.15.15a.27.27,0,0,0-.13,0c0,.3.13.69-.31.69v.44l-.3.15-.14.15v.74a1.81,1.81,0,0,0,1.48.44c.44-1,1.48-1.92,1.77-3.25.15-.74-.16-2.36.58-2.66,0-.44.44-.74.44-.89h1.19a6.56,6.56,0,0,1,1.05,3.4A3.73,3.73,0,0,0,39.54,71c-.3.15-.45.45-.74.74h-.3l-.15.3-.29.15c0,.29.15.74.15,1,.74.45,1.48,0,2.08.3,0,1.48-.29,3.1-.28,4.58.15,0,.3.3.45.45,1,0,2.52-.45,2.51-1.78a.86.86,0,0,0,.59-.15,4,4,0,0,1,1,1.19.31.31,0,0,1,.29.29c.3.15.45.45.6.59v.74c-.14.15-.59.6-.74.6,0,.14-.14.29-.14.44l-.3.15v1.18a1,1,0,0,1,.74.59c.89,0,1.78-1.33,2.07-1.92h.44l.15.15v.59a2.7,2.7,0,0,1-1.49.59v.59c.74.3.74.89,1.78.89a.52.52,0,0,1,.3-.15c0-.15.29-.44.29-.59.3,0,.74-.15,1.19-.15l.14-.15v-.88c-.15,0-.3-.15-.45-.15,0-.59-.45-1.78.44-2.22a.48.48,0,0,1,.15-.29c0-1.34,1.48-1,2.22-.89,0,.59.3,1.48.3,2.22a2.3,2.3,0,0,0-1.18,1.18c-.15,0-.59.59-.59.89-.15,0-.29.44-.44.44a14.87,14.87,0,0,1,1.34,1.92c.3,0,.9.89.9,1.19a.63.63,0,0,1,.59.59c.15,0,.45.15.6.15,0,.14.3.44.3.44h.59c.89.89,3,1.33,4.3,1.33.74-.74,4.89-1.33,5.78-1.33.15.15.3.44.45.59h.3a2.2,2.2,0,0,1,1.33-.59c0,.15.15.59.45.59,0,.15.29.59.3.74,1.33,0,2.37-.59,3.7-.59a6.38,6.38,0,0,0,.6,1v.59h1.19c0,.44.15.89.15,1.33a12.55,12.55,0,0,0,3.12,1.63,4.91,4.91,0,0,1,.75,2.51,2.18,2.18,0,0,1,.9.74c.29,0,.59,0,.74.3.44,0,1,0,1.18-.3h.45c.29-.44,1-.59,1.33-1,2.37,0,4.59-1.19,7.26-1.19,0-.14.15-.14.3-.14.29-.45,1.32-1.78,1.92-1.78v1.63c1.49,0,3.27.15,4.75-.59,1.48,0,3.11.74,4.45.74,1.64,1.62,5.08,0,6.72,1.67l-.76-1.64a10.2,10.2,0,0,0,1.17-.88,2.39,2.39,0,0,0,.49-1.5,2.2,2.2,0,0,0-.58-1.4,2.76,2.76,0,0,0-1.69-.52,8.37,8.37,0,0,1-1.17-.3l-.12.31h-.67a3.62,3.62,0,0,1-1.6-.47c-.63-.34-.66-1.49-.71-2.1a19.72,19.72,0,0,1,.94-3.52,8.33,8.33,0,0,1,1.22-1.83l.39-.54,1.09.19v.22s.53.09.9.17a7.27,7.27,0,0,0,1.34,0,12.24,12.24,0,0,0,1.76-.93,2.28,2.28,0,0,0,.76-1.36,11.72,11.72,0,0,0-.51-1.4,1.71,1.71,0,0,1,.08-1.38.51.51,0,0,0,0-.63c-.11-.14-.26-.15-.5,0a1.24,1.24,0,0,0-.43.55.69.69,0,0,1-.7.36,1.39,1.39,0,0,0-.57,0l-.62.67-1.43.17L104.15,77s0-.59,0-.85a1.52,1.52,0,0,1,.26-1A5.21,5.21,0,0,1,106,74s.6.39.89.62a3.4,3.4,0,0,0,1.46.4,5.4,5.4,0,0,0,2.2-.73c.55-.26,0-1.12,0-1.12l-1.08-1.37-.4.26-1.09.44-.31-.46.07-.29c0-.19-.14-.39-.3-.69a1.69,1.69,0,0,1-.21-.8c0-.18,0-.78.34-1s1.15,0,1.65.14,1.58-.56,1.75-.69a1.41,1.41,0,0,1,.86-.34,4.5,4.5,0,0,0,2.12-.84,2.1,2.1,0,0,0,.64-2,6.68,6.68,0,0,0-.76-1.57,5.57,5.57,0,0,1-1.67-.82l-.74-.32s.09-.52.19-.93a4.09,4.09,0,0,0-.29-1.81A8.85,8.85,0,0,0,110,58.89a8.12,8.12,0,0,0-1.09-.23c-.33,0-2-.36-2-.36l-.19.38-.46.08-.36-.63.24-.28-.82-1-.88-1.19-1.22-2.11.45-.24.53,0,.52.82.3-.05.25.11a5.26,5.26,0,0,1,.77-.41c.38-.16.9.61.9.61l1.68-.28.5.17.59.49.63,1,0,.2a3.14,3.14,0,0,1,.56.25,2.58,2.58,0,0,0,1.13.18,2.19,2.19,0,0,0,1.36-.36,5.36,5.36,0,0,0,.73-1.54s.22-1.22.31-1.65a4.93,4.93,0,0,0-.1-2A2.2,2.2,0,0,0,113,49.6a.83.83,0,0,0-.81.11h-.48s-.84.52-1.11.71a3.93,3.93,0,0,1-1.12.57c-.38.11-1,.29-1.63.56a4,4,0,0,1-2-.11l-2.84,1s-.19-.07-.5-.67a2.24,2.24,0,0,1,0-1.88,1.9,1.9,0,0,1,.91-.93l1.61-.68a2.42,2.42,0,0,1,1.15-.1,6,6,0,0,1,2,.92,4.54,4.54,0,0,0,2.19.19,3.33,3.33,0,0,0,1.69-1c.24-.26,1.17-1.06,1.17-1.06s.43-.68.77-1.19a2.85,2.85,0,0,0,.33-1.82,8.48,8.48,0,0,0-.18-1l-.38-.3-.4-.17.07-.21-.48-.28s.19-1.6.21-2.13a2.14,2.14,0,0,0-.86-1.57,3.79,3.79,0,0,0-1.64-.32,5.55,5.55,0,0,0-.82.47c-.33.24-1.05.93-1.05.93l0,.48L107,41.4s-.86,1-1.38,1.52a4.2,4.2,0,0,1-2,1.14,2.52,2.52,0,0,1-1.74,0,15.9,15.9,0,0,1-1.92-1.16s-.76-.53-1-.68a22.55,22.55,0,0,0-2.26-.88A11.22,11.22,0,0,1,95.36,41,17.29,17.29,0,0,1,93.17,40a4.94,4.94,0,0,1-1.29-1.71,1.44,1.44,0,0,1,.36-1.47,7.87,7.87,0,0,1,1.66-1.31l1-.83a.9.9,0,0,1,.57-.18,5.55,5.55,0,0,0,.75-.15c.4-.11,1,.36,1,.36l1.58,1,.13-.36s.43,0,.91.08a5.12,5.12,0,0,0,1.58-.3,9.51,9.51,0,0,0,1.67-1l.07-.43.46-.94s0-.32-.06-.84a23.81,23.81,0,0,1,.52-2.81v-.25s-1.48-3.42-1.55-3.55a1.7,1.7,0,0,0-.7-.49c-.29-.12-1-.61-1.39-.78a8.33,8.33,0,0,0-1.64-.25l-.63.27a5.65,5.65,0,0,0-1.36,1,1.31,1.31,0,0,0-.24,1.07.88.88,0,0,1,0,.48s-.39,1.24-.5,1.64a.54.54,0,0,1-.62.46c-.28,0-1.3.28-1.73.36a1.37,1.37,0,0,1-1.06-.38c-.23-.2-.49-.11-.84.05s-.75-.39-.75-.39L91,27.23l-.41-.46.56-1.71.5-.84L92,22.86s0-.65,0-.93.07-1.21.18-1.87A13.28,13.28,0,0,0,92,17.52l0-.72-.26-1,.71-1,.12.28a5,5,0,0,1,.82.27,5.61,5.61,0,0,0,1.28.25l2,0s.75-.06,1.1-.11a2.41,2.41,0,0,0,1.09-.75,7.06,7.06,0,0,1,.9-.78.71.71,0,0,0,.31-.69A4.27,4.27,0,0,0,99.73,12a3.85,3.85,0,0,0-1-1c-.27-.19-1.64-.79-1.64-.79a6.1,6.1,0,0,1-1.83-1A4.34,4.34,0,0,1,94,6.35a2.79,2.79,0,0,1,1.91-1.94C97,4,99.4,3,99.63,2a1.51,1.51,0,0,0-.85-1.9A3.54,3.54,0,0,0,97.92,0a2.22,2.22,0,0,0-2.1.74,1.84,1.84,0,0,1-1.35.57,2,2,0,0,1-1.22-.5c-.18-.18-.41-.24-.47,0a3.27,3.27,0,0,0,.38,1.31c.26.6-.42.65-.42.65L86.9,4.43c-.5.14-.54-.51-.64-.86a3.39,3.39,0,0,0-.7-1.17c-.31-.35-.63.09-.63.09s-1.38,1.68-1.8,2.21.07.78.46,1.38.23,2.81.07,4S82,11.32,80.85,11.41s-2-.86-2.73-1.66A2.93,2.93,0,0,0,75.73,8.7c-1,0-1-.41-1-.89s-.74-.87-1-1a9.16,9.16,0,0,1-.87-.51,7.09,7.09,0,0,0-1-.19c-.23-.06-.84-.13-1.55-.31a9.21,9.21,0,0,1-2.56-1.1A19.38,19.38,0,0,1,65.4,2.49a1.21,1.21,0,0,0-1.14-.33l-3.53.69a1.88,1.88,0,0,0-1,.66,1.15,1.15,0,0,1-.83.39c-.22,0-.56-.5-.87-1s-.36.11-.36.11,0,1,0,1.51A3.44,3.44,0,0,0,58.09,6a1.17,1.17,0,0,1,.07.91,1.09,1.09,0,0,0,0,.66c.06.39-.62.39-1,.39a2.21,2.21,0,0,0-1.18.45A4.54,4.54,0,0,1,54.83,9c-.53.21-.59.71-.59,1.16a1.75,1.75,0,0,0,.43,1l1.76,1.63c.15.13.41.34.34.59s-.5.29-.93.42a5.91,5.91,0,0,0-1.48,1,.49.49,0,0,1-.76-.16s-.36-.62-.58-1-.53-.25-.77,0a5.24,5.24,0,0,0-.33,1.64s-.21,2.26-.25,2.75-.32.55-1,.77a.55.55,0,0,0-.32.84l1.1,2.54-1.27.8a18.05,18.05,0,0,1-1.94.84c-.57.25-.4.37-.16,1a1.16,1.16,0,0,1-.38,1.19,11.72,11.72,0,0,1-1.28,1.43A7.15,7.15,0,0,1,44,28.58c-.47.14-.64.11-.84.55a3.18,3.18,0,0,0,.13,1.55l.08,1.74-1.52-.48-1.18-.15s-.55,1.54-.67,1.92-.47.37-.79.4a.67.67,0,0,1-.71-.21c-.26-.26-.61,0-.94.19a1.71,1.71,0,0,1-1.1.3,1.18,1.18,0,0,0-.85.36,5.91,5.91,0,0,1-.92.52c-.45.22-.4.86-.32,1.17s.15.49,0,.5-.3,0-.58-.26-.44-.18-.87-.16a2.06,2.06,0,0,1-1.16-.28.93.93,0,0,1-.44-1,1.16,1.16,0,0,0-.52-.87,1,1,0,0,0-1-.22,3.53,3.53,0,0,1-.8.14c-.37,0-.35.22-.42.59a1.83,1.83,0,0,1-.38,1,1.58,1.58,0,0,0-.2,1.32,2,2,0,0,1-.38,1.42,6.25,6.25,0,0,0-.13,2.21.67.67,0,0,1-.8.7s-.83.06-1.38.07A3.69,3.69,0,0,1,23.43,41c-.65-.39-.87.14-1.14.55a8.6,8.6,0,0,1-.89,1.12c-.46.51,0,.78.17,1s.19.46.13,1.13a3,3,0,0,0,.2,1.53.88.88,0,0,1-.08.89c-.13.32-.17.26-.16,1s-1,.49-1.47.48a3.06,3.06,0,0,1-1.37-.5l-.75-.36,0,.23-.45,0-.15.13a3.09,3.09,0,0,1-.4-.18c-.25-.12-.37,0-.85,0a1.19,1.19,0,0,0-.84.44c-.15.18-.3.07-.51,0a2,2,0,0,1-.69-.45,1.11,1.11,0,0,0-.56-.35c-.19,0-.22-.16-.22-.34s-.51-.19-.51-.19-.11-.6-.16-.74a2.63,2.63,0,0,1,0-.51l.46-.21a2.34,2.34,0,0,0,0-.29c0-.14.09-.37.11-.64s0-.32-.13-.32-.23.26-.27.51-.26-.14-.37-.33a2.09,2.09,0,0,1-.2-.48c-.11-.3-.46-.18-.46-.18s0-.38,0-.73-.19-.39-.43-.46-.33-.23-.5-.43-.28-.13-.39,0-.16.1-.32,0-.15-.08-.24.09-.14,0-.3,0-.21-.29-.21-.29S7.89,41.1,7.23,40.57s-.32.63-.13,1.26-.75.26-1.19.12-.42.18-.42.18v.4l-.07,0-.26-.1-.56.83,0,.15a2.1,2.1,0,0,1-.24.27.32.32,0,0,0-.14.3,1.47,1.47,0,0,1-.45.67c-.11.06-.15.32-.15.32s0,.31,0,.84-1.11,1-1.11,1h-.2a5.84,5.84,0,0,0-.19-.94A2,2,0,0,0,1.41,45.14Z"/></g></g></svg>