<svg xmlns="http://www.w3.org/2000/svg" viewBox="0 0 135.68 111.01"><defs><style>.cls-1{fill:#4e83bf;fill-rule:evenodd;}</style></defs><g id="Layer_2" data-name="Layer 2"><g id="regije"><path id="benkovac" class="cls-1" d="M102.09,27.78c.83-.16,1,.18,1.44-.29v-.64c-.16,0-.64-1-.64-1.11l-.32-.15c-.16-.64-1.12-1.27-1.44-1.91-1.27,0-2.07-2.85-2.08-3.8h-.32c-.48-1.43-2.07-1.9-2.08-3.8a4,4,0,0,0-2.54-.64c0-.31-.17-.63-.48-.63v-.32c-7.31,0-15.41,1.42-22.1-2.22-3.19-1.75-7.79-.16-10.66-2.54C58.64,7.83,58,8.28,55.31,6.86c0,0-2.9-1.29-3.29-.91s.5.61.5.61.64.4-.16.42A4.58,4.58,0,0,1,50,6.53c-.51-.36-2.63-2.63-2.63-2.63l-2-1.4-1.19.34-1.55.72A11.59,11.59,0,0,1,40,2.49c-.25-.35-.38-.35-.38-.35l-3.5,0L32.8,0,31.24,1.55S30.92,1,30.48.22l-2.84.93a4,4,0,0,1-.55,1.05,5.53,5.53,0,0,0-.69,3.13c0,1.59-.18,4.05-.6,4.33.05.19.35.08.38.24s-.1.2-.25.2a.94.94,0,0,0-.54,0c-.26.11-.48.32-.49.52a1.37,1.37,0,0,0,.28.68c.13.26.36.5.37.76a1.05,1.05,0,0,1-.09.57,2.84,2.84,0,0,1-.39.38.45.45,0,0,1-.47,0c-.07-.07-.14-.28-.22-.39a.46.46,0,0,0-.42-.17,1.29,1.29,0,0,1-.45.09c-.09,0-.29-.22-.51-.11s0,.4,0,.52a1,1,0,0,1,0,.73,1.78,1.78,0,0,0-.2,1.38,8.42,8.42,0,0,0,.64,1.45,2.38,2.38,0,0,1,.27.88.64.64,0,0,0,.2.51c.11.12.25.13.42.32a5.72,5.72,0,0,0,.79.75c.26.2.48.14.62.31s.26.43.53.52a1.78,1.78,0,0,1,1,.41c.4.39.4.52.68.57a1.34,1.34,0,0,1,.95.28c.43.35.66.66.89.8a6.13,6.13,0,0,0,.8.34,2.55,2.55,0,0,0,.61.13,1.18,1.18,0,0,1,.76.31c.35.27.91.6,1.25.88l.57.48a.34.34,0,0,0,.28.06,1,1,0,0,0,.28-.76c0-.55-.09-1,.1-1.15s.28-.24.43-.24a.87.87,0,0,0,.42-.12.48.48,0,0,1,.39-.12c.17.05.29,0,.31-.07s0-.15-.09-.24a.62.62,0,0,1-.11-.54,1.27,1.27,0,0,1,.85-.63c.36,0,.59.07.79-.1a3.13,3.13,0,0,1,.69-.56.78.78,0,0,1,.81,0c.21.19.31.47.49.48s.22-.11.33-.24a5.65,5.65,0,0,0,.4-.48.43.43,0,0,1,.63-.19c.35.21.35.09.72.37s.37.35.57.35.67,0,.71.13a.21.21,0,0,1,0,.22s-.07.11-.21.06a.78.78,0,0,0-.42-.08,1,1,0,0,1-.71-.13A4.42,4.42,0,0,1,41,19.7a.45.45,0,0,0-.63.06c-.16.25-.37.74-.59.73s-.43,0-.61-.24-.15-.51-.44-.5a.53.53,0,0,0-.45.15,2.59,2.59,0,0,0-.52.43c-.13.16-.09.21-.36.21s-.46-.06-.63.06-.19.2-.32.25-.26.16-.17.33.26.32.22.47a.38.38,0,0,1-.35.31,2,2,0,0,0-.53.08,2.68,2.68,0,0,1-.43.14c-.17,0-.53,0-.47.36s.12.27.12.54a1,1,0,0,0,.07.52.76.76,0,0,1,0,.57,1.31,1.31,0,0,0,0,.76,7,7,0,0,0,.54.93.44.44,0,0,0,.31.28c.15,0,.27,0,.28.14a.23.23,0,0,1-.08.23c-.06.09-.21.2,0,.4s.41.15.8.51.58.47.68.6a.65.65,0,0,1,.19.5c0,.24,0,.29-.23.3s-.33,0-.33.18,0,.41-.24.36-.49-.07-.62.05a.81.81,0,0,0-.24.48c0,.25-.1.5.05.64s.3.22.32.52.06.15.13.41.11.28.09.47-.06.37.14.53a1.12,1.12,0,0,0,.5.27.27.27,0,0,0,.25-.11c0-.09.12-.27.3-.1A.65.65,0,0,1,38,33a.84.84,0,0,0,.13.53.89.89,0,0,1,.15.52c0,.16-.1.2.09.46a9.42,9.42,0,0,1,.8.89c.24.37.27.58.56.71s.31-.1.65.25.41.25.54.54a.79.79,0,0,0,.31.44c.17.14.53.3.56.61s.09.28.22.46.25.28.24.43-.13.18-.2.21a.74.74,0,0,0-.32.21,1,1,0,0,0-.22.54c0,.16,0,.32.17.39s.35.05.35.18a1.22,1.22,0,0,1-.05.37.69.69,0,0,0-.09.34c0,.14,0,.34-.34.34s-.78-.09-1,.1-.31.14-.41.28a1.42,1.42,0,0,0-.27.45.26.26,0,0,1-.32.22c-.2,0-.12,0-.31-.19A9.93,9.93,0,0,1,38.09,41c-.16.16-.13.23-.29.23,0,.32-.31.48-.47.64,0,.15-.16.31-.16.47-.16,0-.32.16-.48.16,0,.32-.94,1.74-1.26,1.74,0,.64-1,.95-1,1.43-.31,0-.63.16-.95.16l-.16.31h-.63V46h-.32v-.16c-1.28-.8-5.1-2.86-5.11-4.76a5.54,5.54,0,0,1-1.59-1.27c-1.59,0-3.18-.63-4.77-.63a1.61,1.61,0,0,0-.16-.48l-.16-.16a2.67,2.67,0,0,0-1.12-.63c-.32-.47-1.11-.79-1.27-1.27h-.48c-.64-.63-1.6-1.27-2.23-1.9v-1.9c-.84,0-1.59.06-1.59-.48-.16,0-.48-.16-.64-.16,0-.15-.16-.31-.16-.47a2.48,2.48,0,0,1-1.28-1.27c-.47,0-.48-.63-.95-.63,0-.48-1-1.43-1-1.9-.31,0-.63,0-.63-.32a1.18,1.18,0,0,0-1.11.79,5.47,5.47,0,0,0-2.06,1.27H5.65V30.8L5.34,31v.31H5l-.14,2.85a6.4,6.4,0,0,1,1.27,1.59h.32a1.61,1.61,0,0,0,.16.48v.63L6.32,37a1.34,1.34,0,0,1-1.11.63,1.25,1.25,0,0,1-.63.63c0,.16-.16.32-.16.48l-.38,0a2.94,2.94,0,0,1,.39,1.56,7.08,7.08,0,0,1,1.12,1.75A6.43,6.43,0,0,1,8.1,44c.63,0,1,1.43,1.27,1.43v.47A18,18,0,0,0,7,48.55H4.94l-.64.63H3.83c0,.16-.32.47-.32.63a4.53,4.53,0,0,0-2.22,1.27A11.1,11.1,0,0,0,0,51.24c0,.32-.15,1.42.33,1.42,0,.32.16.64.48.64,0,.16.16.47.16.63a22.75,22.75,0,0,1,1.91,1.9c.64,0,1.28.64,1.91.64,0,.16.32.47.32.63l.32.16c0,.48.8,1.11.8,1.59.48,0,.8.15,1.28.15.15-.15.47-.31.47-.47C8,59,9.11,59,9.43,59l.16.15a1.66,1.66,0,0,0,1.28.64c0,.16.32.31.63.31l.32.32c0,.32,0,1.9-.47,1.9,0,.16-.15.32-.15.48-.32.16-1.11.63-1.11.79.16.16.32.48.48.63v1s-.47.47-.47.63c-.32,0-.64.47-.95.63v1.11H9a13.26,13.26,0,0,0-.62,2.38,1.19,1.19,0,0,0,.79.32,1.33,1.33,0,0,0,1,.63c0,.16.16.32.16.48.16,0,.32.15.48.15,0,.16.16.32.16.48.16,0,.32.16.48.16.16.32.32.63.79.63,0,.16.32.48.32.64.32,0,.48.47.64.63h.16l.26.15c1.58,2,4.81,2.93,6.09,4.88,1.37,0,4.8,1.37,5.78-.2.19,0,.29,0,.39-.09h.58c.79,0,3.62-.3,4.12.49,1.07,0,2.85,2.92,3,3.7a3.17,3.17,0,0,1,1.68,1.66c1.47,1,1.18,3.32,1.19,5,.49.49.59,1.17,1.48,1.56a11,11,0,0,0-2.55.2c0,.87-2.73,1.75-2.73,2.63-.29,0-.39.29-.68.29l-.1.2-.19.19h-.3c0,.2-.09,0-.09.2a8.66,8.66,0,0,1,2,3.9c0,.1.3.39.39.39s.2.3.2.39H34c0,.1.19.39.29.39a2.34,2.34,0,0,0,.4,1.17H35c.1.1.3.3.3.39.19,0,.39,0,.39.2a1.38,1.38,0,0,1,.39.2c0,.19.1.39.1.58a1.67,1.67,0,0,1,.59.59h.39c0,.09.47.4.59.48,0,.88,1.57,1.27,1.77,2.15a5.24,5.24,0,0,1,1.28.29c0,.2.1.4.1.69a2.36,2.36,0,0,1,1.17.29c0,.2.5,1,.69,1v.29a1.93,1.93,0,0,1,.32,1.34H44l1.25,0,.22-.09,1.07-1,2.12-3.32.25.18.14,0,.67-.93.56-.68.55-.75.09,0,1.17,1.64,1.2,1.66.64.4.21.08.38.15.83.33.88.31.82.32.62.28.61.31.41.16.17.12,1.38,1.78.13-.07.6.15.49.42.15-.26.25-.77.08-.11-.07,0-.14-.08-.06-.1.1-.51.08-.31.05-.16.21-.47.18-.34-.25,0,.28-.35.41-.54.14-.35,0-.28.11-.24.3-.42.1-.22.27-.82.18-.4.29-.48.22-.42V103l.15-.27-.09-.48-.27-.17-.74-.37-1.26.15-1.65-1.31,1.3-.86.25,0,.55-.62.59,1.18.54.2.35.31h.61l.67-.26.38-.38.21-.28.08-.16,0-.08,0-.2.06-.12.09-.18.23-.16.21-.33.18-.21.2-.13h.17l.4-.34.54-.47.2-.22-.49-.5-.43-1.38.35-.24.44-.74.52-.24.24-.23-.22-.24h0l-1.29-.94-.8-.52-1-.68,1.57-3.9,2.5,1.66.19,0,.31-.11.39-.18.36-.15.15-.09.55,1,.32.63.36.66.29.45.29.55.35.34.43.12,1.08.46v-.48l.17-.32.37-.34.17-.11.39-.44.94-2,0-.33-.31-.06-.25-.12L76,88.25l.87-.6.26-.21a4.56,4.56,0,0,0,1.27.85c0,.12.5.25.5.38h1.89c.89,2.38,2.41,4,5.43,4,.63,1.38,1.77,3,2.4,4.39.38,0,1,.13,1.39.13a.88.88,0,0,1,.5-.25c0-.13.13-.25.12-.38,1.51-1,3-2.63,5-3.14.13-.25,1-1.12,1.38-1.12,1.5-2.26,6.78-3.77,9-1.51h.38a.27.27,0,0,0,.25.25c.25,0,0-.62.25-.62v-.38a12.28,12.28,0,0,0,1.37-2.88c0-.26,0-.66-.35-.79a1,1,0,0,1-.66-1.06c0-.63,0-1.4.52-1.73s.77-.23,1-.62.42-.54.66-.47.4.2.71,0a.63.63,0,0,1,.71,0,.93.93,0,0,0,.93.06c.29-.21.61-.14.85-.36a4.41,4.41,0,0,0,1-1.13.89.89,0,0,0-.14-1,5.52,5.52,0,0,0-1-1c-.16-.11-1.06-.75-.89-1.5a2.92,2.92,0,0,0,.1-1.23,5.69,5.69,0,0,1,.12-1.15,1,1,0,0,1,1-.7c.58,0,1.2-.12.8-.89s-.8-1.32-.6-1.64.43-.25.77-.13a6.62,6.62,0,0,1,1,.62c.17.1.75.58,1,.59a2.24,2.24,0,0,1,1.26.5,2.5,2.5,0,0,0,2.26-1.38c.12,0,.37-.13.37-.25a9.85,9.85,0,0,1,4.41.88,4.62,4.62,0,0,0,1.89-.38,41.69,41.69,0,0,0,4.37-3.18c0-.13-.36-.08-.36-.2-.51-.26-2.41-4-2.54-4.52-.5-.13-1.39-1.26-1.89-1.63,0-.38-.13-.88-.13-1.26a4.05,4.05,0,0,0,.75-.5c.38,0,.63-.25,1-.25a13.86,13.86,0,0,0,.5-2.26c.88-.5,2.26-.12,3.27-.12,0-.5.75-1.51.74-2.13.13,0,.5-.63.5-.88.88-.38,1.63-1.88,2.13-2.64a5.09,5.09,0,0,0,1.26-.5,3.08,3.08,0,0,0-1.15-2.26h-.37c-.51-.75-.39-2.88-.4-3.88.76,0,1.26-.76,2-1,0-.88-.38-1.63-.39-2.38a1.75,1.75,0,0,1-.38-1.13.58.58,0,0,1-.38-.38c-.12,0-.5-.12-.63-.12s-.12-.38-.12-.5-.26-.51-.38-.51h-.13a3.38,3.38,0,0,1-.19-1.21l-.28.86-1.88,1.28-.74.45-.36.08-1.14.77L128,43l-.24.1-.42,0-.54.26-.54.06-.24.33-.35.34-.32.54.3.46-.07.44-.52.46s-.47.18-.55.19-.23-.11-.23-.11l-.68-.12-.45-.24-.35,0-.29.08-1.06-1.1-1.3-.75-.28-.1-.36-.22-.24-.3-.65-1.29-1.8-1-.27.45-.13,0-.12-.07-.62-.38-.05-.27-.83-.27-2.08-.38-.63-.47-.52-.39-1-.14L109.35,38l-.16-.1-.4-.09-.89-.14-1.08-.39-.5-.52.34-.76-.46-2.58-.16-.65-.64-2.55-1.15-.81-1.15-.75Z"/></g></g></svg>