<svg xmlns="http://www.w3.org/2000/svg" viewBox="0 0 123.19 115.63"><defs><style>.cls-1{fill:#d2e288;fill-rule:evenodd;}</style></defs><g id="Layer_2" data-name="Layer 2"><g id="regije"><path id="bilogora" class="cls-1" d="M67.43,115.63l-1.14-.13a4.08,4.08,0,0,1-.38-.5c-.26,0-.89-.51-1.27-.63a3.31,3.31,0,0,0-.9-1.77,3.54,3.54,0,0,1-2.28-.76,9.34,9.34,0,0,1,.12-1.89h.13v-.51c.5-.25.62-1.26,1.13-1.51a20.63,20.63,0,0,1,.11-2.78c0-.76.5-1.64.5-2.52.5-.26,1-.38,1.52-.63v-.38c.13,0,.38-.13.51-.13v-.38h.25c0-.63,1.77-.63,2.28-.63-1.33-.15-2.56-.76-3.8-.76l-.26-.25c-.5,0-1.14-.13-1.65-.13l-.63-.63a8.6,8.6,0,0,0-.14-1.89c-.38,0-.5-.25-.63-.38h-.38c-.13-.13-.38-.25-.51-.51-.63,0-1.4-1.13-2-1.13a1,1,0,0,0-.25-.51,11.56,11.56,0,0,1-1.27-.63h-.51c0,.13-.13.38-.12.51a1,1,0,0,0-.51.5,5.63,5.63,0,0,0-1.39,1h-.5a.88.88,0,0,1-.63.5c-.13.26-1.14.64-1.52.76a10.3,10.3,0,0,0-.64-2.14c-.51,0-1.27.12-1.78.12a3,3,0,0,1-.89-2l-.25-.12v-.13a6.07,6.07,0,0,1-2-3.46,8.17,8.17,0,0,1-1.53.18c-.13-.13-.64-.64-.89-.64,0-.12-.26-.25-.38-.25,0-.25-.13-.38-.13-.5-.38-.13-.77-1.65-1.4-1.65,0-.12-.26-.37-.26-.37a17.15,17.15,0,0,1-3.29-1.14,3.89,3.89,0,0,0,.37-1.14,5.36,5.36,0,0,1-.77-1.77c-.25-.63-1.53-2.14-1.53-2.77-.25,0-.63-.38-.76-.51s-.51,0-.63-.25c-.13,0-.38-.13-.51-.13s-.26-.25-.38-.25c0-1.77-1.16-3.41-1.16-5.18-.51-.25-.52-1.39-.52-1.89-.26-1.14-1.14-1.52-1.65-2.27a6.42,6.42,0,0,0-1.66-1.52c-.13,0-.25-.13-.38-.13a1,1,0,0,0-.51-.5c0-.38-.63-.76-.89-1h-.25A1.63,1.63,0,0,0,25.43,65c-.13-.12-.38-.5-.51-.5,0-.51-.26-1-.26-1.52-.76,0-1.65-1.89-3-1.13-.13,0-.89.88-.89.88H19.47v-.25c-.38,0-1.65-.13-1.77.25H15.16c-.12-.13-.76-.63-.76-.76-.51,0-1-.5-1.39-.5a.69.69,0,0,0-.26-.51c0-.25,0-1.13-.26-1.13,0-.38-.38-.64-.51-.89-.5,0-1.39-.5-2.15-.5a1.8,1.8,0,0,1-1,.88,6.11,6.11,0,0,0-.25,1.51,1.4,1.4,0,0,0-.12.38l-1.9.13c-.13.38-.5,1-1,1l-.25-.25H4.91c0,.5-.13.12-.26.38v.25l-.25.12c0,.13-.25.38-.25.38-.51,0-1.27.13-1.77.13,0-.51-1.53-1.42-1.53-1.67.53-.55.67-1.45,1.49-2.25s0-2.09,0-3.23c0-.83-.8-.16-1.1-.85l-1-2.21c-.18-.46-.5-2.56-.19-2.86.92-.9.31-.94.29-2.05L.35,44.85a10.36,10.36,0,0,1,.47-3.64A1,1,0,0,0,1,40.69,8,8,0,0,1,.51,39l.28-2.1c0-.69.68-2.6.22-3.08C-.1,32.7,0,30.49.78,28.94c.66-1.29-.08-3,.88-3.9a6.22,6.22,0,0,0,.75-2.31c0-2,2.17-2.84,2.19-4.58s-.86-3.34-.84-5.3c0-1.27,2.4-.12,2.41-1.53,0-.14.84-.24,1-.28.4-.1,2.1-.41,1.49-1-1.21-1.25.12-.69.88-.68.51,0,1.57-1,2.52-1,1.27,0,1.29-2.08,2.49-2.07.36,0,.27,1.6.81,1.86,1.84.93-.64,1.55-.18,3,.35,1.1,1.2-.71,1.31-.7.36,0,.57.51,1.12.26.33-.14.44-.46.77-.6s.93-2,1.47-1.94.65.73,1,.34l1.84-1.65c.29-.32,1.22.52,1.12-.42L23.49,3.2c-.1-1-.55-2.58.26-3,1.75-.85,1.72,1,2.92,1,.51,0,1.59.35,1.84.28s.37-.57.77-.39c.79.41.86.85,1.51,1.18.9.45-.75,1.8-.75,2.27s.42,1.06.3,1.46c-.37,1.15-.15,1,.75,1.38.72,0,1.06-1,1.85-.15a2.92,2.92,0,0,1,.48,2.14c0,1.81,1.53,2.16,2.39,3.4.24.76,1.52,0,2.06.5.14.14.81,1.46.63,1.64C37.73,15.66,37,13,37,15c0,.58-1.08,1.87-.39,2.2s.39.59.38,1.28c0,.47.9.62.89,1.31,0,1.05-1.2,2.92-2.1,2.95,0,.58-.41,1-.42,1.7s2.67,1.12,3.14.8c.62-.39.56-.76,1.35-.35.29.15,1,1.68,1.73.86l1.14-1.33c.47-.5,1.34,0,1.85-.23.33-.14,1.23.48,1.22.77,0,1,1.22,1.07,2.2,1.08.73,0,.12,1.71,1.18,1.72s.4-.43,1,.23c1.29,1.32,3.61,1.35,2.31,3.83,0,1-.41,1.52-.42,2.39,0,.44.51,2.11.15,2.47-.88.86-2,2.55-.07,2.57,1.05,0,1.71-.7,2.73-.69s3.27,1.89,3.93,1.06l1.36-1.54c.41-.5,1.28-.67,1.76-1.14s1.4,1.21,1.82,1.84a7,7,0,0,1,.93,1.53c.21.65-.42,1.48-.43,2a2.56,2.56,0,0,0,.56,1.82c.25.41,1.33,1,1.43,1.44.42,1.38,3.19.69,4,.77,1.41,0,1.75,2.38,2.21,3.36.59,1.26,1.59,3.22,3.09,1.85,1,.88,1.94.88,3.05,1.45.52.26.92,0,1.39,0,.25,0,.95.76,1.1.91a2.18,2.18,0,0,0,1.6.49c.72,0,1.42,1,1.41,1.72,0,1.05.39,1,1.25,1,.62,0,1.62-.54,1.61.42,0,.56.45.94.44,1.56s0,.61.45,1-.3,2,.51,2c.52,0,.29,1,.75,1.25s.94-.3,1.49,0c.25.13.57,1.56,1.22,1.57.46,0,.77-.24,1.18-.24s.61.6.83.6c.8.26,1.52,1.66,2.13,2.29a3.63,3.63,0,0,0,2.46,1.14,8.92,8.92,0,0,1,2.59,1c1.82.92,1.88,3,2.11,4.91.14,1.21,1.49,2.31,1.47,3.43a3.85,3.85,0,0,0,.21,1.11c.11.41.49.19.8.35s0,1,.51.72c.31-.15,1.22-.66,1.52-.35s.78,0,1.12-.17c1.62-.79,1.44,1,2.74,1a5.6,5.6,0,0,1,.2,1c.05.52-.48.93-.85,1.06s-.59,1.17-.54,1.69a1,1,0,0,0,.3.71l2.11.6,1.26-.66-.06-1.86.84,0,.17-1-.34-.5.24-.39.92-.53.55.42.64,1,.7,0,.51,1.36.67.24-.25,3.55a1.68,1.68,0,0,1-.67,1,6.6,6.6,0,0,0-1,1.4c-.21.38-.8,1.71-.8,1.71l1,.3-.15.91,1.15.3,3.17-1.66a4.78,4.78,0,0,0,.25.76,5.42,5.42,0,0,1,.28.92l.1.65.38,2.38c.08.72.3.62.83.48,0,.38.06.41.06.78-.25.13-.25.51-.63.51,0,.25-.51.76-.63,1-.13,0-.63.5-.89.5-.12.38-.12.51-.5.51,0,.13-.38.38-.5.5h-.26a6.25,6.25,0,0,0-4.44-1.89c-.5.5-1.64,1.14-1.89,1.77-.51,0-1,.75-1.64.75l-.13.26c-.25,0-.38.12-.63.12,0,.13-.25.38-.25.51-.25,0-.51.5-.88.63a1.57,1.57,0,0,1-.88,1.39c0,.12-.13.25-.13.38a4.26,4.26,0,0,1-.88.63c-.38.63-1.14.63-1.77.63a.58.58,0,0,1-.38.38c0,.38-.25.63-.25,1-2.28,0-6.08-1.14-7.85,0v.12h-.25v.13c-.48,0-.29.11-.51-.38-1.77,0-6.46.25-7.35-1.52-3.29,0-7.1-2-9.62.51-1.14,0-2.41-.26-3.42-.26-.88.89-1.38,3.28-3,3.28,0,0-.25.26-.25.38-.76,0-1.76,1.39-2.65,1.39l-.62,2.27a8,8,0,0,0-1.14,1c-.13,0-.25.13-.38.13,0,.38-.12.38-.38.51A1.24,1.24,0,0,1,67.43,115.63Z"/></g></g></svg>