<svg xmlns="http://www.w3.org/2000/svg" viewBox="0 0 90.06 34.28"><defs><style>.cls-1{fill:#9cd2ef;fill-rule:evenodd;}</style></defs><g id="Layer_2" data-name="Layer 2"><g id="regije"><path id="brac" class="cls-1" d="M.37,14.78a.76.76,0,0,1,.39.1,1.26,1.26,0,0,0,.6.32c.26,0,.5-.07.57.2s0,.25.23.39.42.25.37.42a1.16,1.16,0,0,0-.1.46.3.3,0,0,0,.3.27c.16,0,.34-.1.43,0s0,.2,0,.29,0,.15,0,.23.2.09.41-.05a.46.46,0,0,1,.5-.11c.15.06.4.18.47.11s0-.17,0-.26a.28.28,0,0,1,0-.29.26.26,0,0,1,.32-.11.85.85,0,0,0,.55,0A1.27,1.27,0,0,1,6,16.45l.63,0c.16,0,.5,0,.63.09s.25.28.33.35a.13.13,0,0,0,.22-.06.62.62,0,0,0-.15-.58.52.52,0,0,0-.52-.12.64.64,0,0,1-.57-.23,1.87,1.87,0,0,1-.07-.4c0-.13-.15-.17-.26,0s-.21.38-.53.37-.48-.29-.56-.42A1.42,1.42,0,0,1,5,14.85a1.88,1.88,0,0,0,0-.58,1.53,1.53,0,0,1-.13-.53A1.48,1.48,0,0,0,4.74,13a.84.84,0,0,1,0-1c.31-.36.27-.3.37-.41s.17-.28.3-.3a.22.22,0,0,0,.2-.16.15.15,0,0,1,.26,0c.09.12.13.15.23.15a.18.18,0,0,0,.13-.21.25.25,0,0,1,.12-.27c.13-.11.32-.23.47-.37s.26-.19.44-.1.18.13.26.13.11,0,.14-.16A.21.21,0,0,1,8,10.2c.14.12.11.17.22.17s.09-.11.07-.22,0-.38.24-.34.25.14.42.33a4.6,4.6,0,0,0,.6.51s.5.09.56,0-.32-.25-.44-.31a.38.38,0,0,1-.22-.18c0-.06,0-.16.26-.19s.38-.07.36-.17-.06-.17-.25-.15-.24.12-.48.07-.24-.13-.33-.2a.51.51,0,0,0-.44-.15,1.6,1.6,0,0,1-.91-.17A1,1,0,0,0,7.3,9a1,1,0,0,1-.56-.48C6.67,8.24,6.73,8,7,8s.22-.12.22-.23a.38.38,0,0,1,.19-.34c.16-.07.2-.09.23-.16s0-.19-.2-.19-.3.09-.46,0a.36.36,0,0,1,.16-.61c.34-.07.53,0,.71-.12s.12-.3,0-.33a.56.56,0,0,0-.29,0,.4.4,0,0,1-.41-.08A1.52,1.52,0,0,1,6.57,5a5.32,5.32,0,0,0-.16-.82c-.1-.21-.2-.28-.35-.18s0,.23,0,.32.07.23,0,.3a.26.26,0,0,1-.32-.08c-.1-.11-.09-.29-.35-.29A.64.64,0,0,1,4.75,4a.76.76,0,0,1-.12-.49c0-.24,0-.29-.07-.42s-.2-.24,0-.37.2-.14.2-.24,0-.17-.17-.14-.31.11-.5,0,0-.25.12-.34,0-.2-.12-.25-.16,0-.29-.19-.09-.25-.13-.37,0-.42.2-.41.14,0,.22.11.12.07.2,0,0-.11,0-.19A.93.93,0,0,1,4.49.28a.52.52,0,0,1,.58-.2c.31.09.31.15.46.12S6-.17,6.42.11s.65.41.76.49a.33.33,0,0,0,.43.05A.66.66,0,0,1,8.22.59a1.62,1.62,0,0,0,.63.13c.15,0,.37-.19.59,0s.12.6.27.48.41-.31.52-.26.52-.05.84.2a.92.92,0,0,0,.82.2c.15-.06.37-.21.58-.06a1,1,0,0,0,.49.2c.22.06.3.15.54.24a.94.94,0,0,0,.67-.06,1.61,1.61,0,0,1,.68-.11,1.14,1.14,0,0,1,.66.18c.33.17.43.07.72.07l1.12,0a1.23,1.23,0,0,1,.73.17,1.41,1.41,0,0,0,1,.15c.42,0,.45-.19.75-.19s.57.17.71,0a.89.89,0,0,1,.63-.29c.3,0,.44,0,.61.13a.43.43,0,0,0,.48.16c.19,0,.21-.11.31-.19a.45.45,0,0,1,.57,0c.18.19.13.23.28.26s.22.06.23-.1-.05-.5.28-.53a1.09,1.09,0,0,0,.59-.16,1.17,1.17,0,0,1,.74-.28c.31,0,.35-.1.4,0s0,.13-.17.18-.29,0-.3.23.32.07.42.12.43.11.76.19c.17,0,.31.14.4,0s-.13-.27-.07-.3.32.21.46.27.17.19.39.22a5.24,5.24,0,0,1,.78.16,4.53,4.53,0,0,0,1.29.12c.28,0,.42,0,.51.06a.64.64,0,0,0,.38.2.61.61,0,0,1,.49.18c.15.19.17.23.42.23s.38-.11.67,0a1.46,1.46,0,0,0,.81,0,2.45,2.45,0,0,1,.9-.24c.48,0,.85-.11,1.07.06s.28.06.28.15a.92.92,0,0,1-.27.4c-.18.15-.33.14-.38.29s.09.12.25.06a3.42,3.42,0,0,0,.58-.35c.09-.06.31,0,.45.2s.15.41.26.45.14-.2.14-.32-.1-.6-.1-.67.09-.19.44-.09.35.26.64.25.53-.11.68.12.11.34.35.36.39.06.42.33,0,.38.12.4.28-.14.34-.27.31-.56.53-.49.21.39.46.32.13-.41.22-.46a.4.4,0,0,1,.38,0c.1.09,0,.21.13.29s.4,0,.51,0a.83.83,0,0,1,.66.12c.28.21.17.36.34.36a2.65,2.65,0,0,1,.8,0,1.15,1.15,0,0,0,.56,0c.2,0,.39,0,.44.22s0,.29.07.37.2,0,.31-.2.14-.29.39-.29.29,0,.52,0a.44.44,0,0,1,.47.25c.12.19,0,.3.19.31a.36.36,0,0,0,.26,0,.4.4,0,0,1,.55.21c.14.32,0,.4.16.53s.25,0,.33-.08.29-.54.59-.55a.72.72,0,0,1,.56.16c.13.11.24.23.36.24a.23.23,0,0,0,.23-.14c.05-.08.49-.28.66,0a.83.83,0,0,1,.14.62c0,.28,0,.37,0,.46s0,.24.16.15.3-.34.39-.45.36-.43.57-.25.1.35.24.39.24-.21.3-.28.5-.19.66.08,0,.41.15.42.15,0,.23-.12A.69.69,0,0,1,53,6.13c.24,0,.72-.11.79.24s.08.52.23.57.06-.12.15-.26a.53.53,0,0,1,.52-.34c.18,0,.42,0,.62,0s0,.13.1.25.32,0,.44,0-.05.43.07.44.28-.15.43-.15.07.2.19.27.26-.07.36-.06a.26.26,0,0,1,.19.26,5,5,0,0,0-.13.8c0,.15,0,.09.15,0a.53.53,0,0,0,.23-.45c0-.25.2-.52.32-.55a.21.21,0,0,1,.25,0c.08.07-.11.41,0,.39a2.06,2.06,0,0,1,.62-.17,8.16,8.16,0,0,0,.84,0c.29,0,.57,0,.68.31a1.8,1.8,0,0,1,.15.7,3,3,0,0,0,.05.93c.11.37.29.5.2.78a.48.48,0,0,1-.31.34c-.09.07-.26.13-.28.22a.15.15,0,0,0,.19.17c.16,0,.55-.28.74,0s.18.32.27.43.14.16.23.17.1-.19.07-.31a1.75,1.75,0,0,0-.14-.34,1.57,1.57,0,0,1-.13-.45A2.38,2.38,0,0,0,61,9.89a1.14,1.14,0,0,1-.14-.62,8.35,8.35,0,0,0,0-.91c0-.25-.07-.63.12-.73s.33-.11.56.18.31.36.43.36.22.21.34.08.06-.32.2-.41a.59.59,0,0,1,.66.1c.23.26.11.41.28.43s.08-.08.11-.18.1-.38.39-.21l.83.55a.34.34,0,0,0,.44-.07c.15-.14.69-.33,1-.08s.1.21.16.34,0,.44.12.46.11-.13.15-.27,0-.43.42-.43c.1,0,.17.06.32.07s.36,0,.51,0a1.77,1.77,0,0,1,.55.15c.27.15-.13.33-.09.56s.2-.14.22,0a1.65,1.65,0,0,1,0,.47c-.07.29.07.45,0,.57s-.21.27-.13.33.24,0,.29-.16a1.19,1.19,0,0,0,.11-.42,1.82,1.82,0,0,1,.16-.5c.05-.16.15-.37.38-.1.06.07.1.09.21,0s.3-.31.46-.14-.23.29,0,.29a.68.68,0,0,1,.32,0c.07,0,0,.22,0,.27s.41-.17.45-.12.21.51.28.38,0-.37.06-.47.14-.49.4-.37.24.36.54.41.34,0,.51.23.37.42.53.32.23-.33.48-.32.27,0,.5.16l.09.08c0,.05-.2.2-.19.31s.31.16.35.21.11-.31.15-.27.41.49.56.66.27.25.23.37-.12.38-.74.45a11.92,11.92,0,0,0-1.19.3l-1.15.07h-.88a.15.15,0,0,0-.07.13c0,.1.09.48-.16.51a4,4,0,0,1-.66,0s-.18,0-.2.13.11.16.29.16a.82.82,0,0,1,.65.19c.21.2.25.14.3.4s0,.27.18.31.26,0,.25-.29a.5.5,0,0,0-.07-.32c-.06-.15-.11-.22-.07-.31A.33.33,0,0,1,72.1,13,7.16,7.16,0,0,0,73,13c.15,0,.61-.12.83-.15s.54-.08.6.17.13.31-.16.48-.22.19-.32.22c-.27.09-.42.48-.1.4s.21-.22.39-.12.32.24.44.16.07-.08.13-.17a1.15,1.15,0,0,1,.19-.28,1.12,1.12,0,0,0,.2-.45.45.45,0,0,1,.52-.33c.21.06.25.15.24.36a1.13,1.13,0,0,0,.07.5c0,.1,0,.45.15.47s.18,0,.23-.16.14-.63.32-.57.07.13.17.26.38.06.42.11a1.13,1.13,0,0,1,.15.69c-.08.23-.36.6-.28.67s.13,0,.24-.11c.29-.2.21-.61.53-.71.14-.05.19.08.25.21a.31.31,0,0,0,.26.22c.09,0,0-.14,0-.21a.61.61,0,0,0-.09-.46,4.13,4.13,0,0,0-.42-.63,6.36,6.36,0,0,1-.46-.67c-.07-.15.1-.11.3-.22a.44.44,0,0,1,.58.15c.12.18.24.51.4.55s.21,0,.2-.17S79,13,79,12.76s-.12-.52.11-.52,0,.25.15.3.41-.1.49,0-.1.22.07.33.69.47.7.7a2.49,2.49,0,0,1,0,.49c0,.07,0,.25,0,.27s.18,0,.27-.21a3,3,0,0,1,.22-.38c.07-.11.22-.34.4-.2a4.58,4.58,0,0,1,.54.63c.09.09.32.21.26.45s-.21.39-.14.47.17,0,.33-.15.33-.3.57-.13.73.7.85.78.32.49.05.63-.51,0-.61,0,.16.17.12.22.09.12.29.13.15-.1.46,0,.19,0,.32-.1.15.16.27.13.19-.28.3-.21a4.41,4.41,0,0,0,.68.45c.18.05.3-.23.33,0a.56.56,0,0,0,.15.36s-.13.23,0,.26.13-.31.43-.21,1.08.46,1.57.7a4.37,4.37,0,0,1,1.34.86l.2.27c.08.12.27,0,.31.17s-.14.45-.15.59a.66.66,0,0,1-.45.61A1.09,1.09,0,0,0,89,21c-.12.24-.24.53-.53.51s-.34,0-.5-.23-.1-.43-.31-.38-.14.17-.12.35.08.16.28.41.22.21.27.44.08.44.37.48.41,0,.63.2.12.25.1.38-.37.24-.63.14-.31-.22-.53-.23a1.2,1.2,0,0,0-.72.32c-.12.13.07.21.08.33s0,.26-.26.16a.54.54,0,0,0-.44,0c-.06.06,0,.15.06.32s.23.25.07.43-.29.23-.37.37a2.21,2.21,0,0,0-.11.8c0,.32-.05.27-.05.37s0,.33.21.37.49,0,.56.16,0,.17-.11.26-.22,0-.29.07-.24.4-.28.44-.36,0-.46.1-.25.25-.39.2-.25-.07-.28-.21.07-.34,0-.5-.25-.24-.3-.35a7.48,7.48,0,0,0-.75-.39c-.23-.09-.15.09-.32.07a.79.79,0,0,1-.39-.19c-.19-.11-.43-.4-.49-.42s.26.41.27.48-.18.17-.09.22.18.08.23.17a.59.59,0,0,0,.3.29c.2.11.07.14.15.24s0,.07,0,.14a.49.49,0,0,1,0,.4c-.06.12-.21.09-.46,0s-.23,0-.31.05.06.25.12.34.17.21.14.33-.13.13-.32.07-.31-.12-.43-.15-.21,0-.25.05,0,.19.1.3a.59.59,0,0,1,.22.29c0,.11,0,.2-.16.16a.33.33,0,0,0-.47.43.56.56,0,0,1-.13.47.42.42,0,0,1-.35.12c-.11,0-.25-.17-.38-.06s-.16.29-.37.31-.39.16-.54,0-.4-.42-.47-.51-.28-.32-.46-.25a.27.27,0,0,0-.19.35c0,.13.44.42.12.58-.06,0-.19.11-.25.13-.24.08-.38,0-.55,0s-.19.23-.36.17a.64.64,0,0,0-.47.06.51.51,0,0,1-.37.09.57.57,0,0,0-.4.1.68.68,0,0,1-.41.09c-.16,0-.15-.23-.31-.26s-.19,0-.29-.05a.18.18,0,0,0-.12,0c-.13,0-.12.18-.3.24a1.33,1.33,0,0,1-.43,0c-.35-.1-.37-.07-.51-.17s-.15-.37-.27-.3-.21.32-.25.42-.08.36-.3.36-.13-.07-.27-.11a.56.56,0,0,0-.44,0c-.16.07-.14.05-.36,0s-.54-.08-.69.05-.19.37-.25.41-.08.09-.45.11c-.18,0-.3.13-.45.17s-.3,0-.42,0a1.68,1.68,0,0,1-.84.28,2.39,2.39,0,0,0-.6,0c-.12,0-.42.08-.58.09H67.32a2.34,2.34,0,0,1-.54-.09,1.7,1.7,0,0,0-.52-.1l-.94,0a.46.46,0,0,1-.35-.11c-.13-.12-.26-.23-.37-.14s-.18.29-.43.3a.52.52,0,0,1-.41-.11c-.14-.09-.32-.25-.38-.29s-.16-.28-.33-.12a2.14,2.14,0,0,0-.31.44.29.29,0,0,1-.23.16c-.13,0-.1,0-.25,0s-.29-.17-.47-.11a2,2,0,0,1-.64.11c-.3,0-.44.17-.58.12s-.26-.25-.42-.25-1.2,0-1.55.06a1.8,1.8,0,0,0-.71.15.8.8,0,0,1-.57.11,5.34,5.34,0,0,1-.59,0,9,9,0,0,0-.9,0,1.76,1.76,0,0,0-.5.13l-.76.24c-.22.06-.16,0-.6.14-.15,0-.29,0-.48,0-.36.09-.57.37-.75.39s-1.18,0-1.38,0A3.67,3.67,0,0,1,50,33.4c-.6-.23-.66-.31-1-.3s-.45.21-.69.12-.5-.51-.66-.48-.24.25-.41.27a.26.26,0,0,1-.28-.09c0-.06-.25.07-.45.08s-.46-.21-.69-.21a1.53,1.53,0,0,0-.66.15,1.44,1.44,0,0,1-.36.17,2.25,2.25,0,0,0-.41.25,1.54,1.54,0,0,1-.82.23,1.65,1.65,0,0,1-.68-.18,1.45,1.45,0,0,0-.66-.13,1.13,1.13,0,0,0-.58.18.46.46,0,0,0-.22.34,1.31,1.31,0,0,0,0,.31.14.14,0,0,1-.12.16c-.09,0-.14,0-.19-.17s0-.37-.19-.52a.81.81,0,0,0-.29-.16l-.33-.14a2.83,2.83,0,0,0-.44-.11c-.17,0-.74,0-.92-.05a1.18,1.18,0,0,1-.81-.25c-.43-.3-.46-.31-.72-.34l-.72-.1a2.26,2.26,0,0,0-.69,0,1.49,1.49,0,0,1-.74.13,1.07,1.07,0,0,1-.45-.16,1.94,1.94,0,0,0-.72-.21,2.17,2.17,0,0,0-.44,0,4.35,4.35,0,0,1-.81-.22c-.16-.08-.22-.17-.39-.18a.5.5,0,0,0-.32.06.56.56,0,0,1-.46.05c-.21-.09-.38-.26-.67-.23a3.46,3.46,0,0,1-.62,0,2,2,0,0,1-.45-.07,1.75,1.75,0,0,0-.63-.08,2.42,2.42,0,0,1-.93,0,1.45,1.45,0,0,1-.35-.19.59.59,0,0,0-.6-.12,1,1,0,0,1-.61.12,5.53,5.53,0,0,0-1.11-.3A7.62,7.62,0,0,1,24.39,31a2.53,2.53,0,0,1-.54-.19.68.68,0,0,0-.46-.05c-.14.05-.22.15-.35.1s-.06-.16,0-.25.07-.2,0-.27-.22,0-.33.1a1,1,0,0,1-.53.19c-.24,0-.58-.12-.6-.35s0-.31,0-.41,0-.25-.14-.28a.51.51,0,0,0-.36.06.74.74,0,0,1-.66.1.88.88,0,0,1-.45-.48c-.07-.15-.14-.45-.29-.44s-.19.12-.2.24a3.4,3.4,0,0,0,.07.46c0,.12-.05.36-.27.23a10.46,10.46,0,0,1-1.16-1.14.52.52,0,0,1,0-.66c.18-.23.17-.31.17-.38a.15.15,0,0,0-.16-.18.79.79,0,0,0-.55.25,2.37,2.37,0,0,0-.45.72c-.09.19-.1.36-.29.36s-.18-.13-.19-.31a1.34,1.34,0,0,0-.07-.39c-.05-.17-.16-.38.05-.58s.24-.24.28-.47,0-.31-.11-.35a.24.24,0,0,0-.32,0,.36.36,0,0,1-.36.14c-.14,0-.12-.24-.13-.33s0-.36,0-.45-.06-.26-.21-.23-.23.2-.25.45a2.93,2.93,0,0,0,0,.51.41.41,0,0,1-.11.3c-.12.12-.18.08-.3,0s-.16-.13-.18-.35,0-.36-.13-.47a1.08,1.08,0,0,1-.29-.31.32.32,0,0,1,0-.3.4.4,0,0,0,.05-.31c0-.1-.12-.14-.26-.06a.36.36,0,0,1-.31.06c-.14,0-.17-.25-.1-.45s.18-.33.13-.47-.17-.1-.25.06-.23.55-.42.58a.29.29,0,0,1-.31-.18c0-.06-.11-.21-.22-.11s-.17.27-.39.23-.26-.16-.25-.34.06-.26.05-.37-.09-.17-.18-.07-.12.33-.3.26-.11-.23-.06-.31.07-.17,0-.21-.13,0-.17.09a.18.18,0,0,1-.29,0c-.14-.14-.08-.39.06-.59a1.86,1.86,0,0,0,.31-.76c0-.24,0-.35-.21-.29s-.27.27-.52.28-.36-.26-.31-.5.17-.36.16-.53,0-.25-.15-.24-.12.08-.22.18l-.24.21a.4.4,0,0,0,0,.58c.18.24.47.47.44.77s0,.38-.14.53-.32.1-.33-.09A2.06,2.06,0,0,0,9.91,23a.36.36,0,0,0-.29-.1.24.24,0,0,0-.19.23.51.51,0,0,1-.11.35.8.8,0,0,1-.45.22.51.51,0,0,1-.59-.24,1,1,0,0,1,.13-1c.21-.22.63-.53.73-.64a.38.38,0,0,0,.13-.28c0-.12-.06-.13-.18-.1s-.18.07-.27,0,0-.17,0-.24a.15.15,0,0,0-.1-.2c-.12,0-.17,0-.22.09a.64.64,0,0,0-.11.3c0,.08,0,.22-.14.23S8,21.47,8,21.33s0-.32,0-.51,0-.25-.11-.27-.13,0-.15.12,0,.38-.22.39-.2,0-.25-.22a.75.75,0,0,1,0-.38c0-.11,0-.23-.13-.21s-.17.15-.36.19a.29.29,0,0,0-.28.28c0,.15,0,.25.19.39s.4.23.43.52a1.9,1.9,0,0,1,0,.48.25.25,0,0,1-.2.24.5.5,0,0,1-.49-.13.94.94,0,0,1-.17-.37c0-.15-.07-.33-.21-.3s-.15.07-.21.17a.44.44,0,0,1-.37.32.6.6,0,0,1-.68-.45,1.17,1.17,0,0,1,.23-.9A1.59,1.59,0,0,0,5.26,20a.55.55,0,0,0-.15-.43c-.06-.07-.1-.18-.23-.13s-.07.14-.07.31.09.32,0,.44-.08.17-.24.18-.24,0-.22.16.08.27-.06.39-.19.13-.29.13-.13-.1-.15-.16a.16.16,0,0,0-.14-.15c-.1,0-.12.23-.27.23s-.23-.16-.25-.19a.44.44,0,0,0-.23-.23A.77.77,0,0,1,2.55,20a2.19,2.19,0,0,1,0-.41c0-.09,0-.23-.14-.22s-.1,0-.17.06-.19.25-.33.19-.14-.09-.21-.22a.74.74,0,0,0-.21-.31C1.4,19,1.25,18.9,1.07,19s-.23.36-.51.3a.62.62,0,0,1-.49-.61c0-.32,0-.5.31-.52s.37-.1.31-.26a3.06,3.06,0,0,0-.28-.54,1.11,1.11,0,0,1-.21-.56c0-.19,0-.63,0-.82s0-.43-.1-.56A.51.51,0,0,1,0,14.94.35.35,0,0,1,.37,14.78Z"/></g></g></svg>