<svg xmlns="http://www.w3.org/2000/svg" viewBox="0 0 104.5 98.3"><defs><style>.cls-1{fill:#2e783b;fill-rule:evenodd;}</style></defs><g id="Layer_2" data-name="Layer 2"><g id="regije"><path id="cazma" class="cls-1" d="M103.93,57.21v.37l-4.81.13v.38H99v.38c-.38.38-.63.63-.63,1.13-.13,0-.51.76-.63.89l-.25.12-.13,1.27c-.25,0-.5.63-.5.75l-.12.13c-.26,0-.64.13-.89.13,0,.63-1.26,1.51-1.89,1.51,0-.13-.26-.38-.26-.38h-.88a5.88,5.88,0,0,1-1.89,2.78c-1.39,1.13-3.16.88-4.42,2.14-.63.64-2.15,1.77-2.4,2.53-.12.12-.38.25-.5.38,0,1.39,1.27,2,2.16,2.9h.38c.38-.38.37-1.39.37-2l.25-.25,2.28.13a3.45,3.45,0,0,1,1.14-.76,6.56,6.56,0,0,1,1.27.76A14.94,14.94,0,0,0,91.6,75a.27.27,0,0,1,.25.25h.63c0,.25.39.63.39,1a1.3,1.3,0,0,1,.25.76h.26a2.07,2.07,0,0,1,.51.88h.38c0-.38.12-.88.12-1.14a1.69,1.69,0,0,1,.76-.12c.63.63,1.65.5,2.41.5.12.26.76.63.89.89h1.14c.88-.89,2.77-2.4,4-2.4,1,2,.4,5.3-.61,6.82h-.25c0,.12-.25.38-.25.5-.25,0-.38.38-.38.51h-.25c0,.25-.13.38-.13.5l-.38.53a1,1,0,0,0-1.8-.29c-.31.53-1.64.93-2.16,1s-.92.63-1.15,1.53a.8.8,0,0,1-1.14.52l-.23.48-1.13.14s-1.59-.09-1.69-.51-.45-.8-.87-.27-.79,0-1.24-.24-.79-.24-.44-.88-1.9-1.26-1.9-1.26a1.42,1.42,0,0,1-.9-.43c-.3-.38-.41-.38-.79-.23s-.74-.92-.74-1.37-.63-.65-1.16-.88-.18-.45-.18-.45A6.57,6.57,0,0,0,83.8,80c-.1-.57.13-.79.4-1.28s0-.56-.49-.61a5.26,5.26,0,0,0-1.52.39s-.42.49-.65.7a2.41,2.41,0,0,0-.49,1.19,6.1,6.1,0,0,1-.82,1.5,12.69,12.69,0,0,0-.85,2.57,2.68,2.68,0,0,1-.84,1.07c-.18.17-.11.76-.11.76s0,.33-.1.41-.12.23-.14.61a2.49,2.49,0,0,0,.08.76s.47.61.54.73a1.23,1.23,0,0,1,.17.51c0,.14-.41.37-.55.62a1.65,1.65,0,0,0,.14,1.1,4.35,4.35,0,0,1,.12,1.22c0,.15.35.45.45.59s.17.43,0,.57S79,93.73,79,94s-.31.27-.53.32-.16.47-.16.7-.28.45-.46.55a.36.36,0,0,0-.24.41c0,.17.27.31.43.37s.07.3,0,.51.45.28.56.28,0,.22-.12.24-.14.17-.2.37-.43-.09-.43-.09a1,1,0,0,0-.41-.24c-.15,0-.27.24-.35.49a.61.61,0,0,1-.52.38.51.51,0,0,1-.43-.26.22.22,0,0,0-.37,0c-.1.12-.14.12-.25.06s-.22-.12-.34,0-.48-.23-.5-.37a7.35,7.35,0,0,1,0-1.43,3.69,3.69,0,0,0,0-1,3.15,3.15,0,0,0-.8-1.74A1.29,1.29,0,0,1,73.41,92c.12-.68-.14-.87-.67-.84s-.37-.53-.37-.53a3.64,3.64,0,0,1-.14-.8c0-.45-.79-.35-1-.76s-.75,0-.82-.58-.56-.34-.71-.87-.18-.27-.67-.54a1.27,1.27,0,0,0-1.4.14,4.66,4.66,0,0,1-2.07.12c-.68,0-.41-.46.12-.64s-.52-.46-.59-1,1.15-1.23,2.32-1.63.09-1.47.09-1.47a9.4,9.4,0,0,0-1.79-1.3c-.6-.24-.43-1.48-.2-2.45s-.7-1.22-.88-1.75-1.13-.28-1.13-.28l-.9.07a5.44,5.44,0,0,1-1.42-.7c-.64-.46-.55-1.36-.51-1.89s-.14-1.13-.09-1.81-.48-.61-.48-.61a1.72,1.72,0,0,0-.57.6c-.2.37-.23.34-.92,1s-1.52-1.75-1.52-1.75a1.69,1.69,0,0,0-.6-.84c-.44-.31-.21-.68-.59-1.1a1.6,1.6,0,0,1-.32-1.06,1.15,1.15,0,0,0-.25-.94,1.17,1.17,0,0,1,0-1.4c.23-.48,0-1,.24-1.43s-.18-1.09-.18-1.09a4,4,0,0,0-.51-1.4,2.32,2.32,0,0,1-.09-1.74c.12-.48-.44-1-.44-1a1.11,1.11,0,0,1-.36-1c.08-.56-.18-.64-.75-.76a1.28,1.28,0,0,0-.94.14,1.07,1.07,0,0,0-1,.44c-.43.56-.65.37-1.07.74a1.45,1.45,0,0,1-1.43.36c-.53-.16-.87.1-1.37.47s-.56-.08-1.16-.16-.45-.54-.44-1.18-.86-.57-.86-.57a.63.63,0,0,0-.72.25c-.3.41-.57.52-1.21.4s-.62-1.25-.62-1.25a2.12,2.12,0,0,0-.33-1.28A4,4,0,0,1,41.46,55a2.86,2.86,0,0,1-.4-1.51c.12-.6-1.12-.54-1.11-1.07s-.68.14-.75-.38-.42-.2-.49-.69-.22-.45-.71-.46-.06-.68-.44-.91-.64.22-1.17.63a5,5,0,0,1-2,.5s-1,.33-1.43-.17-.52-.19-1.09.29-.56-.68-.56-.68a1.51,1.51,0,0,1,.28-1.17c.42-.52-.07-.79-.06-1.32s-.86-.5-1-.91-.33-.46-.72,0-.53.33-1.24.13-.72.41-1.14.82-.65.33-1.13.13a5,5,0,0,0-2.23-.06c-.64.14-1.42-.55-2-1.19s-1-.28-1-.28A3,3,0,0,1,21,46a2,2,0,0,0-.4-1.32,11,11,0,0,0-1.29-2.21c-.45-.34-1,1.39-1,1.39s-.24,1.16-.65,1.08,0-1.17-.28-1.77l-.26-.61s-.94,0-.44-.72a2.14,2.14,0,0,0,.47-1.95c-.22-.57-.06-1-.67-.77s-1.05.11-1.23-.58S14.74,37,14.74,37s-.7-1.18-1.19-1.15a2,2,0,0,0-1.37.59c-.38.41-1,.06-1,.06a5,5,0,0,0-.53.79c-.2.37,0,.49-.57.18l-.56-.31s-.27.26-.87-.16-1.12-.54-1.53-1.08-1-.84-.47-1.21-.4-1.62-.4-1.62a1.38,1.38,0,0,0-1.35-.17c-.72.33-2,.65-1.7.17s.73-1.39,0-.76-1.1.18-1.1.18a1.11,1.11,0,0,0-1,.21c-.34.38-1.36.4-1.17-.2l.2-.6a1.49,1.49,0,0,1,.5-.86c.42-.33,1.56-1.53,1.56-1.53a2.25,2.25,0,0,0,.66-1.31,8.82,8.82,0,0,1,1.15-3.06c.87-1.68-.35-2.12-1.32-3,0-.11-2.23-1.73-1.54-1.73,1.29,0,1.37-.55,2.51-.54.69,0,.62-.75.44-1.17-.11-.27-2-.67-1.13-1.57.39-.38,0-3.69,1.36-2.27.27.27.74,1.57,1.43,1.24.39-.19,1.12-1,1.46-1,1.06,0,1.3-.4,2-.74,1-.44.32-1.67,1.73-1.65.79,0,1.5,1.39,2.18,1.55a3.63,3.63,0,0,1,1.63.7c.6.62.25,1.34,1.08,1.88,1.73,1.2,3.19.34,4.91-.66a1.47,1.47,0,0,0-.45-.81c-.11-.11-.83-.08-.6-.31.54-.52-.86-1.07-.32-1.6.15-.15.69-.86.47-1.1a2.05,2.05,0,0,1-.29-1.52c.16-.34.33-.71.44-1a2.91,2.91,0,0,1,.52-.69l.87,0L22.7,8l-.09-.95s.93-.22,1.14-.73.5-1.27.5-1.27a.93.93,0,0,1,.29-.77c.34-.25,1-.37,1.09-.83s.24-1,.52-.69.37.42.63.5.51,0,.61.21a3.37,3.37,0,0,1,0,1.36c-.08.41-.25,1.92-.25,1.92l.22.87s.32.59.68.6.34-.28.62-.28.74.09.59-.4a8.08,8.08,0,0,1-.22-.9l.45-.81,1,.27.68-.56s.76.57.81.81.35.56.21,1,.1.84.43.85h.92l-.46-3.08s-.14-.8.42-.53c.19.08.46-.26.81-.25,1.36,0,.35-.61,1.37-.6a2,2,0,0,0,1.63-.53c0,.26,1.53,1.17,1.53,1.67.5,0,1.26-.12,1.77-.12,0,0,.25-.26.25-.38l.25-.13V4c.13-.25.26.13.25-.38h.38l.26.25c.51,0,.88-.63,1-1L45,2.78a1.29,1.29,0,0,1,.12-.38A6.19,6.19,0,0,1,45.32.88a1.73,1.73,0,0,0,1-.88c.76,0,1.64.51,2.15.51.13.25.51.5.51.88.25,0,.26.88.26,1.14a.63.63,0,0,1,.25.5c.38,0,.89.51,1.4.51,0,.12.64.63.76.75H54.2C54.32,3.92,55.59,4,56,4v.25h1.26s.76-.88.89-.88c1.39-.76,2.28,1.14,3,1.14,0,.5.26,1,.26,1.51.13,0,.38.38.51.51a1.62,1.62,0,0,1,1.14.5h.25c.26.26.89.64.89,1a1,1,0,0,1,.51.51c.13,0,.25.1.38.13a6.39,6.39,0,0,1,1.66,1.51c.51.76,1.39,1.14,1.65,2.27,0,.51,0,1.64.52,1.9,0,1.77,1.15,3.41,1.16,5.17.12,0,.38.13.38.26s.38.12.51.12c.12.26.38.26.63.26s.51.5.76.5c0,.63,1.28,2.15,1.53,2.78a5.45,5.45,0,0,0,.77,1.77,3.84,3.84,0,0,1-.37,1.13,16.49,16.49,0,0,0,3.29,1.14s.26.25.26.38c.63,0,1,1.51,1.4,1.64,0,.13.12.25.13.51.12,0,.38.12.38.25.25,0,.76.5.89.63a7.42,7.42,0,0,0,1.53-.18,6,6,0,0,0,2,3.46v.13l.26.13a3,3,0,0,0,.89,2c.51,0,1.27-.13,1.78-.13a11,11,0,0,1,.64,2.15c.38-.13,1.39-.51,1.51-.76a.89.89,0,0,0,.64-.51h.5c.13-.12,1.14-1,1.39-1a1,1,0,0,1,.5-.5c0-.13.13-.38.13-.51H93a12.22,12.22,0,0,0,1.26.64.9.9,0,0,1,.26.5c.63,0,1.4,1.14,2,1.14A1.83,1.83,0,0,0,97,38h.38c.13.13.25.38.63.38a8.7,8.7,0,0,1,.14,1.9l.63.63c.51,0,1.14.12,1.65.12l.25.26c1.25,0,2.48.6,3.81.75-.51,0-2.28,0-2.28.64H102v.37c-.13,0-.38.13-.51.13v.38c-.5.25-1,.38-1.51.63,0,.88-.5,1.77-.5,2.53a20.55,20.55,0,0,0-.11,2.77c-.51.26-.63,1.27-1.14,1.52v.5h-.13a9.49,9.49,0,0,0-.12,1.9,3.57,3.57,0,0,0,2.28.75,3.42,3.42,0,0,1,.9,1.77c.38.13,1,.63,1.27.63a4.85,4.85,0,0,0,.38.51Z"/></g></g></svg>