<svg xmlns="http://www.w3.org/2000/svg" viewBox="0 0 61.52 185.35"><defs><style>.cls-1{fill:#9e76b4;fill-rule:evenodd;}</style></defs><g id="Layer_2" data-name="Layer 2"><g id="regije"><g id="cres_losinj"><path class="cls-1" d="M35.35,155a.2.2,0,0,1,.3,0,6.55,6.55,0,0,1,.73,1c.14.31.11.36.23.52a5.21,5.21,0,0,0,.43.49.17.17,0,0,1,0,.28c-.14.12-.47.06-.64.33s-.39.77-.6.76-.14-.19-.14-.28-.05-.29-.22-.27a.36.36,0,0,0-.3.19c-.06.07-.21.18-.31,0a.74.74,0,0,1,.09-.79c.12-.13.17-.26.26-.29s.21,0,.26,0,.24-.21.13-.34a2,2,0,0,1-.39-.63,1.15,1.15,0,0,1,0-.73A.83.83,0,0,1,35.35,155Z"/><path class="cls-1" d="M11.6,146.11s.05-.19.21-.1.13.15.31.28a1.37,1.37,0,0,1,.53.56,1.38,1.38,0,0,0,.5.61,13.76,13.76,0,0,1,1.27.89c.33.32.86,1,1,1.15s.1.22.23.5a1.42,1.42,0,0,0,.44.55.82.82,0,0,1,.4.55c.07.36,0,.57-.2.52s-.24,0-.46-.26-.15-.44-.43-.69-.27-.12-.46-.44a1.76,1.76,0,0,0-.54-.65,5.34,5.34,0,0,1-.85-.65c-.24-.26-.33-.44-.59-.52a.73.73,0,0,1-.51-.37,2.78,2.78,0,0,0-.39-.61c-.23-.26-.31-.18-.41-.52A2.3,2.3,0,0,1,11.6,146.11Z"/><path class="cls-1" d="M16.65,152s0-.27.24-.18a7.17,7.17,0,0,1,.72.43,2.5,2.5,0,0,1,.72.51c.23.25.42.58.59.77s.37.29.37.49-.08.2-.24.2a.59.59,0,0,1-.33-.13c-.09-.06-.21-.17-.32-.08s-.16.3-.35.21-.14-.06-.24-.21a1.2,1.2,0,0,0-.39-.48,2.13,2.13,0,0,1-.4-.31c-.1-.07-.11-.16-.29-.16s-.21,0-.24-.17,0-.16.1-.25a.31.31,0,0,0,.09-.29C16.66,152.16,16.65,152,16.65,152Z"/><path class="cls-1" d="M55.78,168s.06-.24.29-.07.22.27.46.34.39.14.4.37,0,.27.13.36a.23.23,0,0,0,.33-.09c.07-.07.27-.4.49-.15s.19.44.46.56a2,2,0,0,1,.89.55c.2.28.08.42,0,.47l-.08.07-.21.2a.7.7,0,0,0-.21.25.6.6,0,0,0,.07.55.39.39,0,0,1,0,.43.56.56,0,0,1-.42.2,3.21,3.21,0,0,1-1.07-.13c-.34-.14-.21-.34-.16-.43a1.14,1.14,0,0,0,.19-.4c.05-.24-.19-.33-.48-.5-.11,0-.27-.11-.26-.22l0-.11a2.33,2.33,0,0,1,.15-.35.79.79,0,0,0,0-.73,1.69,1.69,0,0,0-.45-.52,1.76,1.76,0,0,1-.51-.36A.51.51,0,0,1,55.78,168Z"/><path class="cls-1" d="M59.26,171.82s.16-.1.23,0,0,.26.18.33.14.17.11.31a.54.54,0,0,1-.15.29.45.45,0,0,0-.1.3c0,.11-.06.43.07.56a.42.42,0,0,0,.3.16c.07,0,.35,0,.35.18s0,.34-.09.34-.09,0-.15-.07-.15-.17-.25-.09-.11,0-.11.19,0,.35-.15.34-.19,0-.22-.23-.06-.51-.12-.76-.14-.44-.2-.69a1.15,1.15,0,0,1,0-.82A.82.82,0,0,1,59.26,171.82Z"/><path class="cls-1" d="M9.31,164.19c-.05.13-.08.37.22.41s.5-.18.58.16-.13.43-.13.43a.26.26,0,0,0-.15.3c0,.24-.14.27.08.49s.18.17.19.42,0,.3.16.4.15.2.17.35a.5.5,0,0,0,.34.35c.18.07.35,0,.47.31s.07.21.25.36a1,1,0,0,1,.26.43c.09.16.13.3.35.26s.26-.27.41-.14,0,.15,0,.26,0,.44.16.55.32,0,.55-.22.16-.16.21-.27a.72.72,0,0,1,.36-.47c.3-.15.5-.29.55-.51s.12-.52.32-.52.2.06.28.18a.47.47,0,0,0,.43.16.76.76,0,0,0,.68-.25c.13-.21.13-.56.32-.7s.34-.29.36-.44-.12-.3-.28-.19-.39.35-.49.42a1,1,0,0,1-.6.24c-.34,0-.48,0-.68-.19s-.17-.38-.38-.35a.38.38,0,0,0-.29.25.28.28,0,0,1-.34.11c-.19-.1-.2-.34,0-.55s.43-.39.31-.74-.19-.45-.45-.48a1.08,1.08,0,0,1-.47-.15,2.83,2.83,0,0,0-.54-.25,1.44,1.44,0,0,1-.56-.1c-.22-.13-.2-.17-.36-.17s-.2.1-.41-.14a1.86,1.86,0,0,0-.84-.62c-.37-.11-.56-.15-.63-.05s-.07.19-.16.33S9.36,164.05,9.31,164.19Z"/><path class="cls-1" d="M15.89,96.44s.13-.31.38-.23.23.16.27.43a7.41,7.41,0,0,1,0,.94,1.1,1.1,0,0,1-.2.84,2.49,2.49,0,0,0-.59,1.1,1.36,1.36,0,0,1-.2.87c-.22.42-.45.52-.37,1a9.66,9.66,0,0,1,0,1.36,1,1,0,0,1-.18.7,1.22,1.22,0,0,0-.2.5.59.59,0,0,1-.34.57c-.39.19-.66.16-.81,0a.91.91,0,0,1-.23-.47,3.3,3.3,0,0,0-.12-.55,2.74,2.74,0,0,1,0-.91c0-.34.13-.36.16-.64a1.53,1.53,0,0,1,.37-.86,2.9,2.9,0,0,0,.56-1c.14-.4.22-.64,0-.75s-.36-.13-.31-.3.28-.35.58-.61a4.11,4.11,0,0,0,.9-1.11C15.58,97.08,15.89,96.44,15.89,96.44Z"/><path class="cls-1" d="M8.53,121.79a.47.47,0,0,1,.56-.11.44.44,0,0,1,.2.7c-.2.31-.56.38-.58.64s0,.19-.14.39-.23.4-.08.44a.35.35,0,0,0,.35-.13c.09-.07.21-.2.46,0a2.68,2.68,0,0,1,.37.48c.11.14.35.35.3.62s-.09.37-.3.4-.37,0-.38.2.27.35.13.59-.27.38-.09.52.32,0,.43,0a.35.35,0,0,1,.48.09.81.81,0,0,1,.08.74.66.66,0,0,1-.49.45c-.16,0-.34,0-.39.06s0,.15.13.24.27.21.09.48-.3.23-.37.45-.07.38-.27.54a1,1,0,0,1-.82.26.76.76,0,0,1-.63-.53c-.07-.26-.1-.52-.27-.44s-.2.11-.32.05-.13-.23-.14-.32-.07-.16-.23-.31a1,1,0,0,1-.38-.49c-.1-.27-.12-.57-.37-.53s-.37.17-.34.31.35.27.34.68a.77.77,0,0,0,.19.64,1.1,1.1,0,0,1,.31.78.41.41,0,0,1-.69.31,2.4,2.4,0,0,1-.65-.69c-.14-.2-.26-.3-.4-.3s-.34,0-.27.24.35.28.43.81,0,.6.33.83.72.28.8.81,0,.73.19,1a1,1,0,0,1,.3.71c0,.23-.12.45-.28.43a.48.48,0,0,1-.4-.23,1.61,1.61,0,0,1-.22-.32s-.07-.11-.15,0-.16.13-.23.09-.07-.14-.08-.28a1.07,1.07,0,0,0-.1-.41c-.09-.15-.11-.15-.23-.18a.34.34,0,0,1-.34-.24c-.11-.23-.3-.54-.33-.61s-.13-.19-.25-.16-.17.09-.13.24.85,1.62,1.08,2.05a8.14,8.14,0,0,1,.34.74,5.92,5.92,0,0,0,.51.86c.13.21.61.84.74,1a1.21,1.21,0,0,1,.24.6,1.35,1.35,0,0,0,.17.62,12.41,12.41,0,0,0,.89,1.41,10,10,0,0,1,1,1.24,3.13,3.13,0,0,1,.6,1.64c0,.59-.09.54-.14.69a.44.44,0,0,1-.65.15c-.28-.21-.65-.83-.94-1a2.51,2.51,0,0,1-.73-.55,6.55,6.55,0,0,0-1.3-1.31c-.72-.48-.94-.85-1.32-.88a1.45,1.45,0,0,1-.77-.2c-.22-.15-.36-.28-.58-.26s-.17.3-.71.32-.46,0-.69.06-.29.3-.53.2-.16-.41-.15-.54a1.41,1.41,0,0,0-.15-.83A2.43,2.43,0,0,1,0,136.59c0-.32.17-.68.67-.65a2.55,2.55,0,0,0,1.23-.09,2.62,2.62,0,0,0,.91-.8c.1-.21,0-.44-.15-.73s-.38-.4-.43-.62a.86.86,0,0,0-.4-.53.55.55,0,0,1-.27-.44c0-.18.22-.29.24-.49a.37.37,0,0,0-.21-.34c-.05,0-.22-.12-.21-.46a.85.85,0,0,1,.14-.52.89.89,0,0,0,.06-.66,2.53,2.53,0,0,1-.2-.73c0-.17,0-.53.25-.65s.29-.06.38-.24.21-.38.43-.32.32.07.42-.07.05-.28.3-.38a1.51,1.51,0,0,0,.71-.55c.18-.27.84-1.31,1.08-1.65a3.68,3.68,0,0,1,.43-.56c.1-.1.18-.18.17-.32a1.36,1.36,0,0,1,.06-1,2.08,2.08,0,0,1,1.07-.8,2.48,2.48,0,0,0,1-.39C7.88,122.44,8.44,121.86,8.53,121.79Z"/><path class="cls-1" d="M55.05,177.62a.22.22,0,0,1,.25,0c.12.09.28.18.41.1s.28-.35.43-.27.17.05.25.29a2.19,2.19,0,0,0,.26.81c.2.27.36.4.62.36s.43-.34.66-.22.15.11.22.22a1.15,1.15,0,0,0,.27.39c.15.11.63.47.63.84s0,.43-.11.53a.5.5,0,0,1-.54,0,2.32,2.32,0,0,0-.54-.22.87.87,0,0,1-.52-.32c-.13-.13-.54-.65-.66-.8a1.17,1.17,0,0,0-.54-.43,1.36,1.36,0,0,1-.55-.28c-.16-.15-.23-.26-.37-.28s-.2-.12-.24-.29A.35.35,0,0,1,55.05,177.62Z"/><path class="cls-1" d="M53.63,183.79c0,.08,0,.17.27.18s.26.23.41.38a.47.47,0,0,0,.44.17c.23,0,.27-.12.59-.17s.51.34.62.42.13.22.3.25.19-.11.26-.23.15,0,.17.06a.29.29,0,0,0,.18.24c.15.07.23,0,.4-.29a4.57,4.57,0,0,0,.27-.92c.06-.16.06-.25.22-.31a.28.28,0,0,1,.33.12,3.93,3.93,0,0,0,.71.7.59.59,0,0,0,.57-.14c.14-.11.23-.1.64.06s.42.06.62.13.36.43.47.6.22.29.31.31.18-.09.06-.37-.36-.41-.54-.69-.1-.38-.09-.61a2.33,2.33,0,0,0-.57-1c-.24-.28-.07-.17-.31-.65a1,1,0,0,0-.69-.57.25.25,0,0,0-.33.12c0,.09,0,.12-.18.12s-.17-.1-.41-.32-1.1-.73-1.39-.91a.54.54,0,0,0-.56-.07.33.33,0,0,1-.38-.09c-.07-.13,0-.16.11-.35s-.17-.31-.17-.31a2.73,2.73,0,0,0-.88-.45c-.31,0-.4.06-.44.19s0,.15-.15.19-.16.06-.18.14a.16.16,0,0,1-.14.14c-.09,0-.23,0-.31.1s.06.37-.22.41-.27,0-.28.16a.3.3,0,0,0,.07.24.29.29,0,0,1,.07.23c0,.06,0,.13-.19.13a1.3,1.3,0,0,0-.44,0,.23.23,0,0,0-.16.28.29.29,0,0,0,.21.15c.12,0,.3.06.28.2s-.12.18-.22.23-.22.19-.14.32.45.26.45.49-.08.36,0,.46.18.06.26,0,.21.06.18.16A1.63,1.63,0,0,0,53.63,183.79Z"/><path class="cls-1" d="M49.53,164.61c-.14.11-.26.27-.36.3s-.18-.31-.24-.42-.19-.18-.39-.4-.3-.14-.51-.17,0,.28-.1.2-.13-.43-.2-.49-.16,0-.46,0-.42-.33-.59-.34-.26.34-.35.37-.13-.15-.13-.42a.69.69,0,0,0-.34-.53c-.13-.08-.38-.19-.52-.13s-.12.27-.19.3a.91.91,0,0,1-.57,0c-.2,0-.11-.21,0-.31s.07-.17.07-.34.2-.12.31-.12a.93.93,0,0,0,.49-.11c.26-.1.18-.45-.08-.59a2,2,0,0,0-1-.11c-.35,0-.35-.06-.45-.2a.22.22,0,0,1,.05-.27,2.13,2.13,0,0,0,.25-.26c.1-.14,0-.27-.17-.34a.9.9,0,0,0-.61.14.55.55,0,0,1-.44,0c-.2-.06-.21-.19-.33-.56a.82.82,0,0,0-.4-.58,6.47,6.47,0,0,1-.56-.51.41.41,0,0,1-.16-.31c0-.11.1-.11-.05-.26s-.3-.06-.49,0a.45.45,0,0,1-.38-.19c0-.09-.32-.48-.5-.76s-.09-.31-.1-.72-.34-.42-.54-.52a2,2,0,0,1-.68-.5.56.56,0,0,0-.54-.2c-.45.11-.48.09-.11-.47.09-.27.15-.14.15-.57s-.2-.23-.57-.39-.34-.64-.5-1-.62-.26-1-.31-.22-.4-.15-.54a2.29,2.29,0,0,0,.1-.83c0-.36-.47-.08-.78-.21s-.24-.23-.27-.61-.11-.38-.44-.62-.2-.33-.33-1a1.57,1.57,0,0,0-1-1.09c-.32-.14-.23-.41-.23-.83a2.8,2.8,0,0,0-.41-1.15c-.12-.21-.07-.19-.07-.48a.74.74,0,0,0-.26-.6A2.2,2.2,0,0,1,32,144a.39.39,0,0,0-.29-.23s-.25.06-.34-.07.23-.2.23-.2a.9.9,0,0,0,.13-.51c0-.32-.29-.24-.51-.42s-.19-.18-.21-.46.15-.22.23-.3.29-.19.15-.37a1.2,1.2,0,0,0-.74-.23c-.17,0-.26,0-.26-.17s.34-.15.48-.25.06-.58,0-.69-.07,0-.32,0-.05-.25-.24-.31a1.71,1.71,0,0,0-.64.07c-.17,0-.24-.16-.24-.31a4.43,4.43,0,0,0,0-.56,3.48,3.48,0,0,0-.18-.86,3.05,3.05,0,0,1-.11-1c0-.27,0-1.36.06-1.55s.12-.17.23-.16a1.35,1.35,0,0,1,.35.14c.26.11.42,0,.49-.15a5.17,5.17,0,0,0,.17-.91c0-.18.12-.4,0-.41s-.38.13-.4-.07.05-.3.14-.51a.51.51,0,0,0,0-.52c-.1-.2-.28-.1-.46-.09s-.07-.3-.05-.38a3,3,0,0,0,.06-.3c0-.08.07-.13.18-.07a.77.77,0,0,0,.2.09c.29.08.19-.15.13-.37s-.08-.49-.13-.71a.26.26,0,0,1,.17-.29.23.23,0,0,0,.2-.31c-.06-.29-.28-.06-.44-.35s.06-.34.13-.59,0-.29-.12-.43a.73.73,0,0,1,0-.49,2,2,0,0,0,0-.77,4.56,4.56,0,0,1,0-.93,1.93,1.93,0,0,0-.2-.8c-.1-.33,0-.63.06-.64s.11-.08.23-.38,0-.4,0-.76.15-.28.23-.58-.1-.27-.58-.56-.41-.78-.47-1.28a1.36,1.36,0,0,0-.44-.79c-.05-.09-.41-.37-.49-.46a.09.09,0,0,0-.15,0,2.81,2.81,0,0,1-.14.26c-.07.13-.16.06-.16.06a1.28,1.28,0,0,1-.27-.29c-.12-.16,0-.21.05-.43s-.13-.25-.22-.26a.43.43,0,0,1-.28-.1c-.13-.1-.09-.28-.09-.57s-.25-.32-.5-.31a3.35,3.35,0,0,0-1,.48c-.2.13-.19.44-.25.6s-.07.26-.2.24S25,120.14,25,120a2.73,2.73,0,0,1-.05-.38c0-.11.08-.23.08-.31s0-.22-.14-.24-.14.17-.16.31,0,.48-.06.62-.36,0-.55-.12-.25.12-.35.13-.11-.09-.12-.23-.13-.2-.27-.32-.23,0-.42-.07-.45-.42-.56-.52,0-.18.09-.24.18-.12.12-.24-.27-.14-.31-.25.13-.17,0-.3a2.26,2.26,0,0,0-.68-.26c-.22-.06-.22-.18-.16-.24a2,2,0,0,0,.18-.28.36.36,0,0,0-.19-.58c-.22-.07-.27.08-.39.18s-.24.06-.38-.05a.91.91,0,0,0-.52-.11c-.19,0,0-.25-.18-.35s-.18.18-.18.18a1.72,1.72,0,0,0-.2.76,2.49,2.49,0,0,0,.05.9c.11.26.2.39.17.52s-.25.34-.12.43.44,0,.31.19-.33.1-.34.4-.09.55,0,.66.23.25,0,.42a.51.51,0,0,0-.18.47,1.82,1.82,0,0,1,.25.83c0,.47-.07.41,0,.62a1.4,1.4,0,0,1,.08.72,1.29,1.29,0,0,0,.07.71,3,3,0,0,1,0,.79c0,.15.08.25.12.4s0,.81.09,1,.19.22.14.66a3.5,3.5,0,0,0,.23,1.71c.23.29.57.14.53.47a.83.83,0,0,0,.21.81c.24.25.43.37.44.61a.56.56,0,0,0,.33.5c.19.08.35.18.25.35s-.3.42-.19.55.29.32.16.5a2.4,2.4,0,0,1-.54.41c-.1.06-.11.17,0,.28l.45.58s.07.05.16-.06-.13-.11-.17-.17,0-.26.09-.33.19-.18.27,0,.26.32.41.33a1.27,1.27,0,0,1,.33,0c.15,0,.18-.09.33,0s.11,0,0,.17a.75.75,0,0,0-.24.68c.08.27,0,.45.23.66s.26.05.37.19.23.3.35.3.23-.14.32,0-.05.2-.07.27-.14.09-.06.21.31.45.35.48a.9.9,0,0,0,.47.1c.07,0,.17-.2.28-.05s.12.24.28.3.24,0,.38.23a1.63,1.63,0,0,1,.18.45c.09.29.09.44.25.51s.37,0,.39.2a1,1,0,0,0,.08.32.53.53,0,0,1,0,.39c-.06.15-.16.3,0,.47s.28.18.22.48-.14.38,0,.61.16.26.13.49a1.2,1.2,0,0,0,.21,1,3.85,3.85,0,0,1,.73.77c.25.41.11.24.28.42a1,1,0,0,1,.34.62,5.9,5.9,0,0,1,0,.76c0,.17.09.42,0,.52s-.23,0-.37,0l-.7,0a.39.39,0,0,0-.24.34c0,.17.19.23.13.42s-.23.2-.16.47,0,.06,0,.29,0,.58-.08.64a.69.69,0,0,1-.45,0c-.12,0-.12-.19-.07-.33a.9.9,0,0,0,0-.56.43.43,0,0,0-.64,0c-.14.12-.26.4-.38.49s-.55.22-.55.61,0,.47-.16.69a.81.81,0,0,0-.24.53c0,.17,0,.2.19.34a.85.85,0,0,1,.27.53,1.52,1.52,0,0,0,.19.54,1.31,1.31,0,0,1,.24.57c0,.25-.22.27-.35.3a.52.52,0,0,0-.39.29,2.71,2.71,0,0,0-.38.67,4.14,4.14,0,0,0-.33.93,6.39,6.39,0,0,0,0,.72c0,.28-.08.56.06.61a.47.47,0,0,0,.39-.12c.07-.07.25-.08.34.16s0,.25.2.31a.63.63,0,0,0,.42,0c.1,0,.11-.16.27,0a1.06,1.06,0,0,0,.62.22,1.28,1.28,0,0,0,.59-.1c.12-.08.31-.22.36.09a6.11,6.11,0,0,1,0,.86c0,.11,0,.44.32.34s.25-.31.42-.29.08.25.1.37,0,.32.24.27a1.68,1.68,0,0,0,.67-.53c.14-.19.17-.34.07-.49a2.27,2.27,0,0,0-.28-.3s-.14-.17.06-.19.46,0,.59-.12.27-.28.55,0c.08.33,0,.54.37.5a1.07,1.07,0,0,0,.83-.42.87.87,0,0,0,0-.72c-.1-.34-.06-.64-.27-.76s-.35-.11-.39-.19.09-.15.12-.21.33-.41.25-.62-.29,0-.35-.08,0-.21.08-.3.13-.23,0-.36-.3-.14-.24-.23.31,0,.5,0,.34-.21.44-.21a2.89,2.89,0,0,1,.5.18c.23.09.35.23.23.37s-.27.18-.21.44a1,1,0,0,0,.32.62c.1.1.21.39.35.51s.45.16.6.33,0,.15.14.3.19.07.3.16c.28.24.62.73.78.69.32-.09.39-.62.3-.83a6.85,6.85,0,0,0-.41-.77c-.09-.15-.19-.37-.09-.38s.28,0,.55.26l.42.35c.08.06.29,0,.35,0a1.37,1.37,0,0,1,.36.6,1.31,1.31,0,0,0,.37.53c.11.16.33.36.36.58a.83.83,0,0,0,.25.56,1.37,1.37,0,0,1,.3.41c.08.18.08.44.31.53s.43,0,.62.08a2.49,2.49,0,0,1,.6.51c.26.35.73,1.33,1.11,1.54s.58,0,.76.08.22.33.31.44a1.43,1.43,0,0,1,.42,1c.06.53.11.56.25.75a2.14,2.14,0,0,1,.33.58c0,.19,0,.18-.19.13s-.45-.21-1-.36a3.84,3.84,0,0,1-.89-.83,7.21,7.21,0,0,0-.63-.8c-.2-.21-1.29-1.1-1.46-1.27a2.15,2.15,0,0,0-.52-.35c-.08,0-.34-.18-.41-.11s.08.26.07.32a.42.42,0,0,0,.23.42,4.25,4.25,0,0,1,.42.36c.09.08.21.28,0,.35s-.21,0-.29.05a.29.29,0,0,0-.12.27c0,.21-.2.57-.11.78a1,1,0,0,0,.67.38c.15,0,.2,0,.33.14s.17.26.08.36-.57.21-.52.54.06.5.26.64a.7.7,0,0,0,.76-.17c.07-.08,0-.38.15-.5a3.21,3.21,0,0,1,.29-.28c.07-.07.09.24.18.35s.26.11.5.2.3,0,.38.08-.1.14-.14.24,0,.47-.23.48a1.54,1.54,0,0,0-.74.1c-.26.05-.58,0-.68.2s.13.48.25.61a.78.78,0,0,0,.55.16,1.9,1.9,0,0,0,.53-.09c.15-.05.28-.13.39,0s0,.17,0,.32-.12.31.09.56,1.26,1,1.38,1.12a.34.34,0,0,0,.44,0c.13-.11.18-.28.37-.26s.18.11.18.24,0,.35.09.41.47,0,.51.19-.27.13-.2.36.57.49.69.34c.27-.13.29-.33.48-.3s.46.21.44.38-.12.39,0,.46a.53.53,0,0,1,.21.38c0,.16-.05.25.08.35s.32,0,.42,0a.65.65,0,0,1,.53,0c.16.08.28.22.21.34a.58.58,0,0,1-.22.22c-.09.06-.32.11-.25.34a1.41,1.41,0,0,1,.12.47c0,.19.25.39.25.39h0a1.92,1.92,0,0,0,.12.52c.08.17.21.35.4.35s.26-.15.3-.3,0-.49.1-.49.15,0,.29.15.07.22.17.26.09.22-.11.33a1.25,1.25,0,0,0-.56.48.53.53,0,0,0,.14.58.68.68,0,0,0,.52.25,3.75,3.75,0,0,1,.49,0c.13,0,.32.13.31.26s-.06.23-.17.23-.32,0-.43,0-.26.08-.24.23a.8.8,0,0,0,.25.39,1.61,1.61,0,0,0,.55.39.88.88,0,0,0,.39.05c.07,0,.09-.1.09-.13l0-.11s.06-.27.23-.12.23.2.31.65a7.09,7.09,0,0,1,.08.75.93.93,0,0,0,.36.54,1,1,0,0,1,.38.44,1.28,1.28,0,0,0,.2.44c.11.13.45.62.71.68a.67.67,0,0,0,.72-.11c.18-.21.28-.39.55-.35s.42.07.6-.12a1.22,1.22,0,0,0,.32-.4c.1-.17.14-.34.28-.34s.35.07.49,0a.71.71,0,0,0,.23-.33c0-.1.16-.31.22-.41a2.09,2.09,0,0,0,.22-.45c0-.19,0-.34.19-.47a1.19,1.19,0,0,0,.3-.68c0-.24,0-.67-.3-.66s-.34-.07-.34-.18a2.13,2.13,0,0,0-.08-.62c-.09-.37-.25-.94-.58-1s-.41,0-.51.11a.3.3,0,0,1-.34.07c-.15-.06-.17-.14-.12-.25s.17-.19.14-.34-.13-.19-.16-.3a1.53,1.53,0,0,1,0-.38c0-.27,0-.26-.17-.33s-.35.17-.57.27-.16-.14-.16-.14,0-.23,0-.44a.56.56,0,0,0-.21-.43.42.42,0,0,1-.16-.35c0-.13.19-.1.36-.13s.26-.21.21-.51a1.34,1.34,0,0,0-.4-.7c-.27-.32-.64-.09-.79-.12s-.12-.22,0-.39-.24-.45-.41-.56-.17-.24-.12-.51-.35-.56-.6-.68a.22.22,0,0,0-.21,0l-.2-.5-.08,0,.2.51Z"/><path class="cls-1" d="M34,57.27c0,.15.32.51.3.72s0,.45-.29.48-.24.24-.31.19a2.84,2.84,0,0,1-.26-.55c-.13-.31-.21-.48-.36-.8s-.7-.48-.92-.61a1.86,1.86,0,0,1-.52-.49c-.17-.21-.45-.25-.59-.33a1.74,1.74,0,0,0-.58-.09c-.28,0-.35-.15-.49-.13s-.19.24-.14.41,0,.27-.14.36a.27.27,0,0,0-.09.25,1.58,1.58,0,0,1,0,.58c0,.33-.37.46-.64.66s-.41.24-.46.41,0,.27,0,.42c0,.42,0,.55.2.72s.64.13.8.12.27,0,.28.2-.18.35-.22.49a.32.32,0,0,0,.25.33c.14,0,.23.24.2.49s.07.26.23.49a.93.93,0,0,1,.16.64.77.77,0,0,0,.21.53,4.56,4.56,0,0,1,.54,1.1A3.62,3.62,0,0,1,31.44,65a12.68,12.68,0,0,1,0,1.51c0,.32-.14.33-.39.34s-.26.22-.23.39a2.13,2.13,0,0,1,0,.59c0,.24-.26.25-.38.25s-.2.1-.29.22-.36.48-.56.53-.26,0-.49-.24-.47.19-.64.19-.22-.19-.36-.31a.77.77,0,0,0-.52-.21,1.86,1.86,0,0,1-.8-.42,2.7,2.7,0,0,1-.45-.51.49.49,0,0,0-.62,0c-.14.11-.1.12-.29.14s-.2.11-.22.29a1.06,1.06,0,0,1-.19.43.36.36,0,0,1-.42.2c-.21-.06-.33-.42-.43-.65s-.11-.14-.48-.31-.31-.33-.36-.66a2.46,2.46,0,0,0-.23-.84c-.15-.34-.93-.05-1.31-.16a.59.59,0,0,1-.47-.6.67.67,0,0,0-.15-.41.55.55,0,0,1-.13-.37c0-.23-.23-.4-.39-.59s-.12-.28,0-.39.13-.14.06-.33-.1-.07-.3-.21a1.13,1.13,0,0,1-.37-.56c-.12-.24-.06-.19-.06-.49s-.1-.15-.27-.31-.05-.31-.08-.64-.29-.19-.45-.31-.06-.32-.06-.49-.07-.26-.28-.54-.38-.17-.56-.22-.16-.16-.25-.36-.16-.15-.32-.42,0-.44-.1-.88a.7.7,0,0,0-.52-.57,1,1,0,0,1-.42-.36c-.16-.21-.25-.23-.42-.18s-.07.41-.05.54-.21.26-.31.39-.06.33-.06.47,0,.41-.09.4-.21-.13-.37-.24-.24,0-.27.15a.56.56,0,0,0,.13.42c.06.12,0,.24-.17.28s-.13-.27-.31-.31-.3.36-.42.54a1.45,1.45,0,0,0-.26.62c0,.19-.13.27-.2.61a1.29,1.29,0,0,0,0,.74,1.3,1.3,0,0,1,.1.46c0,.13,0,.17.13.48a2.73,2.73,0,0,1,0,1c0,.41,0,.86.06,1.27a8.75,8.75,0,0,1-.19,1c0,.22.14.59.12.76s-.25.18-.41.22-.34-.32-.46-.39-.42-.08-.36.06.45.38.55.52.06.29-.1.61-.25.43-.21.56.36.09.51,0a6.94,6.94,0,0,0,.72-.55.48.48,0,0,1,.48-.18c.14,0,.26.33.3.51s.11.28.14.4.3.49.42.71,0,.58,0,.79.15.35.31.51.13.66.11,1,.16.34.28.55,0,.27-.08.4a.48.48,0,0,0,0,.43c0,.1.26.2.33.38a.31.31,0,0,0,.33.19c.1,0,.13.19.13.19l0,1.18a.49.49,0,0,1-.25.51.72.72,0,0,0-.13.37c0,.07,0,.53,0,.72a.65.65,0,0,0,.36.42c.07,0,.28-.12.38-.13s.13.17.13.17,0,.31,0,.48.3.49.5.7.2.83.22,1.13a2.53,2.53,0,0,0,.34,1,1.81,1.81,0,0,1,.2.62c.08.25.15.35.25.72s-.23.65-.39,1a3.35,3.35,0,0,0-.26,1.35,1.73,1.73,0,0,0,.22.83,1,1,0,0,1,0,.79.59.59,0,0,0,0,.6.51.51,0,0,1,0,.56c-.13.24.12.46.16.79s-.22.25-.3.49-.15.41,0,.6.47.22.8.16.41,0,.52.13a.75.75,0,0,1,.14.5c0,.2-.33,0-.4.24s.06.39.28.55a2.92,2.92,0,0,1,.57.75c.08.13.2.26,0,.2s-.32-.15-.53-.09-.24.34-.12.59a.8.8,0,0,0,.68.49.66.66,0,0,1,.56.24c.2.18.15.17.37.16s.23-.26.22-.43a1.68,1.68,0,0,0-.07-.4c-.06-.22,0-.2.17-.46a1,1,0,0,0,.19-.43c0-.11-.24,0-.21-.07s.12-.34.72-.18a2.86,2.86,0,0,1,1.35,1,1.27,1.27,0,0,1,.26.71,2.37,2.37,0,0,0,.36.68c.12.23,0,.47.07.65s.09.21.32.24a.94.94,0,0,1,.55.74c0,.27,0,.34-.2.49s0,.4.08.7,0,.43-.05.76-.22.43-.24.59.15.23.16.4-.29.4-.48.55a.31.31,0,0,0,.07.49.74.74,0,0,1,.17.53,7.81,7.81,0,0,0,0,.84c0,.27.31.33.57.48a.56.56,0,0,1,.26.63c-.05.21-.37.37-.54.59s0,.42.06.57.06.22,0,.6.45,1,.53,1.22a2.1,2.1,0,0,1-.05,1c-.08.31.14.41.2.6s-.05.26-.19.35-.16.13-.14.29.11.21.25.31,0,.35.21.77a3.73,3.73,0,0,0,.7,1.07,2.22,2.22,0,0,0,.92.63c.25.1.25-.22.22-.37s-.09-.88-.09-1,0-.27.2-.26.28.42.32.59-.08.18.13.27.28-.2.61-.18.1.18.18.25.29,0,.41.09.13.48.17.51a.6.6,0,0,0,.29.2.22.22,0,0,1,.21.14.21.21,0,0,1,0,.19s-.18,0-.16.23.06.27,0,.41.08.34.19.46a.46.46,0,0,1,.05.42c0,.11-.09.2-.24.17a2.6,2.6,0,0,1-.69-.18c-.14-.07-.36-.11-.43,0s0,.25,0,.37a1.38,1.38,0,0,0,.28.38c.11.14.17.12.14.46,0,.16-.17.26-.24.4s-.06.46-.11.61-.15.19-.19.31a2.37,2.37,0,0,0,0,.39c0,.16-.17.26.23.34s.34.29.35.42,0,.14.16.23,0,.29,0,.44.21.15.21.22-.12.23-.19.29,0,.19.12.31a1.38,1.38,0,0,0,.31.4.4.4,0,0,0,.24.09.23.23,0,0,1,.15.22c0,.12-.13.19-.18.3s.2.21.22.34a.23.23,0,0,1-.14.28c-.13.07-.07.24-.1.42s-.07.12-.24.21-.1.2-.18.43-.19.2-.38.23-.15.2-.17.39,0,.43,0,.53a.59.59,0,0,1-.08.36.23.23,0,0,0,0,.27c.06.12.3,0,.45,0s.19.12.13.27-.38.23-.55.34,0,.25,0,.31a1.31,1.31,0,0,1,.38.48c.11.28,0,.34.08.49s0,.21.23.3.15-.19.2-.4a.19.19,0,0,1,.35-.07c.09.13,0,.37,0,.52a.36.36,0,0,0,.13.31,2.43,2.43,0,0,1,.57.42c.12.16,0,.3-.13.42s0,.49.13.83a11.75,11.75,0,0,0,.58,1.13c.14.24.1.19.27.26s.3-.19.4-.32.33,0,.4.06.46.46.5.5.14.14,0,.25-.3.06-.58.13-.47.61-.53.93a.31.31,0,0,0,.29.42c.15,0,.31-.25.44-.4s.21-.06.42-.09.1-.35.11-.44.1-.16.31-.12.07.35.07.47.09.22.22.35l.93,1a3.55,3.55,0,0,1,.77,1.29,1.71,1.71,0,0,0,.69.84,2.64,2.64,0,0,1,.58.62,3,3,0,0,1,.34.91c0,.2.27.2.35.28s0,.21-.12.37.2.51.36.62.27-.09.33-.13.08,0,.07.08-.2.26-.29.4-.15.22,0,.8a2.17,2.17,0,0,0,.82,1.12,2.94,2.94,0,0,0,.75.52c.24.09.29.34.37.34s.49-.43.57-.26-.18.38-.35.55-.52.14-.69.27,0,.26,0,.31.47.47.58.61c.29.34,0,.4.42.66.11.08.23.42.36.57s.23.32.43.35.1-.29,0-.61-.18-.28-.31-.45a.55.55,0,0,1,0-.59c.1-.14.14.18.29.27s.21-.16.36-.19.13-.17.15-.26,0-.2.15-.21.17.11.17.26a4.51,4.51,0,0,1-.09.87c0,.19.15.42.26.48s.21-.05.36-.2.21-.07.24,0a.4.4,0,0,1-.12.34.76.76,0,0,0-.13.5A.84.84,0,0,0,43,140a.92.92,0,0,1,.28.41,3.62,3.62,0,0,0,.24.59c.07.07.07-.31.2-.37s.18.07.22.17.09.43.13.58.11.5.22.38.2.1.36.24a.74.74,0,0,0,.44.22c.23,0,.15.18.15.3s-.05.21.06.29.21,0,.3-.09.16,0,.16,0a4.57,4.57,0,0,0,.52.57,1.19,1.19,0,0,0,.59.3.63.63,0,0,1,.47.29.39.39,0,0,0,.36.27c.28,0,.23-.18.24-.25a5,5,0,0,0,0-.76c0-.29.3-.3.46-.33a2,2,0,0,0,.5-.09c.24-.09.35,0,.51.11s.28.11.27-.09,0-.23-.14-.3-.06-.07-.25-.26a3.42,3.42,0,0,1-.39-.77,4.43,4.43,0,0,0-.79-.88.77.77,0,0,1-.27-.55,1.52,1.52,0,0,0-.5-.75.68.68,0,0,1-.28-.5c0-.18.21-.08.28,0s.56.8.73,1a5.63,5.63,0,0,0,.63.69c.14.11.19.1.35,0s.47.26.47.26a2.48,2.48,0,0,1,.26.59,1.29,1.29,0,0,0,.15.38.43.43,0,0,0,.38.22c.19,0,.36.35.45.46s.12.24.26.26.1-.19.1-.26,0-.22,0-.27.18.11.36.2.31-.19.43-.34.07-.38.07-.55-.09-.2-.16-.25a.41.41,0,0,1-.13-.34c0-.15,0-.15-.1-.39a1.58,1.58,0,0,1-.09-.62.62.62,0,0,0-.19-.5c-.08-.08-.16-.17-.13-.26s.12-.05.31-.06.27.16.33.38a4.83,4.83,0,0,0,.16.77c.11.31.17.36.37.42s.2-.25.18-.41,0-.32.16-.34.25.47.25.6.07.27.2.27.08-.22.1-.38a2.51,2.51,0,0,1,.19-.46c.09-.21,0-.21,0-.41s0-.3.15-.36.17-.1.19-.24-.11-.17-.27-.3-.12-.2-.15-.31-.11-.13-.23-.2a.18.18,0,0,1-.11-.25c0-.13.17-.07.32-.05a1.32,1.32,0,0,0,.33,0c.29,0,.2.24.37.32s.2-.07.23-.15,0-.24.22-.23.18.35.26.47.31,0,.43,0,.5-.23.56-.37.15-.17.33-.18.08-.27.06-.41a.73.73,0,0,0-.3-.4c-.16-.12-.16-.14-.25-.35s0-.2-.2-.25-.24.19-.27.26-.07.15-.2.09-.06-.16-.06-.36-.12-.2-.11-.27.08-.1,0-.23-.21,0-.26,0-.15.11-.23,0a.44.44,0,0,1-.11-.34c0-.17.17-.13.28-.13s.18,0,.22-.15-.11-.24-.21-.37-.14-.22-.29-.13,0,.28-.07.39-.18.17-.28,0,0-.24,0-.43,0-.22-.14-.25-.23.07-.29.16-.14,0-.24,0-.23.06-.17.29.45.55.6.71A3.78,3.78,0,0,1,54,136a.72.72,0,0,1,.14.46c0,.11,0,.24-.16.21s-.15-.23-.22-.37a.39.39,0,0,0-.29-.2c-.09,0-.12-.06-.21-.21s-.16-.14-.29-.15-.16.21-.16.32,0,.19-.11.19-.08-.17-.1-.31-.14-.11-.2-.07-.06.11-.13.22a1.07,1.07,0,0,0,0,.51c0,.15-.11.2-.27.21s-.17.2-.24.24-.18,0-.15-.16.12-.15.14-.27-.08-.1-.23-.19-.14-.2-.06-.32.19,0,.33,0,.19,0,.23-.16,0-.24-.1-.4.11-.2.09-.39,0-.26-.16-.3-.09.24-.26.27-.18-.13-.18-.24,0-.49,0-.67,0-.26-.13-.29-.22.13-.36.28-.11.49-.17.64-.09.07-.21,0a.39.39,0,0,1-.17-.35c0-.18.09-.25.13-.44s0-.24-.19-.28-.28.12-.36.26-.12.14-.21.14-.11.1-.22.26a3.45,3.45,0,0,0-.33.59c0,.06-.08.26-.26.22s-.1-.28-.1-.52-.25-.36-.31-.46-.11-.21.11-.26.24.2.43.26.22-.19.28-.26a1.2,1.2,0,0,0,.19-.41c0-.14.2-.32.25-.48s.06-.3-.06-.35a.91.91,0,0,1-.29-.22c-.15-.15-.15-.18-.29-.23s-.08-.15,0-.27a.66.66,0,0,0,0-.31c0-.07-.07-.15.13-.21s.17.22.22.36,0,.16.24.16.14-.22.15-.32,0-.2.16-.24.22.16.22.21,0,.15.13.15.14-.08.22-.21,0-.21,0-.32,0,0,0-.29-.2-.23-.3-.36.07-.24.18-.32.07-.09,0-.29.17-.25.22-.37a.41.41,0,0,0,0-.41c-.1-.18-.26,0-.31.05s-.11.19-.25.1S50,129.18,50,129a1.06,1.06,0,0,0-.11-.59c-.15-.39-.38-.32-.57-.54s-.06-.35.09-.56-.08-.18-.21-.27-.06-.26-.07-.48-.16-.12-.36-.21-.14-.23-.26-.26-.18.15-.21.22,0,.17-.19.15-.12-.27-.13-.39,0-.19-.18-.2-.25.29-.28.44a.63.63,0,0,1-.34.38c-.17.08.07-.44.09-.57a3.15,3.15,0,0,0,0-.43c0-.14.21-.33.21-.33a.4.4,0,0,0,.18-.41c-.06-.27-.14-.2-.29-.32s-.58-.31-.74-.46a.8.8,0,0,1-.22-.46c-.05-.19,0-.1-.24-.53s-.62-.63-.77-.89a2.14,2.14,0,0,0-.43-.48.86.86,0,0,1-.36-.44c-.07-.24-.21.06-.31-.13s.12-.18.18-.37a1.87,1.87,0,0,0,0-.65c0-.26-.12-.14-.31-.15s-.06-.21,0-.27a.25.25,0,0,0,.11-.29c0-.15-.15-.19-.38-.32s-.17-.35-.27-.55a2.24,2.24,0,0,1-.12-.87c0-.25-.07-.32-.23-.54s-.1-.36-.12-.67-.21-.38-.42-.6-.07-.29-.14-.41a3.19,3.19,0,0,1-.42-1.47c0-.54-.23-.52-.25-.77s.13-.33.22-.51a.46.46,0,0,0,.06-.36c0-.19.12-.21.2-.42a.22.22,0,0,0-.12-.32c-.07,0-.15-.12-.08-.22s.12,0,.37,0,.28-.1.32-.24.2-.89.23-1,0-.29.28-.27.14-.29.33-.29,0,.2.35.44a.39.39,0,0,0,.63-.08c.11-.18,0-.58.07-.87a3.69,3.69,0,0,0-.06-.85c0-.35-.32-.46-.54-.67a.53.53,0,0,1-.19-.55c0-.35.51-.76.27-1.2-.09-.17-.31.07-.46,0s-.14,0-.19-.27.15,0,.23-.15a4.31,4.31,0,0,0,0-.64c0-.32-.29-.74-.42-1a.88.88,0,0,1-.17-.55c0-.33-.26-.4-.51-.49s-.25-.3-.25-.57-.13-.28-.43-.49-.28-.35-.5-.81-1.2-1-1.31-1.17-.27-.19-.27-.44-.17-.27-.26-.37a.49.49,0,0,1-.1-.38.48.48,0,0,0-.18-.4.42.42,0,0,1-.05-.41,2,2,0,0,0,.09-.39,6,6,0,0,1,0-1c0-.29.32-.41.66-.53s.69.24.87.37a3.14,3.14,0,0,0,1.08.4c.46.09.57.49.83.53s.2-.22.2-.38A2.59,2.59,0,0,0,43,96.2c-.05-.19.1-.26.11-.53,0-.09,0-.44,0-.71s-.18-.44-.22-.59.11-.25.22-.25.12-.11.11-.23a7.61,7.61,0,0,0,0-.83,3,3,0,0,0,0-.42c0-.07-.09,0-.21,0s0-.12,0-.31a.6.6,0,0,0-.09-.31c-.06,0-.13,0-.21-.11s-.05-.34,0-.49,0-.12-.07-.32a1.22,1.22,0,0,1-.08-.57.6.6,0,0,0-.2-.49c-.16-.12-.15-.15-.15-.29a.42.42,0,0,0-.06-.28c-.11-.19,0-.31.11-.48a1.93,1.93,0,0,0,0-.87,5.17,5.17,0,0,0,0-.57c-.06-.11-.19.14-.27.1a2.12,2.12,0,0,1-.31-.25c-.11-.11.06-.34.14-.4a.46.46,0,0,0,.21-.43.63.63,0,0,0-.1-.43c-.08-.06-.29,0-.35-.1s.16-.19.25-.26-.06-.12-.08-.23,0-.32,0-.44,0,0-.17-.7a8.19,8.19,0,0,0-.75-1.7,4.27,4.27,0,0,1-.24-1.27c0-.35-.13-.71-.15-1a.42.42,0,0,1,0-.21c0-.1.18-.33.13-.43s-.18,0-.29-.2,0-.27,0-.34a4.43,4.43,0,0,0-.24-.5,2.2,2.2,0,0,1-.21-.44,2.65,2.65,0,0,0-.19-.48c-.07-.12-.26-.13-.2-.22s.18-.11.44-.28a.49.49,0,0,0,.1-.53c-.05-.11-.19-.08-.22-.11s0-.23-.06-.4-.29-.31-.36-.47,0-.2,0-.34a1,1,0,0,0,.12-.44c0-.18.15-.38.25-.69a2.48,2.48,0,0,0,0-.83c0-.1.13-.08.16-.18s0-.36.05-.48a4.68,4.68,0,0,0,.1-1.14,1.53,1.53,0,0,1,.27-.71c.05-.07.18-.11.25-.18.25-.28,0-.48,0-.86s.6-.62.83-.77.18-.2.18-.48.16-.39.16-.49-.09-.16-.24-.21-.16-.2-.15-.34.11-.16.27-.19.26-.09.31-.23a.6.6,0,0,0-.09-.51c-.12-.22-.05-.53-.09-1s-.48-1-.62-1.22,0-.35.16-.6,0-.41.08-.62.24-.14.4,0,.24-.1.25-.23-.15-.06-.28-.15a.48.48,0,0,1-.23-.46c0-.23.12-.23.28-.4s.08-.29.09-.55.11-.22.31-.58a1,1,0,0,0,.07-.79c0-.13-.12-.29-.06-.43s.26.17.42.2.21-.21.23-.42a.82.82,0,0,0-.1-.5c-.11-.2.08-.34,0-.69a5.16,5.16,0,0,0-.58-1.16c-.06-.1-.15-.26,0-.35s.22,0,.35.09l.71.63c.21.19.23.37.44.32s.06-.21.08-.32S44,57,44,56.81a1.37,1.37,0,0,1,.37-.83,1,1,0,0,1,1-.36.86.86,0,0,1,.68.31c.09.12.11.28.17.35a.27.27,0,0,0,.45-.13c0-.13-.17-.26-.32-.4s-.22,0-.24,0c-.15-.26.12-.18.17-.43a2.65,2.65,0,0,0-.09-.44,4.26,4.26,0,0,0-.43-1.32,5.86,5.86,0,0,0-.24-.81c0-.06-.18,0-.21-.06-.19-.24-.12-.59-.2-1a3.53,3.53,0,0,0-.89-1.34.52.52,0,0,1-.21-.43c0-.15,0-.12-.12-.23a.4.4,0,0,1-.19-.34c0-.15-.1-.15-.21-.15s-.13,0-.31-.16a.49.49,0,0,0-.53-.07,1.13,1.13,0,0,1-.57,0s-.14-.1-.19-.11c-.23-.05-.17.24-.25.39s-.2.17-.48.28-.46-.12-.8-.16-.28.25-.34.4-.18.2-.35.31-.25.14-.44.27a1.11,1.11,0,0,1-.64.14,1.59,1.59,0,0,1-1.12-.23,1.9,1.9,0,0,1-.69-.83c-.26-.45-.6-.39-.9-.62s-.39-.6-.83-1.31a6,6,0,0,0-.91-1.19c-.14-.16-.2-.72-.31-.89s-.3-.13-.37-.23.07-.24.06-.28l-.1-.21c-.12-.23-.23-.4-.39-.74s-.16-.42-.24-.54-.28-.2-.41-.35-.33-.57-.73-1.11-.24-.71-.36-1.05-.19-.32-.36-.51-.26-.28-.24-1-.27-.57-.37-.76a1.29,1.29,0,0,1-.18-.68,3.72,3.72,0,0,0-.27-.95,3.16,3.16,0,0,1-.2-1.09,2.9,2.9,0,0,0-.38-1.16,2.6,2.6,0,0,1-.25-.83,2.41,2.41,0,0,0-.19-.89c-.12-.21-.09-.2-.09-.58s-.14-.33-.35-.48a5.73,5.73,0,0,1-.72-1.52,14.31,14.31,0,0,1-.43-1.4,2.71,2.71,0,0,1-.07-1.24c0-.33-.1-.1-.29-.35a.92.92,0,0,1,.06-.93c.15-.29.14-.32-.23-.63s-.28-1-.27-1.41-.29-.33-.45-.46.07-.23,0-.5-.23-.26-.53-.52a1.14,1.14,0,0,1-.47-.79,8.31,8.31,0,0,1-.05-1.34,1.53,1.53,0,0,0-.18-.85,1,1,0,0,1,.2-.93c.15-.23,0-.39-.32-.65s-.17-.68-.17-.94a1.59,1.59,0,0,1,.35-.9c.26-.36-.09-.64-.3-.87a1.49,1.49,0,0,1-.31-.82c-.06-.33.35-.65.54-.84a1.54,1.54,0,0,0,.16-1.15,3.73,3.73,0,0,0-.27-1.14c-.16-.41.09-.4.24-.58a1.54,1.54,0,0,0,.38-.73,8.92,8.92,0,0,0,.18-.91,2,2,0,0,1,.43-.84,1.18,1.18,0,0,1,.92-.37c.14,0,.38,0,.48-.2a1.07,1.07,0,0,0-.2-.94c-.09-.12-.07-.4-.15-.65s-.21-.69-.28-.92a4.34,4.34,0,0,1-.25-1,.91.91,0,0,0-.46-.76c-.31-.24-.25-.58-.48-.79s-.63-.24-1.09-.48-.48-.41-.82-.69a1.37,1.37,0,0,0-1.05-.24,2.35,2.35,0,0,1-.68-.14,1,1,0,0,0-.59.12,2.16,2.16,0,0,1-.68.06,3.09,3.09,0,0,0-.65.14c-.22,0-.46.09-.51-.27s.22-.64.29-1S19.52.11,19.24,0a1,1,0,0,0-.61.1L17.49.88a.56.56,0,0,1-.5,0,.47.47,0,0,0-.52.13c-.15.17,0,.63,0,.77s-.1.19-.3.31a6,6,0,0,0-1.1.61c-.14.12-.16.37-.23.44a.57.57,0,0,0,0,.73c.08.09.37.32.41.49s-.05.26-.27.48a.77.77,0,0,0-.08.74.5.5,0,0,1-.09.51c-.15.21-.1.35-.16.61s0,.3-.32.46-.24.68-.28.92-.23.36-.49.57-.29.8-.41,1a.49.49,0,0,1-.46.26c-.25,0-.52.35-.67.52a.84.84,0,0,0-.18.56,3.69,3.69,0,0,1,.11.64c0,.18-.22.17-.41.09a.63.63,0,0,0-.58.14l-.61.6c-.22.22-.42.56-.55.7-.29.35-.27.45-.22.61a.87.87,0,0,0,.54.5c.27.08.27.36.3.5a1,1,0,0,0,.21.43c.12.11.12,0,.13.39a7.93,7.93,0,0,1-.61,1.58.81.81,0,0,0,.44.89c.22.13.28.36.65.64a1.69,1.69,0,0,0,1,.24c.16,0,.23.13.31.24s.61.75.88,1.11.12.91.12,1.15a1.28,1.28,0,0,0,.15.59c.08.15.29.13.3.52s-.05.37.21.68a2,2,0,0,1,.29,1.12c0,.38.41.34.54.64s-.1.41-.18.85c0,.17.12.3.19.45s.09.42.3.56.32-.06.43.05,0,.33.08.49a3.15,3.15,0,0,0,1.46.68,2.8,2.8,0,0,1,1.13.63c.35.23.88.14,1.65.23a5.06,5.06,0,0,1,2.11,1.38,3.7,3.7,0,0,1,.69,1.24,2.4,2.4,0,0,0,.69,1c.27.21.17.79.26,1.35s.23.79.34,1.53.23.83.32,1.39a4,4,0,0,1,.06,1.55,1,1,0,0,1-.27.64c-.19.14-.47.13-.75.37a3.34,3.34,0,0,0-.74,1.74A18.47,18.47,0,0,0,22.67,43a.72.72,0,0,0,.27.61c.24.21.29.52.42.69s.74.84,1,1.11.37.49.75.65a1.76,1.76,0,0,0,1,0,2,2,0,0,1,1,.34,3.32,3.32,0,0,1,.9,1.24,2.21,2.21,0,0,1,.17,1.19,3.32,3.32,0,0,0,.12,1.26,2.32,2.32,0,0,0,.48.87c.13.18.44.13.54.13s.15.07.22.15a5.1,5.1,0,0,1,.35.73,2.35,2.35,0,0,1,.19,1.33,1.41,1.41,0,0,1-.24.77c-.05.11-.08.34.06.42a1.29,1.29,0,0,0,.62.15c.21,0,.29.12.57.41a1.29,1.29,0,0,0,1,.35c.3,0,.32-.38.52-.51a.26.26,0,0,1,.26,0c.07,0,0,.18.09.26s.24,0,.29.08l.35.5a1.4,1.4,0,0,1,.29.64c0,.08,0,.18,0,.31s0,.34,0,.34l-.36.12-.09.3.09,0,.07-.26.29-.08Z"/></g></g></g></svg>