<svg xmlns="http://www.w3.org/2000/svg" viewBox="0 0 81.7 65.8"><defs><style>.cls-1{fill:#cd8c5d;fill-rule:evenodd;}</style></defs><g id="Layer_2" data-name="Layer 2"><g id="regije"><path id="dakovo" class="cls-1" d="M7.65,26.7c0,1.08.4,1.54-.49,2.41-.52.51-1.54.38-2.14.66A9.25,9.25,0,0,0,2.3,31.42,8.87,8.87,0,0,0,.2,33.73C-.18,34.49,0,34.78.92,35l2.41.54c1.13.27,1.09,1.55,1.62,2.3a4.75,4.75,0,0,1,1.11,2.55c-.25,1.51.38,1.52,1.45,2.07a1.52,1.52,0,0,1,.75,1.63c-.12.34-.07,1-.22,1.28-.43.88-2.25.86-2.58,2.14a6.36,6.36,0,0,1-1,2.29c-.32.31-.69-.12-1.15.56-.26.39-.54.53-.55,1.07S2,52.16,2,52.87C2,53.29,1,53.68,1,54v.19a8.81,8.81,0,0,0,2.28,1.4,8.52,8.52,0,0,0,2.21.37c.83,0,2.09,1.45,2.64.92,1.09-1.07,3,.72,3.89-.13,1.59-1.54,1.46,2.16,2,2.45.46,0,1.27.53,1.28-.16,0-.91,1.31.11,2-.23.45-.22.5.46.87.47s1.71-.21,2.08,0c.11.06.59.18.65.24.22.23.1.71.47,1,.62.43,1,.32,1.26,1.12s-.45,2,.83,2.32a5.14,5.14,0,0,1,2.62,1.51c1,1,3.17-.36,4.11-.6l2-.6a12.09,12.09,0,0,0,1.8-.55A7.76,7.76,0,0,0,37,63.15l2.25-3.24,3.06-1.53,3.47.35,1.91-.37c1.08-.16,2.22.08,3.19-.39.51-.25,1-.59,1.53-.15.23.17.93.72,1.19.72,1,.5,1.52,1.44,2.86,1,.4-.14,2.4-.88,2.39-.34l12.05-4.44c2.52.3,6,1.16,8.5,1.16l-.59-7A3.23,3.23,0,0,1,79.06,46c.43,0,1.4-1.58,2-1.75l.46-.19.16-1.61a2.93,2.93,0,0,1-.3-.89.48.48,0,0,1-.15-.29c-.15,0-.3-.3-.3-.59-1.49-.89.42-5.18-1.06-6.07,0-.14-.15-.29-.15-.44-.89,0-1.2-1.18-1.2-1.92L78,31.65c0-.89.13-3-1.2-3V27.06c-2.53-1.18-2.1-5.32-1.37-7.54.74-.3.74-1.33.59-1.77V17.3l-.75-.89a10.37,10.37,0,0,1,.43-2.28,3.53,3.53,0,0,1-.15-1,3.49,3.49,0,0,1-2.37-1h-.45c0,.14-.29.44-.29.59-.3,0-.74.15-1.19.15a.52.52,0,0,0-.29-.15c0-.3-1.05-1-1.05-1.33-.74-.3-1.26-3-1.7-3.89-.35,0-.69,0-1,0a2.78,2.78,0,0,1-.45-1.18.52.52,0,0,1-.15-.3c-.6-.29-.9-1.92-.9-2.66-.15-.15-.15-.3-.16-.59l-.29-.15V2.07l.45-.3V1.63c.44-.3,1.62-.89,1.62-1.63-.44,0-1.18.15-1.63.15,0,.29-.44.44-.59.44,0,.15-.44.74-.74.74-1.63,1-4.44,1.18-6.52,1.18l-.15-.15c0-.14-.3-.44-.3-.59-1.92,0-3.11-.29-4.74.74C52.61,3.1,51,3.69,51,4.29c-.45,0-1,.29-1.48.29,0,.15-.15.44-.15.59-.44,0-.74.3-1,.3s-.44-.15-.59-.15c0-1.48-2.67.44-3,.44,0,.45-1.19.45-1.48.45L42.09,5H40.76v.15a5,5,0,0,0-.73.39,17,17,0,0,0-5.49.64c0,.15-.15.45-.3.45,0,.59-.59,1.18-.58,1.77-1.63,0-3.11,1.33-4.14,2.37h-1c-1.77,1.77-7.55,4.43-9.93,2.8-.14,0-.59-.88-.59-.88-.89,0-2.22,1.18-3,1.33,0,.29.15.59.15.88h-.3c0,1.78-2.2,4-2.2,5.92l-.29.15v.44h-.44c-.15.15-.74.44-.74.59-.3,0-.6.15-.6.45-.59,0-.73.73-1.33.73A15,15,0,0,1,7.65,26.7Z"/></g></g></svg>