<svg xmlns="http://www.w3.org/2000/svg" viewBox="0 0 94.79 58.06"><defs><style>.cls-1{fill:#a25641;fill-rule:evenodd;}</style></defs><g id="Layer_2" data-name="Layer 2"><g id="regije"><path id="daruvar" class="cls-1" d="M76,6.81c0,.38,0,.4,0,.78-.25.12-.25.5-.63.5,0,.26-.5.76-.63,1-.13,0-.63.51-.88.51-.13.38-.13.5-.51.5,0,.13-.38.38-.5.51h-.25a6.26,6.26,0,0,0-4.44-1.9c-.51.51-1.65,1.14-1.9,1.77-.5,0-1,.76-1.64.76l-.12.25c-.26,0-.38.13-.64.13,0,.12-.25.37-.25.5-.25,0-.5.51-.88.63a1.56,1.56,0,0,1-.88,1.39c0,.13-.13.25-.13.38a3.51,3.51,0,0,1-.88.63c-.38.63-1.14.63-1.77.63a.56.56,0,0,1-.38.38c0,.38-.25.63-.25,1-2.28,0-6.08-1.14-7.85,0v.12h-.25v.13c-.48,0-.28.12-.51-.38-1.77,0-6.45.25-7.35-1.51-3.29,0-7.1-2-9.62.5-1.14,0-2.41-.25-3.42-.25-.88.88-1.38,3.28-3,3.28,0,0-.26.25-.25.38-.76,0-1.77,1.38-2.66,1.38L23,23.11a7.88,7.88,0,0,0-1.14,1c-.12,0-.25.12-.38.12,0,.38-.12.38-.37.51a1.27,1.27,0,0,1-.76,1.13v.38l-4.81.13v.38h-.12v.38a1.48,1.48,0,0,0-.63,1.13c-.13,0-.5.76-.63.89l-.25.12-.12,1.26c-.26,0-.51.64-.5.76l-.13.13c-.25,0-.63.12-.89.12,0,.64-1.26,1.52-1.89,1.52,0-.13-.25-.38-.25-.38H9.21a5.74,5.74,0,0,1-1.89,2.78c-1.39,1.13-3.16.88-4.42,2.14-.63.63-2.15,1.77-2.4,2.53-.12.12-.37.25-.5.38,0,1.39,1.27,2,2.16,2.9h.38c.38-.38.38-1.39.38-2l.25-.25,2.28.13a3.31,3.31,0,0,1,1.13-.76,6.09,6.09,0,0,1,1.27.76A16,16,0,0,0,8,43.68a.27.27,0,0,1,.25.26h.64c0,.25.38.63.38,1a1.29,1.29,0,0,1,.26.75h.25a2.06,2.06,0,0,1,.51.89h.38c0-.38.12-.88.12-1.14a1.71,1.71,0,0,1,.76-.12c.64.63,1.65.5,2.41.5.13.25.76.63.89.89H16c.88-.89,2.78-2.4,4-2.4,1,2,.4,5.3-.6,6.82h-.26c0,.12-.25.37-.25.5-.25,0-.38.38-.37.51h-.26c0,.25-.12.37-.12.5l-.39.53c.33.91.33,1.44.89,1.48S20,55,20,55.58A1.09,1.09,0,0,0,21,56.72c.75.2.82.54.82.54l0,.75.68.05s.45-2.63,1-2.81.32-1.43,1-1.42,1.26-1,1.9-.81,1.39.36,1.54-.09.69-.41,1.06-.33,1.58.47,1.76,1.08,1-.29,1.39.47.59.53,1.09.31a1.26,1.26,0,0,1,1.42.51c.41.45,1.2.88,1.77.58s.35-.9-.33-.75-.41-.87-.41-.87l1.24-2.51a5.91,5.91,0,0,1,.67-2.14c.45-.56.35-1.09,1.1-.82s1.17-.17,1.69.4.82.54,1.54.24.83-.25.56.58-.59,2,.24,2.11,1.81-.32,1.87.51.21,1.21.89,1.26,1.17.16,1.24.76,1,1.34,1,1.34.71.46,1.09-.18,1.14-1,1.7-.69.82,1,1.54.54,1-.74,1.67-.43.78.24,1.43-.06,2.76-.91,2.76-.91l4.27-1.34L65,51.8a6.41,6.41,0,0,0,2.34-.09,3.64,3.64,0,0,1,2.29.18c.53.2,1.78-.39,1.88.55s-.4,1.69.2,1.81,2,.33,2,.33.64-.22.78.2,1.21.35,1.46.81.64.42,1.28.2A4.23,4.23,0,0,1,79,55.7c.42,0,1.22-.7,1.51-.21s.83.28,1.48-.62,2.1-2.27,2.22-3S85.36,51,85.41,50s-.54-2.45,0-3.12,1.14-1.12.81-1.69-.59-1.36.13-1.35,1.13-.18,1-.67.65-1.2.21-1.84-1.09-.77-1.27-1.34a3.24,3.24,0,0,0-.66-1.06c-.6,0-1.05.59-1.64.46s-1.43-.76-1.42-1.24c0-1.26-.94-2.17-.41-3.48.18-.48.42-2.33.93-2.44a15.6,15.6,0,0,1,3.81-.67c1.46,0,1.67-2.38.6-3.11-.92-.61-.42-1.89-.41-2.88l.37-.89c.12-.21.93-.44.93-.65a3.75,3.75,0,0,1,.87-2.32c.18-.18.28-1.1.46-1.19a5.6,5.6,0,0,0,1.66-.94c.46-.44.35-2,.69-2.68.43-.83-.11-.72-.1-1.23,0-.81-1-1-1-1.81,0-1,1.2-.46,1.57-1.21.09-.17.9.19,1.17.05.42.06-1-.46.22-.72.66-.14,1.33-1,.46-1.43-.68-.34.43-.83.44-1a4.85,4.85,0,0,0-.53-1.32c-.24-.07-1-.4-1-.7s-.41-.76-.58-.94-.78-.28-1-.46a4.87,4.87,0,0,0-2-.83,8.73,8.73,0,0,0-2.51-.09c-.84.08-1.08-.19-1.07-1s.34-.75,1-.83.14-2.06-.12-2.33A5.71,5.71,0,0,0,85.5,0a6.38,6.38,0,0,0-2.88.86c-.84.41-1.29.73-1.31,1.78,0,.75-.66.77-1.2.5C79,2.55,78.78,4.29,78.53,4.76c-.46.9-.68,2-2.08,2A3.26,3.26,0,0,0,76,6.81Z"/></g></g></svg>