<svg xmlns="http://www.w3.org/2000/svg" viewBox="0 0 84.74 68.28"><defs><style>.cls-1{fill:#9cd2ef;fill-rule:evenodd;}</style></defs><g id="Layer_2" data-name="Layer 2"><g id="regije"><path id="drnis" class="cls-1" d="M32.51,62.06c-2.14,0-3.65-1-5.79-1C25.59,60,26,56.6,24.19,55.72c0-.13-.13-.38-.13-.5-.63-.38-.51-1.76-1.39-2s-2,.25-2.65,0a3.08,3.08,0,0,0-1.51-.5,1.22,1.22,0,0,0-.5-.63c0-1-2.91-3.51-3.79-3.89-1.52-.75-3.66-1.26-4.67-2.76-1.27-1.88,2.62-4.52,4-4.52l.12-.12V40h-.13v-.26h-.38a3.84,3.84,0,0,0-1-1c0-1.38-.77-4.26-.15-5.52.38-.88,1.26-.75,2-1.25l.12-.25c1.39,0,1.26-1.76,1.25-2.51-.5-.13-1.89-1.26-1.89-1.76-2-.5-2.14-.12-3.65.38,0,.12-.25.37-.25.5-.25,0-.38.12-.5.12,0,.92-1.42,2.26-2.39,2.93a1.31,1.31,0,0,0-.59.14.77.77,0,0,1-.4.11c-.2,0-.24.08-.33.21s0,.1-.17.24a.63.63,0,0,0-.18.44.51.51,0,0,1,0,.34c-.07.13-.26.14-.48.13a.37.37,0,0,0-.37.22.61.61,0,0,1-.4.25c-.18,0-.15,0-.26.14a.37.37,0,0,1-.4.16c-.21,0-.25.05-.37.1a.66.66,0,0,1-.4.08c-.29,0-.39.19-.51.41s-.44.23-.68.19a.68.68,0,0,1-.52-.34C.54,34.09.68,34,.8,34s.13-.22.13-.36a3.78,3.78,0,0,1,0-.65.81.81,0,0,0,0-.48.67.67,0,0,1-.13-.38c0-.15-.07-.1-.1-.2s-.16-.15-.14-.35a.36.36,0,0,1,.31-.31A1.32,1.32,0,0,0,1.28,31a1.69,1.69,0,0,1,.48-.26c.21-.09.13-.09.34-.19a3.33,3.33,0,0,0,.46-.29c.27-.16.12-.48,0-.69a1.46,1.46,0,0,1-.08-.88c.08-.55.74-.72,1-.91a.36.36,0,0,0,.13-.56c-.1-.19-.22-.06-.28,0a.23.23,0,0,1-.26.12c-.1,0-.1-.19-.05-.35s0-.18-.14-.34a.55.55,0,0,1,0-.56c.1-.09,0-.23,0-.36a.47.47,0,0,1-.07-.32c0-.09.05-.16.07-.3a.71.71,0,0,1,.26-.46c.2-.16.1-.33-.08-.55A.67.67,0,0,1,3,23.51c0-.29-.34-.2-.49-.34s0-.23,0-.36,0-.18-.09-.25-.32-.09-.34-.35a1.44,1.44,0,0,1,.18-.72.6.6,0,0,0,.09-.6c-.13-.25-.37-.19-.63-.24A1.52,1.52,0,0,1,1,20a4.44,4.44,0,0,0-.71-.6C.12,19.26,0,19.17,0,19s.15-.27.33-.44a.59.59,0,0,0,.15-.49c0-.14.05-1.21.05-1.21v0a1,1,0,0,1,.16-.61c.1-.16,0-.36,0-.54s.07-.24.27-.41.06-.54.05-.85S.86,13.32.8,12.69c0-.37.33-.76.32-1.11S1,11.21.75,10.92a2.1,2.1,0,0,1-.41-.78c-.14-.3.13-.88.19-1A1.77,1.77,0,0,1,1,8.76a.71.71,0,0,0,.3-.46,3.64,3.64,0,0,1,.1-.54c0-.21.14-.52.17-.69a5.43,5.43,0,0,1,.11-.62A1.53,1.53,0,0,1,2,5.7a.92.92,0,0,0,.22-.65,3,3,0,0,1,.12-.83c0-.18.06-.19.1-.38A6.08,6.08,0,0,1,4.72,5h.5C7,6.79,10.64,6.54,12.91,7.67c0,.5,2.4,2.13,2.65,2.76,1.39.38,3.15,1.63,4-.25.37,0,.88-.5,1.25-.5a3.09,3.09,0,0,1,1.76-1,.45.45,0,0,1,.25-.13L23,8.3c.88,0,1.88-1.25,2.63-1.63,2-1.25,6.41-1.63,7.53-4,.25,0,.38-.25.5-.38h.51a19.17,19.17,0,0,1,1.13,1.63,1.86,1.86,0,0,1,.89.38c.37,0,.88-.13,1.13.25,1.51,0,3.66,3.39,5.05,4.14v.13h.38c.12-.26,1.13-.63,1.13-1.13h.37a1.43,1.43,0,0,1,1-.63c.87-.88,4.78-.25,6.16,0a16.31,16.31,0,0,0,2.52,0,10.39,10.39,0,0,1,1.25-.88c0-.37.88-1.13,1-1.5.88,0,1.51-1,2.13-1.26.25-.5,1.13-.37,1.64-.37.25,0,.88-.13.88-.5a2.9,2.9,0,0,0,.87-1.26,1.51,1.51,0,0,0,.63-.62c.25,0,.88,0,.88-.38,2-.75,3.77.25,5.66.25.12.13.25.5.38.5,0,1,.22,2.24.23,3.37L69,4.93s-.56,1.38-.71,1.89S68.07,8.11,68,8.45s-.19.71-.41,1.39A10.07,10.07,0,0,1,67,11.08l-.34.45-.28,0-.47.2a2.08,2.08,0,0,0,.1.56,3.23,3.23,0,0,1,.07.94l1,2.54.25.33,1.69.2.27.41,1.07.38a10.46,10.46,0,0,1,1.77,1,6.42,6.42,0,0,1,.59.45l1.12.88L76,21.64l2.5,1.65-1,.06.84,1.08,1.06.82,2.68,3.69.55.66,2.14,2.74-3.69,1.35-3.48,3-.38,0-.5.59.13.45-.76,1-.91.63-1.37,0s0,.19-.14.53a1.08,1.08,0,0,1-.81.61,2.18,2.18,0,0,0-.54.17s-1.33.87-1.67,1-.87.53-.87.53-.51.3-.9.47a2.26,2.26,0,0,0-1,.73c-.51.53-.53.52-1,.5s-.13.35-.13.35a4.27,4.27,0,0,1,.74.58,4.59,4.59,0,0,1,.63,1.07,2.73,2.73,0,0,1,.38,0c.25,0,.73.77.73.77l1.16,1.76-1.2.29a3.27,3.27,0,0,1-.68.33.94.94,0,0,0-.42.26l-.77,1.51-.27,0-.91,1.3a1.35,1.35,0,0,0-.33,1,1.09,1.09,0,0,0,.33.52l.72.37,1,1.11,1.13,2.52-.6,1.13-2.75,4a4.87,4.87,0,0,0-.36.83L63.16,64l-3.64-1.08-1.19-.37a5,5,0,0,1-1.24-.09c-.51-.13-.6.17-.87.33a.72.72,0,0,0-.35.77,1.31,1.31,0,0,1,0,.61l-4.17-1.85-1.52-.8-.41.35-.3.7-.13.64L48.65,65l-.45.39-1.37,2.9L43.71,67l-4-1.58a3,3,0,0,1-.6-.06,2.58,2.58,0,0,1-.79-.34l-1-1.81-1.88-.09-2.1-1A2,2,0,0,0,32.51,62.06Z"/></g></g></svg>