<svg xmlns="http://www.w3.org/2000/svg" viewBox="0 0 103.92 89.56"><defs><style>.cls-1{fill:#adce3a;fill-rule:evenodd;}</style></defs><g id="Layer_2" data-name="Layer 2"><g id="regije"><path id="dugo_selo" class="cls-1" d="M29.1,89.13c.25-.09,2.15-.93,2.4-.93.16-.16.75-.41,1-.58,0-.25.09-.66.08-1L28.3,80.48c-.17-.17-.5-.5-.5-.75-.5-.25,0-.75,0-1.08a.67.67,0,0,0,.42-.25c.75,0,1.5-.5,2.24-.5,0-.08.17-.16.25-.16a1.33,1.33,0,0,0-.58-1.25c0-.16.08-.41.08-.58a.28.28,0,0,0,.08-.16,2.57,2.57,0,0,1,.83,0v.08c.92.41,1.42-.42,2-.75,0-.66,1.41-1.24,1.82-1.66,0-.33.17-.66.16-1a.94.94,0,0,0,.33-.66c.34-.17.5-.75.75-1a2.25,2.25,0,0,0,1.09.75c1.33.58,4,1,5.41.25l.08-.16c.25,0,1.25-.67,1.25-.92l.16-.08c.17-.58.83-.91,1.16-1.41s0-2.16-.09-2.66a9.27,9.27,0,0,1-.1-3.4c.66-1.5,1.49-1.91,1.48-3.91.09,0,.33-.25.33-.33.17,0,.25-.25.34-.33,0-1.33.51-2.48.51-3.72a2.14,2.14,0,0,0,1,.23c.17.33.67.25.84.58,1,0,2.5,1.08,3.66,1.08.09-.08.25-.25.34-.25,0-.16.16-.24.24-.33,0-1,1.08-2.07,1.07-3.07a.18.18,0,0,0,.17-.17c.5,0,2.66-.41,2.67.17.08,0,.16.08.25.08a10.47,10.47,0,0,1,0,2.74l7.86,6.41c1.3,0,1.38-.55,2.52-.54.68,0,.62-.75.43-1.17s-2-.67-1.12-1.57c.38-.38,0-3.69,1.36-2.27.26.27.74,1.57,1.43,1.24.38-.19,1.11-1,1.46-1,1.06,0,1.29-.4,2-.74,1-.44.33-1.67,1.73-1.65.8,0,1.51,1.39,2.19,1.55a3.54,3.54,0,0,1,1.62.7c.6.62.25,1.34,1.08,1.88,1.74,1.2,3.19.34,4.92-.66a1.47,1.47,0,0,0-.45-.81c-.11-.11-.84-.08-.61-.31.54-.52-.86-1.07-.32-1.6.16-.15.7-.87.47-1.1a2.1,2.1,0,0,1-.28-1.52c.15-.34.33-.71.44-1a2.66,2.66,0,0,1,.52-.69l.87,0L87.35,50l-.09-1s.92-.22,1.13-.73.5-1.27.5-1.27a1,1,0,0,1,.3-.77c.33-.25,1-.37,1.08-.83s.24-1,.52-.69.38.42.64.5.51,0,.61.21a3.37,3.37,0,0,1,0,1.36c-.09.41-.26,1.92-.26,1.92l.22.87s.33.59.69.6.33-.28.61-.28.74.09.6-.4a8.08,8.08,0,0,1-.22-.9l.44-.81,1.05.27.67-.56s.76.57.81.8.35.57.22,1,.09.84.42.85h.93l-.46-3.08s-.15-.8.42-.53c.19.08.46-.26.8-.26,1.37,0,.35-.6,1.38-.59a2,2,0,0,0,1.62-.53c.54-.55.67-1.44,1.49-2.24s0-2.09,0-3.23c0-.84-.8-.16-1.09-.85l-1-2.22c-.19-.46-.5-2.55-.2-2.85.93-.9.32-1,.29-2.05l-.07-3.39A10.88,10.88,0,0,1,102,24.7a.89.89,0,0,0,.14-.52c0,.91-.95,1-1.21,1.55-.41.79-1.33-1.43-1.58-1.62a5,5,0,0,0-2.1-.31c-.65,0-2.45-.54-2.47.4,0,1.74-1.14,1.26-2.33,1-.76-.16-.7.64-1.46.63s-1-.59-1.81-.09c-.58.35-2.33.66-2.31-.25,0-.76.6-1.91-.52-1.93s-1.55,1.72-2.17,2.33c-.91.06-2.41-1.4-3.21-1.81-1.36-.71,1.82-3.1-.54-3.13-.36,0-1,.32-1.52.31s0-.51,0-.69-.93-.66-1.15-.77c-.4-.19.23-.94-.46-.95s-1.29.39-1.86-.18c-.37-.39,0-1.79-.43-2-.86-.43-.06-.87-.36-1.18s-1.18.14-1.52.13c-.6,0-1.9.81-1.7.21s.42-.64-.38-.65c-.64,0-.87-.12-1.25.44-.12.19-.81,1.43-1,1.43s0-1.18.09-1.36c.31-.61,0-1.1.06-1.82,0-1.4-.83-.2-1.55-.21-1,0-2.05.13-2.06,1.26s-2.14.92-2.15,2-1.54,1.88-2.75,2.09c-1.06.18-.69-2.81-.07-3.41.38-.37,0-1.74,0-2.27,0-2.52-3.39-2.59-5.06-3.63-.44-.28-.27-.13-.08-.31.38-.36-.13-1.83-.12-2a2,2,0,0,0-1.34-2.14c-.72-.35-.29-1-.67-1.37S51.06,5.18,51,5.37s-.91.82-.91.25c0-1-1.8-1-2.52-1.32C45.86,3.45,45.39,1.05,44,.36c-.27-.12-2.95-.65-2.73-.15.15.3.49.65.18,1a.65.65,0,0,1-.43.19,19,19,0,0,0,.41,3.81,6.3,6.3,0,0,1,.76,2.16c-.42,0-1.09.17-1.58.17a11.32,11.32,0,0,0-1.4,5.89c-.08,0-.07,1.33-.16,1.42,0,.58-.24,1.32-.24,2,.17.08.51.66.84.66a1.67,1.67,0,0,0,.25.67h.25l.08.08c0,.25.09.58.09.91.33,0,1,.67,1.59.67,1.07-1.41,2.25,2,3.42,2,0,.25.25.5.25.75.17.17.17.25.34.25,0,.25.5.33.66.41s.09.17.09.25a5.42,5.42,0,0,0-.83.67h-.25c0,.08-.08.16-.08.25s-.5.16-.58.16l.08.09a3,3,0,0,1-.83.16,1.45,1.45,0,0,1-.83.33,1.29,1.29,0,0,1-.84.34.7.7,0,0,1-.58.33c-.83.83-2.24.83-2.24,2.32-.08,0-.41.17-.41.25h-.25c0,.08-.42.42-.42.42,0,.33.09.66.09,1h-.16a1.84,1.84,0,0,0-.17.67.63.63,0,0,0-.08.41.32.32,0,0,0-.08.17c-.09,0-.33.16-.33.25a1.84,1.84,0,0,1-.51-.33h-.58v1.32a2.1,2.1,0,0,1-1,.17c0-.08-.09-.25-.09-.33a3,3,0,0,1-.83-.92,1,1,0,0,1-.75-.33,3.53,3.53,0,0,1-.42-.08l.08-1.58h-.34c-.08.08-.58.42-.58.58-.25,0-.58.42-.58.67l-.08.08a2,2,0,0,0-.83.41c-.17,0-.58.17-.83.17a.79.79,0,0,1-.5.33,7.45,7.45,0,0,1-.58,2.08l-.08.16c0,.25.12.55.12.72.52.7.31,2,.31,2.85h-.5a4.31,4.31,0,0,1-.49.67c0,.75-1.08,1.41-1.66,1.49l-.08.17a3.53,3.53,0,0,0-.42.08,4.7,4.7,0,0,0-.16,1.91c-.16.09-.33.42-.5.5,0,.66-.82,1.66-.82,2.08-.83.41-2.66.33-3.24,1.32a3.44,3.44,0,0,0-1,.09c0,.16.18-.15-.73.76a1,1,0,0,1,.28.43s0,.37-.67.14-.44.14-1-.12-.7.1-1.14-.2-.33-.15-.8-.23-.83.88-1,1.31-.42.85-.9.92-.55.28-.56.65a3,3,0,0,1-.5,1.43,2.53,2.53,0,0,0,.09,2c.25.56-.16,1.29-.35,1.73a22,22,0,0,0-.18,2.8c-.08.59-.26,3.21-.26,3.21l.24.88v.67l-1.25-1-3.8-2.59a30.38,30.38,0,0,0-5.1-1.79,2.55,2.55,0,0,0-2.37,1c-.23.48-1,1.65-1,1.65s1.78.21,2.26.89,1.9,2,2,2.77a2.45,2.45,0,0,0,1.32,2.28A8.62,8.62,0,0,1,9,67.52c.62,1,1.43,2,2.3,1.72s1.26-.47,1.5-.27.38.1.58-.29.16-1.39,1.21-.37,2.34,1.72,2.83,1.24.78-.76,1.16-.56.28.92-.06,1.35-1.92,3.2-2.46,3.54a1.62,1.62,0,0,0,.11,2.7c1.39.88,3,2.78,2.46,4s-.79,1.87.46,2.42a3.6,3.6,0,0,0,2.11.5c.53,0,1-.08.86.69s-.3,1-.11,1.49a6,6,0,0,1,.21,2.08c-.05.53-.59,1.25.46,1.55a4.89,4.89,0,0,0,3.19-.11c1.26-.42,2.56-.83,2.56-.83S29.35,88.17,29.1,89.13Z"/></g></g></svg>