<svg xmlns="http://www.w3.org/2000/svg" viewBox="0 0 211.35 123.82"><defs><style>.cls-1{fill:#faa74a;fill-rule:evenodd;}</style></defs><g id="Layer_2" data-name="Layer 2"><g id="regije"><path id="erdut" class="cls-1" d="M74.56,9.17c0,.89-.08,2-.08,2.62-.44.15-1,1.48-1.32,1.78,0,1.18.6,3,.61,3.84.14,0,1.33.45,1.33.59h1c.15-.14,1-.59,1.33-.88v-.3c.44-.29.44-.15.74-.59a2.4,2.4,0,0,0,.89-.44c.44,0,1,.15,1.33.15a4.12,4.12,0,0,1,.31,1.92c.15,0,.74,1,.89,1s.15.45.15.59c.15,0,.45.74.45,1,.3.3.6.74,1,.74l.45.44c.44,0,2.67-.14,2.67-.59.29,0,1.33.15,1.33.59.3,0,1,.3,1.34.3l.15-.3h.14a16.76,16.76,0,0,0,1.18-2.36,6.25,6.25,0,0,1,.74.15v1.77c-.3.15-.44.59-.59.59v.3c-.15.15-.59.59-.59.74-.3,0-.44.44-.59.44,0,.44-.15.89-.14,1.33.14,0,.44.3.59.3l.15.29A1,1,0,0,1,91,26a.48.48,0,0,1,.31.13c.29,0,.73-.27,1-.27.73-2.22.57-3.85.56-6.51h.3c.15-.3.59-.44.74-.59,1.48,0,1.63.74,2.82,1,0,.3,0,.45.15.59,0,.45-.14,2.37-.58,2.37v1.92c.14,0,.29.3.29.45h1c.59-1.93.13-5.62,1.6-7.1v-.3c.89,0,1.79.89,2.53.89,0,.59.45,1,.45,1.78-.45,0-1.18.59-1.63.73,0,.15-.15.3-.15.45-1,0-1.62,2.07-1.61,3l.59.59h1a1,1,0,0,1,1-.59c0-.15.73-.45,1-.45a5.6,5.6,0,0,1,1-1.48h1c.3.3.6.74,1,.74,0,.3.15.6.3.6v.73c-.14.15-.59.6-.58.89l-.15.15h-.45a1.13,1.13,0,0,1-.59.59c-.44,1.48-1.62,2.22-1.61,4.14.89.89,3.71,1.18,5,1.18,0-.14.14-.29.29-.44h.3c0-.29.44-.74.59-.89H109a.46.46,0,0,0,.13-.29c0,.15.32.29.47.44V32.5c-.15.15-.59.59-.89.59,0,.15-.15.3-.15.45s-.59.59-.59.74l-.14.14a.3.3,0,0,0-.14,0c0,.3.14.69-.31.69v.45l-.3.14-.15.15v.74a1.77,1.77,0,0,0,1.48.45c.44-1,1.48-1.93,1.77-3.26.14-.74-.16-2.36.58-2.66,0-.44.44-.74.44-.89h1.18a6.66,6.66,0,0,1,1.06,3.41,3.73,3.73,0,0,0-.74,1.33c-.29.14-.44.44-.74.74h-.29l-.15.29-.3.15c0,.3.16.74.16,1,.74.45,1.48,0,2.07.3,0,1.48-.28,3.11-.27,4.58.15,0,.29.3.44.45,1,0,2.52-.45,2.52-1.78a.94.94,0,0,0,.59-.14,3.82,3.82,0,0,1,1,1.18.32.32,0,0,1,.3.3c.3.14.45.44.6.59v.74c-.15.14-.59.59-.74.59s-.15.29-.15.44l-.29.15v1.18a1,1,0,0,1,.75.59c.89,0,1.77-1.33,2.06-1.92h.45l.15.15v.59a2.59,2.59,0,0,1-1.48.59v.59c.75.3.75.89,1.79.89a.48.48,0,0,1,.29-.15c0-.14.3-.44.3-.59.29,0,.74-.15,1.18-.15l.15-.14v-.89c-.15,0-.3-.15-.45-.15,0-.59-.45-1.77.44-2.22a.53.53,0,0,1,.14-.29c0-1.33,1.48-1,2.22-.89,0,.59.31,1.48.31,2.22a2.3,2.3,0,0,0-1.18,1.18c-.15,0-.59.59-.59.89-.15,0-.3.44-.44.44a15.93,15.93,0,0,1,1.34,1.92c.3,0,.89.89.89,1.19a.64.64,0,0,1,.6.59c.15,0,.44.15.59.15s.3.44.3.44h.59a7.12,7.12,0,0,0,4.31,1.33c.74-.74,4.89-1.33,5.78-1.33.15.15.3.45.45.59h.29a2.25,2.25,0,0,1,1.33-.59c0,.15.15.6.45.6,0,.14.3.59.3.73,1.34,0,2.37-.59,3.71-.59a6.41,6.41,0,0,0,.59,1v.59h1.18c0,.44.15.89.16,1.33a12.21,12.21,0,0,0,3.12,1.63,5,5,0,0,1,.75,2.51,2.23,2.23,0,0,1,.89.74c.3,0,.6,0,.74.3.45,0,1,0,1.19-.3h.44c.3-.44,1-.59,1.33-1,2.38,0,4.6-1.18,7.27-1.18,0-.15.14-.15.29-.15.3-.45,1.33-1.78,1.92-1.78v1.63c1.48,0,3.26.15,4.74-.59,1.48,0,3.12.74,4.45.74,1.64,1.63,5.09,0,6.73,1.67l2.38,1.66,1.06.44,2.54-.1,2.35-.57a3.07,3.07,0,0,0,2.16-.51,4.27,4.27,0,0,0,1.68-1.87c.33-.72,1.23-3,1.23-3a10.73,10.73,0,0,1,2.31-.24c.45.12,1.56.5,1.71,1.13s.69,3.23.69,3.23a2.53,2.53,0,0,0,.64,1.19,2.17,2.17,0,0,0,1.32.36s1.83,0,2.69.1a6.28,6.28,0,0,1,2.94.68,16.15,16.15,0,0,0,2.06,1.24,14.31,14.31,0,0,1,2.44,1.41,3.58,3.58,0,0,1,.7,1.37c.09.38.14.66.14.66s-.06.72,0,.93A5.2,5.2,0,0,1,211,68.8l-1.16,1.89a5,5,0,0,1-1.27,1.06,13.36,13.36,0,0,1-2,.34,2.57,2.57,0,0,1-.67.08,5.21,5.21,0,0,0-1.94.16,4.66,4.66,0,0,1-2.11.5,8.16,8.16,0,0,1-3.68-1,9.71,9.71,0,0,0-2.37-1.52,7.75,7.75,0,0,0-1.22-.22,3.71,3.71,0,0,0-1.23,1.17A11.3,11.3,0,0,0,192.22,75c0,1.14.16,2.39.17,2.74a6.24,6.24,0,0,1-.09,2.09,3.27,3.27,0,0,0-.29,1.79,4.46,4.46,0,0,0,.75,2.15,6,6,0,0,0,1.08,1.12l1.14,1c-.18,1-.84.82-.84.82a6.37,6.37,0,0,0-1,.08,5.14,5.14,0,0,1-1.65-.21l-.64-.68-.21-.63-.15,0,.09.58-2.67.28s-.84.45-1.49.89-.87.09-1.42,0,0-1.16,0-1.16l-.32-1.11-1-.11.23-1.34-.94-.93s-1.5-.48-2.51-.83-.2-.86.17-1.41-.69-.53-1.24-1-.2-1.2,0-1.75-.36-.49-1.1-.53-1.07-.57-1.67-1.4-2.2-1-2.5-1.38-.27-.31-.64-.07a4.76,4.76,0,0,1-2,.22c-.61,0-2-.12-2.3.28s-.65.45-1.39.47-.28.52.2,1.29-1.48,3.27-1.48,3.27l-1.68-1.19-.8.9-2.15,1.94-3-1.33-1,1.78a2.83,2.83,0,0,0,1.14.44c.46,0,.94.72,1.57,1.46s0,.65-.65.49a4.27,4.27,0,0,0-1.56,0l-1.7,3.45,3,3.16-.52,2.17L160,93l-.1.92-1.88.84-.34-.37-1,0-2.41,1.48-.52-.44.12-2.39-2.69-.19,0-.58-2.46.65s-1.26.38-1.33,1.11-3.1.33-3.74.23-.29.77-.66.76-.8.51-1.15,1.58a1.89,1.89,0,0,1-1.67,1.12s-4.5,1.45-5,1.59-.83.21-1.23-.2-1-.1-1.43-.23-.59.24-.81.73.39.89.39.89l.91,3.23-.64,1.93,1.1,2.68a7.73,7.73,0,0,1-1.45.63,2.8,2.8,0,0,0-1,.51L128,110.6a3,3,0,0,0,.69,1.11,15,15,0,0,1,1.29,2.22,8.24,8.24,0,0,1,.66,3.54c0,1.53-1.57.84-2.22,1.14s-1.25-.2-1.8-.21l-2.64-.15c-.52,0-1.72-.12-1.76.65l-.18,2.24c0,.3-1,1.09-1.24,1.3-.62.61-2.08,2.06-2.74,1a3.65,3.65,0,0,0-3.95-1l-2.4,1,.16-1.61a3,3,0,0,1-.3-.88.52.52,0,0,1-.15-.3c-.15,0-.3-.29-.3-.59-1.49-.89.42-5.18-1.07-6.06,0-.15-.14-.3-.15-.45-.89,0-1.19-1.18-1.19-1.92l-.6-.59c0-.89.14-3-1.19-3v-1.62c-2.53-1.19-2.1-5.33-1.37-7.55.74-.29.74-1.33.59-1.77v-.44l-.75-.89a10.88,10.88,0,0,1,.42-2.28,3.54,3.54,0,0,1-.14-1,3.5,3.5,0,0,1-2.37-1h-.45c0,.15-.29.44-.29.59-.3,0-.74.15-1.19.15a.52.52,0,0,0-.3-.15c0-.29-1-1-1-1.33-.74-.3-1.26-3-1.71-3.89-.34,0-.68,0-1,0a2.86,2.86,0,0,1-.45-1.18.6.6,0,0,1-.15-.29c-.59-.3-.89-1.93-.9-2.67-.15-.14-.15-.29-.15-.59L95.4,82v-.6l.45-.29V81c.44-.3,1.62-.89,1.62-1.63-.44,0-1.19.15-1.63.15,0,.3-.44.44-.59.44,0,.15-.44.74-.74.74,0-2.07-1.8-5.17-2.85-6.8a2.3,2.3,0,0,1,.44-1.77c0-.74,0-.45-.6-1.19a3.25,3.25,0,0,1-1.78-.74h-.44a6.79,6.79,0,0,1-.9-2.21H86.88c-.15-.15-.3-.74-.59-.74,0-.45-.15-.15-.15-.45H84.8a2.09,2.09,0,0,1-1.63.45h-.29a11.34,11.34,0,0,1-1.33,1.18c0,.15.15.59.15.74,1.49,1.92.46,3.1.47,5.32a1.11,1.11,0,0,0-.3.59c-1.48,0-2.82-.59-4.15-.59l-.3-.3c0-.29-.3-.29-.3-.44-.44,0-1.33.15-1.48-.3-1.19,0-3.71-.59-4.3.6-.15,0-.3.14-.44.14,0,.3-.15.74-.15,1a.31.31,0,0,0-.29.29l-2.82.15-.15-.29a12.46,12.46,0,0,0-5.2-1.48,1.57,1.57,0,0,0-1.78-1.78c-.3-.74-2.38-.15-2.37.59-1,0-2.37.3-3.27-.59H53.24V69l-.3-.29c-1.19,0-1.33.29-2.07,1-1.63,0-3.42-1-3.42-2.81-.15,0-.45-.14-.6-.14,0-.6.44-1.93,1.33-1.93v-.14c1.33-1,1.17-2.22,1.17-3.85a2,2,0,0,0,1-1.92,7.66,7.66,0,0,1-1-.59v-.45c.45,0,.89.15,1.34.15a2.21,2.21,0,0,0,2.08.59c0-1.62,1.47-3.4,1.46-5.17s-1.35-3-2-4.29a9.85,9.85,0,0,0-2.07-.3c0-.14-.45-.44-.45-.59a1.13,1.13,0,0,1-1-.59c-.3,0-.6-.15-.89-.15a.54.54,0,0,0-.3-.14c0-.15-.89-.45-1-.45,0-.44,0-.44.44-.59,0-.44.15-.59.15-.89l-.15-.15c-.15,0-.6-.44-.89-.44l-.15-.15c0-.29-.3-.74-.3-1a.32.32,0,0,1-.3-.3h-.45c0,.15-.44.3-.59.3a14.36,14.36,0,0,0-1.47,1.62c-.75,0-5.49.15-5.49-.59-.15,0-.45-.44-.45-.59a.68.68,0,0,1-.74-.44,2.78,2.78,0,0,1-1.19-.3c0-.89-1.49-1.63-2.23-1.63-.3-.59-3.24-1.12-4.13-1.26l-.07-2.41a10.8,10.8,0,0,1-2-.23,3.37,3.37,0,0,0-1-.22H24.38l-1.9.76s-.38-.88-.63-1.64a6.12,6.12,0,0,0-1.25-1.74l-1.24.28-.07-2.57-2.68-4.21,1.18-.76L16.2,19.2l-7.76.29,1.41-2.85a1.85,1.85,0,0,0-.95-.17,8.7,8.7,0,0,1-1.53.05c-.39,0-1.21.21-1.57.21a6.46,6.46,0,0,1-1.13-.25l-.81-.76-.77-3c-.25-1.12-1.22-2.05-1-3.61,0-.63-1-1.59-1.16-2.25A6.27,6.27,0,0,1,.51,4.59c0-.4-.48-.8-.47-1.22s0-1,0-1a1.42,1.42,0,0,1,.3-.92A11.69,11.69,0,0,0,2.69,2.53a2.73,2.73,0,0,0,2-.41,5.61,5.61,0,0,1,1.62-1A3.18,3.18,0,0,1,8.1.9a9.92,9.92,0,0,0,2.43.83,2.78,2.78,0,0,0,1.88-.64A3.66,3.66,0,0,1,14.56,0a2.79,2.79,0,0,1,1.87.64c.48.47.91,1,1,1.09a1.35,1.35,0,0,1,.42.5,2.88,2.88,0,0,0,.64.9c.27.21,1.19.84,1.19.84l.91.48a3.3,3.3,0,0,1,.95.29,3.59,3.59,0,0,0,1.6.37,10,10,0,0,1,2.5.39c.64.22,2.06.93,2.06.93L28.88,7a5,5,0,0,0,1.6.54,3,3,0,0,0,1.1-.17,2.34,2.34,0,0,1,.72-.24,2.46,2.46,0,0,0,1.16-.35c.35-.25.56-.43.76-.56a2.59,2.59,0,0,0,.89-.89,4.16,4.16,0,0,1,.46-.86,3.44,3.44,0,0,0,.49-.88A12.31,12.31,0,0,1,36.67,2c.21-.36.8-1.17,1.44-.86a2.47,2.47,0,0,0,1.8.31,2.66,2.66,0,0,1,1.56-.18,3.34,3.34,0,0,1,2,1.11,4.58,4.58,0,0,0,1.13,1.4,2.49,2.49,0,0,0,1.08.52,1,1,0,0,0,.81-.42,6,6,0,0,1,.81-1,3.12,3.12,0,0,0,.54-.63,4.43,4.43,0,0,1,.45-.49,2,2,0,0,1,1.11-.48A3.14,3.14,0,0,1,50.89,2c.16.23.76.91,1.3.87a3.89,3.89,0,0,1,1.25,0A5,5,0,0,0,54.71,3a3.41,3.41,0,0,1,1.62.29,1.93,1.93,0,0,1,.83,1.18A4.59,4.59,0,0,0,57.61,6a7.06,7.06,0,0,1,.59.87c.09.24.34.77.57.83a.79.79,0,0,0,.67-.07,1,1,0,0,1,.67-.17c.35,0,.83,0,.83,0a7.22,7.22,0,0,1,1.2.29c.3.14,1,.52,1.26.62s.74.33.9.41a.59.59,0,0,1,.24.19l1.32-.5s1.08-.95,1.72-.95a2,2,0,0,1,1.22.29,6,6,0,0,1,.68.47,4,4,0,0,1,.75.18,1.56,1.56,0,0,0,.88.15,2,2,0,0,1,.7-.05,1,1,0,0,1,.59.15A.88.88,0,0,0,73,9a6.75,6.75,0,0,0,.9.07A1,1,0,0,1,74.56,9.17Z"/></g></g></svg>