<svg xmlns="http://www.w3.org/2000/svg" viewBox="0 0 97.8 65.94"><defs><style>.cls-1{fill:#a25641;fill-rule:evenodd;}</style></defs><g id="Layer_2" data-name="Layer 2"><g id="regije"><path id="fercanci" class="cls-1" d="M97.8,40.58c0-2.07-1.8-5.18-2.85-6.81A2.26,2.26,0,0,1,95.39,32c0-.74,0-.44-.6-1.18A3.29,3.29,0,0,1,93,30.08h-.45a7.16,7.16,0,0,1-.9-2.22H90.18c-.15-.15-.3-.74-.6-.74,0-.44-.15-.15-.15-.45H88.1a2.1,2.1,0,0,1-1.63.45h-.3a9.92,9.92,0,0,1-1.33,1.18c0,.15.15.59.16.74,1.49,1.92.45,3.11.46,5.32a1.2,1.2,0,0,0-.29.59c-1.48,0-2.82-.59-4.16-.59l-.29-.29c0-.3-.3-.3-.3-.45-.45,0-1.34.15-1.49-.29-1.18,0-3.71-.6-4.29.59-.15,0-.3.15-.45.15,0,.29-.14.73-.14,1a.32.32,0,0,0-.3.3l-2.81.14-.15-.29a12.46,12.46,0,0,0-5.2-1.48A1.58,1.58,0,0,0,63.8,32c-.3-.74-2.37-.15-2.37.59-1,0-2.37.3-3.26-.59H56.54l0-3.1-.29-.3c-1.19,0-1.34.3-2.08,1-1.63,0-3.41-1-3.42-2.81-.15,0-.44-.15-.59-.15,0-.59.43-1.92,1.32-1.92V24.6c1.33-1,1.18-2.22,1.17-3.85a2,2,0,0,0,1-1.92,9.1,9.1,0,0,1-1-.59V17.8c.45,0,.89.14,1.34.14a2.2,2.2,0,0,0,2.07.6c0-1.63,1.47-3.4,1.47-5.18,0-1.63-1.35-3-2-4.29a9.92,9.92,0,0,0-2.08-.29c0-.15-.44-.45-.45-.6a1.12,1.12,0,0,1-1-.59c-.29,0-.59-.14-.89-.14a.52.52,0,0,0-.29-.15c0-.15-.9-.45-1-.45,0-.44,0-.44.44-.59,0-.44.14-.59.14-.89l-.15-.14c-.14,0-.59-.45-.89-.45l-.15-.14c0-.3-.3-.74-.3-1a.33.33,0,0,1-.3-.3h-.44c0,.15-.44.3-.59.3A14.65,14.65,0,0,0,46,5.23c-.74,0-5.48.14-5.49-.6-.14,0-.44-.44-.44-.59a.7.7,0,0,1-.75-.44,2.73,2.73,0,0,1-1.18-.3c0-.88-1.49-1.62-2.24-1.62-.3-.6-3.24-1.12-4.13-1.27l0,.73s-.76-.09-1.32-.22A2.14,2.14,0,0,1,29.45.27,1.66,1.66,0,0,0,28.78,0l-.42.09L25,7s-.21.72-.63.91a1.12,1.12,0,0,0-.8,1,1.73,1.73,0,0,1-.43,1,7,7,0,0,1-1,1.65c-.43.35-1.8.72-1.68,1.34s.18,1-.25,1.4-.2.81-.69.81-.82.25-.86.87a15.65,15.65,0,0,1-.28,1.72L18.23,19s-.37.58-.79.64a6.65,6.65,0,0,0-1.41.6A1.67,1.67,0,0,0,16,21.34a7.66,7.66,0,0,1,.35,1s-1.76-.29-1.9.4a6.13,6.13,0,0,1-1,2.43c-.39.32-.9,1.39-1.35,1.25l-.75-.2-.14,1.07s1.26.41,1.16.93.11,1.5-.31,1.78-.21.56-.44.91-.21,1-.63,1.3a1.34,1.34,0,0,0-.47,1.16c0,.39-.71,1.62-1.26,1.78s-.69.51-1.41.54-1,.08-1.15.6a1.88,1.88,0,0,1-1.25,1.06c-.52.16-1.44.63-1.83.76s-.79,0-1.08.44-.92.09-1.15.8,0,.75-.47,1.14a2.44,2.44,0,0,0-.63.74l.09.06a1.5,1.5,0,0,1,.06,1.24c-.27.64-.85,2,0,2.3s1.57.47,1.76.89.21,1.13.93.88a.94.94,0,0,1,1,.12,9.54,9.54,0,0,1,1.47.13c.41.12,1.21-.32,2,0s1.81-.35,2.18.18a8.15,8.15,0,0,1,.7,1.36l.52.72s.79.35.93.77,1.09.5,1.09.5.86,0,.86.54.32,1.32.85,1.33a1.42,1.42,0,0,1,1.2.5c.48.46,1.86,1.42,1.89,2.06S18,55.85,18.6,56s1.8.7,2.45.07a4.17,4.17,0,0,1,1.67-.88s.86-.18.82.27a1,1,0,0,0,.44,1A2.1,2.1,0,0,1,24.87,58a3.66,3.66,0,0,0,.84,2.12c.37.27.7.87,1.35.62a3.89,3.89,0,0,1,1.62-.13c.11,0,1.41.92,1.41.3s.41-.45.83-.45.66-.36.67-.87,2.36.11,2.62-.14c1.06-1,.64.69,1.64.7.68,0,1.39-2,1.63-1.18l.27,1a20,20,0,0,1,1,2.32c0,.71.78.83,1.18.84.68,0,.79.75.78,1.26s.39,1,.38,1.6a14.65,14.65,0,0,0,1.61-3.49c.59,0,.74-.74,1.33-.74,0-.29.3-.44.59-.44,0-.15.59-.45.74-.59h.45v-.45l.3-.15c0-1.92,2.21-4.14,2.2-5.91h.29c0-.3-.15-.59-.15-.89.74-.14,2.07-1.33,3-1.33,0,0,.45.89.6.89,2.38,1.63,8.15-1,9.92-2.81h1c1-1,2.51-2.36,4.14-2.36,0-.59.59-1.18.59-1.78.15,0,.29-.29.29-.44a17.05,17.05,0,0,1,5.5-.65,4.34,4.34,0,0,1,.73-.38v-.15h1.33l1.19,1.18c.3,0,1.48,0,1.48-.44.3,0,3-1.92,3-.44.14,0,.29.14.59.14s.59-.29,1-.29c0-.15.14-.45.14-.59.45,0,1-.3,1.48-.3,0-.59,1.63-1.18,1.63-1.77,1.62-1,2.81-.74,4.74-.74,0,.15.3.44.3.59l.15.15C93.35,41.76,96.17,41.61,97.8,40.58Z"/></g></g></svg>