<svg xmlns="http://www.w3.org/2000/svg" viewBox="0 0 158.81 39.22"><defs><style>.cls-1{fill:#2e6faa;fill-rule:evenodd;}</style></defs><g id="Layer_2" data-name="Layer 2"><g id="regije"><g id="hvar"><path class="cls-1" d="M14.88,20.17s-.1-.16,0-.23a.18.18,0,0,1,.27,0c.08.08.12.09.21.06s.06-.05.07-.14,0-.24.14-.24.12,0,.21.1a.22.22,0,0,0,.32,0c.07-.12.06-.33.18-.47s.39-.32.42-.49a2.42,2.42,0,0,1,.1-.48c.07-.21.11-.33.23-.29s.14.11.17.19.07.06.17.07.29.06.24.2a.57.57,0,0,0-.06.48,1.51,1.51,0,0,0,.51.61c.12.1.32.26.22.47s-.22.34-.36.35-.41-.09-.35-.28a.62.62,0,0,0-.07-.56,2.69,2.69,0,0,0-.28-.31.27.27,0,0,0-.33-.09c-.16.09-.19.15-.12.37a.77.77,0,0,1,.06.5,2.42,2.42,0,0,1-.13.43,2.65,2.65,0,0,1-.23.39,2.25,2.25,0,0,0-.24.36c-.08.12-.13.28-.24.21s-.2-.26-.36-.3a.36.36,0,0,1-.28-.2,1,1,0,0,0-.21-.35A1.7,1.7,0,0,1,14.88,20.17Z"/><path class="cls-1" d="M.05,18.4a.2.2,0,0,0,.32.08c.14-.09.09-.19.33-.22s.32-.1.36-.26a1.18,1.18,0,0,0,.05-.31.34.34,0,0,1,.11-.29,2.15,2.15,0,0,0,.21-.2.45.45,0,0,1,.25-.09.61.61,0,0,0,.21-.06c.08,0,.25-.05.32.06s.06.19,0,.33-.08.27,0,.37.2.26.41.17a1.38,1.38,0,0,0,.48-.32c.11-.11.21-.18.31-.13s.19.26.08.36-.38.3-.42.33a.42.42,0,0,0-.13.47.55.55,0,0,0,.65.38.89.89,0,0,0,.56-.37,3.61,3.61,0,0,1,.42-.45.39.39,0,0,1,.45,0,.51.51,0,0,1,.17.34A.54.54,0,0,1,5,19c-.12.12-.29.26-.22.44a.24.24,0,0,0,.39.1,1.51,1.51,0,0,0,.33-.49,3.49,3.49,0,0,1,.18-.31c.09-.15.16-.22.22-.24a.21.21,0,0,1,.25.07c.05.08-.1.22,0,.35a2.17,2.17,0,0,1,.3.35c.11.19.16.21.3.24s.42.1.4.35.1.34-.16.57-.41.31-.41.43.08.23.21.2.24-.26.46-.13.4.07.44-.08a.7.7,0,0,0,0-.35c0-.15-.13-.43,0-.57a.59.59,0,0,0,.21-.42.81.81,0,0,0-.11-.33.24.24,0,0,1,0-.32c.1-.08.17-.1.33.08a3.89,3.89,0,0,0,.29.32c.09.1.26.32.12.53a1.23,1.23,0,0,0-.19.59c0,.19,0,.32.18.36s.25-.07.31-.19a1.46,1.46,0,0,0,.1-.39.68.68,0,0,1,.16-.42c.12-.14.2-.23.28-.18s.09.12,0,.29-.06.23,0,.25A.31.31,0,0,0,9.68,20c.08-.09.1-.13.2-.07s.09.18,0,.37a.66.66,0,0,0,0,.53.27.27,0,0,0,.26.21c.1,0,.2,0,.24-.22a3.26,3.26,0,0,1,.19-.69,5.09,5.09,0,0,1,.35-.49.24.24,0,0,1,.32,0c.1.06.15.17.06.36s-.31.38-.45.62a.57.57,0,0,0,0,.52c0,.18.19.15.27.13s.09-.15.14-.22a1.9,1.9,0,0,1,.28-.29,6.6,6.6,0,0,0,.63-.65,1.07,1.07,0,0,0,.17-.31c0-.13.05-.27.18-.3s.19.08.21.27a.59.59,0,0,0,.15.43c.11.12.17.29.36.32a.29.29,0,0,0,.35-.27,1.15,1.15,0,0,0-.17-.65c-.09-.19-.27-.39-.3-.46a.28.28,0,0,1,0-.35c.14-.19.18-.22.2-.41a1.63,1.63,0,0,0-.06-.7c-.07-.16-.17-.29-.36-.25a.25.25,0,0,0-.16.37c.06.13.26.42.2.55s-.23.2-.36.25-.25.08-.37.14a1.44,1.44,0,0,1-.53.21.21.21,0,0,1-.19-.19c0-.07,0-.16.18-.16A.39.39,0,0,0,12,18.3c0-.15,0-.25-.26-.31a.53.53,0,0,0-.5.09,3,3,0,0,1-.27.26.14.14,0,0,1-.18,0c-.06,0-.06-.11,0-.2a.38.38,0,0,0-.08-.33.42.42,0,0,0-.21-.16.31.31,0,0,0-.34.06,1.86,1.86,0,0,0-.35.51c-.05.13-.08.37-.23.35s-.15-.19-.11-.29a.9.9,0,0,0,.13-.55c-.06-.2-.13-.3-.36-.28s-.26.13-.39.06-.08-.29-.29-.28a1.18,1.18,0,0,1-.43-.05.37.37,0,0,0-.48.17,1,1,0,0,1-.19.34,1.7,1.7,0,0,1-.38.26.42.42,0,0,1-.35,0,1.93,1.93,0,0,1-.27-.31.22.22,0,0,0-.34-.08.63.63,0,0,1-.39.11.18.18,0,0,1-.14-.18.38.38,0,0,0-.15-.38c-.16-.1-.23-.11-.23-.27s.06-.41-.1-.52a.18.18,0,0,0-.28.1s-.2.33-.23.41-.15.11-.22.09-.07-.08-.12-.16a1.64,1.64,0,0,0-.17-.3c-.1-.11-.2-.25-.11-.33s.28-.16.24-.27A.79.79,0,0,0,4,15.61a.27.27,0,0,1,0-.22c0-.14.09-.34-.08-.4s-.21.08-.24.15-.16.34-.19.42-.17.25-.24.27a.16.16,0,0,1-.2,0,.73.73,0,0,1-.09-.23.19.19,0,0,0-.28-.07c-.11.05-.08.21-.11.33s-.1.2-.19.2-.19-.09-.23-.2-.19-.42-.24-.53-.13-.14-.21-.11a.24.24,0,0,0-.15.34c.09.2.19.45.19.45s.09.19,0,.3a.29.29,0,0,1-.33,0c-.1,0-.25-.09-.34,0s-.19.13-.19.29A.39.39,0,0,1,.68,17a1.39,1.39,0,0,1-.31.18c-.1.05-.46.17-.35.42s.15.25.14.4S0,18.29.05,18.4Z"/><path class="cls-1" d="M60.28,37s.09-.32.57-.3a6.41,6.41,0,0,0,.88.07c.21,0,.22-.21.1-.28s-.4-.17-.45-.26-.13-.28.07-.38a.46.46,0,0,1,.57.08c.17.17.21.27.38.31s.23-.08.2-.2a1.18,1.18,0,0,0-.21-.37c-.09-.14-.18-.34-.06-.48a.35.35,0,0,1,.44-.08,2.12,2.12,0,0,0,.45.25.27.27,0,0,0,.35-.16c.06-.15.15-.39.28-.42s.19,0,.36.1.31.1.44-.09a.8.8,0,0,1,.64-.43.67.67,0,0,1,.58.43c.07.2.1.3.2.31s.16,0,.24-.16.19-.46.5-.44.37.26.41.56c0,.13,0,.24,0,.39a1.28,1.28,0,0,1-.09.51.58.58,0,0,0-.11.41c0,.13.18.28.31.26s.19-.08.17-.22a1.15,1.15,0,0,1,0-.41.13.13,0,0,1,.21-.11c.09,0,.14.14.24.12s.11-.14,0-.25a.84.84,0,0,1-.15-.38c0-.13,0-.44.14-.57a.66.66,0,0,1,.63,0,.51.51,0,0,1,.22.41c0,.16,0,.4,0,.5s.24,0,.3-.17,0-.63.38-.69a1.27,1.27,0,0,1,.68.06.75.75,0,0,1,.37.33c.08.14.15.32.32.22s.36-.31.54-.29.38.23.59.16.28-.2.41,0,.15.29.3.27.49-.37.74-.06.31.37.53.4.5,0,.64.22a1.49,1.49,0,0,1,.34,1c-.06.45-.07,1-.49,1s-.37,0-.48,0-.23-.15-.36-.11a.42.42,0,0,1-.35-.11c-.11-.09-.16-.22-.26-.24a.25.25,0,0,0-.23.13c-.06.08-.12.19-.16.25s-.13.19-.16.25-.05.23-.23.22-.21-.17-.23-.23-.08-.3-.27-.34-.34,0-.38,0,0,.1,0,.23a1.45,1.45,0,0,1,.12.42c0,.14-.11.27-.21.18a2.51,2.51,0,0,1-.26-.31,2.23,2.23,0,0,0-.35-.33c-.13-.1-.21-.11-.28-.09a.19.19,0,0,0-.1.29c.09.14.34.21.24.45a.8.8,0,0,1-.27.38.25.25,0,0,1-.31,0c-.1-.09-.28-.31-.45-.23s-.63.25-.82.06a1.43,1.43,0,0,1-.26-.3.17.17,0,0,0-.2-.05.55.55,0,0,1-.42,0c-.11-.05-.13-.15-.19-.25a.18.18,0,0,0-.29-.06.76.76,0,0,1-.4.22.42.42,0,0,1-.28-.09.44.44,0,0,0-.18,0l-.55,0a.56.56,0,0,1-.34-.12c-.09-.08-.22-.21-.35-.2s-.16.09-.22.16a.4.4,0,0,1-.31.19.37.37,0,0,1-.28-.17c-.08-.11-.19-.32-.36-.24s-.23.17-.36.17a.26.26,0,0,1-.23-.13.35.35,0,0,0-.33-.15c-.16,0-.29.14-.46.12A.5.5,0,0,1,62.4,38a.55.55,0,0,0-.43-.12,2.9,2.9,0,0,1-.43.06,1.25,1.25,0,0,1-.48-.12c-.15-.07-.24-.2-.38-.27s-.32-.12-.38-.23A.56.56,0,0,1,60.28,37Z"/><path class="cls-1" d="M29.68,7.25c-.16,0-.1,0-.18-.09S29.29,7,29.2,7s-.13.14-.12.31-.06.2-.13.18-.09-.21-.22-.38S28.32,7,28.19,7a.25.25,0,0,0-.27.17c0,.11,0,.23-.09.26a.19.19,0,0,1-.18-.07A1.15,1.15,0,0,0,27.27,7a1.92,1.92,0,0,0-1-.32c-.15,0-.13.16-.1.24a.52.52,0,0,1,.06.19c0,.08,0,.16-.18.12s-.17-.16-.29-.3-.13-.24-.32-.2-.22.31-.22.44,0,.12,0,.36a1.75,1.75,0,0,0,.15.5c.05.16.09.29,0,.35s-.24-.1-.29-.2S25,8,24.84,7.8a1.51,1.51,0,0,1-.19-.52c0-.14-.12-.21-.24-.18s-.16.19-.15.32-.06.2-.14.2-.1-.07-.18-.17-.29-.12-.44-.13-.21-.08-.52-.14-.41.19-.39.38.24.36.35.48a.77.77,0,0,1,.19.45c0,.2.06.3-.06.35s-.17-.12-.28-.24a1.25,1.25,0,0,0-.27-.28A2.08,2.08,0,0,0,22,7.93a.31.31,0,0,0-.46.29.43.43,0,0,0,.2.37.16.16,0,0,1,0,.28c-.08,0-.16,0-.23.09s0,.35.1.49,0,.29-.09.31-.33-.21-.4-.45S21,9,20.83,9s-.11.13-.14.27-.14.12-.23.1-.07-.24-.18-.51-.38-.24-.56,0a.59.59,0,0,0-.09.58c0,.15.2.24.38.29s.2.08.2.16,0,.06-.17.15-.06.24-.07.43,0,.23-.18.22-.18-.23-.26-.38a1.62,1.62,0,0,0-.28-.46,4.3,4.3,0,0,0-.65-.55c-.2-.13-.3-.17-.4-.08s-.09.19,0,.43.05.19.09.37.2.19.39.28.21.19.3.32.09.22,0,.27-.08.2,0,.33.05.23,0,.27-.16-.07-.19-.15-.07-.1-.17-.13-.12-.09-.14-.28-.14-.25-.27-.14-.06.26,0,.39a.29.29,0,0,1-.11.34c-.12.08-.07.15-.16.27a.15.15,0,0,1-.26-.1,1.13,1.13,0,0,1,.13-.41.42.42,0,0,0-.05-.4.63.63,0,0,1-.06-.36,1.66,1.66,0,0,0,0-.46c0-.21-.12-.42-.42-.37s-.28.34-.25.47.09.23-.05.24-.13-.16-.3-.19-.26.08-.31.23a.45.45,0,0,0,.09.39.19.19,0,0,1,0,.29.43.43,0,0,1-.46,0c-.13-.09-.17-.37-.15-.65s-.2-.39-.35-.53-.41-.17-.45,0,.07.32.2.59a1.9,1.9,0,0,1,.15.63c0,.2.26.36.44.46s.24.13.24.32-.16.3-.24.26-.08-.16-.25-.41-.43-.22-.6-.25a.88.88,0,0,1-.54-.29c-.21-.2-.34-.14-.42-.06s-.11.18-.25.2a.37.37,0,0,1-.27-.11,4.54,4.54,0,0,0-.37-.4.4.4,0,0,0-.57,0c-.16.12-.12.34-.12.44a.37.37,0,0,1,0,.24c-.06.08-.23.06-.35,0s-.05-.33,0-.47a1.24,1.24,0,0,0,0-.67c-.07-.29-.28-.08-.42-.09s-.14-.08-.2-.19-.15-.17-.38-.15-.26-.05-.47-.09-.22.12-.25.21-.11.13-.26.13-.18.12-.27.21-.18.18-.33.07-.11-.21-.11-.38.05-.24-.24-.39-.57.07-.79.24-.18.25-.34.41-.25,0-.53,0a.82.82,0,0,0-.72.06.44.44,0,0,0-.21.57.36.36,0,0,0,.34.27c.24.08.58-.17.68-.25s.2-.12.3-.09.09.2,0,.26-.12.13-.28.34a.39.39,0,0,0,.16.54.56.56,0,0,0,.44,0,.23.23,0,0,1,.26.08l.31.31a1.24,1.24,0,0,0,.8.24,8,8,0,0,0,1.15.07.8.8,0,0,1,.63.21A1.11,1.11,0,0,0,12,13c.25,0,.29.16.45.31a.7.7,0,0,0,.5.18.77.77,0,0,1,.39.15c.17.1.15.15.37.18s.28-.09.28-.24a.24.24,0,0,0-.23-.22c-.11,0-.2,0-.25-.08s0-.19.15-.23.28.13.43.18.22,0,.32,0,.16,0,.19.11,0,.19-.15.33a.34.34,0,0,0-.05.43,1.75,1.75,0,0,0,.4.44.86.86,0,0,0,.46.19c.14,0,.19-.1.31-.23a.18.18,0,0,1,.28,0,1.27,1.27,0,0,0,.16.21.41.41,0,0,0,.33.12,1.08,1.08,0,0,0,.3-.08,3.63,3.63,0,0,0,.33-.22c.16-.1.21-.07.25,0s0,.15-.07.27a.66.66,0,0,1-.31.22c-.1,0-.17.08-.17.16a.19.19,0,0,0,.15.17l.64.15c.27.06.35.15.35.26s-.15.1-.24.18,0,.25.16.29.2,0,.34-.14.35,0,.4.17a.84.84,0,0,0,.18.29.25.25,0,0,0,.24.06s.1-.07.18-.15a.14.14,0,0,1,.21,0l.23.15a.29.29,0,0,0,.38-.06c.07-.07.17-.23.26-.33a.11.11,0,0,1,.19.08,2.8,2.8,0,0,0,0,.4.87.87,0,0,0,.2.5,2.8,2.8,0,0,0,.39.3.2.2,0,0,1,.11.23c0,.12-.21.13-.32.12s-.25,0-.31.07a.34.34,0,0,0,.06.37,3.47,3.47,0,0,0,.72.46,1.87,1.87,0,0,0,.8.07,2.32,2.32,0,0,0,.74-.25c.15-.06.18,0,.21.06a2.09,2.09,0,0,0,.13.38,1.5,1.5,0,0,0,.47.4,1.46,1.46,0,0,0,.49.12.6.6,0,0,0,.49-.17.21.21,0,0,1,.33.13c0,.14-.06.22-.1.3a.19.19,0,0,0,.15.27c.18.06.26,0,.46-.16a2.94,2.94,0,0,1,.57-.34c.18-.08.32-.15.51,0a1.27,1.27,0,0,0,.43.2c.16.05.28-.13.45-.39s0-.44,0-.6.05-.29.2-.27.16.2.16.29a.22.22,0,0,0,.14.22.21.21,0,0,0,.19-.05,2.16,2.16,0,0,0,.17-.19.45.45,0,0,1,.45,0,.36.36,0,0,1,.15.27.52.52,0,0,0,.16.34,1.44,1.44,0,0,0,.56.16,2,2,0,0,1,.5.07,2.14,2.14,0,0,1,.45.17c.08.06.17.1.22.2s.09.22.17.24a1,1,0,0,0,.4-.05c.28-.07.41.16.5.26a.31.31,0,0,0,.27.13.42.42,0,0,1,.33.19.37.37,0,0,1,.1.36c0,.21.09.26.18.36s.51.48.6.56a.17.17,0,0,0,.25,0,.16.16,0,0,0,0-.22.37.37,0,0,1-.13-.17c0-.08.07-.21.17-.21a.62.62,0,0,1,.32.14c.08.06.32.16.43.23s1.07.6,1.21.69a2.42,2.42,0,0,0,.82.38c.38.09.45-.08.67-.16a.22.22,0,0,1,.3.19,1.71,1.71,0,0,0,.06.39c.06.31.1.34.4.53s.54.23.75.35a1.43,1.43,0,0,0,.67.21,1.3,1.3,0,0,0,.69-.15,2,2,0,0,1,.68-.16,1.49,1.49,0,0,0,.62-.2,1.8,1.8,0,0,1,1-.08,1.37,1.37,0,0,0,.58-.1c.18,0,.24.14.42.27a2.75,2.75,0,0,0,.81.26,2.34,2.34,0,0,1,.58.18,2.55,2.55,0,0,0,1,.15,1,1,0,0,1,.69.22c.17.1.15.23.14.41s0,.21.11.34.38.09.58.07,1.42,0,1.83,0a1.67,1.67,0,0,1,1,.24c.2.14.31.22.58.44a.7.7,0,0,0,.58.17c.13,0,.49-.06.83-.05a.79.79,0,0,1,.52.14c.09.06.33.24.47.36a.9.9,0,0,0,.72.17,9.48,9.48,0,0,1,1.3.11l1.26.12a2.4,2.4,0,0,1,1.21.41,2.84,2.84,0,0,0,1,.44,10.86,10.86,0,0,1,1.22.38.83.83,0,0,0,.54.09.78.78,0,0,1,.53.11.73.73,0,0,0,.39.1c.18,0,1.93,0,2.12,0a1.66,1.66,0,0,0,.59-.09c.3-.17.37.09.62.16a.62.62,0,0,0,.41-.06,4.48,4.48,0,0,1,.76-.2c.29-.05.46-.06,1.06-.12a1.52,1.52,0,0,0,.91-.38A1.57,1.57,0,0,1,68.3,28a2.86,2.86,0,0,0,.86-.06,7.49,7.49,0,0,1,1.14,0,1.46,1.46,0,0,0,.71-.23,3.91,3.91,0,0,1,1-.14c.19,0,.86-.06,1.55-.1s.72,0,1.41,0,.83,0,1.32,0,.47,0,1.29,0,3.61,0,4,0a5.88,5.88,0,0,1,1.12.06c.38,0,.28,0,.75,0a6.13,6.13,0,0,1,1.22.15,4.82,4.82,0,0,0,1.27.13l.93,0a.8.8,0,0,1,.55.13.44.44,0,0,0,.27.09,3,3,0,0,0,.45,0,.79.79,0,0,1,.52.15.46.46,0,0,0,.31.06h.48a.55.55,0,0,1,.36.16.72.72,0,0,0,.36.13c.15,0,.71,0,.83,0a3.38,3.38,0,0,0,.54,0,.45.45,0,0,1,.4.1,1.23,1.23,0,0,0,.31.28,5.92,5.92,0,0,0,.86.14.93.93,0,0,1,.57.12,1.67,1.67,0,0,0,.52.21c.12,0,.81,0,1.16,0a3.74,3.74,0,0,0,.75,0,3.56,3.56,0,0,1,1.17.11,2,2,0,0,1,.67.28,1.06,1.06,0,0,0,.65.13.76.76,0,0,0,.51-.21.3.3,0,0,1,.21-.16.49.49,0,0,1,.33.19.74.74,0,0,0,.31.23,4.73,4.73,0,0,0,.52.07.43.43,0,0,0,.35-.09.39.39,0,0,1,.29-.14.27.27,0,0,1,.23.2.27.27,0,0,0,.2.2.22.22,0,0,0,.25-.08c.06-.08.1-.14.23-.12s.25.16.33.23a.9.9,0,0,0,.5.12.94.94,0,0,0,.64-.45.43.43,0,0,1,.4-.22.46.46,0,0,1,.41.27.41.41,0,0,0,.38.21c.18,0,.23.11.36.26a.36.36,0,0,0,.34.15c.13,0,.37-.27.51-.31s.22.07.42.26a.74.74,0,0,0,.61.16.42.42,0,0,0,.43-.34c.07-.19.06-.2.16-.24s.22.07.28.12l.3.26c.15.13.2.19.58.16s.3.11.62.12a9.06,9.06,0,0,0,1.07-.3c.32-.05.33.34.38.44s.12.21.26.21.28-.19.34-.26a.32.32,0,0,1,.27-.16c.14,0,.2.12.31.22s.14.11.32.12a.85.85,0,0,0,.35-.05c.18-.06.25.05.44.05s.21-.09.29-.2a.31.31,0,0,1,.36-.05.86.86,0,0,0,.37,0c.13,0,.09,0,.16,0a.64.64,0,0,0,.33.09c.26,0,.54-.23.68-.3s.28.05.38.14a.62.62,0,0,0,.45.21c.25,0,.31-.21.46-.26s.29.06.39.12a.81.81,0,0,0,.42.11c.19,0,.27-.19.31-.3s0-.29.14-.34.24,0,.37.06.14.1.34.11a.68.68,0,0,0,.48-.11c.12-.09.09-.42.07-.57s0-.23,0-.27a.18.18,0,0,1,.23.07,1.18,1.18,0,0,0,.26.34,3.66,3.66,0,0,0,.48.42.78.78,0,0,0,.18.13c.05,0,.15.06.22.07a.92.92,0,0,0,.47.08,1.54,1.54,0,0,0,.51,0,.23.23,0,0,0,.22-.26.23.23,0,0,1,.06-.23c.08-.08.21,0,.25.1s.16.29.23.4.06.18.22.16.17-.23.2-.3,0-.2.2-.2.16.16.23.29.08.17.19.18.24-.18.41-.26.25.05.37.17.8.08,1,.07.48.08.73.09a.77.77,0,0,1,.33,0,.28.28,0,0,0,.38-.22,1.77,1.77,0,0,0,0-.4c0-.17,0-.27.14-.29s.16,0,.21.07a3.74,3.74,0,0,0,.34.53.42.42,0,0,0,.38.14,2.58,2.58,0,0,0,.5-.16,1,1,0,0,1,.53,0,2.2,2.2,0,0,0,.44,0,1.36,1.36,0,0,0,.54-.28.34.34,0,0,1,.3,0,.27.27,0,0,0,.28-.11.72.72,0,0,0,.06-.39c0-.1,0-.27.15-.28s.24.19.29.34a1.56,1.56,0,0,1,.05.52c0,.15,0,.24.16.23s.15-.17.24-.27a3.37,3.37,0,0,0,.21-.34.84.84,0,0,0,.14-.41.17.17,0,0,1,.27-.08.44.44,0,0,1,.08.65.27.27,0,0,0,0,.31.49.49,0,0,0,.4.21l.94.14c.23,0,.52,0,.65,0s.08.13.41.13.36-.11.41-.22-.06-.29-.07-.38a.15.15,0,0,1,.14-.18c.11,0,.22.11.33.14a.46.46,0,0,0,.3,0c.13,0,.22.11.4.26s.34.12.64.1a8.52,8.52,0,0,1,1,0c.41,0,.48-.34.56-.5a.3.3,0,0,1,.35-.18c.18,0,.25.25.31.39s.17.32.3.31a.72.72,0,0,0,.43-.18c.14-.12.53,0,.76,0a.37.37,0,0,0,.44-.22.51.51,0,0,0-.06-.46.21.21,0,0,1,.08-.29c.11-.05.2.1.34.15s.19,0,.29-.05.16,0,.2.15.11.39.16.5a.37.37,0,0,0,.35.18c.15,0,.21.12.32.14a.45.45,0,0,0,.36-.15c.08-.1.19-.34.25-.41s.17,0,.19,0a3.82,3.82,0,0,0,.33.45.6.6,0,0,0,.49.18,1.1,1.1,0,0,0,.41-.16l.47-.36c.16-.15.3,0,.51.09a1.21,1.21,0,0,0,.8,0l.84-.23a1.1,1.1,0,0,1,.83.05,1.66,1.66,0,0,0,.68.1c.17,0,.19-.23.18-.35a1,1,0,0,1,0-.35c0-.16.11-.22.29-.23a.48.48,0,0,1,.36.17c.08.07.24.33.46.35s.26-.1.35-.23a1.54,1.54,0,0,1,.24-.35.21.21,0,0,1,.27,0,2.56,2.56,0,0,0,.22.16,1.24,1.24,0,0,0,.49.07c.13,0,.36.09.55.09a.6.6,0,0,0,.47-.19,4.26,4.26,0,0,0,.33-.4.26.26,0,0,1,.23-.06l.19.06a.25.25,0,0,0,.24,0,2,2,0,0,1,.2-.24c.08-.08.19,0,.26.08s.12.07.24.08.16-.07.42-.08.23-.12.41-.27.34-.07.61,0A.9.9,0,0,0,156,28a.33.33,0,0,0,.07-.27.38.38,0,0,1,.08-.29.33.33,0,0,1,.39,0,1.07,1.07,0,0,0,.49.25c.23,0,.22-.17.2-.26a.22.22,0,0,1,0-.22.19.19,0,0,1,.29,0,2,2,0,0,1,.38.25.85.85,0,0,0,.53.24c.23,0,.36-.17.38-.38s-.25-.3-.5-.46-.51-.4-.85-.65a3.4,3.4,0,0,0-.86-.45l-.9-.35a4.74,4.74,0,0,0-1.76-.28,3.74,3.74,0,0,1-1.6-.5,1.69,1.69,0,0,0-1.12-.18,1.22,1.22,0,0,1-.63-.06,1.74,1.74,0,0,0-.55,0,1.13,1.13,0,0,1-.56-.3c-.17-.13-.33-.08-.55-.09s-.32.07-.33.16,0,.06.1.2,0,.22-.09.24a1.4,1.4,0,0,1-.48-.09c-.2-.06-.21,0-.46.16a2.31,2.31,0,0,1-1,.17c-.42,0-1.07.05-1.44.06a5.2,5.2,0,0,1-1.08-.06c-.29-.05-.33.1-.41.18s-.13.19-.21.18-.07,0-.17-.18-.26,0-.3,0,0,.13-.12.14-.15-.05-.22-.13a.25.25,0,0,0-.29-.09c-.17,0-.32.31-.35.41s-.11.2-.19.17-.07-.16-.07-.27,0-.21-.06-.29-.23,0-.34.07a.14.14,0,0,1-.22-.05c0-.07,0-.27-.13-.33-.25-.15-.41,0-.65,0a.56.56,0,0,1-.5-.09,1.44,1.44,0,0,0-.56-.11.86.86,0,0,0-.52.26c-.06.06-.09.16-.18.14s-.07,0-.27-.25-.48-.12-.79-.06a2,2,0,0,1-.76,0,1.25,1.25,0,0,0-.65.09c-.2.08-.37-.08-.57-.16a1.37,1.37,0,0,0-.65-.08c-.24,0-.43.35-.46.46s-.09.2-.18.15-.07-.17-.13-.31a.47.47,0,0,0-.44-.33c-.29,0-.31.3-.41.38s-.2-.08-.22-.16a1.06,1.06,0,0,0-.18-.35,1.48,1.48,0,0,0-.68-.27,5.93,5.93,0,0,0-1.1-.12.82.82,0,0,0-.72.24c-.15.08-.21,0-.27-.09a.51.51,0,0,0-.44-.25c-.4,0-.54.46-.63.61s-.22,0-.22-.09a1.61,1.61,0,0,0,0-.44.52.52,0,0,0-.41-.33.8.8,0,0,0-.65.3c-.06.08-.14.15-.2.12s0-.1,0-.3a.65.65,0,0,0-.23-.48.76.76,0,0,0-.54-.2.71.71,0,0,0-.57.22l-.62.55a.25.25,0,0,1-.32,0c-.06-.06-.1-.12-.25-.27a6.3,6.3,0,0,1-.55-.46.49.49,0,0,0-.66-.07c-.15.08-.35,0-.55-.2s-.35,0-.59,0-.28-.06-.52-.2-.42.05-.63.1-.51-.11-.82-.3a2,2,0,0,0-.9-.41,3.18,3.18,0,0,1-1.08-.32,4,4,0,0,0-1.5-.08c-.32,0-.83-.22-1.06-.22a5.82,5.82,0,0,1-.85-.19,1.88,1.88,0,0,0-.77.07,7.13,7.13,0,0,1-1.46-.1c-.32,0-1.16,0-1.55-.08a3.84,3.84,0,0,0-1,0,3.76,3.76,0,0,1-1-.09c-.35-.07-.59.19-.75.24s-.18,0-.39-.12-.32-.18-.43-.14a.38.38,0,0,0-.22.28c0,.14-.1.22-.22.22s-.1-.08-.3-.27-.68-.19-.94-.2a.64.64,0,0,0-.47.18c-.12.1-.36,0-.56,0a1.2,1.2,0,0,0-.66,0c-.3.06-.42.15-.64.2s-.37-.06-.39-.17a.19.19,0,0,1,.1-.22c.09-.06.3-.13.32-.29s-.11-.19-.3-.26-.36-.25-.45-.28a.2.2,0,0,0-.22.09,6.38,6.38,0,0,1-.29.6,5.42,5.42,0,0,1-.43.6c-.09.14-.36.46-.44.58s-.17.19-.24.1,0-.3.09-.48a1.11,1.11,0,0,0-.14-.78c-.13-.2-.51-.42-.6-.53s0-.21,0-.3.31-.43.41-.54a.21.21,0,0,0-.06-.31.21.21,0,0,0-.24.09c0,.07-.22.23-.31.36s-.28.15-.48.15a1.05,1.05,0,0,0-.5.22c-.11.07-.28.11-.34,0s.06-.27.15-.36a3.82,3.82,0,0,1,.49-.34c.13-.07.19-.2.08-.31a.9.9,0,0,0-.57-.28.79.79,0,0,0-.65.41c0,.12-.09.17-.22.18s0-.06-.28-.22a.83.83,0,0,0-.71-.17.42.42,0,0,0-.41.48c0,.15.23.27.36.34a.21.21,0,0,1,.06.33c-.09.08-.3,0-.51-.12a1.62,1.62,0,0,0-.65-.14c-.18,0-.35-.06-.73-.1a1.87,1.87,0,0,0-.85.16,3.76,3.76,0,0,1-.76.1c-.35,0-.62.39-.74.47s-.28-.08-.28-.18a1.05,1.05,0,0,1,.13-.38c.08-.19-.06-.31-.2-.4a1.92,1.92,0,0,0-.43-.29,1.12,1.12,0,0,0-.73-.08,1,1,0,0,1-.53-.06.79.79,0,0,0-.43-.06.27.27,0,0,0-.28.26.15.15,0,0,1-.2.13c-.07,0-.11-.16-.17-.28a.46.46,0,0,0-.32-.23h-.59c-.29,0-.38.25-.51.44s-.38.15-.49.28,0,.35,0,.5-.09.27-.17.24-.1-.13-.12-.22a.74.74,0,0,0-.24-.39c-.16-.15-.47-.09-.66,0a1,1,0,0,1-.63,0,7.55,7.55,0,0,0-.81-.18c-.23,0-1-.09-1.16-.1a.47.47,0,0,0-.36.16c-.08.1-.16.14-.25.11s-.19-.22-.4-.39-.61-.13-.83-.14-.16-.08-.33-.16-.33.14-.38.29-.1.35-.13.45-.08.21-.17.22-.16-.1-.23-.21a1.64,1.64,0,0,0-.26-.54,1,1,0,0,0-.93-.33c-.29,0-.52,0-.87-.06s-.79,0-1,0a.39.39,0,0,1-.35-.18.63.63,0,0,1-.1-.28,1.83,1.83,0,0,0-.07-.26.23.23,0,0,0-.21-.14c-.1,0-.11.13-.1.2a1,1,0,0,1,0,.31c0,.16,0,.24-.11.27a.6.6,0,0,1-.33-.07.43.43,0,0,0-.34.06,3.33,3.33,0,0,0-.31.33,2.35,2.35,0,0,0-.18.44c0,.14-.23.17-.28.11s0-.28,0-.41a4.15,4.15,0,0,1,.18-.63.27.27,0,0,0-.14-.37.23.23,0,0,0-.27.09,5.11,5.11,0,0,0-.31.42,1.14,1.14,0,0,1-.54.5,1.48,1.48,0,0,1-.86,0,3.11,3.11,0,0,0-.86-.1,1.79,1.79,0,0,0-.65.28c-.16,0-.42,0-.57.1a.59.59,0,0,0-.17.47c0,.1,0,.18-.15.14s-.17-.19-.27-.31-.25-.09-.42-.09-.18-.11-.29-.24a1,1,0,0,0-.43-.26,4.88,4.88,0,0,1-.47-.26c-.16-.08-.25,0-.24.1a1.09,1.09,0,0,1,0,.26c0,.1-.06.12-.15.1s-.13-.19-.17-.32-.06-.11-.34-.37-.78-.12-.89-.11-.23-.08-.23-.17a.4.4,0,0,1,.22-.27.45.45,0,0,0,.25-.24c0-.12-.08-.2-.18-.18s-.15-.06-.2-.07-.12,0-.17.12-.33.32-.49.51-.32.29-.42.39-.2,0-.28,0-.12,0-.21,0-.14-.06-.14-.13.1-.12.1-.12l.35-.21c.23-.14.21-.42.21-.65a.42.42,0,0,0-.29-.39c-.14-.08-.13-.17-.16-.27a.63.63,0,0,0-.13-.24,3,3,0,0,0-.6-.56,1.94,1.94,0,0,0-1.26-.26c-.2,0-.2-.1-.22-.23a.61.61,0,0,0-.06-.28,3.92,3.92,0,0,0-.74-.68,1.62,1.62,0,0,0-.79-.24c-.24,0-.38-.21-.51-.36s-.19-.3-.07-.4.17,0,.34.17a1.47,1.47,0,0,0,.42.27,2.77,2.77,0,0,0,.56.19,1.1,1.1,0,0,1,.43.14,6,6,0,0,0,.61.45c.32.17.45,0,.45,0l.5-.6a.36.36,0,0,1,.53,0,2.73,2.73,0,0,1,.46.38.63.63,0,0,0,.5.21c.24,0,.34-.19.36-.42s-.36-.49-.51-.6a1.4,1.4,0,0,1-.36-.37.44.44,0,0,0-.34-.23c-.16,0-.25.21-.51.29a.55.55,0,0,1-.58-.12c-.18-.13-.32,0-.5-.18s-.17-.36-.21-.52a2.17,2.17,0,0,0-.12-.36c-.07-.17-.1-.12-.12-.38a.52.52,0,0,0-.3-.48c-.15,0-.27,0-.48.2a1.39,1.39,0,0,1-.57.24c-.11.05-.24.1-.33,0s0-.21.15-.35a4,4,0,0,0,.37-.45c.13-.17.05-.3-.22-.47s-.68-.5-.81-.58-.17-.23-.26-.37a.3.3,0,0,0-.33-.17c-.15,0-.39.32-.45.42a.29.29,0,0,1-.22.14c-.06,0,0-.06-.07-.21a.46.46,0,0,0-.19-.29.22.22,0,0,1-.14-.2c0-.09.13-.06.35-.08S61,9,61,8.83a.23.23,0,0,0-.19-.23c-.1,0-.28,0-.27-.17s.27-.17.41-.19a.33.33,0,0,0,.3-.19c.08-.14,0-.29-.09-.41s0-.22.12-.28.12-.11.31-.25.14-.33.16-.53a1.22,1.22,0,0,0-.25-.64.33.33,0,0,0-.34-.17c-.14,0-.23.25-.28.39s-.18.18-.29.08,0-.34,0-.47a.36.36,0,0,0-.21-.33.58.58,0,0,0-.47.12c-.09.07-.25.12-.31.07s0-.16.08-.32.08-.23,0-.28-.2,0-.27.16a1.38,1.38,0,0,0-.11.42c0,.1-.13.24-.24.13S59,5.34,59,5.1a.4.4,0,0,0-.18-.42c-.13-.11-.18,0-.31,0s-.13,0-.14-.14,0-.16-.12-.17-.19.08-.25.28-.33.27-.49.41-.13.45-.17.61a.17.17,0,0,1-.28.12c-.08-.1-.1-.2,0-.43a3.92,3.92,0,0,0,.07-.51A.58.58,0,0,0,57,4.31a.76.76,0,0,0-.7,0,.72.72,0,0,0-.32.5c0,.2.09.35.3.55s.21.27.21.35,0,.18-.22.16-.27-.13-.5-.31-.34-.25-.52-.23-.37.27-.46.41-.27.2-.63,0a.51.51,0,0,0-.69.17.23.23,0,0,1-.33,0s-.08-.12-.17-.23l-.18-.22a.26.26,0,0,0-.38-.06c-.11.07-.1.36-.13.47s-.06.15-.18.17-.14,0-.25-.16-.17-.1-.28-.18-.07-.22-.2-.36-.33,0-.47,0-.18-.19-.18-.27a2.63,2.63,0,0,0,0-.42,1.14,1.14,0,0,0-.28-.7c-.11-.12-.2-.18-.32-.15s-.1.24-.12.41a.49.49,0,0,1-.22.39,2.65,2.65,0,0,1-.72.19,6.47,6.47,0,0,0-.91.46,1.24,1.24,0,0,1-.57.14c-.22,0-.24.2-.24.32s0,.18-.05.23-.17,0-.3,0a.35.35,0,0,0-.4,0c-.14.12-.11.33-.11.49s0,.22,0,.34-.2,0-.28,0a.15.15,0,0,0-.21,0,.21.21,0,0,0,0,.24.31.31,0,0,1,0,.28.31.31,0,0,1-.33.13c-.13,0-.16-.13-.2-.3a.53.53,0,0,1,.08-.41.81.81,0,0,0,.09-.34c0-.11.08-.19.12-.3a.58.58,0,0,0-.18-.73.83.83,0,0,0-.66,0,1.18,1.18,0,0,1-.48.19,1.52,1.52,0,0,0-.49.25.4.4,0,0,1-.53-.14.28.28,0,0,1,.11-.43.6.6,0,0,0,.23-.1c.1-.06.2-.13.16-.42s-.46-.4-.61-.47S43,4.12,43,3.88s.19-.33.34-.4.17-.09.16-.26,0-.3.07-.34.16,0,.3.05.2,0,.21-.1a2.07,2.07,0,0,0,0-.43c0-.33-.28-.32-.38-.39s-.12-.18,0-.23a.56.56,0,0,1,.29,0c.1,0,.23,0,.27-.1s0-.13-.11-.24a.23.23,0,0,1,0-.29.22.22,0,0,0,0-.29c-.11-.14-.29,0-.35,0s-.12,0-.21,0a3.08,3.08,0,0,1-.34-.33C43.08.3,43,.28,42.88.42a1.06,1.06,0,0,0,0,.54c0,.22.08.22.06.41s-.16.25-.26.22-.12-.2-.12-.39a.31.31,0,0,0-.26-.3.26.26,0,0,1-.23-.13.93.93,0,0,1-.12-.43.3.3,0,0,0-.16-.3.41.41,0,0,0-.5.12,1.15,1.15,0,0,0,0,.66c0,.19-.12.29-.23.21a.93.93,0,0,1-.31-.45c-.13-.29-.22-.3-.4-.28a.33.33,0,0,0-.25.32.86.86,0,0,1,0,.32.14.14,0,0,1-.22.07A1.93,1.93,0,0,1,39.61.7a.35.35,0,0,0-.53-.1c-.16.15,0,.41,0,.59a2.69,2.69,0,0,1,.09.42,2,2,0,0,0,.1.49c.08.24.3.26.5.43a.33.33,0,0,1,0,.5c-.12.13-.29,0-.43-.08a2.78,2.78,0,0,0-.44-.2c-.25-.11-.26-.37-.33-.56a.28.28,0,0,0-.4-.18c-.19.08-.13.37-.14.49s0,.29-.2.24-.19-.26-.26-.49a.38.38,0,0,0-.39-.31.33.33,0,0,0-.35.3,1.15,1.15,0,0,0,.29.62c.11.15,0,.3-.13.34s-.21-.09-.3-.18-.36-.5-.51-.68-.07-.44-.09-.66a.27.27,0,0,0-.41-.2c-.14.09-.17.25-.23.42a.41.41,0,0,1-.3.27c-.14,0-.14.17-.17.24s-.05.16-.16.15-.18-.12-.24-.21-.2-.07-.27,0a.75.75,0,0,0-.28.3.35.35,0,0,0,.11.37c.06.07.3.22.42.32a7,7,0,0,1,.75.71c.25.29.41.44.56.65s.52.48.69.67.26.15.46.14a.27.27,0,0,1,.3.23c0,.11.08.27.11.39a.22.22,0,0,0,.31.17c.18-.06.11-.34.1-.49s.07-.21.11-.33a.44.44,0,0,0,0-.29C38,5.1,38,5,38,5s.14,0,.17.08a1.81,1.81,0,0,0,.25.25.84.84,0,0,0,.41.18l.42.14c.19.05.25.05.3-.1s-.1-.2-.18-.31-.11-.26,0-.34a.19.19,0,0,1,.26,0s.11.16.22,0,0-.39,0-.53.16-.18.31-.13.08.23.1.38a.18.18,0,0,0,.29.14c.11-.08.11-.21.13-.32s0-.33.16-.37.21,0,.29.15a.8.8,0,0,1,.11.47.64.64,0,0,0,.09.44c.1.19.28.21.38.28s.1.1.07.19-.17.11-.35.15A.73.73,0,0,0,41,6a.64.64,0,0,0,0,.51.82.82,0,0,1,.1.3.37.37,0,0,0,.09.2,5.58,5.58,0,0,0,.37.42c.1.08,0,.17,0,.26s0,.23.08.26a.16.16,0,0,0,.17,0s.1-.17.23-.17a.25.25,0,0,1,.24.18.46.46,0,0,1-.1.34c-.06.08-.13.21-.07.27s.13.09.29.07a.3.3,0,0,1,.28.07,1.68,1.68,0,0,0,.33.2.42.42,0,0,0,.42-.09L44,8.39a.23.23,0,0,1,.37.06.24.24,0,0,1-.07.31,7.7,7.7,0,0,1-.7.66.31.31,0,0,0-.07.36,5.37,5.37,0,0,0,.44.53.65.65,0,0,0,.27.14c.09,0,.17,0,.21.11a.29.29,0,0,1,0,.23c-.07.19-.18.3-.17.47s.22.29.35.29.32,0,.49,0a1.2,1.2,0,0,1,.95.51c.23.23.2.28.48.4a2.88,2.88,0,0,0,1,0c.26,0,.6,0,.82,0s.28.19.23.29-.35.15-.54.19a2.11,2.11,0,0,1-.72,0c-.12,0-.28-.23-.5-.07l-.83.62-.31.17h-.24l0-.26h-.12v.21l-.25-.07-.05.16.37.13c.08,0-.18.14-.25.16-.33.12-.87-.17-1.11-.26a.57.57,0,0,0-.65.17.84.84,0,0,0-.1.51c0,.2-.06.26-.18.25s-.21-.22-.3-.31-.33-.28-.53-.48-.28-.26-.48-.48a4.85,4.85,0,0,0-.62-.63c-.42-.35-.92-.09-1.15-.06a.44.44,0,0,1-.42-.15c-.13-.1-.45-.62-.69-.88s-.68-.12-.88-.13a.36.36,0,0,1-.37-.22,1.06,1.06,0,0,1-.07-.54.47.47,0,0,0-.15-.39l-.62-.64a.5.5,0,0,1-.18-.39.63.63,0,0,0-.16-.41.33.33,0,0,0-.28-.19c-.15,0-.21.22-.26.33a.19.19,0,0,1-.3,0c-.09-.07-.06-.17-.06-.5s-.26-.46-.49-.55a.33.33,0,0,0-.44.21c-.05.13-.1.17-.19.13s-.08-.14-.13-.4-.38-.42-.63-.47a.34.34,0,0,0-.41.19c-.06.11-.07.24-.12.25A.69.69,0,0,1,33,7.82a3,3,0,0,0-.54-.22A1.78,1.78,0,0,1,32,7.33a.76.76,0,0,0-.66-.14c-.26.08-.42.49-.48.64s-.12.15-.19.09,0-.22,0-.51a.49.49,0,0,0-.23-.47A.34.34,0,0,0,30,7C29.86,7.17,29.83,7.28,29.68,7.25Z"/></g></g></g></svg>