<svg xmlns="http://www.w3.org/2000/svg" viewBox="0 0 93.01 78.82"><defs><style>.cls-1{fill:#9cd2ef;fill-rule:evenodd;}</style></defs><g id="Layer_2" data-name="Layer 2"><g id="regije"><path id="imotski" class="cls-1" d="M93,72.11l-.5-.89c-.62-1.11-.94-3-1.54-4.25l-.85-1.63-1.24-3,.06-.18L88.39,61a4,4,0,0,1,0-.46.68.68,0,0,0-.22-.44l-.5-.84-.38-.63v-.38l-.44-2.58s-.2-1.4-.42-2.31A2.32,2.32,0,0,0,85,51.88c-.28-.11-.4-.68-.4-.68l.15-.34.39.08.4-.28.14.1a3,3,0,0,0,.43-.48,1.23,1.23,0,0,0,.17-.5l.34-.56,1-1,.39-.15.43-.89.11,0,.58-1,0-.24L90.36,44l.34-1.12s.07-1.05,0-1.25a4,4,0,0,1,.13-.9l-.06-.45.21-.58-.42-1.1a3.51,3.51,0,0,0,.27-.31,2.58,2.58,0,0,0,.11-.87l-.17-.52,0-.46-.43-.72-.1-.8L89.61,34l-1-.76-.06-.19-.76-.66v-.17l-.66-.55-1.67-.92-1.34-.94s-.86-.56-.92-.63a1.87,1.87,0,0,0-.51-.15c-.22-.07-1.2-.64-1.45-.76a5,5,0,0,1-.82-.52,1,1,0,0,0-.59-.24,1.7,1.7,0,0,1-.59-.27l-.39.25-.66.06a3.56,3.56,0,0,0-.8.21l-1.21-.27L74.93,27l-.81.53-1.3.07a.85.85,0,0,1-.45.13c-.25,0-.51.37-.51.37l-1.19,1.26-3-1.07-.93,0L66,27.93S64.8,25.6,64.68,25.5s-.13-.13-.14-.28a.18.18,0,0,0-.22-.19.29.29,0,0,1-.31-.15c-.09-.13-.39-.13-.69-.2a7.75,7.75,0,0,0-1-.06l-.18-.28.52-.1-.23-.17-1.35-1.94-3-1.54-.76-1.13-1.44-.53-1.34-1.12L54,17.34l-1.2-1.59L51.41,15,49.73,13.8a1.65,1.65,0,0,0,.6,0c.27-.08-.18-.27-.28-.43s-.13-.15-.51-.1-.28.24-.28.24a5.12,5.12,0,0,1-.57-.37.74.74,0,0,0-.52-.16.87.87,0,0,1-.35-.13,14,14,0,0,0-1.57-.37l-1.16-.59-.61-.67s-.79-.62-1-.83a4.84,4.84,0,0,0-.75-.48l-1.58-1-1-1-.35-.44s0-.32.07-.62-.3-.58-.3-.58L37.7,4.72,37.2,4l-.49-.12c-.23,0-.85-1.55-.85-1.55l-.61-.57L34.22,0c0,.47-1.14.76-1.14,1.23h-.47c0,.15-.47.47-.47.63-.47.15-.31,1.88-.3,2.35L33.43,9.4c-4.1,0-7.41-1.57-11.51-.31l-.15.31c-.48,0-1.58.16-1.74-.31h-1L18.3,10a1.6,1.6,0,0,1-.95-.79,6.7,6.7,0,0,0-3,.95c-1.42.78-7.25.31-7.88,1.73-2.52.31-4.25.62-5,3.3A6.62,6.62,0,0,1,0,17.61a9.74,9.74,0,0,0,1.3.91c.16.47.8.94.8,1.26,2.21.78,6.16,1.88,7.9,3.61,1.1,0,3.78.16,4.42.79-.32.47-.95.47-1.26.79,0,.78.49,4.71-.29,5v.31l-.32.16c0,2.2-.77,4.25-.76,6.45h3.79c.47.63.32,1.89.32,2.67a7.84,7.84,0,0,0,3.64,1.73v1.89A14.38,14.38,0,0,0,18,44.47h-.31v1.25a2,2,0,0,1,.79.48v2c-.31,0-.47.47-.47.63h-.31a18.47,18.47,0,0,1-.42,3.51.84.84,0,0,1,1-.08c.41.3.4.56.48,1a1.58,1.58,0,0,0,.39.92,6.54,6.54,0,0,0,1,1.18l.26-.21c.16,0,.32-.16.48-.16,0-.31-.16-.78-.17-1.1-.94-.47-1.11-2.83-.8-3.77.47,0,.63-.63.94-.63,0-.32.32-.63.31-.94l.16-.16a4,4,0,0,0,.79-.32c1.42,0,2.52-1.1,3.78-1.1l.16-.31c.94,0,1.73.2,2.35-.59.65,1,1.34,1.86,1.75,2.48,1.11,0,1.28,3,1.28,3.77.16,0,.32.16.47.16,0,.47.32.63.64.79,0,.31.63.94.79,1.1v.31l.32.16a.52.52,0,0,0,.16.31l.8,2.36h.79a6.06,6.06,0,0,0,2,1.42c0,.31.48.47.63.47,0,.31.48.63.64.63.32.94,2.53,3,3.17,3.61a2.53,2.53,0,0,1,1.26.63h1.11a8,8,0,0,1,1.89-.15c.15.15,1.9,1.73,2.37,1.73,0,.16.16.31.16.47,1.42.31,3.32,3.15,4.43,3.15,0,.31,0,1.72-.47,1.72,0,.79.49,2.68,1.43,2.68,0,.47.64.94.64,1.41,1.57-.47,6.31,1.42,7,2.68.16,0,.47.16.63.16.16.15.32.47.48.62h.31c.16,0,.48.16.63,0,.63,0,4.09-3.93,4.08-4.24A10.36,10.36,0,0,1,70.93,74c.16.47,1.26.79,1.26,1.26.48,0,.63.15.79.63h1.74A1.89,1.89,0,0,1,76,75.3C76,75,77.08,75,77.4,75a3.18,3.18,0,0,0,2.84,1c0-.16.62-1.26.78-1.26l0-.63h.59c.16-.16.31-.63.47-.63,0-1.26,1.72-2.67,1.72-3.77h1.89C86.84,72,90.64,72.11,93,72.11Z"/></g></g></svg>