<svg xmlns="http://www.w3.org/2000/svg" viewBox="0 0 38.83 83.83"><defs><style>.cls-1{fill:#c657a0;fill-rule:evenodd;}</style></defs><g id="Layer_2" data-name="Layer 2"><g id="regije"><path id="istocna_istra" class="cls-1" d="M33.12.31a12.16,12.16,0,0,1,.57,1.2l-.37,3.35a1.92,1.92,0,0,1-.15.58,3.12,3.12,0,0,0,0,1.24,7.24,7.24,0,0,0,.49,1.68c.28.51,1.36,4.31,1.54,5s.44,2.59.44,2.59l.32.37a10.12,10.12,0,0,0-.28,2.61,3.28,3.28,0,0,1,0,1.35s-.33,2.91-.33,3.34A26.09,26.09,0,0,1,34.87,27c-.19.65-.72,1.92-.72,1.92a3,3,0,0,1,1.16.42c.51.33,1.23.88,1.23.88a6.23,6.23,0,0,0,1.25,1.69,2.63,2.63,0,0,0,.64.32c0,.06.19.18.18.23s-.11.31,0,.44.09,0,.14.06c.19.23,0,.58-.2.83s-.58.59-.68.73,0,.3.19.39.13.23,0,.48,0,.44-.1.8-.53.48-.94.49-.4.41-.44.69a1.23,1.23,0,0,1-.38.77c-.21.17-.17.92-.25,1.22a1.25,1.25,0,0,1-.28.68c-.25.28-.28.45-.23.61s-.23.33-.37.34,0,.36-.11.44-.08,0-.18,0-.19-.16-.25-.18-.18,0-.23,0-.05-.18-.12-.26-.11,0-.16-.08,0-.22-.06-.27a1.2,1.2,0,0,0-.51-.2c-.13,0-.27-.36-.45-.44s-.24.06-.5-.12-.13-.31-.32-.74a2.17,2.17,0,0,0-.63-1c-.27-.24-.35-.29-.66-.54s-.45-.49-.84-.59a4.41,4.41,0,0,1-.78-.27c-.18-.09-.3-.06-.23.09s.13.09.3.16.19.12.33.18c.41.17.65.57,1,.89a1.92,1.92,0,0,1,.63.83,1.52,1.52,0,0,1,.06.91c0,.31.48.64.94,1a1.67,1.67,0,0,1,.71.92,1.47,1.47,0,0,1,.16,1c0,.06-.15.11-.16.18s.12.16.12.23a1.78,1.78,0,0,1-.17.73c-.11.4-.08.45-.25.63a1.7,1.7,0,0,0-.36.58,1.66,1.66,0,0,1-.23.41,3.77,3.77,0,0,0-.41,1.11c-.18.59-.49.77-.85,1.21a1.8,1.8,0,0,1-.56.52c-.17,0-.32.26-.36.4s-.19.14-.3.08-.1.14-.08.26a.82.82,0,0,1,0,.31s-.38.68-.5.88a9.91,9.91,0,0,1-1.17.89,3.28,3.28,0,0,0-.6.75c-.07.13-.16.19-.24.19a.39.39,0,0,1-.27-.24c0-.13-.14,0-.26.1s-.26-.11-.32-.24a4.19,4.19,0,0,1-.24-1c0-.25-.15-.11-.26,0s-.29-.08-.29-.08L25,50.34l-.18.12-.15.29a.38.38,0,0,1,.14.21,1.47,1.47,0,0,1,0,.42.61.61,0,0,0,.1.41,1,1,0,0,1,0,.55,1,1,0,0,0,0,.55c.06.22-.76.35-.87.35s-.23,0-.23.09,0,.1.18.12a.27.27,0,0,1,.24.14c.06.1.25.11.4.18a.84.84,0,0,0,.44.1c.18,0,.11.26,0,.38s0,.18.14.24.12.37.12.48,0,.3,0,.36.23,0,.32,0,.22.28.2.63-.16.42-.36.55-.28-.06-.36,0,0,.33,0,.48-.16.11-.08.21.54-.09.63.15.06.52.07.76.12.34.38.61a1.65,1.65,0,0,1,.29,1c0,.19-.07.37-.22.35s-.41-.47-.5-.63a5.25,5.25,0,0,0-.59-.74c-.27-.3-.07-.29-.36-.64a5.16,5.16,0,0,0-.73-.64c-.22-.19-.49-.28-.67-.55s-.33-.25-.44-.23-.2.16-.12.48.47.54.82.86a2.49,2.49,0,0,1,.58.93,6.76,6.76,0,0,0,.53.87c.24.39.42,1.25.57,1.51s.56.61.63.82,0,.43-.22.4-.37-.41-.6-.48-.1.27-.07.52a1.24,1.24,0,0,1,.05.47c0,.11-.21.16-.21.21s.1.13.24.2a.65.65,0,0,1,.24.46c0,.19.21.26.34.45a.42.42,0,0,1,0,.48.29.29,0,0,0,0,.32c.06.11.2.08.36.07s.37.18.43.53a1,1,0,0,1-.07.66c0,.07-.35.24-.32.33s.49,0,.59.06.13.27.16.57c0,.14.21.32.24.47s-.12.4-.12.56a1.75,1.75,0,0,1-.2.77c-.07.16.05.42.18.68a3.38,3.38,0,0,1,.28,1,1.32,1.32,0,0,0,.21.55,3.89,3.89,0,0,1,.05.78,3.28,3.28,0,0,1,0,.82c0,.2.17.61.17.93s-.16.58-.16.74a3.84,3.84,0,0,1-.28,1c-.14.26-.49.05-.66.15s-.07.54-.07.73a.6.6,0,0,1-.31.46c-.15.1-.7.6-1,.84a2.12,2.12,0,0,0-.45.85c-.14.29-.48.75-.66,1s-.36.67-.46.84-.34.51-.34.51a.59.59,0,0,1-.36.22c-.21,0-.41-.14-.61-.39a4.47,4.47,0,0,0-.47-.55c-.2-.2-.14-.43-.19-.68a.93.93,0,0,0-.19-.51c-.12-.14-.06-.28-.08-.48s0-.19-.1-.29-.21.09-.25.15a3.31,3.31,0,0,1-.33.4,1.23,1.23,0,0,1-.66.2,1.35,1.35,0,0,0-.69.39.67.67,0,0,1-.58.28.83.83,0,0,1-.56-.55,1.62,1.62,0,0,1,.11-.76c.07-.25-.27-.63-.52-.83s-.48,0-.64,0a1.08,1.08,0,0,1-.59-.15.73.73,0,0,0-.6,0c-.11.09-.47.34-.71.53a8.88,8.88,0,0,0-.66.68,2.32,2.32,0,0,1-.67.58c-.2.07-.39,0-.5,0a3.78,3.78,0,0,0-1,.47A7.27,7.27,0,0,0,11.4,81a1.13,1.13,0,0,0-.26.63,1,1,0,0,1-.31.59c-.23.28-.08.38-.17.75s-.5.44-.81.51a2.32,2.32,0,0,0-.78.24c-.24.14-.43.17-.52.08s-.08-.12,0-.23.55-.48.68-.62.11-.15.21-.49-.31-.45-.35-.61.1-.35.31-.7-.08-.5-.21-.84.49-.74.72-1.05a1.39,1.39,0,0,0,.31-.79c0-.28-.11-.31-.06-.56s.43-.41.67-.44a3.18,3.18,0,0,1,.65,0c.16,0,.53.06.77.06s.19.25.23.41.26,0,.31,0,.28-.18.61-.44a.75.75,0,0,1,.62-.24c.19,0,.19.36.18.45s-.12.25.07.3.21-.13.28-.25a1.94,1.94,0,0,1,.21-.34,1,1,0,0,0,.17-.46.72.72,0,0,0-.28-.53c-.13-.11-.23,0-.23.16a.17.17,0,0,1-.18.18c-.11,0-.28-.24-.42-.45s-.46,0-.58,0-.26-.13-.44-.58a2.44,2.44,0,0,1-.14-1.18,1.11,1.11,0,0,1,.06-.32c0-.1.09-.25,0-.32s-.17,0-.32.08a.73.73,0,0,1-.46.17c-.24,0-.32-.48-.4-.79A3.71,3.71,0,0,1,11.33,72a1.78,1.78,0,0,0-.26-1,2,2,0,0,1-.29-.62c0-.31.2-.61.4-1s-.08-.55-.17-.66-.22,0-.22,0a5.34,5.34,0,0,1-.64.74,1.86,1.86,0,0,1-1.29.4c-.39,0-.55-.38-.74-.48s-.58.1-.75,0-.47-.2-.43-.81a6.37,6.37,0,0,1,.84-2,1.33,1.33,0,0,0,.1-1,.88.88,0,0,0-.58-.73.58.58,0,0,1-.4-.48c-.1-.35.14-.71.19-1.16s-.17-.31-.55-.6a1.07,1.07,0,0,1-.44-.85A2.52,2.52,0,0,0,5.92,61a2.81,2.81,0,0,1,0-1.19c0-.39.06-1,.08-1.17s-.12-.13-.14-.07A8.93,8.93,0,0,0,6,55.4a2.24,2.24,0,0,0-1.15-1.14c0-.71-.86-2-.87-2.85-.42,0-1-.57-1.57-.57,0-.43.42-1.56.42-2.42l-.29-.28C2.3,48.14,2,48,1.72,48c0,0,.85-3.56.28-3.56.14,0,.28-.14.42-.14,0-.28.14-.71.14-1,.29,0,0-.14.29-.14l0-3.84c-1-1-.45-4,.69-4.7a23.13,23.13,0,0,1,.42-2.85c-.14-.29-.86-.72-1.15-1-.14,0-.28-.14-.57-.14l-.14-.29a1.41,1.41,0,0,1-1-.57H.79v-.14H.5l-.14-.14c-.08-3-.9-7,.24-9.55.71-1.7,3-3.27,3.41-5.12.14-.14.85-.71.85-.86a4.33,4.33,0,0,1,1.43-.28c0-.29.71-.71.86-.71a1.9,1.9,0,0,1,.56-1.57h.43c.28-.57.71-.71.71-1.42.28-.29,1.7-1.57,1.7-2.14.71-.29,1.14,0,1.86,0,0,.14.29.43.43.57A1.49,1.49,0,0,1,14,9h.43a8.78,8.78,0,0,1,1.28-2.56A13.08,13.08,0,0,1,15.82,3C17.1,3,19,2.28,20,2.28c0-.29.43-1,.86-1a.75.75,0,0,1,.28-.57l.14-.28c0-.15.29-.29.43-.29,0,.43.29.57.29.86.57,0,1.15,1,1.86,1,.29.29,2.71-.42,2.71-.85A2.12,2.12,0,0,0,27.8.57c1,0,2.29-.57,3.43-.57C31.68.51,33.24.68,33.12.31Z"/></g></g></svg>