<svg xmlns="http://www.w3.org/2000/svg" viewBox="0 0 89.04 130.33"><defs><style>.cls-1{fill:#9e76b4;fill-rule:evenodd;}</style></defs><g id="Layer_2" data-name="Layer 2"><g id="regije"><path id="istra" class="cls-1" d="M1.83,96.2a1.88,1.88,0,0,0,.86.38c.12,0,.39.15.33,0a1.55,1.55,0,0,0-.61-.39c-.2-.09-.2-.21-.5-.51a30,30,0,0,1,2.44-2.16c.9-.65,4.3-2.58,4.45-2.73s.57-.42.57-.57c2.5,0,2.72-2.71,4.45-3.09l0,0-.14-.14-.15-.29h-.43l-.14-.28h-.29l-.14-.29h-.14c-.72-.85-1.17-5-1.17-6.12-.14,0-.43-.71-.58-.86,0-.57.13-2.7.85-2.7a1.19,1.19,0,0,1,.42-.71v-.29l-.15-1.85c0-.43-.14-1-.15-1.42L11.29,72v-.42c-.43,0-1.15-.43-1.58-.43,0-2.14,1.13-3.56,1.12-5.7a3.39,3.39,0,0,0,.71-.71H12l.14.14v.29c.15,0,.29-.15.43-.15.14-.28.86-1,1.14-1V62c.57-.57,1.13-3,1.42-3.13a30.19,30.19,0,0,0-.74-5.13h-.28A4.71,4.71,0,0,0,11.77,52c-1.3-3,.69-5.41.68-8.4,1.14-.57,1.08-2,1.08-3.18a2.61,2.61,0,0,0,.48.05.3.3,0,0,1,.28-.29c0-.14.29-.57.43-.57a17.71,17.71,0,0,1,.13-2.85c0-.42-.15-1.14-.15-1.56A2.63,2.63,0,0,1,14,33.51c-.86,0-1.43.85-2.28.85,0-.71-.15-1.57.42-2.14h1.14c.42-1.86,1.41-3.57,1.83-5.13a3.23,3.23,0,0,0,.72-.57c0-1.57-.3-3,.83-4.13a3,3,0,0,1,2.1-3.08,5.44,5.44,0,0,1,0,.71s0,.47.52.28a4,4,0,0,1,2-.13c.65.14,3.83.95,3.83.95l.69.91s-.26.8,0,.77a1.38,1.38,0,0,0,.8-.24c.26-.19.85-.06,1.05,0s2.17.13,2.17.13l1.62.34L31.45,22,32.57,20l.8-.11s-.14-.81.19-.93a11.79,11.79,0,0,0,1.35-.86l.69-.81a1.18,1.18,0,0,1,.46-.66,1.45,1.45,0,0,1,1.08-.42l4.77,0s.43-.48.83-.32,1.19.48,1.19.48l0,.49,1.83.56a8.31,8.31,0,0,0,2.32-.95c.72-.56,1.32-.95,1.28-1.42a1.87,1.87,0,0,1,0-.81,3.31,3.31,0,0,0,.07-1c0-.26,0-.86.38-.89a2.46,2.46,0,0,0,1-.27,1.72,1.72,0,0,0,.45-.26L50,10s-.33-.5.09-.54.42-.36.14-.63a11.18,11.18,0,0,1-1-1.09,4.14,4.14,0,0,0-2-1.62c-1-.24-1.22-.31-1.3-.58s-.29-2-.29-2,1.28-1.91,1.36-1.91.84-.69,1.43-.13A4.17,4.17,0,0,0,50.53,2.7a6,6,0,0,0,2,.23c.25-.1.07-.35-.09-.59s-1-1.12-.5-1.58A2.45,2.45,0,0,1,53.52,0a9.37,9.37,0,0,1,1,.11l5.57,5.53.93.21.89.86.84.24,2,2.15a11.86,11.86,0,0,0,2.58.5c1.18,0,2.52.06,3.19,0a4.15,4.15,0,0,1,.81,0,9.25,9.25,0,0,0,.34,1.75,2.83,2.83,0,0,1,0,2.7A4.27,4.27,0,0,0,71,15.64l2,2.21.12,1.93,2.33,2.87L80.89,27A41.72,41.72,0,0,1,86,29c1.63.86,2.1,1.08,2.1,1.55s-1.07.94-1.07.94L85,32.73l-1.22,1.84.59,2.19,2.74,1.93.12,5.46A11.77,11.77,0,0,0,88.18,47c.61,1.14,1.21,2.45.63,2.3s-1.74-.6-2.15-.1a2.92,2.92,0,0,1-.92.76,1.08,1.08,0,0,0-.33.79,2.35,2.35,0,0,1-.71,1.34,6.61,6.61,0,0,0-.91,3A6.16,6.16,0,0,0,84,57.17a2.13,2.13,0,0,1,.2,1.42A4.72,4.72,0,0,0,84.26,61c.12.38-1.44.21-1.89-.31-1.14,0-2.43.57-3.43.57a2.07,2.07,0,0,1-1.28.57c0,.43-2.42,1.14-2.71.86-.71,0-1.29-1-1.86-1,0-.29-.29-.43-.29-.86-.14,0-.43.15-.43.29l-.14.28A.77.77,0,0,0,72,62c-.43,0-.86.72-.85,1-1,0-2.86.71-4.14.71a13.08,13.08,0,0,0-.13,3.42,8.78,8.78,0,0,0-1.28,2.56h-.42A1.53,1.53,0,0,0,64,69.12c-.14-.14-.43-.42-.43-.57-.71,0-1.14-.28-1.86,0,0,.57-1.42,1.86-1.7,2.14,0,.71-.43.85-.71,1.42h-.43a1.91,1.91,0,0,0-.56,1.57c-.15,0-.86.43-.86.71a4.2,4.2,0,0,0-1.42.29c0,.14-.72.71-.86.85-.42,1.85-2.7,3.42-3.4,5.13-1.15,2.56-.33,6.55-.25,9.54l.14.14h.29v.15h.29a1.45,1.45,0,0,0,1,.57l.14.28c.29,0,.43.14.57.14.29.29,1,.72,1.15,1a21.72,21.72,0,0,0-.41,2.85C53.53,96,53,99,54,100l0,3.85c-.29,0,0,.14-.29.14,0,.28-.14.71-.14,1-.14,0-.28.15-.42.15.57,0-.27,3.56-.27,3.56.28,0,.57.14.85.14l.29.29c0,.85-.42,2-.42,2.42.57,0,1.15.57,1.58.57,0,.85.86,2.13.87,2.85a2.24,2.24,0,0,1,1.14,1.13,9,9,0,0,1-.19,3.15c0,.06-.07.17-.21.51a4.82,4.82,0,0,0-.06,1.4c0,.48.09.68.08,1s-.15.31-.23.34-.53.18-.81.31a.5.5,0,0,0-.11.74c.16.23.21.32.21.45s0,.08.13.45a4.57,4.57,0,0,1,.2,1,1.28,1.28,0,0,0,.4.68.93.93,0,0,1,.21.55,3.19,3.19,0,0,1-.5,1.41,3.34,3.34,0,0,1-.83,1.08c-.22-.38-.55-1.07-.66-1.29-1,0-1.29-.57-2.15.28a6.32,6.32,0,0,1-.71-.14c0-.43-.14-.14-.15-.43h-.42a1.11,1.11,0,0,0-.58-.57v-.57a2.11,2.11,0,0,1-.29-.57h-.43a3.83,3.83,0,0,1-.58-2.56c0,.14-.14.28-.14.42s-.28.29-.43.29c0-1.14.57-2.14.56-3.28l-.14-.28-.15-.14c-1,0-1.42,1.28-2,1.28-.43.71-2.13,2.85-3.13,2.85,0,.42.15,1.14.15,1.56h.43a1.06,1.06,0,0,0,.57.57v1.43c-.29.28-.72.28-.86.71-.43,0-1-.14-1.14-.57-.43,0-.43-.14-.58-.57-.14,0-.28-.14-.43-.14,0-.43-.71-1-1-1.43-.14,0-.43-.14-.57-.14-.43-.43-1.15-.71-1.44-1.14h-.43c-.28-.29-1-.71-1.14-1.14H35.79A5.46,5.46,0,0,0,33.65,125a1,1,0,0,0-.71.57c-.71,0-2,1.85-2.42,2.28a1.73,1.73,0,0,0-1.42.71v.43l-.29.14v.29c-.57,1.42-4.86.85-6.14.85,0-.14-.29-.29-.43-.29a20.13,20.13,0,0,1-.88-5,1.63,1.63,0,0,1-.86-.43H18.23a10,10,0,0,0-.58-1.14,3.65,3.65,0,0,1-1.57-.43c.14-.28.57-.57.56-1,.15,0,.29-.15.57-.15,0-.85,3.42-3.7,4.13-4.41.42-.43,1.56-1.42,1.56-2.14.14,0,.57-.28.57-.57.7-1.85-2.45-5.55-2.75-7.4-.14,0-.43-.71-.71-.71,0-.15-.15-.29-.15-.43-1.14,0-4.14-.43-4.86-1.14a.79.79,0,0,1-.86-.57c-3.14,0-7.14-.43-10.28.28-.57,1.14-1.86.85-2.71.43-.29,0-.72-.57-1.15-.57,0-.29,0-1.14.28-1.14,0-1.43,2-3.28,1.27-4.84Z"/></g></g></svg>