<svg xmlns="http://www.w3.org/2000/svg" viewBox="0 0 67.14 66"><defs><style>.cls-1{fill:#81bc47;fill-rule:evenodd;}</style></defs><g id="Layer_2" data-name="Layer 2"><g id="regije"><path id="kalnik" class="cls-1" d="M66.37,35.93a.66.66,0,0,0-.07.3c0,2,.87,3.56.84,5.3S65,44.08,65,46.11a6.22,6.22,0,0,1-.75,2.31c-1,.93-.22,2.61-.88,3.9-.78,1.55-.88,3.76.23,4.9.46.48-.18,2.39-.22,3.08l-.28,2.1a8.7,8.7,0,0,0,.45,1.67c0,.91-1,1-1.22,1.55-.41.79-1.32-1.43-1.57-1.62a4.84,4.84,0,0,0-2.1-.31c-.65,0-2.46-.54-2.47.4,0,1.74-1.14,1.25-2.33,1-.76-.15-.7.65-1.46.64s-1-.6-1.81-.1c-.59.36-2.33.66-2.32-.24s.6-1.92-.52-1.93-1.54,1.72-2.17,2.33c-.9.06-2.41-1.41-3.2-1.82-1.37-.7,1.81-3.09-.54-3.12-.36,0-1,.31-1.53.31s0-.51.05-.69-.94-.66-1.15-.78c-.4-.18.22-.94-.46-.94-.84,0-1.3.39-1.86-.19-.37-.38,0-1.78-.43-2-.87-.43-.07-.88-.36-1.18s-1.18.13-1.52.13c-.61,0-1.91.81-1.71.21s.43-.64-.37-.65c-.64,0-.87-.13-1.26.44-.11.19-.81,1.43-1,1.42s0-1.17.09-1.36c.32-.6.06-1.1.06-1.82,0-1.4-.83-.19-1.55-.2-.94,0-2,.12-2.06,1.26s-2.13.92-2.14,2S23.05,58.75,21.83,59c-1.06.17-.68-2.82-.07-3.41.39-.38,0-1.75,0-2.28,0-2.52-3.4-2.58-5.06-3.63-.44-.27-.27-.13-.09-.3.38-.36-.12-1.83-.12-2a1.94,1.94,0,0,0-1.34-2.14c-.71-.35-.29-1-.66-1.37s-2.06,1.18-2.14,1.37-.92.82-.91.26c0-1-1.81-1-2.52-1.32-1.7-.86-2.16-3.25-3.52-3.95-.26-.11-2.94-.64-2.72-.14.15.3.48.65.18.94C2,41.87.59,39.8.63,39.27c0-.28-.26-.48-.63-.58,0-1.51,1.7.07.93-1.57a1.5,1.5,0,0,1,.12-.95,2.87,2.87,0,0,0-.46-2.54c-.45-.23.51-1.55.14-1.93-.64-.65.85-1.58.86-2.3,0-1.36-1-2-1-3.46,0-.42.25-1.74.7-1.73.84,0,1.63.32,2.13-.66a2.69,2.69,0,0,0,.18-2.42c-.13-1.41,1.57-.78,1.76-1.38s.13-.8.51-1.17,1.49-1.23.63-2.11c-.67-.69,0-1-.58-1.64-.87-.88.2-1.21.88-1.32s2.32-.16,2.81-.64c.66-.64-.36-1.26.52-1.81,1.07-.67,2.6-2.17,3.85-1.74,0,0,.1-2,1.26-1.38.42.19-.16,1-.16,1.24,0,.72.87.09.86.58,0,1.78,1.74,3.62,3.53,2.85l4.38-2c.45-.19,2.51-1.41,2.52-1.94,0-.23-.33-.46-.33-.8s-.1-1.14.05-1.29c.65-.64-1.49-1.76-.58-2.2.73-.34,1.11-.9,2.14-.89l4.18-.6a5.61,5.61,0,0,1,2.88.67c.49.26,1.86,1.16,1.87-.19,0-.95.08-.56-.44-1.1-.35-.35-.52-1.24-1-1.49C34.25.36,34.61.12,35,0c.91,1.13,3.24,2.08,4.6,2.64.11.34.68.45.79.9.91.11,2.38,1.35,3.06,1.35a4,4,0,0,0,1,1.36c0,1.12-.21,3.38.81,4.05a4.7,4.7,0,0,1-.1,2.14c-.46,0-.9.57-1.36.57,0,.9-.33,2-.32,3l-.23.11c0,.23-.11.68-.11,1,.91,0,1.81-.33,2.6-.33.11.33.68,1.12.68,1.46.34,0,.91.11,1.25.11,0,.23.45.57.45.91h.46c0-.12.22-.34.22-.34h.23c.11.34.34.79.68.9,0,.11.11.22.11.34,1.36,0,2.72.45,4.19.45,0,.22.56.79.79.9a.94.94,0,0,1,.79.23,1.62,1.62,0,0,1,1,.33v.79h.91l.24,3.61h.34a3.49,3.49,0,0,0,.56-.79,5.73,5.73,0,0,0,.23,1.46c.23.79,2.16,2.6,2.16,3.05.23.11.23.45.23.67h.34c.11.23.68.9.68,1,.34,0,.91.79,1.47.79.23.22.46.45.68.45,0,.45.8.79.8,1.35.11,0,.23.34.34.34,0,.22.11.33.12.56A.78.78,0,0,1,66.37,35.93Z"/></g></g></svg>