<svg xmlns="http://www.w3.org/2000/svg" viewBox="0 0 170.74 145.85"><defs><style>.cls-1{fill:#81bc47;fill-rule:evenodd;}</style></defs><g id="Layer_2" data-name="Layer 2"><g id="regije"><path id="karlovac" class="cls-1" d="M62.4,21.48a1.22,1.22,0,0,1,.74.15c.18.18,0,.73,0,.73a2.59,2.59,0,0,0,.11,1.35c.25.38.46.52.73.53a1.73,1.73,0,0,1,.87.11c.19.13.55.36.54.6s0,.59,0,.59A1.51,1.51,0,0,0,66,26.86a11.77,11.77,0,0,0,1.25.75,4.43,4.43,0,0,1,.64.38,7.5,7.5,0,0,0,1.23.78,3.06,3.06,0,0,1,1.5,1.08A9.94,9.94,0,0,0,71.3,31s.3.52.67.3a3.63,3.63,0,0,0,.69-.54A.59.59,0,0,1,73,30.6c.21,0,.33.15.32.31s0,.52.29.6.69.3.69.3.25.15.26.34a.63.63,0,0,0,.54.43c.21,0,.66,0,.65.46a.59.59,0,0,1-.54.63,1.87,1.87,0,0,0-1,.25c-.34.23-1.51.93-1.51.93a4.49,4.49,0,0,1-.85.44c-.24.05-1.31,1-1.34,1.43a2,2,0,0,1-.22.92c-.11.16-1,1.26-1,1.65a1.93,1.93,0,0,1-.2.85c-.08.13-.32.73-.61.67s-1-.32-1.45,0-1.26,1.07-1.68.88a9.43,9.43,0,0,1-.91-.46,1.54,1.54,0,0,0-.85-.28,2.43,2.43,0,0,1-1-.25,9.24,9.24,0,0,0-1.77-.55,4.14,4.14,0,0,1-1.39-.49,6.85,6.85,0,0,0-1-.46l-1.28-.62a1.75,1.75,0,0,0-1-.28c-.42.1-.69.1-.88.41a2.33,2.33,0,0,1-.77.73c-.16.08-.8.47-.8.47s-.28.13-1.08.43a4.24,4.24,0,0,0-1.48.83,1.24,1.24,0,0,0-.21.2l-.61.76-.58.73s-.28.36-.4.54A2.58,2.58,0,0,0,49,44a2.62,2.62,0,0,1-.3.46,7.54,7.54,0,0,0-.42.63,2.72,2.72,0,0,0-.27.61,3.78,3.78,0,0,0-.13.61c0,.21-.08.76-.1.94a.87.87,0,0,1-.14.39l-.14.15a1.93,1.93,0,0,1-.94.55,17.44,17.44,0,0,1-2.64-.08c-.47-.14-.57-.24-.88-.74a18.26,18.26,0,0,0-1-1.8c-.31-.37-.65,0-.86.25a1.69,1.69,0,0,0,0,1.23.59.59,0,0,1-.19.66A11.59,11.59,0,0,1,39.43,49a1.12,1.12,0,0,1-1.25,0c-.29-.18-.5,0-.81.07s-.58,0-1.07-.25a14.1,14.1,0,0,0-1.48-.64,7.5,7.5,0,0,1-1.19-1c-.33-.3-.25-.53-.33-1s-.28-.61-.61-1-.21-.34-.56-1.11-1.66-.83-2.08-.94a2.71,2.71,0,0,1-1.14-.72c-.28-.29-.52-.53-.8-.79a2.89,2.89,0,0,1-.64-.69,2.54,2.54,0,0,0-.67-.77,4.36,4.36,0,0,1-.83-1c-.33-.45-.93-.37-1.51-.46a5.55,5.55,0,0,1-1.61-.88c-.41-.24-.33-.71-.29-1.24s0-.63,0-1a3,3,0,0,1,.32-1.1c.11-.18.22-.26,0-.52s-.36,0-1,0-.85-.43-1.37-1-.91-.35-1.72-.41-.77-.61-.9-.9A1,1,0,0,0,17,31c-.52,0-.76.36-1.08.88a1.5,1.5,0,0,1-.9.74A7.59,7.59,0,0,0,15.27,35a1.59,1.59,0,0,1,1,.51v1c-.51,0-1,.39-1.55.39,0,.13.39.51.52.64a3.63,3.63,0,0,1-.51.78c-.39,0-.77.25-1,.25,0,.39-.51,1-.51,1.55-.13,0-.26.26-.26.39-.39,0-1.16,0-1.16-.52a2.64,2.64,0,0,1-1-1c-.13,0-.52-.13-.52-.39-.78,0-1.55.52-2.07.52-.12,1.16-1.4,3-2,4,0,.52-.51.9-.51,1.42,0,0-.25.26-.38.26,0,.64-1.42,1.8-1.8,2.31-.51,0-1.22.12-1.81.13,0,0,.39,1.68.91,1.68a3.71,3.71,0,0,1-1.41,2.7c0,.39.14,3-.37,3v.64c.39,0,.91.39,1.42.39.77-1.68,4.65,0,6,0,.13.26.38.39.52.64H8.9c0,.39.52.65.52,1,.78.39.27,2.32.15,2.84-.26.13-.64,1.29-1.16,1.29A.87.87,0,0,1,7.9,62c0,.52-1,.9-1,1.29a2.18,2.18,0,0,0-.91.51l0,3.1a5.26,5.26,0,0,1,.65,2.44c.26,0,0,.13.26.13,0,.13.13.26.13.39h.26c0,.26.78,1.16,1,1.16,0,.13.13.26.13.39l.26.13V72c-.38,0-1.55.13-1.55.52H6.91c0,.13-.13.38-.13.51-.39.13-.39.39-.52.52,0,.51-.81,2.8-.81,3.32s-2.19,4.42-2.19,4.42a.88.88,0,0,0,.78.93c.57,0,.56.72.56.72s.7.63,0,.95S0,86.26,0,86.26A29.29,29.29,0,0,1,3,90a6.56,6.56,0,0,0,1.92,2.49c.61.34.65.86.08.9a1.24,1.24,0,0,0-.86.42s-.71.42-.29.9a5.5,5.5,0,0,1,1.23,1.76,4.32,4.32,0,0,1-.82.51,1.54,1.54,0,0,1-1-.07l-1-.3S4.8,103.33,5,104s-1.1,2.32-1.1,2.32-.67,4.26-.78,5.11-.76,4,.45,5.61,1.54,2.2,1.63,2.73.33.52.33.52,3.11,2,3.33,2.8a6.1,6.1,0,0,0,.51,1.29l3.91,1.49A53.75,53.75,0,0,1,18.6,128,28.48,28.48,0,0,0,21,129.69c.47.24,4,2.26,4.48,2.63s1.44,1.07,2.26.71a9.54,9.54,0,0,0,1.33-.7s.37.82.71.42.38-.33.78-.09.95.42,1.05.83.49.85.64.21.57-2.13.57-2.13.07-.55.48-.58a1.56,1.56,0,0,0,1.13-.9,1.63,1.63,0,0,1,1.81-1c1.12.12,2,.3,2.14-.11s.75-.16,1.16-.87.66-1,1-1.07.53.82.53.82.47,1.13.94.89.71.42.74.89a1.22,1.22,0,0,0,.73,1.13,14.84,14.84,0,0,0,1.66.47s.68,0,.74.34.58.28.71.73a2.47,2.47,0,0,0,.63.89,2.65,2.65,0,0,1,.6,1.09c.09.54.35,1.6.35,1.6s.47.35,1.1.76c0-.61.53-2,.53-2.64.92-.3,2.44-1.83,3.67-1.83,0-.15.15-.31.15-.46A3.29,3.29,0,0,0,55,129.92a2.78,2.78,0,0,0,1.07-.76h.46c0-.15.76-.61,1.07-.61v-.62c-.31-.3-.31-.61-.77-.61,0-.46.3-1.22.3-1.53h.61c0-.15.31-.3.46-.3,0-.16.15-.46.15-.62.15,0,.31-.45.3-.61.31,0,.62-.15.62-.3h1.53c0,.15.46.46.62.46A7.31,7.31,0,0,0,62,126.1c.92,0,2.15.46,2.92.46a13.7,13.7,0,0,0,1.83-2.3h.46l.3-.15s.31-.31.31-.46c.15,0,.92-.76.92-1.07.61-.15,2.29-.92,2.45-1.38A3.48,3.48,0,0,0,73.64,120c.61-.31.75-2.14.9-2.91.31,0,.93.16,1.23.16v.3l.31.16c0,.15.31.76.62.76l.15-.31v2.76h.62c.77,1.22,3.07,1.84,1.86,4.13h-.16c0,2.6,2.46,1.38,3.7,3.06,1.07,0,5.22,1.23,3.85,3.06h-.16c0,1.53.79,3.22.79,4.75.31,0,.92.3.93.61.61,0,3.53,1.84,3.54,2.3a5.79,5.79,0,0,1,1.38,1.37,3.78,3.78,0,0,1,2.31,1.23c.31,0,.62.61.92.61,0,.15.31.46.31.61l.31.16v.3l.31.16v.45l.31.16c.77-.16,1.52-2,1.52-2.91.15,0,.31-.31.46-.46a1.81,1.81,0,0,0,1.53-1.22h.46c0-.31,1.07-.16,1.23-.16V139h.61c0,.15.61.46.62.77,1.38,0,3.68.76,4.91.3v-.15h.76c.16.15.77.46.77.61h2a.8.8,0,0,1,.3-.61V138.5a5.53,5.53,0,0,0,1.53-.3,6.56,6.56,0,0,0,.15-.77,3,3,0,0,0,.61-1.22c.46,0,.77.46,1.23.46,0,.15.77.61,1.08.61a4.15,4.15,0,0,0,1.54,2.6c.77,0,1.69.16,2.31.16,0,0,.76.46.77.76a4,4,0,0,1,1.69,1.07c.61,0,1.23.46,1.84.46l.16.16.15.15v.46c-.3.3-.91.92-1.37.92v1.37H125a21.22,21.22,0,0,1,1.84-1.83c1.68-.92,4.29.46,6,.46.16.3.31.3.47.61a16.42,16.42,0,0,0,2.61.61c.15.16.31.61.46.61s.46-.3.61-.45c0-.16,0-.62.15-.62,0-1.07.61-2.14.6-3.06.16-.15.44-.47.44-.47-.26,0-.29-.15-.28-.6a1.43,1.43,0,0,0,.74-.23,1.45,1.45,0,0,0,.49-.47s0-.14.19-.11.46.1.62,0a1.47,1.47,0,0,0,.42-.44c.09-.18.25-.67.25-.67l.47-.24.2-.18.41-.11a1.23,1.23,0,0,1,.12-.2,2.14,2.14,0,0,1,.39-.3l.66-.28,0-.13.28-.23c.11-.08.08-.27.06-.38s0-.15-.19-.26-.19-.65-.19-.65a2.36,2.36,0,0,1,.35-.27,2.14,2.14,0,0,1,.55-.25l0-.07-.2-.54a8.88,8.88,0,0,0-.8-.86l.31-1s.33-.31.48-.42a2.36,2.36,0,0,1,.92,0c.17,0,.15-.22.12-.29a.78.78,0,0,1,.15-.48c.09-.12,0-.38-.05-.54a3.09,3.09,0,0,1,0-.6,1,1,0,0,1,.2-.52l.53-.75s.23-.4.38-.46.34-.66.34-.66a4.94,4.94,0,0,1,.44-.69c.29-.38-.12-.9-.44-1.37l-.46-.43c-.09-.08-.08-.19-.11-.37s-.34-.37-.44-.38-.31-.46-.46-.62a2.89,2.89,0,0,1-.3-.79,1.57,1.57,0,0,1,.16-.17c.08-.07.1-.28.2-.43s.42-.64.42-.64a2.55,2.55,0,0,0-.54-.23.89.89,0,0,1-.54-.38.75.75,0,0,1-.11-.49.28.28,0,0,0-.13-.25,2.1,2.1,0,0,0,.2-.49,2.66,2.66,0,0,0,0-.75l-.54-.35a.89.89,0,0,1-.12-.38c0-.17-.09-.19-.29-.3s-.29-.64-.31-.93-.44-2.07-.44-2.07-.19-.23-.16-.4a6.18,6.18,0,0,0,.11-.61,1.38,1.38,0,0,1,.25-.48.61.61,0,0,0,.12-.34,1.69,1.69,0,0,1,.11-.34s.21-.28.39-.58.82-.45.82-.45l.41-.32a3.65,3.65,0,0,1-.08-1.07c.09-.18,0-.5-.08-.7s.16-.27.32-.35.15-.37.15-.37.34-.21.57-.33.47-1.11.47-1.11.79-.65,1-.81.3-.07.4,0,.36,0,.36,0c.27-.14.54-.24.81-.35.43-.18.3-.55.33-1.06s.75-.77,1.2-.83.06-.42-.14-.54-.31-.2-.31-.36.23-.17.52-.16a.61.61,0,0,0,.45-.23,1.2,1.2,0,0,1,.56-.19.5.5,0,0,1,.5.32c.06.18.21.25.47.25s.47.29.65.46.46.12.66-.35.26-.66.44-.64a.39.39,0,0,0,.4-.27,1,1,0,0,0-.25-.61,8.22,8.22,0,0,1-.52-.67,1.3,1.3,0,0,1-.08-.44.26.26,0,0,1,.28-.23c.16,0,.22,0,.26.12s.29.12.35-.13.26-.57.46-.62a1.24,1.24,0,0,0,.41-.31,13,13,0,0,1-1-1.82c-.39-.9-1.59-3.34-2.42-3.55a2.61,2.61,0,0,0-1.66,0c-.43.13-1.68-.35-1.74-1a3.47,3.47,0,0,0-.45-1.54c-.23-.33-.24-1.92-.73-2.3s-1.45-1.57-1.34-2.14a7.05,7.05,0,0,0,.28-1.49c0-.39.21-.49.54-.59s.88-1,1.08-1.48a2.54,2.54,0,0,0,.39-1.45c-.13-.37-.09-1.1-.45-1.44a.89.89,0,0,1-.12-1.26c.34-.36,1.68-1.54,1.68-1.54s.74-.52.58-1.18-.38-1.34-.38-1.34l-1.06-.31s-.46-.14-.46-.5a.9.9,0,0,0-.39-.84.93.93,0,0,1,0-1.19.91.91,0,0,0-.05-1.06,4,4,0,0,1-.51-2,1.75,1.75,0,0,0,.07-.66L145,68.29a2.49,2.49,0,0,1-.31-1.17c.07-.43-.43-.63-.83-.64s-1.19-.11-1-.51a1.78,1.78,0,0,0,.12-1.59,3.07,3.07,0,0,1-.22-1.33l.77-.32.31-1.39s1-.92.82-1.42-.39-1,0-1,1.14-.65,1.2,0,.64,1.9,1,2a.81.81,0,0,0,.9-.36.69.69,0,0,1,1-.12c.33.21,1.26-.21,1.66-.44a2.49,2.49,0,0,0,.74-.82s.65-.86,1.17-.58,1.57-.28,1.41-.65a5.54,5.54,0,0,1-.29-.9l-.42-1.43s.18-.83-.39-.77a1.6,1.6,0,0,1-1.32-.42c-.23-.26.6-.39.6-.39l.44-.19v-.43s1.36.11,1.4-.25-.08-1.63.35-1.85A17.57,17.57,0,0,0,156,49.81s.4-.53-.06-.8a11.23,11.23,0,0,1-1.05-.74l1.45-4.4s.7-.49.54-1a.64.64,0,0,1,.61-.86c.4,0,.81-1,.31-1.22s-1.08-.84-1.95-.49-1.47.61-1.9.41.05-.9.05-.9a26,26,0,0,0-.1-3c-.13-.54-.5-2.17-.2-2.66a3.05,3.05,0,0,0,.22-1.49l.07-.4a5.08,5.08,0,0,1,1.89.49c.32.33.62.37.73-.06s.22-1.62.78-1.62,1.13-.11,1.46.22.93-.15,1.13-.58a13.32,13.32,0,0,1,1-1.42,2.6,2.6,0,0,0,1,.51c.43,0,1.29.35,1.38.78s.48,1.64,1.14,1.64,1.86,0,1.89.56a5,5,0,0,0,1.39,2.67,1.89,1.89,0,0,1,.92.61c.33.37.89.91,1.22.74a2,2,0,0,0,.61-.55l-.82-1.34a1.69,1.69,0,0,1-.18-1.46c.34-.63,1-2,1-2a3,3,0,0,0,0-1.66,7.14,7.14,0,0,1-.44-1.89,5.94,5.94,0,0,0-.71-1.61l-1.85-2.81a2.27,2.27,0,0,0-1.59-.81,6,6,0,0,0-2.49.5c-.44.19-1,.55-1.43.31s-1.82-1.08-1.41-1.77,1.18-1.52.85-2a4.41,4.41,0,0,0-2.23-1.42,5.67,5.67,0,0,0-3,.16,7.29,7.29,0,0,0-3,2c-.84,1.15-.74,1.08-.75,1.58s-.78,1.15-.78,1.15l-.37,1a1,1,0,0,1-1,.09c-.46-.27-.69-.41-1.16.08s-.88,1.16-1.94,1-1.12-.34-1.12-.34v-.24c0-.22.38-.14.59-.13s.18-.24.18-.49-.38-.32-.61-.37-.12-.31-.07-.57.16-.27.32-.27.23-.27.23-.27,0-.15,0-.26a.3.3,0,0,1,.2-.25.41.41,0,0,0,.18-.37c0-.2-.21-.31-.35-.39a.49.49,0,0,1-.21-.34c0-.1,0-.15-.14-.15s-.19,0-.26.17S146,21,146,20.9s-.19-.11-.31-.11-.16.06-.27.3-.26.13-.29.05a.3.3,0,0,0-.37-.15c-.21,0-.18-.22-.19-.39s-.55-.33-.74-.42-.14-.64-.17-.85a.18.18,0,0,0-.32-.09c-.05.1-.21.13-.43.06s-.24-.66-.47-1.41-4.14-2.71-4.48-2.84a1.58,1.58,0,0,1-.51-.37c-.16-.14.48-.28.48-.28s.67-.25.5-.59-.16-.43.24-.46.57-.12.61-.46a.74.74,0,0,1,.67-.72c.4,0,.24-.69.24-.69a4.45,4.45,0,0,1,.18-1.46,49.64,49.64,0,0,0-.26-5.78,10,10,0,0,0-1.18,2c-.28.76-.48,1.19-.88,1.35s-1.31.78-1,1.28a4.89,4.89,0,0,0,.91,1.3c.4.31.16.7,0,1.1s-.65,1.49-.65,1.49a.79.79,0,0,1-.83-.11,1.78,1.78,0,0,1-.41-1.11,8.49,8.49,0,0,1,.15-1.35,1.19,1.19,0,0,0-.45-1.47c-.69-.44-2.89-2.23-2.89-2.23A10,10,0,0,1,131,4.89a1.35,1.35,0,0,0-1-.8c-.47,0-.24.49-.24.49s.09,1.06-.44.92-.87.29-1.33-.21-.81-1.14-1.15-.58a1.56,1.56,0,0,1-1.21.88c-.46,0-1.2.19-1.35-.41a1,1,0,0,0-.86-.91c-.52-.17-.92-.41-.88-.77s-.73-.51-.73-.51l-.95-1.07s-1.29.31-1.62,0-1.06-.35-1.52-.75-1-1.34-1.41-1.12-1.59-.21-1.7.15-.53.52-.27.89.09.7-.34.56a2.2,2.2,0,0,0-1.63.31c-.37.3-.84.63-.84,1.06s-.14.53-.64.69-1,.15-1.11.75a5.63,5.63,0,0,1-1,2.21c-.4.39-1.11,1-1.11,1s-3.15.61-3.45,1.07a2.58,2.58,0,0,1-.92.92c0,.15-.46.31-.61.31l-.15.3H101.4c0,.15-.61.15-.76.15,0,1.69-.45,3.22-.44,4.75.3,0,.61.76,1.07.76a3.23,3.23,0,0,0,.47.77c0,.31-.15.76-.15.92-.16,0-.62-.16-.77-.16-.31-.3-.31-.45-.62-.45a3.71,3.71,0,0,1-.31-1.23,4.7,4.7,0,0,1-.92-.92H98.2c-.46,1.07-2.45.61-3.53.61,0-.15-.46-.61-.46-.76H93.9c-.76.76-1.67,2.91-3.06,2.91,0,1.22,1.39,1.53,1.4,2.44l.15.16a.33.33,0,0,1,.31.3,6.56,6.56,0,0,1,1.23.92v.92c-.61,0-1.37,1.22-1.83,1.38,0,.15-.31.61-.46.61v.46A10,10,0,0,1,88.57,24c0-.15-.31-.46-.31-.46h-.61l-.31.31h-.46c0-.61-.16-1.53-.16-2.14-.77-.31-1.24-1.69-2.16-2.15,0-.46,0-.76.3-.91,0-.16-.15-.62-.15-.77a.52.52,0,0,1-.16-.31l-.15-.15h-.31V17l.31-.15c.3-.46.76-.77,1.07-1.22h1.38V15c-2,0-2.45,0-3.68-1.22H81.62l.16.46c-.31,0-.92.15-1.23.15A3.43,3.43,0,0,1,78.87,17c0,.61-.61,1.38-.6,2.14a12.3,12.3,0,0,1-1.22,1.38v.77c.15.15.62.61.77.61,0,1.83.47,3.52.48,5.35-.15,0-.3.16-.46.16,0,.15-.3.46-.3.46h-.46a14.13,14.13,0,0,1-.78-1.23,2.2,2.2,0,0,1-1.38-1.22H74c-.16-.31-.62-.77-.62-1.07-.77-.31-.93-1.53-.93-2.3a5.21,5.21,0,0,1-2.92-1.38c0-1.38.29-2.91-.17-4.13-.16,0-.47-.15-.47-.31-1.22,0-2.45.31-3.68.31-.15.15-.3.31-.3.46l-.16.15h-.3c0,.31-.15.46-.15.77.15.15.3.3.46.3a.53.53,0,0,0,.15.31v.3l-.3.31c-.31,0-.77.31-1.07.31a2.4,2.4,0,0,1-1.23,1.22Z"/></g></g></svg>