<svg xmlns="http://www.w3.org/2000/svg" viewBox="0 0 98.34 52.31"><defs><style>.cls-1{fill:#9cd2ef;fill-rule:evenodd;}</style></defs><g id="Layer_2" data-name="Layer 2"><g id="regije"><g id="kastela"><path class="cls-1" d="M7.67,47.65a.34.34,0,0,0,.41.06c.17-.12.51-.35.62-.45a.41.41,0,0,1,.6,0c.2.27.23.59.65.6a1.41,1.41,0,0,0,.84-.12A1.69,1.69,0,0,1,12,47.68c.46.13.48.18.61.19s.4.1.4.22,0,.13-.12.21-.47.29-.46.63a1.57,1.57,0,0,0,.38,1,1.18,1.18,0,0,0,.65.37c.24,0,.42-.08.48-.24s.18-.46.4-.47.35,0,.4-.21,0-.26-.15-.42a.83.83,0,0,1-.3-.65c0-.21.08-.42.41-.5a5.26,5.26,0,0,1,.59-.13c.16,0,.35,0,.37-.1s0-.17-.25-.17a1.24,1.24,0,0,1-.71-.14.73.73,0,0,1-.46-.75c0-.51,0-.62,0-.73a.52.52,0,0,0-.35-.54,1,1,0,0,0-.87,0,4.22,4.22,0,0,0-.5.31.29.29,0,0,1-.42,0c-.21-.2-.49-.41-.65-.39s-.43,0-.56.16-.06.39-.16.49l-.27.32c-.07.07-.11.28-.31.22s-.42-.26-.65-.25-.29,0-.39.12-.24.33-.48.21-.41-.39-.69-.2-.37.3-.41.41a1.83,1.83,0,0,0,0,.53A.86.86,0,0,0,7.67,47.65Z"/><path class="cls-1" d="M17.42,51.58a.41.41,0,0,1,.07-.48.76.76,0,0,1,.46-.28c.21,0,.34-.21.17-.35s-.32-.18-.33-.35.14-.31.36-.39a.7.7,0,0,1,.45,0,.37.37,0,0,0,.42-.14,1,1,0,0,0,.19-.59c0-.24-.05-.45.07-.59s.44-.24.54,0a1.25,1.25,0,0,1,.08.55c0,.1,0,.17.1.18s.11-.08.15-.21.1-.34.31-.3.33.16.45.12.11-.15-.05-.28-.4-.25-.57-.39a1.05,1.05,0,0,1-.39-.61,1.31,1.31,0,0,1,.15-.72,2.1,2.1,0,0,1,.44-.47,1.1,1.1,0,0,1,.71-.15,1.42,1.42,0,0,1,.51.19c.16.1.22.21.47.24s.4-.12.59.1.24.28.32.32.13,0,.14-.09,0-.33.1-.37a.48.48,0,0,1,.54.16c.13.21.19.3.28.35s.15,0,.15-.08a1,1,0,0,0,0-.24.55.55,0,0,1,0-.26c0-.07.12-.32-.14-.32a4,4,0,0,1-1-.11,2.38,2.38,0,0,1-1.06-.66.85.85,0,0,1,0-.82.74.74,0,0,1,.92-.17c.41.25.42.32.81.37a4.92,4.92,0,0,1,.63.06c.22.07.43.12.57,0s.25-.41.62-.38a4.73,4.73,0,0,0,.83,0c.29,0,.6,0,.7.12s.24.3.4.3.65,0,.81.24.15.51.41.79.54.42.6.61.07.38.12.47a1.17,1.17,0,0,1,.16.51.88.88,0,0,0,.13.63c.18.26.27.29.26.48s-.13.32-.37.38l-.51.13a.42.42,0,0,0-.33.46,5.6,5.6,0,0,1,0,1,.88.88,0,0,1-.71.73.79.79,0,0,1-.67-.21,4.23,4.23,0,0,1-.56-.59.44.44,0,0,0-.29-.22c-.14,0-.26,0-.36-.23s-.2-.47-.36-.5-.19,0-.19.14.07.26-.05.38-.15.16-.48.13-.52-.09-.65-.1-.35,0-.31.18.12.2.27.27.46.26.31.56a2.35,2.35,0,0,1-.48.57.89.89,0,0,1-.76.1c-.25-.12-.55-.24-.69-.3s-.38-.16-.51,0-.41.54-.47.61a.92.92,0,0,1-.67.31c-.35,0-.29,0-.4-.06a.61.61,0,0,0-.33,0,.37.37,0,0,1-.42-.12c-.16-.17-.24-.4-.53-.42s-.32,0-.41.09a.34.34,0,0,1-.47.16,1.67,1.67,0,0,0-.69-.19C17.74,51.77,17.5,51.72,17.42,51.58Z"/><path class="cls-1" d="M41.49,31.36s-.15,0,0-.16a1.47,1.47,0,0,1,.92-.22c.38,0,.8.09.95,0s.24-.31.41-.35a1.53,1.53,0,0,0,.61-.23,1.44,1.44,0,0,1,.93-.35,4.92,4.92,0,0,1,1.84.24,3.57,3.57,0,0,0,1,.39,7.54,7.54,0,0,1,.77.16,1.82,1.82,0,0,0,.75.13c.3,0,1.37-.11,1.81-.15a2.29,2.29,0,0,1,1.39.12,3.51,3.51,0,0,0,.93.42,2.67,2.67,0,0,1,.78.28c.24.16.56.23.86.39s.67.16,1,.61a1.83,1.83,0,0,0,.86.77,2.88,2.88,0,0,1,.67.25c.18.14.26.26.52.24s.92-.1,1.19.27a2.18,2.18,0,0,0,.89.85c.36.13.4.26.75.47s.49.47.87.58a2.48,2.48,0,0,0,1,.11.65.65,0,0,1,.53,0c.19.1.25.16.37.14s.17-.15.2-.23a.19.19,0,0,1,.33,0c.09.16.1.26.18.41a.3.3,0,0,0,.32.15.61.61,0,0,1,.54.07c.19.16.34.41.68.44a2.52,2.52,0,0,0,1-.19,1.75,1.75,0,0,1,.49-.17,2.42,2.42,0,0,1,.64-.17,1.47,1.47,0,0,1,.69.11c.26.12.3.17.31.29s-.11.22-.21.34a2.94,2.94,0,0,1-.67.46,4.91,4.91,0,0,1-.68.22,5,5,0,0,1-.82.07h-1a1.72,1.72,0,0,0-.6,0,2.59,2.59,0,0,1-.69,0H64.1a1.24,1.24,0,0,0-.54.07,2.45,2.45,0,0,1-.66.1,1.77,1.77,0,0,0-.57.08,2.63,2.63,0,0,1-.72.14c-.26,0-.59,0-.81,0a11.67,11.67,0,0,1-1.42,0,8.55,8.55,0,0,0-1.63-.13c-.52,0-1.56.09-1.8.08a3.44,3.44,0,0,1-1.26-.11,1.37,1.37,0,0,0-.77-.17c-.36,0-.42,0-.59-.14a1.14,1.14,0,0,0-.8-.46c-.46,0-.69-.11-1.13-.15a5.35,5.35,0,0,1-1.13-.2,3.25,3.25,0,0,0-.84-.25,1,1,0,0,1-.58-.14c-.16-.11-.15-.3-.33-.42s-.24-.09-.41-.27-.34-.36-.34-.36-.11-.12-.21,0,0,.24,0,.3,0,.17-.11.3a.42.42,0,0,0-.08.51c.08.19.11.45,0,.56a2.07,2.07,0,0,1-.61.31c-.14,0-.33.06-.42,0s-.08-.17-.27-.08a2.82,2.82,0,0,0-.44.22,1.11,1.11,0,0,1-.64.16.59.59,0,0,1-.35-.24c-.08-.11-.13-.18-.25-.16s-.14.15-.18.26a.67.67,0,0,1-.21.26,1.35,1.35,0,0,1-.64.25,1,1,0,0,1-.36,0c-.1,0-.25-.08-.32,0a.4.4,0,0,0,.06.49c.16.14.18.15.2.25s-.05.21-.26.16a1.65,1.65,0,0,1-.55-.38.25.25,0,0,1-.08-.27c0-.1,0-.27,0-.32s-.1,0-.14,0l-.19.26a.15.15,0,0,1-.17,0c-.1,0-.1-.12-.11-.19s0-.24-.17-.26-.3,0-.36-.1-.06-.21-.1-.27-.13-.14-.24-.07-.22.18-.31.24a.44.44,0,0,1-.44-.07c-.17-.11-.52-.28-.61-.33a2,2,0,0,0-.34-.12,1.33,1.33,0,0,1-.39-.24c-.07-.08-.16-.27-.25-.27s-.16.09-.17.18a.28.28,0,0,1-.31.26,1.42,1.42,0,0,1-.54-.11c-.15-.05-.3-.07-.55-.13a1.58,1.58,0,0,1-.77-.4.52.52,0,0,1-.08-.56c.11-.13.17-.21.13-.33a.49.49,0,0,0-.14-.2s-.07-.06-.16-.08a.74.74,0,0,1-.29-.12,1.23,1.23,0,0,1-.39-.47.45.45,0,0,1,.11-.45,1.15,1.15,0,0,1,.79-.17,3.89,3.89,0,0,0,.67.1,1.19,1.19,0,0,0,.63-.11,1.13,1.13,0,0,1,.79-.27,4.09,4.09,0,0,1,2,.5,1.91,1.91,0,0,1,.64.72c.09.17,0,.17.25.4a.81.81,0,0,0,.54.26c.19,0,.49,0,.61.07s.32.09.36,0,0-.15-.13-.2a1.54,1.54,0,0,0-.48-.11,1.24,1.24,0,0,1-.58-.21.29.29,0,0,1,.06-.45c.16-.12.45,0,.8.15a1.21,1.21,0,0,1,.42.23c.13.1.28.24.28.24a.19.19,0,0,0,.12,0s.09-.07.1-.2.08-.17.3-.17a1.72,1.72,0,0,1,.71.17l.44.2c.13.05.21.07.27,0a.21.21,0,0,0,.13-.13.42.42,0,0,1,.12-.25c.07-.07.37-.24.47-.46a1,1,0,0,0-.14-.89,2.39,2.39,0,0,1-.23-.49.29.29,0,0,1,0-.22c0-.08,0-.27-.09-.31s-.22,0-.26-.12a.14.14,0,0,1,.14-.2c.13,0,.35,0,.4-.12s0-.22-.16-.32l-.6-.4c-.12-.09-.37-.27-.43-.3s-.21.05-.4,0L43,31.6l-.19.18-.26-.1,0,.3-.12,0-.13-.64-.43,0A2.07,2.07,0,0,1,41.49,31.36Z"/><path class="cls-1" d="M98.34,22.74c-2.17.65-4.73.76-6.74,1.36a15,15,0,0,1-2.37.32A2.17,2.17,0,0,1,88,23.63c-.16-.31.31-1.1.31-1.41.47-.16.62-1.26.62-1.73l.94-.63.63-1.58-1.74-.78-.81-4.4-10.1-1.42-4.39,4.87L66,15.29l.14-5.5L66,9.47c0,.32-5,.16-5.36.16l0,4.72c-.79,0-3,0-3.47-.47a17.65,17.65,0,0,1-6.63-1.58v.47c-.16,0-.16.16-.16.32-.94,0-2.34,4.87-3,5.66-.31.47-2,2-2.83,1.57v-.16c-.32-.15-.63.16-.79-.31C43,19.69,41.11,18,40.48,18c-.16-.31-.64-.79-.64-1.1-.15,0-.31-.16-.47-.16a3.08,3.08,0,0,0-1.9-2,14.42,14.42,0,0,0-.8-2.83c-.64-1.73,0-3,0-4.88L37,6.8l.16-.16c-2.21,0-4.11-1.26-6-1.26-.95-.94-2.36.16-3.31-.63L24.48,2.23A13.62,13.62,0,0,0,22.9,1C21.8.5,21.92.8,20.53.3L18.87,0l-.58.64-.58.64-.79,1.57L16.4,6.08,16,6,12.85,4.49l-1.18.42a5.85,5.85,0,0,0-1.13,1.36c-.42.74-1,.57-1.77.75s-.9.4-.9.4l-.28.73-1,1.37-.46.83,1,2.41a4,4,0,0,0,.22.9,5.56,5.56,0,0,1,.27,1.25,1.55,1.55,0,0,0,.26.61l.25.56.81,1.68.79.48.84,0,.21.57a.92.92,0,0,1,0,.62,1.9,1.9,0,0,0,0,.9,6.31,6.31,0,0,1,.18,1,1.57,1.57,0,0,0,.31,1.11,2,2,0,0,0,1.59.39,12.41,12.41,0,0,1,1.27,0l.21,1.68-.68-.19c-.34-.1-.82.25-.82.25l-.27.86,0,.46s-.91-.09-1.49-.22a1.88,1.88,0,0,1-1-.52c-.25-.23-.45-.46-.45-.46A2.12,2.12,0,0,1,9,24.26c-.35-.28-.72.16-.72.16l-.31.8s-.38.05-1,.1a10.41,10.41,0,0,1-2-.24l-.52,1.46.21.07a5.74,5.74,0,0,1,.71.56,5.11,5.11,0,0,0,1.51.7,6.9,6.9,0,0,1,1.54.92,12.88,12.88,0,0,0,2,.89l-.21.59a2.66,2.66,0,0,1-.34.7c-.14.14-.34.24-.59.45a1.47,1.47,0,0,1-.82.26c-.28.05-.42.18-1.07.57s-1.91-.09-2.26-.17a4.34,4.34,0,0,0-.82-.1l-.63.43-1-.24a3.51,3.51,0,0,0-1.78.06A1.08,1.08,0,0,0,0,33l.17.44q.09,0,.18.09c.1.13.12.34.28.33s.24-.21.31-.05,0,.27.12.37.19.23.09.33a.74.74,0,0,0-.28.63,2.3,2.3,0,0,0,.23.66c0,.13.19.41,0,.55s-.45.35-.5.39A.42.42,0,0,0,.44,37a2.88,2.88,0,0,0,0,.5s.06.21.21.14A.91.91,0,0,0,1,37.41c.09-.08.13-.14.26,0s.26.27.4.17,0-.3,0-.43a.89.89,0,0,1,0-.71.84.84,0,0,1,.83-.51,1.49,1.49,0,0,1,.91.33c.18.14.28.26.45.26s.43-.1.58,0a.66.66,0,0,0,.46.18,1.43,1.43,0,0,0,.47-.1c.08,0,.29-.14.39.05a.29.29,0,0,1-.06.38,1.83,1.83,0,0,0-.47.66,7.45,7.45,0,0,0-.27.9.89.89,0,0,1-.22.46c-.11.11-.27.12-.27.27s.11.22.24.29.19.23.46.08.18-.48.44-.58a4.7,4.7,0,0,0,.46-.2.58.58,0,0,1,.83.25c.31.46.67,1,1,1a1.19,1.19,0,0,0,1-.14c.29-.24.27-.28.28-.47s-.16-.37.06-.46.65-.24.72-.47a.76.76,0,0,0,0-.51c0-.17-.06-.31,0-.38s.18,0,.25.12.26.64.63.76a1.46,1.46,0,0,0,1,0c.16-.13.34-.38.52-.33s.12.22,0,.35-.3.38-.35.49a.3.3,0,0,0,.14.33.22.22,0,0,0,.28-.06c0-.06.09-.15.21,0a.3.3,0,0,0,.4.07c.1-.08.29-.17.29,0s0,.52.18.66.52.13.73.39.22.28.58.3a1.25,1.25,0,0,0,.59,0,.52.52,0,0,1,.51,0,.45.45,0,0,0,.48,0A.38.38,0,0,1,17,41a.89.89,0,0,0,.6.32,3,3,0,0,0,1.16,0,.49.49,0,0,0,.26-.34.18.18,0,0,1,.32,0c.13.16.12.23.42.17a.7.7,0,0,0,.48-.31c0-.08,0-.18-.08-.2s-.22,0-.23-.13.08-.18.31-.22a.9.9,0,0,0,.56-.19c.16-.14.42-.12.5-.36s0-.43-.29-.47-.47,0-.63-.13-.15-.11-.4-.24a3.73,3.73,0,0,1-.47-.32c-.07,0-.15,0-.27-.12s-.28-.13-.33-.25-.13-.11-.24-.07-.13.11-.23.08-.1-.06-.12-.16a.65.65,0,0,0-.1-.27c-.09-.15-.19-.13-.23-.22s-.19-.36.06-.49.38-.21.79.14a3.75,3.75,0,0,1,.86.81c.24.35.42.55.66.52s.21-.17.29-.27.27-.27.39-.07.14.34.35.28.32,0,.35.11.11.33.34.27a5.71,5.71,0,0,1,1-.08,1.71,1.71,0,0,0,.89-.26c.16-.08.14-.42.43-.29s.22.26.41.26a7.52,7.52,0,0,1,1.1-.06,1.67,1.67,0,0,0,.89-.07c.06-.07,0-.08-.14-.12S26.47,38,26.5,38s.11-.14.35-.05a.92.92,0,0,0,.68.05,1.21,1.21,0,0,1,.64-.2,1.55,1.55,0,0,0,1.11-.25c.35-.32.48-.25.49-.49s-.19-.48-.05-.52.41-.06.45-.3-.06-.41-.24-.43-.25,0-.26-.16.09-.16.22-.21.1-.21.07-.33-.16-.12-.22-.15-.22-.06-.19-.19a.66.66,0,0,0-.05-.47c-.11-.16-.24-.21-.54-.16A6.4,6.4,0,0,1,28,34c-.06,0-.37-.14-.59-.17s-.3,0-.4-.06,0-.27-.26-.23a.64.64,0,0,0-.36.2s-.15.1-.24,0-.05-.17.06-.22a.18.18,0,0,0,.09-.26.32.32,0,0,0-.27-.1.74.74,0,0,1-.38-.25c-.1-.12-.17-.23-.58-.19s-.88,0-1,.08a.51.51,0,0,1-.46,0c-.28-.13-.3-.09-.37-.09a.48.48,0,0,1-.33-.11c-.11-.1-.2-.2-.35-.2s-.36.06-.53-.12-.11-.35-.18-.53a.42.42,0,0,0-.49-.32c-.3,0-.28.24-.76.23a5.34,5.34,0,0,1-1.35-.28c-.32-.11-.49-.11-.65-.19a6.56,6.56,0,0,1-.73-.38s-.1-.06,0-.13a1.68,1.68,0,0,1,.85.23c.11.1.3-.06.33-.31s0-.31,0-.4a.5.5,0,0,1,.15-.34c.11-.1.32-.19.64.07s1,.47,1.24.24.18-.38.25-.52.14-.45.33-.44a1.11,1.11,0,0,1,.5.28,1.46,1.46,0,0,0,.75.32,1.61,1.61,0,0,0,.46,0,.31.31,0,0,1,.41.14c.11.2.39.63.72.57s.53,0,.75-.09,1-.3,1.29.08.32.59.53.68.38-.1.57-.21a3.68,3.68,0,0,1,.79.07,2.34,2.34,0,0,0,.95,0,1.59,1.59,0,0,1,1.19,0c.47.24.28.25.6.34.08,0,.3,0,.35,0s0,.31-.14.36-.54.15-.54.44.27.4.53.34.24-.23.49-.18a1.16,1.16,0,0,0,.65,0,1.71,1.71,0,0,1,.58-.22.7.7,0,0,0,.46-.23c.12-.13.38-.39,1.23-.21s1.2.13,1.51-.17,1-1,1.17-1.16a.54.54,0,0,1,.38-.14.61.61,0,0,0,.37-.17.88.88,0,0,1,.7-.16,2.2,2.2,0,0,1,1,.26c.24.2.21.27.35.28s.21-.22.43-.09a.58.58,0,0,0,.54,0,.88.88,0,0,1,.72,0c.3.15.27.16.51.11.07,0,.21,0,.29,0a.46.46,0,0,0,.35.18,1.36,1.36,0,0,0,.63-.27c.15-.1.3-.27.43-.37a7.71,7.71,0,0,1,1-.59A2.63,2.63,0,0,0,46,29a1.62,1.62,0,0,1,.49-.35,3.8,3.8,0,0,0,.74-.42c.07-.06.11-.17.27-.24s.15.09.25.07.06-.12.12-.16.19,0,.25,0,.12-.11.22-.11,0,.2,0,.2.17-.12.27-.15a1.16,1.16,0,0,1,.55,0c.15,0,.14.15.3.18s.26,0,.35,0,.11.11.15.16.1.19.33.08a2.46,2.46,0,0,1,.77-.3l.3,0,.14-.14-.05.52.12,0,.07-.64.87-.16a1.27,1.27,0,0,1,.1-.43c.08-.09.19-.17.21-.27a.48.48,0,0,1,.17-.27.21.21,0,0,1,.16-.06v.14l.2-.05v-.25l.27-.29a3,3,0,0,1,.11-.67l.33-.51s.24-.33.33-.36.51-.14.51-.14l.4-.22.12.25.11-.05-.11-.24.15,0,.83-.22c.16-.09.42-.47.7-.64l.5-.33.1.12h.12v-.14s.42-.51.78-.5h.93l-.47.37.13.12.48-.37a2.53,2.53,0,0,1,.47-.49,1.14,1.14,0,0,1,.42-.06l.13.17h.14l.18-.31s.26-.27.37-.27l.92,0-.19.2.11.08.31-.25.56-.06v.16h.09l0-.19.46.11.05.1.29,0,0,.35h.13l0-.38a2.5,2.5,0,0,1,.42,0,2.45,2.45,0,0,1,.58.16,2.25,2.25,0,0,0,.7.14s.48,0,.56.12a.4.4,0,0,0,.44.21,3.52,3.52,0,0,1,.74-.1c.15,0,.49.06.54.08s.57,0,.57,0a.7.7,0,0,1,.2.08c.1.06.2.12.32,0s.12-.11.21-.11a3.32,3.32,0,0,1,.41.07l-.06.18.7-.05.76.2a5.64,5.64,0,0,1,1,.29l.33.22,0,.23h.14v-.26l.22-.12s.18.16.24.11.06-.15.18-.13a1,1,0,0,0,.39,0c.15,0,.23,0,.28-.1a.21.21,0,0,1,.33,0c.09.15.08.21.21.1s.56-.29.79-.15a2,2,0,0,0,.42.19c.08,0,.26.05.21,0s-.07-.19.1-.16.43.06.49.15.1.05.18.05a.89.89,0,0,1,.4.13c.12.08.13.11.22.07s.15,0,.19,0a.75.75,0,0,1,.07.15l-.13.07.07.08.12-.08.11,0c.31.16.2.17,0,.5-.14.56.3.62.59.66s.23-.13.41-.16.45,0,.45.11,0,.23.12.15.15-.13.21-.06.43.09.58.09.35-.05.41,0l.12.11h.2l.06.09H81V25h.25v-.13l.15-.15v.39h.21v-.27h.22a.67.67,0,0,1,.39.23.73.73,0,0,1,.14.25l.65.07v-.14h.15v.14h.08v-.26s.22-.1.33,0,.33.31.46.31a1,1,0,0,1,.46.16,1.22,1.22,0,0,1,.15.17l-.16.06.14.41h.06l-.08-.35h.08l.28.49s-.95-.16-1.08,0-.31.26-.29.12,0-.24-.1-.25-.18,0-.19.08-.06.14-.2.11-.6-.09-.6-.09-.36-.07-.45,0a.29.29,0,0,0,0,.39.24.24,0,0,0,.28-.05,1,1,0,0,1,.21-.12l.3,0,0,.16h-.21v.14l.28,0a5,5,0,0,0,.75.25c.16,0,.34.2.46.2s.18,0,.23.07c.63,0,3.6-1.24,3.92-.61a6.64,6.64,0,0,0,.79.15c0,.16.31.32.47.32l.16.31c.47,0,.79.32,1.26.32.16.31.63.31,1,.31l.16.32a3.17,3.17,0,0,0,2.68.31c0-.16.16-.47.16-.63.15,0,.47-.63.46-.94.16,0,.32-.16.48-.16,0-.16.15-.31.15-.47a3.13,3.13,0,0,0,1.1-1.42c.32-.15.63-.62.94-.94C98.06,23.79,98.35,23.21,98.34,22.74Z"/></g></g></g></svg>