<svg xmlns="http://www.w3.org/2000/svg" viewBox="0 0 80.99 40.61"><defs><style>.cls-1{fill:#2e6faa;fill-rule:evenodd;}</style></defs><g id="Layer_2" data-name="Layer 2"><g id="regije"><path id="kastelanska_zagora" class="cls-1" d="M38.42,1.73a4.56,4.56,0,0,0-.36.82L36,2.94s-3.34-1-3.64-1.09l-1.18-.37a4.88,4.88,0,0,1-1.25-.08c-.51-.13-.6.16-.87.33a.72.72,0,0,0-.35.77,1.27,1.27,0,0,1,0,.6L24.52,1.25,23,.46,22.6.8l-.31.7-.13.64-.68,1.78L21,4.31l-1.37,2.9L16.54,5.93l-4-1.57a2.75,2.75,0,0,1-.6-.07A2.34,2.34,0,0,1,11.17,4l-1-1.8L8.31,2.06s-1.8-.89-2.1-1A2,2,0,0,0,5.34,1l-.19.81-.33.57-.4,1.08s-.36,1.62-.49,2.09-.56,1.58-.56,1.58L1.86,10.65l-.7,1.26-.25.85v.88L.67,14,0,16.46c1.39.49,1.27.2,2.37.67A15,15,0,0,1,4,18.39l3.32,2.52c1,.78,2.36-.32,3.31.63,1.89,0,3.79,1.25,6,1.26l-.16.15-.31.16c0,1.89-.62,3.14,0,4.87a14.83,14.83,0,0,1,.8,2.83,3.11,3.11,0,0,1,1.9,2.05c.16,0,.32.16.47.16,0,.31.48.78.64,1.1.63,0,2.53,1.73,3.32,1.89.16.47.47.15.79.31v.16c.79.47,2.52-1.1,2.83-1.58.63-.78,2-5.66,3-5.66,0-.15,0-.31.16-.31v-.47A17.71,17.71,0,0,0,36.65,30c.47.47,2.68.47,3.47.47l0-4.71c.31,0,5.36.16,5.36-.16l.16.32-.14,5.5,7.42,1.26,4.4-4.88,10.09,1.42.81,4.4,1.74.79L69.32,36l-.95.63c0,.47-.15,1.57-.62,1.73,0,.32-.47,1.1-.31,1.42a2.2,2.2,0,0,0,1.26.78,13.79,13.79,0,0,0,2.37-.31c3.15-.94,7.41-.63,9.92-3.14-.16-.16-.32-.63-.48-.63v-.63a12.48,12.48,0,0,1-1.28-3.62c-.31-.16-.48-1.57-.79-2-.16,0-.32-.16-.48-.16,0-.31-.47-.79-.63-1.1-.32,0-.64-.47-.64-.63h-.47L76.06,28a2.69,2.69,0,0,1-1.58-.95h-.32a9.76,9.76,0,0,1-.49-6H74a6.49,6.49,0,0,1,.31-1.73c-.47,0-.79-1.42-1.11-1.58L73,13.69c-1.89,0-2.68-1.73-3.64-3.15h-.63v.16h-.31c-.16.47-.79,1.25-1.26,1.25a7.22,7.22,0,0,0-.94,1.26h-.47v.32a.89.89,0,0,0-.31.78c-.16,0-.47.47-.47.79-2,0-3.47,1.26-5.52,1.26V15.1h-.16c-.64-1.89,0-4.4-.82-6.45-.15-.47-3.48-2.52-4.11-2.83C51.83,4.25,48.83,3.62,45.68,3L44.4,0Z"/></g></g></svg>