<svg xmlns="http://www.w3.org/2000/svg" viewBox="0 0 34.93 53.35"><defs><style>.cls-1{fill:#d2e288;fill-rule:evenodd;}</style></defs><g id="Layer_2" data-name="Layer 2"><g id="regije"><path id="klanjec" class="cls-1" d="M31,17.2c0,.09-.08.26-.08.35l-.18.08v.78a.43.43,0,0,0,.34.18.38.38,0,0,0,.35.34c0,.44.35,1.13.36,1.65-.09,0-.18.08-.26.08,0,.52-.43,1.3-.43,1.91l.09.08.09.09c.43,0,1.13,1,1.22,1.39.08,0,.26.17.26.17v.17c.09,0,.26.44.26.52s.18.18.26.18.09.17.09.26.17.17.26.26c.26,0,.52.17.78.17a.45.45,0,0,0,.27.17,3.52,3.52,0,0,1,.26,1.91h-.17c-.26.43-1.47.52-2,.52-.18.34-1.13.34-1.3.51h-.18c-.08.09-.17.18-.17.26-.17.09-.43.18-.52.44l1.35,1.16a1.86,1.86,0,0,0,1.12.78l.06.06v.74c.06,0,.12.06.19.06,0,.25.19,1.11-.06,1.23,0,.25-.06,0-.06.25-.12,0-.25.37-.25.49a3.77,3.77,0,0,0-.79,1.36c-.06,0-.13.12-.19.12V36c-.18,0-.06.5-.12.62h-.06a4.24,4.24,0,0,0,0,1.23c.49,0,.37,1.42.37,1.66-.06,0-.12.13-.18.13l-.3,1.53v.19h-.06v.12a.13.13,0,0,0-.13.13h-.18l-.06.06v.06l-.06.06-.13.06V42c-.37.37,0,2.53.14,2.9h.25c.31.68,2.1,1.29,2.1,2a2.91,2.91,0,0,1,.35.5c-.48,0-1,0-1.09.51-.29,1.18-1.43,1.42-1.44,2.91,0,.66-.65,1.15-.8,1.78-.26,1-1.09.93-1.07-.18s.26-1.57-1.11-2a3.07,3.07,0,0,0-2.55.09c-.33.18-1,.18-1.22.52a1,1,0,0,1-.92.61,7.54,7.54,0,0,0-1.95.12.68.68,0,0,1-.82,0c-.3-.21-.8-.22-.66-.57s.27-.43.09-.52-.11-.5-.3-.39-.23-.43-.23-.43l-.91.22a11.33,11.33,0,0,0-.3-1.14,2.09,2.09,0,0,1-.07-.89,1.84,1.84,0,0,0-.23-1,1.1,1.1,0,0,1,0-.53,1,1,0,0,0,.08-.32.54.54,0,0,0-.33-.41c-.15,0-.22-.31-.27-.46s0-.27.12-.27.3.15.41.38a.3.3,0,0,0,.45.12c.11-.1-.14-.47-.14-.47l-.44-.54s-.15-.2-.07-.29.21,0,.44,0,.19-.46.19-.46S19,43,19.34,43s.62-.25.62-.46a4.37,4.37,0,0,0-.12-.91c-.06-.1-.07-.64.08-.75s.09-.56.09-.56-.41.38-.66.38-.52-.09-.5-.32,0-.5.33-.55.56-.05.57-.21,0-.4.21-.4.2,0,.25.16.43,0,.43-.21a.81.81,0,0,0-.22-.58.67.67,0,0,1-.13-.76,1.18,1.18,0,0,0,.2-.48l.37-.27,0-.94s.21-.23.08-.35-.59-.58-.14-.87a2.77,2.77,0,0,1,.81-.36s.24-.17.24-.38-.17-.62.05-.66a.6.6,0,0,1,.53.18c.12.14.56.26.66.17a1,1,0,0,0,.18-.39c0-.11.22-.53.22-.53s-.13-.3-.27-.3-.25-.19-.25-.33,0-.29-.21-.37a2,2,0,0,1-.74-.68,2.92,2.92,0,0,0-.4-.59,2.84,2.84,0,0,0-.61-.49c-.21-.08-.51-.6-.51-.6s-.14-.33-.33-.34-.92-.12-.92-.12a3.62,3.62,0,0,1-1-.27c-.15-.13-.53-.45-.69-.45a2.71,2.71,0,0,1-1-.45l-.51-.71a2.54,2.54,0,0,0-.8-.45,2,2,0,0,1-.85-.4,1.26,1.26,0,0,0-.58-.14,3.21,3.21,0,0,1-.92-.42,1.24,1.24,0,0,0-.65-.41c-.19,0-.51.34-.51.34s-.31.46-.64.46-.6-.09-.6-.24a3.36,3.36,0,0,0,.09-.85,2.17,2.17,0,0,1,0-.85,1.12,1.12,0,0,0-.24-.76c-.13-.08-.44-.58-.63-.58a.46.46,0,0,0-.33.15S9,23.12,9,22.92s.16-.23.12-.46-.16-.71-.36-.72-.79-.1-.79.19-.11.75-.47.78-.61.17-.64,0-.17-.19-.31-.19-.25,0-.25.17-.21.05-.29-.06a1.15,1.15,0,0,0-.58-.4c-.17,0-.45-.45-.45-.45s-.63-.74-.84-.76-.39-.14-.37-.25.24-.29.39-.35.26-.59.42-.67.31-.56.18-.69-.67-.36-.91-.21-1-.24-1-.41a2.52,2.52,0,0,1,.07-.93c.14-.23.32-.52.17-.62s-.37-.06-.41.06-.41.13-.44-.05a1.85,1.85,0,0,0-.38-.77c-.17-.14-.44-.57-.28-.65s.08-.5.08-.5.07-.58.24-.55.26-.6.26-.6.1-.48-.11-.6-.36-.45-.25-.52.29.1.29.1.35,0,.37-.17.36-.54.14-.54-.48-.26-.36-.51.32-.81.5-.86.12-.41,0-.54-.24-.35-.2-.45-.13-.35-.31-.35-.4,0-.4-.12A.2.2,0,0,1,2,9.05c.16,0,.1-.37-.09-.37a1.31,1.31,0,0,0-.35.05s-.38,0-.44-.19A11.36,11.36,0,0,0,.21,7.42S-.16,7,.08,6.79a6.58,6.58,0,0,1,1.48-.74c.15,0,.4-.27.4-.27a1,1,0,0,1,.41-.2c.16,0,.45,0,.47-.25a2.27,2.27,0,0,0-.22-.72S2.26,3.8,2,3.74s-.67-.38-.65-.61a.39.39,0,0,1,.33-.36c.12,0,.41-.4.3-.58s-.25-.48-.11-.56l.94-.46S5.09,0,5.09,0c0,.78,0,3.78-.57,4.3,0,1.64-.59,3.55,1.06,4.59a.63.63,0,0,0,.18.34H6c.09.17.09.17.26.17s.17-.17.26-.17S6.63,9,6.8,9c0-.69,1.65-.69,2.17-.69.26.26.26.78.61,1,0,.09.26.52.26.61a7.19,7.19,0,0,1,.8,3.63c.17,0,0,.09.17.09,0,.43-.59,2.08.19,2.08a.67.67,0,0,0,.35.35c0,.25.17,1,.35,1,0,.26.09.35.26.35,0,.09.09.17.09.26.53,0,.82.37,1,.87a4.73,4.73,0,0,1,2.42-.87s.18.17.18.26c.52,0,1,.95,1.39,1,0,.17.09.26.26.35,0,.08.18.26.18.34l.87-.08c.78.26,2.86.86,3.64.52.44,0,.87-.26,1.31-.26,0-.09.25-.26.25-.35a.86.86,0,0,0,.61-.35,1.89,1.89,0,0,1,1.74.7c.09,0,.26-.09.35-.09,0-.35.17-.95.17-1.3.08,0,.52,0,.52.09a1.1,1.1,0,0,0,1-.43v-.52l.18-.18h.34l.09-.17h.09l.17-.26A17.83,17.83,0,0,1,31,17.2Z"/></g></g></svg>