<svg xmlns="http://www.w3.org/2000/svg" viewBox="0 0 81.72 77.9"><defs><style>.cls-1{fill:#82c9f0;fill-rule:evenodd;}</style></defs><g id="Layer_2" data-name="Layer 2"><g id="regije"><path id="knin" class="cls-1" d="M7.64,17.85l.24-.48,0-.85-.1-.83-.07-.28.15-.94.34-3-.06-.19L8,10.91l-.16-.72-.26-.71,0-.81-.1-.85-.11-.24-.12-.9-.1-.6V4.77L8.31,3.52l.25-.39-.21-.78.11-1.17,0-.25L9,.81h.29l.4-.24.13.27L10,1.2l.93-.09L12,1l.38.57.4.25,1,.22h.55c0,.17,0,.25.14.25s.12-.42.12-.42.11-.63.66-.6a2,2,0,0,0,1.18-.14A1.64,1.64,0,0,1,17.26,1,2,2,0,0,0,18,.8a8.44,8.44,0,0,0,1-.26,4.4,4.4,0,0,1,.93-.37A3.49,3.49,0,0,0,20.56,0s1.07.64,1.4.78a2.42,2.42,0,0,1,1,.64c.22.3.61.57.78.51s.46-.17.48.09.12.68.14.83a4.13,4.13,0,0,0,.7,1.21.52.52,0,0,0,.62.08c.24-.11.46-.21.6,0a1.67,1.67,0,0,1,.25.57l.31.61.41.09a1.22,1.22,0,0,0,.36.84l1.1,1,.15.42,1.71,2,.33.82a3.53,3.53,0,0,0,.83.52c.35.12.66.26.66.42a2.81,2.81,0,0,0,.12.54l1,.48,1.17,1,1,.61L36,15.19l.63,1,.78.49,1.15,1,.67,1.13-.29,4.15.75.49.3,1.29.8,1.36,2.79.46,3,1.67,1.55,1,.67.94-.29.82L50,34.29l1.27.13.15.38L52.56,34l.9.74L56,35,60.52,34l2.64,4.12-.23.92L62,41.14l.13,1.52.43,1.75,0,1.1-.38,1.67.73.52.49,0,1,.11,1.28,0,1.25-.16.77-.23,2.7.11,3.64,1.28,2.4,5,2.27,2.65,1.57,1.82,1.43,3.06-8.72,0-1.62.06-.95.42-2,1.14-1.26.55-1.25.56-.69.78-.41,1.39-.58.67-.54.15-.75.66a11.28,11.28,0,0,0-1.41.39c-.35.15-.51-.67-.51-.67l-.57-.18-.59.07-.36.59.08.35-.4.14-.17-.4-.73-.4-1.17,1.57a5.51,5.51,0,0,1-1,1.13c-.4.35-.39.54-.5,1.14a.88.88,0,0,0,.28.89l1.53.83.53.52s-.1.61-.12.71a7.68,7.68,0,0,1-.56.78l-.27.1-1.71-.45a1.51,1.51,0,0,0-.43,0l-.69.69-.65.19-2.27,0-.45-.07-.39-.27-.51.07-2.29-2.08c0-1.13-.23-2.36-.23-3.37-.13,0-.26-.37-.38-.5-1.89,0-3.66-1-5.66-.25,0,.38-.63.38-.88.38a1.51,1.51,0,0,1-.63.62A2.84,2.84,0,0,1,39,71.63c0,.37-.62.5-.87.5-.51,0-1.39-.13-1.64.37-.63.26-1.25,1.26-2.13,1.26-.12.37-1,1.13-1,1.5a10.39,10.39,0,0,0-1.25.88,16.31,16.31,0,0,1-2.52,0c-1.39-.25-5.29-.88-6.16,0a1.43,1.43,0,0,0-1,.63H22c0,.5-1,.87-1.12,1.13h-.38v-.13c-1.39-.75-3.54-4.14-5-4.14-.25-.38-.76-.25-1.13-.25a1.86,1.86,0,0,0-.89-.38,19.16,19.16,0,0,0-1.14-1.63h-.5c-.12.13-.25.38-.5.38v-.38c0-3.64,0-8.15.83-11.66,0-.13,0-.88-.13-.88v-.38a2.45,2.45,0,0,1-1-1.63h-.25a1.76,1.76,0,0,0-.25-.5l-.14-2.39-.12-.12c-.51-.25-1.14-1-1.77-1,0-.88.5-1.76.49-2.64a3.23,3.23,0,0,1,1.51-.63l.25-.25v-.75a12.17,12.17,0,0,1-2.16-3.76c-.12,0-.25-.13-.38-.13s-.5.38-.5.38a16.93,16.93,0,0,1-2.77,3.08c0-.12-.36-.07-.36-.2-.5-.25-2.41-4-2.53-4.51-.51-.13-1.39-1.26-1.9-1.64,0-.37-.13-.87-.13-1.25A3.74,3.74,0,0,0,.75,40c.38,0,.63-.25,1-.25a15.22,15.22,0,0,0,.49-2.26c.88-.5,2.27-.12,3.27-.12,0-.51.75-1.51.75-2.14.12,0,.5-.62.5-.88.88-.37,1.62-1.88,2.12-2.63a5.34,5.34,0,0,0,1.26-.5A3.07,3.07,0,0,0,9,29H8.63c-.51-.75-.39-2.88-.39-3.89.75,0,1.25-.75,2-1,0-.88-.38-1.63-.38-2.38a1.74,1.74,0,0,1-.38-1.13.56.56,0,0,1-.38-.38c-.13,0-.51-.13-.63-.13s-.13-.37-.13-.5-.26-.5-.38-.5H7.83A3.61,3.61,0,0,1,7.64,17.85Z"/></g></g></svg>