<svg xmlns="http://www.w3.org/2000/svg" viewBox="0 0 24.13 20.41"><defs><style>.cls-1{fill:#2e6faa;fill-rule:evenodd;}</style></defs><g id="Layer_2" data-name="Layer 2"><g id="regije"><path id="komarna" class="cls-1" d="M21.13,19.52c-.32.06-.26.17-.59.16a1.86,1.86,0,0,0-.62.08.78.78,0,0,1-.8-.25c-.13-.19-.26-.38-.49-.31s-.08.05-.36.16-.44.18-.41.34,0,.27-.13.31-.21,0-.26-.19-.08-.31-.2-.37-.31.06-.38.12a.32.32,0,0,1-.3.09,1,1,0,0,1-.54-.29c-.32-.28-.49-.47-.78-.4s-.27.17-.16.37.31.16.37.37a1.72,1.72,0,0,1-.12.59c-.06.32-.45-.16-.53-.28s-.22-.4-.49-.32-.44.2-.76,0-.51-.66-1-.85a4.13,4.13,0,0,1-1.17-.61A9.13,9.13,0,0,1,10,17.11c-.19-.25-.8-.84-1.07-1.16a2,2,0,0,1-.32-.46A2,2,0,0,0,8.17,15a1.19,1.19,0,0,1-.47-.61c-.06-.2,0-.41.14-.44a.57.57,0,0,1,.51.15.84.84,0,0,0,.44.29c.11,0,.16-.12.11-.29a2,2,0,0,0-.49-.54c-.19-.19-.18-.3-.31-.35a.55.55,0,0,0-.39-.07c-.11,0,0,0-.23,0s-.34.13-.57,0-.33-.22-.49-.19a.7.7,0,0,1-.71-.22c-.32-.3-.12-.46-.55-.71s-.3-.41-.38-.58,0-.55.3-.54.31.06.4,0,.22,0,.1-.18-.24-.35-.32-.45A.49.49,0,0,0,4.82,10a1.51,1.51,0,0,1-1-.08c-.49-.25-.85-.4-1-.77a1.37,1.37,0,0,0-.37-.69L1.93,8c-.16-.15-.21-.24-.14-.45S2,7.39,1.92,7a3.26,3.26,0,0,1-.12-.58c0-.17.06-.29.23-.26a.93.93,0,0,0,.55,0c.15-.08,0-.13.15-.28s-.13-.36.06-.5.34-.1.38-.43.09-.23,0-.39-.26-.17-.41-.17a.26.26,0,0,0-.28.22c0,.14-.33.18-.47.16s-.18.06-.33.14l-.82,0a.83.83,0,0,1-.16-.19A.94.94,0,0,1,.57,4,1.26,1.26,0,0,0,.29,3.2C.1,3,0,2.91,0,2.78a.27.27,0,0,1,.33-.17.94.94,0,0,1,.49.29c.15.15.43.48.43.48l0-.18V3S1,2.87,1,2.69s.21-.3.21-.3l0-.41L.52.74,2.45,0A11.06,11.06,0,0,0,4.31,2.52,4.78,4.78,0,0,1,5.46,4.65L7.28,6.6l4.15-1.33L13,5.36l1-.49,3.14-.31s2.3-.88,2.17,1.29a15.27,15.27,0,0,0,.8,4.87l0,5,4,2.26L24,19.84Z"/></g></g></svg>