<svg xmlns="http://www.w3.org/2000/svg" viewBox="0 0 166.88 130.26"><defs><style>.cls-1{fill:#4e83bf;fill-rule:evenodd;}</style></defs><g id="Layer_2" data-name="Layer 2"><g id="regije"><g id="konavle"><path class="cls-1" d="M63.32,61.18s0-.44.61-.44a9.15,9.15,0,0,1,1.34.13c.26,0,.5.08.67-.07s.27-.5.53-.27.4.38.6.33.28-.44.09-.72a1.56,1.56,0,0,0-.35-.39s-.18-.28.12-.31.3,0,.58.18a1.44,1.44,0,0,0,.73.28c.36.07.43.17.5.28a2.54,2.54,0,0,1,.15.62,1.79,1.79,0,0,0,.23.76,1.75,1.75,0,0,1,.25.44c0,.11,0,.32.06.38s.21.09.33.22.16.18.29.07.15-.24.36-.06.06.55.06.68a1.25,1.25,0,0,1-.19.55,3.56,3.56,0,0,0-.34.73c0,.12-.19.42-.48.29s-.32-.26-.24-.59a1.26,1.26,0,0,0-.07-.94c-.17-.27-.33-.51-.73-.51a3.9,3.9,0,0,1-1-.23c-.52-.13-.81-.38-1.33-.31a1.71,1.71,0,0,1-1.51-.15c-.74-.4-.22-.37-.7-.45S63.29,61.42,63.32,61.18Z"/><path class="cls-1" d="M55.55,55.82a6.75,6.75,0,0,1,.87.21c.21.08.37.14.37.47s0,.52.21.66a1,1,0,0,0,.55.09c.14,0,.35-.08.42.33a1,1,0,0,0,.33.74c.23.22.78.72,1.13,1s1.23.77,1.55,1,.32.19.36.34a.2.2,0,0,1-.23.25,4.3,4.3,0,0,1-.57-.09,2.94,2.94,0,0,1-1.14-.46c-.47-.31-.55-.29-.8-.22s-.19.21-.54.16-.58-.43-.89-.24a.41.41,0,0,0-.12.67,1.33,1.33,0,0,0,.52.4c.1.06.25.11.22.37s-.23.21-.49.23-.55,0-.74,0a1.7,1.7,0,0,1-.6,0,1.4,1.4,0,0,0-.57-.08,1.44,1.44,0,0,1-.77,0c-.23-.1-.18-.11-.25-.36s0-.41-.24-.56-.32-.16-.31-.43a.88.88,0,0,0-.37-1c-.44-.27-1.15-.69-1.34-.79s-.37-.17-.4-.31,0-.3.3-.27a1.49,1.49,0,0,1,.9.32,2,2,0,0,0,1.23.51.6.6,0,0,0,.65-.35A1.15,1.15,0,0,0,55,58c0-.19,0-.23-.1-.34a.4.4,0,0,1-.13-.47c.08-.19.2-.25.18-.6s0-.51.14-.63S55.41,55.79,55.55,55.82Z"/><path class="cls-1" d="M33.91,42c.16.08,1.13,1,1.34,1.15a1.5,1.5,0,0,0,.59.36c.39.15.44.2.58.48a1.14,1.14,0,0,0,.42.54c.26.21.34.25.38.54a1.33,1.33,0,0,0,.28.7c.2.3,1,1,1.27,1.35a3.91,3.91,0,0,1,.45.55,2.39,2.39,0,0,0,.54.58.69.69,0,0,1,.27.34c0,.11-.13.21-.4.08s-.44-.43-.85-.46-.45.07-.72-.22-.53-.83-1.14-.94-.17,0-.31,0-.47-.08-.52,0-.07.22.09.39a.93.93,0,0,0,.55.27,1.66,1.66,0,0,1,.73.34c.27.22.21.26.4.34s.33.07.42.29.07.19.17.29a.64.64,0,0,0,.38.13.89.89,0,0,1,.75.47,1.81,1.81,0,0,0,.55.84,1.08,1.08,0,0,0,.71.32,2.86,2.86,0,0,1,.87.12c.28.14.34.18.46.18s.23-.09.35,0,0,.26.23.46.15.21.74.41a2.25,2.25,0,0,1,.7.36,2.4,2.4,0,0,1,1,.81,3.16,3.16,0,0,0,.72.87c.22.15.25.2.37.24s.21,0,.21.22a.51.51,0,0,0,.18.48c.21.21.3.06.52.24s.27.14.46.19.38-.09.63.13.31.26.31.26a.13.13,0,0,0,.17-.05c.08-.11-.09-.23-.13-.28a.65.65,0,0,1-.12-.39.66.66,0,0,1,.57-.63,2.66,2.66,0,0,0,.86-.33c.26-.15.24-.24.25-.31s-.13-.14-.2-.14a.56.56,0,0,1-.48-.14,4.68,4.68,0,0,1-.37-.4c-.08-.09-.07-.22,0-.38s.25-.34.71-.33a.73.73,0,0,0,.8-.54,1.07,1.07,0,0,0-.17-1.06c-.24-.25-.57-.29-.78-.51s-.2-.39-.51-.57-.41-.16-.65-.5a3.91,3.91,0,0,0-.37-.52c-.13-.12-.27-.17-.33-.24a.72.72,0,0,0-.45-.35c-.33-.12-.53-.16-.64-.47s-.2-.46-.5-.47-.46.08-.66-.12-.1-.47-.46-.56-.33.07-.57-.18a.94.94,0,0,0-.64-.38,1.16,1.16,0,0,1-.91-.29c-.5-.35-.44-.5-1.1-.7a2.34,2.34,0,0,1-.94-.4c-.16-.12-.42-.35-.42-.35s-.14-.06-.1-.39a.62.62,0,0,0-.31-.71.9.9,0,0,1-.46-.25c-.2-.17-.71-.52-.92-.66a.9.9,0,0,0-.64-.25c-.35,0-.39,0-.49.14a1.53,1.53,0,0,0-.17.22s-.1.13-.3,0-.41-.38-.7-.25a1.33,1.33,0,0,1-1,0,6.24,6.24,0,0,1-.59-.38c-.09-.06-.26-.16-.4,0s-.17.19-.4.19-.23,0-.26,0S33.84,41.93,33.91,42Z"/><path class="cls-1" d="M26.24,42.56s2.11,2,2.43,2.41.43.53.75.58.72-.11,1.17.17a1.74,1.74,0,0,0,.8.32c.21.06.4,0,.62.27a2.5,2.5,0,0,0,.74.52,1.21,1.21,0,0,1,.62.72c.08.38,0,.34.13.45s.31,0,.42,0a.65.65,0,0,1,.83.16c.31.39.2.41.47.45a.45.45,0,0,0,.46-.33c0-.12-.13-.29-.34-.5S35,47.5,35,47.3s-.07-.59.25-.6.48,0,.57-.22a.5.5,0,0,0-.13-.62,1,1,0,0,0-.77-.39c-.41,0-.41.05-.64-.22s-.23-.44-.41-.44-.3,0-.25.35a5.7,5.7,0,0,1,.22.82c.05.45-.06.45-.26.34s-.44-.32-.64-.44-.38-.14-.38-.37a.78.78,0,0,0-.19-.56.33.33,0,0,0-.44-.16c-.13.05-.07.1-.25.07s-.11,0-.2,0-.13,0-.14-.2a.55.55,0,0,0-.38-.52c-.33-.13-.45-.13-.69-.25s-.23-.5-.5-.49-.25.32-.67.22-.08.14-.72-.34a7,7,0,0,1-1-1,1.67,1.67,0,0,0-.61-.41.43.43,0,0,0-.49.68Z"/><path class="cls-1" d="M136.22,77.4a4.51,4.51,0,0,0,.94,1.77c.48.57,1.85,2.21,2.58,2.42a5.79,5.79,0,0,1,1.9,1c.57.44,4.73,3.83,4.73,3.83a9.35,9.35,0,0,1,1,.73l.52.19.38.3.25,2,.44,1.34-.14,5a9.18,9.18,0,0,1-.08,1.7c-.12.36-.68.85.1,1.41a4.91,4.91,0,0,1,1.54,1.88l-.49,1-.87,2.71c-.15.5-.32,2-.39,2.27a1.18,1.18,0,0,1-.39.56c-.15.15-.19.46.38.6a3.71,3.71,0,0,1,2,1.32,3.12,3.12,0,0,0,1.68,1.48,7.55,7.55,0,0,1,1.62.79,10.15,10.15,0,0,1,2.2,1.78,10,10,0,0,0,1.45,2.23,4.71,4.71,0,0,1,1.26,1.49c.16.52.37,1.12.37,1.12s1.18,1.19,1.54,1.49a11.32,11.32,0,0,0,1.67,1.27,6.86,6.86,0,0,1,2.26,1.62l.28.57a5.61,5.61,0,0,1-.58,0,.88.88,0,0,1-.59-.18c-.26-.14-.4,0-.45.18a4.15,4.15,0,0,0-.1.6.84.84,0,0,1-.39.7c-.31.23-.22.78-.08,1s.06.13.06.63a1.6,1.6,0,0,0,.42,1.12c.21.17,1.34,1.17,2.06,1.65s1.16.68,1.39.83.28.2.18.36-.17.09-.29.05a4.06,4.06,0,0,1-.67-.19c-.28-.13-.74-.24-1.08-.38a3.4,3.4,0,0,1-.93-.52c-.38-.28-1.18-1-1.48-1.26s-.19-.48,0-1c.18-.33-.34-.69-.34-.69s-.56-.42-.77-.61a7.51,7.51,0,0,1-.9-.86c-.31-.35-.52-.28-.95-.47a8.54,8.54,0,0,1-1.24-.85,2.17,2.17,0,0,1-.65-.72A2.86,2.86,0,0,0,157,122a2.31,2.31,0,0,1-.41-.56,6,6,0,0,0-.46-.6,2.85,2.85,0,0,1-.46-.76,4.92,4.92,0,0,0-.71-1c-.24-.28-.58-.65-.89-1a3.77,3.77,0,0,0-1.11-.91,7.57,7.57,0,0,1-1.1-.74,2.21,2.21,0,0,0-1.32-.45c-.44,0-.41.36-.5.63s-.07.46-.27.48a1.17,1.17,0,0,1-.62-.11,4.43,4.43,0,0,1-.36-.5c-.11-.14-.33-.15-.4-.22s0-.61-.06-.78-.49.07-.67.16-.17.1-.42.05-.26.09-.27.31,0,.14-.11.38.16.24.22.41.08.36-.17.36-.21-.35-.56-.58-.75-.57-1.06-.8-1-.83-1.35-1.11-.49-.4-.39-.56.26-.13.75-.14c.34.09.58.42,1,.69a2.23,2.23,0,0,0,.78.36c.5.17.5-.19.49-.32a1.06,1.06,0,0,0-.2-.53c-.17-.24-.08-.23-.36-.82a3.54,3.54,0,0,0-1.78-1.23,3.61,3.61,0,0,1-1.17-.8,3.67,3.67,0,0,1-.69-.73.53.53,0,0,0-.49-.31,1.06,1.06,0,0,1-.33-.1,3.39,3.39,0,0,1-.77-.53,1.21,1.21,0,0,0-1-.2.46.46,0,0,1-.53-.14c-.14-.14-.22-.47-.59-.52a2.51,2.51,0,0,1-.88-.76,4,4,0,0,0-.75-.56c-.22-.16-.22-.26-.61-.66a6.1,6.1,0,0,0-1.39-.91c-.34-.2-1.23-.54-1.74-.77a3.78,3.78,0,0,1-1.15-.67,1.49,1.49,0,0,0-.76-.43,1.4,1.4,0,0,1-.69-.16c-.18-.14-.77-.5-1-.67a3.2,3.2,0,0,1-.69-.74,3.66,3.66,0,0,0-1.05-.59,3.73,3.73,0,0,1-.86-.54,4.36,4.36,0,0,0-1-.59,11.51,11.51,0,0,0-1.4-.53A1,1,0,0,0,124,100a1.15,1.15,0,0,1-.71-.2c-.32-.18-.56-.23-.89-.43s-.7-.1-1-.44a.69.69,0,0,0-.62-.31,1.18,1.18,0,0,1-.37-.15,7.65,7.65,0,0,0-.72-.6c-.4-.29-1-.55-1.15-.7s-.42-.2-.4-.49-.1-.3-.32-.55a4.31,4.31,0,0,1-.49-.82c-.36-.62-.47-.52-.84-.61s-.13-.13-.43-.64-.71-.48-1-.6-.4-.12-.54-.31a1.64,1.64,0,0,0-.6-.47c-.33-.2-.21-.15-.51-.43a2,2,0,0,0-.72-.52,1,1,0,0,1-.39-.19s-.79-.73-1.15-1a3.47,3.47,0,0,0-.86-.57c-.24-.12-.17-.1-.32-.41s-.16-.3-.16-.3l-.75-.75a1.34,1.34,0,0,1-.4-.79c0-.32.08-.44-.14-.69s-.15-.3-.22-.49.09-.35-.17-.64a4.25,4.25,0,0,0-1.33-.58c-.39-.16-.53-.15-.67-.32a5.72,5.72,0,0,0-.46-.51c-.15-.14-.44-.3-.47-.49s.05-.2.22-.2.25.13.53.37.43.4.57.39.46-.41.33-.5a.64.64,0,0,1-.2-.38c0-.14-.35,0-.49-.07a.42.42,0,0,1-.37-.25.52.52,0,0,1,0-.58c.1-.13.39-.07.6,0s.43.06.56.17a6.19,6.19,0,0,1,.41.58c.05.09-.15.47-.09.5s.26-.06.45-.1.29,0,.35,0-.23-.18-.17-.27a.46.46,0,0,1,.06-.36c.08-.08.27,0,.35-.11a1.14,1.14,0,0,0,.33-.88c0-.42.11-.5,0-.68-.14,0-.44-.21-.45-.35s.12-.27.32-.46.08-.09.21-.47a.79.79,0,0,1,.43-.57c.25-.18.18-.17.16-.68s-.37-.72-.84-1.27-.31-.63-.41-1-.38-.26-.65-.28a.63.63,0,0,1-.58-.34c-.12-.15-.26-.36-.42-.35s-.25.22-.36.15,0-.22-.1-.61-.2-.28-.49-.57-.2-.24-.38-.5-.42-.11-.75-.18-.18-.13-.52-.34a.46.46,0,0,0-.67,0,.35.35,0,0,0,0,.41s.22.31.08.43-.35.1-.74.08a.69.69,0,0,0-.62.22,6.2,6.2,0,0,0-.51.4c-.34.27-.42.19-.71.1s-.3.19-.33.29-.07.25-.26.25-.33-.06-.76-.39-.58-.25-1.08-.5-.2-.31-.52-.65-.27-.43-.5-.57-.54,0-.66-.15-.15-.27-.26-.37-.49-.2-1-.3-.48-.18-.75-.49a1.67,1.67,0,0,0-1.08-.39c-.32,0-.33-.16-.67-.25s-.44,0-.5.09-.16.27-.28.27-.12,0-.32-.2S91.3,72,91,71.77s-.32-.27-.44-.6a1,1,0,0,0-.43-.62,3,3,0,0,0-.89-.44,2.33,2.33,0,0,1-.82-.49,1.13,1.13,0,0,0-1-.1.32.32,0,0,0-.22.22c0,.08-.07.24-.22.28a2.81,2.81,0,0,1-.45,0c-.2,0-.37-.1-.59-.33a.29.29,0,0,0-.47,0,.34.34,0,0,1-.33.08c-.09,0-.09-.15-.09-.4s0-.21-.25-.38,0-.12-.37-.44-.43-.33-.67-.29a.22.22,0,0,0-.18.28s.05.1-.15.29a1.36,1.36,0,0,1-1.08.17c-.38-.09-.57-.28-.93-.39s-.69.1-1-.07-.19-.07-.66-.54-1.44-.19-1.81-.22a.42.42,0,0,1-.45-.4c0-.15,0-.36.26-.6a1.83,1.83,0,0,1,1.1-.23c.4,0,.35-.41.17-.63s-.43-.13-.7-.17a2,2,0,0,1-.9-.19c-.51-.22-.54-.51-.54-.69a1,1,0,0,1,.27-.69.73.73,0,0,1,.51-.21A5.15,5.15,0,0,1,78.78,64a5.59,5.59,0,0,1,.78.09c.34.06.28.13.53.06s.34.15.42.27.12.08.37.32.18.32.46.62.11.13.6.44.31.42.35.59.2.2.25.09.12-.24,0-.6a2.28,2.28,0,0,0-.47-.74c-.23-.29-.33-.3-.44-.51s0-.07-.36-.37a.78.78,0,0,1-.31-.7.45.45,0,0,1,.29-.4L82,62.7a1.38,1.38,0,0,1,.68-.31c.47-.1.56-.11.84-.19A3.12,3.12,0,0,1,84.4,62a3.48,3.48,0,0,0,1.19-.21,2.74,2.74,0,0,1,1.74.09,7.06,7.06,0,0,0,1.44.27c.48,0,.74.06,1.08.06a2.59,2.59,0,0,0,1-.27,1.43,1.43,0,0,0,.34-.29s.1-.26.08-.3-.29.29-.29.28-.68.24-.78.22a4.72,4.72,0,0,0-.7-.1,1.51,1.51,0,0,1-.47-.05A3.76,3.76,0,0,0,88,61.61a1.75,1.75,0,0,1-1-.1,5,5,0,0,0-1.23-.09,8.3,8.3,0,0,0-1.8.14,3,3,0,0,1-.81.19,2.42,2.42,0,0,0-.91.2,12.93,12.93,0,0,0-1.34.71,1.63,1.63,0,0,1-1.28.19c-.49-.18-.8-.68-1.27-1.12a11.92,11.92,0,0,0-1.54-1c-.28-.21-.3-.25-.33-.63s-.14-.47-.31-.54a1.93,1.93,0,0,1-.68-.57,1.23,1.23,0,0,1-.23-.69c0-.25,0-.35-.25-.56s-.17-.35-.26-.61-.11-.24-.18-.41a.84.84,0,0,1-.15-.47c0-.27,0-.59,0-.93s0-.46-.27-.51-.39.15-.49.35a.21.21,0,0,0,0,.29.21.21,0,0,1,.09.23c0,.17-.07.25-.28.29s-.23.23-.09.28a1.14,1.14,0,0,0,.31.09c.18,0,.19.11.22.26s0,.19-.22.42-.07.38,0,.58.13.21.32.24.16.11.19.21,0,.11.18.17.17.06.22.24.1.16.11.31-.19.18-.28.14a.91.91,0,0,0-.45-.08c-.2,0-.13,0-.34-.1a2.88,2.88,0,0,0-.4-.12c-.18-.06-.29,0-.5-.21a.6.6,0,0,0-.57-.16c-.2,0-.16.08-.39,0a1.24,1.24,0,0,0-.52-.12.79.79,0,0,1-.57-.23,7.78,7.78,0,0,1-1-1c-.35-.37-.35-.3-.53-.33a.78.78,0,0,1-.5-.22c-.25-.19-.44,0-.57,0s-.17.16-.54.09-.37-.12-1.16-.62c-.32-.2-.64-.52-1.07-.77-.63-.36-1.38-.56-1.61-.71A2.52,2.52,0,0,0,63,54c-.17,0-.13,0-.49-.2a5.81,5.81,0,0,1-1-1c-.45-.48-.48-.17-1-.31s-.7-.19-1-.66-.5-.34-.66-.64a.61.61,0,0,1,.16-.68c.1-.13.19-.28.06-.44s-.18,0-.44,0-.28-.1-.28-.17,0-.18-.06-.26-.16,0-.3.13-.2.16-.36.12a.29.29,0,0,1-.18-.3c0-.1.11-.28.18-.58s0-.38-.19-.47-.21-.13-.26-.23,0-.17-.17-.17-.21.13-.32.21a.53.53,0,0,1-.5.16c-.28-.06-.18-.1-.44-.49s-.39-.14-.75-.24-.47-.34-.85-.65a4.51,4.51,0,0,0-1.2-.61c-.48-.23-.52-.65-.67-1s-.31-.27-.5-.34,0-.11-.43-.31a3.67,3.67,0,0,0-1-.36,2,2,0,0,1-.88-.42c-.48-.3-.77-.05-1,0a.88.88,0,0,1-.51-.13c-.23-.12-2.1-1.59-2.79-2.11a15.7,15.7,0,0,1-2.47-2.13,2.44,2.44,0,0,1-.59-1.63,2.46,2.46,0,0,1,.1-1.14.28.28,0,0,1,.48,0c.06.14.15.17.23,0s.06-.17.23-.16.18.21.47.33.42.11.43-.09,0-.25,0-.84a.84.84,0,0,1,.46-.83c.16-.11.28-.14.29-.31s.14-.08.14-.32a1.51,1.51,0,0,0-.19-.66c-.11-.24-.06-.2,0-.34s.16-.23,0-.33-.08,0-.25.08.07,0-.3.09-.38.53-.53.82-.33.24-.85.29-.48.34-.63.6-.39.25-.6.25-.23.09-.23.26.11.17.21.23a.23.23,0,0,1,.12.31.24.24,0,0,1-.25.16,3.14,3.14,0,0,1-1-.22c-.81-.25-.75-.55-.79-.88a1.77,1.77,0,0,0-.31-.87,1.54,1.54,0,0,0-.85-.54c-.21-.07-.31.12-.61.07a1.54,1.54,0,0,1-.9-.54,1.32,1.32,0,0,1-.31-1.07c0-.29.28-.2.58-.19s.24-.15.41-.36,0-.33-.12-.45-.39,0-.56,0a.48.48,0,0,1-.41-.13c-.09-.1-.11-.22-.2-.34s-.21-.14-.25-.39.23-.28.31-.56a.53.53,0,0,0-.56-.61.93.93,0,0,0-.73.29,1.41,1.41,0,0,1-.71.4c-.35.09-.26.13-.67.32a.69.69,0,0,1-.8-.05.59.59,0,0,0-.46-.28c-.23,0-.17.16-.35.37s-.39.2-.84.1a2.22,2.22,0,0,1-1-.59.61.61,0,0,0-.58-.19c-.22,0-.21-.2-.2-.32s0,0,0-.33-.31-.34-.43-.27a.43.43,0,0,1-.24.08.46.46,0,0,0-.28.24c-.09.12-.19.24-.36.23s-.35-.2-.55-.31-.32-.26-.51-.2,0,.28,0,.28a2.32,2.32,0,0,0,.32.49c.27.37.41.61.32.89s-.46.17-.67.14-.2.21-.19.38a.56.56,0,0,1-.09.39.44.44,0,0,1-.39.29c-.13,0-.17-.07-.3,0s0,.31,0,.31,0,1,0,.42c-.08.19-.33.27-.61.27s-.2.29-.2.29a.73.73,0,0,1,0,.46.4.4,0,0,1-.55.31c-.24-.09-.26-.18-.55-.63a2.05,2.05,0,0,0-.86-.67.8.8,0,0,1-.31-.7.72.72,0,0,0-.16-.5,3.78,3.78,0,0,0-.47-.54c-.29-.29-.3-.2-.47-.25a.94.94,0,0,1-.54-.24c-.16-.17-.16-.2-.21-.49s-.17-.27-.42-.32a1.15,1.15,0,0,1-.54-.17c.68-1.29,3.36-5.66,3.49-5.66v-.47c-.47,0-1.41-1.28-1.88-1.28-.12-.12-.24-.47-.47-.47,0-.35-.24-1.05-.24-1.4L20.87,20v-.24c-.82-.23-2.22-.23-2.69-1.05-.23,0-.35-.11-.47-.35a25.68,25.68,0,0,1-7.66-4.56,2.17,2.17,0,0,1,1-1.41,8.52,8.52,0,0,0,.83-.43,1.5,1.5,0,0,1,.5-.16c.14,0,.25-.07.24-.19s0-.14-.49-.42-.68-.44-.79-.77-.19-.59-.36-.6-.18.09-.28.25-.12.39-.48.46a.62.62,0,0,0-.44.19c-.18.11-.26,0-.21.32a2.25,2.25,0,0,1,.09,1,10,10,0,0,1-.46,1.26c-.12.3-.37.77-.91.55s-.31-.24-.76-.37a1.25,1.25,0,0,1-.7-.34c-.36-.26-.39-.27-.48-.35a.57.57,0,0,0-.44-.21A1.28,1.28,0,0,1,5,12.3c-.5-.34-1.21-.64-1.68-1s-.24-.17-.44-.26a2.29,2.29,0,0,1-.75-.57c-.36-.35-.18-.23-.51-.45S1,9.59.49,9.15.14,8.8.05,8.74l0,0,.43-.53a20.12,20.12,0,0,0,2.26-3.3A10.92,10.92,0,0,1,3.94,2.51c.13-.18.27-.39.42-.59L5.26.53l.45,0L7.14,0l4,.35,2.61.36,5.11,1.43,2.43,1.18,4,4,1,.06.06-.77,1.94-3.86L29.38.92l3.85,1.76L36,4.37,38.45,8l.34.79L38,10.27l.47,2.58,0,.37L41,18.6s1,.8,1.07,1.17a6.19,6.19,0,0,0,.64,1.11l1.08,0,1.12.64,1.7.57-.2.75-.22.16-.07.36L45,24.79l-.47,1.53.8,1.5,1.85-.05,1.4-.24,1,.68,4.55,1.62.79.25,1.23.28,2.87,3.19a10,10,0,0,1,1.26.93,6,6,0,0,0,1.27.79l.46.17.57,0,1.61.29.63.29.18,2.73,1.21,1.77,1,.68.43.61,2.76.15,3.17.93,1.45,1.49.53.08,1.07.66,2.81,2.64.14.74.53.2.53,0,1.45.81a24.32,24.32,0,0,1,2.63,1.22A3.23,3.23,0,0,1,85.94,53a3.35,3.35,0,0,1-.51,2.35A2.35,2.35,0,0,0,84.9,57a.9.9,0,0,0,.9,1,5.23,5.23,0,0,1,2.23.52,5.13,5.13,0,0,0,2.43.89,5.52,5.52,0,0,1,1.76,0,.68.68,0,0,1,.37.63A3.12,3.12,0,0,0,93,61.09a3.73,3.73,0,0,1,.33,1c0,.12,1,1.4,1,1.4a5.13,5.13,0,0,1,.42,1.17,2.19,2.19,0,0,0,.11.6l.24.58.6-.62,1.17-.49,1-.16.55.13s0-.48.29-.55.34,0,.72.47.74.73.74.73,1.13-.08,1.51.47a10.35,10.35,0,0,1,1.06,1.63,9.93,9.93,0,0,0,1.51,2.4,6.93,6.93,0,0,1,1.55,1.56,9.1,9.1,0,0,0,2.47,2.7c.79.37,1.37.33,1.41.74a1.69,1.69,0,0,0,.21.68l1.06-.28a1.58,1.58,0,0,1,.47,1c0,.56.26,2.32.26,2.32l1.25,0,2.52-1,.32-.59,1-.55.69.16.25-.72.93-1h1l.92.3,3.73.12L128,74.12l2.82-.11,3.56.67A13.71,13.71,0,0,1,136.22,77.4Z"/></g></g></g></svg>