<svg xmlns="http://www.w3.org/2000/svg" viewBox="0 0 134.98 119.24"><defs><style>.cls-1{fill:#adce3a;fill-rule:evenodd;}</style></defs><g id="Layer_2" data-name="Layer 2"><g id="regije"><path id="koprivnica" class="cls-1" d="M31.37,79.76c.37-.78,2.33,0,2.34-1.23,0-.15.84-.25,1-.28.4-.1,2.1-.41,1.5-1-1.22-1.25.11-.69.87-.68.51,0,1.58-1,2.52-1,1.27,0,1.29-2.09,2.49-2.07.36,0,.27,1.59.81,1.85,1.84.93-.64,1.56-.18,3,.35,1.09,1.2-.71,1.31-.71.36,0,.57.52,1.12.27.33-.14.44-.47.77-.61s.93-1.94,1.47-1.94.65.74,1,.34L50.23,74c.29-.33,1.22.52,1.13-.42L51,70.4c-.1-.94-.55-2.58.26-3,1.75-.85,1.72,1,2.92,1,.51,0,1.59.35,1.85.28s.36-.58.76-.39c.79.41.86.84,1.51,1.18.9.44-.75,1.8-.75,2.27s.42,1.06.31,1.45c-.38,1.16-.16,1,.74,1.39.72,0,1.06-1,1.85-.16A2.94,2.94,0,0,1,61,76.58c0,1.81,1.53,2.15,2.39,3.4.24.76,1.52-.06,2.06.49.14.15.81,1.46.63,1.64-.77.75-1.5-1.94-1.52.09,0,.58-1.08,1.87-.39,2.21s.39.58.38,1.27c0,.47.9.63.89,1.32,0,1-1.19,2.92-2.1,2.94,0,.58-.41,1-.42,1.7s2.67,1.12,3.14.8c.62-.39.56-.75,1.35-.34.29.15,1,1.68,1.73.85l1.14-1.33c.48-.5,1.34,0,1.85-.23.33-.14,1.23.49,1.22.78,0,1,1.22,1.07,2.2,1.08.73,0,.12,1.7,1.18,1.72s.4-.43,1,.23C79,96.52,81.34,96.54,80,99c0,.94-.41,1.52-.42,2.39,0,.43.51,2.11.15,2.46-.88.86-2,2.55-.07,2.58,1,0,1.71-.71,2.73-.69s3.27,1.88,3.93,1.06l1.36-1.54c.41-.51,1.28-.68,1.76-1.14.62-.61,1.4,1.21,1.82,1.83a7,7,0,0,1,.93,1.54c.21.65-.42,1.48-.43,2a2.56,2.56,0,0,0,.56,1.82c.25.4,1.33,1,1.44,1.43.41,1.38,3.18.69,4,.78,1.41,0,1.75,2.37,2.21,3.36.6,1.27,1.62,3.28,3.16,1.78a3,3,0,0,0,.14-2.61c-.6-1.28,1.12-2.49,2-3.31.29-.29,1-1.44,0-1-.44.22-1.46,1.18-2.18.45-.54-.55.1-2.28.61-2.6,1-.61,2.26-.52,2.49-1.64.48-1,1.54-1.58,1.95-2.84.34-1,.58-3,2-2.95,1,0,.53-1.44.86-2.09A6.07,6.07,0,0,1,113.66,98c.87-.43.51-.43,1-1.3s-.09-1.92.75-2.31c.58-.28,1.17-1.11,1.78-.7.33.22.32,1.09.75,1.1,1,0,.32-2.46.9-2.17a7.41,7.41,0,0,0,3.65.55,12.69,12.69,0,0,1,2.73.37,8,8,0,0,0,1.65.19c.35-.06.68-.1.79-.27A3.59,3.59,0,0,1,128,93s1,.66,1.4.33a4.83,4.83,0,0,1,.82-.6c.1,0,.25,0,.29.13a.57.57,0,0,0,.32.35,4.92,4.92,0,0,1,.46.26l.7-.42,0-.47.9-1,0-.09a2.22,2.22,0,0,1,.22-1,.89.89,0,0,1,.19-.17l.4,0,.53-.2a5.22,5.22,0,0,0,.43-.45,3.33,3.33,0,0,0,.3-1l-.07-.34-.16-.24-.66-.38h-.3a2.26,2.26,0,0,0-.89.43,4.06,4.06,0,0,1-1.16.47,3,3,0,0,1-1.54-.24,2.4,2.4,0,0,1-.9-.85c-.08-.14-.6-.85-.6-.85l-.78-.09-.57-.16s-.74-.45-.86-.55,0-.53,0-.53l.19-.22L127,85l.8-.24a7.25,7.25,0,0,0,.87-.29c.15-.1.28-.53.28-.53a.72.72,0,0,0-.1-.48l.34.12.85-.11.41-.22.63-.07,1.19-.2c.34-.07.56-.61.71-.91a1.65,1.65,0,0,0-.05-1,.78.78,0,0,0-.42-.45,1.58,1.58,0,0,0-.69,0l-1.26.22s-.68-.15-.87-.22a4.1,4.1,0,0,0-.57-.13s-.39-.08-.56-.14a1.24,1.24,0,0,0-.67.05,4.25,4.25,0,0,1-.81.09l-.67.46-.21.33-.43,0,.09-.29.39-.23.36-.11s0-.4,0-.58-.1-.79-.1-.79a2.94,2.94,0,0,0-.11-.51,8.86,8.86,0,0,1-.14-.89v-.68l.45-.08,1.44-1.35.51-.43a2.45,2.45,0,0,0,0-.49,3.15,3.15,0,0,0-.19-.42.42.42,0,0,0-.37-.09l-.56.17v-.14l-2.35-.3-1.25.24-1.21-.16a4.66,4.66,0,0,1-1-.38,1.18,1.18,0,0,1-.51-.71.74.74,0,0,1,.31-.69.64.64,0,0,1,.56-.06,2.47,2.47,0,0,1,.41.2,1,1,0,0,0,.41.59c.32.14,1,.45,1.35.29a2.84,2.84,0,0,0,.66-.53l.24-.24-.25-.21s-.83.35-1.12.25-.7-.24-.8-.64l-.17-1.1A3.73,3.73,0,0,0,123,70a1.2,1.2,0,0,0-.3-.77,9.17,9.17,0,0,0-1-.56l-.32-.13a8,8,0,0,1-1.31,0,1.53,1.53,0,0,1-.34-.14l-.35.25a2.35,2.35,0,0,0-1.2.43c-.47.39-.69.63-1,.66s-.68,0-.86-.28a.87.87,0,0,1-.12-.83,2.2,2.2,0,0,1,.32-.39L117,68l.44-.06a4,4,0,0,0,1,.33,4,4,0,0,0,.45,0l.44-.15-.14-.15a1.11,1.11,0,0,1-.08-.43,2.67,2.67,0,0,1,.08-.49l.25-.42c.08-.17.29-.47.37-.61a.75.75,0,0,0,.09-.25s.08-.62.15-.65.87-.17.87-.17l.82-.44.06-.22-.15-.4-.45-.13-1.27.31-.44-.1-.13.34-.64-.35-.55.2-.57-.28.69-1.16s.84-1,.84-1.34a2.31,2.31,0,0,0-.09-.69,1.08,1.08,0,0,1,0-.17l-.51-.39h-.34l-.38.39-.1.92-.19.12-.14-.38-.18-.3-.31-.19-.46,0-1.08.31-.94.49-.51.44-.39.28-.7.12L112,62l-.35-.43,0-.42,0-.51.3-.08.25-.47a7.11,7.11,0,0,0,.42-1,1.46,1.46,0,0,0-.24-.85c-.07-.08-.67-.05-.67-.05l-.31-1,0-.28.14,0-.22-.28s-.11-.12.06-.23.15-.11.29,0a.29.29,0,0,0,.44,0,2.09,2.09,0,0,1,.74-.52c.17,0,.41,0,.44-.2s0-.25,0-.32a1.07,1.07,0,0,1-.18-.29s-.34-.06-.34-.2-.06-.16-.15-.16-.24,0-.22-.2a.44.44,0,0,0-.06-.29.24.24,0,0,1-.12-.22c0-.15,0-.19.09-.2s.21,0,.22-.12-.14-.21-.14-.21-.24-.11-.22-.27a.67.67,0,0,0-.25-.52c-.07,0-.13-.2-.13-.35a1.85,1.85,0,0,1,.27-.55l.2-.12a.38.38,0,0,0,.11-.26,1.83,1.83,0,0,0,0-.27.72.72,0,0,1-.24-.15.44.44,0,0,0-.29-.19l-.25,0-.22-.29-.43-.2s-.15-.49-.37-.56-.31-.07-.39,0-.32,0-.39.08-.51.42-.7.29-.38-.25-.39-.38-.28-.26-.28-.26a.71.71,0,0,0-.23-.19c-.12,0-.21-.13-.09-.26a.85.85,0,0,0,.15-.4s-.34-.21-.19-.34.21-.17.12-.24-.19-.19,0-.28.44,0,.27-.2a.57.57,0,0,1-.21-.43c0-.16.15-.18.34-.19s.12-.26,0-.31a.88.88,0,0,1-.17-.22.38.38,0,0,0-.27-.17.79.79,0,0,1-.37-.25c-.16-.16-.54,0-.65,0a.75.75,0,0,1-.5.06c-.24,0-.29,0-.53.14s-.62-.32-.78-.46-.26,0-.4.16-.18.16-.27.13-.17.32-.26.49a1.67,1.67,0,0,1-.35.36,2.1,2.1,0,0,0-.57-.1.26.26,0,0,1-.31-.14c-.07-.1-.4,0-.5,0s-.18-.07-.18-.16-.09-.18-.17-.29a.4.4,0,0,1-.09-.25.58.58,0,0,0-.08-.31.32.32,0,0,1,.07-.35c.06-.06,0-.48.1-.62s0-.22-.1-.26-.16-.1-.08-.22S102,44,101.84,44a.72.72,0,0,1-.47-.15c-.13-.07-.26.17-.37.31a2.72,2.72,0,0,1-.54.47.93.93,0,0,1-.43.07l-.13-.2-.34-.35a1.34,1.34,0,0,1-.39-.37c-.08-.18-.36-.3-.54-.4a.35.35,0,0,1-.15-.43,1.16,1.16,0,0,0,.06-.48c0-.24-.59-.44-.59-.44l-.54-.14s-.63-.38-.82-.45-.36-.08-.43.06-.12.14-.37.14-.14.48-.14.48l-.2.18-.56,0,0-.25a2,2,0,0,1-.22-.29.34.34,0,0,0-.44-.11c-.15.07-.32,0-.42-.07a.6.6,0,0,1-.24-.39c0-.18-.52-.39-.62-.45a3.24,3.24,0,0,1-.38-.62l-.15-.39a1.06,1.06,0,0,0-.31-.3c-.15-.07.1-.65.1-.65l-.07-.53s-.4,0-1.06,0a2.61,2.61,0,0,1-1.16-.21l-8.5-4.9s-1.13,0-1.35.32-.47.32-.65.19a.57.57,0,0,1-.28-.42,1.1,1.1,0,0,0-.54-.62c-.24-.14-.55.22-.87.55s-.28.11-.51-.24-.28-.25-.5,0-1.1-.25-1.1-.25,0-.2.07-.63a2.57,2.57,0,0,0-.25-1.43c-.21-.3-.09-.38.21-.38s.16-.24.07-.45.3-.69.3-.69l-.58-.85H75c-.21,0-.18.3-.54.56a1.64,1.64,0,0,1-1.55-.2c-.41-.29-.52.49-.52.49s-.84-.39-.93-.59a3.23,3.23,0,0,0-.5-.62l-.38-.59-1-.64-.31-.32L69,25.25l-.3.06-.36-.63-1.18-.88h-.67a2.55,2.55,0,0,1-1.19-.31,7.29,7.29,0,0,1-1.19-1.23s-.21-.47-.33-.81a3.35,3.35,0,0,0-.47-.81l-.11-.36a1.92,1.92,0,0,0-.43-.32,23.54,23.54,0,0,0-2.19-1c-.37-.12-.5-.77-.5-1.08a8.32,8.32,0,0,1,.29-1.36,8.15,8.15,0,0,0,0-1.41,2.41,2.41,0,0,0-.33-.88l-.16-.07L60.1,14s0-.17-.05-.32a.47.47,0,0,0-.36-.32c-.16,0-.39-.22-.74-.71a3.23,3.23,0,0,1-.43-1.43,1.07,1.07,0,0,0-.12-.41,2.75,2.75,0,0,1-.12-.37,3.68,3.68,0,0,1,.1-.78,1.36,1.36,0,0,0-.05-1.34,1.26,1.26,0,0,1-.11-1.83c.66-.8.86-1.07.85-1.5s-.17-.68-.58-.49-.69.16-.84,0a.55.55,0,0,1,.12-.78c.31-.23.41-.48.26-.71a.89.89,0,0,0-.76-.44,2.38,2.38,0,0,1-.94-.15,1.84,1.84,0,0,1-.46-.29A.38.38,0,0,1,55.79,2a1.38,1.38,0,0,1,.34-.38c.17-.08.6-.41.59-.66s0-.64-.24-.8a.55.55,0,0,0-.65,0,6.77,6.77,0,0,0-.64.55L55,.72l.14.54a.91.91,0,0,1-.25.24c-.14.09-.16.14-.33.42s-.38.24-.38.24-.11.33-.21.67-.35.38-.56.49-.15.44-.1.66a4.09,4.09,0,0,1-.07.92,6,6,0,0,1,1.14.37,1.79,1.79,0,0,1,.63.59,1.3,1.3,0,0,1-.2.41,3.32,3.32,0,0,1-1,.7l-.91,1.26s-.53,1.12-.81,1.67-1,2.72-1,2.72-.45.39-.65.59a1.83,1.83,0,0,0-.46.92,1.07,1.07,0,0,1-.42.6s-.08.27-.4,1.12A1.62,1.62,0,0,1,47.87,17a3.69,3.69,0,0,1-1-.54l-.46-.16-.54-2.08A.72.72,0,0,1,46,14c.08-.07,0-.5,0-.5l-.39-1.34-2.48.31L40.54,13c-.7,0-1.6-.25-1.82.46a6.5,6.5,0,0,0,.06,2.86l.37,2c.09.49.73.88.73,1.27s-2.41.3-2.42,1.08c0,.29.48.72.47,1.18l.22,1.1c-.42,2.37-1,3.7-3.4,4.25-1.14.25-1.75,2-2.28,3.06S31.37,32.22,30,32.2c-2,0-1.76,2.68-2.88,3.77s-2.6,2.8-4.52,2.78c-1,0-2.27-.68-3,.06C18.5,39.87,16,40,14.7,39.53s-3.74.08-4.47-.68c-.55-.55-.15-1.43-1.45-1.44a13.56,13.56,0,0,0-1.57.92c-.39.19-.27.65-.57.94-.49.48-1.1,0-1.5.79-.1.19-.3.65-.56.77a1.65,1.65,0,0,1-.49.09,1.68,1.68,0,0,0-.42,0c-.69,0-.64,1.47-1.21,1.73-.73.33-1,.81-2,1,0,0-.25,0-.48.13C.91,45,3.24,45.9,4.6,46.47c.11.33.68.45.79.9.91.11,2.38,1.35,3.06,1.35a4,4,0,0,0,1,1.35c0,1.13-.21,3.38.81,4.06a4.7,4.7,0,0,1-.1,2.14c-.45,0-.9.56-1.36.56,0,.9-.33,2-.32,3L8.27,60c0,.22-.11.67-.11,1,.91,0,1.81-.34,2.6-.34.12.34.68,1.13.68,1.47.34,0,.91.11,1.25.11,0,.23.45.56.45.9h.46c0-.11.22-.34.22-.34h.23a1.42,1.42,0,0,0,.68.91c0,.11.11.22.11.33,1.36,0,2.72.45,4.19.45,0,.23.56.79.79.91a1,1,0,0,1,.79.22,1.57,1.57,0,0,1,1,.34v.79h.91l.24,3.6h.34a3.45,3.45,0,0,0,.56-.78A5.88,5.88,0,0,0,23.91,71c.23.79,2.16,2.59,2.16,3,.23.12.23.45.23.68h.34c.11.22.68.9.68,1,.34,0,.91.79,1.47.79.23.23.46.45.68.45,0,.45.8.79.8,1.35.11,0,.23.34.34.34,0,.23.11.34.12.57A.77.77,0,0,1,31.37,79.76Z"/></g></g></svg>