<svg xmlns="http://www.w3.org/2000/svg" viewBox="0 0 109.65 25.08"><defs><style>.cls-1{fill:#9cd2ef;fill-rule:evenodd;}</style></defs><g id="Layer_2" data-name="Layer 2"><g id="regije"><g id="korcula"><path class="cls-1" d="M.16,2.38a.23.23,0,0,1,.22-.13A.43.43,0,0,0,.79,2.1c.16-.16.23-.29.4-.33a.31.31,0,0,1,.31.06c.07,0,.11,0,.14-.09s0-.28.09-.44.26-.12.33,0a1.43,1.43,0,0,1,.1.38c0,.08.07.29.2.31s.31-.17.5,0,.42.31.42.65-.12.36-.21.41a1.7,1.7,0,0,0-.32.15.34.34,0,0,1-.49-.09c-.1-.18-.15-.5-.39-.54s-.19.23-.18.34a.46.46,0,0,1-.18.4c-.13.07-.26,0-.4-.17S.89,2.91.7,3,.37,3.2.18,3.1A.41.41,0,0,1,0,2.61.94.94,0,0,1,.16,2.38Z"/><path class="cls-1" d="M100.24,9.14s0,.21.22.47.27.16.5.42a.67.67,0,0,0,.58.27,2.42,2.42,0,0,1,1.12.17.56.56,0,0,0,.8-.11.65.65,0,0,0,.08-.86c-.23-.26-.15-.44-.64-.62s-.42-.21-.7-.2a5.15,5.15,0,0,1-.72-.08c-.43,0-.75-.15-1,.06A1,1,0,0,0,100.24,9.14Z"/><path class="cls-1" d="M100.38,11.09c.15.15.61.63.69.73a.38.38,0,0,1,.07.46.63.63,0,0,0,.13.65,5.15,5.15,0,0,0,.58.62,1,1,0,0,1,.33.4.87.87,0,0,0,.4.47.38.38,0,0,1,.25.48,1.35,1.35,0,0,1-.4.54,4.41,4.41,0,0,0-.31.41.29.29,0,0,0,.09.26.2.2,0,0,0,.32-.09.54.54,0,0,1,.48-.44.65.65,0,0,1,.71.53,1.33,1.33,0,0,1-.11.63.41.41,0,0,0-.06.32.39.39,0,0,0,.4.26.54.54,0,0,0,.37-.22c.11-.13.09-.27.31-.33s.23.27.55.25.44-.36.91,0,.41.72,1.13.75.34,0,.75,0,.43-.22.85,0,.27.26.29.41a.61.61,0,0,0,.23.44c.19.17.31.17.31.32s-.06.21-.24.21a.45.45,0,0,0-.49.29.75.75,0,0,1-.59.41c-.29.07-.36,0-.58.31s-.35.13-.57.07-.3-.42-.16-.73a.55.55,0,0,0-.12-.67c-.15-.15-.46-.08-.67.1s-.12.3-.14.4,0,.2-.23.25-.29.26-.36.4-.26.14-.4.15a1.13,1.13,0,0,0-.46.14c-.25.12-.33,0-.41-.11s-.21-.4-.46-.24-.27.63-.62.54-.37-.35-.63-.26-.32.27-.67.16-.28-.24-.61-.1-.33.24-.71.17a1,1,0,0,0-.64,0,2.09,2.09,0,0,1-.55.08c-.21,0-.38.06-.4.2s0,.37-.12.34-.17-.41-.39-.25-.23.31-.52.26-.34-.28-.53-.16,0,.51-.33.49,0-.15-.41-.17-.56-.2-.44-.49.32-.43.26-.62-.12-.19-.3,0a1.94,1.94,0,0,0-.52.69c-.07.23-.12.62-.33.66s-.3-.19-.47-.08-.23.15-.42,0-.19-.18-.39-.13-.44.11-.45-.1.2-.37,0-.49-.13,0-.25.09,0,.17-.34.16-.31,0-.43.14-.19.17-.3,0-.08-.22-.06-.44,0-.25-.15-.38-.21-.19-.34-.14-.13.17-.06.47,0,.41-.21.4-.37-.13-.71-.13a4.8,4.8,0,0,1-1.21-.22c-.49-.13-.15-.13-.76-.25a2.24,2.24,0,0,1-.79-.22.33.33,0,0,1-.21-.44c0-.22.15-.37-.09-.45s-.15,0-.33,0-.26,0-.27.14.19.36,0,.44a.73.73,0,0,1-.63-.1c-.28-.14-.76-.17-1.39-.39s-.53-.22-.85-.23-.2,0-.37-.07a1,1,0,0,0-.58-.13,1,1,0,0,1-.7-.13c-.28-.15-.26-.34-.59-.31a1.05,1.05,0,0,1-.72-.12c-.29-.14-.34-.19-.35-.57s.1-.49-.06-.57-.2,0-.31.16-.3.61-.72.53a2,2,0,0,0-.54-.08c-.2,0-.27,0-.36-.14s-.08-.28-.28-.16-.29.35-.52.26A4.82,4.82,0,0,0,77,17.53a7.37,7.37,0,0,1-2,.06,3.15,3.15,0,0,0-1.08-.2c-.41,0-.68.12-1,0s-.2-.4-.13-.59.22-.4.09-.51-.16-.15-.3,0-.42,1-.92,1.06a6.63,6.63,0,0,1-1.34-.1c-.23,0-.24-.43-.66-.38a.92.92,0,0,1-.82-.16c-.21-.16-.18-.27-.4-.28s-.3.41-.71.4-.54,0-.72.16-.14.37-.56.35-.47,0-.66.18-.17.28-.46.36-.19.13-.27.3a.63.63,0,0,1-.46.36c-.22,0-.3,0-.36.27s.2.43-.1.56-.78,0-1.13.34-.28.36-.49.32a.58.58,0,0,1-.43-.27c-.12-.16-.2-.22-.31-.1s0,.3.06.45a.61.61,0,0,1,.06.62.4.4,0,0,1-.64.07c-.28-.27-.29-.7-.62-.51s-.75.64-1.07.86-.13.13-.52.17-.39,0-.45.2-.22.25-.45.28-.44-.05-.64.19-.23.39-.47.35a.6.6,0,0,1-.36-.23s-.11-.22-.28-.13-.11.25-.13.38,0,0,0,0a.53.53,0,0,1-.14.5c-.22.2-.5.5-.81.38s-.43-.24-.58-.1-.06.38-.51.4-.46.06-.57.25,0,.38-.53.4-.83.06-.94,0a1,1,0,0,1-.55-.17c-.24-.18-.24-.28-.35-.23s-.11.14-.11.29,0,.4-.1.45-.14.06-.35-.14-.19-.36-.34-.32-.12.13-.17.28,0,.23-.19.26-.19.12-.29,0-.06-.19-.23-.16-.12.1-.15.2a.31.31,0,0,1-.23.25,2.35,2.35,0,0,0-.73.08c-.28.11-.65.17-.8-.06s-.07-.31-.24-.32-.19.11-.3.23-.2.26-.42.23-.24-.11-.4-.24-.17-.29-.5-.27a.84.84,0,0,1-.76-.28c-.15-.21,0-.37.14-.57a.92.92,0,0,1,1-.3c.5.1.41,0,.58-.2a2.65,2.65,0,0,0,.5-1c0-.17-.22-.16-.42-.12s-.11.27-.25.4a.33.33,0,0,1-.48,0c-.15-.15-.34-.3-.34-.48s.24-.33.46-.35a.65.65,0,0,0,.47-.33c.06-.15.14-.23,0-.24s-.31.22-.48.3-.4,0-.57.17c-.41.47-.1.26-.4.44a.92.92,0,0,0-.42.41c-.14.2-.27.41-.57.31s-.26-.23-.66,0c-.18.12-.42.09-.5.15s-.11.2-.26.2-.21-.08-.3-.1a1.1,1.1,0,0,1-.55-.3,1,1,0,0,0-.63-.09c-.25,0-.5-.11-.74.13s-.27.38-.52.28-.52-.56-1.19-.45-.53.08-.8-.05-.25-.14-.44-.06a1.28,1.28,0,0,1-1-.08.93.93,0,0,0-.83-.15c-.33.07-.46.14-.57.33s-.29.43-.53.42-.31-.05-.3-.21.24-.26.35-.33.19-.27-.07-.32-.89,0-1.22,0-.41-.06-.6.14-.19.29-.49.27-.24-.16-.54,0c-.13.05-.12.35-.35.31s-.19-.19-.25-.26-.14-.29.11-.41a.74.74,0,0,0,.39-.47c.07-.2,0-.22-.25-.2a.92.92,0,0,0-.73.35c-.16.24-.19.53-.5.47s-.18-.31-.54-.31-.34-.08-.45-.2a.45.45,0,0,0-.63-.19,1.54,1.54,0,0,1-1.38,0c-.69-.26-.4-.25-.76-.29a1.67,1.67,0,0,1-.94-.4c-.16-.2-.05-.16-1.35-.79s-.71-.25-1.13-.39a1.72,1.72,0,0,1-.79-.46,1.11,1.11,0,0,0-.89-.45c-.58-.08-.59,0-.85-.17s-.31-.12-.43-.1-.08.23,0,.35.35.05.3.29-.39.25-.65.13a.56.56,0,0,1-.37-.49c-.05-.25-.05-.38-.2-.39s-.2.1-.28.22-.21.48-.78.22a9.18,9.18,0,0,1-1.52-.7c-.33-.28-.39-.46-.57-.3s-.31.36-.61.26a2.36,2.36,0,0,0-.75-.25,4.5,4.5,0,0,1-1.32-.22c-.43-.17-.47-.33-.51-.48s0-.44-.21-.48-.23.21-.23.29-.07.47-.34.43a.52.52,0,0,1-.49-.58c0-.39.1-.49,0-.64s-.16,0-.21.07-.09.57-.23.51-.16-.63-.32-.53-.25.18-.14.52.37.39.35.83,0,.18.06.42a2.51,2.51,0,0,1,.19.73,1.29,1.29,0,0,1-.21.83.71.71,0,0,1-.55.41c-.21,0-.37,0-.41-.13s-.07-.22.08-.3.21-.19.13-.43a.51.51,0,0,0-.36-.38c-.14,0-.18,0-.28.26s-.13.3-.39.23a1.49,1.49,0,0,1-.74-.61c-.24-.34-.21-.43-.38-.45s-.31,0-.39-.08a.33.33,0,0,0-.35-.18,1.93,1.93,0,0,1-.88-.18A.82.82,0,0,1,6,17.14a.52.52,0,0,1,.5-.61c.39,0,.51-.07.55-.17s0-.3-.32-.31-.55-.1-.65-.31,0-.32,0-.4,0-.23-.13-.41-.18-.16-.19-.33.23-.28.42-.12a.92.92,0,0,0,.53.28c.15,0,.13-.13.07-.24s-.15-.22,0-.29.39,0,.51-.15.28-.45.51-.36.15.17.32.13.12-.1.17-.18a.38.38,0,0,1,.32-.23.38.38,0,0,0,.35-.2c.12-.15.25-.53.74-.53a2.55,2.55,0,0,1,1.07.25,1.32,1.32,0,0,0,.77.07.22.22,0,0,0,.1-.41c-.74-.5-.74-.08-.92-.82a.58.58,0,0,0-.38-.53c-.36-.15-.37-.19-.36-.35a.79.79,0,0,1,.32-.63c.24-.15.39-.25.61-.06s.18.27.35.28.33-.18.6,0,.34.07.47-.07S12.78,10,13,10a1.25,1.25,0,0,0,.74-.22c.23-.16.28-.24.53-.23s.24-.14.42-.25a1.71,1.71,0,0,1,.89-.08c.28.06.4.4.77.07.05,0-.18-.16-.09-.28a1.34,1.34,0,0,1,1.17-.54A1.66,1.66,0,0,1,18.6,9c.3.24.32.29.46.32s.09,0,.1-.19a1.07,1.07,0,0,1,.33-.64,3.89,3.89,0,0,1,.59-.31.29.29,0,0,0,.09-.28c0-.12,0-.5-.11-.38s-.17.4-.56.46a2.39,2.39,0,0,0-.7.14c-.19.08-.21-.09-.35-.16a.55.55,0,0,0-.32-.09c-.18,0-.4-.12-.39-.31A.51.51,0,0,1,18,7.15c.08-.08.16-.26,0-.51s-.29-.37-.55-.23-.47.45-.58.51a.87.87,0,0,1-1,0c-.43-.35-.39-.42-.39-.42a.34.34,0,0,0-.43,0c-.25.14-.32.23-.56.06s-.38-.3-.53-.16-.3.32-.59.2-.42-.21-.57-.09-.28.18-.41,0-.11-.56.2-.59.39.17.58,0,.13-.35,0-.55S12.88,5,12.39,5s-.64,0-.67-.27.13-.75-.13-1-.28,0-.37.12,0,.55-.31.55-.21-.26-.18-.4.07-.5-.08-.63-.17-.17-.36-.12-.45.12-.6-.11-.16-.27-.37-.39,0,0-.2-.11-.32-.19-.36,0,0,.36-.12.57-.18.26-.34.19-.2-.18-.35,0-.11.12-.1.27.05.22-.11.34a.63.63,0,0,0-.3.5A.5.5,0,0,1,7.3,5,.22.22,0,0,1,7,5c-.12,0-.12-.17-.11-.34S7,4.24,6.89,4s-.36-.36-.4-.63-.07-.47-.3-.49-.29.14-.46.24a1,1,0,0,1-.51.12,2.49,2.49,0,0,1-.6,0A1,1,0,0,1,4.06,3a.68.68,0,0,1-.2-.49A1.23,1.23,0,0,1,4,2.18s.06-.13.28-.11a.39.39,0,0,0,.45-.31c.06-.24,0-.31.2-.45A2.47,2.47,0,0,1,5.35,1a.45.45,0,0,1,.48,0A.28.28,0,0,0,6.2,1S6.31.84,6.56,1a1.25,1.25,0,0,0,.65.16c.25,0,.33-.09.49,0s0,.33,0,.44-.17.26-.06.4S8,2.05,8,2a.27.27,0,0,1,.32-.15c.17,0,.32.14.53-.11s.41-.54.41-.54a.24.24,0,0,1,.33-.09c.23.09.2.11.29.11S10,1.09,10,1,9.83.6,10,.51a.37.37,0,0,1,.4,0,.46.46,0,0,0,.39,0c.08,0,.28-.1.32.14a1.75,1.75,0,0,1,0,.49.3.3,0,0,0,.14.3c.09.06.19.16.34,0s.08-.3.31-.3.25-.17.24-.29,0-.27,0-.37.15,0,.25.06a.21.21,0,0,0,.34,0c.11-.12.13-.3.42-.25s.34.09.58,0,.35-.27.52-.12.07.35,0,.48S14,.81,14,1s.36.11.52-.11.28-.43.47-.38.3.2.44.09a.77.77,0,0,0,.23-.37c0-.15.06-.21.19-.2s.12.08.17.21.13.14.23.11.35-.14.47,0a.62.62,0,0,1-.08.69c-.17.24-.19.32-.12.43s.13.12.24.07.16-.08.29,0,.23.06.26-.19-.05-.37.06-.53S17.92.74,18,1a6.67,6.67,0,0,1,.22.81c.06.22,0,.36.18.38s.17,0,.19-.32-.05-.5.16-.55.33.06.52-.19.22-.24.37-.23.26.15.34.4a.58.58,0,0,0,.41.37c.12,0,.54.19.79-.08a1.75,1.75,0,0,0,.27-.31.31.31,0,0,1,.44,0c.21.14.92.69.92.69a.32.32,0,0,1,.08.45c-.16.29-.09.3,0,.39s.3.11.5.34.28.33.51.36.24,0,.34-.08.28-.06.33.12.08.31.22.34a.42.42,0,0,0,.38-.08.6.6,0,0,1,.7.07c.26.24.35.47.64.59s.41-.11.6,0a.45.45,0,0,0,.49.07.61.61,0,0,1,.7.14c.24.25.17.22.34.24s.17,0,.25-.12,0-.25.22-.34.26,0,.34.18a.7.7,0,0,0,.57.42c.34,0,.32-.08.64.06s.22.3.29.4,0,.2.14.22.18,0,.34-.25.22-.4.34-.42a.32.32,0,0,1,.36.2c.09.19.1.21.26.29s.34.06.42.28-.09.33-.14.43-.15.31,0,.43.35.18.61-.08.43-.52.92-.55a1.92,1.92,0,0,1,1,.11,1.75,1.75,0,0,0,.59.16,2.76,2.76,0,0,1,.77.12c.24.12.3.18.51.11s.27-.19.5,0,.19.13.51.15a1.19,1.19,0,0,1,.85.29c.23.24.19.33.53.37s.55-.14,1.08.13.71.51,1.17.54.85-.09,1.07.11.34.35.49.39a.54.54,0,0,0,.48-.09c.18-.13.31-.19.48,0a1.16,1.16,0,0,0,.79.45A6.43,6.43,0,0,1,46.22,9a1.26,1.26,0,0,0,1.11-.1,1.67,1.67,0,0,0,.27-.33c.07-.07.14-.18.32,0a1.09,1.09,0,0,0,.9.36,1.54,1.54,0,0,0,.74-.24c.23-.14.25-.24.61-.23a1.26,1.26,0,0,0,1-.47c.37-.39.42-.48.51-.58a.57.57,0,0,1,.4-.21,2,2,0,0,1,1.19.1,1.53,1.53,0,0,0,1.4.09,2.5,2.5,0,0,0,1.16-.7c.32-.3.31-.28.53-.25a1.09,1.09,0,0,0,.5,0c.11-.06.12-.18-.07-.26a1.93,1.93,0,0,1-.58-.27c-.16-.13-.12-.3.06-.3a3.61,3.61,0,0,0,.75,0c.3,0,.47-.19.79-.07a1.31,1.31,0,0,0,.65.08.59.59,0,0,1,.6.25c.11.12.24.32.32.4s.24.14.25-.06-.14-.57.17-.83a.78.78,0,0,1,.81-.1.91.91,0,0,0,.58-.06.71.71,0,0,1,.62-.08.67.67,0,0,0,.62-.1.75.75,0,0,1,.59-.18,1.06,1.06,0,0,0,.62-.07.64.64,0,0,1,.57,0,.89.89,0,0,0,.61,0c.16,0,.31-.18.53,0s.18.21.41.23.29-.11.5-.1a.53.53,0,0,0,.45-.24,1.05,1.05,0,0,1,1.1-.14c.49.25.5.16.65.16a2.58,2.58,0,0,1,.83,0,.86.86,0,0,0,.64.07c.33-.08.24-.16.57-.17a.92.92,0,0,1,.51.08c.13.07.24.26.37.24s.16-.14.24-.26a.5.5,0,0,1,.68-.25c.44.17.48.21.78,0s.31-.45,1-.5.68,0,.85,0a.37.37,0,0,1,.43.25,1.79,1.79,0,0,0,.47.6c.14.07.24.11.33,0a.33.33,0,0,0,0-.37.47.47,0,0,1,0-.41c.07-.19.19-.18.47-.17a2,2,0,0,0,.85-.06,2.5,2.5,0,0,1,1.24-.07c.33.09.24.06.52,0s0,0,0,0a2.5,2.5,0,0,1,1-.27,2.42,2.42,0,0,0,.64,0c.12,0,.28-.05.33,0s0,.23-.39.36-.73.2-.76.45.24.36.35.42a2.13,2.13,0,0,1,.41.3.89.89,0,0,0,.59.14c.15,0,.18.09.27.17a1.28,1.28,0,0,0,.59.14,1.12,1.12,0,0,1,.79.25.67.67,0,0,0,.66.19.89.89,0,0,1,.55,0,3.26,3.26,0,0,0,.67.09,1,1,0,0,1,.6.13.88.88,0,0,0,.91.09c.31-.21.23-.37.47-.33s.21.22.22.29,0,.2.35.21.62-.14.85.14.18.31.53.42A1.69,1.69,0,0,0,90,6.73c.54-.14.58-.24.78-.16s.17.27,0,.34-.27.1-.21.2.19,0,.37.24.24,0,.33-.06.13-.24.33-.35a.6.6,0,0,1,.64-.07,1.68,1.68,0,0,0,.44.16c.24.06.31.13.32.38a.47.47,0,0,1-.3.43c-.14.08-.26.16-.19.35a.23.23,0,0,0,.33.13.45.45,0,0,1,.35-.1c.22,0,.39.07.42-.09s0-.14-.06-.24a.35.35,0,0,1,0-.4c.07-.12.15-.16.33-.09a.47.47,0,0,0,.46-.11.29.29,0,0,1,.41,0c.08.14.19.29.31.29s.34,0,.4.08.19.3.24.11A.46.46,0,0,1,96,7.49c.1-.06.34-.15.42,0a.84.84,0,0,0,.41.4c.21.06.31.15.36.07a.34.34,0,0,0,0-.3c0-.13,0-.16.06-.19s.19.15.24.27.11.28,0,.38-.23.27-.09.44.29.24.28.33a.69.69,0,0,0,0,.15l.31.13.17-.35.12.06-.08.25.21.1a1,1,0,0,1-.2.24c-.09.06-.2.31-.25.32a.39.39,0,0,0-.13,0,1.1,1.1,0,0,0,.21.36.24.24,0,0,1,.08.28c0,.06-.06.09-.14.09s-.23.08-.25.15.12.11.19,0a2.7,2.7,0,0,1,.39-.23l.25-.11v-.2l.25-.1s0-.11-.05-.14-.14-.24-.07-.36a1.33,1.33,0,0,0,.1-.48c0-.13.09-.37.2-.4a.25.25,0,0,1,.24,0,.93.93,0,0,1,.17.43c0,.11,0,.3.11.39a1.08,1.08,0,0,1,.24.22s.22.15.13.27-.19.22-.15.3a.68.68,0,0,0,.08.16l.17-.09,0,.07-.16.12.18.29Z"/></g></g></g></svg>