<svg xmlns="http://www.w3.org/2000/svg" viewBox="0 0 36.13 45.79"><defs><style>.cls-1{fill:#d2e288;fill-rule:evenodd;}</style></defs><g id="Layer_2" data-name="Layer 2"><g id="regije"><path id="krapina" class="cls-1" d="M30.31,43.37c0-.52.16-2-.27-2.16,0-.35.17-.61.17-1,1.3,0,.95-1.81.94-2.42-.61,0-1.3-.35-1.74-.35l.09-.17v-.17c.17-.09.26-.35.43-.35v-.26c.35-.34.95-.6,1.3-1v-1.3s.18-.17.18-.26.26-.08.34-.08.18-.26.26-.35c0-1.56-.28-4.24,1.37-5,0-.17.6-.69.78-.69,0-.09.17-.18.26-.18,0-1.21.25-2.59-.45-3.89.51-.78,1.74-2,2.17-2.82-.78-.45-2.6.37-3.16-.2a1.11,1.11,0,0,0-1.43-.13,2.05,2.05,0,0,1-1.79-.32c-1.51-.93,0-2.07-.35-3.24l-1.51-.57a2.43,2.43,0,0,1-.7-1.31c-.35-.91-2-1.12-2.89-1.14-.66,0-1.44.26-2-.16-.82-.62-1.14-2-2.41-1.57-.42.13-.62.73-.89.18a3.29,3.29,0,0,1-.18-1.16c0-.58-.4-1.06-.39-1.64,0-1.4,1.42-3.1.24-4.3-.18-.19-.44-.3-.43-.73s.62-2.27.68-2.92S19.54.71,18.8,0h-.19c-.32,0-1,.5-1,.71a2.81,2.81,0,0,1-.91,1.17c-.31.18-.19.4.05,1s-1.68.8-2.09,1a8.05,8.05,0,0,1-2.57.32,1.88,1.88,0,0,0-1.37.31A5.84,5.84,0,0,1,9,5.17s-.82-.32-1-.24-2.61.31-3.32.48-.13,1.38-.13,1.38a10.51,10.51,0,0,0-.28,1.53,2.16,2.16,0,0,0,.61,1.27.42.42,0,0,1-.15.54c-.13,0-.12.42-.12.77s-.14.46-.63.45-.32,1-.32,1.2a9,9,0,0,1-.17,1,1.77,1.77,0,0,1-.39.61,2.21,2.21,0,0,0-.41.81,7.87,7.87,0,0,1-.13,1.12c-.08.13-.46.57-.65.57s-.64.55-.64.55-.59.55-.78.57A18.89,18.89,0,0,1,1,20.34H.87v.26c-.09,0-.26.26-.26.43H0c.78.61,1.13.35,2,.35l.09.08a.33.33,0,0,0,.08.18l.1,1.64c.08,0,.26.17.26.17a10,10,0,0,0,.36,3.29c.35,0,.7.35,1,.35,0,.17.26.43.35.52V28a1.37,1.37,0,0,1-.78.44.32.32,0,0,1-.08.17l-.08,1.82A7.39,7.39,0,0,1,4,31.94c.26.09.61.6.87.6.18.52-.25,1.91.27,2.17l.18.17c.08.35.61.52.78.87,1,0,1.39.78,1.4,1.64l.26.26c0,.26.06.65.09,1,.35,0,1.56-.44,1.74,0a1,1,0,0,1,.52.26c.08,0,.26.08.34.08.18.52.79.78.79,1.3.7.17,1.48.61,2.09.78,0,.43.44,1.3.44,1.73.09,0,.7.18.7.26h.26a1,1,0,0,1,.26.69,4.12,4.12,0,0,1,.26.61,2.28,2.28,0,0,1,1.17,1.47l.23-.08v-.18c.17,0,.34-.08.34-.17h.26c0-.09.09-.35.09-.43h.09c0-.18.08-.61.08-.78a.18.18,0,0,0,.17-.17h.35v-.35c.08,0,.34-.43.34-.52h.7c0,.17.26.26.35.26a.38.38,0,0,0,.34.35A.56.56,0,0,0,20,44H21.2V43.8a2.17,2.17,0,0,0,.43-1.21,3.54,3.54,0,0,0,.78-.43c0-.09.09-.26.18-.26a1.25,1.25,0,0,1,.25-.61h.44c.08.09.17.26.26.35h.95v.78l-.18.08c0,.26-.08.26-.25.35v1.21c.26,0,.52-.08.78-.08,0-.09.17-.26.17-.35h.7a1.1,1.1,0,0,0,.78.35c0-.09.17-.35.26-.35a.49.49,0,0,1,.17-.35Z"/></g></g></svg>