<svg xmlns="http://www.w3.org/2000/svg" viewBox="0 0 20.84 41.44"><defs><style>.cls-1{fill:#2e783b;fill-rule:evenodd;}</style></defs><g id="Layer_2" data-name="Layer 2"><g id="regije"><path id="krasic" class="cls-1" d="M19.47,41.44c0-.25.15-1.25.15-1.5.08,0,.08-.74.08-.91l.08-.08c.42,0,.16-.83.16-1a.92.92,0,0,1-.42-.33h-.24c-.26-.33-.84-.42-1.09-.67,0-.25.08-.49.08-.66a.54.54,0,0,0,.41-.33.74.74,0,0,0,.59-.33c.08,0,.25-.09.33-.09l1.24-.91V34a2.7,2.7,0,0,1-.5-.34H20c0-.08-.17-.25-.25-.33h-.17a.44.44,0,0,1-.17-.33c-.25,0-.17-.42-.17-.58-.16,0-.25-.34-.33-.42h-.09l-.08-.25c-.17,0,0-.08-.17-.08a.4.4,0,0,0-.17-.33c-.16,0-.41-.09-.58-.09V31c.08,0,.17-.17.17-.34.5,0,1.33-.33,1.91-.33l.17-.16c0-1.67-.77-3.58-.19-5.24a8,8,0,0,1-.27-3.15c-.08-.09-.25-.25-.25-.42-.58,0-1-.83-1.67-.83A3.77,3.77,0,0,1,17,19.1c-.42-.17-.84-2-1.34-2,0-.09-.08-.17-.09-.25l-.16-.09a5.25,5.25,0,0,1-.68-2.9c.17,0,0-.08.17-.08,0-.17.24-.5.24-.67,1-.66-.43-2.66-.59-3.32a7.83,7.83,0,0,1-1.76-.75V8.22c.08,0,.42-.25.41-.41a.86.86,0,0,0,.59-.34c.08,0,.16-.16.16-.33.08,0,.25-.16.33-.25s.5-.08.67-.08c0-.17.08-.33.16-.33V6.31c.09-.08.5-.5.67-.5a.71.71,0,0,1,.49-.66c.09-.25.25-.42.25-.58.08,0,.5-.17.5,0,0-.5.24-1.66-.26-1.83V2.58c-.5-.5-1.33-.67-1.83-1.17-.59,0-1-.33-1.5-.33A1.56,1.56,0,0,0,12.37.75C12,.33,11,.42,10.54,0l-.08,1.16h-.34c0,.09-.91.33-1,.33s-.08.34-.25.34c0,.08-.08.25-.08.33-.67,0-.66,1.08-.75,1.49H8a3.18,3.18,0,0,0,1.1,2.91c0,.17.08.5.25.58l-.07,3.32c-.08,0-.08.09-.08.17s-.25.16-.34.16c0,.5.26,1.08.26,1.58.08.09.33.17.34.42.08,0,.33.33.41.33v2.74c-.49,0-1.16,0-1.16-.66l-.17-.09c0-.08-.08-.16-.09-.25-.33,0-.91-.25-1.24.09v.33c-.5.25-1.17.08-1.67.33,0,.17-.16.33-.16.5-.08,0-.42.25-.42.33H4.78c-.42.42-1.25.33-1.83.33,0,.09-.17.25-.17.33-.66,0-.75.17-1.25-.33H1c-.08.09-.17.17-.17.25s-.16.08-.25.08-.24.34-.33.34-.2,1-.2,1.1.62,1.07,1,1.24,0,.83-.48.92-.4.39,0,.63.16.83.62.81,1.06.61,1.52.91.05,1,.31,1.33-.11.8-.11.8-.53.52-.17.79.43-.06.83-.32.87-.12.86.28a2.21,2.21,0,0,0,.78,1.33A3.9,3.9,0,0,0,7.32,28,2.54,2.54,0,0,1,9,29.17c.33.5.79.41,1.46.38S11.8,30.53,12,31a1.08,1.08,0,0,1,0,1.13,1.75,1.75,0,0,0,.12,1.33,3,3,0,0,1-.22,1.69c-.17.43-.54.65-1,1s-.24.69.12.76a.74.74,0,0,1,.62.71c0,.33.46.57,1,.77s.93-.18,1.17-.68,1,.25,1.49.52a1.46,1.46,0,0,1,.75,1c.13.43.42.64.79.37s1.06.58,1.06.58.29.47.65.47S19.07,41.4,19.47,41.44Z"/></g></g></svg>