<svg xmlns="http://www.w3.org/2000/svg" viewBox="0 0 71.91 94.51"><defs><style>.cls-1{fill:#f26d68;fill-rule:evenodd;}</style></defs><g id="Layer_2" data-name="Layer 2"><g id="regije"><g id="krk"><path class="cls-1" d="M23.47.54s-.2.34.07.54.56,0,.89.65a7.11,7.11,0,0,0,.64,1c.25.32.33.45.55.45s.21-.19.2-.35-.27-.29-.32-.38a1.7,1.7,0,0,1-.33-.76,1.32,1.32,0,0,1,.1-.7c.09-.17.17-.38,0-.54a1.09,1.09,0,0,0-.7-.47.63.63,0,0,0-.58.1A1.66,1.66,0,0,0,23.47.54Z"/><path class="cls-1" d="M59.7,81.77a.28.28,0,0,1,.25,0c.09.07.23.24.42.24s.36-.13.5,0,.39.44.6.47a.69.69,0,0,0,.46-.06.89.89,0,0,1,.4-.16c.18,0,.31,0,.26.17s-.13.21,0,.3.35,0,.35.17-.14.26-.07.41a.28.28,0,0,0,.39.13c.17-.07.35-.3.54-.19s.4.38.59.48.31.1.38.2.06.25.18.37a3.82,3.82,0,0,1,.27.32c0,.11.09.23.25.24s.31,0,.46.14.17.32.39.36.35,0,.46.12.19.26.34.3.41,0,.56.24.15.7.35.77.45,0,.59.12.1.25.1.43a.6.6,0,0,0,.16.44c.11.11.52.36.57.57s.1.27.27.31.33,0,.52.19.27.36.26.47a.18.18,0,0,1-.17.17c-.09,0-.2,0-.23.08s0,.21-.08.28a.2.2,0,0,0,0,.29c.09.1.22.18.26.33s0,.35.24.41.36.06.39.28,0,.26.16.37.32.22.2.4-.08.28,0,.5.3.38.31.64-.09.28,0,.52a.43.43,0,0,0,.18.31.57.57,0,0,1,.18.37c0,.17-.13.27-.29.16a1.46,1.46,0,0,0-.32-.21,1.69,1.69,0,0,1-.46-.25c-.1-.1-.31-.44-.57-.45a.74.74,0,0,1-.51-.13c-.14-.11-.1-.39-.39-.37a.63.63,0,0,1-.5-.2,8.55,8.55,0,0,0-1.12-.81c-.46-.25-.65-.31-.93-.46s-.79-.5-.92-.58-.18-.15-.33-.15a.6.6,0,0,1-.38-.16c-.07-.09-.22-.3-.38-.31s-.19-.07-.28-.18-.18-.29-.39-.31a1,1,0,0,1-.51-.26l-.34-.27a.4.4,0,0,0-.4-.08.54.54,0,0,1-.49,0c-.25-.06-.22-.08-.38-.08s-.28,0-.28-.2.06-.27-.13-.45-.15-.13-.43-.26a1.22,1.22,0,0,1-.42-.26,3.21,3.21,0,0,0-.55-.49c-.19-.11-.22,0-.26-.2s0-.15-.1-.23a.37.37,0,0,1-.1-.38.8.8,0,0,0,0-.59c-.11-.16-.16-.22-.15-.37a.32.32,0,0,0-.1-.32c-.11-.11-.24-.17-.18-.3s.2-.16.19-.31-.23-.28-.11-.41.18-.18.15-.34a.32.32,0,0,1,.08-.3c.06-.06.11-.12.08-.32a2.26,2.26,0,0,1,0-.5c0-.15.1-.28,0-.44a1.07,1.07,0,0,1-.17-.51A.33.33,0,0,1,59.7,81.77Z"/><path class="cls-1" d="M9.24,69s-.13-.35.3-.36a1.88,1.88,0,0,1,1.15.25c.54.27,1.13.83,1.5.87s.5-.09.75-.07.27.06.46-.05a2,2,0,0,1,.65-.29,1.08,1.08,0,0,0,.71-.4c.15-.23.56-.7.63-.87s.13-.32.41-.24.19.19.34.42.09.34.36.49.16.06.31.17a.68.68,0,0,0,.36.16c.16,0,.45,0,.52.05s0,.19-.12.21a.29.29,0,0,0-.25.28c0,.19.09.22.27.35a3.52,3.52,0,0,1,.36.29,5.37,5.37,0,0,1,.48.46c.1.14.08.29.29.35s.31,0,.58.31.3.29.37.68.07.32.22.46a2.33,2.33,0,0,1,.53.68c.14.32,0,.23.14.39s.18.19.17.32,0,.36.1.43a.65.65,0,0,1,.38.34,2.47,2.47,0,0,0,.19.37c.08.13.14.16.1.28s-.18.05-.26.2a.66.66,0,0,1-.62.34c-.36,0-.52,0-.67,0a.33.33,0,0,0-.34.13c-.14.13-.31.5-.56.4a2.25,2.25,0,0,0-.48-.12c-.24-.06-.35-.21-.61-.34s-.38-.19-.33-.32.12-.3.05-.35-.14,0-.23,0a.72.72,0,0,1-.35.07.24.24,0,0,1-.13-.23.14.14,0,0,0-.16-.17c-.09,0-.44.08-.5-.14s0-.26.14-.35a.25.25,0,0,0,.11-.27.19.19,0,0,0-.31,0c-.15.13-.31.45-.52.33a3.23,3.23,0,0,1-.5-.4c-.12-.11-.19-.2-.15-.31s.11-.19,0-.31-.23-.08-.47-.27a.7.7,0,0,1-.28-.44.64.64,0,0,0-.43-.34,1.15,1.15,0,0,1-.58-.2.59.59,0,0,0-.43-.24.72.72,0,0,1-.52-.2c-.14-.15-.19-.27-.41-.31a.79.79,0,0,1-.51-.24c-.18-.17-.23-.38-.46-.48a1.11,1.11,0,0,1-.44-.3c-.05,0-.05-.09-.05-.17,0-.27-.29-.22-.43-.33s-.13-.24-.26-.38-.28-.15-.37-.26A1,1,0,0,1,9.24,69Z"/><path class="cls-1" d="M34.38,60.87c-.25.26-.4.29-.54.67a2.46,2.46,0,0,0-.17.53.86.86,0,0,0,.1.69,4.8,4.8,0,0,1,.27.78,7.24,7.24,0,0,0,.35,1,1.31,1.31,0,0,1,0,1.22,1.09,1.09,0,0,0,.07,1,1.23,1.23,0,0,1,.12.83c0,.25-.36.36-.74.36s-.66.32-1.09.62-.33.68-.2,1.07a2,2,0,0,0,.9.89,1,1,0,0,0,.76.11c.2,0,.25.18.32.31a.37.37,0,0,0,.33.25c.22,0,.24.11.47.28s.3.1.51.11.17.2.17.39,0,.2.28.35.28.09.52.09.15.2.15.42.25.24.58.34.25.08.57,0,.18.19.26.42.23.3.68.34a2.89,2.89,0,0,0,1-.07c.54-.07.54-.42.75-.58s.21.18.39.27.2-.13.4-.14,0,0,.31.15.69,0,.93.07a1.3,1.3,0,0,1,.92.49c.27.35,1.44,1.54,1.67,1.88s.29.31.25.63-.43.56-.44.79.2.42.51.49a.53.53,0,0,0,.57-.11c.2-.15.27.09.27.21a.16.16,0,0,0,.18.17c.26,0,.26-.36.48-.38s.19.26.5.55a1,1,0,0,0,.73.36c.33,0,.1.39.12.6a.3.3,0,0,0,.39.25,3.64,3.64,0,0,1,.92,0,2.36,2.36,0,0,1,1,.67c.23.24.23.18.49.27a5.61,5.61,0,0,1,1,.38,3.34,3.34,0,0,1,1,.66c.2.17.33.09.33,0s-.22-.2-.25-.32.11-.24,0-.32,0,.08.18.26.22-.09.62,0c.16,0,.15-.21.34-.32s.17,0,.19.2.14.19.51.25.39-.23.53-.44.31,0,.43.07.16,0,.23-.12.18-.08.45,0,.31,0,.43-.1a.8.8,0,0,1,.49-.2,1.46,1.46,0,0,0,.63-.26.29.29,0,0,0,.06-.47c-.16-.17-.12-.3,0-.57s-.27-.59-.45-.78a2.13,2.13,0,0,1-.39-.69,1.66,1.66,0,0,0-.29-.49c-.12-.13-.2-.23-.5-.6a11.47,11.47,0,0,1-.92-1,.46.46,0,0,1,.08-.67c.19-.12.08-.38.09-.67a1.09,1.09,0,0,1,.4-.63,2.1,2.1,0,0,0,.35-.45c.16-.25.44-.26.85-.31a2,2,0,0,1,1,.12c.4.13.69.55.92.65a.28.28,0,0,0,.42-.15.7.7,0,0,1,.5-.32c.26,0,.33.17.43.32s.18.09.36.09a1.39,1.39,0,0,1,.53.22.91.91,0,0,0,.5.17c.2,0,.2,0,.39.2a.87.87,0,0,0,.6.11c.19,0,.2.08.4.2s.32,0,.51,0a.42.42,0,0,1,.36.11c.11.09,0,.08.37.19s.31-.09.39-.23.19-.07.35,0a.43.43,0,0,0,.43,0,.87.87,0,0,1,.37,0c.18,0,.25-.3.26-.46s0-.28-.08-.34-.13-.12-.11-.19a1.36,1.36,0,0,1,.3-.4c.13-.15.18,0,.4,0s.18-.22.13-.37a8.75,8.75,0,0,0-.74-1,5.07,5.07,0,0,0-.74-.95,2.61,2.61,0,0,1-.66-1.11c0-.16-.17-.37.16-.49s.4.26.7.62a2.72,2.72,0,0,0,.86.74c.53.35.34.48.55.81s.36.56.58.86.45.28.71.4,0-.35-.09-.56.11-.32.14-.57a1,1,0,0,0-.11-.57c-.09-.21,0-.22,0-.41s0-.34-.18-.48-.19-.19-.21-.39-.16-.28-.32-.39-.14-.26-.15-.49a.55.55,0,0,0-.23-.46c-.16-.16-.14-.2-.15-.44s0-.29-.54-.56-.32-.51-.71-.7a2.38,2.38,0,0,1-.6-.39c-.24-.18-.58.14-.62.33a.62.62,0,0,0,.18.45c.06.09.25.2.32.36s.11.35-.12.32-.43-.34-.52-.58-.27-.24-.41-.44.12-.37.22-.52.14-.16.13-.35,0-.22.12-.26.1-.16,0-.27a2.4,2.4,0,0,0-.52-.51,3.71,3.71,0,0,0-1.11-.66,1.67,1.67,0,0,1-.83-.64c-.21-.2-.47-.11-.86-.16a2.93,2.93,0,0,1-1.24-.64c-.23-.21-.26-.19-.46-.37s-.16-.38-.18-.81S59.3,61,59,60.87A2,2,0,0,1,58,60c-.26-.43-.28-.32-.38-.75s-.07-.3-.4-.42-.21-.49-.51-1.15A9.7,9.7,0,0,0,55.34,56a1.07,1.07,0,0,1-.11-.84c0-.27,0-.24-.08-.39a.93.93,0,0,1-.13-.47.64.64,0,0,1,.2-.46c.15-.17.05-.33,0-.58s.32-.35.42-.42.28-.16.14-.37-.2,0-.37-.13,0-.26,0-.32.11-.13.11-.29.22-.21.24-.35-.07-.22-.2-.33-.24,0-.3.07a.31.31,0,0,1-.35.07c-.17-.07-.08-.29-.16-.48s-.15-.24-.33-.25-.13.22-.18.34-.13.06-.15,0a1.07,1.07,0,0,1-.29-.34c-.06-.17,0-.24,0-.24a1.84,1.84,0,0,0,.25-.22c.12-.11.09-.11.17-.32a2.83,2.83,0,0,1,.44-.59.29.29,0,0,0,0-.4,3.53,3.53,0,0,1-.34-.31c-.12-.12,0-.21.06-.28s.1-.14,0-.2a2.24,2.24,0,0,0-.41-.29.45.45,0,0,0-.55.2c-.11.15-.33.07-.43.18s0,.33,0,.5a.41.41,0,0,1,0,.36.51.51,0,0,1-.41.27c-.21,0-.24-.16-.32-.37s-.12-.18-.25-.34A1,1,0,0,1,52,47.9c0-.24-.2-.2-.38-.29s-.25-.27-.4-.5a.5.5,0,0,0-.55-.17,1.23,1.23,0,0,0-.55.31c-.12.16-.06.32-.07.45s-.36.3-.49.41a.38.38,0,0,0-.13.37c0,.12,0,.22-.15.22a.79.79,0,0,1-.41-.22c-.14-.11-.21,0-.38,0a.74.74,0,0,1-.56,0,4.09,4.09,0,0,1-1.26-.82,8.45,8.45,0,0,0-.73-.58,4.33,4.33,0,0,1-.64-.61.16.16,0,0,0-.28.06s-.1.18-.32,0-.1-.43-.18-.61-.28-.08-.47-.11-.36-.22-.47-.3a1.41,1.41,0,0,0-.44-.23c-.15,0-.22-.1-.23-.23a.83.83,0,0,1,.21-.42.51.51,0,0,0,.15-.3c0-.15-.1-.28-.19-.38a.57.57,0,0,0-.35-.16c-.15,0-.26-.1-.26-.26s.15-.35.13-.49-.14-.22-.29-.35-.41-.39-.55-.53-.25-.26-.21-.41.18-.15.31-.17.17-.07.18-.24-.18-.18-.33-.23-.24-.09-.27-.21.07-.21.17-.31a.41.41,0,0,0,.12-.34.45.45,0,0,0-.26-.47c-.13-.08-.17-.08-.22-.29s.15-.16.33-.15.22,0,.25-.18,0-.22-.13-.37,0-.24,0-.46.77.19.84-.1-.7-.26-.72-.37.09-.33.26-.82-.26-.68-.41-.83-.11-.17-.14-.47a.51.51,0,0,0-.43-.41c-.07,0-.13.06-.21-.15s.15-.23.21-.5-.19-.36-.28-.54,0-.28.14-.36.19.1.48.35.31.2.53.17a.58.58,0,0,0,.47-.5c.06-.29-.17-.37-.27-.58s0-.36.26-.52.26,0,.44.13.3-.08.41-.24a.73.73,0,0,0,.14-.45.85.85,0,0,1,.16-.51c.17-.31.52-.35.79-.41s.32-.22.18-.59-.38-.13-.63-.26-.07-.35,0-.56a.4.4,0,0,0,0-.5c-.14-.18-.38,0-.55,0s-.19-.21-.12-.4.34-.22.46-.23.34-.09.25-.23-.12,0-.33-.08,0-.35.09-.38a.48.48,0,0,0,.34-.23c.13-.19-.12-.36-.36-.54s-.19-.51-.17-.8,0-.32-.07-.42a1,1,0,0,1-.2-.5c0-.2.07-.16-.19-.39s-.46-.06-.45.13.21.39.35.61,0,.44-.15.72,0,.63,0,.84-.32.19-.62.19a.9.9,0,0,1-.72-.24c-.24-.24-.41-.12-.74-.17s-.09-.23-.28-.61-.63-.08-.92-.12-.17-.35-.08-.51.22-.21.13-.51-.17-.31-.38-.38-.16-.09-.3-.31a.46.46,0,0,0-.31-.25c-.15-.05-.09-.12-.34-.23s-.26.06-.34.21-.09.15-.28.13-.27-.23-.29-.43.13-.28.08-.3-.16.2-.33.17-.47.2-.66.34-.43.08-.9.09a1.78,1.78,0,0,0-1.14.52c-.34.28-.36.37-.38.47s.07.27-.08.36-.21-.13-.37-.17-.26.18-.43.39a2,2,0,0,1-1,.43,1,1,0,0,0-.63.35c-.09.12-.43.3-.57.18l-.42-.34.44-.51L31,26.22l-.43.5-.18-.19-.26-.13c-.12,0,.07-.55.31-1s.34-.31.61-.59.15-.32.13-.62.37-.33.5-.53,0-.32,0-.51,0-.34.36-.42.16-.46.09-.69,0-.37.25-.39.67.36,1.08.62.54,0,.74-.12.41,0,.65.15.23.15.48.13.23.32.13.64.21.43.39.4a2.48,2.48,0,0,1,.48-.09c.14,0,.19,0,.18-.23s-.07-.26-.3-.5a2.28,2.28,0,0,1-.32-1.05,3.89,3.89,0,0,0-.43-1,3.27,3.27,0,0,1-.3-.73c-.06-.16-.07-.41-.2-.36s-.11.29-.11.29a.38.38,0,0,1-.32-.22c-.08-.22,0-.32.13-.52s0-.39-.25-.69a.94.94,0,0,0-.6-.38c-.33-.11-.49-.18-.54-.36s.14-.25.35-.3.22-.08.19-.69a1.22,1.22,0,0,0-.34-1,2.71,2.71,0,0,1-.44-.57c-.15-.25-.32.09-.53,0s-.05-.24-.24-.76a3.6,3.6,0,0,0-.58-1.3,6.15,6.15,0,0,1-.78-1.43c-.36-.73-.94-1.34-1.53-2.29S28,7,27.89,6.82A.6.6,0,0,1,28,6.21c.16-.1.4.06.6.19a11.73,11.73,0,0,0,1,.66c.33.17,1.43.8,1.65.89s.42,0,.4-.18-.86-1-1.09-1.3-.88-1.19-1-1.37a.61.61,0,0,1-.08-.46c0-.06.11-.16,0-.26s0,.25-.32.25c-.11,0-.15-.2-.33-.31s-.28-.07-.46-.15-.49-.29-.63-.33c-.37-.12-.59-.29-.69,0a2.38,2.38,0,0,0,.21,1.12c.08.21.25.54-.16.53s-.16-.08-.5-.35-.44-.21-.9-.54-.73-1-1-1.28-.34-.17-.64-.21-.46-.23-.68-.33-.56,0-.58.21a1.17,1.17,0,0,0,.29.6c.09.11.17.22,0,.26s-.33-.34-.47-.45-.09,0-.15.15.15.28.24.37-.07.29-.25.39-.16.39-.16.53.19.25,0,.34-.48-.18-.78-.42-.6,0-.91.17-.57-.14-.71-.08.19.43.19.43c.09.21.77.54.93.7s.09.32,0,.49-.19.31-.09.41a.3.3,0,0,0,.38,0c.05-.07.07-.13.45-.06s.07.46.32.85a2.31,2.31,0,0,1,.11,1.27c0,.26.12.29.11.53s-.21.17-.14.52a2.06,2.06,0,0,1,0,.86c0,.31-.14-.08-.28,0s.17.27.17.47.42.46.39.54c-.06.24-.63.14-.75.1s-.65-1-.75-1.25-.43-.66-.7-1.08a16.28,16.28,0,0,1-.8-1.45,4.46,4.46,0,0,1-.5-1c-.07-.33-.2-.64-.32-.52a3.34,3.34,0,0,0-.39.6c-.23.39-.06.49.13,1.19a3.15,3.15,0,0,1,.18,1.18c0,.43.56.58.9.94a18.56,18.56,0,0,1,1.07,1.71,3.34,3.34,0,0,1,.4.84c.14.32,0,.29.2.44.4.35.15.53-.17.43-.15-.05-.12-.05-.21-.3s-.31-.27-.61-.38-.4.22-.61.45-.32.25-.37.38c-.12.31,0,.49.11.78a1.94,1.94,0,0,1,.11.82,2.56,2.56,0,0,0,.11,1c.13.68-.08.52-.26.8s-.05.55,0,1,.13.39.35.66,0,.55.07.79.39.25.57.34.26.51.33.86.36.46.51.76,0,.49-.2.74-.38,0-.61,0-.28.49-.31.65-.51.37-.67.59-.28.51-.4.74a1,1,0,0,0-.11.51,2.89,2.89,0,0,0,.08.72c0,.27-.48.4-.79.47s-.2-.2-.29-.46-.29-.14-.38,0-.14.17-.38.24-.33,0-.32.15a.54.54,0,0,0,.39.44c.22.06.37.31.61.53a.88.88,0,0,1,.14,1,2.81,2.81,0,0,0-.14,1.11,1.53,1.53,0,0,1-.21.84c-.13.26-.11.29,0,.88s-.18.77-.23,1,.3.61.26.76-.05.11-.34.27-.32.29-.44.51-.1.19-.56.23-.57.37-.79.67-1.16.12-1.51,0-.15.21-.3.34-.21,0-.51-.16a4.56,4.56,0,0,1-.88-.67c-.49-.42-.37-.48-.55-.86s-.7-.27-1.1-.37-.37-.12-.54-.47-.41-.07-.41-.07-.13.22-.33.2-.12-.19-.15-.33,0-.31-.43-.34-.59.55-.73.94-.46.58-1.08,1-.38,1.06-.36,1.48a.9.9,0,0,0,.47.7c.18.15.14.34.17.77a10.55,10.55,0,0,0,.29,1.33,1.21,1.21,0,0,1-.31,1c-.24.29-.76.27-1.19.28a9.73,9.73,0,0,0-1.22-.09c-.45,0-.63.14-.65.25S4,40,3.85,40a.67.67,0,0,1-.49-.12,1.56,1.56,0,0,0-.71-.16,1,1,0,0,0-1,.5c-.11.2-.44.2-.68.2s-.25.21-.25.69-.3.27-.41.48,0,.43-.09,1a4.75,4.75,0,0,1-.23.72,2.43,2.43,0,0,0,.3,1.3c.09.19-.06.56,0,.79s.22.31.22.42a1.22,1.22,0,0,0,.1.47,2,2,0,0,1,.16.56c0,.27.27.43.4.63s.21.18.41.18.22.3.27.42,0,.13.3.38a.51.51,0,0,0,.69.11.76.76,0,0,1,.44-.11c.15,0,.22.05.2.19s-.31.05-.5.2A.43.43,0,0,0,3,49.6c.26.21.63,0,.78,0s.16,0-.06.16-.28.05-.37.27.3.49.52.72.13.22.31.56.32.34.49.52a2,2,0,0,1,.37.54c.12.23.16.25.66.67s.56.28.61-.23c0-.15,0-.36.22-.32s.34.4.37.58,0,.25-.17.44-.22.24-.18.45.22.12.44-.05.25.11.24.23,0,.19.09.25.29-.19.49-.33.39-.1.39,0-.28.31-.41.49a.59.59,0,0,0,.12.73.85.85,0,0,0,.7.2c.21,0,.25.33.16.46a.25.25,0,0,0,.2.36.64.64,0,0,1,.42.28c.14.17.26.13.48.16s0,.29-.05.45,0,.35.26.42.27.18.6.27.42-.33.47-.47.11-.36.33-.34.09.36.05.46a.51.51,0,0,0-.13.57c.1.41-.06.49.21.69a2,2,0,0,0,.45.1c.31.08.63.38.84.33s.21-.55.26-.75,0-.25.2-.26.21.1.46.29a2.13,2.13,0,0,0,.88.26c.27.07.34.27.46.47s.29,0,.47.07,0,.31-.05.42.21.15.42.36.19.23.4.44.39,0,.37-.23-.25-.38-.15-.57.28-.13.45,0a.37.37,0,0,1,.09.45c-.05.14-.09.23.15.3s.11,0,.33-.26.3,0,.41.07A1.59,1.59,0,0,0,19,61a6.49,6.49,0,0,0,2,0c.71-.08,1.26.41,1.59.42a1.12,1.12,0,0,0,.58-.21c.15-.08.25-.08.33-.2a2.2,2.2,0,0,0,.29-.48c0-.13.15-.29.43-.47a4.49,4.49,0,0,1,.64-.26c.15-.08.3-.16.3-.27s0-.3-.11-.33-.16,0-.12-.14.09-.18.09-.18l.52-.12v-.14l-.82.16s-.42-.19-.24-.28a1.8,1.8,0,0,1,.52-.09.7.7,0,0,0,.49-.14c.17-.16.29-.42.39-.41s.22.05.16.22a.26.26,0,0,0,.16.36c.18.06.41.24.54.17s.19-.19.3-.19.19,0,.07.17-.13.18,0,.22.27,0,.35,0,.2-.22.19-.05.06.37.15.36.23.16.24.31c.21.37.54.31,1.11.59.39.19.55.11.73.19s.16.2.28.27c.41.19,0,.06.35.34s.61.07.8,0,.09.13.29.24,1.14.23,1.49.33a.64.64,0,0,0,.75-.65.9.9,0,0,0-.38-.78.59.59,0,0,1-.29-.5c0-.25,0-.25-.21-.4a2.73,2.73,0,0,0-1-.23,1.22,1.22,0,0,1-.84-.62c-.16-.36.25-.42.45-.88a5.44,5.44,0,0,1,.35-.83,1.22,1.22,0,0,1,.48-.5c.25-.18.35-.42.52-.57a7.21,7.21,0,0,1,.66-.48.34.34,0,0,1,.38-.07c.19.1.38.24.45.26s.17.14.27.3a3,3,0,0,1,.31.78.67.67,0,0,1,0,.33l-.09.16h-.32v.63l.28,0-.07.24h-.28l.1.48h.23l0,.32-.05.17-.19,0v.23l.18,0a3.38,3.38,0,0,0,0,.37,1.32,1.32,0,0,1-.09.41.79.79,0,0,0,0,.46,1,1,0,0,1,0,.58A1.94,1.94,0,0,1,34.38,60.87Z"/></g></g></g></svg>