<svg xmlns="http://www.w3.org/2000/svg" viewBox="0 0 106.37 63.67"><defs><style>.cls-1{fill:#faa74a;fill-rule:evenodd;}</style></defs><g id="Layer_2" data-name="Layer 2"><g id="regije"><path id="kutjevo" class="cls-1" d="M15.43.44c0,.19-.63-.6-.82-.41-.76,0-1.91.38-2.67.38,0,.38-.19,0-.19.57h-.57c-.38.38-.57.76-.95.76,0,.57-3.23,3.43-3.8,3.81,0,.19-.19.76-.38.76,0,.19-.37,1.52.2,1.52,0,2.09.59,4.19.6,6.09-.39,0-1.72,1.14-1.71,1.52H4.75l-.19.38c-.76,0-1.71.38-2.47.38a.66.66,0,0,1-.19.38c0,.76-.57,1.33-.76,1.9H.57c0,.38-.19,0-.19.57L0,19.24V20H.38c0,.19.39.38.58.57a2.31,2.31,0,0,0,.39,1c0,.76-.18,3.42.2,3.8.19,0,.38-.76.76-.76V23.24a2.17,2.17,0,0,1,1.14-.57c0,.76.39,2.47,1,2.66,0,.77.39,1.91.4,2.67.19,0,.57.38.76.38,0,.76.77,1.71.78,2.28H9.4s.58,1.14.77,1.14v.38h.38c0,.39-.19.58.19.77,0,.38.39.95.39,1.33l.38.19a.65.65,0,0,0,.2.38v.38a1.29,1.29,0,0,1,.21.2l.12,0c0-.11.22-.33.34-.44h.22c0-.46,1-1,1.12-1.58V33c.34,0,.56-.45.9-.56a13.84,13.84,0,0,1,.89-2.81c2.71-1.35,2.61,2.25,3.63,3.26a5.36,5.36,0,0,0,3.38-.79,2.08,2.08,0,0,1,1.13-.22c.34.56.79.56,1.47.56,0,.11.23.68.23.9.22,0,.56-.11.79-.11a.25.25,0,0,1,.22-.23c0-1.57,1.46-2.47,2-3.71a.38.38,0,0,0,.22-.11c.12,0,.45-.11.57-.11a27.1,27.1,0,0,0,0,3.37c.23,0,.45.34.45.45s.23.12.34.12a3,3,0,0,0,.57,1.35h.23c0-.12.34-.45.45-.45v-.23c.11,0,.33-.22.33-.22,1.36,0,2-1,3.16-1,0,.23.34.79.45.79,0,.56,1.7.56,2,.56.11-.11.22-.33.34-.33v-.34a4.61,4.61,0,0,0,1.13-1.35c.56,0,.67-.79.67-1.24a21.27,21.27,0,0,1,2.59-.45c.45.11.57.11.79.45l.23.11c0,.12.11.23.11.34.91,0,2,.9,3.06.9a4.26,4.26,0,0,1,.8,2.59c1.35.23,3.27-.34,4.85-.34,0,.23.11.68.11,1a.83.83,0,0,0,.68.34,3.45,3.45,0,0,1,.34.45c0,1.23.58,3.26,1.71,3.82v.56h.9c.11-.22,1-2,1.23-2,1.48,3,.93,6.75,1.85,10.13l.11.22h.23c.34.34,2.82.9,2.82-.22.34,0,.56.22.9.22.11-.33.11-1.12-.34-1.23-.12-.45-.68-.68-.91-1-1-1.46-.24-4.5-.25-6.07a1.67,1.67,0,0,0,.45-.23c.34,0,.79-.11,1.24-.11a.39.39,0,0,1,.23-.11c0-.45.45-.79.44-1.24.23-.11.45-.45.68-.45,0,.9-.44,2.92.13,3.49h.33l.23.22v.34c.23,0,.68.11.91.11s.22-.11.45-.11l.11.11c0,.45.34,1,.34,1.35a2.44,2.44,0,0,1,1.93.9c0,.57.34,1.24.34,1.58h1.36a5.87,5.87,0,0,0,.23,1.57c0,.45,0,.79-.34.9,0,.12-.11.23-.11.34l-.22.11c0,.34.11.68.11.91l.23.11c0,.34.23.67.23,1a.39.39,0,0,1,.11.23c1,.45.12,1.8,0,2.36.12.22.12.79.23,1a1.49,1.49,0,0,1,.68.23c0,.33.23,1,.23,1.46a1,1,0,0,1,.12.34c.11,0,.45.56.68.56,0,.11.44.49.45.9a1.35,1.35,0,0,0,.84-.21c.7-.44,4.73.36,5.26.51a5.13,5.13,0,0,0,2.52,0,2.4,2.4,0,0,1,1.64.17s4.39.78,6.45,1.07a15.64,15.64,0,0,1,4.15,1.34c.43.92,2.1,1.33,3,1.49a5.51,5.51,0,0,1,2.26,1.07v-.19c0-.28.92-.67.92-1.1,0-.71.75-.85.76-1.44s.29-.68.55-1.08c.47-.68.83-.25,1.15-.56a6.36,6.36,0,0,0,1-2.29c.33-1.28,2.15-1.26,2.58-2.13.15-.29.1-.94.22-1.28a1.52,1.52,0,0,0-.75-1.64c-1.07-.55-1.7-.56-1.45-2.07A4.67,4.67,0,0,0,103,47.34c-.53-.74-.48-2-1.62-2.29L99,44.5c-1-.21-1.1-.49-.72-1.26a8.87,8.87,0,0,1,2.1-2.31,9.39,9.39,0,0,1,2.72-1.65c.6-.28,1.62-.15,2.14-.66.89-.87.47-1.33.49-2.41,0-.6-.39-1-.38-1.6s-.1-1.26-.78-1.26c-.4,0-1.19-.13-1.19-.85a19.61,19.61,0,0,0-1-2.32l-.27-1c-.25-.86-.95,1.19-1.64,1.18-1,0-.57-1.75-1.64-.7-.26.25-2.61-.24-2.62.13s-.2.89-.66.88-.82-.1-.83.45-1.3-.28-1.41-.31a4.13,4.13,0,0,0-1.63.13c-.64.26-1-.35-1.34-.62a3.68,3.68,0,0,1-.85-2.12,2.08,2.08,0,0,0-.88-1.44,1,1,0,0,1-.44-1c0-.45-.83-.27-.83-.27a4.17,4.17,0,0,0-1.67.88c-.64.63-1.84.13-2.44-.07s-.75-.61-.78-1.25S81,23.46,80.51,23a1.35,1.35,0,0,0-1.2-.5c-.52,0-.85-.8-.85-1.33s-.86-.54-.86-.54-.94-.09-1.08-.5-.94-.77-.94-.77l-.51-.72a8.49,8.49,0,0,0-.7-1.37c-.37-.53-1.44.14-2.19-.17s-1.54.13-2,0A8.23,8.23,0,0,0,68.76,17a1,1,0,0,0-1.06-.13c-.72.26-.74-.46-.93-.87s-.93-.58-1.76-.89-.24-1.66,0-2.3A1.54,1.54,0,0,0,65,11.55a5.08,5.08,0,0,0-1.69-.7c-.64,0-.67-.5-.7-1.29s-.44-.72-1.05-.47-.71-.5-.71-.5-.9.22-1.31-.28S59,8,58.73,8.42a2.67,2.67,0,0,1-1.48.7c-.61.14-.43,1-1.27,2.24a2.14,2.14,0,0,1-2.91.49c-.48-.38-1.25.21-1.69-.09s-1.66-.06-2.22-.29-.68.06-1.93.39-.22-.57-.22-.57a14.6,14.6,0,0,0,2.35-.95c.72-.45.08-.79.08-.79s-.55-1.18-1.23-1.19-.44-1-.54-1.47-2.45-.45-2.45-.45l-2-.59-3.76-.76c-.6-.12-.6,0-1.48.66s-3.2-.34-3.2-.34A9.74,9.74,0,0,1,32.44,4c-.37-.53-.78-.57-1.42-.54s-.93-.81-1.42-1-1.21,0-2.16.76S24.07,2,24.07,2s-1.7-.28-2.22-.29-.76.48-1.17,0-1.36-.21-1.36-.21-1.73-.1-1.42-.84S17.27.23,16,.44A1,1,0,0,1,15.43.44Z"/></g></g></svg>