<svg xmlns="http://www.w3.org/2000/svg" viewBox="0 0 84.49 13.8"><defs><style>.cls-1{fill:#4e83bf;fill-rule:evenodd;}</style></defs><g id="Layer_2" data-name="Layer 2"><g id="regije"><g id="lastovo"><path class="cls-1" d="M41,7.1A.23.23,0,0,1,41.2,7a.19.19,0,0,0,.28-.14c.05-.16,0-.3.18-.37s.23-.07.29.12-.06.23.1.33.16,0,.23-.07.06-.21.32-.15.37,0,.42-.11,0-.19.11-.32.12-.14,0-.28a.44.44,0,0,1-.1-.32c0-.15,0-.22.24-.18s.32.08.42-.1,0-.38.2-.4.18,0,.23.25,0,.36.27.41a.34.34,0,0,0,.35-.12s.06-.08.21,0,.08.24.08.33.08.11.18.22.3.2.24.41-.2.22-.4.21a.78.78,0,0,1-.44-.17c-.18-.12-.36-.19-.48-.09s-.13.13-.19.38-.09.25-.2.35-.2.11-.38,0-.25-.22-.48-.15-.34.21-.69.19-.51,0-.63.18a.43.43,0,0,1-.42.19.39.39,0,0,1-.25-.3A.52.52,0,0,1,41,7.1Z"/><path class="cls-1" d="M58.42,2.15s.19-.32.34-.53.2-.24.4-.23a1.68,1.68,0,0,0,1-.16c.3-.24.26-.29.51-.41a2.14,2.14,0,0,0,.38-.24c.09-.07.2-.12.22.1s-.12.48.06.63.34,0,.45-.09S62,1,62.11.89a.34.34,0,0,1,.28-.12c.14,0,.15-.05.32-.16s.21-.19.34-.11,0,.4-.16.55-.82.07-.87.35-.05.48.12.54.51-.42.63-.45a1,1,0,0,1,.44,0c.1,0,.19-.17.3-.1s.13.33.18.37a.46.46,0,0,1,.18.32c0,.14-.31.09-.52.06s-.1.13-.29.2-.39-.2-.47-.15-.32.45-.47.61a2.7,2.7,0,0,0-.26.42c-.13.13-.91.4-1.11.27s-.44-.34-.68-.28-.26.21-.23.37.15.21.42.22.36,0,.51.19.06.43-.16.62L60.16,5c-.11.1-.25.23,0,.39a.64.64,0,0,0,.48.11.27.27,0,0,1,.32.24c0,.24-.27.34-.57.28a.82.82,0,0,0-.62,0A.45.45,0,0,1,59.19,6c-.13-.18,0-.36.05-.49s.12-.28,0-.4-.38.06-.42-.33.06-.61-.25-.54-.09.26-.43.17S57.87,4,57.87,4a1.15,1.15,0,0,0-.12-.26c-.09-.16-.07-.44.09-.52s.35,0,.51-.05.1-.31,0-.43-.17-.28-.09-.4Z"/><path class="cls-1" d="M56,.13a1.63,1.63,0,0,1-.27.22,1.16,1.16,0,0,1-.32.18,2.46,2.46,0,0,0-.55.29.9.9,0,0,0-.27.47.3.3,0,0,0,.29.38c.21,0,.36-.08.47.16s-.13.43-.13.43a.44.44,0,0,0-.08.43.43.43,0,0,1,0,.44c-.05.13-.18.23-.13.49a.5.5,0,0,1-.1.45.35.35,0,0,0,0,.39c.09.12.26,0,.31,0s.36-.11.44.14-.08.42.11.5.34-.17.38-.43a3.51,3.51,0,0,1,.05-.57c.06-.13.24-.14.38,0s.19.26.44.23.33-.48.18-.7-.4-.34-.4-.75a2.39,2.39,0,0,1,0-.59,1.61,1.61,0,0,0,.06-.57,2.31,2.31,0,0,1,0-.63c0-.27,0-.34-.14-.51A1.9,1.9,0,0,1,56.35.2C56.22,0,56.06,0,56,.13Z"/><path class="cls-1" d="M64.72,1.85a.48.48,0,0,0,.16-.6c-.16-.4-.27-.33-.43-.3s-.34.14-.55,0-.14-.41,0-.59a.58.58,0,0,1,.74-.06c.19.17.29.41.73.42s.8-.13,1,.14.14.37,0,.62-.23.21-.15.53,0,.16,0,.27.06.27.18.3.11,0,.2-.14.06-.13.28-.33.27-.23.27-.39a.46.46,0,0,1,.19-.42c.2-.16.39-.19.41-.4s0-.16,0-.3-.09-.34,0-.46a.55.55,0,0,1,.77,0,1.08,1.08,0,0,0,.81.28c.39,0,.57,0,.81.18s.24.22.36.3.12.15,0,.26-.31.32-.31.32a.22.22,0,0,0,.08.15c.09.06.26.23.41.09a5.08,5.08,0,0,0,.4-.47s.07-.29.18-.35.15.12.21.17.13.67.42.21c.1-.17.3-.13.31-.3s0-.4.08-.55a.24.24,0,0,1,.41,0c.08.13.06.17,0,.38s-.29.71-.2.85a.55.55,0,0,0,.37.22c.19,0,.39-.12.52-.07a1.79,1.79,0,0,0,.89.07c.25-.07.25-.29.74-.24s.38,0,.58-.1c0,0-.2-.2-.16-.21s.3.1.49.14.23,0,.31,0a1.13,1.13,0,0,0,.68-.14c.18-.09.25-.29.43-.29s.26-.22.28-.18-.1.16-.14.28a.39.39,0,0,0,0,.27.71.71,0,0,0,.61.28,1.11,1.11,0,0,0,.44-.06.51.51,0,0,1,.6.1.65.65,0,0,0,.81,0c.19-.13.65-.61.7-.65s.13-.19.26-.16.12.07.27.33.29.58.5.64.33,0,.48-.09a1.26,1.26,0,0,1,.86,0c.28.15.3.43.61.54s.58,0,.66.3-.08.15-.28.38-.66.46-.76.74c0,.1.24.23.24.36a1.07,1.07,0,0,1-.26.91c-.27.36-.21.33-.18.67s.16.45-.1.71-.45.25-.63.44-.39.37-.41.53a1.32,1.32,0,0,1-.37.71c-.22.17-.16.38-.18.64s.1.59-.24.94-.26.21-.44.55-.26.49-.61.62-.61.07-.82.46a1.55,1.55,0,0,1-.64.74,5.11,5.11,0,0,0-1.05.47A2.31,2.31,0,0,1,76.6,13c-.38,0-.42-.07-.5-.12a.38.38,0,0,0-.39,0,3,3,0,0,1-.48.37,1.39,1.39,0,0,0-.46.35c-.13.14-.24.31-.48.27s-.11-.22-.57-.22-.42-.11-.53-.19,0-.21,0-.29a1.84,1.84,0,0,1,.69-.35c.35-.11.41-.15.57-.38a3.36,3.36,0,0,1,.46-.55c.22-.2.34-.36.18-.58s-.29-.33-.45-.52a1.89,1.89,0,0,1-.29-.45c0-.11-.12-.12-.25-.07s-.21.12-.22.52a3.13,3.13,0,0,0,.09.76c0,.22,0,.32-.09.41s-.2,0-.38-.16-.29-.69-.69-.75-.33,0-.43-.09-.07-.22.07-.32.2-.24.11-.31-.18,0-.31.12a.36.36,0,0,1-.52,0c-.15-.16-.2-.19-.4-.17a1.8,1.8,0,0,1-.51,0,.39.39,0,0,0-.42.16.91.91,0,0,1-.65.41A1.36,1.36,0,0,0,69,11a2.81,2.81,0,0,1-.35.28c-.08.07-.18.1-.28.18a.54.54,0,0,1-.38.12.31.31,0,0,1-.28-.19c0-.1-.19-.12-.31,0a.56.56,0,0,1-.44.21c-.32,0-.52-.1-.69.09s0,.39.1.51a.91.91,0,0,1,.25.49c.07.3.05.29.1.46s-.17.47-.42.52a.94.94,0,0,1-.52,0c-.14,0-.14-.15-.06-.26s.26-.23.23-.35-.21-.1-.31-.11-.28.05-.35-.14,0-.33,0-.48,0-.26-.22-.33-.27-.11-.32-.31-.09-.4-.22-.41-.21.15-.27.33-.08.27-.36.27a.49.49,0,0,1-.4-.14,1.12,1.12,0,0,0-.43-.15.4.4,0,0,1-.36-.28.56.56,0,0,0-.33-.47c-.28-.14-.35-.1-.48-.32A.6.6,0,0,1,62,9.84a.34.34,0,0,0,.09-.39c0-.1-.08-.12-.18-.16s-.13-.14-.14-.27,0-.38-.34-.32a1.78,1.78,0,0,1-.89.05c-.35-.09-.29-.37-.3-.52s-.08-.65.16-.73.34,0,.55.17a.53.53,0,0,0,.44.21A1.05,1.05,0,0,1,62,8c.39.17.39.18.54,0a1.32,1.32,0,0,0,.37-.69.87.87,0,0,0-.24-.58,1.71,1.71,0,0,1-.31-.62,2,2,0,0,0-.06-.6,1.19,1.19,0,0,1,.09-.76.75.75,0,0,0,0-.62,4.23,4.23,0,0,1-.12-.56,1,1,0,0,1,.09-.6c.08-.16.3-.33.78-.28a1.15,1.15,0,0,0,1-.29C64.35,2.21,64.72,1.85,64.72,1.85Z"/><path class="cls-1" d="M8.23,3.19s-.48,0-.56-.4-.07-.73-.47-.73-.6.11-.83-.17-.8-.25-1.12-.26a5.52,5.52,0,0,1-.8-.09s-.68-.12-.88.15-.29.72-.57.92-.57.71-.41.87-.13.44-.37.76S1.65,5,1.37,5,1,5.11,1,5.47s.11.72-.17.71-.32.2-.32.48,0,.4-.25.4-.33.72,0,.72.44,0,.45-.28,0-.36.28-.11.55.32.4-.12-.39-.84.09-.92.76-.27.77-.63.09-.6.2-.4.16.21.2-.07.17-.36.28,0,.32.36.32,0,0-.44.29-.23.48-.16.44-.48,0-.68.25-.4a.92.92,0,0,0,.75.45c.2,0,.24-.07.33-.27s.32-.16.31.28.07.6.32.37.24-.24.4,0a.58.58,0,0,0,.84.09c.24-.2.28-.16.52,0s.24-.12.52-.36.32-.39.56-.43.21-.2.21-.44,0-.56-.27-.6A1.14,1.14,0,0,1,8.23,3.19Z"/></g></g></g></svg>