<svg xmlns="http://www.w3.org/2000/svg" viewBox="0 0 48.39 37.63"><defs><style>.cls-1{fill:#d2e288;fill-rule:evenodd;}</style></defs><g id="Layer_2" data-name="Layer 2"><g id="regije"><path id="ludbreg" class="cls-1" d="M7.43,37.63H7.27c0-.18-.46-.37-.56-.37a15,15,0,0,1,.08-2.86c.19-.74.93-.92.92-1.75H7.53a4.14,4.14,0,0,0-.84-1.94L6.59,29c-.38,0-.84-.28-1.12-.28-.09-.09-.55-.37-.74-.56,0-.55-.66-4.15-1.31-4.24C3,23.88,2.4,24,2,24c0,.19-.19.19-.18.28-.47,0-.93-.28-1.3-.28L0,22.83c.48-.32.87-1.13,1.09-1.35a3.1,3.1,0,0,1,.74-1.57v-.28c.64-.27.63-2.3.63-2.95-.09,0-.19-.28-.37-.28,0-.09,0-.36.09-.36l-.1-1.85a3,3,0,0,1-.56-.37,4.11,4.11,0,0,1,.55-1.57c.09,0,.19-.09.28-.09,0-.28.18-.74.18-1.11-.19,0,0-.09-.19-.09A12.94,12.94,0,0,0,1.5,9.3c-.56-1.11.18-1.94.18-3a2.45,2.45,0,0,0,.85-1.41l.16-.24.58.48a.6.6,0,0,0,.42,0C4,5.15,4.81,4.59,5.25,4.6a5.89,5.89,0,0,0,.77,0l1.6-.7L8.85,1.76,9.74.49A3.56,3.56,0,0,0,10.83.33,1.4,1.4,0,0,1,11.61,0a1.18,1.18,0,0,1,.92.24,4.92,4.92,0,0,1,.7.87s1.38.38,1.7.87a5,5,0,0,0,1,1.22.9.9,0,0,0,1.07,0c.46-.3.8-.57,1.06-.4a.75.75,0,0,1,.38.9.75.75,0,0,0,.16.87,2.89,2.89,0,0,0,1.09.56A1,1,0,0,0,20.55,5c.32-.22.88-.78,1.56-.61l.87.21A1.29,1.29,0,0,0,24.17,5c.83-.09,1.11-.11,1.26-.35A.66.66,0,0,0,25.5,4a3.16,3.16,0,0,1,0-1.3,2.37,2.37,0,0,1,.21-.28,1.45,1.45,0,0,1,.47-.08c.21,0,.7,0,.75.54s.1,1.23.52,1.42a1.81,1.81,0,0,0,1.29.16C29,4.34,29.6,4,29.6,4a2.15,2.15,0,0,0,.06-.76,1.31,1.31,0,0,1,0-.68c.05-.22.09-.34.09-.34L30.09,2l.25,0,.2.17.3,0L31,1.9l.71.31.59-.16,2.18-.62L38.28,5s.48.49.66.39.14-.38.06-.62-.32-1-.32-1l-1-1.27.18-.23.07-.44,0-.18,1,0,.25.22s1,0,.91.2a2.29,2.29,0,0,1-.37.54.35.35,0,0,0-.12.49,1.44,1.44,0,0,0,.78.67.73.73,0,0,0,.77-.55,5.17,5.17,0,0,1,.52-1.7.81.81,0,0,1,.77-.34.87.87,0,0,1,.65.53,1.14,1.14,0,0,1-.16,1.05,3,3,0,0,0-.69,1.27,2.08,2.08,0,0,0,.08.6l3,1.59s.74.17.88-.28.3-.78.09-1.07-.44-.62-.25-.84a6.1,6.1,0,0,1,.65-.6s.57.41.59.74.06.75.25.83.5.25.51.48a5.87,5.87,0,0,0,.3,1c-.7,0-1.6-.24-1.82.46a6.5,6.5,0,0,0,.06,2.86l.37,2c.09.49.73.89.73,1.28s-2.41.29-2.42,1.07c0,.3.48.72.47,1.18L46,16.42c-.42,2.37-1,3.69-3.4,4.25-1.14.24-1.75,2-2.28,3.06s-1.1,1.93-2.46,1.92c-2,0-1.76,2.67-2.88,3.77s-2.6,2.79-4.52,2.77c-1,0-2.27-.68-3,.06-1.09,1.06-3.62,1.16-4.89.72s-3.74.08-4.48-.67c-.54-.56-.14-1.43-1.44-1.45a17.24,17.24,0,0,0-1.57.92c-.39.19-.27.65-.57.94-.49.48-1.1,0-1.5.79-.1.2-.3.65-.56.78a2,2,0,0,1-.49.09c-.07,0-.42,0-.43,0-.68,0-.63,1.46-1.2,1.72-.73.33-1,.81-2,1C8.33,37.17,7.35,37.29,7.43,37.63Z"/></g></g></svg>