<svg xmlns="http://www.w3.org/2000/svg" viewBox="0 0 108.09 67.07"><defs><style>.cls-1{fill:#4bb752;fill-rule:evenodd;}</style></defs><g id="Layer_2" data-name="Layer 2"><g id="regije"><path id="medimurje" class="cls-1" d="M10.61,44.57l-.23.73,1.89,1.22a6,6,0,0,0,.87.8,8.56,8.56,0,0,1,1.06,1.07,9.61,9.61,0,0,1,1.16,1.36c.06.24.62,1.34.62,1.34a6.2,6.2,0,0,0,.53,1.38l1.85,1.65a1.89,1.89,0,0,1,.48.68c.07.3,1,3.36,1,3.36l1.53,1.34.31.38a6.57,6.57,0,0,0,.78.44c.28.11,2,.62,2,.62l.64-.93a5.08,5.08,0,0,0,2.13-.14,11.86,11.86,0,0,1,2.05-.57l1.34.45,1.77.45.23.14.16.34-.1.49,4.53-.46a3.54,3.54,0,0,1,.25-.94,2,2,0,0,0,.22-1c0-.29,0-.65.25-.79A3.6,3.6,0,0,1,39,57.69c.25,0,.56.19.55.76s0,.66.08.9.16.33.16.33l.86-.14.55-.08a.36.36,0,0,0,.32,0c.14-.1.49-.15.54.1s0,.25.17.26.23.06.2.27.07.35.18.22.12-.31.34-.35.46-.19.6.1.17.61.46.61a2.65,2.65,0,0,1,.72.2l2.85.76.15-.23.58.48a.63.63,0,0,0,.43,0c.27-.06,1.12-.63,1.55-.62a7.42,7.42,0,0,0,.78,0l1.59-.71,1.24-2.08.89-1.28A3.27,3.27,0,0,0,55.89,57a1.44,1.44,0,0,1,.78-.32,1.2,1.2,0,0,1,.92.24,5.32,5.32,0,0,1,.7.87s1.38.38,1.7.87a5.31,5.31,0,0,0,.94,1.23.93.93,0,0,0,1.08,0c.45-.29.79-.57,1.05-.4a.77.77,0,0,1,.39.9.74.74,0,0,0,.15.87,2.82,2.82,0,0,0,1.09.56,1.05,1.05,0,0,0,.92-.15c.31-.22.88-.78,1.55-.6l.88.21a1.28,1.28,0,0,0,1.19.41c.82-.09,1.11-.11,1.25-.35a.61.61,0,0,0,.07-.58,3.34,3.34,0,0,1,0-1.3,2.69,2.69,0,0,1,.22-.29,1.8,1.8,0,0,1,.46-.08c.22,0,.7,0,.76.55s.1,1.22.52,1.42a1.73,1.73,0,0,0,1.28.15c.25-.16.87-.48.87-.48a2.15,2.15,0,0,0,.06-.76,1.44,1.44,0,0,1,0-.68l.09-.33.36-.26.25,0,.19.16.3,0,.16-.19.7.31.59-.16,2.18-.62,3.82,3.61s.48.49.66.4.14-.39,0-.63-.31-1-.31-1l-1-1.26.18-.24.08-.43,0-.19h1l.25.21s1,0,.91.2a2.44,2.44,0,0,1-.37.55.34.34,0,0,0-.12.48,1.36,1.36,0,0,0,.78.67.73.73,0,0,0,.77-.55,5.12,5.12,0,0,1,.52-1.69.75.75,0,0,1,.76-.34.83.83,0,0,1,.66.53,1.14,1.14,0,0,1-.16,1,2.82,2.82,0,0,0-.69,1.26,1.67,1.67,0,0,0,.08.6l3.05,1.59s.73.17.88-.27.29-.79.08-1.08-.44-.62-.25-.84a6.58,6.58,0,0,1,.66-.59s.57.41.59.73,0,.75.25.83.5.26.51.48a5.74,5.74,0,0,0,.3,1l2.63-.58,2.47-.31L99,63.6s0,.43,0,.5a.59.59,0,0,0-.13.2l.53,2.08.46.16a3.53,3.53,0,0,0,1,.53A1.61,1.61,0,0,0,102.07,66c.32-.84.4-1.12.4-1.12a1.08,1.08,0,0,0,.42-.59,1.79,1.79,0,0,1,.46-.92c.2-.2.64-.59.64-.59s.75-2.18,1-2.73.81-1.66.81-1.66l.92-1.27a3.31,3.31,0,0,0,1-.7A1.67,1.67,0,0,0,108,56a1.81,1.81,0,0,0-.63-.58,5.62,5.62,0,0,0-1.15-.38,4.49,4.49,0,0,0,.08-.91c-.05-.22-.12-.55.09-.66s.48-.16.57-.49.21-.68.21-.68.21.06.38-.23.19-.33.33-.42a1.32,1.32,0,0,0,.25-.25l-.15-.53,0,0L107,50.4s-.34-.25-.28-.5a6.67,6.67,0,0,0,.15-.85c0-.18,0-.44-.18-.54s-.84-.48-.84-.48-.48-.18-.64-.11a.64.64,0,0,1-.47,0c-.15-.06-.57-.24-.55-.53a1.71,1.71,0,0,1,.21-.88,1.13,1.13,0,0,0,.27-.87.78.78,0,0,0-.44-.42.54.54,0,0,0-.53,0,1,1,0,0,0-.29.59c0,.22,0,.73-.15.88s-.34.34-.53.29a.52.52,0,0,1-.46-.52c0-.37,0-.82-.33-.94a.53.53,0,0,0-.67.13c-.12.18-.26.46-.57.47a.71.71,0,0,1-.67-.72c0-.47,0-.72-.23-.83a.55.55,0,0,0-.45-.07c-.13,0-.73.15-.85-.07a.91.91,0,0,1-.17-.69,1.52,1.52,0,0,0,.06-.82.79.79,0,0,0-.62-.55A2.16,2.16,0,0,1,97,42.3c-.15-.09-.59-.24-.78-.12l-.8.48a1.78,1.78,0,0,0-.54.58c-.12.29-.32.72-.32.72a1.69,1.69,0,0,1-.62.26.59.59,0,0,1-.55-.47A5.88,5.88,0,0,0,93,42.68c-.11-.18-.19-.29-.47-.19s-.66.41-.68.67a1.87,1.87,0,0,1-.35,1,.7.7,0,0,1-.46.12.76.76,0,0,1-.47-.3c-.14-.25-.25-.32-.25-.57a1.33,1.33,0,0,0,0-.49c-.05-.13-.06-.74-.24-.87a.78.78,0,0,0-.57-.22,1,1,0,0,0-.57.28c-.09.11-.29.41-.52.43a.74.74,0,0,1-.71-.21,9.1,9.1,0,0,1-.48-.83s0-.73.08-1,.08-.92.08-.92,0-.26-.08-.35l-.5-.41a1.35,1.35,0,0,0-.62-.16,3.93,3.93,0,0,0-1.17.22c-.14.1-.51.5-.48.79a2.27,2.27,0,0,1-.06.81c-.06.19-.21.63-.44.66a.59.59,0,0,1-.65-.32,2.26,2.26,0,0,1-.15-.42,1.49,1.49,0,0,0-.76-1.63,3.62,3.62,0,0,1-.77-.56A7.63,7.63,0,0,1,80.89,37c0-.21-.14-.49-.14-.49l-.44-1-.76-.85a7,7,0,0,0-.37-.78c-.1-.12-.42-.7-.42-.7l-.37-.71-.54-1.32-.65-1.26a4.44,4.44,0,0,1-.18-.5,1.76,1.76,0,0,0-.5-.82,1.37,1.37,0,0,1-.69-1c0-.46,0-.92-.37-1.06a1.24,1.24,0,0,0-.9.06,1.59,1.59,0,0,0-.59.49c-.1.16-.37.51-.61.51a.51.51,0,0,1-.55-.45.68.68,0,0,1,.4-.63A2.27,2.27,0,0,0,74.1,26a1.91,1.91,0,0,0,.28-.8,1.06,1.06,0,0,0,0-.49,2.35,2.35,0,0,1-.21-.42c0-.13-.08-.42-.3-.44a2.08,2.08,0,0,1-.66-.24c-.09-.06-.85-.36-.85-.36L72.09,23s-1-.23-1.27-.25a.89.89,0,0,0-.4,0,2.24,2.24,0,0,1-.65,0,1.7,1.7,0,0,1-.4-.17.44.44,0,0,0-.53.21c-.18.32-.35.59-.55.57a.79.79,0,0,1-.61-.61c0-.34,0-.77-.23-.9a1,1,0,0,0-.67-.17,1.14,1.14,0,0,0-.44.38c-.1.15-.2.48-.41.5a.44.44,0,0,1-.46-.38c0-.22-.09-.59-.4-.61s-.38,0-.37-.11.06-.22,0-.3-.17-.34-.33-.44-.43-.19-.46-.39a.88.88,0,0,1,0-.4c0-.1,0-.33-.19-.33a1.73,1.73,0,0,0-.51,0,.33.33,0,0,1-.37-.05c-.11-.12-.36-.18-.47,0a7.44,7.44,0,0,0-.35.91s-.36-.07-.41-.22a1.63,1.63,0,0,0-.09-.2L60.9,20l-.43.15s-.2.13-.2.27,0,.35,0,.35l-.52,0a3.26,3.26,0,0,0-.66-.14l-.38,0s-.19,0-.19.11-.15.12-.28.07l-.69-.28a1.29,1.29,0,0,0-.42-.06.47.47,0,0,1-.35,0l-.53-.39a.56.56,0,0,0,0-.59c-.21-.24-.4-.24-.54-.14a1.11,1.11,0,0,1-.33.14l-.12-.73-.39-.2-.14.21s-.11.14-.19.1a.48.48,0,0,0-.36.11l-.34.32-.91.46a4.49,4.49,0,0,0-.71-.49,2.08,2.08,0,0,1-.65-.32l-.34-.35s-.18-.26-.41-.2a2.86,2.86,0,0,0-.47.17,2.57,2.57,0,0,1-.63.48c-.26.12-.53.19-.74,0a3,3,0,0,0-.57-.46c-.18-.11-.61-.39-.6-.69a1.22,1.22,0,0,1,.2-.75c.12-.11.49-.42.49-.7a.78.78,0,0,0-.27-.64,4.1,4.1,0,0,0-.45-.27,3,3,0,0,1-.79.17,2.55,2.55,0,0,1-.37-.05l.21-.82-2.26-.33L44,14.46l-.42-.71-.53-.06-.37-.57.3-.52-.07-.24.24-.13v-.49h-.61l-.64-.12-.26-.32.23,0a.75.75,0,0,0-.19-.44c-.18-.19-.46-.3-.56-.12A1.09,1.09,0,0,0,41,11l-.52,0-.49-.1.25-.61,0-.62s-.16-.34-.4-.34a.93.93,0,0,0-.5.24.27.27,0,0,0-.06.24,1.61,1.61,0,0,1,.07.43c0,.12,0,.4,0,.4a1.53,1.53,0,0,1-.56-.22c-.18-.15-.3-.23-.3-.23l.11-.36a3,3,0,0,0,.44-.63c.11-.26.16-.39,0-.55s-.39-.28-.51-.13,0,.46-.14.65-.24.52-.24.52l-.47-.25-1,0-.14-.14-.42.43-1.45.31-.36-.61a.31.31,0,0,0,0-.31c-.08-.16-.12-.18-.09-.33s0-.7.17-.84a.72.72,0,0,0,.17-.8,4.71,4.71,0,0,1-.32-.39s-.13-.26-.28-.1a1.07,1.07,0,0,0-.23.37L33.26,7a2.65,2.65,0,0,0-.1-1,.79.79,0,0,0-.64-.43c-.28,0-.51,0-.56.34a3.53,3.53,0,0,0,0,.45.65.65,0,0,1,.25.52l-.39,0-.88-.25a4.61,4.61,0,0,0-.56-.82l-.44-.29a1.07,1.07,0,0,0-.47-.19c-.17,0-.28.1-.18.19s.3.1.31.28,0,.31,0,.31l.32.18L29.74,7a1.13,1.13,0,0,1-.47.22c-.19,0-.34-.08-.34-.26s-.08-.54-.24-.59a.59.59,0,0,1-.35-.22,4.21,4.21,0,0,0-.28-.39l.37-.68L28.3,5l.18-.62-.22-.45-.37,0-.65.46-.12.42-.64,0-.42.11-.59-.13L25.3,3.62s0-.16-.2-.32-.39-.23-.52-.14-.16.22-.18.36-.1.1-.1.1l-.56-.05a2.6,2.6,0,0,1-.65-.28,2.16,2.16,0,0,1-.72-.78.51.51,0,0,1,.22-.57c.16-.11.51,0,.75,0a2.2,2.2,0,0,0,.94-.22c.2-.07.35-.48.36-.62a.5.5,0,0,0-.17-.4A.81.81,0,0,0,24.1.61s-.29,0-.64,0a1.52,1.52,0,0,1-.85-.46A.57.57,0,0,0,22.09,0a.69.69,0,0,0-.38.54,1.46,1.46,0,0,0,.21.68.93.93,0,0,1-.08.81c-.15.2-.49.11-.74.06s-.3.11-.38.28-.18.18-.36.18A.46.46,0,0,1,20,2.34c-.08-.12-.09-.32,0-.38s0-.24-.06-.38a.26.26,0,0,0-.42,0,2.74,2.74,0,0,0-.18.55.56.56,0,0,0,.13.36,1.71,1.71,0,0,0,.47.32s.26-.08.31,0a.52.52,0,0,0,.25.26c.12.06.19.14.1.26a.33.33,0,0,0,0,.33,1,1,0,0,1,.09.29v.23h-.67a.94.94,0,0,1,0-.4A.91.91,0,0,0,19.9,3a.57.57,0,0,0-.54-.18l-.57.29s-.3-.74-.7-.75a2,2,0,0,0-.89.1c-.21.1-.46.27-.46.42a.44.44,0,0,0,.41.42c.27,0,.7,0,.83.15a.92.92,0,0,1,.22.63,1.94,1.94,0,0,1-.05.28,2.19,2.19,0,0,0-.65.5.71.71,0,0,0-.06.65c.1.24.22.76.1.91a2.15,2.15,0,0,1-.54.47c-.16.06-.49.15-.58,0a1.75,1.75,0,0,1-.21-.29L16,6.32l-1,.29a1.07,1.07,0,0,0-.38-.09c-.15,0-.35.08-.37.15a.32.32,0,0,1-.19.17c-.08,0-.75.39-.75.39l0,.12-.85.36V8l.21,0,.1,0v.8l-.36,0v.17l-.35,0-.49.73v.16l-.07.21.1.45-.43.05,0,.15-.27.08-.07-.13-.22.07v.28h-.43l-.8-.29.13-.29-.06-.14-.25.45L9,10.51l.17-.21-.26-.13L9,9.93l-.46,0,0,.29L7.83,10l-.2.27-.1-.12-.12-.34L7.15,10l-.56.08-.06-.15L6.28,10l.06.08-.2.08,0,.14-.31,0,.07-.52-.42,0,.25-.37-.33.05-.25.84H5l-.17-.16-.41,0,.2,1.21s.11.21,0,.3,0,.48-.07.57a.26.26,0,0,0,0,.25,1.41,1.41,0,0,1,0,.31l-.42.12-.2-.15,0,.32-.36.52a.48.48,0,0,1-.31.17c-.18,0-1-.06-1-.06s-.14.26-.28.27-.92.35-.92.35l0,.15L.18,14.3l-.13.82.12.71s0,.67,0,.86-.07.6-.07.6l-.1.49.33,0L.39,18a2.32,2.32,0,0,0,.62.23.49.49,0,0,1,.39.1,3.67,3.67,0,0,0,.46.28,2.5,2.5,0,0,0,.24,1c.19.23.38.49.38.49l0,.28.1.35.43.21A8.68,8.68,0,0,1,3.27,22c0,.35,0,1.31,0,1.31s0,.14,0,.2a.5.5,0,0,0,0,.47c.09.17.11.3.23.3s.16,0,.18.13a1.7,1.7,0,0,0,.28.6,2.37,2.37,0,0,1,.24.64s.18.62,0,.83a1.16,1.16,0,0,0-.23.85c.06.23.23.45.19.67a1,1,0,0,0,.07.59,1.51,1.51,0,0,1,.17.61.84.84,0,0,0,.1.61c.14.2.38.38.4.54s.1.54.21.62.23.11.23.23a.39.39,0,0,0,.21.37c.17.06.23.15.15.19a.22.22,0,0,0-.08.26,2.79,2.79,0,0,1,.11.71c0,.2-.09.56,0,.66l.2.21a1.62,1.62,0,0,0,0,.26c0,.08.09.49,0,.57l-.44.39s.24.29.12.36a.14.14,0,0,0,0,.26.78.78,0,0,0,.43,0,2.39,2.39,0,0,1,.68,0,.53.53,0,0,0,.28,0,.85.85,0,0,0,.21-.11,6.13,6.13,0,0,1,1,.84A6.51,6.51,0,0,0,8.7,37s.1.24.3.17a1,1,0,0,1,.82.32,1.82,1.82,0,0,1,.56.93,3.75,3.75,0,0,0,.87,1.06,1.34,1.34,0,0,1,.2.53.41.41,0,0,1-.3.51c-.19.06-.12.41,0,.71s-.27.72-.27.72l.28.64Z"/></g></g></svg>