<svg xmlns="http://www.w3.org/2000/svg" viewBox="0 0 81.28 29.02"><defs><style>.cls-1{fill:#2e6faa;fill-rule:evenodd;}</style></defs><g id="Layer_2" data-name="Layer 2"><g id="regije"><path id="mljet" class="cls-1" d="M0,5.06a.61.61,0,0,1,.4-.31,2.77,2.77,0,0,0,.83-.33c.26-.16.3-.24.3-.36s-.14-.3-.07-.47.19-.33.39-.24.11.14.11.31S1.87,4,2,4.2s.41,0,.41,0a.21.21,0,0,1,.3,0c.16.14,0,.22-.1.4a.7.7,0,0,0-.13.67c0,.35,0,.37.08.62s.07.51.24.51.27-.19.36-.34a.32.32,0,0,0,0-.4.48.48,0,0,1-.05-.49C3.2,5,3.2,5,3.57,5a.87.87,0,0,0,.66-.22c.28-.19.18-.31.47-.35s.25-.11.37-.25.18-.34.59-.33.5,0,.71-.17.09-.18.39-.34a1,1,0,0,0,.52-.55c.16-.3.15-.47.54-.52s.39-.13.52-.41.09-.45.53-.44.62.15.71,0-.17-.31-.12-.51S9.31.53,9.38.36,9.26,0,9.39,0a.77.77,0,0,1,.48.27c.05.1-.09.3,0,.39s.38.13.24.44c0,.1-.15.13-.18.21a.47.47,0,0,0,.08.47c.14.12.55.38.84.05s.23-.49.35-.58.28-.11.34-.31-.15-.51.19-.51.35,0,.47.2-.19.28-.1.28.41.08.52-.11-.06-.23,0-.31.21-.09.3-.09.17.16.24.3.09.31.44.32a4.45,4.45,0,0,1,.72,0c.19.05.2.14.2.28s-.17.22-.33.22-.42.09-.49.49.17.49-.24.87-.34.17-.65.59a.83.83,0,0,1-1.15.2c-.27-.24-.53-.37-.78-.27a2.87,2.87,0,0,1-.51.16.3.3,0,0,0-.16.32.44.44,0,0,0,.32.31A.79.79,0,0,1,11,4.4c.12.15.23.31.43.34a1.36,1.36,0,0,0,.8-.24A.67.67,0,0,1,13,4.4a1.14,1.14,0,0,0,.75.1c.29,0,.34-.16.74,0a1.7,1.7,0,0,0,.68.17,5.57,5.57,0,0,0,1.21.12c.36-.06.66-.13.93.08a1.32,1.32,0,0,0,.93.3A4.87,4.87,0,0,1,20,5.09a2.4,2.4,0,0,0,1.54,0c.35-.15.43-.41.85-.4a1,1,0,0,0,.3,0c.12,0,.22-.13.25-.09a.93.93,0,0,1,.18.39c0,.12-.18.3-.23.45a.3.3,0,0,0,.17.33c.05,0,.2,0,.24,0s0-.21,0-.23.12.19.19.22.17.22.31.36c.35.38.5.49.92.48s.46-.39.66-.51.43,0,.94.24a2.4,2.4,0,0,1,.74.41,1.42,1.42,0,0,1,.68.69c.25.41.29.43.48.49s.25-.06.47-.23a.82.82,0,0,1,.92-.23,2.39,2.39,0,0,0,1,.24c.6.07.6,0,1,.32s.52.24.91.29a2.33,2.33,0,0,1,1.45.31A2.76,2.76,0,0,0,35,9a3.76,3.76,0,0,1,.79.41,1.37,1.37,0,0,0,.72.26,1.82,1.82,0,0,1,.59.06c.14.07.18.15.4.15s.24,0,.44.2a.55.55,0,0,0,.59.14,1.49,1.49,0,0,1,.94.07,1.31,1.31,0,0,0,.62.2.8.8,0,0,1,.48.17c.2.15.25.14.65.15s.27,0,.49.1a.68.68,0,0,0,.59.07.59.59,0,0,1,.61.24,1,1,0,0,0,.61.26c.24.06.22,0,.5.21a.59.59,0,0,0,.54.2l.4.06a1.12,1.12,0,0,0,.54-.08c.26-.09.38-.2.72,0a2.36,2.36,0,0,0,1,.49c.43.06.49-.07.91.15a1.84,1.84,0,0,0,.87.25,1,1,0,0,1,.73.2,2,2,0,0,0,.9.3c.35.08.37-.08.71.27s.31.43.59.53.33,0,.41,0,.18-.17.39,0a.7.7,0,0,0,.55.13,1,1,0,0,1,.75.06,2.72,2.72,0,0,1,.33.16c.09,0,.17.06.14.18s-.09.14-.36.12-.49-.17-.81,0-.08.14-.44.09-.48-.31-.78-.24-.26.45-.27.64a.81.81,0,0,0,.17.62,3.32,3.32,0,0,1,.39.52.48.48,0,0,0,.52.28c.29-.07.21-.23.75-.17a2.56,2.56,0,0,0,.73.05,1.76,1.76,0,0,1,1,.16,1.24,1.24,0,0,0,.91,0c.2,0,.36,0,.36-.25s-.27-.54-.06-.53a6.51,6.51,0,0,1,1.66.2,4.29,4.29,0,0,0,1.17.3,2.11,2.11,0,0,1,1,.22c.58.25.95.53,1,.95s0,.47,0,.47-.07.31.14.37.24,0,.26-.15,0-.21.09-.26.11,0,.2.07.22,0,.29-.18a1.51,1.51,0,0,1,.81-.55,1,1,0,0,1,.57,0,.69.69,0,0,0,.51,0,1.6,1.6,0,0,0,.49-.32c.08-.1.16-.23.32-.21a.27.27,0,0,1,.28.25.75.75,0,0,0,.26.46,1.89,1.89,0,0,1,.54.91c.13.48.16.7-.06.77s-.17,0-.28-.11-.2-.28-.34-.17-.17.37.09.53a.75.75,0,0,0,.82.05c.24-.16.27-.29.48-.38a3.42,3.42,0,0,0,.52-.42c.18-.14.23-.56.61-.23a2.59,2.59,0,0,0,1.38.42c.55.09.65.2,1.08.65s.27.36.68.56a4.38,4.38,0,0,0,1.19.27c.36.08.5,0,.67.12s.15.47.16.57a.34.34,0,0,0,.36.3.49.49,0,0,0,.36-.18c.08-.06.12-.22.26-.13s.2.19.41.19.16-.05.27.09-.06.26-.06.26-.13.22.17.3a1.67,1.67,0,0,1,.73.26,3.1,3.1,0,0,0,1.43.3c.44,0,.47-.12.85.32s.45.56.58.64a.68.68,0,0,0,.5.13,2.2,2.2,0,0,1,.79,0c.2.1.27.27,0,.47a3,3,0,0,0-.6.6.67.67,0,0,0,.07.86c.31.34.29.29.34.54s.14.44.57.47.68,0,.92.4.17.56,0,.75-.41.25-.35.63,0,.33-.13.51-.37.3-.63,0,0-.18-.25-.33a1.91,1.91,0,0,1-.43-.39c-.1-.12-.18-.32-.4-.2s-.15.23-.14.46-.1.36-.37.35A.44.44,0,0,1,78,28.4a.28.28,0,0,1,.08-.38c.14-.1.28-.19.22-.45s-.15-.28-.15-.47.12-.29.42-.36.23-.33.25-.47a.68.68,0,0,0-.18-.53.41.41,0,0,0-.62.08c-.15.27-.21.41-.41.46a.42.42,0,0,0-.28.42c0,.15-.09.37-.51.4s-.52.15-.77,0-.41-.22-.14-.36.16-.08.17-.2,0-.26-.19-.23-.35-.13-.43-.12c-.44,0-.17-.46-.48-.36s-.1.25-.54.16-.82-.22-1-.06-.06.3-.08.62a1.22,1.22,0,0,1-.17.69l-.37.38c-.14.14-.19.32-.35.28s-.17-.19-.17-.28a.34.34,0,0,1,.17-.33c.14-.07.29-.11.31-.23s-.06-.29-.37-.41a1.1,1.1,0,0,0-1.08.07c-.34.26-.25.39-.33.57s0,.29-.14.36-.18,0-.23-.23.11-.34.1-.62,0-.41.18-.37.35,0,.34-.19-.07-.17-.06-.39,0-.48-.25-.5l-.43,0a.28.28,0,0,1-.26-.15c-.07-.16-.26-.31-.7-.34s-.36,0-.6,0a.43.43,0,0,1-.41-.23,1.21,1.21,0,0,0-.83-.64c-.57-.11-.7.05-1-.16s-.42-.29-.64-.16a.64.64,0,0,1-.63,0c-.24-.09-.22-.21-.49-.23a1.39,1.39,0,0,1-.39-.06.9.9,0,0,0-.48,0,.7.7,0,0,1-.7-.2c-.27-.25-.31-.41-.64-.36s-.49.05-.66-.11a2.87,2.87,0,0,1-.57-.71.53.53,0,0,0-.5-.37c-.38,0-.55.4-1.08.13s-.91-.5-1.23-.29a1.69,1.69,0,0,1-.91.38c-.3,0-.43-.12-.47-.23s0-.21-.31-.37-.3-.06-.51-.09A.81.81,0,0,1,56.1,21a.6.6,0,0,0-.69-.13c-.36.17-.13.19-.44.14s-.29-.27-.57-.18-.17.14-.39,0,.05-.35-.22-.19-.29,0-.74,0-.52,0-.62.11a.67.67,0,0,1-.7.09c-.32-.11-.48-.22-.58,0a.51.51,0,0,1-.46.35c-.28,0-.55,0-.66-.3s0-.5-.27-.52-.3.2-.68.12-.26-.14-.52-.06-.23.21-.57.1-.41-.35-.83-.21a2.42,2.42,0,0,1-1.28,0c-.41-.08-.43-.22-1-.35s-.48.09-.76-.16-.38-.42-.58-.39-.23.09-.46-.09-.31-.31-.52-.31a1,1,0,0,1-.63-.14c-.4-.19-.18-.12-.5-.19a.92.92,0,0,1-.54-.3c-.18-.16,0-.07-.33-.25s-.19-.12-.38-.32-.21-.39-.51-.36-.53.3-1,.21-.52-.28-.73-.21a.65.65,0,0,0-.35.28c-.09.1-.39.27-.55.17s-.24-.09-.56,0a1.48,1.48,0,0,1-1.22-.19c-.39-.32-.6-.6-.84-.78S34,16.68,34,16.4a1.75,1.75,0,0,1,0-.43s0-.16-.23-.15a1.41,1.41,0,0,1-.93-.12c-.53-.25-.27-.18-.67-.42s-.21-.23-.64-.31a1.88,1.88,0,0,1-.74-.36,1.15,1.15,0,0,0-.87-.28c-.48.05-.44,0-.72.17s-.3.14-.44,0-.06-.37-.51-.45-.32.15-.76-.08-.19-.17-.41-.23a.61.61,0,0,1-.47-.3c-.14-.22-.17-.4-.38-.36s-.2.13-.34.32-.25.29-.85.39-.74.24-.83.43-.17.52-.5.47-.25-.21-.76-.39-.33-.5-.31-.6a1.35,1.35,0,0,0,.07-.44c0-.14.05-.48-.19-.65s-.16,0-.5-.15-.25-.17-.56-.19-.44,0-.73,0a1,1,0,0,0-.62.1c-.28.14-.23.22-.48.11s-.35-.12-.41-.35-.12-.33-.28-.33-.22.16-.26.25-.07.22-.11.28-.15.17-.26.09a.5.5,0,0,0-.45-.17.41.41,0,0,1-.49-.4c0-.27,0-1.29-.94-1.55s-1.44-.28-2-.44a9,9,0,0,0-2.14-.28,5.85,5.85,0,0,0-.74,0A.6.6,0,0,1,11,9.4c-.1-.13-.31-.39-.24-.58s.43-.21.46-.36-.29-.35-.32-.41-.81-.24-.95-.33-.32-.09-.39.08-.11.34-.23.37A.3.3,0,0,1,8.93,8c-.1-.17-.15-.39-.36-.4s-.33,0-.43-.14S8,7.32,8.07,7.17,8.15,7,8,6.84s-.27-.22-.45-.44a1.43,1.43,0,0,0-.49-.49c-.22-.12-.57-.22-.59-.13s.26.34.38.41a5.81,5.81,0,0,1,.54.42.33.33,0,0,1,.11.31c0,.21-.13.22-.33.23s-.4,0-.45.23,0,.37.22.66a2,2,0,0,0,.61.5c.13.09.24.14.24.32s-.06.36.1.43a.45.45,0,0,0,.39,0c.14,0,.28-.15.47-.05a.44.44,0,0,0,.54,0A.66.66,0,0,1,10,9.14a7.39,7.39,0,0,0,1,.56,3.1,3.1,0,0,0,.89.3,1.09,1.09,0,0,0,.49-.1c.14-.05.64-.22.88-.08s.09.4-.09.56-.38.09-.4.25.26.2.43.2a.43.43,0,0,1,.45.31.29.29,0,0,1-.22.39c-.12,0-.2-.06-.33-.14a.38.38,0,0,0-.47,0,.34.34,0,0,1-.49-.09c-.12-.16-.17-.34-.34-.31s-.19.18-.14.34.24.21.6.33.52.23.7.29.18.18.07.26a1.2,1.2,0,0,1-.79-.07c-.27-.11-.46-.31-.77-.47s-.3-.25-.52-.3a.88.88,0,0,1-.55-.27,1.84,1.84,0,0,0-1.15-.61c-.57,0-.68,0-1-.2s-.29-.33-.79-.41a2.11,2.11,0,0,1-.7-.2,7.58,7.58,0,0,0-.88-.31C5.29,9.19,5.33,9.25,5,9s-.2-.25-.6-.41a1.07,1.07,0,0,1-.54-.36A.73.73,0,0,0,3.31,8c-.32,0-.63.1-.88-.17a.72.72,0,0,1-.17-.65,1.52,1.52,0,0,0,.18-.59,1,1,0,0,0-.39-.62c-.25-.21-.23.18-.47.11s-.17-.15-.24-.24,0-.2.22-.35S2,5.09,1.89,5,1.17,4.87.92,5s-.45.46-.71.41S0,5.1,0,5.06Z"/></g></g></svg>