<svg xmlns="http://www.w3.org/2000/svg" viewBox="0 0 68.47 59.77"><defs><style>.cls-1{fill:#82c9f0;fill-rule:evenodd;}</style></defs><g id="Layer_2" data-name="Layer 2"><g id="regije"><path id="neretva" class="cls-1" d="M57.66,54.38a19.3,19.3,0,0,0-2.57,1.74,7.88,7.88,0,0,1-4.53,2.48c-2.71.42-4.62.43-5.12.56a5.84,5.84,0,0,0-.85.27l-.71.28a.5.5,0,0,1-.22-.37c0-.28.06-.52-.26-.46s-.25.17-.58.17a1.5,1.5,0,0,0-.63.08.81.81,0,0,1-.79-.25c-.14-.2-.26-.38-.49-.32s-.08.06-.36.17-.44.18-.42.34,0,.27-.13.3-.2,0-.26-.18-.07-.31-.2-.37-.3,0-.37.12a.35.35,0,0,1-.3.09,1.22,1.22,0,0,1-.55-.29c-.31-.28-.48-.48-.78-.4s-.26.17-.15.36.31.17.37.37a1.73,1.73,0,0,1-.12.6c-.06.31-.45-.16-.53-.29s-.22-.4-.5-.31-.43.2-.76,0-.5-.65-1-.85a4.23,4.23,0,0,1-1.16-.61,8.35,8.35,0,0,1-1.41-1.08c-.19-.26-.79-.84-1.06-1.17a2.27,2.27,0,0,1-.33-.46,1.68,1.68,0,0,0-.47-.51,1.42,1.42,0,0,1-.47-.61c0-.21,0-.41.15-.45a.58.58,0,0,1,.51.16.91.91,0,0,0,.44.29c.11,0,.16-.12.11-.3s-.3-.35-.49-.54-.19-.3-.31-.34a.63.63,0,0,0-.39-.08c-.12.05,0,0-.23,0s-.35.14-.57,0-.33-.22-.49-.18A.73.73,0,0,1,28,52c-.31-.3-.12-.46-.54-.7s-.31-.41-.38-.59.05-.54.3-.54.31.06.4,0,.22-.05.1-.19-.25-.34-.33-.44a.45.45,0,0,0-.44-.17,1.39,1.39,0,0,1-1-.08c-.48-.24-.84-.4-1-.76a1.29,1.29,0,0,0-.37-.69l-.55-.5c-.16-.15-.21-.24-.14-.44s.2-.15.13-.49a3.26,3.26,0,0,1-.12-.58c0-.17.06-.3.23-.26a.93.93,0,0,0,.55,0c.14-.08,0-.12.15-.27s-.13-.36,0-.51.35-.1.38-.43c0-.17.1-.23,0-.38s-.26-.17-.41-.17a.25.25,0,0,0-.28.22c0,.13-.33.17-.47.16s-.18.06-.33.14l-.82,0A1.12,1.12,0,0,1,23,44.1a.94.94,0,0,1-.16-.69,1.4,1.4,0,0,0-.28-.85c-.19-.23-.31-.28-.29-.41A.27.27,0,0,1,22.6,42a1,1,0,0,1,.5.29l.43.48a1.41,1.41,0,0,0,0-.18c0-.1,0-.24,0-.24s-.32-.08-.32-.26.21-.31.21-.31l0-.41-.63-1.23-.43-.86a.86.86,0,0,0-.31-.19.32.32,0,0,1-.25-.25.45.45,0,0,0-.1-.31l-.23-.17L21,38.6l0,.3-.57.18-1.15.78-.12.26S19,40.12,19,40a1,1,0,0,0,0-.26l0-.36a.31.31,0,0,1,.1-.45,2.54,2.54,0,0,0,.54-.45c.21-.25.24-.4.4-.57a1.14,1.14,0,0,1,.55-.34,1,1,0,0,0,.41-.18c.12-.1.19-.35.39-.54a1.35,1.35,0,0,0,.42-.63.83.83,0,0,0-.48-1,.62.62,0,0,0-.66,0c-.11.08-.12.36-.23.5s-.26.08-.39,0a3.49,3.49,0,0,0-.51-.33c-.2-.14-.19.11-.25.25s-.13.14-.28.17-.11.21-.11.21a3.24,3.24,0,0,1,0,.38,6.64,6.64,0,0,1-.05,1c-.06.34-.34.36-.59.34s-.16-.13-.42-.63-.73-.2-.88-.17-.15-.15-.28-.1-.08.34,0,.41a.29.29,0,0,1,0,.33c-.08.12-.36.13-.65,0s-.39,0-.67-.05-.18-.35-.15-.61A5.13,5.13,0,0,0,15,36a3.22,3.22,0,0,0,.09-.57c0-.11-.15-.19-.16-.32a11.22,11.22,0,0,1,0-1.19c0-.36.2-.36.27-.39s.58,0,.63-.16.36-.45.3-.45-.81,0-1,0-.13-.44,0-.56.45,0,.59,0,.13-.11.12-.11-.09-.09-.07-.17a1.29,1.29,0,0,1,.28-.48c.09,0,.24.11.45.18s.36-.24.46-.37,0-.3-.06-.46-.35-.07-.4,0a.2.2,0,0,0,0,.23.18.18,0,0,1-.1.23c-.09,0-.19-.1-.24-.19a4.81,4.81,0,0,1-.3-.43c-.11-.17,0-.32,0-.52s-.08-.28-.22-.4-.15-.16-.19-.37-.34-.33-.36-.57a5.63,5.63,0,0,1,.05-.59,2.62,2.62,0,0,0,0-.56l-.29,0c0,.2-.07.17-.12.3s.08,0,.08,0a.21.21,0,0,1,.12-.06c.09,0,.1.21.1.21a.89.89,0,0,1-.08.45c-.11.26-.2.16-.35.33a.27.27,0,0,0,0,.34.3.3,0,0,1,.21.13.75.75,0,0,1-.11.62c-.08,0,0-.36-.15-.47s-.17.1-.2.19,0,.22.08.35.08.13.06.25,0,.14-.19.18a.27.27,0,0,0-.21.27.37.37,0,0,0,.12.28s.42.34.49.57,0,.31-.1.68-.41.44-.59.66,0,.6,0,.66a2.71,2.71,0,0,1,0,.43.57.57,0,0,1-.39.51.31.31,0,0,1-.43-.19c-.05-.16-.08-.15-.16-.17s-.24.14-.32.22a.4.4,0,0,1-.36.1,1.57,1.57,0,0,1-.64-.45,1.63,1.63,0,0,1-.34-.56c-.2-.43-.54-.41-.84-.79a1.45,1.45,0,0,1-.19-1.13c0-.43-.6-1.09-.9-1.3a7.45,7.45,0,0,1-.94-.85.7.7,0,0,0-.61-.16.43.43,0,0,1-.41-.19c-.13-.16,0-.14-.07-.47s-.54-.43-.65-.41-.13.22-.31.16-.11-.19-.16-.54a5,5,0,0,0-.77-1.25s-.42-.65-.73-1.25c-.16-.33-.17-.6-.33-.85S4,24.3,4,24.24a4.39,4.39,0,0,0-.54-.78c-.14-.1-.22.06-.28.12s-.12.12-.37.2a.48.48,0,0,1-.56-.23l.26-.33.14-.17.66-.64.63-1.86,1.3-.82,1-.43,3-2,2.76.13-.95-1.12L8.3,13.12l-.11-.26-.26-.71-1.56-4L5.17,7.07,5,7.1,0,7.64.12,6,.45,4.7l.14-.29,2,.74L4.4,4.8l.65.07,2.89,1,.6.28.9.46,1.34.65,1.48-.1.71,0,.23,0,.25-.08.8-.3.45-.18,1-.37L16,6.07,17,5.7l0,0,.43-.25,0-.07,0-.15-.07-.16.89-1.75.33-.5.47-1L19.51,0l.19.12c.32.23,2,1.49,2,1.49l1.93,1.58.1.35a4.87,4.87,0,0,0,.63.43,12.58,12.58,0,0,0,1.73.7,4.62,4.62,0,0,1,1.25.83c.27.19.63.23,1.27.55a3.32,3.32,0,0,1,1.05.77,3.68,3.68,0,0,0,1.43.81,16.69,16.69,0,0,1,2.11.77,15.44,15.44,0,0,1,1.65,1l.45.36,1.61.65a7.21,7.21,0,0,0,1.24.76,4.53,4.53,0,0,1,1.44.79,6.51,6.51,0,0,0,1.57,1.15c.72.37,5.69,3.08,5.69,3.08S50,18,51,18.52s2.93,2,2.93,2a5.12,5.12,0,0,1,1.38,1.65c.21.7,2.57,6.77,2.57,6.77l1.53,4.16s2.43,4.68,2.78,5.21A4.71,4.71,0,0,1,63,39.83a4.26,4.26,0,0,0,.29,1.4c.19.33,1.49,2.45,1.49,2.45a14.2,14.2,0,0,1,1.29,2.42,31.93,31.93,0,0,0,1.39,3.07l1,1.75-3.73,1.57-4.22.88A16.21,16.21,0,0,0,57.66,54.38Z"/></g></g></svg>