<svg xmlns="http://www.w3.org/2000/svg" viewBox="0 0 114.5 71.77"><defs><style>.cls-1{fill:#faa74a;fill-rule:evenodd;}</style></defs><g id="Layer_2" data-name="Layer 2"><g id="regije"><path id="nova_gradiska" class="cls-1" d="M112.15,46.22c-1.65-.39-3.14-.72-2.64,1.32a.44.44,0,0,0,.29.29c0,.77.2,1.93-.86,1.93-.39.78-.19,2.14-.28,3.1a1.11,1.11,0,0,0-.68.78,13.36,13.36,0,0,0-2.81.77c0,.2-.1.59-.1.78-.19.19-.48.68-.77.77,0,.3-.87,1-1.07,1.17a13.27,13.27,0,0,0,.51,4.36c.2.58-.29,1.06-.87,1.26-.68,1.35-2.72,1.35-3.69.38H98.6c0,.1-.3.3-.29.39v.78c-.1,0-.39.29-.49.29,0,.58.3.77.69,1.16h.78l.09.19h.1a.2.2,0,0,0,.2.2c0,.1.19.29.19.39h.2a.21.21,0,0,0,.19.19,3.93,3.93,0,0,0-1.35,1.51c-.26.84-.42,1.66-1.25,1.68s-1.57-.19-2,.36-1.09,1.51-2,1.5a2.49,2.49,0,0,1-2-1c-.46-.52-1.28-1.54-2-1.55a1.73,1.73,0,0,0-1.2.71,3.75,3.75,0,0,1-1,1c-.49.24-1.29.56-1.61.19s-.16-1,0-1.42a3.34,3.34,0,0,0,.26-2.11c-.23-.73-.46-1.78-1.51-1.73s-1.68.45-1.58,1.51.43,1.88,0,2.46a3.48,3.48,0,0,1-1.88,1.44l-2,.19A2,2,0,0,1,78,70.91c-.46-.53-.8-1-1.13-1a2.18,2.18,0,0,0-1,.27c-.31.2-1.28.7-1.28.7s-.84.37-1.3.08-.66-.54-.65-.94a1.67,1.67,0,0,1,.86-1.23A2.33,2.33,0,0,0,75,66.88a5.93,5.93,0,0,0-.06-2.19c-.17-.44-.29-.61-.62-.59a1.09,1.09,0,0,0-.85.57c-.21.33-.83,1.56-1.68,1.87a9.61,9.61,0,0,1-2.35.57,5.43,5.43,0,0,1-1.82-.29c-.33-.2-.74-.74-.23-1.7a4.22,4.22,0,0,0,.88-2.66l-.15-2.64s-.19-1.24-.9-1.49-1.8-.25-2,.69a9.14,9.14,0,0,1-1.07,3.21c-.67,1-2.35,2.63-3.35,2.68a6.49,6.49,0,0,1-2.3-.18A8.11,8.11,0,0,0,56,64.24a25.38,25.38,0,0,1-3.4-.18,15.94,15.94,0,0,1-3.66-1c-.64-.39-2.71-1.91-3.16-3s.05-1.36.19-1.76.34-.82.08-1.11-.6-.31-1.08-.15a4.84,4.84,0,0,1-1.7.27,1.11,1.11,0,0,1-.91-1.19c0-.68.08-1.33.08-1.33s.06-.58-.79-.42a12.18,12.18,0,0,1-2.66.38c-.56-.09-1.56-.17-1.88-1a15.05,15.05,0,0,0-.77-1.92c-.21-.33-.43-.63-.69-.62s-.56.53-.73.89a21.16,21.16,0,0,0-1.27,3.63,24.8,24.8,0,0,1-1.13,4.26,7.89,7.89,0,0,1-.93,1.61,3.12,3.12,0,0,0-.35.39,2,2,0,0,1-.94.23,6.27,6.27,0,0,0-2.05-.26,5.34,5.34,0,0,1-2.79.1,3.67,3.67,0,0,0-2.71-.58,6.07,6.07,0,0,1-2.9.61,10.32,10.32,0,0,1-4-1.78A18.63,18.63,0,0,0,12.9,58.1l0-.07c.11-.46-.52-1-.79-1.25a.77.77,0,0,1-.28-.69c0-.26-.36-.51-.56-.65a1.44,1.44,0,0,1-.42-.65c-.09-.23-.91-1.92-1-2.18a.6.6,0,0,0-.56-.31A.49.49,0,0,1,9,52.2a8.18,8.18,0,0,1-.85-1.11c-.21-.37.2-.81.42-1.08s-.52-.86-1-1.19-.69-.25-1.3-.61S4.55,47,4.43,46.9a1.42,1.42,0,0,0-.78-.21c-.13,0-.29-.22-.28-.51s.32-.45.47-.55.3-.17.3-.38-.6-.32-.6-.32l-.92,0a1.54,1.54,0,0,0-.83.31,1,1,0,0,1-.57.23C1,45.44.79,45.11.74,45a1,1,0,0,0-.51-.38c-.12,0-.25-.2-.23-.43s.5-.27.71-.33.52-.46.7-.85a2.43,2.43,0,0,0,0-1.25,3.93,3.93,0,0,1-.14-.81c0-.39.51-.56.69-.62a.55.55,0,0,0,.48-.58c0-.43-.66-.89-.61-.87-.37,0,.86-.42.92-.42s1.23.44.69-.11c-.38-.39-.08-.87.23-1.16a6.63,6.63,0,0,1,2.65-1.8c.69-.14,1.18-.88,1.93-.87,1.49,0,3.16-1.94,3.75-3.07l2.54-4.51c.61-1.16,2-1.59,2.87-2.42.21-.21,1.13.46,1.61.23s1.85.44,1.85.17c0-1.17-1.2-1.66-1.61-2.53-.3,0-1-1-1.24-1.25S16.89,20,17.5,19.66c1.26-.82.89-2.17,1.8-3.06.45-.44,1.87.95,2.15.09s-.14-2.64-1.16-2.89c-.24-.06-1.72,1.21-1.35.13a2.4,2.4,0,0,0-.1-1.73c-.2-.66-.64-1.24.23-1.65.67-.32,1.57-.58,1.58-1.56,0-.48.77-1.82,1.25-1.81.66,0,1.3-1.21,1.78-1.69s.56-1.22,1-1.42.82-1,1.45-1.18c.78-.23.58-.65,1.06-1l1.21-.82c.48-.35,1.4.47,1.41-.43,0-.57.84,0,1,0,.48,0,.62.67,1.3.68.27,0,.49-.45.85-.26,1.39.7,2.59,1.08,3.16,2.88.35,1.11.89.91,2,1.28.84.28,2.19,1.88,3.16,1.42.69-.33,1.13.16,1.76.17s1.18-.86,1.9-.85,1.69,1.28,1.7-.07c0-.51.25-1.07.26-1.58s-.59-1-.37-1.65c.5-1.46,2.43-.45,3.23,0s1.32-.1,2.13-.3a2.3,2.3,0,0,0,1.2-.14c.27-.12.31-.59.61-.74s.74.1,1,.07A4.56,4.56,0,0,0,55.89.35c0-.3.56.07.62.07.3,0,1.15-1,1.38,0,.17.78.61-.75,1.11,0a2.93,2.93,0,0,0,1.18,1.24l1.54.8a5.27,5.27,0,0,1,1,.49c.29.21.34,1.14.7,1.44l1.74,1.61c.53.48,1.17.25,1.15,1.33,0,.42.13,1.68.7,1.68,1.32,0,1.24,1.16,2.55,1.56l2.45.75c.39.12,1.47-.16,1.46.41l.3,4.88c0,.93.93,1.86,1.5,2.38l1.92,1.79c.8.76,1.43.41,2.39.42.66,0,1.46.7,2,1,.77.46,3.19.82,3.39,1.87a4.78,4.78,0,0,0,1.41,2.2c1,1,2,2,3.63,2,.8,0,1.18.88,1.81,1.16l.89.37a7.83,7.83,0,0,1,.77.28l.27.06c.06,0,.15.06.18.06l.36.09a3.39,3.39,0,0,0,.72.22c.56,0,.81-.53,1.38-.49l3.34.4c.39,0,.31-.86.85-.89l2.61-.08a4.64,4.64,0,0,1,2.66.42c1.13.58,3.36-.8,4.27.14a8.37,8.37,0,0,1,1.2,2.74c.34,1,1.47,1.69,1.25,2.79-.45,2.15-1.35,5.23.94,6.39.36.18,1.24,1.57,1,1.9l-.88,1.12a6.14,6.14,0,0,0-1.06.92A1.11,1.11,0,0,1,112.15,46.22Z"/></g></g></svg>