<svg xmlns="http://www.w3.org/2000/svg" viewBox="0 0 113.51 92.45"><defs><style>.cls-1{fill:#e96c30;fill-rule:evenodd;}</style></defs><g id="Layer_2" data-name="Layer 2"><g id="regije"><path id="orahovica" class="cls-1" d="M40.72,0a6.79,6.79,0,0,0,1.37,1.2,1.87,1.87,0,0,0,1.71.24c.64-.31,1.31-.49,1.48-.6a5.76,5.76,0,0,1,.57-.3l.91.18s1.4.11,1.68.51.45,1,1,.93.9-.27,1.26-.09a2.21,2.21,0,0,0,1.46.37,5.21,5.21,0,0,1,1.71,0,7.06,7.06,0,0,1,1.21.27,1.58,1.58,0,0,1,1.09.8A5.18,5.18,0,0,0,57,5a4.59,4.59,0,0,1,.74,1c.16.33.3.92.7,1s.73.08,1-.33a1.47,1.47,0,0,1,1.07-.94,4.88,4.88,0,0,1,1.7-.1,1.77,1.77,0,0,1,1,.32,2.73,2.73,0,0,1,.43.49l.26.51a12.89,12.89,0,0,0,1.13,1,3,3,0,0,0,1.08.58,3.92,3.92,0,0,1,.71.2,1.56,1.56,0,0,0,.9.14c.33-.08.73-.28.77-.54s.16-.76.48-.92a1.42,1.42,0,0,1,1-.14,2,2,0,0,1,.89.74,6.84,6.84,0,0,1,.47,2.23c0,.86,0,1.34.23,1.68a10.44,10.44,0,0,0,1,1.16,1.33,1.33,0,0,0,.91.49c.5.06,1.13.06,1.33.26a1.7,1.7,0,0,1,.39.81.92.92,0,0,1,0,.61.6.6,0,0,0,0,.69,1.66,1.66,0,0,1,.38.69,1.68,1.68,0,0,0,.61,1,2.71,2.71,0,0,0,1.41.42c.3-.11.46-.31.57-.81a2.93,2.93,0,0,1,.7-1.94c.69-.69,2.4-2,2.4-2l1.39-1.07a4.13,4.13,0,0,1,1.19-.56,1.53,1.53,0,0,1,.89-.07,3.94,3.94,0,0,1,.73.28,1.42,1.42,0,0,0-.3.92s0,.61,0,1,.48.82.47,1.22a6.48,6.48,0,0,0,.41,2.28c.21.65,1.17,1.62,1.16,2.25-.21,1.56.76,2.49,1,3.6l.78,3,.81.76a6.23,6.23,0,0,0,1.13.25c.36,0,1.18-.22,1.57-.21a8.7,8.7,0,0,0,1.53,0,1.8,1.8,0,0,1,.94.17l-1.4,2.85,7.76-.29,1.59,8.58-1.19.77,2.69,4.2.06,2.58,1.25-.28a6.33,6.33,0,0,1,1.25,1.74c.25.75.63,1.64.63,1.64l1.9-.76h1.11a3.32,3.32,0,0,1,.94.22,11,11,0,0,0,2,.23l.08,3.14s-.76-.09-1.32-.22a2.07,2.07,0,0,1-1.06-.66,1.57,1.57,0,0,0-.66-.26l-.43.09-3.34,6.93s-.21.71-.63.9a1.14,1.14,0,0,0-.8,1,1.69,1.69,0,0,1-.43,1,6.78,6.78,0,0,1-1,1.65c-.43.36-1.8.73-1.68,1.35s.18,1-.24,1.4-.21.81-.7.81-.82.25-.86.86a16,16,0,0,1-.28,1.73l-.14,1.17s-.37.58-.79.64a6.65,6.65,0,0,0-1.41.6,1.67,1.67,0,0,0,0,1.14,5.93,5.93,0,0,1,.35,1s-1.76-.28-1.89.4a6.07,6.07,0,0,1-1,2.43c-.39.33-.9,1.39-1.35,1.26s-.75-.21-.75-.21l-.14,1.08s1.26.4,1.16.92.11,1.5-.31,1.79-.21.55-.44.91-.21,1-.63,1.29a1.37,1.37,0,0,0-.47,1.17c0,.39-.71,1.62-1.26,1.78s-.69.51-1.41.53-1,.09-1.15.61a1.88,1.88,0,0,1-1.25,1.06c-.52.15-1.44.63-1.83.76s-.78,0-1.08.44-.92.09-1.15.8,0,.75-.47,1.14a2.44,2.44,0,0,0-.63.74,4.59,4.59,0,0,0-1.59-.64c-.64,0-.68-.5-.7-1.29s-.45-.72-1-.47-.71-.5-.71-.5-.91.22-1.32-.28-.52-.27-.79.11a2.64,2.64,0,0,1-1.48.7c-.6.14-.42,1-1.27,2.24a2.14,2.14,0,0,1-2.91.49c-.48-.38-1.24.21-1.69-.09s-1.66-.06-2.22-.29-.68.06-1.93.39-.21-.57-.21-.57a14.62,14.62,0,0,0,2.34-1c.72-.45.09-.79.09-.79S66,88.61,65.31,88.6s-.44-1-.55-1.47-2.44-.45-2.44-.45l-2-.59-3.76-.76c-.6-.12-.6,0-1.48.66s-3.19-.34-3.19-.34a9.74,9.74,0,0,1-2.32-1.46c-.37-.53-.79-.57-1.43-.54s-.93-.81-1.42-1-1.2,0-2.15.76-3.38-1.21-3.38-1.21S39.47,82,38.94,82s-.76.48-1.17,0-1.35-.21-1.35-.21-1.73-.1-1.42-.84-.64-.46-1.92-.25-.15-.53.31-.9-.06-1,.25-1.77-.33-.87-1-1-.78-.76-1-1.56-.79-.69-.79-.69-.45-.08-.59-1.1-.83.45-1.35.06-1-.16-1.74-.06-.59-.72-1.23-.92-.89-1.17-1.49-1.41a2.55,2.55,0,0,1-1.37-1.37c-.3-.65-.6-.72-1.31-.81S20.2,67.82,19.61,67s-2.67-.82-3.31-.75-.48,2.18-.79,2.66A8.23,8.23,0,0,0,15,71.11a1.47,1.47,0,0,1-1.79.92c-.41-.23-.51-.83-1.08-.69s-.67-.5-.67-.5a1.66,1.66,0,0,1-.25-1.32c.2-.71-.59-.87-1.28-.51s-.52-.3-1.39.1-.89-1-1-1.93-.63-.8-1-.54a3.57,3.57,0,0,1-1.74.2,2,2,0,0,0-1.17.63c-.6,0-1,.59-1.64.46S.56,67.16.57,66.69c0-1.26-.94-2.17-.41-3.48.18-.48.42-2.33.93-2.44a15.61,15.61,0,0,1,3.8-.67c1.47,0,1.68-2.38.61-3.11-.92-.61-.42-1.89-.41-2.88l.37-.89c.12-.21.93-.44.93-.65a3.73,3.73,0,0,1,.87-2.32c.18-.18.28-1.1.46-1.19a6,6,0,0,0,1.66-.94c.45-.44.35-2,.69-2.68.43-.84-.11-.72-.1-1.23,0-.81-1-1-1-1.81,0-1,1.2-.46,1.57-1.21.09-.18.9.19,1.17.05.33,0-.44-.26-.23-.52.76,0,2.28-.27,2.92-.27a1.47,1.47,0,0,1,.63-.63c0-.63.5-1.14.5-1.89.12,0,.25-.26.25-.38l.25-.13c0-.38,0-.5.38-.5,0-.51.5-.63.5-1l.25-.13c0-.13.13-.25.13-.38.38-.12.5-.5.88-.5,0-.89-.26-1.77-.26-2.53-.51,0-.65-3.79-.65-4.42l.25-.25c.5,0,1.64.13,1.9-.12a3.09,3.09,0,0,0,2.52-1c1.78,0,5.83-.13,6.71-1.9.25,0,.37-.38.37-.63a8.53,8.53,0,0,0,1.13-2.9c.13,0,.25-.13.38-.13.13-.25.25-.5.5-.5,0-1.52,1-3.16,1-4.8a1.37,1.37,0,0,0,.25-1c-.77-.38-.15-3.28-.15-4,.25-.13.51-.51.89-.63,0-.13.12-.38.25-.38V8.89a2.62,2.62,0,0,1-.76-1.26c-.25,0-.89-.51-1.14-.63V6.74c-.39-.12-.51-.37-.77-.63v-.5c.25-.25.38-.51.63-.63,0-.13.13-.26.13-.38,1.64,0,.87-2.27,1.5-2.53l.13-.25h.38c.13-.38.76-.38,1.26-.38,0-.25-.25-.12-.25-.5.29-.3.62-.82,1.22-.82.15.15.44.44.59.44,0,.45.6.74.75.89V1.6a2.49,2.49,0,0,0,1.48.29A3.73,3.73,0,0,0,39.11.56C39.26.56,40.57,0,40.72,0Z"/></g></g></svg>