<svg xmlns="http://www.w3.org/2000/svg" viewBox="0 0 57.48 64.61"><defs><style>.cls-1{fill:#c3d266;fill-rule:evenodd;}</style></defs><g id="Layer_2" data-name="Layer 2"><g id="regije"><path id="ozalj" class="cls-1" d="M12.27,58.23l-.09-.82a2.36,2.36,0,0,0,1.23-1.22c.3,0,.76-.31,1.07-.31l.3-.3v-.31a.52.52,0,0,1-.15-.3c-.16,0-.31-.16-.46-.31,0-.31.15-.46.15-.77h.3l.16-.15c0-.15.15-.3.3-.46,1.23,0,2.46-.3,3.68-.3,0,.15.31.3.47.3.46,1.23.16,2.76.17,4.14a5.2,5.2,0,0,0,2.92,1.37c0,.77.16,2,.93,2.3,0,.3.46.76.62,1.07h.92a2.2,2.2,0,0,0,1.38,1.22A12.76,12.76,0,0,0,27,64.61h.46s.3-.31.3-.46c.16,0,.31-.15.46-.15,0-1.84-.47-3.52-.48-5.36-.15,0-.62-.46-.77-.61v-.77a11.33,11.33,0,0,0,1.22-1.37c0-.77.6-1.53.6-2.15a3.43,3.43,0,0,0,1.68-2.6c.31,0,.92-.15,1.23-.15l-.16-.46H33c1.23,1.23,1.69,1.23,3.68,1.23v.61H35.33c-.3.46-.76.76-1.06,1.22l-.31.16v.45h.31l.15.16a.51.51,0,0,0,.16.3c0,.16.15.62.15.77-.3.15-.3.46-.3.92.92.46,1.39,1.83,2.16,2.14,0,.61.16,1.53.16,2.14h.46l.31-.3h.61s.31.3.31.46a10.25,10.25,0,0,0,3.07.76v-.46c.15,0,.46-.46.46-.61.46-.15,1.22-1.38,1.83-1.38v-.92a6.48,6.48,0,0,0-1.23-.91.33.33,0,0,0-.31-.31l-.15-.15c0-.92-1.39-1.23-1.4-2.45,1.39,0,2.3-2.14,3.06-2.91h.31c0,.15.46.61.46.77,1.08,0,3.07.46,3.53-.61h.77a5,5,0,0,0,.92.91,3.71,3.71,0,0,0,.31,1.23c.31,0,.31.15.62.46.15,0,.61.15.77.15,0-.15.15-.61.15-.92a3.35,3.35,0,0,1-.47-.76c-.46,0-.77-.77-1.07-.77,0-1.53.44-3.06.44-4.74.15,0,.76,0,.76-.15h1.08l.15-.31c.15,0,.61-.15.61-.31a2.56,2.56,0,0,0,.92-.91c.3-.46,3.45-1.07,3.45-1.07a.75.75,0,0,1-.85-.38c-.26-.53-.35-1.27-.75-1.3s-.59-.81-1-.81-.66-.47-.66-.47-.69-.84-1.06-.58-.66.06-.79-.38a1.46,1.46,0,0,0-.75-1c-.46-.27-1.25-1-1.49-.51s-.64.88-1.17.68-1-.44-1-.78a.74.74,0,0,0-.63-.7c-.36-.07-.59-.44-.12-.77s.84-.55,1-1a3,3,0,0,0,.22-1.69,1.75,1.75,0,0,1-.12-1.33,1,1,0,0,0,0-1.13c-.23-.5-.88-1.5-1.54-1.48s-1.13.12-1.46-.38a2.5,2.5,0,0,0-1.71-1.21,4.07,4.07,0,0,1-2.15-.69,2.28,2.28,0,0,1-.78-1.34c0-.4-.46-.54-.86-.28s-.47.59-.83.32.17-.79.17-.79.37-.43.11-.79.15-1-.31-1.34-1-.94-1.52-.91-.19-.57-.62-.8-.46-.54,0-.64.84-.75.47-.92-1-1.24-1-1.24a1.38,1.38,0,0,0-.85-.61,1.21,1.21,0,0,1-1.06-.74c-.09-.37-.75-.67-1.35-.71a9.4,9.4,0,0,0-1.39.05s.21,1.69-.39,1.68-.83,0-1.12-.47-1.09-.52-1.38-1a2,2,0,0,1-.3-.5s1-2,.73-2.42-.33-.3-.73-.07A1.36,1.36,0,0,1,27.11,15c-.39-.33-.78-1.17-1.58-1.28s-1.32-.31-1.31-.87A7.32,7.32,0,0,0,23.68,11a3.42,3.42,0,0,0-.89-1.24,3.82,3.82,0,0,0-1.68-.85c-.5,0-.83-.14-.46-.4s-.16-.33-.59-.54-3-.8-3.47-1.3S15.12,4.87,15.49,5s.86.11.6-.33-.32-1,.08-1.29a4.65,4.65,0,0,0,.8-.72S18,1.55,17.48,1L16.93.51s-.26,0,0-.37-.85.19-.85.19-.94.66-1.37.58-.87-.23-1.16.16-.54.64-.73.66-.56.43-.56.43a3.63,3.63,0,0,0-1.33,0c-.26.17-.73.6-.66.89a.77.77,0,0,1-.34.79c-.27.16-.78.61-1.09.61s-.53.07-.63.23a.58.58,0,0,1-.56.26c-.29,0-.63.16-.61.48A1.76,1.76,0,0,1,7,6s-.6-.23-.58,0,.09.79-.16.88-.63.69-1,1.08-.95,1-.95,1a.91.91,0,0,1-.9.35,4.11,4.11,0,0,0-.86-.17l-.78.47-.19.12s0,.45-.29.23a.79.79,0,0,0-.68-.08.6.6,0,0,0-.53.19c-.17.24-.1.45.19.48a4.59,4.59,0,0,0,.63,0l.28.73.31-.12.31.1s0,.48.26.56.29.19.23.5-.1.73.11.85a4.71,4.71,0,0,1,.65.54s.29,1.25.29,1.47-.08.5.07.72a1.64,1.64,0,0,0,.38.39l.05-.38.26,0s-.2.57-.1.74.55.32.55.32l.35.68.39-.16-.12-.37-.64-.32-.19-.34.53-.28a1.68,1.68,0,0,0,.28-.82c0-.36-.12-.48.1-.6a1.91,1.91,0,0,0,.34-.21l-.12-.43.77.2A5,5,0,0,0,7,13.82c.24-.22.56-.48.56-.48a.85.85,0,0,1,.53.3,7.64,7.64,0,0,0,.49.73.77.77,0,0,1,.19.53c0,.17.23,1.08.06,1.23a.75.75,0,0,0-.28.74c0,.41.11,1.18.44,1.21a.73.73,0,0,1,.67.34,10,10,0,0,0,1.07,1L11.2,19,10.74,19l-.59-.54.51-.28-.24-.53.13-.14L11,18l.42-.31.4,0-.11-.53-.29-.2-.39.36-.38-.15,0-.41.44-.09.15-.38.36.05,0,.41.51,0,.12-.31.48.32a5.59,5.59,0,0,0-.38,1.1,1,1,0,0,1-.25.74c-.17.12-.53.26-.24.38a.5.5,0,0,1,.31.39v.34l.53-.07,0,.41a6.83,6.83,0,0,1,.94,1.36,4.53,4.53,0,0,0,.19.61v.58l.77.1.75-.45-.46-1.76a3.62,3.62,0,0,0-.35-.68.75.75,0,0,1-.26-.7,1.16,1.16,0,0,0-.13-.87,1.66,1.66,0,0,1-.11-.84s.56-.74,1-.79a2.15,2.15,0,0,0,1.24-.63,9.13,9.13,0,0,0,.76-1.22l-.09-.6.15-.31.36.07v-.24l-.29-.19s.27-.43.42-.62.2-.43.34-.41.56-.18.58.1.26.68.5.37.34-.33.65-.28a4.14,4.14,0,0,0,.85,0,.77.77,0,0,1,.78.83A4.08,4.08,0,0,1,21.05,15l-.17.46A.62.62,0,0,1,21,16c-.13.26.06.41.16.58s.21.15.21.15l.39-.36s.48.54.45.92a2.27,2.27,0,0,1-.33,1.18.89.89,0,0,0-.32.64c0,.22,0,.49,0,.49l-.25.35-.69-.32-.41.09-.63.53.21.26,0,.36-.24.1,0,.58-.29.21a1.28,1.28,0,0,1,.08,1,1.14,1.14,0,0,0,0,.94,5,5,0,0,0,.26.44l.29-.17-.11-.5.73-.6-.24-.63.34-.11.36.36.19-.11-.23-.39.31-.14.17.31.43-.43a3,3,0,0,1,0-1.15c.15-.41.47-1.06.47-1.06l.23-.47.34-.31a.41.41,0,0,1-.17-.51c.13-.36.15-.43.37-.21l.35.36a1.09,1.09,0,0,0-.36.48c-.05.24-.25,1-.25,1l.38.1.22.57c.19.13.77.81.76,1.08s.37.89.58.92,1,.12,1,.65a.81.81,0,0,0,.42.78c.13.09.68.58.57,1.08a1.15,1.15,0,0,0,.31.94,1.68,1.68,0,0,1,.44.92c0,.43-.17,1.34.31,1.56a6,6,0,0,1,1.25.76c.21.18.17.17,0,.32a1.93,1.93,0,0,0-.51,1c0,.31-.67.81-.8.94a1.46,1.46,0,0,1-1.08.52c-.65,0-.87-.32-1.19-.61A2.91,2.91,0,0,0,23.94,31c-.53,0-.45-.52-.44-.75s-.29-.41-.48-.41a1,1,0,0,0-.59.32c-.19.19-.93,0-.93,0s-.53-.18-1.17-.46a2.6,2.6,0,0,0-1.71,0c-.39.09-.39.44-.4.85s.53.49.53.49h.68a.51.51,0,0,1,.44.54,1.12,1.12,0,0,1-.38.68A4.69,4.69,0,0,1,18,33a2.71,2.71,0,0,1-1.65-.28,2.88,2.88,0,0,0-1.37,0,6.49,6.49,0,0,1-1.89.19,3.34,3.34,0,0,0-2,.8c-.21.16-.06.9-.06,1s0,.34-.09.41-.13.21-.12.44a1.65,1.65,0,0,0,.77.94c.43.27.41,1.07.4,1.17s-.07.53-.55.52l-2,0A1.45,1.45,0,0,0,9,38.3c-.12.1-1.14.87-1.35,1a8.13,8.13,0,0,0-.83.54s-.31.3,0,.85a9.27,9.27,0,0,1,.54.91,8.62,8.62,0,0,0,1,1.19,10.18,10.18,0,0,0,.8.72,3.33,3.33,0,0,1,.68.71,5.5,5.5,0,0,1,.82,1.74c0,.43-.09,1.67-.09,1.67s-.06,1-.08,1.2,0,2,.07,2.29a12.27,12.27,0,0,1-.09,2.15A4.14,4.14,0,0,0,10.53,55a1.93,1.93,0,0,1,.27,1.2A1.91,1.91,0,0,0,11,57.28c.16.23.54.94.92.95Z"/></g></g></svg>