<svg xmlns="http://www.w3.org/2000/svg" viewBox="0 0 93.41 107.92"><defs><style>.cls-1{fill:#ef3d53;fill-rule:evenodd;}</style></defs><g id="Layer_2" data-name="Layer 2"><g id="regije"><g id="pag"><path class="cls-1" d="M19.82,55.53s-.16-.25,0-.41a1.15,1.15,0,0,1,1.31-.19,2.7,2.7,0,0,1,.9.71,7.71,7.71,0,0,1,1.34,1.58c.2.5.2.54.34.87a4.62,4.62,0,0,1,.42.91c.05.33,0,.48.11.64a.69.69,0,0,1,.1.5c0,.12-.07.2-.37.1a1.83,1.83,0,0,1-.72-.53c-.16-.19-.3-.37-.73-.81l-1.17-1.2c-.13-.13-.49-.32-.68-.49s-.07-.29-.16-.34-.3,0-.44-.33,0-.33-.08-.6A1.34,1.34,0,0,0,19.82,55.53Z"/><path class="cls-1" d="M25.71,63.55s0-.12.16-.22.56-.12.68-.24.37-.1.64-.16a.79.79,0,0,1,.63.07c.14.11.21.19.36.15a.61.61,0,0,1,.75.07c.38.31,1.27,1.17,1.45,1.36s.58.43.6.65a.77.77,0,0,0,.18.61c.21.23.82.69.94,1.06s.19.6,0,.79-.21.26-.09.49a2.65,2.65,0,0,0,.65.82c.24.17.74.48,1,.65a1.45,1.45,0,0,0,.54.31,1,1,0,0,1,.68.27c.27.25.13.42.34.48.05,0,.18,0,.26,0s.08.18.16.21.35.08.35.25c0,.35-.21.31-.09.46s.27.3.55.18c.06,0,0,.1.07.21s.18,0,.22,0,.21.22.31.18a.69.69,0,0,1,.73.24c.11.1,0,.22.13.35s.5.45.55.64-.17.36-.25.42l-.3.21a.15.15,0,0,0,0,.25c.09.06.22,0,.33-.1s.25-.35.44-.23.38.29.64.44a2.17,2.17,0,0,1,.78.57,3.36,3.36,0,0,0,.66.55,1.1,1.1,0,0,1,.45.6c.06.28.2.59.12.67a.53.53,0,0,1-.36.09.75.75,0,0,0-.41.06.91.91,0,0,1-.54.14,1,1,0,0,1-.53-.23c-.12-.11-.28-.35-.16-.5s.22-.26.12-.45a4.1,4.1,0,0,0-.52-.7.58.58,0,0,0-.59-.13.82.82,0,0,1-.51.2,2.92,2.92,0,0,0-.39.07.69.69,0,0,1-.6-.1,12.71,12.71,0,0,1-1.32-.89c-.3-.23-.47-.42-.64-.44a.3.3,0,0,1-.28-.28c0-.13,0-.38-.19-.35a.41.41,0,0,1-.44-.18c-.15-.17-.5-.6-.55-.67s-.14-.46-.35-.64-.55-.47-.73-.65-.36-.46-.25-.65.19-.2.16-.31-.14-.13-.24-.12a.59.59,0,0,1-.49-.08c-.22-.15-.42-.27-.44-.41a.33.33,0,0,1,.08-.26c.06-.07.09-.19,0-.2a.63.63,0,0,1-.53-.09,6.51,6.51,0,0,1-.77-.52l-1.55-1.38a.71.71,0,0,1-.28-.54c0-.21.09-.47-.11-.68a9.69,9.69,0,0,0-.8-.78,1.33,1.33,0,0,1-.5-.68c-.07-.24.16-.9-.09-1a.22.22,0,0,0-.28.08c-.08.09-.18.22-.34.2A.18.18,0,0,1,25.71,63.55Z"/><path class="cls-1" d="M50.66,96.14a.48.48,0,0,0-.41.21,2.48,2.48,0,0,0-.36.93,1.6,1.6,0,0,0,0,1c.17.44.41.62.42,1a2.65,2.65,0,0,0,.17,1.09c.19.49.44.75.54,1.07a1.35,1.35,0,0,0,.6.76,2.9,2.9,0,0,1,.5.34c.15.14.62.55.62.86s0,.3.07.44.22.1.32.32l.16.39a.14.14,0,0,0,.21,0s.19-.2.26-.11,0,.16,0,.2-.14.2-.07.35.29.3.49.58.27.42.51.53a2.39,2.39,0,0,1,.67.31,1.73,1.73,0,0,0,.9.32.58.58,0,0,0,.5-.17c.1-.11.16-.27.37-.26a2.23,2.23,0,0,1,.58,0,1.83,1.83,0,0,0,.57.07,2.63,2.63,0,0,1,.66-.1,2.8,2.8,0,0,0,.54,0c.2,0,.31-.12.5,0a.6.6,0,0,0,.43.07c.17,0,.19-.11.18-.2s-.12-.14-.2-.19a.93.93,0,0,1-.34-.3.29.29,0,0,1,.09-.39c.14-.09.38-.25.35-.39s0-.15-.11-.21-.27-.24-.13-.37a7.16,7.16,0,0,1,.79-.61c.19-.12.28-.25.56-.18a4.09,4.09,0,0,0,.85.15,1.47,1.47,0,0,0,.71-.14c.18-.09.37-.26.56-.16s.26.36.53.36.45,0,.6,0a.41.41,0,0,1,.41.18,2.24,2.24,0,0,0,.62.61c.2.09.27.06.45.2a.89.89,0,0,0,.6.23c.31,0,.45,0,.58.08s.3,0,.35.17a.54.54,0,0,1,0,.48,1,1,0,0,0-.27.52,3.27,3.27,0,0,0,0,.64c0,.2.08.41.12.57s.14.48.41.51a.45.45,0,0,0,.45-.16.57.57,0,0,1,.41-.23,1,1,0,0,0,.59-.24,10.92,10.92,0,0,0,1-1.1,2,2,0,0,0,.19-.39.44.44,0,0,0,0-.39,3.56,3.56,0,0,0-.16-.36.23.23,0,0,0-.32-.1c-.17.07-.9.3-1.22,0s-.27-.34-.43-.41a.61.61,0,0,1-.32-.35c-.05-.14-.06-.2-.15-.27a.53.53,0,0,1-.2-.39c0-.15.1-.39,0-.58a.68.68,0,0,0-.43-.32c-.15,0-.33,0-.44-.06s.05-.27-.26-.45a2.82,2.82,0,0,1-.58-.4c-.26-.21-.62-.4-.69-.46s-.2-.12-.28-.06-.21.13-.28.1a.17.17,0,0,1-.08-.25c.08-.14.2-.3,0-.47a3.37,3.37,0,0,0-.38-.32.28.28,0,0,0-.4,0l-.44.52a.8.8,0,0,1-.88.07,1.68,1.68,0,0,0-.74-.34,3.12,3.12,0,0,1-.61,0c-.21-.05-.18-.17-.18-.27a.32.32,0,0,0,0-.23.14.14,0,0,0-.22,0,2.74,2.74,0,0,0-.25.26.15.15,0,0,1-.17.06c-.09,0-.14-.21,0-.32s.25-.23.19-.41-.18-.64-.41-.74a2.36,2.36,0,0,0-.51-.09.26.26,0,0,1-.13-.3.48.48,0,0,0-.06-.41.26.26,0,0,0-.29-.08,2,2,0,0,1-.55-.07c-.25-.06-.38-.17-.54-.21s-.35,0-.39.15,0,.36-.15.44-.14,0-.26,0-.27-.14-.38,0l-.19.21s-.08.1-.15.07-.11,0-.12-.14a.29.29,0,0,0-.09-.25,3.18,3.18,0,0,0-.36-.3c-.08-.06-.12-.1-.06-.17a.45.45,0,0,0,.12-.32.21.21,0,0,0-.26-.21.47.47,0,0,1-.31,0c-.07-.05-.08-.2-.08-.26a.45.45,0,0,0-.11-.37,1,1,0,0,0-.91-.29,4.84,4.84,0,0,0-.81.51.75.75,0,0,1-.75,0c-.19-.17-.24-.34-.39-.39s-.15-.06-.21-.2,0-.36-.25-.4-.27,0-.38.12a1,1,0,0,1-.57.36A4.1,4.1,0,0,1,50.66,96.14Z"/><path class="cls-1" d="M91.34,96.51c-.37-.18-.32-.13-.44-.35s-.08-.47-.46-.72a8.41,8.41,0,0,0-1-.65c-.32-.19-.43-.1-.78-.2s-.5-.45-.73-.61c-.07,0-.26,0-.33,0-.3-.2-.27-.37-.5-.6a5.45,5.45,0,0,0-.81-.57,8.48,8.48,0,0,1-1-.69,10.07,10.07,0,0,0-1-.84c-.45-.33-.74-.57-1.28-.92s-.41-.31-1-.71a5.2,5.2,0,0,0-1-.65c-.28-.11-.24-.21-.41-.32s-.1-.23-.36-.23a1.2,1.2,0,0,1-.51,0c-.21-.08-.24-.21-.32,0s-.21.25-.14.43a.93.93,0,0,0,.63.55c.36.09.2.06.53.25a8.88,8.88,0,0,1,.91.55c.15.12.24.28.34.37s.35.13.45.31.09.37.27.5.69.61.9.78.34.11.38.3A1.28,1.28,0,0,0,84,93c.17.19.51.32.69.59a6.81,6.81,0,0,0,.66.75c.21.22.27.22.39.25s.18-.05.31.18.28.25.54.58.63.6.62.85,0,.08.07.27.16.16.18.3,0,.29.09.32l.18,0s.1-.24.18-.12a4.92,4.92,0,0,1,.43.52,1.76,1.76,0,0,0,.32.4c.2.21.54.39.52.66s-.06.41-.28.39a4.36,4.36,0,0,0-.61,0c-.38,0-.45,0-.58,0s-.16-.08-.42-.06-.4,0-.79-.26a6.19,6.19,0,0,1-.69-.51.64.64,0,0,0-.73-.08c-.23.17-.18.23-.38.24s-.25-.16-.38-.08.09.25.09.25a1.72,1.72,0,0,1,.73.92c.15.58,0,.45.2.65a1,1,0,0,0,.49.31,1.52,1.52,0,0,1,.71.39,2.37,2.37,0,0,0,.57.42c.2.15.45.18.37.42s-.14.35-.28.37-.21,0-.17.23,0,.37-.18.41,0-.22-.09-.29-.17,0-.41,0-.4-.3-.47-.47a5.09,5.09,0,0,1-.29-.7.46.46,0,0,0-.44-.39,1.7,1.7,0,0,1-.73-.15c-.3-.15-.44-.44-.83-.45a2.59,2.59,0,0,1-1.2-.34c-.44-.22-.23-.14-.39-.31s-.19-.32-.42-.41a2.14,2.14,0,0,1-.48-.29c-.12-.07-.28-.43-.46-.31s-.28.17-.34.32-.1.29-.49.3-.11,0-.57-.11a2.77,2.77,0,0,1-.8-.4,1.56,1.56,0,0,1-.61-.42c-.16-.21-.09-.3-.31-.43s-.3,0-.56-.14A5.24,5.24,0,0,1,76,97.3c-.31-.18-.34-.24-.58-.37a.85.85,0,0,0-.38-.14,1.46,1.46,0,0,1-.59-.25l-.37-.33a1,1,0,0,0-.4-.27,1.12,1.12,0,0,1-.56-.24c-.2-.19-.36-.41-.52-.38s-.17.05-.47-.13-.26-.29-.53-.25c-.68.11-.88.47-1.07,1.1a.8.8,0,0,0,0,.75,9.59,9.59,0,0,0,1.36,1.34,2.9,2.9,0,0,1,.89,1c.26.42.29.49.5.64a1.82,1.82,0,0,1,.58.56c.26.38.66,1,.8,1.13s.28.41.53.49.69-.09.85.23a2.22,2.22,0,0,0,.45.65,1.48,1.48,0,0,0,.52.39,1,1,0,0,1,.51.37c.19.23.35.39.45.54s.15.37.29.43.39,0,.63.2.26.29.23.44a.64.64,0,0,1-.31.48c-.25.17-.36.27-.67.12s-.22-.27-.68-.31a2.31,2.31,0,0,1-1-.26c-.26-.13-.47-.47-.83-.51a2,2,0,0,1-.83-.18.54.54,0,0,1-.26-.47.34.34,0,0,0-.3-.36,1.8,1.8,0,0,1-.6-.21c-.16-.12-.57-.31-1-.63a2.15,2.15,0,0,1-.52-.46,1.79,1.79,0,0,0-.67-.52,2,2,0,0,1-.73-.56,5,5,0,0,0-.84-.9,4.71,4.71,0,0,1-.8-.6,9.49,9.49,0,0,0-.82-.67,2.25,2.25,0,0,0-.82-.39,2.84,2.84,0,0,1-.63-.1c-.28-.09-.23-.3-.31-.54a1.65,1.65,0,0,0-.41-.6c-.19-.2-.74-.56-.91-.72a1.47,1.47,0,0,1-.45-.7,3,3,0,0,0-.34-.88c-.17-.32-.38-.26-.35-.54a.76.76,0,0,0-.17-.7.53.53,0,0,1-.24-.45,2,2,0,0,0,0-.38c0-.24-.1-.6.12-.59s.27.09.39.25l.56.72a.32.32,0,0,0,.48.09,3.21,3.21,0,0,0,.56-.51.54.54,0,0,0,.12-.43c0-.23,0-.36.08-.48s.07-.12.08-.37,0-.81-.44-.87-.89-.11-1.11-.12-.26-.16-.24-.28.23-.43.08-.59-.31-.15-.53-.48,0-.2-.17-.36-.2-.19-.18-.35,0-.4-.16-.48-.47-.19-.48-.41a.81.81,0,0,1,.11-.55.88.88,0,0,0,.08-.68.49.49,0,0,1,.19-.55,8.5,8.5,0,0,1,.81-.67,1.14,1.14,0,0,1,.68-.31,4.07,4.07,0,0,1,1.22.08,2.59,2.59,0,0,0,.69.37.91.91,0,0,0,.77-.14c.23-.21.37-.38.43-.44s.27-.25.27-.42-.27-.34-.27-.58.1-.42-.06-.7-.52-.47-.65-.61-.16-.12-.18-.24-.09-.28-.21-.29-.18.12-.4,0-.32-.29-.65-.56-.39-.48-.8-.71a2.4,2.4,0,0,1-.61-.44,4.49,4.49,0,0,0-.72-.68c-.49-.36-1-.91-1.31-1.08a2.46,2.46,0,0,0-.79-.35c-.24-.05-.48,0-.68,0s-.47-.07-.65-.1-.57,0-.77,0a1,1,0,0,0-.56.06.33.33,0,0,0-.07.41c.09.13.22.15.28.33a1.13,1.13,0,0,0,.15.42,1.51,1.51,0,0,1,.11.52,1,1,0,0,1-.1.67c-.15.18-.1.28-.51.28s-.4-.09-.66-.28-.56-.62-.85-.72a.49.49,0,0,0-.57.25c-.08.13-.06.3-.52.35a1.23,1.23,0,0,1-1-.23c-.32-.18-.65-.47-.95-.63a1.22,1.22,0,0,1-.6-.53,4,4,0,0,1-.3-1c0-.2,0-.56.32-.61a.92.92,0,0,0,.54-.18.51.51,0,0,0,.13-.4,1.47,1.47,0,0,0-.11-.66,2.85,2.85,0,0,1-.25-.6c0-.18,0-.33-.29-.37s-.29.1-.4-.07-.09-.52-.24-.89a2.45,2.45,0,0,0-.44-.81,1.27,1.27,0,0,1-.35-.4,5.39,5.39,0,0,1-.32-.52c-.12-.29-.24-.38-.39-.69a3.67,3.67,0,0,0-1-1.45,6.31,6.31,0,0,1-1.31-.86c-.35-.33-.57-.58-.73-.75s-.25-.23-.26-.41,0-.21-.14-.31a1.18,1.18,0,0,1-.36-.29A8.62,8.62,0,0,0,47,67c-.26-.26-.56-.52-.65-.6a2.76,2.76,0,0,1-.55-.72c-.1-.24-.29-.23-.55-.35s-.42-.43-.58-.56-.15-.23-.13-.49-.16-.28-.16-.28a2.05,2.05,0,0,0-.32-.21c-.23-.14-.11-.17-.55-.47a5.2,5.2,0,0,1-.79-.71c-.31-.28-.24-.33-.52-.53s-.51.16-.67.27-.23,0-.23-.08.14-.31.21-.56-.26-.26-.39-.28-.18-.05-.36-.21a.62.62,0,0,0-.44-.21,1,1,0,0,1-.37-.07c-.28-.06-.41.23-.58.42s-.42,0-.49-.12S39,61,39,61s.46-.34.56-.44.27-.32.24-.45-.2-.14-.35-.15-.29-.3-.41-.45-.13-.2-.23-.2-.08.21,0,.3.28.37.38.49,0,.29-.22.41-.1.3-.31.43-.13.1-.3.11a1.4,1.4,0,0,1-.61-.23c-.2-.1-.49.09-.64.07s-.16-.12-.16-.2.08-.18-.06-.18-.22.21-.29.34-.34.08-.52,0-.11,0-.36-.11a1.57,1.57,0,0,1-.74-.54c-.31-.35-.32-.19-.63-.55a8.25,8.25,0,0,0-.65-.66,3.7,3.7,0,0,1-.35-.5,2.58,2.58,0,0,0-.37-.38c-.13-.1-.06-.22-.16-.39s-.14,0-.32,0-.34-.23-.54-.45-1-.89-1.11-1a1.3,1.3,0,0,1-.35-.76c-.08-.44-.61-.85-.87-1.28a2.37,2.37,0,0,1-.23-1.2c0-.08.06-.22.33-.29s.65.44.9.51.41-.18.6-.39.33-.06.67,0a1.28,1.28,0,0,0,.93-.17A.44.44,0,0,0,33,52.1a2.24,2.24,0,0,0-.22-.53,3.69,3.69,0,0,1-.32-.93,13.77,13.77,0,0,0-.46-1.3c-.18-.48,0-.39-.13-.92s-.52-.68-.91-1-.28-.49-.46-.9-.5-.47-.82-.64-.22-.41-.6-.81a2.47,2.47,0,0,0-.83-.63c-.31-.16-.23-.33-.27-.44s.06-.17-.19-.44-.69-.1-1-.1a.74.74,0,0,1-.74-.3c-.28-.33,0-.83.05-1.3s-.5-.83-.82-1.16a3.53,3.53,0,0,0-.77-.58.81.81,0,0,1-.46-.7,1.51,1.51,0,0,1,.42-1c.2-.2.41-.16.85-.07s.5.48.67.52.29-.09.31-.35a1.31,1.31,0,0,0-.07-.62c-.08-.18-.07-.06-.15-.31a.73.73,0,0,0-.28-.44,11.18,11.18,0,0,0-1.35-.56,3.79,3.79,0,0,1-1-.8,1.32,1.32,0,0,0-.78-.4c-.16-.06-.3-.11-.25-.29s.24,0,.43-.08.36,0,.48-.28-.07-.43-.23-.64-.09-.17-.4-.77a2.41,2.41,0,0,0-1-1.13,1.47,1.47,0,0,0-1.26-.16c-.25,0-.33-.09-.4-.31s0-.22.08-.49,0-.32-.15-.39-.24.1-.45.12-.23-.17-.24-.29.07-.19-.05-.35-.22-.08-.37-.1-.22-.07-.36-.26-.19-.13-.47-.14-.29-.33-.29-.45a7.46,7.46,0,0,1,0-.88.64.64,0,0,0-.08-.52c-.09-.15-.12-.1-.1-.41s-.11-.37-.24-.41-.13-.06-.22-.19a.28.28,0,0,0-.32-.11.49.49,0,0,1-.41-.31.42.42,0,0,0-.27-.28c-.13-.05-.24-.08-.26-.24s-.13-.19-.26-.25-.15-.06-.25-.27-.2-.11-.39-.29-.12-.25-.1-.43a.35.35,0,0,0-.19-.36,1.11,1.11,0,0,1-.49-.43c-.16-.28,0-.39.1-.54s.11-.27,0-.4-.25.07-.44.07a.62.62,0,0,1-.53-.41c-.11-.27,0-.33.06-.38s.2-.16.11-.28S13.22,22,13,22s-.18-.21-.18-.37,0-.21-.08-.31-.24.13-.31.18a.18.18,0,0,1-.25,0,1.9,1.9,0,0,1-.38-.54,7.54,7.54,0,0,1-.3-.78,4.17,4.17,0,0,0-.28-.53c-.12-.18-.23,0-.47-.07s-.29-.22-.44-.48-.24-.15-.33-.16a.55.55,0,0,1-.41-.15c-.14-.16-.06-.37,0-.58a.25.25,0,0,0-.15-.33.77.77,0,0,1-.26-.22c-.13-.14-.34-.35-.52-.57s-.13-.18-.11-.47-.12-.2-.28-.31A.65.65,0,0,1,8,15.89c-.07-.22.1-.28.22-.41a.24.24,0,0,0,0-.37c-.13-.13-.21,0-.31,0a.19.19,0,0,1-.26-.05,6.68,6.68,0,0,1-.47-.51c-.12-.16,0-.14.08-.42s-.4-.45-.47-.61,0-.23.14-.31.05-.22-.1-.34-.1-.07-.22-.25-.3-.06-.44-.1-.22-.07-.23-.32-.36-.25-.52-.3a.51.51,0,0,1-.41-.3,1.09,1.09,0,0,0-.33-.4c-.12-.12-.1,0-.29-.35a2.25,2.25,0,0,0-.45-.57c-.16-.2,0-.35.07-.51s-.17-.22-.43-.39S3.39,9,3.41,8.59a.59.59,0,0,0-.36-.65c-.23-.14-.28-.22-.25-.43S2.68,7.24,2.51,7s-.17-.16-.18-.45-.17-.34-.3-.49a1.09,1.09,0,0,1-.27-.55.59.59,0,0,0-.26-.41,7.6,7.6,0,0,1-.68-.83C.57,3.94.32,3.6.2,3.41S.45,3.21.59,3,.35,2.79.35,2.79A.62.62,0,0,1,0,2.51c-.07-.2.06-.29.26-.6s.08-.42,0-.61,0-.18-.06-.5S0,.36,0,.2.05-.08.25,0,.66.68.93.88a2.94,2.94,0,0,1,.62.7,4,4,0,0,0,.72.85.78.78,0,0,1,.33.28c.16.18.13.16.28.23s.25.08.35.3a1.06,1.06,0,0,0,.46.49,4,4,0,0,1,.5.46,5.22,5.22,0,0,1,.75.72,3,3,0,0,0,.55.6,2.32,2.32,0,0,1,.78,1,1.83,1.83,0,0,0,.37.7c.23.39.38.48.47.77a1.6,1.6,0,0,0,.48.83c.3.28.35.36.41.59a1.9,1.9,0,0,0,.39.67,4.94,4.94,0,0,1,.72.91,2.26,2.26,0,0,0,.54.72c.22.2.66.48.68.83a.79.79,0,0,0,.37.69,1.79,1.79,0,0,1,.6.7.62.62,0,0,0,.29.39,1.93,1.93,0,0,1,.36.44c.16.23.48.43.5.74s0,.29.14.53.23.22.31.51.08.37.29.52.34,0,.62.45.3.4.3.71,0,.37.11.51.33,0,.57.33.51.44.69.93.3.44.36.68a.59.59,0,0,0,.41.51c.32.15.5,0,.76.4s.44.47.52.68.16.2.35.36a2.68,2.68,0,0,0,.55.43c.16.07.3.12.25.33s-.16.2-.08.34.16.13.29.13.26-.13.28.13,0,.41.24.46.31,0,.34.15-.18.17-.18.17-.7.24-.73.41.06.18.19.14a1.16,1.16,0,0,1,.68-.14c.35,0,.27,0,.47.13a1.1,1.1,0,0,0,.45.22c.17.05.42,0,.43.22s0,.32.17.48.45.33.48.58a1.06,1.06,0,0,0,.19.6c.15.23.48.29.71.75a3.11,3.11,0,0,1,.35.7,1.57,1.57,0,0,0,.38.72,1.24,1.24,0,0,1,.46.67c0,.29.06.29.36.68s1.09.71,1.15,1.1a1,1,0,0,0,.38.72c.24.21.67.73.91.9s.38.37.61.31.31-.17.33-.27a3.65,3.65,0,0,0,0-.92,3.18,3.18,0,0,0-.36-1.11c-.26-.39-.65-1-.87-1.43a12.81,12.81,0,0,1-.86-1.65,6.73,6.73,0,0,1-.34-1.13,3.39,3.39,0,0,0-.3-1.33c-.27-.49-.23-.36-.34-.43a.33.33,0,0,1-.19-.34c0-.23.09-.16.07-.39s0-.45.27-.45.33,0,.5-.2.18-.5.55-.35.26.21.47.18.32-.27.61-.11a.79.79,0,0,0,.57.13,1.38,1.38,0,0,1,.93.09c.44.23.29.24.47.29s.22-.06.24-.13a.18.18,0,0,1,.27-.08,1.21,1.21,0,0,0,.25.13,3.11,3.11,0,0,1,.4.11c.15.06.29.12.4,0s.07-.18.06-.29a.36.36,0,0,1,.1-.33,1.54,1.54,0,0,1,.33-.22c.21-.12.34-.23.5-.07s.13.43.43.68a2.25,2.25,0,0,1,.61.65c.06.15.06.24,0,.3s-.17,0-.32,0-.19-.18-.43,0a5.19,5.19,0,0,0-.58.57s-.12.17,0,.25.26,0,.38-.09a2.22,2.22,0,0,1,.5-.39.64.64,0,0,1,.53,0c.07.09-.19.22-.28.24a.58.58,0,0,0-.25.14c-.16.12-.28.26-.25.37s.21.13.41.06a1.49,1.49,0,0,0,.54-.29c.18-.15.25-.27.38-.29s.17.21.06.34a4.28,4.28,0,0,1-.4.32c-.08.08-.13.18,0,.23s.18,0,.3-.05.32-.33.4-.4a.29.29,0,0,1,.38.2c0,.18-.11.31,0,.5s.2.2.21.47a1.28,1.28,0,0,0,.16.51c.08.17.21.06.2,0a.7.7,0,0,1,.18-.49c.11-.08.31-.2.5-.31s0,.24.09.29a2.49,2.49,0,0,1,.45.61,1.94,1.94,0,0,1,.25.47c.06.19-.09.2.14.18s.16.18.17.42-.2.47,0,.59.22-.06.36,0,.15.22.29.23.42-.08.49,0-.09.36-.16.45a.26.26,0,0,0,0,.38c.14.16.17.13.19.38s.14.17.26.33.14.32.24.33.11,0,.21-.07.34-.32.4-.32.06.08,0,.18-.23.35-.12.36a.35.35,0,0,0,.28-.17c.08-.11.17-.34.31-.34s.39,0,.39.23-.15.27,0,.32.47.08.58.29.13.36.2.47.27.12.27.12.2.12.12.18-.46.3-.51.36,0,.11.17.09.49-.12.58.11a.68.68,0,0,1-.11.59c-.06,0-.52.28-.49.5s.2.22.27.23.48-.15.52-.05-.33.36-.37.39-.05.15,0,.32.11.09.21.09.31-.13.24.15.07.3.08.53-.14.38-.07.52.08-.19.15-.13,0,.28,0,.39.17.17.27.29.13.29.22.4a2.88,2.88,0,0,1,.49,1.07c.1.3.39.44.65.66.44.17.43.32.64.56a1.63,1.63,0,0,1,.47.76c0,.25.1.15.23.25s.62.45.57.87,0,.37-.13.55-.28.42-.14.53.3,0,.4-.15.32-.32.47-.26.16.07.17.22.18.31.26.37-.47.12-.11.49c.14.15.18.14.29.06s0-.25.21-.23a1.83,1.83,0,0,1,.54.25,3.65,3.65,0,0,1,.3.3c.14.16.29.29.43.22s.11,0,.12-.13,0-.17.17-.08a1.64,1.64,0,0,1,.3.25s.12.1,0,.17-.24.13-.15.27.14.21.11.27.05.06.12,0a.11.11,0,0,1,.17,0c0,.07.24,0,.33-.19s.14-.31.17-.18a.43.43,0,0,1-.06.4c-.11.08-.28.2-.24.24s.11,0,.22-.07a.46.46,0,0,1,.4,0c.13.06.25,0,.21.08s0,.17.09,0,.09-.28.2-.22.06,0,0,.15-.13.24,0,.21.18,0,.21.08.06.14.15.06a.47.47,0,0,1,.42-.07l.31.13c.25.21.3.13.48.22s.45.3.65.29a.51.51,0,0,1,.56.2c.14.23.16.34.33.35a.27.27,0,0,0,.27-.25c0-.12,0-.36.2-.39s.26.07.4.27.34.38.41.49a.16.16,0,0,0,.23,0c.07,0,.17-.15.27-.07s.4.06.36.27-.27.47-.19.54.33-.1.4-.17.16-.16.31-.07.48.35.53.55a3,3,0,0,1-.43,0,2.28,2.28,0,0,0-.52,0c0,.17.08.17.14.24s.36.1.52.31.06.24.14.35-.19.23,0,.24.29,0,.4,0,.18-.06.3-.12.28-.13.38,0,.18.11.19.28,0,.22.11.32.37.13.36.4-.08.18-.06.4.12.2.08.36-.23.34,0,.54.42,0,.48,0,0,.08-.19.15c-.35.06-.28.17-.25.19a1.56,1.56,0,0,0-.27-.06c-.12,0-.22,0-.16.1s.52.14.58.3a1,1,0,0,1,0,.3s0,.19.24.11.33-.26.43-.23.2.39.27.5a.34.34,0,0,1-.06.41c-.07.11-.13.36.06.39s.32-.11.41,0,.06.11,0,.17-.19.24-.18.32.07.14.19.13.23-.06.25.08a.28.28,0,0,1-.12.25s-.11.13-.08.21,0,.14.13.16.16-.16.26-.1,0,.15,0,.21,0,.11.13.28.37.52.41.57.2.16.1.33-.21.29-.18.42.14.14.26,0,.18-.13.23-.08a.22.22,0,0,1,.06.21c0,.09.06.17.13.23s.27.09.43.31.16.24.27.41a2.76,2.76,0,0,0,.35.42c.1.09.14.15.12.24s0,.13-.17.13a1.33,1.33,0,0,1-.53-.05.59.59,0,0,0-.35-.12,3.38,3.38,0,0,1-.45,0,.81.81,0,0,1-.4-.15c-.1-.08-.61-.53-.65-.59a1,1,0,0,0-.28-.22,1.74,1.74,0,0,1-.41-.36l-.37-.49a.34.34,0,0,0-.35-.17c-.22,0-.47.08-.6,0s-.29-.29-.43-.4a1.61,1.61,0,0,1-.36-.32.2.2,0,0,1,.06-.28c.08-.06.2-.14.19-.29a.58.58,0,0,1,.1-.44.57.57,0,0,0,.17-.39,2.56,2.56,0,0,0,0-.46,1.19,1.19,0,0,0-.14-.43.19.19,0,0,0-.27,0c-.09.07-.08.2-.15.28a1,1,0,0,1-.21.18,2.18,2.18,0,0,1-.45.21.39.39,0,0,1-.37,0c-.13-.11-.18-.19-.32-.33a.89.89,0,0,0-.43-.3,2.12,2.12,0,0,1-.52-.3,3.44,3.44,0,0,0-.34-.19c-.13-.08-.27-.17-.35-.1a.4.4,0,0,1-.49.08c-.22-.13-.31-.25-.49-.26s-.6-.38-.77-.42-.24.23-.28.36-.17.37-.2.48c0,.27,0,.28,0,.37a.33.33,0,0,1,0,.32c-.06.07-.33,0-.56-.05a1.56,1.56,0,0,1-.61-.46c-.29-.29-.57-.63-.57-.63s-.23-.27-.4-.45a3.06,3.06,0,0,1-.42-.53c-.17-.26-.25-.43-.13-.54s.3,0,.6,0a.41.41,0,0,0,.49-.4c0-.24-.11-.41-.42-.68s-.19-.37-.38-.55-.36-.15-.58-.24a1.52,1.52,0,0,1-.46-.23c-.25-.17-.24-.34-.42-.75s-.43-.29-.89-.4c-.22-.05-.3-.27-.5-.44s-.4-.28-.51-.37c-.27-.23-.51.29-.79.27s-.31-.16-.41-.43-.3-.4-.46-.39a1.58,1.58,0,0,1-.32.09,3.08,3.08,0,0,0-.41-.1c-.32,0-.2.25-.39.28a.86.86,0,0,1-.56-.19,1.59,1.59,0,0,0-.48-.26.64.64,0,0,1-.51-.28,1.94,1.94,0,0,0-.56-.43c-.16-.11-.12-.28-.17-.51a.54.54,0,0,0-.24-.38.62.62,0,0,1-.26-.39c-.09-.25-.11-.09-.3-.29a.61.61,0,0,1-.21-.51c0-.2,0-.22-.13-.31s-.37-.48-.61-.6a2.77,2.77,0,0,0-.75-.28.61.61,0,0,1-.5-.27,1.83,1.83,0,0,0-.4-.35c-.13-.09-.38,0-.62-.28a1.63,1.63,0,0,0-.63-.4,3.41,3.41,0,0,1-.56-.48A2.79,2.79,0,0,0,34,40c-.17-.05-.58-.1-.67-.2s0-.22-.1-.33a.92.92,0,0,0-.74,0,1,1,0,0,0-.51.73c0,.23.25.28.46.37s.26.24.25.51-.43.13-.73.22-.06.35,0,.79a1.66,1.66,0,0,0,.75.81c.27.11,1.11-.23,1.4-.26s.43.14.83.32.42.49.54.74.31.18.52.31.27.4.43.69.24.08.34.2a6.6,6.6,0,0,0,.26.64c.4.58.24.79.53,1.45s.76.59,1,.66.47.45.7.63a1.85,1.85,0,0,0,.87.36c.34.06.44.65.67.9a5.8,5.8,0,0,0,1,.59c.37.27.46.62.71,1,.08.11.21,0,.32.23a3.2,3.2,0,0,1,.3,1,1.49,1.49,0,0,0,.6.48c.32.09.34.07.5.25a3.52,3.52,0,0,0,.53.61c.2.12.49.33.52.58a1.2,1.2,0,0,0,.28.69,3,3,0,0,1,.48.54c.11.22.55.88.55.88a4.42,4.42,0,0,0,.55.6c.35.32.31.27.43.45s.19.33.4.42a.94.94,0,0,1,.54.39c.22.3.17.32.38.46s.41.18.43.43a.65.65,0,0,0,.3.59,1.87,1.87,0,0,1,.8.71,3.8,3.8,0,0,0,.29.74,3.08,3.08,0,0,0,.76.92c.34.25.55.34.71.6a2.53,2.53,0,0,0,.6.81,1.21,1.21,0,0,1,.43.59,4.18,4.18,0,0,0,.39.58,10.22,10.22,0,0,0,.74,1.23c.36.42.43.79.79,1.16a.7.7,0,0,0,.54.27.91.91,0,0,0,.61-.28.73.73,0,0,0,.31-.55c0-.26,0-.38,0-.87a2.4,2.4,0,0,0-.11-1.18,1.05,1.05,0,0,1-.26-.69,1.89,1.89,0,0,0-.29-1,1.72,1.72,0,0,1-.41-.89c-.05-.39.23-.69.17-1s-.24-.48-.24-.66a1.12,1.12,0,0,0-.09-.48,3,3,0,0,1-.19-.63c0-.21.06-.42,0-.66s-.14-.49-.06-.55.14,0,.26,0a.34.34,0,0,1,.36.1,1.71,1.71,0,0,0,.63.32c.15,0,.28,0,.43.09s.15.17.28.34.28.52.19.66-.23.32-.23.43.18,0,.29,0a3.11,3.11,0,0,1,.57.11,1.27,1.27,0,0,0,.33.09c.11,0,.15.05.14.18s-.14.29,0,.41a.32.32,0,0,0,.26.11.37.37,0,0,1,.31.22c.13.23.08.35.34.54a2.47,2.47,0,0,0,.68.42c.24.07.46.27.59.27s.37,0,.49.08-.16,0-.14.24.2.14.33.29,0,.41.14.41a.37.37,0,0,1,.29.12,6.1,6.1,0,0,0,.77.72,2.18,2.18,0,0,1,.71.65c.23.32.29.6.64.87s.46.38.71.59a3,3,0,0,0,1.32.85c.58.09.88,0,1,.12a.73.73,0,0,1,.13.36s.08.33.24.33.22-.16.26-.27a.22.22,0,0,1,.37-.09.69.69,0,0,1,.31.47c.09.3,0,.28.13.41a.29.29,0,0,0,.34.08c.1,0,.22-.09.28.12a1.41,1.41,0,0,1,0,.49.43.43,0,0,0,.12.35c.14.15.52.67.61.79a.57.57,0,0,1,.12.48.58.58,0,0,1-.19.3c-.09.07-.14.16,0,.22a1.05,1.05,0,0,0,.43,0c.1,0,.32,0,.4.13a2.6,2.6,0,0,0,.41.4c.13.1.34.16.32.43a.83.83,0,0,0,.1.71,8.85,8.85,0,0,0,.78.93.45.45,0,0,0,.33.16c.11,0,.23,0,.27.13s.07.28-.08.39-.3.2-.31.34-.06.43.16.5.42-.07.53,0,.79.74.94.9a1,1,0,0,0,.52.33.5.5,0,0,0,.36-.14.46.46,0,0,1,.56,0,6.1,6.1,0,0,1,.61.51.32.32,0,0,0,.22.1c.09,0,.24,0,.37.15l.7.81a.46.46,0,0,0,.32.15.5.5,0,0,1,.43.13,6.71,6.71,0,0,0,.65.66c.19.15.2.17.23.36s-.19.2-.19.2-.36-.12-.47,0a.27.27,0,0,0,.08.37c.09,0,.42.2.47.5a1.68,1.68,0,0,0,.17.57,2,2,0,0,0,.41.59c.19.2.43.21.49.61s-.18.32,0,.54.41.19.47.4,0,.42.13.51.23.07.24.27-.14.22,0,.26.28-.1.43,0,.48.21.58.09.09-.48.48-.6.36,0,.7,0,.85,0,.87.23-.08.2-.15.29.31.07.25.16-.47.35-.41.41.26-.13.37,0,.35.19.39.29-.07.33,0,.27.2-.36.33-.27.46.25.38.4-.34.46-.29.59.16-.06.28-.13.15-.16.39-.07.48.44.64.56.73.2.63.41-.14.24-.12.33.18,0,.26-.06.1-.22.28-.07,0,.12,0,.21.36,0,.38.1,0,.39.06.39.25-.15.38,0,.09.23.18.33.29.21.29.27-.26.23-.14.26.24-.23.42,0a.89.89,0,0,0,.47.29c.19,0,.32,0,.43.17s.15.23.27.39a5.14,5.14,0,0,0,.59.5,1,1,0,0,1,.28.54c0,.2,0,.38.21.4s.2-.26.4-.06a2,2,0,0,1,.3.6.62.62,0,0,1,.09.42c.09.19.08.34.17.6a1,1,0,0,1,.22.59c0,.16,0,.76,0,.76v.06a.29.29,0,0,0,.24.26,3.37,3.37,0,0,1,.67.28c.12.07.33.22.33.29a.22.22,0,0,0,.07.2c.08.09-.06.22-.06.22s-.12.29,0,.19.28-.12.21,0a.94.94,0,0,0,0,.58c0,.17.15.38,0,.5s-.18.26-.12.35.07.13,0,.2-.11.27-.29.26l-.32,0,.17.59s.06.44-.16.12-.6-.85-.6-.85A1.69,1.69,0,0,0,91.34,96.51Z"/></g></g></g></svg>