<svg xmlns="http://www.w3.org/2000/svg" viewBox="0 0 97.2 51.21"><defs><style>.cls-1{fill:#cf6a24;fill-rule:evenodd;}</style></defs><g id="Layer_2" data-name="Layer 2"><g id="regije"><path id="pakrac" class="cls-1" d="M90.83,3.16c0,1-1,1.11-1.15,1.86s-1.57,2.13-2.22,3S86.27,9.17,86,8.67s-1.1.25-1.51.21A4.22,4.22,0,0,0,82.7,9c-.65.22-1,.25-1.28-.2S80.1,8.37,80,8s-.79-.2-.79-.2-1.43-.21-2-.33-.1-.86-.2-1.81-1.36-.35-1.88-.55a3.68,3.68,0,0,0-2.3-.18A6.35,6.35,0,0,1,70.43,5l-2.8.79L63.35,7.11s-2.11.62-2.76.91-.76.37-1.43.06-.94-.05-1.66.43-1-.2-1.54-.54-1.32.06-1.71.69-1.09.18-1.09.18-1-.73-1-1.34-.56-.72-1.23-.76-.83-.43-.89-1.26S49,5.05,48.12,5s-.51-1.29-.24-2.11S48,2,47.32,2.28s-1,.33-1.54-.24-.94-.12-1.69-.4-.64.26-1.1.82a5.91,5.91,0,0,0-.67,2.14L41.09,7.11s-.28,1,.4.87.9.46.33.76a1.65,1.65,0,0,1-1.76-.59,1.27,1.27,0,0,0-1.43-.51c-.49.22-.68.45-1.09-.31s-1.21.13-1.39-.47-1.38-1-1.75-1.08-.91-.12-1.06.33-.91.25-1.55.09S30.54,7,29.9,7s-.39,1.24-1,1.42-1,2.81-1,2.81l-.67-.05,0-.75s-.07-.34-.82-.54-.86-.57-.93-1.14-.82-.87-1.38-.92-.56-.57-.89-1.48a1.06,1.06,0,0,0-1.81-.29c-.3.53-1.63.93-2.16,1s-.91.63-1.15,1.53A.79.79,0,0,1,17,9.15l-.23.48-1.14.14S14,9.68,13.9,9.26,13.45,8.46,13,9s-.79-.05-1.24-.24-.79-.24-.44-.88S9.44,6.61,9.44,6.61a1.44,1.44,0,0,1-.9-.43c-.29-.38-.4-.38-.78-.23S7,5,7,4.58s-.63-.65-1.16-.88-.18-.45-.18-.45a6.57,6.57,0,0,0-.06-1.36c-.1-.57.12-.79.39-1.28S6,.05,5.53,0A5.26,5.26,0,0,0,4,.39a9.48,9.48,0,0,1-.66.7,2.48,2.48,0,0,0-.48,1.19,6.1,6.1,0,0,1-.82,1.5,13.38,13.38,0,0,0-.86,2.57A2.59,2.59,0,0,1,.36,7.42c-.18.17-.11.76-.11.76s0,.33-.1.41S0,8.82,0,9.2A2.7,2.7,0,0,0,.09,10s.46.61.54.73a1.23,1.23,0,0,1,.17.51c0,.14-.41.37-.55.62a1.59,1.59,0,0,0,.14,1.1,4.76,4.76,0,0,1,.12,1.22c0,.15.35.45.44.59s.18.43,0,.57-.08.29-.09.57-.31.27-.53.32-.17.34-.17.58,1.38,1.09,1.59,1.3c.68.7.76,1.78,1.47,2.51a3.76,3.76,0,0,1,1,1.41,2.21,2.21,0,0,0,1.27,1.46c.92.31,2.21-.07,3.14-.06.36,0,1.61.38,1.91.09a2.45,2.45,0,0,1,2-.46c1.29.23,1.37.56,2.14,1.41l1.92,2.05c-.15,0-1.15,1.1-1.42,1.27-.79.5.07,1.14.37,1.77,0,.09-.2,1.65.31,1.15.7-.68.29.75.86.75,1.14,0,.31-.71.95.64.44.91.45-.26.69-.5s1.5.32,1.53.26c.52-1,.29.27,1,.28s.68-1.34.68-1.87-.41-2.73.42-2.72a6,6,0,0,1,3,.57c.5.34-.34.81-.31,1.11L25,30.57c.17,1,.67,1.05-.37,1-.33,0-.46.38-.64.38-1,0-1.11.38-.61,1.25s-.79,1.16-.71,1.94c.13,1.19-.68,1.45-1.31,2.07-.31.3-.11,1-.11,1.53,0,.66.86.31,1,.13.52-.5.13-.45.57,0,.21.21.72-.05,1,0a5.78,5.78,0,0,1,1.55.62c.59.4.58,1.14,1,1.57.68.69,1.43.28,2.2.68l5.66,2.26A4.86,4.86,0,0,1,36.88,47c.28,1.29-.78,2.21-.4,3.41.43,1.35,1.69.77,2.54.36,1.08-.53,2.46-.57,3-1.73.4-.77,1.35-.13,1.73.26s.79.25,1.21.25c0-.18.19-.35.5-.5.66-.32,1.56-.58,1.58-1.57,0-.47.77-1.81,1.25-1.81.65,0,1.3-1.21,1.78-1.68s.55-1.22,1-1.42.82-1,1.45-1.18.57-.65,1.06-1l1.2-.82c.49-.35,1.4.47,1.42-.43,0-.57.83,0,1,0,.48,0,.62.67,1.31.67.27,0,.49-.44.84-.25,1.4.7,2.59,1.07,3.17,2.88.34,1.11.89.91,2,1.28.83.28,2.19,1.88,3.15,1.41.7-.32,1.14.17,1.77.17s1.17-.85,1.89-.84S73,45.67,73,44.32c0-.51.25-1.07.26-1.58s-.59-1-.37-1.65c.5-1.46,2.43-.45,3.23,0s1.32-.11,2.13-.31a2.3,2.3,0,0,0,1.2-.13c.27-.12.3-.6.6-.74s.75.1,1,.07a4.52,4.52,0,0,0,1.18-1.21c0-.3.57.06.63.07.3,0,1.15-1,1.38,0,.17.78.6-.74,1.1,0,0-.19.45-1,.45-1.18.38,0,.57-.57.57-.76,1.14-.57,1.9-2.28,3-2.66,0-.38.38-.76.57-1.14.19,0,1.14-.38,1.33-.19v.19h.38l.38-.19.19-.19c0-.38.57-.57.57-1.14l.38-.19a7,7,0,0,1,.37-2.86h.57c.19-.57,1.32-3.8,1.9-3.8,0-2.1-1-3.24-1-5.33,3.81-1.9.54-6.66.53-9.89,0,0,.38-.39.57-.39a.37.37,0,0,1,.38-.38V8.68L97,8.49c0-1.14.56-2.66-.21-3.8-1.14,0-2.86.76-4,.76a.5.5,0,0,1-.57.57c0,.19-.19.38-.19.57h-.57V5.07C91.07,5.07,90.83,3.35,90.83,3.16Z"/></g></g></svg>