<svg xmlns="http://www.w3.org/2000/svg" viewBox="0 0 143.76 70.79"><defs><style>.cls-1{fill:#c7eafb;fill-rule:evenodd;}</style></defs><g id="Layer_2" data-name="Layer 2"><g id="regije"><path id="peljesac" class="cls-1" d="M140.27,59.79a4.45,4.45,0,0,1-.82-.79c-.26-.34-.25-.21-.52-.41s-.13-.3-.24-.37-.24,0-.36,0-.2,0-.45-.17-.26-.11-.72-.21-.54-.44-.91-.72a3.42,3.42,0,0,1-.75-.82c-.28-.37-.61-.26-.93-.38a3.81,3.81,0,0,1-.94-.31,2.38,2.38,0,0,0-.93-.33,2,2,0,0,1-1.08-.43c-.51-.37-.91-.53-1-.65a6.23,6.23,0,0,1-.74-.73c-.17-.24-.37-.55-.54-.77s-.13.09-.13.09.12.36.34.9a1.78,1.78,0,0,0,.7,1,1.85,1.85,0,0,0,.84.35c.31,0,.32.12.64.34a.94.94,0,0,0,.77.26c.49,0,.36.14.58.33s.1.24,0,.37a1.23,1.23,0,0,0-.1.4c0,.27.17.36.39.5a5.93,5.93,0,0,1,.57.3c.16.14.78.63,1.26,1a12.31,12.31,0,0,0,1,.67,2.59,2.59,0,0,0,.54.33c.68.25.53.3.94.56a4.3,4.3,0,0,0,.48.26c.62.34.55.73.54,1.15s.43.91.77,1.37.08.19.29.43.28.25.38.53.13.24.42.51.23.53.29,1,.26.37.74.6a2.51,2.51,0,0,1,.91.75c.38.4.36.47.36.64s-.07.28-.33.36a3.93,3.93,0,0,0-.79.41,2.39,2.39,0,0,0-.45.34.88.88,0,0,0-.16.72c0,.17,0,.18,0,.42s.2.18.31.32.12.17.11.44-.08.53-.37.5-.2-.23-.55-.46-.43-.14-.85-.41-.26-.32-.41-.79-.48-.5-.67-.82-.26-.48-.13-.65.19-.1.57,0,.53.1.62,0,.17-.1.16-.59-.18-.45-.41-.79a1.8,1.8,0,0,1-.31-1c0-.31-.1-.35-.34-.75a.48.48,0,0,1,0-.62.22.22,0,0,0,.14-.29.9.9,0,0,0-.4-.56,1.85,1.85,0,0,1-.44-.5c-.21-.27-.1-.18-.47-.44s-.49-.07-.73,0-.35,0-.6-.06-.33,0-.43.21a.43.43,0,0,0,0,.44c0,.15.15.24,0,.37s-.23.05-.48,0a4.29,4.29,0,0,0-.55-.08,1.45,1.45,0,0,1-.49-.14,11.79,11.79,0,0,1-1.31-.69,1,1,0,0,1-.44-.83c0-.31,0-.35-.09-.44s-.16,0-.31.18a2.39,2.39,0,0,0-.3.6.66.66,0,0,1-.61.35,1,1,0,0,1-.74-.17,1.06,1.06,0,0,1-.19-.87c0-.33,0-.44-.09-.52a.18.18,0,0,0-.24.06l-.38.32c-.23.2-.3.28-.51.16s-.13-.11-.23-.42-.13-.62-.4-.79-.45.39-.71.48a2.8,2.8,0,0,1-1,0c-.54-.25-.45-.35-.6-.62a.55.55,0,0,0-.56-.32.35.35,0,0,1-.4-.31c0-.23.06-.24.15-.56a1.55,1.55,0,0,0,0-1.12c-.21-.44-.59-.34-.63-.22s0,.2,0,.37,0,.3-.28.36-.13,0-.31.22-.12.15-.33.12-.26,0-.54,0-.25-.07-.57-.23a.87.87,0,0,0-.86,0c-.13.14-.22.14-.46.13s-.29-.1-.63-.4a1.42,1.42,0,0,0-1.17-.19c-.26,0-.56-.16-1-.35a5.84,5.84,0,0,0-1.13-.33,3.35,3.35,0,0,1-1-.32c-.46-.22-1-.39-1.73-.7s-.91-.12-1.37-.25-.53-.33-.81-.61a1,1,0,0,0-.61-.39,1.18,1.18,0,0,1-.62-.3c-.27-.21-.73-.4-.91-.54s-.29-.11-.56-.17a.78.78,0,0,1-.44-.2c-.21-.14-.16-.23-.39-.22a1.13,1.13,0,0,1-.65-.07,1.87,1.87,0,0,0-.51.05c-.15,0-.12,0-.43-.23a1.56,1.56,0,0,0-.88-.22,2.09,2.09,0,0,1-1-.35,2.52,2.52,0,0,0-1.14-.26,3.16,3.16,0,0,1-1-.32,2.11,2.11,0,0,0-1-.14,2,2,0,0,1-1-.23c-.41-.18-.34-.35-.72-.66a2.63,2.63,0,0,0-.83-.55c-.19,0,0,.26-.2.42s-.43.08-.68-.05a3.52,3.52,0,0,0-1-.11.83.83,0,0,1-.62-.27,1.25,1.25,0,0,0-1-.25,1.42,1.42,0,0,1-.82-.18,6.43,6.43,0,0,0-1.42-.37,7.76,7.76,0,0,1-1-.62c-.56-.43-.21-.25-.79-.54s-.54-.44-.84-.68-.38-.16-.64-.18-.24,0-.44-.16-.29-.06-.51-.06-.2,0-.37-.19-.33-.11-.48-.13-.13,0-.4-.17-.41-.06-.68-.08a.61.61,0,0,1-.54-.26c-.22-.22-.41-.14-.74-.16s-.26,0-.53-.26-.49-.06-.7-.13,0-.2-.28-.46-.45-.29-.65-.22-.18.15-.45.08-.15-.06-.5-.36-.6-.19-.81-.22-.42.09-.53-.12-.15-.2-.06-.49.12-.36-.07-.46-.3,0-.49.12-.25.22-.41.13,0,0-.27-.31a.65.65,0,0,0-.59-.22.55.55,0,0,1-.44-.13c-.27-.17-.38-.1-.52-.17s0-.14,0-.14l.69-.29c.27-.11.21-.32.19-.56a.5.5,0,0,1,.2-.57c.26-.2.19-.39.16-.46a.36.36,0,0,1,.1-.35.67.67,0,0,1,.52,0,.73.73,0,0,0,.7,0c.33-.17.26-.13.54-.12s.32-.08.3-.34-.17-.24-.34-.31a.38.38,0,0,1-.22-.41c0-.17.08-.17.37-.17s.2-.19.24-.41.24-.17.37-.15.24-.08.17-.27-.35-.24-.65-.38-.27-.19-.72-.56a2.19,2.19,0,0,0-1.29-.3c-.32-.06-.27,0-.68-.37a6.62,6.62,0,0,0-.86-.54c-.48-.3-.56-.37-1-.66a1.83,1.83,0,0,1-.73-1.05c-.23-.57-.67-.61-1.08-.7s-.42,0-.59.18a.33.33,0,0,1-.39.14.2.2,0,0,1-.16-.26.46.46,0,0,0-.07-.42c-.13-.17-.41-.19-.67-.26a1.25,1.25,0,0,1-.6-.29.36.36,0,0,0-.42-.09c-.16.06-.15.35-.15.35-.09.44-.22.35-.59.43a1,1,0,0,1-.57.06,2,2,0,0,0-.54,0,.58.58,0,0,1-.5-.11.49.49,0,0,0-.47,0c-.16,0-.27.17-.47.08a.42.42,0,0,0-.49,0,.5.5,0,0,1-.56.08c-.21-.12-.08,0-.46-.08s-.38-.19-.77-.25-.39.19-.9.19-.65-.22-1-.58-.42-.27-.66-.41a4.83,4.83,0,0,1-.59-.43,1,1,0,0,0-.59-.19,1.1,1.1,0,0,1-.36-.07c-.14-.07-.13-.32-.15-.45s0,0-.31-.37a2,2,0,0,1-.43-.76,1.29,1.29,0,0,0-.8-.67,2.36,2.36,0,0,1-.48-.4,1.25,1.25,0,0,0-.6-.35,1,1,0,0,1-.51-.25,2.65,2.65,0,0,0-.54-.32A4.65,4.65,0,0,1,59.6,28a3.7,3.7,0,0,0-1.42-.28,3.11,3.11,0,0,1-1.39-.64c-.42-.3-.24-.33-.64-.51a2.08,2.08,0,0,1-.6-.39,1.38,1.38,0,0,0-.85-.29c-.27,0-.41-.08-1.24-.11-.25,0-.5-.38-.69-.41-.41-.08-.19.23-.34.17-.45-.21-1.71-.85-2.13-1.05a3.21,3.21,0,0,0-.92-.38c-.41-.07-.68-.45-1.1-.75s-.47-.16-.88-.29-.39-.34-.5-.61-.32-.18-.41-.17a1.28,1.28,0,0,1-.38,0,.7.7,0,0,1-.59-.44c-.15-.28-.3-.3-.54-.41s-.21-.35-.39-.57a2.11,2.11,0,0,1-.33-.61c-.16-.37-.67-.23-.83-.23s-.37,0-.47-.12a.61.61,0,0,0-.36-.27c-.19-.09-.15-.14-.27-.41s-.19-.31-.49-.46l-.05,0h0l-.12-.07h0l0,0s0,0,0,0h0v0h0v0h0v0h0v0h0v0h0v-.05h0s0-.08,0-.12h0v0c-.11-.49-.39-.41-.79-.53s-.32-.1-.64-.54-.36-.38-.93-.37-.38-.12-.86-.19a2.09,2.09,0,0,0-1.12.18,8,8,0,0,0-.93.24A4.68,4.68,0,0,0,34.58,18c-.23.25-.34.32-.6.3s-.6.08-.9.1-.61,0-.75,0H32l-.29.3-.13-.08.24-.29-.45-.14c-.21,0-.32.08-1.18.18a10.19,10.19,0,0,1-2,0c-.81,0-1.51,0-2.07,0a4.72,4.72,0,0,1-1.11,0,4.38,4.38,0,0,0-.82-.05c-.6,0-.83-.15-1-.48a1.26,1.26,0,0,0-1-.53A5.25,5.25,0,0,1,21,17a.78.78,0,0,0-.89,0,1,1,0,0,1-.87.22c-.5-.08-.54-.26-1.13-.94A1.73,1.73,0,0,0,16.23,16a15.4,15.4,0,0,1-2.14.14c-.41,0-1.08-.05-1.33-.08a3.62,3.62,0,0,1-.86-.11c-.41-.12-.31-.5-.45-.82s-1-.67-1.23-.8a1.88,1.88,0,0,1-.78-.64c-.31-.38-.43-.38-.93-.54s-.4-.36-.68-.54S7.05,12.13,7,12a3.49,3.49,0,0,0-.13-.42c-.06-.13-.11-.27-.36-.23a2.09,2.09,0,0,1-.8.14A6.49,6.49,0,0,1,4.22,11a1.62,1.62,0,0,0-.95,0A.89.89,0,0,1,2.56,11a1.45,1.45,0,0,0-.74-.14.55.55,0,0,1-.43-.19C1.3,10.48,1,10.15.88,10A.54.54,0,0,1,.8,9.51c0-.11.21.05.36.2a7.15,7.15,0,0,0,.76.56,2.36,2.36,0,0,0,.7.43c.4.15.52-.14.53-.3s0-.05.12-.41,0-.47,0-.88.44-.65.57-.8.2-.18.19-.38S4,7.72,3.8,7.65s-.25-.13-.25-.25.18-.2.36-.29a.87.87,0,0,0,.31-.44c.07-.14.08-.31.3-.39s.52-.08.74-.06a.51.51,0,0,0,.38-.08A.39.39,0,0,1,5.9,6c.19,0,.23-.09.22-.24a.38.38,0,0,0-.25-.29c-.15-.08-.4-.31-.65-.48s-.14-.4,0-.43.23-.06.23-.17,0-.24-.27-.25a2.24,2.24,0,0,0-.58.14c-.22.05-.42-.07-.68-.09s-.28.26-.26.4a2,2,0,0,0,.2.53c.08.14.16.35,0,.43a.37.37,0,0,1-.47-.15,3.61,3.61,0,0,0-.75-.52,2.27,2.27,0,0,0-.46-.2c-.1,0-.21,0-.24-.16s0-.21.16-.35a.45.45,0,0,0,.13-.46.55.55,0,0,1-.11-.39c0-.24.25-.29.48-.3s.33-.07.33-.22-.1-.19-.19-.24a1.47,1.47,0,0,1-.52-.24c-.21-.17,0-.4,0-.51s.17-.13,0-.27-.4-.13-.79-.22S.87.89.68.81.11.65.05.53,0,.26.05.18A.89.89,0,0,1,.89.07c.28.18.36.38.52.41A.42.42,0,0,0,1.76.37a.52.52,0,0,1,.54,0A1.09,1.09,0,0,0,2.9.5,5.36,5.36,0,0,1,4,.51c.26.05.52.19.74.24a1.2,1.2,0,0,1,.71.31c.24.23.22.29.51.41s.42.07.52.19a.35.35,0,0,1,0,.48.44.44,0,0,1-.31.16A.16.16,0,0,0,6,2.49c0,.13.11.15.34.2s.34,0,.52.06a1.69,1.69,0,0,0,.54,0,1.31,1.31,0,0,1,.82.36c.28.21.26.22.33.4s0,.27.31.33.54.05.68.33.19.54.42.59.59,0,.73.06S11,5,11,5.14s0,.22.22.27.66-.06.86.17.2.36.35.37h.37c.06,0,.11,0,.12.11s0,.17-.22.19a1.41,1.41,0,0,0-.45.11.28.28,0,0,0-.15.33c0,.09.16.11.33.11a1.57,1.57,0,0,0,.54-.1c.12-.06.48-.11.59.08s.16.34.29.38.17,0,.23-.1.23-.3.46-.15a2.15,2.15,0,0,1,.31.23s.24.17.36,0,.09-.39.36-.4.28.11.47.06.24-.46.58-.29.41.33.73.29a17.4,17.4,0,0,1,2.07-.36,6.18,6.18,0,0,0,1.12,0,2.25,2.25,0,0,1,.95-.14,1,1,0,0,0,.75-.16A1,1,0,0,1,23,6a1.45,1.45,0,0,0,.83-.09c.21-.06.3,0,.55,0a1.28,1.28,0,0,0,.69-.22,1,1,0,0,1,.77-.13.89.89,0,0,1,.55.21.61.61,0,0,0,.47.18c.39-.11.45-.27,1-.29s.88.47,1.39.42A1.06,1.06,0,0,0,30,5.88c.35-.19.7-.47,1.12-.37.59.14.54.81,1.08,1,.32,0,.61-.62.85-.26.06.09,0,.18,0,.25a.92.92,0,0,0,.62.32,2.16,2.16,0,0,1,.91,0c.26.13.41.38.71.35s.88-.1,1,0,.23.34.46.28.32-.49.79-.32a6.16,6.16,0,0,0,1.54.46,7,7,0,0,1,2,.15,5.44,5.44,0,0,0,1.42.2,2.27,2.27,0,0,1,.94.06,3.8,3.8,0,0,0,.88.27,1,1,0,0,1,.59.3,1,1,0,0,0,.78.25A2.33,2.33,0,0,1,47.1,9a2.92,2.92,0,0,0,1.18.5c.31,0,.24,0,.23-.09l0-.16.33-.1v.08l-.2.07v.18L49,9.31l.36-.3-.61-.17,0-.12.58.18.53.14a6.85,6.85,0,0,1,.71.39c.22.11.19,0,.4.12a.78.78,0,0,1,.43.23c.09.07.29.15.28.26s-.3-.12-.32-.08.23.15.3.28-.09.26-.06.3a.68.68,0,0,0,.36.29c.14,0,.39.14.47-.05s.11-.6.46-.47a4,4,0,0,0,.78.26,1,1,0,0,1,.53.17c.18.11.17.23.52.27a3.11,3.11,0,0,1,1,.26,5.06,5.06,0,0,1,.49.28s.31.42.41.57a.5.5,0,0,0,.44.22.91.91,0,0,1,.76.17A5.51,5.51,0,0,0,59,13a2,2,0,0,1,.74.38.62.62,0,0,1,.12.38c0,.1-.16.24.16.24s.34-.55.87-.25l1.13.63a2,2,0,0,1,.61.41c.53.59,1.14.37,2.08.92.45.35.38.31.51.41a.82.82,0,0,0,.46.18,1.34,1.34,0,0,1,.88.2,2.29,2.29,0,0,0,.85.49,3,3,0,0,1,1,.44.8.8,0,0,1,.25.55c0,.15.1.2.24.22a2.91,2.91,0,0,1,1.08.23A14.37,14.37,0,0,1,71.3,19c.22.13.42.21.43.52s0,.34,0,.43.27,0,.4-.05a3,3,0,0,1,1.42.36,4.12,4.12,0,0,0,1.53.56,2,2,0,0,1,1.21.59,1.55,1.55,0,0,0,1,.56,2.36,2.36,0,0,1,1.52.18,5.74,5.74,0,0,0,1,.56,3.49,3.49,0,0,1,.89.44c.25.22.34.38.43.45s.27.14.35.3,0,.33,0,.41c0,.23,0,.49.67,1.08s.82.64.94,1.17-.07.64-.18.75a.53.53,0,0,0-.25.48,1.44,1.44,0,0,1-.06.5s.22.08.19.21a.42.42,0,0,1,0,.17l.27.12V29h-.15l0-.18-.22-.08a.3.3,0,0,0,0,.27c.1.13.21.51.3.57l.76.66a.45.45,0,0,0,.34.13,1.12,1.12,0,0,1,.46.24,1.16,1.16,0,0,0,.45.29c.19.06.53.33.74.34.44.08.27-.18.64,0,.22.08.49.42.33.62s-.4.21-.41.45.25.31.45.29a.92.92,0,0,1,.83.09c.35.27.28.3.49.3s.3-.21.13-.41-.36-.36-.41-.55a.46.46,0,0,1,.19-.49.41.41,0,0,1,.59.07c.21.25.11.24.39.51s.79.7.79.7a.6.6,0,0,1,.17.39c0,.26,0,.38.2.51s.32.33.54.34.38,0,.44-.15.21-.47.38-.44.24.15.33.34a.38.38,0,0,0,.4.23,3.67,3.67,0,0,1,1,.1c.58.15.94.2,1.09,0s0-.53.32-.53.28.27.29.4a1.51,1.51,0,0,0,0,.55c.07.14.24.07.36,0s.2-.13.35,0,.08.4.08.4,0,.16.32.22.49-.07.85.19a1.45,1.45,0,0,0,.8.36.58.58,0,0,0,.56-.34.38.38,0,0,0,0-.51,5.41,5.41,0,0,0-.52-.45.83.83,0,0,1-.3-.39c-.09-.19,0-.09-.12-.27a1.33,1.33,0,0,1-.1-.78,1.07,1.07,0,0,0-.34-.72c-.2-.25,0-.31-.25-.55-.46-.21-.42-.44-.65-.56s-.72-.26-.75-.41a.37.37,0,0,1,.24-.4c.16-.05.33,0,.47.3s.14.37.28.42.21-.06.21-.23,0-.28.23-.31.76-.08.89.26,0,.42.23.52.51,0,.83.34.29.22.53.28a1.11,1.11,0,0,1,.79.52c.24.37.46.7.81.78a2.21,2.21,0,0,0,.55.14c.24,0,.48-.1.6,0s.33.47.52.49.22-.08.24-.17.11-.14.29-.11.2.17.24.25.1.15.28.19a.64.64,0,0,1,.51.25.78.78,0,0,0,.6.36.72.72,0,0,1,.6.26c.26.27.36.25.53.25a.65.65,0,0,1,.52.23.59.59,0,0,0,.62.28c.33,0,.49,0,.66.3s.16.51.53.56a2.92,2.92,0,0,1,1,.23,2.1,2.1,0,0,1,1,.51,1.16,1.16,0,0,0,.78.43c.25.05.39,0,.6.09s.28.18.44.17a.23.23,0,0,0,.22-.23c0-.07.06-.29.28-.23s.21.15.28.26a.63.63,0,0,0,.4.25.88.88,0,0,1,.72.48,1.9,1.9,0,0,0,.59.77,2.67,2.67,0,0,1,.87.69c.31.41.2.44.52.7s.27.16.44.35a1,1,0,0,0,.5.42c.36.17.29.07.5.29a.52.52,0,0,0,.47.22,1.16,1.16,0,0,1,.92.26c.38.34.28.27.45.33s.27.12.3.38a.88.88,0,0,0,.31.52,1.49,1.49,0,0,0,.77.39c.49.16,1,.2,1.25.28s.52,0,.85.21a1.33,1.33,0,0,0,.89.21c.15-.16.13-.16,0-.33s-.4-.31-.49-.38-.19-.19-.12-.29.23-.13.07-.27a1.39,1.39,0,0,0-.8-.56,3,3,0,0,1-1-.62,3.09,3.09,0,0,1-.65-.45c-.11-.15-.38-.37-.24-.43s.36.24.87.54a7.13,7.13,0,0,0,1.32.67,4.48,4.48,0,0,1,1.16.57,4.24,4.24,0,0,0,1.1.56c.35.12.7.09.94.21s.22.16.26.22,0,.15-.11.2-.26.12-.19.32a.93.93,0,0,0,.42.44c.2.13.34.12.33.31s-.12.19-.28.19-.22-.06-.25.05,0,.24.34.36a1.47,1.47,0,0,1,.7.41,1.2,1.2,0,0,0,.58.4c.21.06.44,0,.7.18s.34.18.67.3a3.58,3.58,0,0,1,.83.39,3.7,3.7,0,0,1,.81.7c.21.22.17.29.11.4s-.21.14-.3.2a.26.26,0,0,0-.13.37.61.61,0,0,0,.35.35s.24.09.34,0,.17-.23.4-.14a.29.29,0,0,1,.15.42c-.07.12,0,.26.17.4a.36.36,0,0,0,.47,0c.1-.09.05-.13.3-.06s.17.25.14.42a.55.55,0,0,0,.11.58,7.77,7.77,0,0,0,.62.54s.15.17.23.14.05-.11,0-.23-.08-.14,0-.25.22-.13.31.07.09.25.43.49a3.7,3.7,0,0,0,.87.42,1.66,1.66,0,0,1,.51.31,1,1,0,0,0,.61.19,1.53,1.53,0,0,1,.66.15.91.91,0,0,0,.79,0c.18-.14.12-.05.27-.32,0,0,.22-.07.06-.26a6.28,6.28,0,0,0-.67-.69c-.17-.15-.2-.23-.43-.24s-.25-.06-.36-.19a1.33,1.33,0,0,0-.52-.41,1.28,1.28,0,0,1-.45-.28c-.19-.15-.28-.41-.54-.6a1.94,1.94,0,0,1-.73-.37,2.12,2.12,0,0,0-1.08-.62,1.49,1.49,0,0,1-.81-.15,5.22,5.22,0,0,1-1.11-.85A12.31,12.31,0,0,0,130,47a10.36,10.36,0,0,0-1.14-.66.34.34,0,0,1-.14-.23c0-.14.14-.24.44,0s.58.36.92.59a5.32,5.32,0,0,1,.66.47c.19.19.38.22.47.18s.1-.14-.13-.37l-.53-.51a1.24,1.24,0,0,1-.33-.68,3,3,0,0,1-.14-1.14c0-.1,0-.22.08-.36a25.68,25.68,0,0,0,7.66,4.56c.12.24.23.35.47.35.47.82,1.87.82,2.69,1v.24l.24.11c0,.35.23,1.05.24,1.4.23,0,.35.35.47.47.46,0,1.41,1.28,1.87,1.28v.47C143.64,54.13,141,58.5,140.27,59.79Z"/></g></g></svg>