<svg xmlns="http://www.w3.org/2000/svg" viewBox="0 0 244.99 164.51"><defs><style>.cls-1{fill:#d2e288;fill-rule:evenodd;}</style></defs><g id="Layer_2" data-name="Layer 2"><g id="regije"><path id="petrinja" class="cls-1" d="M235.53,102.33c.53.55-.6.11-.69.11s-1.29.44-.93.42c0,0,.59.44.61.87a.55.55,0,0,1-.48.58c-.17.06-.71.23-.69.62a3.24,3.24,0,0,0,.15.81,2.56,2.56,0,0,1,0,1.25c-.18.39-.48.8-.7.85s-.68.09-.7.33.11.43.23.43a1.07,1.07,0,0,1,.5.38c.06.12.31.45.48.46a.93.93,0,0,0,.57-.23,1.57,1.57,0,0,1,.83-.31l.92,0s.61.1.61.32-.15.29-.3.38-.48.25-.48.55.15.51.29.51a1.4,1.4,0,0,1,.77.21c.13.09,1.25,1,1.81,1.31s.83.28,1.3.61,1.21.92,1,1.19-.63.71-.42,1.08a7.34,7.34,0,0,0,.86,1.11.5.5,0,0,0,.32.1.6.6,0,0,1,.56.31c.12.26.93,2,1,2.18a1.53,1.53,0,0,0,.42.65c.2.14.55.39.56.65a.77.77,0,0,0,.28.69c.27.22.91.79.8,1.25l0,.07-.4-.19a10.65,10.65,0,0,1-2.82-1.27,13.53,13.53,0,0,0-3-2.08c-1.13-.5-2.08-.76-2.66-1.08s-4.24-2.44-4.24-2.44a3,3,0,0,1-.93-1.14c-.27-.68-.45-1.1-1-1.16a3.26,3.26,0,0,1-1.7-.35c-.54-.37-1.5-1.08-1.64-1.93s-.16-1.56-.27-1.91a5.7,5.7,0,0,1-.34-1.23.94.94,0,0,0-.35-.87c-.28-.15-.55-.14-.8.32a6.17,6.17,0,0,1-.86,1.14l-1.31,1.27s-.82.64-1.48.22-1.29-.73-.91-1.47a11.25,11.25,0,0,1,1.49-2.47c.52-.53,1.37-1,1.14-1.42a.86.86,0,0,0-.75-.5,5.15,5.15,0,0,1-.89-.31,2.75,2.75,0,0,0-1.07,0c-.43.07-.75.3-.59.82s.61,1.47.39,1.91-.66,1.31-1.31,1.31a3.93,3.93,0,0,1-2.06-.54,3.87,3.87,0,0,1-.78-1.35,3.31,3.31,0,0,1,.25-1.59,4.9,4.9,0,0,0,.18-1.16s-.12-.43-.18-.69a2.34,2.34,0,0,0-.54-.89,7.83,7.83,0,0,0-1.24-1,1.28,1.28,0,0,0-.87-.07,1.65,1.65,0,0,0-.7.5l-.58.91a1.12,1.12,0,0,0,0,.84l.29.24s.74.18,1.18.32a2,2,0,0,1,1,.85,2.5,2.5,0,0,1,.18,1.48,1,1,0,0,1-.75.86.77.77,0,0,1-.56,0,1.71,1.71,0,0,1-.53-.47,1.7,1.7,0,0,0-.69-.52,2.66,2.66,0,0,0-1-.24,1.34,1.34,0,0,0-.88.33,9.14,9.14,0,0,1-1.13.77,2,2,0,0,1-1.06.18.58.58,0,0,1-.48-.39,7.88,7.88,0,0,1-.15-1.44s-.16-1-.19-1.25a4,4,0,0,1,.12-1.14,8.17,8.17,0,0,1,.64-.89l.41-.2s1.26-.63,1.66-.87a1.2,1.2,0,0,0,.51-1.06c0-.4-.49-.71-.61-.84a10.77,10.77,0,0,0-1.18-.7,2.67,2.67,0,0,1-.79-1.11,9.31,9.31,0,0,1-.11-1.48,1.16,1.16,0,0,0-.62-.83,1.8,1.8,0,0,0-1-.2,3.12,3.12,0,0,0-1.18.27,3.19,3.19,0,0,0-.8.79c-.16.22-.1.75-.12,1.15s-.39.59-.63.89a1.34,1.34,0,0,0-.19.85,2,2,0,0,1,.06.84c-.06.58-.71,1.15-1.3,1.59a1.81,1.81,0,0,1-1.37.25,4.36,4.36,0,0,1-.41-.33,2.24,2.24,0,0,1-.29-.81,2.77,2.77,0,0,0-.4-.76c-.1-.14-.23-.16-.44-.13a5.63,5.63,0,0,1-.71,0,1.2,1.2,0,0,0-.63.41.45.45,0,0,0,0,.47,1.18,1.18,0,0,0,.56.12,1.42,1.42,0,0,1,.77.15,2,2,0,0,1,.76.77.64.64,0,0,1-.09.65,1.37,1.37,0,0,1-.81.53,4.28,4.28,0,0,1-1.36-.13c-.62-.1-1.12.47-1.32.65a4.39,4.39,0,0,0-.43.54.35.35,0,0,0,0,.46c.12.13.31-.1.42-.2a1.16,1.16,0,0,1,.48-.21.38.38,0,0,0,.24-.16.45.45,0,0,1,.34-.17c.23,0,.32.53.32.53l.36.13-.39.95-.13.46a1.86,1.86,0,0,0,.14.57,2.77,2.77,0,0,1,.26.76,2.28,2.28,0,0,1,0,.91c-.07.25-.46.35-.67.31a1.79,1.79,0,0,1-.54-.36c-.15-.17-.05-.89-.05-.89l.11-.6-1.07-.07a4.8,4.8,0,0,0-.83,0c-.12,0-.4.63-.42.77a.39.39,0,0,0,.14.36,2.84,2.84,0,0,1,.28.25.47.47,0,0,1,.11.39.39.39,0,0,0,.23.4c.19.11.43-.09.43-.09v-.12l.37-.14a7.58,7.58,0,0,1,1.12.31c.36.17.27.62.23.8a.47.47,0,0,1-.47.32c-.2,0-.4-.18-.59-.25a2,2,0,0,0-.64,0l0,.06a2.8,2.8,0,0,0-.93.41c-.23.24-.19.78-.19,1a3.2,3.2,0,0,1-.27.74s-.15.13-.29.23a.8.8,0,0,0-.3.35,3.32,3.32,0,0,1-.37.57c-.07.05-.23.49-.36.64a.49.49,0,0,1-.54.07c-.2-.07-.29-.35-.34-.55s.16-.45.16-.45a6.89,6.89,0,0,1,.65-.55c.23-.17.16-.5.13-.65a1.88,1.88,0,0,1,0-.4,3.14,3.14,0,0,1-.41-.1.22.22,0,0,1-.15-.14l.05-.19-.23-.24s-.32-.18-.54-.28-.15-.05-.19,0-.16,0-.27-.14a.39.39,0,0,0-.31-.09l-.22-.24-.57.14-.72.37-.09.44a3.9,3.9,0,0,0,.11.78l.33.47s.3.31.65.76a4.18,4.18,0,0,1,.6,1.34.35.35,0,0,1-.13.31,1.25,1.25,0,0,1,0,.25,4.38,4.38,0,0,1-.11.65,1.1,1.1,0,0,0,.15.72c.14.23-.09.42-.26.47a.34.34,0,0,0-.22.16l-.62.79-.58.31a3.22,3.22,0,0,1-1.06.39.94.94,0,0,0-.67.25,5.61,5.61,0,0,1-2,.36,8,8,0,0,1-1.68-.41l-.08.08-1.11-.31-.36-.26-.77-.32s-1.08-.39-1.38-.48-.67-.17-.84-.23a2.87,2.87,0,0,1-.75-.36,1.38,1.38,0,0,0-.43-.23,2.94,2.94,0,0,1-.63-.54,7.83,7.83,0,0,0-1.17-.78,2.51,2.51,0,0,0-.37.09,2.05,2.05,0,0,1-.48,0,1.53,1.53,0,0,0-.46,0c-.12,0-.19,0-.22-.13s-.26,0-.26,0l-.5-.52-.27,0-.61-.5,0-.12a4.36,4.36,0,0,0-.63-.19,4.45,4.45,0,0,1-1-.52,1,1,0,0,0-.69-.09,1.84,1.84,0,0,0-.84.51,3.24,3.24,0,0,1-1.5.23,2.78,2.78,0,0,0-1.4.63s-.82.8-1.18,1.09a2.63,2.63,0,0,1-1.35.36,1.36,1.36,0,0,1-.67-.24l-.27-.2s-1.25-.67-1.63-.81a2.57,2.57,0,0,0-1.27,0,1.49,1.49,0,0,1-.93-.15,4.31,4.31,0,0,1-1.14-.93c-.47-.52-1.32-.45-1.94-.42a1.72,1.72,0,0,1-1.09-.42l-1-.91a2.52,2.52,0,0,0-1.23-.43v.16h-.34a.74.74,0,0,1-.53-.28,5.18,5.18,0,0,1-.52-1,13.55,13.55,0,0,0-.86-1.09,2.3,2.3,0,0,0-.85-.5,7.11,7.11,0,0,1-1-.57c-.2-.12-.84-.58-1.17-.73a4.86,4.86,0,0,0-1-.25l-.53.24-.76.83.1.13-.12.17a3.12,3.12,0,0,1-.41.35,9,9,0,0,1-1.2.6,1.19,1.19,0,0,1-.77,0,.66.66,0,0,0-.47,0,.76.76,0,0,1-.47,0,4,4,0,0,0-.92,0,4.15,4.15,0,0,0-.8.27c-.14.06-.26.27-.48.38a1.69,1.69,0,0,1-.57.1.24.24,0,0,0-.24,0c-.12.11-.55,0-.55,0a1.39,1.39,0,0,0-.49-.09,1.43,1.43,0,0,1-.67-.23s-.32-.28-.5-.42a1.08,1.08,0,0,1-.22-.56l.15-.29a4.27,4.27,0,0,0-.77-.35,3.11,3.11,0,0,0-1,0,11.14,11.14,0,0,0-1.94.83c-.13.07-.26.13-.31.29s-.54.25-.73.34a.93.93,0,0,0-.42.39c-.11.2-.32.22-.54.31a1.19,1.19,0,0,0-.49.48,2.07,2.07,0,0,1-.57.47,2.26,2.26,0,0,0-.35.44.52.52,0,0,1-.42.19,1.27,1.27,0,0,0-.44.1,1.15,1.15,0,0,0-.57.49,4.26,4.26,0,0,0-.4,1.23,5.14,5.14,0,0,0-.11,1.06,1.85,1.85,0,0,1-.35.94,3.68,3.68,0,0,0-.32,1,1.66,1.66,0,0,1-.51.74c-.14.12-.62.63-.62.63a2.33,2.33,0,0,0-.36.45c-.13.23-.43.59-.57.88a2.17,2.17,0,0,0,0,1.27c.1.42.25,1.44.25,1.44l.16,0,.32.63,0,.38a.44.44,0,0,0,.11.14c.08.07.12.12.1.31s-.36.15-.36.15,0,.15,0,.28a1.19,1.19,0,0,0,.16.47.54.54,0,0,1-.14.54,2.35,2.35,0,0,1-.48.31l-.26-.19-.5.94.19.13a.54.54,0,0,1,0,.21.75.75,0,0,1-.16.29.72.72,0,0,0-.14.37.69.69,0,0,1-.16.28h-.25s-.24.67-.32.82a4.84,4.84,0,0,0-.23.88c-.1.44-.85.92-.85.92l-.55.3c-.22.13-.78.41-1,.52a1.94,1.94,0,0,0-.42.52.45.45,0,0,1-.41.18L120,130c-.24.15-.5.94-.5.94l-.2-.2a3.2,3.2,0,0,0-.14.33c-.1.28-.64.59-.9.72a2.4,2.4,0,0,1-.74.25,6.64,6.64,0,0,0-1,.32,3.76,3.76,0,0,1-1,.14s-.73.13-1.08.24a5.4,5.4,0,0,0-1,.48,5.22,5.22,0,0,1-.48.28,3,3,0,0,0-.76.6,9,9,0,0,1-.86.71.77.77,0,0,0-.19.42s-.15.85-.24,1.23.24.75.34.9a.89.89,0,0,0,.41.3,2.16,2.16,0,0,1,.59.52,1.6,1.6,0,0,0,.48.35l-.16.21a.48.48,0,0,1-.33.13c-.14,0-.15.09-.19.25s-.11.18-.2.19a1.35,1.35,0,0,0-.41.25c-.18.13-.16.25,0,.49a1.5,1.5,0,0,1,0,.71l-.36.12c-.15.06-.22.28-.26.45s-.06.21-.5.52a2.65,2.65,0,0,0-.68,1.42,4,4,0,0,0,0,1.24c0,.34.32,1.17.06,1.66s-.53,1-.45,1.34a1.62,1.62,0,0,1,0,.87,3.82,3.82,0,0,0-.15,1c0,.25.06,1-.11,1.08s-.25.06-.43-.07-.89-.44-1.22.53-.61,2.09-1.12,2.28-1,.2-1.26.65a1.35,1.35,0,0,0-.22,1.09,1.19,1.19,0,0,1-.08.91.55.55,0,0,0,0,.71,1.09,1.09,0,0,1,.3.74,10.23,10.23,0,0,1-.16,2.55,2.6,2.6,0,0,0-.28.85,1.62,1.62,0,0,1-.36.75,1.16,1.16,0,0,0-.34.71c0,.19-.12.55-.4.6a2,2,0,0,0-.62.17.69.69,0,0,1-.41,0,1.69,1.69,0,0,0-.83.06,3.34,3.34,0,0,1-1.88,0,1.13,1.13,0,0,0-.66-.29,1.77,1.77,0,0,0-1,.15,11.23,11.23,0,0,0-1,.65c-.27.17-.52.38-.77.08s-.82-.51-1.07-.25-.64.66-1,.57-.61-.31-.92,0-.57.81-.77.51a2.86,2.86,0,0,1-.51-1.33,5.72,5.72,0,0,0-.21-1.63.65.65,0,0,0-1.06-.13c-.41.42-.91.62-1-.31s0-1.5-.28-1.68a2.14,2.14,0,0,0-1.49-.29,1,1,0,0,0-.76.79c0,.4,0,.61-.34.61s-.46-.4-.46-.4a.73.73,0,0,0-.47-.27,4.74,4.74,0,0,0-1.27,0,3.14,3.14,0,0,1-1.26.08,1.55,1.55,0,0,1-1.33-.78c-.29-.58,0-.89-.24-1.28a1.15,1.15,0,0,0-.93-.64,1.36,1.36,0,0,1-.93-.42c-.14-.19-.69-.73-1-.61s-.56,0-.54-.31,0-.43-.25-.5a1.77,1.77,0,0,0-1.12-.08c-.44.16-1,.47-1.35.33a1.39,1.39,0,0,1-.79-.9,16.36,16.36,0,0,1-.54-1.6,3,3,0,0,0-.68-1.65,9.11,9.11,0,0,0-1.22-.85.62.62,0,0,1-.3-.65c.1-.41.26-.94.09-1.21A1.49,1.49,0,0,1,72,148a1.54,1.54,0,0,0-.31-.95c-.27-.28-.59-.57-.33-1s.8-.92.18-1.2-1.29-.52-1.44-.87-.14-.43-.45-.62a1.6,1.6,0,0,1-.64-.59,1.37,1.37,0,0,0-.92-.64,1.36,1.36,0,0,1-1-.44,3.52,3.52,0,0,1-.9-1.13.8.8,0,0,0-1-.59,1.14,1.14,0,0,1-1.16-.18,4,4,0,0,0-1.09-.56,3.92,3.92,0,0,0-2.06-.09c-.35.23-.7.48-1.07,0a3,3,0,0,1-.41-.77c0-.19-.17-.24-.34-.29s-.35-.25-.59-.35-.45-.68-.45-.68-.32,0-.73,0-.49-.52-.54-.71a2.94,2.94,0,0,0-.28-.52,1.79,1.79,0,0,1-.41-.58,2.88,2.88,0,0,1,.21-1,2.81,2.81,0,0,0-.1-.79.79.79,0,0,1,.13-.56c.12-.11.11-.17,0-.28s-.11-.3,0-.59a1,1,0,0,0-.1-.73,2.27,2.27,0,0,1,0-.78.42.42,0,0,1,.17-.41c.17-.13-.29-.69-.42-.81a.64.64,0,0,1-.19-.48.87.87,0,0,0-.29-.51,1.77,1.77,0,0,1-.27-.6.55.55,0,0,0-.35-.41c-.14,0-.11,0-.28-.21a2.83,2.83,0,0,0-.74-.62c-.14,0-.11-.34-.11-.34l-.37-.5-1.55-2.1-.4,0c-.13,0-.27-.25-.31-.37a2.21,2.21,0,0,1,0-.47l-.22,0-.09-.28a1.17,1.17,0,0,1,0-.6c0-.26-.09-.36-.23-.5s0-.47,0-.63a1.4,1.4,0,0,0-.05-.53.35.35,0,0,0-.16,0l-.72-.07s-.11-.67-.15-.82.06-.21.24-.38a1,1,0,0,0,.19-.58l-.28-.14a1.18,1.18,0,0,0-.41-.11c-.17,0-.16-.24-.16-.24a2.52,2.52,0,0,0-.61.1,4.4,4.4,0,0,1-1.57-.22.52.52,0,0,0-.39,0,2.58,2.58,0,0,1-.64.06c-.22,0-.11-.16-.11-.16l-.19-.07-.09.08-.22-.07a3.14,3.14,0,0,0-.38.25,1.57,1.57,0,0,1-.77.16s0-.18,0-.33a2.4,2.4,0,0,0-.16-.54l.37-.32a2.5,2.5,0,0,0,.45-.75.47.47,0,0,1,.34-.32c.15,0,.23-.23.31-.37a1.46,1.46,0,0,1,.25-.31s.18-.14.18-.27a.69.69,0,0,1,.17-.32s.15-.41.19-.57a.45.45,0,0,1,.32-.34c.21-.09.14-.28.16-.44a1.42,1.42,0,0,1,.12-.32,1.54,1.54,0,0,0-.33-.09,2,2,0,0,0-.68.1l-.53-.29s-.21-.65-.27-.85,0-.18.08-.31,0-.31-.11-.61a1,1,0,0,0-.5-.43s-.26-1.48-.3-1.66-.21-.25-.33-.18-.43-.27-.43-.27c-.17-.16-.8.43-.8.43l-.45-.09a5.19,5.19,0,0,0-.47-.6,1.43,1.43,0,0,1-.2-.57l-1,.26a.42.42,0,0,1-.25-.27c0-.2-.37-.27-.7-.43s-.78-.82-1-1a7.4,7.4,0,0,0-.81-.66.36.36,0,0,0-.42.11c-.09.12-.18.11-.58.18s-1.18,1.45-1.28,1.65-.26.16-.55.27a4.55,4.55,0,0,1-1.08.1l-.57.65v.22s-.72.22-1,.32-.33.39-.6.58-.48-.11-.64-.22-.51,0-.51,0-1.29.33-1.48.43-.19.47-.39.47-.18-.68-.18-.68,0-.39-.29-.39-.41.42-.41.42-.12.39-.3.25,0-.53,0-.53.52-1,.62-1.3a4.94,4.94,0,0,0,.13-1.15,1.22,1.22,0,0,0-.32-.75,1.4,1.4,0,0,1-.44-.77c0-.2-.35-.35-.35-.35a9.8,9.8,0,0,1-.41,1.08c-.32.7-1.49.45-1.73.45s-.66-.42-.75-.52a.94.94,0,0,0-.88-.12c-.34.15-.4,0-.74-.31s-.61.13-.61.13-.24.35-.36.39-.2.15-.2.39.35.45.35.45l.74.4c.19.1.22.56.06,1s-.71.27-.84.23-.31-.32-.35-.5-.25-.23-.37-.24a.73.73,0,0,0-.45.19c-.2.16-.71-.08-.71-.08a12,12,0,0,0-1.3-.29,6.6,6.6,0,0,0-1.52.49l-1,.36c-.28.09-1-.8-1-.8s-.44-.61-.54-.73-.21-.35-1-.38a1.53,1.53,0,0,0-1.16.45,12.4,12.4,0,0,1-1-1.82c-.39-.9-1.59-3.33-2.42-3.54a2.66,2.66,0,0,0-1.65,0c-.44.13-1.69-.35-1.75-1A3.43,3.43,0,0,0,5,98.94c-.23-.34-.24-1.93-.73-2.3S2.78,95.06,2.88,94.5A8,8,0,0,0,3.17,93c0-.4.2-.5.53-.59s.88-1,1.08-1.48.52-1.09.39-1.46-.09-1.1-.45-1.43a.9.9,0,0,1-.12-1.26c.34-.36,1.68-1.54,1.68-1.54s.74-.53.58-1.19-.38-1.33-.38-1.33l-1.06-.31S5,82.28,5,81.91a.87.87,0,0,0-.39-.83,1,1,0,0,1-.05-1.2.89.89,0,0,0,0-1.06,4.1,4.1,0,0,1-.51-2A2.06,2.06,0,0,0,4,76.16L2.2,74.64a2.53,2.53,0,0,1-.32-1.16c.07-.43-.43-.64-.82-.64s-1.2-.12-1-.51a1.79,1.79,0,0,0,.12-1.59A3.09,3.09,0,0,1,0,69.41l.77-.33.32-1.39s1-.91.81-1.41-.39-1,0-1,1.14-.65,1.2,0,.64,1.9,1,2a.81.81,0,0,0,.9-.35.67.67,0,0,1,1-.12c.33.2,1.26-.22,1.67-.45a2.52,2.52,0,0,0,.74-.82s.64-.85,1.16-.58,1.57-.28,1.41-.65a5.24,5.24,0,0,1-.29-.9L10.31,62s.18-.83-.38-.77a1.61,1.61,0,0,1-1.33-.41c-.23-.27.61-.39.61-.39l.43-.2v-.43S11,60,11,59.58,11,58,11.4,57.73a18.34,18.34,0,0,0,1.84-1.57s.41-.53-.06-.8a11.23,11.23,0,0,1-1-.74l1.45-4.4s.7-.49.54-1a.62.62,0,0,1,.61-.85c.4,0,.81-1,.31-1.23s-1.08-.84-1.95-.48-1.47.61-1.9.4.05-.89.05-.89a26.13,26.13,0,0,0-.1-3c-.12-.53-.5-2.16-.2-2.66A3,3,0,0,0,11.16,39l.07-.4a5.29,5.29,0,0,1,1.89.49c.32.34.62.37.73-.06s.22-1.62.78-1.61,1.13-.12,1.46.21.93-.15,1.13-.58a12.91,12.91,0,0,1,1-1.41,2.68,2.68,0,0,0,1,.51c.43,0,1.29.34,1.38.78s.48,1.63,1.14,1.64,1.86,0,1.89.55A5,5,0,0,0,25,41.83a1.84,1.84,0,0,1,.92.61c.33.37.89.91,1.22.75a2,2,0,0,0,.61-.56s.42.68.75.74a7.45,7.45,0,0,1,1.7.48,3.18,3.18,0,0,0,2.13.53c.7-.22,2.37-.62,3.09-.22a2.64,2.64,0,0,0,1.92.36,4.5,4.5,0,0,1,1.13-.26,1.61,1.61,0,0,0,1.06-.38c.27-.27,1.09-.48,1.55-1s.83-1.8,1.46-2.23,1.56-1,1.91-.68a2.1,2.1,0,0,0,1.82.83c1.26,0,2.05.11,2.17.4a4.2,4.2,0,0,0,.9,1.41,8.61,8.61,0,0,1,1.78,1.79c.41.69.75,1.09.78.82a4.9,4.9,0,0,0-.56-1.88,1.6,1.6,0,0,1-.23-1.19c.06-.27.2-1.49.78-1.49a4.1,4.1,0,0,1,.85,0,.49.49,0,0,0,.44-.11.85.85,0,0,1,.42-.12c.2,0,.77-.54.77-.54l-1.15-1.32a5.54,5.54,0,0,1-.52-1.09c-.12-.43-.28-.79.14-1.12s2-2,3.17-1.93a4.35,4.35,0,0,1,2.44.57l1.34,1.18.57.55,0-.71a.59.59,0,0,0-.34-.52,3.15,3.15,0,0,1-1-1.41A3.76,3.76,0,0,0,59,32.89a1.08,1.08,0,0,1-.06-.87c.11-.25-.15-.92-.15-.92a3.5,3.5,0,0,1,0-1.47c.21-.41.16-1,.47-1.2s.38-.89.12-1a18.13,18.13,0,0,1-1.61-1.08c-.37-.29-1.5-1-1.58-1.35a2.7,2.7,0,0,0-1.42-1.08c-.37,0-.58-.19-.63-.63s-.24-1.14-.67-1.32S53,21,53,20.6s0-1,.28-1.24a8.88,8.88,0,0,1,.89-.93,2.38,2.38,0,0,0,.54-.66s0,0,.31.23.58.16.69-.3.44-.64.69-.55.47.34.75,0,.64-.24.77-.62.36-.6-.05-1-.43-.6-.34-1-.11-.83-.43-.65a.39.39,0,0,1-.61-.38c.06-.33.48-.72.47-1s.42-.43.42-.43.54-.39.54-.66.36-.5.78-.66,1-.57,1.31-.35.78.23.59-.41S60,8.3,60.43,8.07a10.24,10.24,0,0,1,3-.61c.63,0,.73.1.77.35s.62.32.85-.18.85-1.49.85-1.49l.39.11.93-1.4-.08-.38.78-1a.94.94,0,0,1,.61-.91c.65-.22,1-.22,1.32-.34a3.44,3.44,0,0,1,1.68-.06c.49.15,1.16.22,1.41,0l.27-.25A24.26,24.26,0,0,1,75,5.28c.32,1,.74,1.67.59,2.4s-.16,1.2.13,1.49.24.63.61,1,1.11.74.89.13-.43-.89-.1-1,2.25,0,2.25,0,.27,0,.34.34.33.34.58,0,.59-.41.77-.08.32.78.62.38.68.08.89.29.62.36.47.67.28.62.46.83.68.84.68.84-1,1-.68,1.26.67.82,1.07.43.68-.7.7-1a1.5,1.5,0,0,1,.32-.66,1.54,1.54,0,0,0,.11-.74s0-.52.65-.45,1.37,0,1.6-.4.51-.68.88-.67.79,0,.79,0L88.56,8.27l1.86-1.35a1.1,1.1,0,0,0,.6.24c.29,0,.39,0,.37.23s.43.55.43.55l.31.17s.48-.33.48-.62.42-.6.42-.6.82-.47.7-.76-.27-.56,0-.73.42-.78.42-.78l.31-1.43.63-.64s.66-1.13,1-1,1.15.35,1.47-.21A1.53,1.53,0,0,1,98.75.54,17,17,0,0,0,100.4,0a2.29,2.29,0,0,1,1.4.24c.44.36.2,1.27,0,1.52s-1.24,2.46-1.24,2.46a3.66,3.66,0,0,0-.28,1.18,5.8,5.8,0,0,1-.14,1.1.48.48,0,0,0,.65-.1A2.18,2.18,0,0,1,102,5.61c.39,0,1,0,1.19-.3s1.92-1.47,2.23-1.24a2.23,2.23,0,0,0,1,.22l1.82.31.64.12.11-.56s1.6-.26,1.36.64c-.12.34-.48,1.41-.1,1.65,0,0,.36.09.5.11a.86.86,0,0,0,.31,0s.32-.06.32.15,0,.4.12.45.9.29,1,.45.11.34.23.37a1.53,1.53,0,0,1,.36.78,4.41,4.41,0,0,1-.05.9c-.06.16-.13.61,0,.66a.66.66,0,0,1,.31.28c0,.1.09.32.22.34a.67.67,0,0,1,.42.22.85.85,0,0,0,.39.34.7.7,0,0,0,.44-.12c.12-.08.29-.24.39-.24a.56.56,0,0,0,.34-.17,1.32,1.32,0,0,1,.65-.32.26.26,0,0,1,.3.26c0,.15,0,.44,0,.52s-.2.34-.06.48.48.57.63.57.51-.09.64-.09a1,1,0,0,0,.39-.17l.31,0,.35,0a.71.71,0,0,0,.27.08.57.57,0,0,0,.26,0,.28.28,0,0,1,.24,0,.31.31,0,0,1,.14.22,1.27,1.27,0,0,1-.14.59.58.58,0,0,0,0,.61c.11.1.4.35.58.22s.5,0,.49.15a1.52,1.52,0,0,0,.32.62c.08.09.28.32.19.51s0,.34.15.44,1.22.77,1.28,1a.68.68,0,0,0,.61.38c.13,0,.29-.12.4.07l.18.3-.84.87a10.28,10.28,0,0,0-.54,1.28c0,.23.1.27.31.46a.51.51,0,0,0,.5.07l.35-.27a.44.44,0,0,0,.3-.39c0,.6-.07,3-.07,3.46h-.3c-.15.15-.3.46-.45.46a1.15,1.15,0,0,1-.61.6c0,1.35-1,3.16-1,4.37a4.2,4.2,0,0,0-.6.3A14.38,14.38,0,0,0,122.22,30c.15.75,1.52,2.41,2.43,2.41,0,.45,1.06.6,1.06,1.21.3,0,.61.3.91.6h.45c0,.15.31.45.31.6h.6c0-.15,0-.45.3-.45,0-.3.15-.6.3-.6A1.3,1.3,0,0,1,129,33v-.45c.3,0,.45-.45.6-.6a13.85,13.85,0,0,1,3.48.45c0,.45.91.6,1.21.6l.15-.3a.53.53,0,0,0,.31-.15,1.07,1.07,0,0,1,.9.45h.46c.15.46.61,2.27,1.07,2.42v2c.16.15.31.6.46.75h.15l.15.3a.94.94,0,0,0,.76-.45.65.65,0,0,0,.6-.6c.3,0,.3-.15.6-.46.31,0,.61.61.76.76s.31.15.46.15v.45a4,4,0,0,1,1.22,2h.3c0,.15.15.3.15.45a5.42,5.42,0,0,0,2,.76c.45.45,2.12.45,2.87.45v.3l.16.15,1.05-.15v-.15c.46-.3,1.21.3,1.52.6h.75c0,.15.31.31.31.46,1.21,0,5.6,2.86,6.51,3.77,1.51,0,2.73.45,4.24.45v-.3h.3c0-.15.3-.61.6-.61a7.31,7.31,0,0,1,.45-1.05c.15.6.77,3.47.32,4.22h-.15v.45c.15.15.61.45.61.76h.45l0,3.61h-.31l-.15.15v.91l.15.15h.91c0,.15,1.21,1.81,1.52,1.81,0,.3.45,1.2.76,1.2a.8.8,0,0,0,.3.61h1.06c0,.15.46.6.61.75h.75c.15-.15.45-.45.45-.6.61,0,1.36-1.21,2.12-.91.6.3.45.61,1.21.61,0,.6-.29,2.26,0,2.71h.15v.3l.15.3a3,3,0,0,1,.77,1.36.32.32,0,0,1,.3.3c.45.15.91.75,1.21.91,0,1.5-.74,2.71-.74,4.22.31,0,.92.75,1.07.75a6.5,6.5,0,0,1,.75-.15,1.6,1.6,0,0,0,1.06.9c0,.15.16.3.31.46h.3a1.25,1.25,0,0,0,.91.6c.15-.15.45-.3.6-.45v-.76h-.3a3.62,3.62,0,0,0-.76-.45v-.6a2.65,2.65,0,0,1,2.56-.76c0,.15.16.46.31.46v.6c.15,0,.45.15.6.15,0,.45.16.15.16.45h.3l.15.61h.15v.6c-.15,0-.45.45-.6.6v1.21c.3,0,.76.15,1.06.15,0,.15.45.3.76.45.15.45.91.9,1.21,1.21h.45c.16.3.46.45.61.6V76l.46.15c0,.3.15,0,.15.3a1.14,1.14,0,0,0-.3.6c-.15,0-.3.16-.45.31H187a1.61,1.61,0,0,1-.9.3c-.61.6-.6,2.11-.59,3,.45,0,1.21.15,1.66.15,1.06,1.06,1.82,2.72,2.73,3.62,0,.45.16.45.46.6l.15.31c.46,0,.91.3,1.36.3l.91.6v.3l.75.75c1.52,0,3.33-.45,4.54-.45a1.22,1.22,0,0,1,1.2-.6l.45-.45c2.12,0,4.24.6,6.36.6.91,1.36,3.48,2.11,5,2.11,0,.15.31.31.46.31l.15.3h.45a4.39,4.39,0,0,0,.62,1.81c.9,0,2,.6,3,.6,1.67,1.66,7.26,1.36,9.53,1.81a4.11,4.11,0,0,0,1.06,1.21,1.24,1.24,0,0,0,.31.6H228l.61.6c0,.15.15.45.15.6.15,0,.3.16.61.16v.3l.3.15v.3a2.87,2.87,0,0,0,1.21.3c0-.15.15-.3.15-.45h.45v1h-1.81c0,.15-.46.61-.46.61v.9c.3.3.3.3.6.3a.33.33,0,0,0,.31.3c.15.15.3.46.45.61h.76c0-.15.3-.46.3-.61h.3c.15.15.76.76.76,1.06h.61c.14-.6.6-.6,1.05-.45a.32.32,0,0,0,.31.3v.45c.15.15.45.3.45.45Z"/></g></g></svg>