<svg xmlns="http://www.w3.org/2000/svg" viewBox="0 0 37.65 45.33"><defs><style>.cls-1{fill:#489052;fill-rule:evenodd;}</style></defs><g id="Layer_2" data-name="Layer 2"><g id="regije"><path id="plesevica" class="cls-1" d="M27.91,15.54c0,.33-.37,1.32-.37,1.65-.58.58-.91,1.33-2.07.75,0-.08,0-.17-.09-.17v-.83c.33-.16.24-1.08.24-1.41-.17-.17-.25-.66-.42-.83l-.09-1.33a.37.37,0,0,1-.25-.25c-.17,0-.42-.08-.58-.08A4.1,4.1,0,0,1,24,12a.28.28,0,0,1-.16-.08A6.59,6.59,0,0,1,22,12c0-.25-.67-.83-.92-.83,0-.91-.35-2.82.31-3.65l.17-.09a2,2,0,0,0,.08-.33h.17c0-.08.16-.25.16-.42-.25-.24-.34-1.66-.51-2.15h-.66c0-.42-.59-.83-.59-1.33a18.37,18.37,0,0,1-2-1.66H17.9C17.23.42,15,.83,14.15,0H12.31c-.08.25-.58.58-.83.83-.66,0-.91.33-1.49.5H9c0,.08-.33.25-.42.25H8.41c0,.16-.25.33-.25.41H7.49v.58c.08,0,.16.09.25.09v.49c-.25,0-1.17.09-1.17-.33H6.33v.09H6A3.6,3.6,0,0,1,5,3a1,1,0,0,1-.5.25c0,.08-.08.16-.08.25H4c-.08-.09-.17-.34-.33-.34V2.9L3.5,2.82V2.49C3.16,2.32,3.07.58,3,.16H2.24a1.83,1.83,0,0,1-1.5.5L.66.75c0,.16-.08.24-.08.41A1.68,1.68,0,0,1,.11,1.1a2.7,2.7,0,0,0,0,1.72C.4,4.08.86,5.63.86,5.63S.75,7.07.54,8.52-.19,12.75.37,14.4s-.24,3.85,0,4.92.7,5.5.7,5.5a5.14,5.14,0,0,0,1.22,2.43,43.37,43.37,0,0,1,2.85,4l7.45,5.49c.47,0,.65.31.85.71A10.44,10.44,0,0,0,15.38,39s2.2,1.79,2.9,2.23a1.16,1.16,0,0,1,.44,1.46A10.16,10.16,0,0,0,18.57,44a1.78,1.78,0,0,0,.42,1.1.76.76,0,0,0,.83.11s.51-1.09.65-1.48.37-.8,0-1.1a4.68,4.68,0,0,1-.91-1.3c-.33-.51.57-1.13,1-1.29s.61-.59.88-1.35a10.17,10.17,0,0,1,1.19-1.94,51.94,51.94,0,0,1,.26,5.78A4.45,4.45,0,0,0,22.66,44l1.42-.1c.16,0,.41-.08.58-.08l.08-.17c.17,0,.5-.5.67-.58L25.32,43a.73.73,0,0,1,.33-.34v-.16l.17-.08c0-.25.16-.5.16-.67a1.27,1.27,0,0,1,.5-.16c0-.09.33-.17.42-.17s.16-.25.25-.33a5.83,5.83,0,0,1,.24-1.33h.17c.08-.08.16-.25.25-.25a2,2,0,0,1,.32-1h.17l-.18-2.79c.15-.13.3-.24.33-.28s.09-.25.09-.33c.16,0,.66-.42.83-.5l.08-.17h.25c0-.16.25-.33.41-.33,0-.08.25-.41.42-.41,0-.09.08-.17.08-.25.17-.08.33-.33.5-.42,0-.58.83-1.24.82-1.91.17,0,.17-.33.34-.33l.24-.16c0-.09.17-.17.25-.17V30.4c.58-.42,1.41-2.49,2.24-2.25,0,.17.25.42.34.5a2,2,0,0,0,.33-.08l.08-.25.58-.66a1.62,1.62,0,0,1,.5-1.08v-.17l.49-.58v-.17l.33-.33A15.41,15.41,0,0,0,37,20.24c-.19-.25-.77-.24-.77-.24s-.67.11-.88.11a1.11,1.11,0,0,1-1.18-1.23,1.29,1.29,0,0,0-.28-.84c-.24-.31-.92-.32-1.06-.32a1,1,0,0,1-.59-.26s-.29.12-.43-.32-.95-.42-.95-.42S28.72,15.88,27.91,15.54Z"/></g></g></svg>