<svg xmlns="http://www.w3.org/2000/svg" viewBox="0 0 92.04 99.24"><defs><style>.cls-1{fill:#d18044;fill-rule:evenodd;}</style></defs><g id="Layer_2" data-name="Layer 2"><g id="regije"><path id="pozega" class="cls-1" d="M92,72.3c0-.41-.44-.79-.45-.9-.22,0-.56-.56-.67-.56a1.34,1.34,0,0,0-.12-.34c0-.45-.23-1.13-.23-1.46a1.53,1.53,0,0,0-.68-.23c-.11-.22-.12-.79-.23-1,.11-.56,1-1.91,0-2.37a.38.38,0,0,0-.11-.22c0-.34-.23-.68-.23-1l-.23-.12c0-.22-.11-.56-.12-.9l.23-.11c0-.11.11-.22.11-.34.34-.11.34-.45.34-.9a5.46,5.46,0,0,1-.24-1.57H88.05c0-.34-.34-1-.35-1.58a2.42,2.42,0,0,0-1.92-.9c0-.34-.34-.9-.34-1.35l-.12-.11c-.22,0-.34,0-.45.11s-.68-.11-.9-.11V56l-.23-.22H83.4c-.56-.57-.12-2.59-.13-3.49-.22,0-.45.33-.67.45,0,.45-.45.78-.45,1.24a.38.38,0,0,0-.22.11c-.45,0-.9.11-1.24.11a1.7,1.7,0,0,1-.45.22c0,1.58-.77,4.62.25,6.08.23.34.79.56.91,1,.45.12.45.9.34,1.24-.34,0-.57-.22-.9-.22,0,1.12-2.48.56-2.82.22h-.23l-.11-.22c-.92-3.38-.37-7.09-1.85-10.13-.23,0-1.12,1.8-1.24,2h-.9v-.56C72.56,53.28,72,51.25,72,50c0,0-.23-.33-.34-.45a.82.82,0,0,1-.68-.33c0-.34-.12-.79-.12-1-1.58,0-3.49.57-4.85.34a4.13,4.13,0,0,0-.8-2.59c-1,0-2.15-.9-3-.9,0-.11-.11-.22-.11-.34l-.23-.11c-.23-.34-.34-.34-.79-.45a21.43,21.43,0,0,0-2.6.45c0,.45-.1,1.24-.67,1.24a4.44,4.44,0,0,1-1.12,1.35v.34c-.11,0-.22.22-.34.33-.33,0-2,0-2-.56-.11,0-.45-.56-.45-.79-1.13,0-1.8,1-3.16,1,0,0-.22.23-.34.23V48c-.11,0-.45.33-.45.45h-.22a2.89,2.89,0,0,1-.57-1.36c-.11,0-.23-.11-.34-.11s-.23-.45-.45-.45a27.14,27.14,0,0,1,0-3.37c-.11,0-.45.11-.56.11a.39.39,0,0,1-.23.11c-.56,1.24-2,2.14-2,3.71a.26.26,0,0,0-.23.23c-.22,0-.56.11-.79.11,0-.22-.23-.79-.23-.9-.67,0-1.12,0-1.47-.56a2.05,2.05,0,0,0-1.12.22,5.41,5.41,0,0,1-3.39.79c-1-1-.92-4.61-3.62-3.26a13.84,13.84,0,0,0-.89,2.81c-.34.11-.56.56-.9.56v.34c-.11.56-1.12,1.12-1.12,1.57h-.23c-.11.12-.33.34-.33.45l-.13,0a.79.79,0,0,0-.21-.2v-.38a.66.66,0,0,1-.19-.38l-.38-.19c0-.38-.39-1-.39-1.33-.38-.19-.19-.39-.19-.77h-.39v-.38c-.19,0-.77-1.14-.77-1.14H25.43c0-.57-.77-1.52-.77-2.28-.19,0-.58-.38-.77-.38,0-.76-.39-1.91-.39-2.67-.57-.19-1-1.9-1-2.66a2.16,2.16,0,0,0-1.15.57v1.33c-.38,0-.57.76-.76.76-.38-.38-.21-3-.21-3.8a2.34,2.34,0,0,1-.38-1c-.2-.19-.58-.38-.58-.57h-.38v-.77l.38-.19c0-.57.19-.19.19-.57h.57c.19-.57.76-1.14.75-1.9a.66.66,0,0,0,.19-.38c.77,0,1.72-.38,2.48-.38l.19-.38h.38c0-.38,1.33-1.52,1.71-1.52,0-1.91-.59-4-.6-6.09-.57,0-.19-1.33-.19-1.52.19,0,.38-.57.37-.76.58-.38,3.81-3.24,3.8-3.81.39,0,.58-.38,1-.76h.57c0-.57.19-.19.19-.57.76,0,1.9-.38,2.67-.38.19-.19.81.6.81.41-.2-.14.53-.63.87-.91s-.06-.94.25-1.76-.33-.87-1-1-.78-.77-1-1.56-.78-.69-.78-.69-.46-.08-.59-1.1-.84.44-1.36.06-1-.16-1.73-.06-.6-.72-1.24-.92S27,5.33,26.44,5.1a2.55,2.55,0,0,1-1.37-1.37c-.3-.65-.6-.73-1.31-.81S22.19,1.62,21.6.78,18.93,0,18.29,0s-.48,2.18-.78,2.66A7.84,7.84,0,0,0,17,4.91a1.46,1.46,0,0,1-1.78.92c-.42-.23-.52-.83-1.09-.69s-.67-.5-.67-.5a1.66,1.66,0,0,1-.25-1.32c.2-.71-.59-.87-1.27-.51s-.53-.3-1.4.1-.89-1-1-1.93-.63-.8-1-.54a3.57,3.57,0,0,1-1.74.2,2,2,0,0,0-1.17.63,3.11,3.11,0,0,1,.66,1.06c.19.57.82.69,1.27,1.33S7.19,5,7.34,5.51s-.27.67-1,.66S5.89,7,6.22,7.53s-.28,1-.81,1.68,0,2.08,0,3.13c0,.19.24,1.91.62,1.91v1.53h.57c0-.19.19-.38.19-.57a.5.5,0,0,0,.57-.57c1.14,0,2.86-.77,4-.77.77,1.15.2,2.67.21,3.81l-.38.19v.19a.37.37,0,0,0-.38.38c-.19,0-.57.38-.57.38,0,3.24,3.27,8-.53,9.9,0,2.09,1,3.23,1,5.32-.57,0-1.7,3.24-1.89,3.81H8.23a6.93,6.93,0,0,0-.37,2.85l-.38.19c0,.57-.57.76-.57,1.14l-.19.19-.38.19H6v-.19c-.19-.19-1.15.19-1.34.19-.19.38-.57.77-.56,1.15-1.15.38-1.9,2.09-3,2.66,0,.19-.18.76-.56.76,0,.19-.45,1-.45,1.17a2.88,2.88,0,0,0,1.18,1.24l1.55.8a7.22,7.22,0,0,1,1,.49c.3.21.34,1.14.7,1.45l1.75,1.6c.53.49,1.16.26,1.15,1.33,0,.42.13,1.68.69,1.69,1.32,0,1.25,1.15,2.56,1.56l2.44.74c.39.13,1.47-.16,1.46.41l.3,4.88c0,.93.94,1.87,1.5,2.38l1.92,1.79c.8.76,1.44.41,2.39.42.66,0,1.46.71,2,1,.77.46,3.19.82,3.38,1.87A4.73,4.73,0,0,0,27.36,74c1,1,2,2,3.63,2,.81,0,1.19.88,1.81,1.16l.89.37c.09,0,.57.19.78.28l.27.06c.06,0,.15.06.18.06l.35.1a5.15,5.15,0,0,0,.72.22c.57,0,.81-.53,1.38-.5l3.35.4c.39,0,.31-.86.85-.88l2.6-.09a4.63,4.63,0,0,1,2.66.42c1.13.58,3.36-.8,4.28.14a8.45,8.45,0,0,1,1.19,2.74c.35,1,1.48,1.69,1.25,2.8-.44,2.15-1.35,5.22.94,6.38.36.19,1.24,1.58,1,1.9l-.88,1.13a6.08,6.08,0,0,0-1.06.91,3,3,0,0,1-1.21.5c-.9.28.64,1.53,1.21,1.54.9,0,1,.79,1.79.74l.21.06a1,1,0,0,1,.29.18c.09.06.06.36.06.48a1.83,1.83,0,0,0,.08,1c.4.87,1.38-.94,1.94.2.29.61.84,0,1.32,0,.26,0,.5.42.53.43.66,0,1.65-.7,2-.46.77.61,1.47,1.69,2.21.24.21-.42,1.11-.38,1.51-.76.24-.24,1.63-1.21.22-1-.39.06-.79.65-1,.17,0-.06.53-1.55.8-1.64.69-.2.15-.32.15-.74s1.2,0,1.41,0,1.2.14,1.2-.28,0-.84-.47-.84c-.6,0,.25-.87.08-1.26-.47-1-.72-2.07,1-2,0-.45.78-.26.77.31s.32,1.2.83,1.26l3.55.62c.45.06,1.36-.77,1.21-1.28,0-.12-.32-.66-.17-.81.43-.41.75.4,1.13.74a1.71,1.71,0,0,0,.43-1c0-.54.46-.74.85-1s.2-1.26.18-1.89.93-.46,1.41-.67.4-.74.52-1.22,1-.85,1-.85a9.62,9.62,0,0,0,1.55-1.81c.12-.45,1.14-.49,1.3-1s.84-.47,1.35-.76.63-1.82.39-2.48a1.41,1.41,0,0,1,.53-1.61c.45-.33.16-1.08.38-1.43s0-.63.25-.84.34-.89.49-1.37.43-.38,1.06-.34A9,9,0,0,0,90,72.38a9.25,9.25,0,0,1,1.47-.22A1.4,1.4,0,0,0,92,72.3Z"/></g></g></svg>