<svg xmlns="http://www.w3.org/2000/svg" viewBox="0 0 34.25 33.14"><defs><style>.cls-1{fill:#adce3a;fill-rule:evenodd;}</style></defs><g id="Layer_2" data-name="Layer 2"><g id="regije"><path id="pregrada" class="cls-1" d="M26.83,3.88a19.18,19.18,0,0,1,.48,2.58h-.08v.26c-.09,0-.26.26-.26.43h-.61c.79.61,1.13.35,2,.35l.09.08a.31.31,0,0,0,.09.18l.09,1.64c.09,0,.26.18.26.18a10,10,0,0,0,.36,3.29c.35,0,.7.34,1.05.34,0,.18.26.44.34.52v.44a1.45,1.45,0,0,1-.78.43.31.31,0,0,1-.09.17l-.08,1.82a7.39,7.39,0,0,1,.7,1.47c.26.09.61.61.87.61.18.52-.25,1.9.27,2.16l.18.17c.09.35.61.52.78.87,1,0,1.4.78,1.4,1.65l.26.26c0,.25.05.61.08.92,0,.1,0,.2,0,.29-.17.17-.34.34-.52.34,0,.09-.08.18-.08.26a1.87,1.87,0,0,1-.61.26c-.09.18-.26.18-.43.18l-.09.17c-.17,0-1,.78-1,.86-.52,0-1.12.61-1.73.61-.26.26-1.3,1.47-1.82,1.47,0,.09-.34.69-.52.69,0,.26-.08.09-.08.26l-.09.09h-.69a18.07,18.07,0,0,0-2.17-.26l-.18.26h-.08l-.09.17h-.35l-.17.18v.52a1.08,1.08,0,0,1-1,.43c0-.09-.43-.09-.52-.09,0,.35-.17,1-.17,1.3-.08,0-.26.09-.34.09a1.9,1.9,0,0,0-1.74-.7.88.88,0,0,1-.61.35c0,.09-.26.26-.26.35-.43,0-.86.26-1.3.26-.78.34-2.86-.26-3.65-.52L13,32.6c0-.09-.18-.26-.18-.34-.17-.09-.26-.18-.26-.35-.35-.09-.87-1-1.4-1,0-.09-.17-.26-.17-.26a4.8,4.8,0,0,0-2.43.87,1,1,0,0,0-1-.87c0-.09-.08-.17-.08-.26-.18,0-.27-.09-.27-.35-.17-.08-.35-.78-.35-1a.72.72,0,0,1-.35-.34c-.78,0-.18-1.65-.18-2.08-.17,0,0-.09-.17-.09a7.29,7.29,0,0,0-.8-3.63c0-.09-.26-.52-.26-.61-.35-.17-.35-.69-.61-.95-.53,0-2.18,0-2.17.69-.18,0-.18.17-.26.26s-.18.09-.26.17-.17,0-.26-.17H1.34a.66.66,0,0,1-.18-.35c-1.65-1-1-2.94-1.06-4.58.52-.52.57-3.52.57-4.3L2.6,11.46l.07-1.25.83-.44.89-1L4.32,6.89s0-.79.12-.87a.31.31,0,0,0,.06-.46C4.37,5.42,4.24,5,4,5s-.5.11-.53-.1a4,4,0,0,1,0-.79s0-.33.14-.4.63-.31.57-.5-.11-.68.26-.73.75-.13.8-.26S5.61,2,5.76,2a4,4,0,0,0,.88-.43l.44-.07s.49,0,.55-.19A.73.73,0,0,1,8.11,1,.87.87,0,0,0,8.66.63C8.72.47,9.07,0,9.44,0h1.19s.54.09.66.26a1.77,1.77,0,0,0,.9.46A2.76,2.76,0,0,1,13,1a5.06,5.06,0,0,0,.83.2l.83-.06a5.55,5.55,0,0,1,.9.07,4,4,0,0,0,1.3,0c.27-.07.5-.17.62-.05a.67.67,0,0,0,.57.1c.1-.05.72-.31.54.2s-.18,1,.09,1.11a.9.9,0,0,0,.77-.13c.1-.13.72-.84.92-.86a6.75,6.75,0,0,1,1.43.08c.34.1,1.17.13,1.11.53a2.89,2.89,0,0,1-.24,1,1.68,1.68,0,0,0-.17.83,1,1,0,0,0,.4.76A2,2,0,0,0,24.17,5a6.45,6.45,0,0,1,1.32-.47,2.43,2.43,0,0,0,.83-.31A1.44,1.44,0,0,1,26.83,3.88Z"/></g></g></svg>