<svg xmlns="http://www.w3.org/2000/svg" viewBox="0 0 32.38 36.91"><defs><style>.cls-1{fill:#4e83bf;fill-rule:evenodd;}</style></defs><g id="Layer_2" data-name="Layer 2"><g id="regije"><path id="primosten" class="cls-1" d="M25.87,7.05c-2-.76-3.79-2-5.93-2.6L15.4,3.2,15.28,3c-2,0-4.16-1.38-6-1.38s-1.83-.44-3-.39S3.35,1.5,2.62,1A3.78,3.78,0,0,1,1.53,0C1.32,0,1.28,0,1.11.09A.41.41,0,0,0,.92.48c0,.15.06.4-.1.49s-.57.25-.68.32-.23.19,0,.31a.88.88,0,0,0,.43.15.78.78,0,0,1,.66.18,1,1,0,0,0,.33.29c.1.09.3.16.31.25s-.1.1-.26.07-.4-.08-.58.1-.15.51-.09.77a3.51,3.51,0,0,0,.3.75,4.34,4.34,0,0,0,.34.41c.1.07.44.13.57.26s.23.32.33.39.27,0,.23.11,0,.18-.19.17-.34,0-.32.15a.31.31,0,0,0,.15.24c.12.08.11.22.11.35A.33.33,0,0,1,2,6.52c-.3-.06-.52-.18-.66,0a.77.77,0,0,0-.06.75,1.19,1.19,0,0,0,.17.39c.08.07.18,0,.13.2s-.12.11-.15.15,0,.19.06.31.41.47.49.47.29-.09.38.24.1.39-.08.64,0,.47-.14.62a.7.7,0,0,0-.19.41c0,.09.06.27-.09.22s-.11-.11-.22-.27-.33-.4-.55-.34a.39.39,0,0,0-.24.5.63.63,0,0,0,.42.39c.2.14.61.08.65.36s-.3.12-.34.21-.47.2-.45.53.36.48.49.41a.61.61,0,0,0,.28-.32c0-.12.1-.35.34-.32a5.54,5.54,0,0,0,.73.18c.12,0,.56-.37.67-.39s-.21.3-.2.39,0,.29,0,.29a.54.54,0,0,0,0,.43c.13.19.16.5,0,.61s-.33.09-.44.24,0,.27-.14.38-.31.09-.42.13a5.48,5.48,0,0,1-.56.16l-.6.11c-.23,0-.52-.05-.53.29a.78.78,0,0,0,.16.53.9.9,0,0,1,.07.43c0,.16.29.33.52.48a7.24,7.24,0,0,0,1.19.59c.16,0,.21,0,.31.05s.23-.12.3.1.13.34.38.37.38,0,.45-.15a1.74,1.74,0,0,1,.24-.47.35.35,0,0,0,.11-.39A.32.32,0,0,1,4.63,16c.17-.09.23-.06.29-.18s.07-.32.31-.2.19.19.32.25.26.21.12.24a2.18,2.18,0,0,0-.51.09.64.64,0,0,0-.28.38c0,.14,0,.36-.07.52a.5.5,0,0,0,.11.59,8.26,8.26,0,0,0,.88.89c.2.13.21.18.2.28s-.21.11-.41,0-.36-.36-.46-.44-.24-.26-.49-.15c-.07,0-.2,0-.25,0s-.21.13-.33.13-.18-.26-.31-.08.06.29-.25.28a1.82,1.82,0,0,0-.9.14c-.23.16-.39.18-.42.45a2.94,2.94,0,0,0,.14,1,1.14,1.14,0,0,0,.52.46c.2.1.44.08.5.39a2.8,2.8,0,0,0,.54,1.06A.56.56,0,0,0,4.56,22c.06-.11,0-.41.1-.38s.13.12.16.21,0,.24.23.18.28-.2.4,0a1.24,1.24,0,0,0,.42.43,3.65,3.65,0,0,1,.72.46c.29.25.56.52.82.54a2.17,2.17,0,0,1,.57,0,.67.67,0,0,0,.39.08c.12,0,.34-.07.34.08s-.16.13-.25.23,0,.28.08.38a.41.41,0,0,1-.17.43.64.64,0,0,0-.29.5c0,.19.06.44-.18.58s-.39,0-.44.33a.81.81,0,0,0,.16.79.77.77,0,0,0,.53.26c.28,0,.25-.53.38-.45s.15.27.22.45.14.21.12.28-.27.34-.18.46.19.05.37-.14a1.28,1.28,0,0,0,.16-.88A1.63,1.63,0,0,0,9.07,26c-.11-.15-.36-.47-.29-.6a.51.51,0,0,1,.69-.23,1.88,1.88,0,0,0,.8.27c.17,0,.89,0,1.07-.38a1.21,1.21,0,0,0,.17-.65.67.67,0,0,0-.15-.47c-.11-.11-.28-.12-.39-.17s-.09-.16.16-.2.34,0,.5-.15a.94.94,0,0,1,1-.09,2.82,2.82,0,0,0,.8.5.55.55,0,0,0,.3-.13s.2-.14.28,0,.2.13.31.13.18-.05.37.05.26.23.11.26a3.8,3.8,0,0,1-.58,0c-.23,0-.35,0-.64.06s-.53-.11-.81,0-.3.3-.32.58,0,1.13,0,1.47.1.54.13.84a.93.93,0,0,0,.25.68c.21.19.29.13.47.42s.09.32.35.45.3.18.3.29-.06.13-.24.14a.75.75,0,0,0-.63.19c-.42.32-.6,1-1.06,1.06a3,3,0,0,1-.76-.05s-.18,0-.18.12a.43.43,0,0,0,.17.32c.1.06.23.2.2.31s-.16.19-.33.06-.21-.34-.44-.58a2.36,2.36,0,0,0-1.22-.68,3.07,3.07,0,0,1-1-.28c-.27-.12-.26-.18-.48-.19s-.23-.08-.42-.18-.32-.38-.54-.28a.28.28,0,0,0-.08.45,1.5,1.5,0,0,0,.41.39.42.42,0,0,1,.23.24c.07.15,0,.16.14.16s.44-.24.62,0A3.23,3.23,0,0,0,9,31c.22.13.34.16.3.29s-.19.41-.34.32-.2-.25-.46-.24-.25,0-.38.09-.15.29-.31.19-.27-.24-.48-.21a.43.43,0,0,0-.4.47c0,.15,0,.46.36.45s.51-.09.65.16.19.31.36.31.32,0,.36.18,0,.17.1.28a.43.43,0,0,1,.14.32c0,.12.06.19.15.19s.14-.11.15-.2,0-.26.25-.24.42,0,.47-.1,0-.19.17-.24a3,3,0,0,1,.47-.17c.12,0,.14-.1.14-.25s.08-.37.2-.39.2,0,.14.22a.56.56,0,0,0,.07.57c.14.19.15.21.15.38s0,.19-.19.19a.31.31,0,0,0-.33.27.82.82,0,0,1-.07.48c-.06.16-.31.32-.27.44s.31.08.43,0a.64.64,0,0,1,.47-.16c.14,0,.43.1.49,0s.12-.36.36-.36.26,0,.26-.19,0-.59.18-.43.25.28.34.14a.65.65,0,0,0,0-.46,2.29,2.29,0,0,1,0-.86c.11-.2.26-.46.44-.4s.21.09.15.25-.23.3-.19.58,0,.21.06.41a.41.41,0,0,0,.27.4,1.07,1.07,0,0,0,.8,0c.51-.13.78-.29,1-.17s.08.27.29.28.36,0,.37.16-.09.11-.22.14a.4.4,0,0,0-.27.18,1.48,1.48,0,0,0,0,.31c0,.09,0,.31-.12.31s-.24-.27-.45,0a1.26,1.26,0,0,0-.33.77A.37.37,0,0,0,15,36c.14,0,.37,0,.3.13s-.31.36-.26.54.29.18.44.18.47,0,.56,0a.22.22,0,0,0,.1-.22c0-.11.06-.27.32-.33a.79.79,0,0,0,.57-.47.69.69,0,0,0-.05-.45c0-.1-.22-.22-.25-.31s0-.24.22-.15a2,2,0,0,0,.69,0,.92.92,0,0,0,.56-.37c.16-.2.33-.38.29-.6a.81.81,0,0,0-.28-.42.61.61,0,0,1-.13-.46.13.13,0,0,1,.09-.11L18,32.58a1.1,1.1,0,0,1,.93-.72,3.54,3.54,0,0,1,1.79-.06l.94.24.63-.44a5.72,5.72,0,0,1,.83.1c.35.09,1.61.57,2.26.18s.78-.53,1.06-.58a1.46,1.46,0,0,0,.82-.25c.25-.22.46-.31.6-.45a2.93,2.93,0,0,0,.33-.71l.21-.59a12.19,12.19,0,0,1-2-.88,6.47,6.47,0,0,0-1.55-.92,5.05,5.05,0,0,1-1.5-.7,5.29,5.29,0,0,0-.72-.57l-.21-.06L23,24.71A11.32,11.32,0,0,0,25,25c.62-.05,1-.1,1-.1l.31-.81s.37-.43.73-.15a2.31,2.31,0,0,0,.63.36l.45.45a1.79,1.79,0,0,0,1,.52,13.87,13.87,0,0,0,1.49.23l0-.46.27-.86s.48-.35.82-.26l.68.2-.21-1.68a12.41,12.41,0,0,0-1.27,0A2,2,0,0,1,29.32,22,1.64,1.64,0,0,1,29,20.89a6.08,6.08,0,0,0-.18-1,1.83,1.83,0,0,1,0-.91.86.86,0,0,0,0-.62c0-.12-.21-.56-.21-.56l-.84,0-.78-.49-.82-1.67-.24-.56a1.55,1.55,0,0,1-.26-.61,5.06,5.06,0,0,0-.28-1.25,4,4,0,0,1-.22-.9L24.18,10l.45-.82,1-1.37Z"/></g></g></svg>