<svg xmlns="http://www.w3.org/2000/svg" viewBox="0 0 215.71 291.7"><defs><style>.cls-1{fill:#c01b82;fill-rule:evenodd;}</style></defs><g id="Layer_2" data-name="Layer 2"><g id="regije"><path id="primorje" class="cls-1" d="M134.24,121.37a1.09,1.09,0,0,0,0-.18,1.11,1.11,0,0,0-.28-.85c-.28-.36-.42-.12-.63-.47s0-.76.06-1.11a.65.65,0,0,0-.26-.7,2.14,2.14,0,0,1-.6-.69,3.22,3.22,0,0,1-.21-1.28,3.87,3.87,0,0,0-.69-1.5,12.48,12.48,0,0,1-.77-1.91c-.12-.31-.34-.05-.49-.12s-.07-.19-.06-.6-.23-.47-.4-.63-.13-.44.19-.57c.2-.28,0-.7-.14-1.17a3.37,3.37,0,0,0-.48-1c-.44-.78-.83-.57-1-.78a1.2,1.2,0,0,1-.4-1c0-.52-.11-.35-.31-.93a3.31,3.31,0,0,1-.1-1.17c0-.29,0-.37.19-.88s-.18-.56-.28-.71-.26-.24-.23-.55.5-.43.65-.55.16-.2.16-.44.24-.38.33-.48.19-.24.11-.41-.26-.05-.31,0a1.15,1.15,0,0,1-.39.36c-.24.17-.25.31-.35.54s-.17.29-.48.4-.46.23-.71.35-.37-.17-.51-.43a.49.49,0,0,1,0-.54.27.27,0,0,0,0-.34c-.06-.14.35-.35.41-.53s-.15-.14-.39-.09-.44.4-.64.6-.27.06-.53-.08-.27,0-.57-.07-.25-.38-.49-.43-.63.42-.88.34-.27-.24-.33-.51a.78.78,0,0,0-.54-.56.53.53,0,0,1-.37-.36c0-.11.13-.17,0-.28s-.17.06-.37.08a3,3,0,0,1-.47-.09c-.27,0-.49-.22-.9-.45a1.66,1.66,0,0,0-1-.09c-.27,0-.45-.22-.85-.45,0,0,.22-.29.18-.35-.28-.51-.34-.16-.91-.31a1.42,1.42,0,0,1-.79-.31,2.13,2.13,0,0,0-1.15-.25,2.14,2.14,0,0,1-.93-.32c-.33-.21-.62-.12-1-.33s-.65-.62-1.33-1.09a3.27,3.27,0,0,0-1.94-.3c-.57,0-.79-.67-1-1-.06-.13.16-.25,0-.41s-.3,0-.37-.06l-.56-.76a5.22,5.22,0,0,0-1.5-1c-.24-.09-.36-.07-.07-.31a.54.54,0,0,0-.54-.28.33.33,0,0,1-.39-.27c-.07-.25.07-.28.33-.65s-.25-.75-.48-1-.29-.39-.49-.58-.6-.36-.82-.55a4.49,4.49,0,0,1-1.06-1c-.33-.5-.57-.33-1-.64a2.14,2.14,0,0,0-.78-.14c-.12,0-.42-.28-.42-.28a.28.28,0,0,1-.17.11h-.25V86a1.47,1.47,0,0,0,.24,0,.2.2,0,0,0,.16-.21l-.07-.07-.17.24-.09-.09.16-.2-.21-.15a.91.91,0,0,1-.3-.42,1,1,0,0,0-.28-.42,1.75,1.75,0,0,1-.38-.53c0-.15-.23-.57-.23-.57l-.33.07,0-.1.3-.06s-.23-.36-.78-1.1a4.16,4.16,0,0,0-1-1.11,4.8,4.8,0,0,1-.89-.84c-.38-.43-.18-.16-.69-.69s-1.14-1.27-1.36-1.46-.12.35-.21.5-.61-.14-.69-.31.1-.25.09-.6a.68.68,0,0,0-.44-.58,2.25,2.25,0,0,1-.62-.5c-.33-.36-.27-.19-.65-.45a3.94,3.94,0,0,1-.68-.54c-.31-.28-.5-.17-1.07-.31a3,3,0,0,1-1.21-.69,1.73,1.73,0,0,1-.46-.62c-.15-.25-.07-.23-.31-.42s-.38,0-.51.09c-.15.28-.29.24-.44.18a.24.24,0,0,1-.14-.11s.13-.17.11-.24-.27-.16-.25-.25c.15-.31.14-.36-.15-.43-.14-.23,0-.35.19-.52a1,1,0,0,1,.71-.25c.25,0,.31,0,.3-.15s-.09-.08-.29-.17a1.61,1.61,0,0,1-.59-.62c-.11-.23.07-.31.19-.57s-.25-.41-.59-.65a1.51,1.51,0,0,1-.47-.57c-.09-.13-.21-.16-.29-.11s-.2.14-.32,0,0-.15,0-.4-.25-.22-.31-.17-.14.14-.27.09-.13-.2-.24-.57a2,2,0,0,0-.76-.86c-.3-.25-.4-.12-.65-.2a3.2,3.2,0,0,1-.88-.73c-.17-.2,0-.34-.17-.45s-.3-.08-.56.06a1.5,1.5,0,0,1-.69.18.8.8,0,0,1-.69-.4c-.06-.15.07-.22.13-.3s.38-.34.49-.48,0-.37,0-.48a1.38,1.38,0,0,1-.07-.44c0-.27,0-.2-.39-.43a5.66,5.66,0,0,1-1-1.08c-.36-.43-.53-.54-.65-.7a2.2,2.2,0,0,1-.16-1,.86.86,0,0,0-.17-.55c-.09-.11-.11,0-.17-.19s-.07-.39.08-.39a1.51,1.51,0,0,1,.56,0,.46.46,0,0,1,.38.29.46.46,0,0,0,.15.25c.19.15.3,0,.35-.19a.87.87,0,0,0-.22-.64,1.17,1.17,0,0,0-.35-.26c-.22-.14-.21-.22-.23-.35s.1-.19.34-.19.2-.14.11-.32-.3-.36-.39-.5-.05-.22.18-.34a2,2,0,0,1,1.13.4c.27.23.29.16.47.17s.31.1.61.15.53.07.62-.13a.44.44,0,0,0-.15-.47.53.53,0,0,1-.14-.42c0-.18-.08-.26-.31-.41a2.36,2.36,0,0,1-.58-.46,9.14,9.14,0,0,1-.66-1c-.27-.36-.52-.18-.74-.25s-.53-.58-.68-.79a4.16,4.16,0,0,0-.7-.69,3.63,3.63,0,0,0-1-.55,3.64,3.64,0,0,1-.82-.41c-.36-.24-.29-.2-.51-.66a2.06,2.06,0,0,0-1.18-.57c-.19.12-.25.1-.22.43,0,.16,0,.43.06.53s.28.05.4.15.22.27.56.58.34.3.62.58.64.59.91.81a1.22,1.22,0,0,1,.38.84,3.06,3.06,0,0,0,.61,1c.16.22.26.29.3.54s.18.56,0,.69-.52,0-.44.2a.43.43,0,0,1,0,.54c-.06,0-.33-.17-.52-.19s-.21.1-.31.08c-.26,0,.26.29.05.46a1.27,1.27,0,0,1-1,.06,1.49,1.49,0,0,0-.72-.07c-.23,0-.36-.28-.7-.6s-1.21-.38-1.43-.46c-.06,0-.11-.35-.27-.47a2.54,2.54,0,0,0-.78-.32c-.07,0,0,.19-.13.17a3.55,3.55,0,0,1-.61-.32,7.44,7.44,0,0,1-.83-.91,2,2,0,0,0-.8-.41,3,3,0,0,1-.83-.57c-.43-.36-.9-.25-1.24-.36s-.51-.65-.78-1-.72-1-.94-1.21-.15-.47-.16-.76-.16-.35-.31-.35a.72.72,0,0,1-.55-.18,1.66,1.66,0,0,0-.45-.28s-.41-.2-.43-.32,0-.18.33-.35.56-.61.67-.7a.32.32,0,0,0,0-.52c-.24-.2-.41.07-.57.21a.5.5,0,0,1-.4.11c-.13,0-.13.13-.13.24a1.63,1.63,0,0,1,0,.35c0,.15-.43.11-.9,0s-.71-.7-1-1.12a3.94,3.94,0,0,0-.9-.82,1.18,1.18,0,0,0-.91-.25c-.15,0-1.19-.26-1.19-.26l0-.28H59a1.69,1.69,0,0,0-.06.3c0,.09-.13.1-.33,0a1.72,1.72,0,0,0-.72.21L57,47.39l.07-.15.65.17.18,0,.28-.24.16-.32-.1,0-.16.27-.31.06L57.44,47l-1.52-.21-1.26-.63-1.06-.06v-.13l1.07.06,1.31.63,1.44.16.15-.26-.84-.39-.14.3-.18-.08.17-.37-.52-.21-.18.4-.21-.09.17-.34-.69-.33-.11.22-.19-.11.1-.21-.76-.18-.11.32-.15-.07,0-.32-1.16-.49-.29.05-.41-.07v-.15l.44.11.08-.16-.25-.1-.71-.07h-1.5v-.15h.3v-.13l-1-.09-.57.22-.13-.14.88-.27-.08-.16-.58.2-.67-.07v-.28a1.66,1.66,0,0,0-.74-.3,12.63,12.63,0,0,1-1.75-.63c-.51-.17-1.07-.33-1.46-.48a5.54,5.54,0,0,1-1.12-.57,1,1,0,0,0-.52-.27.94.94,0,0,1-.5-.14c-.29-.17-1-.59-1.34-.85a1.33,1.33,0,0,0-.89-.17c-.13,0-.19-.08-.44-.31s-.36-.11-.64-.22-.06-.41-.15-.76-.31-.37-.72-.29-.52.68-.66,1-.31.11-.56.22-.19.44-.21.71a.5.5,0,0,1-.2.46c-.11.1-.34.35-.63.63s-.29.62-.41.74-.5.32-.61.53a1.87,1.87,0,0,0-.16.35s-.07.1,0,.13c.36.5.24.63-.28.39-.13-.06-.23.19-.36.29a1.29,1.29,0,0,0-.44.77,1.22,1.22,0,0,1-.28.6A1.09,1.09,0,0,0,33,46c0,.28-.1.31-.2.55s0,.07-.15.4-.24.31-.75.55a2,2,0,0,0-1.06,1.13,3.29,3.29,0,0,0-.36,1.4,1.25,1.25,0,0,1-.72.88c-.09,0-.27-.09-.3,0s.21.5.16.81a2,2,0,0,1-.47.86c-.16.17-.32.17-.41.35-.18.41,0,1.08-.06,1.58a2.65,2.65,0,0,1-.48,1,6.22,6.22,0,0,0-.38,2.07,9.11,9.11,0,0,0-.05,1.22c0,.6-.21.53-.49.74a.74.74,0,0,0-.17.7c.05.18.24.25.22.37-.06.28-.73.43-.93.59s0,.36,0,.94a8,8,0,0,1-.28,1.47,1.91,1.91,0,0,0-.06.56c0,.3-.27.57-.37.92s-.14.72-.24,1-.33.72-.49,1.07a1.5,1.5,0,0,1-.49.6c-.28.26-.17.33-.19.78s-.16.7-.18,1.07a3.55,3.55,0,0,0,.06.76c0,.3-.22.49-.37.62a1.09,1.09,0,0,0-.24.68c0,.29-.14.47-.21.82s0,.53-.08.91-.43.26-.63.35-.12.23-.13.43-.12.17-.19.35a1.38,1.38,0,0,0,0,.68c0,.29-.17.59-.25.82s0,.52,0,.8-.14,0-.2.29c0,0,.11.24.1.28s-.15.24-.12.33.33.31.45.51a.57.57,0,0,1,0,.74c-.18.22-.09.4,0,.81a1,1,0,0,1,0,.49s0,0-.14.06-.1.14-.08.25a.34.34,0,0,1,0,.25,2.65,2.65,0,0,0-.11.26l.23.1c.13,0,0,.15,0,.18s-.11.14-.12.22-.1.13-.22.09-.15.17-.21.29,0,.2.08.31-.12.07-.25.05-.17.18-.23.29-.23,0-.3.08a.91.91,0,0,0-.2.32c0,.09.14.15.11.22a1.74,1.74,0,0,1-.12.18c-.06.09-.23.09-.25.2s.08.41.09.59v.13c0,.36.06.34.19.53s.13.21,0,.34-.21,0-.24.14,0,.33-.06.44a3.19,3.19,0,0,0-.61.94,3.84,3.84,0,0,0-.15.44c-.05.12-.06.3-.1.4s-.13.41-.2.65-.53.52-.63.69a3,3,0,0,1-.64-.32,6.26,6.26,0,0,1-1.26-1.69s-.72-.56-1.22-.89a3.14,3.14,0,0,0-1.16-.41s.52-1.27.71-1.92a24.67,24.67,0,0,0,.48-3.38c0-.44.33-3.34.33-3.34a3.11,3.11,0,0,0,0-1.35A10.09,10.09,0,0,1,16.1,73l-.33-.36s-.26-1.94-.44-2.59-1.25-4.46-1.54-5a7.65,7.65,0,0,1-.49-1.68,3.12,3.12,0,0,1,0-1.24,1.92,1.92,0,0,0,.15-.58l.37-3.34a13.28,13.28,0,0,0-.56-1.21,4.51,4.51,0,0,1-.08-2.44A2.14,2.14,0,0,0,13,53.2a6.16,6.16,0,0,1-.19-2.11,6.74,6.74,0,0,1,.91-3,2.35,2.35,0,0,0,.71-1.34,1.11,1.11,0,0,1,.34-.79,3,3,0,0,0,.92-.76c.4-.5,1.56,0,2.14.1s0-1.16-.63-2.3a11.77,11.77,0,0,1-.91-2.81l-.11-5.46-2.74-1.93-.6-2.19L14,28.76,16,27.48S17,27,17,26.54s-.47-.69-2.09-1.55A42.37,42.37,0,0,0,9.87,23L4.46,18.68,2.13,15.81,2,13.88,0,11.67a4.27,4.27,0,0,1,.71-1.55,2.84,2.84,0,0,0,0-2.69A8.85,8.85,0,0,1,.36,5.68,2.72,2.72,0,0,1,1,5.85C1.39,6,4.38,7.2,4.38,7.2a3.22,3.22,0,0,0,2.51-.08,5.76,5.76,0,0,1,3-1,10.53,10.53,0,0,1,2.88.67c.91.37,2.71,1.36,3.47,1.68s1.14.46,1.14.46.49.27.47-.46,0-2.3,0-2.3a1.61,1.61,0,0,1,.51-1.31A16.4,16.4,0,0,0,20,3c.39-.53.66-.92.95-1.38a2.25,2.25,0,0,1,1-1A3.65,3.65,0,0,1,24.1,0c.66.17.87.33,1.06,1a6.54,6.54,0,0,0,.89,2,11.41,11.41,0,0,1,1,1.63c.32.61.68,1.36,1.13,1.38a1.26,1.26,0,0,0,1.11-.45c.34-.38.46-.63.91-.77s1.2-.35,1.2-.35l.25-.06.72,1.36L35,7,37,6.36l.47,2.52.5.64a10.81,10.81,0,0,0,1.33-.68c.21.24.22.45.36.45,0,.41,0,.41.27.68,0,.4-.13,1.08-.13,1.35-1.75,1.21-1.06,4.45-2.14,5.53v.54c-.13,0-.54.27-.67.13v-.13h-.55a6.83,6.83,0,0,1-.94,1.75c0,.27-.13.68-.13.95h.54s.28.27.41.27a.3.3,0,0,0,.27.27,1.11,1.11,0,0,0,.55.54c0,.27.14.54.27.54,0,1.21-.26,2.56-.25,3.78.54,0,1.08,1.08,1.9,1.08a1.55,1.55,0,0,0,.68,1.08c0,.27.54,1.35.95,1.35a.49.49,0,0,0,.14.27v.67a.45.45,0,0,0,.27-.27,1.54,1.54,0,0,1,.4-1.08h.27l.14-.27c.13,0,.53-.4.67-.4a6.34,6.34,0,0,1,.4-1.49c.81,0,3.93.41,3.92-1.08.54,0,.81-1.48,1.21-1.62l.13-2.15h.27V21a9.23,9.23,0,0,1,3.28,1.29l0,1.81a7.93,7.93,0,0,1,.82,2.7c.14,0,.41.54.41.67s.27.27.41.41,1.35.67,1.35.94c.14,0,.41.27.41.27s.14.27.14.41h.27c0,.13.14.4.14.54l.27.13c0,.14,0,.41.27.41V31c.14.14.27.27.27.41l.22.15a.25.25,0,0,0,.06-.15h.27v-.27c.41-.14.55-.14.82,0A8.42,8.42,0,0,0,59,33.59h.54c0-.14.41-.41.54-.54h.41c0-.14.27-.41.26-.54h.41c0-.14.14-.27.13-.41.28,0,.68-.27.95-.27,0-.54,2-.8,2,.14.27.14.68.94,1,1.21l2.71.14c0-.27.67-1.08.81-1.35,0-.67-.28-1.48-.28-2-.68-.41-.42-1.76-1.09-2.16v-.68a5.19,5.19,0,0,0,.81-.94c.27,0-.13-.14.54-.14.14-.4.81-.81,1.08-1.08.41,0,.81-.54,1.08-.54,0-.4.94-1.35,1.21-1.62,1.22,0,1.89-1.21,2.7-1.61a2.51,2.51,0,0,1,1.21-1.62c0-.54.12-3.24.8-3.24,0-2,2.69-4.15,2.69-6.17a6.26,6.26,0,0,1,1.76,1.71c.54,1.35,1.63,2.7,2.18,3.92.54,0,1.23,2,1.36,2.56H85c.55,1.08,3.66,1.08,4.61,1.35v.14c.27,0,1.09.13,1.36.13a7.92,7.92,0,0,0,.68,2.7c0,1.35,1.11,4.32,0,5.4,0,.41-.41.68-.54,1.08-.4.95.14,1.89.15,2.7h.27c0,.54.81.67,1,1.08.95,0,3.39,2,4.07,2.7H97l1,1.62c0,1.08-.26,2.16-.25,3.24-.27,0-.54,1.35-.54,1.62C96.75,44,96,45.61,96,47.5a11.36,11.36,0,0,1,2.44,2.7,5.33,5.33,0,0,1,1.91,1.62c.27,0,.81.94,1.08,1.07l-.12,2.16c-.14,0-.41.41-.41.54a.58.58,0,0,0-.54.54c.13.13.42,1.29.81,1.29.26,1,2.07,2.32,2.08,3.1.38.13,1.29,1.54,1.55,1.93v.26c.26.38,1.29.9,1.55,1.41.26,0,.52.13.52.39,1.68,0,3.49.77,5.17.77,0-.38.13-.25.52-.25.77-1.55,4.77-2.58,6.19-2.58.13-.13.39-.26.51-.39a2.45,2.45,0,0,1,.9-1.8l.11-4.77a10.28,10.28,0,0,0,2.59.91c.26.51,1,.64,1.17,1.29.64.25,1.17,1.25,1.68,1.8l3.9,4.12L137.09,68a.93.93,0,0,1,.26.51c.26,0,1,1.29,1.17,1.55.65.64,2.2.9,2.85,1.54h1c2.32-1.67,5.82.52,8.14.52.13.13.27.64.52.64a4,4,0,0,0,1.05,2.07c.38,0,1.09.61,1.47.61.61,1.6,1.18,3.15,1.27,3.45.18.66-1.1,2.31-1.1,2.31s-.67,4.27-.78,5.12-.76,4,.46,5.61,1.54,2.2,1.63,2.72.32.53.32.53,3.11,2,3.34,2.8a6.54,6.54,0,0,0,.5,1.28,2.37,2.37,0,0,1-.57.38.43.43,0,0,0-.06.8l1,1.34.12,2.14.7.58s-.16,1.66-.17,2.42-1.41,3-1.85,3.63-.11,1.28.27,1.85c0,.39,1.65,3.66.23,3.66-.13.25-1,.51-1,1-.64.38-.51,1.16-.51,1.8-.25,0-.64.52-.9.52v.25c.39.26,1.56,1.29,1.95,1.29,0,.26.26,1.29.52,1.29a10.83,10.83,0,0,0,0,2.06H159c1.43,2.19-.36,6.57.81,9,.13.26.26.13.26.52l.13.25h.13v.26a.45.45,0,0,1,.13.26c.39.13,1.17,1.29,1.69,1.29.13.26.65.64.65.77v.26c1.69,2.83,5.57,4.12,8.42,5a1.49,1.49,0,0,1,1.16.64c0,.39.27.64.27,1,.38,0,.77.13,1,.13,0,.13.13.26.13.39l-2.06.12c0,.13-.13.26-.13.39-.52.26-.64,1.29-1.42,1.55,0,.13-.13.25-.12.38l-.26.13v1.55a14,14,0,0,1,2.33.13c0,.26.13.64.13.9h.78c0,.52-.26.77-.64,1.16v.9c.78,0,0,2.06.79,2.06,0,.26.12,0,.13.26.12,0,.25-.13.38-.13.13-.51.65-.64.77-1,.26,0,.78-.13,1-.13s.26.26.39.26a9.42,9.42,0,0,0-1.15,3.74l-.26.12c0,.13-.13.26-.13.39s-.25.39-.38.52a3,3,0,0,1-2.07-.65h-1.81c0,.13-.52.13-.65.13s-.38.39-.38.52l-4-.13c0,.12-.64.64-.64.64,0,.39-.13.64-.13,1l.13.13c1,.52,2.21,2.83,2.73,3.87s3.12,2.44,3.9,3.73c1.43,2.06,1,5,3,7,.26.26,1.17,1.42,1.68,1.42.26.51,1.17.9,1.69,1.29,0,.38.52.51.52.9-.7,1.05-3.33,2.48-3.32,3.71-1.06.7-1.4,3.86-1.39,5.09-.18,0-.52.7-.7.7a.37.37,0,0,1-.35.35,16.13,16.13,0,0,1-4.88,11.41c0,3.33-.49,7.72.58,10.87.89,2.81,2.14,7.2,1.62,10.18,0,.18-.35.35-.35.35v.7h-.36c.18.35.72,1.76,1.07,1.93,0,1.06,1.77,2.64,2.48,3.51,3.16,0,5.82,4.22,9.16,4.22.36.35,1.59.87,1.77,1.22.35,0,1.41.18,1.58.53.18,0,1.76-.35,1.76-.7.35,0,.53,0,.7-.18h.53l.35-.35c.18,0,.35,0,.35-.17,0,1.4-2.62,4.73-.68,5.61v1.23l.88.7c1.77,1.76,2.14,6.49,3.91,7.72,0,.18.17.53.17.71l.36.17c0,.35.7.88.71,1.23a4,4,0,0,1,.88.53l.18.17v.35c-.88.35-3.34.88-3.69,1.76H191l-.18.17-.17.53h-1.23A1.61,1.61,0,0,0,188,251c-.18.18-.88,1.23-1.05,1.23,0,.53-.17,1.4-.17,1.93-.18,0-.53.35-.53.35,0,.53,0,1.58.36,1.93a4.68,4.68,0,0,1,3.53,2.11h.35c.53.35,2.29,1.05,2.47,1.58,1.23,0,2.12,1.93,3.35,2.1,2.29.53,6.17,1.58,8.46,1.58.53,1.23,3,2.11,3,4l4.58,2.81c.53,0,.36.17.53.35h.18l.18.35c.88,0,1.58.52,2.46.53v.7c-.17,0-.52.17-.7.17,0,1.41-.19,4.26-.18,5.84a5,5,0,0,1-2-.54,1.88,1.88,0,0,0-1.83-.25,1.76,1.76,0,0,0-1,1.59,9.77,9.77,0,0,1-1.17,3.91,20.92,20.92,0,0,0-1.71,3.54c-.17.57-1.24,4.51-1.24,4.51l0,0c-.14,0-.29.14-.33.25s-.14.16-.35.12-.19-.09-.47-.3-.17-.38-.21-.55-.27-.09-.41-.09a.75.75,0,0,1-.54-.31,6.56,6.56,0,0,1-.62-1.18,1.69,1.69,0,0,0-.82-.76,5.27,5.27,0,0,1-.6-.53,1.6,1.6,0,0,1-.33-.68c0-.25-.35-.2-.42-.19s-.28,0-.34-.15a.39.39,0,0,1,.06-.41c.1-.11.17-.23.09-.35s-.22-.09-.4-.12a.87.87,0,0,1-.52-.36.57.57,0,0,1-.11-.46c0-.23-.15-.26-.28-.31s-.12-.08-.16-.29c-.1-.47-.32-.36-.64-.59s-.19-.26-.38-.47,0-.09-.3-.35-.22-.49-.22-.54a.67.67,0,0,0,0-.37c-.08-.19-.15-.18-.3-.31a2.09,2.09,0,0,1-.4-.57c-.15-.27-.2-.16-.39-.42s-.13-.37-.2-.55-.25-.18-.33-.22a2.8,2.8,0,0,1-.5-.52,1.33,1.33,0,0,1-.17-.44c0-.16-.23-.19-.27-.2a1.11,1.11,0,0,1-.34-.18,1.34,1.34,0,0,1-.29-.57,1.15,1.15,0,0,0-.26-.48c-.15-.21-.18-.33-.44-.74a7.58,7.58,0,0,0-.7-.95,9.58,9.58,0,0,1-.55-1,2,2,0,0,0-.77-.59,10.52,10.52,0,0,1-1.05-.74,1.62,1.62,0,0,0-.82-.3,2.33,2.33,0,0,1-.75-.45,2.68,2.68,0,0,1-.6-.61.7.7,0,0,0-.5-.32,2.4,2.4,0,0,1-.58-.4c-.19-.19-.18-.36-.33-.59a1.42,1.42,0,0,0-.41-.45.57.57,0,0,1-.29-.36c0-.13,0-.24.21-.22s.48.3.61.42a.67.67,0,0,0,.28.21c.15,0,.23,0,.18-.17a1.52,1.52,0,0,0-.25-.43c-.12-.18-.15-.12-.36-.24a4,4,0,0,1-.49-.38c-.17-.14-.05-.33-.12-.4s-.22,0-.31.07-.12.05-.23.2-.07.32-.1.44-.11.17-.24.06-.09-.32-.1-.5a.83.83,0,0,0-.13-.42c-.06-.14-.07-.15,0-.28s0-.2,0-.25-.21,0-.3.06-.25,0-.29,0a.32.32,0,0,1,0-.36.24.24,0,0,0,0-.34c-.07-.07-.21,0-.21,0s0,.07-.19,0-.2-.09-.4-.26-.4-.15-.55-.24a1,1,0,0,1-.42-.49c-.12-.27,0-.38.1-.54s.05-.27-.09-.33-.26.12-.35.19a.77.77,0,0,1-.5.19.86.86,0,0,1-.56-.31.63.63,0,0,0-.46-.19c-.12,0-.15,0-.19-.18s-.13-.19-.25-.32-.08-.29-.08-.47-.08-.17-.19-.14-.12.1-.12.19a.26.26,0,0,1-.15.22.21.21,0,0,1-.23-.2c0-.15-.12-.17-.25-.3a.3.3,0,0,1-.05-.3.43.43,0,0,0,0-.25c0-.12-.14-.09-.3-.09s-.26-.12-.35-.31-.19-.11-.38-.22a.74.74,0,0,1-.33-.53.29.29,0,0,1,.12-.34,2.43,2.43,0,0,0,.4-.33c.09-.11,0-.19-.16-.27s-.25.11-.25.11a.46.46,0,0,1-.3.19.44.44,0,0,1-.42-.11,3.63,3.63,0,0,1-.52-.7c-.06-.2.07-.27.19-.3s.18-.12.1-.22-.24,0-.47-.08a.78.78,0,0,1-.47-.44,1.14,1.14,0,0,1-.08-.64c0-.26-.08-.26-.39-.44a1.67,1.67,0,0,1-.54-.64.93.93,0,0,1-.12-.69c0-.38-.23-.35-.33-.44s-.2-.07-.21-.47-.35-.45-.66-.67.39-.32.4-.4-.39-.08-.54-.22,0-.41,0-.51-.08-.32-.23-.39a1.32,1.32,0,0,1-.4-.26,7.85,7.85,0,0,1-.83-1,.81.81,0,0,1,0-.58c0-.16,0-.22-.08-.25s-.2.11-.33.21-.31,0-.31,0-.31-.3-.49-.51a.54.54,0,0,1-.12-.5c0-.14,0-.25-.12-.3s-.17.08-.28.17a.24.24,0,0,1-.24,0,2.35,2.35,0,0,1-.43-.34,2.45,2.45,0,0,0-.84-.45c-.39-.17-.45-.48-.63-.67a.53.53,0,0,1-.18-.48c0-.21,0-.27-.19-.3s-.32.2-.37.29-.15.2-.29.16-.16-.13-.22-.4-.32-.4-.5-.61a3.51,3.51,0,0,0-.41-.37,1.84,1.84,0,0,1-.35-.34c-.1-.17.08-.37.08-.37s.18-.14.17-.26-.11-.07-.22-.08a1.16,1.16,0,0,1-.4-.05.33.33,0,0,1-.22-.3c0-.11-.08-.19-.24-.37s-1.08-1.09-1.27-1.23a2.53,2.53,0,0,1-.5-.7c-.22-.36-.37-.34-.55-.58s-.12-.35-.21-.61-.34-.21-.52-.29-.19-.17-.24-.3a.6.6,0,0,0-.2-.31,1.67,1.67,0,0,0-.45-.1,1,1,0,0,1-.51-.35,1.75,1.75,0,0,1-.24-.48c-.06-.12-.22,0-.41-.1a1,1,0,0,1-.48-.39c-.12-.17-.08-.32-.11-.5s-.14-.14-.2-.09a.45.45,0,0,1-.35.22.54.54,0,0,1-.46-.34c-.1-.24,0-.48,0-.8a.22.22,0,0,0-.41-.09.55.55,0,0,0-.1.25.74.74,0,0,1-.12.27.7.7,0,0,0-.17.33c0,.14-.15.23-.36.2s-.29-.25-.43-.47a1,1,0,0,0-.54-.48,1.33,1.33,0,0,1-.65-.59c-.22-.32-.12-.57-.18-.81s0-.28-.13-.37-.26.05-.34.11-.18.06-.31-.07a.6.6,0,0,1-.19-.44c0-.14,0-.23-.19-.25s-.15.11-.3.25-.36.09-.6.09a2,2,0,0,1-1.09-.64c-.13-.24-.44-.05-.59-.18s0-.35.11-.44a.28.28,0,0,0,.11-.23.64.64,0,0,1,.12-.33c.07-.12.14-.23,0-.23s-.34.2-.42.28-.24.24-.33.22.06-.33.06-.4,0-.35,0-.73-.29-.15-.45-.24a.84.84,0,0,1-.39-.6c0-.23,0-.18-.19-.44s0-.35-.08-.59a2.79,2.79,0,0,0-.16-.51c-.06-.19,0-.18,0-.45s-.22-.22-.33-.27-.18-.11-.24-.33-.14-.17-.21-.39.16-.32.22-.4.18-.19,0-.28-.34.07-.52.09a.38.38,0,0,1-.42-.16.81.81,0,0,0-.23-.25c-.1-.06-.15-.08-.14-.23s.08-.13.23-.13.17-.1.12-.21-.07,0-.35-.17-.28-.31-.39-.61.23-.18.32-.31-.15-.18-.14-.25c-.06-.36.23-.46.18-.53s-.34,0-.4-.06-.09-.28,0-.37l.41-.35a.53.53,0,0,0,.16-.25c-.09-.14-.28.05-.4.07-.39.06-.36-.24-.4-.57,0-.17-.15-.28-.15-.52a2.79,2.79,0,0,0-.08-.81c-.06-.3.1-.33.19-.44s0-.26,0-.33,0-.21-.24-.32-.36-.15-.43-.44-.19-.22-.15-.44.22-.23.38-.32.3-.13.21-.22-.25-.06-.37,0a1.55,1.55,0,0,1-.73,0c-.39-.08-.38-.24-.35-.45s0-.22-.18-.37a.31.31,0,0,1-.09-.39s.25-.14.17-.27-.2.09-.34.12-.28-.1-.51-.21-.17-.13-.06-.43-.29-.14-.43-.13a.31.31,0,0,1-.36-.27.24.24,0,0,1,.14-.31s.27-.09.14-.23-.28,0-.54,0-.14-.5-.26-.48-.25.45-.32.29.21-.64.16-.7-.26,0-.45-.08,0-.41-.07-.44-.27.2-.35.09,0-.18,0-.22-.18,0-.31-.07c-.36-.3.19-.36.11-.52s-.42.06-.43,0c0-.24.12-.25.21-.39s0-.16,0-.41-.25.07-.37.12a.23.23,0,0,1-.34-.17c0-.21.14-.25.18-.54s-.09-.19-.4-.41-.15-.5-.06-.79,0-.32.05-.54.26-.09.46-.08.17-.19.14-.34,0-.23-.05-.35-.22-.09-.43-.15-.31-.13-.3-.3.23-.18.36-.2.26-.11.07-.21-.36,0-.82-.1-.43-.41-.44-.63a1.84,1.84,0,0,0-.15-.81c-.17-.34-.63-.12-.84-.25s-.05-.26,0-.44-.19-.11-.26-.33.13-.16.22-.38-.21-.34-.39-.43-.41-.12-.57-.28-.07-.28.06-.43.07-.26.18-.37.18-.29.09-.37-.17,0-.3.11-.38,0-.6,0a.48.48,0,0,1-.45-.17c-.11-.15,0-.23,0-.41s-.05-.24-.22-.32-.22-.21-.26-.41-.15-.16-.33-.2-.2-.15-.21-.27,0-.1-.15-.28-.06-.17-.07-.41.24-.21.46-.21.14-.05.26-.15.38-.1.5-.14.22-.11.05-.2-.41.06-.56.09-.21.07-.41.12c0,0-.14-.21-.24-.2s-.27.16-.32.15,0-.15,0-.34.23-.39.41-.65,0-.38-.32-.62a1.68,1.68,0,0,1-.45-.68c-.12-.23-.08-.28,0-.53s.09-.28-.13-.45-.15-.27-.16-.45-.12-.24-.2-.34-.13,0-.17-.31.1-.27.2-.31a.35.35,0,0,0,.24-.3c0-.19-.27-.09-.45-.19s0-.25.14-.25a3.34,3.34,0,0,1,.59-.06c.47,0,.54.33.83.4s.1-.18,0-.42,0-.24,0-.53.19-.42.26-.55.06-.27-.17-.31-.41.25-.46.29-.25.23-.42.07-.11-.45,0-.77,0-.31-.05-.57.07-.18.17-.37-.05-.22.11-.5.31,0,.44.05.23.13.29,0-.09-.27-.11-.5.09-.23.22-.47.09-.3-.11-.52,0-.29,0-.51-.17-.22-.42-.43a.67.67,0,0,1-.17-.67c0-.13.14-.2.05-.37s-.22.1-.4.12-.23-.16-.25-.24.07-.21.14-.32,0-.23-.13-.24-.13-.06-.19-.24-.12-.21,0-.44c0-.08.32-.19.31-.25s-.25-.12-.38-.3a.5.5,0,0,1-.06-.66c0-.09.31-.18.26-.22s-.31-.18-.43-.3-.07-.36.17-.51c.07,0-.3-.19-.28-.3.33-.24-.18-.48-.23-.73s0-.3.18-.5.28-.09.27-.14-.35-.18-.45-.26a.72.72,0,0,1-.19-.59,1,1,0,0,0-.12-.51c-.09-.26,0-.28,0-.67s.14-.39.1-.57a.35.35,0,0,1-.05-.58c.15-.13.37-.28.44-.34s.23-.28.14-.39-.07-.26-.14-.24-.16.39-.22.42-.16.08-.49.07-.25-.49-.25-.76,0-.57-.14-.74-.18-.4-.16-.71,0-.64,0-.89a.69.69,0,0,1,.15-.45c.08-.16-.09-.27-.17-.42s.09-.48.17-.6.15-.05.36-.06.25.33.35.11-.48-.49-.63-.86.27-.4.36-.52a1.27,1.27,0,0,0-.37-.36c-.15-.1-.08-.19,0-.49s0-.17,0-.44.07-.2.17-.34a.31.31,0,0,0,.11-.27c0-.1.12-.18.12-.18a.34.34,0,0,0,.22-.37c0-.31-.17-.09-.4-.16s-.25-.46-.16-.63.12-.2.1-.32a1,1,0,0,1,0-.3c0-.14.13-.22.11-.37s0-.17.24-.24c.48.05.1-.26,0-.47s0-.29.09-.37.14,0,.14-.29-.07-.11-.26-.24-.15-.49-.08-.68-.17-.38-.15-.58.57-.12.85-.15-.33-.25-.33-.25a5.84,5.84,0,0,1-.45-.61c-.08-.12.25-.16.16-.36a1.19,1.19,0,0,1-.07-.69c.11-.33.26,0,.48,0s.1-.32.09-.51.15-.18.24-.37-.05-.22-.22-.26-.2-.2-.16-.42a.85.85,0,0,0,0-.39.45.45,0,0,1,.14-.44c.18-.18.08-.39,0-.59s-.19-.78-.21-.92.1-.27.31-.08.21.8.24,1a.39.39,0,0,0,.33.31c.16,0,.17,0,.34-.18a.59.59,0,0,0,.21-.47c0-.26.14-.26.31-.47s0-.43-.06-.65a.74.74,0,0,1,.13-.62,1.24,1.24,0,0,0,.18-.7,2,2,0,0,0-.21-.88,2.05,2.05,0,0,1,0-.86,1.06,1.06,0,0,0-.21-.68c-.07-.08-.15,0-.15-.13a1.37,1.37,0,0,1,.26-.89c0-.05.32-.06.35-.11s.15-.32.23-.35.27,0,.29-.07-.09-.2-.26-.39-.1-.44-.1-.61,0-.26.21-.29.19-.12.21-.46c-.13-.34.27-.13.33-.6s.13-.5.24-.94.49-.22.67-.25.2,0,.19-.08-.17-.12-.39-.18-.25-.32-.16-.67a3.64,3.64,0,0,1,.35-.81,3.41,3.41,0,0,0,.36-.66c0-.08-.14-.12-.1-.19s.34,0,.44.13a1.63,1.63,0,0,1,.11.71c0,.2,0,.26.13.31a1,1,0,0,0,.23-.47.89.89,0,0,1,.12-.44,1.42,1.42,0,0,0,.11-.7,1.18,1.18,0,0,1,.11-.64c.11-.23,0-.44,0-.71a.79.79,0,0,1,.15-.62c.2-.36.05-.6.06-.82s0-.39.21-.5,0-.46,0-.71,0-.33.21-.34.21-.25.19-.46.16-.21.36-.3.26-.5.26-.5,0-.41.06-1,.13-1,.16-1.37.12-.42.36-.72.06-.66.06-.95.28-.54.49-.94a1.23,1.23,0,0,0-.21-1.21,1,1,0,0,1-.24-.68.75.75,0,0,0-.15-.52.64.64,0,0,1-.2-.53,1.25,1.25,0,0,0-.14-.63c-.1-.25,0-.17,0-.54a.86.86,0,0,0-.36-.73c-.2-.19-.13-.33-.11-.53s0-.3-.13-.41-.22-.24-.32-.43a3.3,3.3,0,0,0-.75-.77c-.42-.34-.72-.7-1-.89a2.39,2.39,0,0,1-.62-.5c-.12-.15-.47-.37-.7-.61a.69.69,0,0,1-.22-.42.71.71,0,0,0,0-.27l-.11-.12-.14.07,0-.11.25-.1.15.18.09-.12.25,0-.05-.1.07-.09.11.06,0-.26h-.1l-.08-.15-.13.06-.09,0s.08-.18.12-.25a1.8,1.8,0,0,0,.06-.28v-.69a1.87,1.87,0,0,0-.49-1.24,2,2,0,0,1-.26-.9.71.71,0,0,0-.16-.36,2.21,2.21,0,0,1-.29-.51c-.11-.32-.35-.46-.53-.74s0-.44,0-.69,0-.25-.19-.48a5.21,5.21,0,0,1-.65-1.36.88.88,0,0,1,.08-.81.35.35,0,0,0,0-.46,3.71,3.71,0,0,1-.36-.56A1.78,1.78,0,0,1,134.24,121.37Z"/></g></g></svg>