<svg xmlns="http://www.w3.org/2000/svg" viewBox="0 0 31.96 35.63"><defs><style>.cls-1{fill:#2e6faa;fill-rule:evenodd;}</style></defs><g id="Layer_2" data-name="Layer 2"><g id="regije"><path id="promina" class="cls-1" d="M1.17,25.25a3.75,3.75,0,0,1-.13.51,5.57,5.57,0,0,1-.55,1.38,4.66,4.66,0,0,0-.48,1v0a6.93,6.93,0,0,1,2.71,1.32h.5C5,31.23,8.63,31,10.9,32.11c0,.5,2.4,2.13,2.65,2.76,1.39.38,3.15,1.63,4-.25.37,0,.87-.5,1.25-.5a3.06,3.06,0,0,1,1.76-1,.41.41,0,0,1,.25-.13l.12-.25c.88,0,1.89-1.26,2.64-1.63,2-1.26,6.41-1.63,7.53-4v-.38c0-3.64,0-8.15.83-11.67,0-.12,0-.87-.13-.87V13.8a2.45,2.45,0,0,1-1-1.63h-.25a1.76,1.76,0,0,0-.25-.5l-.14-2.39-.12-.12c-.51-.25-1.14-1-1.77-1,0-.87.5-1.75.49-2.63a3.23,3.23,0,0,1,1.51-.63l.25-.25V3.89A12.29,12.29,0,0,1,28.37.13C28.25.13,28.12,0,28,0s-.5.38-.5.38a16.93,16.93,0,0,1-2.77,3.08,41.77,41.77,0,0,1-4.37,3.19A4.62,4.62,0,0,1,18.46,7a10,10,0,0,0-4.4-.88c0,.13-.25.25-.38.25a2.5,2.5,0,0,1-2.26,1.38,2.24,2.24,0,0,0-1.26-.5c-.21,0-.78-.48-1-.58a7.44,7.44,0,0,0-1-.63c-.33-.11-.57-.18-.77.14s.21.85.61,1.63-.22.87-.8.89a1,1,0,0,0-1,.7,5.81,5.81,0,0,0-.13,1.16A2.8,2.8,0,0,1,6,11.8c-.18.76.72,1.39.88,1.51a5.12,5.12,0,0,1,1,1,.89.89,0,0,1,.13,1,4.61,4.61,0,0,1-1,1.14c-.25.22-.57.15-.86.36a1,1,0,0,1-.93-.06.61.61,0,0,0-.71,0c-.31.17-.47,0-.71,0s-.48.09-.66.48-.44.28-1,.61-.53,1.11-.52,1.74a1,1,0,0,0,.66,1.05c.36.13.35.54.35.79A12,12,0,0,1,1.3,24.21v.37C1.05,24.58,1.42,25.25,1.17,25.25Z"/></g></g></svg>