<svg xmlns="http://www.w3.org/2000/svg" viewBox="0 0 37.77 50.28"><defs><style>.cls-1{fill:#c657a0;fill-rule:evenodd;}</style></defs><g id="Layer_2" data-name="Layer 2"><g id="regije"><g id="rab"><path class="cls-1" d="M16.71,0a.69.69,0,0,1,.44.24c.18.17.26.42.52.55a.91.91,0,0,1,.54.42c.19.28.31.46.52.52s.33,0,.5.25.14.26.34.42.45.2.59.36.1.25.28.3.25,0,.38.15a1.21,1.21,0,0,1,.17.57c0,.15,0,.27.18.37s.33.08.41.33,0,.3.11.41a.6.6,0,0,1,.22.4c0,.16,0,.23,0,.29a.12.12,0,0,0,.19,0c.05,0,.08-.14.19-.14s.15.07.19.2,0,.18,0,.37a.87.87,0,0,1,.1.49c0,.24.05.45-.08.58s-.15.11-.29.14a.46.46,0,0,0-.36.19c-.16.18-.23.26-.43.25s-.2-.07-.35-.13-.12-.08-.3-.09-.25,0-.33-.12-.09-.17-.23-.16-.1.1-.09.17.07.12-.16.12-.13-.12-.43-.1a1,1,0,0,0-.35.07.51.51,0,0,1-.4,0,.53.53,0,0,0-.43-.13c-.22,0-.28.07-.45-.1s-.19-.37-.45-.37a1.12,1.12,0,0,1-.82-.18c-.38-.25-.38-.25-.44-.51s0-.47-.1-.68S16,5.24,15.85,5a.86.86,0,0,1-.19-.45c0-.15-.12-.31-.22-.34A.75.75,0,0,1,15.08,4a.39.39,0,0,1-.18-.38c0-.17,0-.26,0-.34s-.25-.23-.35-.36a.39.39,0,0,1,0-.39.22.22,0,0,1,.33-.08.41.41,0,0,0,.34.09c.11,0,.29-.14.42,0s.25.28.42.26a.52.52,0,0,0,.32-.15,1,1,0,0,1,.27-.11.22.22,0,0,0,.13-.24c0-.11-.2-.23-.2-.38a.65.65,0,0,0-.06-.41,1.83,1.83,0,0,1-.23-.77c.06-.13.32.08.31,0s-.18-.3-.13-.44S16.6,0,16.71,0Z"/><path class="cls-1" d="M26,8.93s-.06-.2.05-.28.17-.07.38.06.16.17.42.19.41-.09.56.15.23.22.38.23a.92.92,0,0,1,.36.07.37.37,0,0,0,.43,0c.15-.13.1-.19.34-.18s.51.15.67.08.23-.2.41-.14.34.2.53.13.39-.17.54-.1.26.23.52.24a1.15,1.15,0,0,1,.73.12,1.88,1.88,0,0,1,.6.7c.08.21,0,.42,0,.64a1.51,1.51,0,0,1,.05.44c0,.15-.2.21-.18.38s.11.47,0,.66-.31.26-.46.16A1.2,1.2,0,0,1,32,12.1c-.07-.09-.1-.11-.19,0a.39.39,0,0,1-.38.14c-.19,0-.2-.21-.4-.11s-.11.17-.11.36,0,.27-.05.39a.23.23,0,0,0,.06.35c.12.09.18.11.12.23s-.27.08-.38,0-.24-.16-.33-.11a.22.22,0,0,0-.12.25c0,.12.14.21.1.33s-.23.08-.18.24a.38.38,0,0,0,.22.23.21.21,0,0,1,0,.27c-.12.14-.24.12-.46,0a2.08,2.08,0,0,1-.55-.69,2.89,2.89,0,0,1-.2-.65A.43.43,0,0,0,29,13c-.1-.09-.11-.13-.14-.3a3.61,3.61,0,0,0-.07-.48c0-.09-.22-.07-.28,0s0,.33-.13.38-.16.08-.31-.05-.24-.24-.43-.23-.18-.06-.31-.23-.16-.25-.37-.28a.42.42,0,0,1-.38-.27c-.08-.16-.09-.15-.09-.29a.56.56,0,0,0-.1-.4c-.12-.19-.27-.16-.24-.42s.23-.26.15-.52S26,8.93,26,8.93Z"/><path class="cls-1" d="M20,35.83s-.05-.25.17-.16.57.5.88.63.44.11.61.36a2.4,2.4,0,0,0,.77.64c.28.15.61.38.89.55a2.51,2.51,0,0,1,.88.85,5.92,5.92,0,0,0,1,1.4,3.85,3.85,0,0,0,1,.69,2.88,2.88,0,0,1,1,.76,23.85,23.85,0,0,0,1.68,2,5.32,5.32,0,0,1,1.53,1.8,12.9,12.9,0,0,0,1.2,2.13c.4.46,1.67,1.57,1.62,2.2s-.44.61-.6.61a6.5,6.5,0,0,1-1.72-.77,2.65,2.65,0,0,1-.83-1.21A6.06,6.06,0,0,0,29.43,47a7.25,7.25,0,0,0-1.11-1.67c-.64-.66-.81-.66-1.22-1.4a9.25,9.25,0,0,1-.63-1.11,3.57,3.57,0,0,0-.64-1.17,12.11,12.11,0,0,0-1.68-1.91,18.73,18.73,0,0,1-1.72-1.54c-.35-.4-1.18-1.18-1.27-1.31a5.71,5.71,0,0,0-.72-.6A1.39,1.39,0,0,1,20,35.83Z"/><path class="cls-1" d="M36.22,45.64c-.06-.1-.15-.19-.16-.22s.17-.07.27-.14-.3-.31-.12-.44.14.08.29.14.24.17.35.13.07-.22.09-.22.08.28.15.45a.54.54,0,0,0,.25.35c.17.12.38.05.43-.24a1.58,1.58,0,0,0-.32-.89c-.14-.23.1-.34.15-.53s0-.3-.22-.61,0-.53-.08-.87a2.44,2.44,0,0,1,0-.81.61.61,0,0,0-.09-.5c-.05-.05-.07-.27-.11-.33s-.1.13-.13.27.12.31.1.5a.83.83,0,0,1-.27.51c-.15.13-.15.37-.24.49s-.13.09-.21,0,.1-.47.1-.63-.15-.12-.13-.26,0-.45-.06-.58-.19,0-.16-.25a.43.43,0,0,0-.17-.47c-.15-.17-.1-.25-.17-.44s-.24-.4-.34-.41-.22.16-.3,0,.09-.2.15-.42a1,1,0,0,0-.35-.82,2.27,2.27,0,0,0-.6-.44c-.1-.05-.27,0-.38-.12s-.07-.35-.15-.5-.42-.51-.49-.64,0-.48-.31-.61-.32-.18-.46-.42A3,3,0,0,0,32,34.9c-.31-.29-.34-.59-.55-1a11.7,11.7,0,0,0-.91-1.59c-.23-.25-.34-.15-.51-.2s-.43-.32-.57-.47-.48-.41-.89-.88a3.77,3.77,0,0,0-.88-.83c-.32-.2-.37-.44-.82-.93s-.73-.79-.9-1a3.82,3.82,0,0,0-.63-.6c-.14-.1-.16-.18-.21-.38a1,1,0,0,0-.43-.48,3.52,3.52,0,0,1-.48-.45,5.72,5.72,0,0,0-.74-.61,23.61,23.61,0,0,1-1.74-1.71c-.39-.41-1-.9-1.37-1.24s-.73-.95-1.07-1.29-.54-.69-.89-1.07A6.2,6.2,0,0,0,17.22,19a6,6,0,0,1-1-.93,3.08,3.08,0,0,0-.54-.42,6.06,6.06,0,0,1-.79-.9c-.28-.34-.25-.47-.21-.6s.34-.34.61-.51.54-.29.72-.39.3,0,.52.12a.45.45,0,0,0,.46,0,.29.29,0,0,1,.27.06.26.26,0,0,0,.25.07c.12,0,.08-.17.08-.26a.46.46,0,0,1,.11-.32.52.52,0,0,1,.26-.14l.3,0c.14,0,.09-.17,0-.24a5.62,5.62,0,0,0-.53-.82.39.39,0,0,1-.08-.47,2.17,2.17,0,0,1,.31-.46c.19-.2-.05-.26-.06-.44s.07-.31.28-.45.18-.09.53-.1.37-.08.5-.22.11-.19,0-.27-.16,0-.28,0a.24.24,0,0,1-.24,0c-.06,0-.07-.13,0-.29s0-.25-.14-.31a.49.49,0,0,0-.46.19c-.09.12,0,.26-.12.41s-.25.1-.36,0a1.86,1.86,0,0,1-.33-.32c-.16-.18-.08-.34,0-.5a.33.33,0,0,0-.08-.42c-.12-.13-.3-.09-.56-.07s-.32-.06-.34-.25.16-.36.4-.53a2.82,2.82,0,0,1,.62-.32c.13-.07.15-.2,0-.24a.87.87,0,0,0-.52,0,1.77,1.77,0,0,0-.63.32c-.1.11-.22.12-.45.1a.33.33,0,0,0-.39.19c-.06.12,0,.24,0,.45a.29.29,0,0,1-.33.28c-.13,0-.15-.08-.17-.21s.05-.23-.09-.33-.26,0-.33.08,0,.18-.33.29a.28.28,0,0,1-.4-.26c0-.1.14-.12.27-.17a.84.84,0,0,0,.34-.22.27.27,0,0,0,.06-.38.13.13,0,0,0-.2,0c-.07.06-.14.16-.31.32a.78.78,0,0,1-.63.08c-.11,0,0-.25-.06-.38s-.1-.12-.17-.07a1.75,1.75,0,0,1-.24.15.14.14,0,0,1-.21-.07.24.24,0,0,1,0-.25c.07-.06.37-.39.46-.5a.2.2,0,0,0,0-.3c-.08,0-.16-.06-.21,0s-.26.25-.41.43-.43.12-.68.29a.43.43,0,0,0-.24.37c0,.05.07.12.08.19s-.16.31-.12.3a1.56,1.56,0,0,1,.39,0,.26.26,0,0,1,.22.18c0,.12,0,.13-.18.23s.07.23.07.45,0,.42,0,.54,0,.18-.11.22-.22-.09-.33-.2-.26,0-.28.11.09.14.2.29,0,.1,0,.22.15.25.23.25a.38.38,0,0,1,.14.06v.17l-.23.14,0,.06.28-.14h.18a.41.41,0,0,1,.28.2c.12.18.15.28.14.34l0,.15-.25-.32-.07.06.29.41a.43.43,0,0,1-.12.36.36.36,0,0,1-.48.15,5.91,5.91,0,0,1-1-.86c-.16-.13-.22-.26-.3-.21a.42.42,0,0,1-.29.14c-.16,0-.23-.06-.13-.17s.31-.08.31-.24-.18-.19-.38-.22-.09-.18-.22-.35c0,0-.11,0-.14-.06s0-.12-.1-.11-.19.16-.27.13,0-.17,0-.19l-.13,0c-.07,0,0-.11-.11-.13S9,11,9,10.94s.05-.18,0-.19-.16-.11-.22-.12-.36-.06-.44.06-.25.17-.31.05.08-.19.15-.3,0-.22-.2-.22-.35.27-.48.4-.2,0-.19-.13.08-.2,0-.28-.23.16-.29.26-.19.26-.28.11.15-.11.09-.39-.3,0-.3,0-.16.13-.24,0,.11-.24.18-.36,0-.26-.23-.26-.59.59-.65.7-.09.28-.29.21-.09-.3-.13-.52-.39-.24-.54-.16a.46.46,0,0,0-.26.35,1,1,0,0,0,.19.82.77.77,0,0,0,.31.12c.14,0,.11.26.07.42a.29.29,0,0,0,.12.3c.06,0,.67.72,1,1s.12.35.34.63.42.79.68,1.21a2.35,2.35,0,0,0,.64.7c.23.21.57.45.76.59s.13.17.27.13.08-.24.08-.41.15-.1.26,0a6.83,6.83,0,0,1,.63.39.49.49,0,0,1,.19.39.26.26,0,0,0,.1.2,2.34,2.34,0,0,1,.36.49c.13.24,0,.31.06.5a.45.45,0,0,0,.29.36c.15.06.13.17.22.37s.1.32.23.63.16.3.48.53.45.46.67.63a3.16,3.16,0,0,1,.56.71c.12.16,0,.43-.06.48s-.17.26-.23.33a.15.15,0,0,1-.18.05c-.05,0-.23.19-.58-.06a2.24,2.24,0,0,0-.36-.21l.07-.2-.09,0-.07.19a.82.82,0,0,1-.2-.12C11,21.17,11,21,10.89,21s-.08-.27-.17-.37-.13-.08-.13-.08l-.26.34c0,.05-.24,0-.24,0s0-.29-.06-.36-.08.16-.14.14-.17-.14-.28-.2a1,1,0,0,1-.22-.27c-.09-.12.12-.11.25-.26a.34.34,0,0,0,0-.48.19.19,0,0,0-.3.07c-.06.1,0,.2-.06.31a.15.15,0,0,1-.21.09,2,2,0,0,1-.4-.27c-.12-.12,0-.24-.15-.46s-.26-.23-.48-.24a.38.38,0,0,0-.4.18.28.28,0,0,0,0,.29c0,.05.13.1.14.18s0,.06-.12.13-.21,0-.15.25a5.36,5.36,0,0,1,.31.69A11.17,11.17,0,0,0,8.33,22a2.06,2.06,0,0,1,.24.61c0,.15-.2.13-.3.08s-.15-.12-.25-.17-.22-.14-.26,0,.1.24.19.33a3.8,3.8,0,0,1,.34.37c.23.28.65.21.77.33a.6.6,0,0,1,.24.36c0,.12-.08.28-.06.33s.08.09.17.2a.36.36,0,0,1,0,.35c0,.09-.2.39-.31.43s-.19,0-.34-.15-1-.82-1.38-1.11-.45-.13-.58-.31,0-.27-.18-.38-.41.14-.49.09.18-.25.21-.35-.13-.35-.39-.53a2.87,2.87,0,0,0-.64-.26,2.3,2.3,0,0,1-.52-.41.17.17,0,0,0-.27,0c0,.06-.06.19-.18.18s-.17-.05-.26-.19-.2-.13-.28-.06,0,.22-.11.37-.27.08-.32,0,.06-.19,0-.31-.16,0-.19,0,0,.1-.13.06-.08-.11-.1-.23,0-.2-.25-.44A1.23,1.23,0,0,0,2,20.84c-.29-.06-.38.12-.49.25s-.18.07-.37.25-.18.29-.28.51-.24.27-.46.5A1.29,1.29,0,0,0,0,23.1a1.15,1.15,0,0,0,.09.68,5.84,5.84,0,0,0,.55.51c.21.19.13.21.2.4a.84.84,0,0,0,.25.36.82.82,0,0,1,.2.42c0,.15,0,.22.16.27s.16-.06.15-.12a.94.94,0,0,1,0-.34c0-.1.1,0,.13,0a.58.58,0,0,0,.12.17c.08.08.13.11.19.11s.14,0,.19.06,0,.23-.14.31a.41.41,0,0,0-.13.35,1.54,1.54,0,0,0,.08.57c.1.28.37.15.49.32s0,.3,0,.47.17.3.28.41a.77.77,0,0,1,.2.33c0,.11.12.11.31.15s.34-.29.4-.4.17-.19.28-.13.07.25.06.5a.69.69,0,0,1-.14.44.31.31,0,0,0,0,.39c.1.17.28.13.43.13s.17.09.21.17,0,.17.15.22c.3.1.35-.39.5-.42s.11.22.23.27.2-.06.28-.09a.15.15,0,0,1,.18.15c0,.12-.17.2-.25.25s-.25.15-.25.28.07.19.21.2a1.06,1.06,0,0,1,.33.08c.15.06.12,0,.28,0s.22.14.26.27.13.31.24.53.14.3.32.32.28-.09.41-.31a.69.69,0,0,0,.11-.4c0-.19.14-.16.26-.15s.07,0,.23-.12.22,0,.24.15-.13.2-.29.34a.33.33,0,0,0-.15.32c0,.1,0,.2,0,.4a.6.6,0,0,0,.08.4.53.53,0,0,0,.87-.07,1.74,1.74,0,0,0,.15-.72.58.58,0,0,1,.19-.35c.14-.13.07-.14.14-.33a1.68,1.68,0,0,1,.5-.55c.11-.07.2-.06.22,0s-.07.21-.1.27-.22.27-.31.44a1.1,1.1,0,0,0-.05.64c0,.14,0,.17.22.19s.13-.17.24-.32.14-.13.26-.25.14-.3.28-.4a.19.19,0,0,1,.31.08.25.25,0,0,1,0,.24c0,.06-.32.4-.4.53s-.11.33,0,.38.17.1.33-.06.5-.52.61-.65.07,0,.13.24.26.09.32.16-.17.19-.25.31.08.25.2.28.18-.05.27-.13.36-.36.51-.5,0-.42.05-.57.17-.14.28,0a.77.77,0,0,1,.19.5c0,.23-.08.33.11.38s.19,0,.27-.21.29-.09.3-.19-.07-.24.06-.3.07,0,.25.09.16-.05.21,0,.11.15.23.16.23.19.37.28.09.11.26.12.23.09.45.32.79.77,1.08,1a1.16,1.16,0,0,0,.76.24c.07,0,.12,0,.15,0s0-.1,0-.15a1.7,1.7,0,0,0-.45-.48c-.16-.1-.15-.16-.23-.39a1.31,1.31,0,0,0-.38-.49c-.13-.12-.19,0-.25.08a.2.2,0,0,1-.22,0c-.07,0,0-.18,0-.3s0-.18-.09-.21a.13.13,0,0,0-.18.05s0,.15-.17.14.14-.24.1-.46-.4-.17-.61-.48a2.4,2.4,0,0,0-.24-.42c-.3-.34-.76-.66-.83-.77a.24.24,0,0,1,0-.29s.27-.25.37-.32a.22.22,0,0,1,.27,0l.15.17a.45.45,0,0,0,.4.09c.11,0,.44-.19.51-.12s-.18.06-.33.18.07.12.16.24.54.6.78.82.32,0,.54.06.21.29.29.53a3.27,3.27,0,0,0,.55.78c.19.22.3.37.53.43s.31.5.37.6a1.12,1.12,0,0,0,.31.34c.08.07.1.06.17,0s-.15-.27-.18-.56c0-.09.12-.18.1-.22-.09-.21-.16-.24-.23-.43s.09-.14.15-.07.13.23.24.37.23.05.36.07,0,.2.09.4.15.22.39.25.23.15.23.22,0,.11.13.22.19,0,.45.06.24.3.25.49a.41.41,0,0,0,.2.37.82.82,0,0,0,.53.2c.44,0,.43-.3.53-.38s.19,0,.35.22a2.69,2.69,0,0,0,.52.46c.24.19.28.38.48.6s.39.45.75.82a4.09,4.09,0,0,1,.68,1.12c.25.45.18.37.53.64a.89.89,0,0,0,.7.26.72.72,0,0,1,.53.17c.18.19.17.3.23.63s.05.31.24.49.09.28.36.55.11.19.42.36.31.21.5.48.22.32.37.51a4.6,4.6,0,0,1,.3.46,1.79,1.79,0,0,0,.44.57.87.87,0,0,1,.28.6c0,.19.05.23.24.39a1.19,1.19,0,0,1,.32.54.88.88,0,0,0,.25.41c.13.1,0,0,.29.45s.13.19.44.52a6,6,0,0,1,.55.78c.3.39.43.34.59.33a1.46,1.46,0,0,1,.56.2c.22.1.24,0,.42-.09s.2,0,.34,0,.28-.09.35-.06,0,.34.27.35-.07-.29-.05-.41.25-.1.43,0,.12.09.49-.21c.1-.08.25-.09.33-.14s.29-.24.42-.32h.32l.19.17a.12.12,0,0,0,.1-.12.58.58,0,0,1,0-.19c0-.1.06-.2,0-.26s-.14-.14-.19-.07-.19.16-.15.25a.09.09,0,0,1,0,.13h-.33Z"/></g></g></g></svg>