<svg xmlns="http://www.w3.org/2000/svg" viewBox="0 0 98.17 44.17"><defs><style>.cls-1{fill:#4bb752;fill-rule:evenodd;}</style></defs><g id="Layer_2" data-name="Layer 2"><g id="regije"><path id="samobor" class="cls-1" d="M91.94,14l-1.2-1.67L88.93,9.57l-.9-2s-.58-1-.39-1.33a1.07,1.07,0,0,1-1-.42,1,1,0,0,1-.75-.34c-.25,0-.5,0-.59-.25A22.29,22.29,0,0,0,82,4.85l-.09-.17c-.16,0,0-.08-.16-.08,0-.17-.25-.5-.34-.67-.25,0-.66.09-.91.09,0-.09-.09-.17-.17-.25,0-.58.57-2.24.24-2.58V.86c-.06,0-.14-.1-.2-.19-.41,0-.72.36-1.14.36a3.27,3.27,0,0,1-2,1,2.35,2.35,0,0,1-.58.42v.25a2.42,2.42,0,0,0-.25.91,3.66,3.66,0,0,1-.74.25A12.69,12.69,0,0,0,75,1.77c-.75-1-2.5-.91-3.58-.74,0,.49-3.62.22-4,.39,0,.24-.11.5-.22.55-.35.18-.69-.24-.69-.24a3.69,3.69,0,0,1-.7-.56c-.35-.36-.33-.23-.64-.07s.1.82,0,1-.32.46-.32.46l-1.72.23a7.72,7.72,0,0,0-1,.1,3,3,0,0,1-1.24,0A1.16,1.16,0,0,0,60,3a1.68,1.68,0,0,0-.34.3,1.9,1.9,0,0,1-.52.42c-.25.09-1.12.63-1.24,1s-.19.77-.32.85-.24.46-.33.62A4.48,4.48,0,0,1,56.8,7a4.19,4.19,0,0,0-.59.75.41.41,0,0,1-.24.28c-.12,0-.23,0-.31-.18a3,3,0,0,0-.54-.81c-.16-.1-.7-.56-.69-.93s-.08-.59-.24-.68a.93.93,0,0,1-.38-.39.58.58,0,0,0-.51-.23c-.28,0-.89.05-1-.11s-.69-.47-.82-.4-.36.29-.58.13-.21-.38-.09-.44c.32-.18-.2-.44-.36-.48S50.06,3,50.06,3a3.2,3.2,0,0,1-.84-.35,1.22,1.22,0,0,0-.63-.25c-.2,0-.44-.14-.46-.28S47.37,2,47.37,2L47,1.59l-.67-.15s-.37,0-.52,0a1.49,1.49,0,0,1-.66-.34c-.2-.18-.37-.37-.51-.52A3.3,3.3,0,0,0,43.73,0a21.81,21.81,0,0,0-1.42,1.73c-.28.46-.62,1.9-.9,2.36s-.46.31-.6.17l-.58-.52a1,1,0,0,1-.39-.67,5.88,5.88,0,0,0-.73-1.37l-1.47-.07a2.42,2.42,0,0,0,0,.5c0,.33.2.73.24,1.52a1.59,1.59,0,0,1-.51,1.29c-.22.26-.13,1-.13,1a1.14,1.14,0,0,1-.39.24c-.32.14-.44.33-.66.69a1,1,0,0,1-.85.52,1.14,1.14,0,0,0-.75.5c-.25.26-.41,0-.79-.3s-.56,0-.82.23-.32.19-.61.06A6.48,6.48,0,0,0,31,7.7l.33-1.58A3.88,3.88,0,0,1,30.5,6c-.5-.11-.47-.71-.73-.86s-.56.29-.56.29-1.5.58-2.11.79S26.8,7.41,27,7.8s-.13.7-.71.93a1.62,1.62,0,0,1-1.2-.09,1.69,1.69,0,0,0,.27,1,3.4,3.4,0,0,1,.24,2.05c-.08.67,1,2,1,2s-1.65.85-2,1a1,1,0,0,1-.94-.2,4.53,4.53,0,0,0-1.41-.24,7.48,7.48,0,0,0-2.24,0,4.22,4.22,0,0,1-2.31-.42,2.27,2.27,0,0,0-1.18,0c-.29,0-.58.13-.87.13s-.24.16-.46.55a.49.49,0,0,1-.82.11c-.26-.22-.68,0-1.09,0a.59.59,0,0,0-.46.5l-1,.54a3.29,3.29,0,0,1-.58.65,1,1,0,0,0-.54.74c-.06.36-.15.48-.57.76s-.81,0-1.2-.23-.56.76-.56.76l-.24-.07a2,2,0,0,0-.24.33c-.08.15-.41.07-1-.13s-.75.66-.75.66l-.9.21a1.84,1.84,0,0,0-.87.49,2,2,0,0,1-.92.38L2.58,21a6.68,6.68,0,0,0-1,.94c-.3.41-.05.37-.05.37l.55.53c.55.52-.5,1.63-.5,1.63a4.91,4.91,0,0,1-.81.72c-.4.26-.34.86-.08,1.29s-.24.47-.6.33S.73,28,1.18,28.49s3.05,1.1,3.47,1.31,1,.27.59.53,0,.4.46.41a3.8,3.8,0,0,1,1.69.85,3.39,3.39,0,0,1,.88,1.24,6.81,6.81,0,0,1,.54,1.83c0,.56.52.77,1.32.88s1.18.94,1.57,1.28a1.38,1.38,0,0,0,1.46.08c.4-.23.47-.36.73.08s-.72,2.41-.72,2.41,0,.07.29.5,1.09.51,1.38,1,.53.47,1.12.48.39-1.69.39-1.69a9.49,9.49,0,0,1,1.39-.05c.6,0,1.26.35,1.36.71a1.21,1.21,0,0,0,1,.75,1.34,1.34,0,0,1,.85.6c0-.08.21-1,.21-1.1a.66.66,0,0,0,.33-.33c.08,0,.16-.08.25-.08s.08-.17.16-.25h.58c.51.5.59.33,1.26.33,0-.08.16-.25.16-.33.58,0,1.42.08,1.83-.33H26c0-.08.33-.33.41-.33,0-.17.17-.34.17-.5.5-.25,1.16-.08,1.66-.33v-.34c.33-.33.92-.08,1.25-.08,0,.08.08.17.08.25l.17.08c0,.67.67.67,1.17.67V36.23c-.09,0-.34-.33-.42-.33,0-.25-.25-.34-.34-.42,0-.5-.25-1.08-.25-1.58.08,0,.25-.16.33-.16s0-.17.08-.17l.07-3.32c-.17-.08-.25-.42-.25-.58A3.21,3.21,0,0,1,29,26.76h.09c.08-.41.07-1.49.74-1.49,0-.09.08-.25.08-.34.17,0,.25-.25.25-.33a3.67,3.67,0,0,0,1-.33h.33l.08-1.16c.42.41,1.42.33,1.84.75a1.54,1.54,0,0,1,1.08.33c.5,0,.92.33,1.5.33.5.5,1.33.66,1.84,1.16v.17c.5.17.25,1.33.25,1.83.09,0,.59,0,.59-.09h.25a.63.63,0,0,0,.16-.33,2.22,2.22,0,0,0,.58-1.08,4.2,4.2,0,0,1,1.5-.25c0,.25.17.25.25.42.08,0,.17.08.25.16.25,0,.42.09.67.09a.46.46,0,0,0,.16-.34c.09,0,.25-.24.25-.33L44,25.85c0-.42.08-1-.25-1.25,0-.16-.09-.49-.09-.74.5-.5,2.42.16,2.92.33,0,.5,1.91.33,2.33.33,0,.09.25.17.33.17,0,.25.92.58.92,1h.59c0,.24.42.83.42,1.07a3.52,3.52,0,0,0,1.33.42c0-.17.08-.25.08-.41l.09-.09a1.81,1.81,0,0,0,1.49-.5H55c.09.42.18,2.16.51,2.33v.33l.17.08v.25c.17,0,.25.25.34.34h.41c0-.09.09-.17.09-.25A1,1,0,0,0,57,29a3.56,3.56,0,0,0,1-.08h.34v-.09h.25c0,.42.91.33,1.16.33v-.49c-.08,0-.17-.09-.25-.09V28h.66c0-.08.25-.25.25-.41h.17c.08,0,.41-.17.41-.25h1c.59-.17.83-.5,1.5-.5.25-.25.75-.58.83-.83h1.83c.84.83,3.08.42,3.75,1.5h.34a19.29,19.29,0,0,0,2,1.66c0,.5.59.91.59,1.33h.67c.17.49.26,1.91.51,2.15,0,.17-.17.34-.17.42h-.16a1.8,1.8,0,0,1-.09.33l-.16.09c-.66.83-.32,2.74-.32,3.65.25,0,.92.58.92.83a6.59,6.59,0,0,0,1.83,0,.32.32,0,0,0,.17.08,4.58,4.58,0,0,0,.25,1c.17,0,.42.08.59.08a.35.35,0,0,0,.25.25l.09,1.33c.16.17.25.66.42.83,0,.33.09,1.25-.25,1.41v.83c.08,0,.08.09.08.17,1.17.58,1.5-.17,2.08-.75,0-.33.37-1.32.37-1.65-.81-.34-.75-2.11-.71-2.51a2.5,2.5,0,0,0-.24-1.81c-.43-.56,0-.74,0-.74l.76-1.68s.89-3.09,1-3.68a1.09,1.09,0,0,1,1.45-.64c.55.22,1-.69,1-.69a3.84,3.84,0,0,0,1.34-.72c.48-.48.68,0,.68.2a1.57,1.57,0,0,1-.06.61.65.65,0,0,0,0,.66c.17.23.41.65.41.65s.7.91,1.07,1a1.39,1.39,0,0,1,.56.28s0,.26.38.2.44-.23.68-.23.57-.12.62-.38a.81.81,0,0,1,.54-.59.48.48,0,0,1,.59.25c.09.24.06.37.22.45s.55.19.56.41a.54.54,0,0,0,.33.46c.15,0,1.8,1.17,1.8,1.17s.68-1.32,1.13-1.54.63-.76,1-1.05.79-.69.09-1,.94-1.27,1.49-1.38,1.51-2.71,1.51-2.71.15-.66-1-1.85-7.84-4.08-7.84-4.08a5.32,5.32,0,0,1-1.28-.71c-.81-.57.12-1.37.12-1.37l1.2-1.24,2.85-1.07Z"/></g></g></svg>