<svg xmlns="http://www.w3.org/2000/svg" viewBox="0 0 168.76 85.28"><defs><style>.cls-1{fill:#82c9f0;fill-rule:evenodd;}</style></defs><g id="Layer_2" data-name="Layer 2"><g id="regije"><g id="sibenik"><path class="cls-1" d="M11.94,0c.07,0,.2,0,.38.1a1.48,1.48,0,0,1,.5.84c.15.48.11.64.26.73s.22,0,.22-.13,0-.32.12-.34.15,0,.21.18a.79.79,0,0,0,.24.48,1.48,1.48,0,0,0,.44.36,1.5,1.5,0,0,1,.47.2,3.34,3.34,0,0,0,.48.32c.27.13.55.23.59.5a.66.66,0,0,0,.28.59c.28.23.88.65,1,.75a.72.72,0,0,1,.25.34,1.74,1.74,0,0,0,.17.41c.07.1.2.38,0,.56s-.16.11-.3.14a.5.5,0,0,0-.37.16c-.19.16-.18.23-.28.2s-.22-.07-.2-.3a1.19,1.19,0,0,0-.15-.7c-.12-.18-.3-.4-.48-.63a3.06,3.06,0,0,0-.56-.64,9.7,9.7,0,0,0-.85-.65c-.22-.1-.33-.18-.38-.31s0-.24-.27-.24-.32.06-.55-.1-.24-.27-.57-.43A4.47,4.47,0,0,1,12,2.05a.72.72,0,0,1-.39-.53.71.71,0,0,1,0-.57,1.18,1.18,0,0,0,.16-.51C11.75.21,11.81.09,11.94,0Z"/><path class="cls-1" d="M1.51,27a.23.23,0,0,1,0-.31c.13-.17.31-.1.44,0a1.2,1.2,0,0,0,.55.35,2.24,2.24,0,0,1,.84.32,2.87,2.87,0,0,0,.91.5,1,1,0,0,1,.64.25,1,1,0,0,1,.46.74c0,.32,0,.5.27.66s.35.25.55.18.22-.32.13-.54-.17-.38-.23-.54,0-.42.18-.27a3.91,3.91,0,0,0,.47.37c.15.07.4.14.58.22a.61.61,0,0,1,.35.54,1.23,1.23,0,0,0,.1.66c.12.21.14.24.1.35a.18.18,0,0,1-.26.12,5.71,5.71,0,0,1-.85-.45c-.22-.12-.39-.14-.5-.05a.6.6,0,0,0-.2.48c0,.2,0,.34-.06.43s-.27.07-.35.07a.59.59,0,0,1-.46-.11A.67.67,0,0,1,5,30.18c.11-.21.19-.26.21-.41s-.09-.16-.18-.12a.66.66,0,0,1-.3.07c-.11,0-.25,0-.28.12s0,.29-.23.38a.47.47,0,0,1-.53-.1.36.36,0,0,1,0-.43.52.52,0,0,0,.06-.58.47.47,0,0,0-.35-.28,1.12,1.12,0,0,1-.41-.18.78.78,0,0,1-.28-.48c-.05-.23-.05-.4-.24-.55s-.2-.11-.31-.24-.13-.23-.31-.3A.41.41,0,0,1,1.51,27Z"/><path class="cls-1" d="M40,53.29a.25.25,0,0,0,0,.28c.11.13.46.4.57.5a.91.91,0,0,1,.27.43,2.45,2.45,0,0,0,.18.48l.18.32c.08.17.09.2.19.24s.27.08.37.13a.86.86,0,0,1,.42.35,1.83,1.83,0,0,0,.34.46,2,2,0,0,0,.54.48c.14,0,.29,0,.36-.26s0-.28.07-.45a.7.7,0,0,0-.05-.78c-.26-.33-.28-.5-.69-.74l-.61-.35a2.41,2.41,0,0,0-.6-.3,1,1,0,0,1-.66-.23c-.21-.24-.35-.65-.64-.69A.24.24,0,0,0,40,53.29Z"/><path class="cls-1" d="M46.74,52.8a.71.71,0,0,1,.25.55c0,.32,0,.47,0,.64a.73.73,0,0,0,.11.49c.13.15.2.23.18.37a.22.22,0,0,1-.35.11,1.06,1.06,0,0,1-.44-.36,3.35,3.35,0,0,1-.28-.49c0-.08-.13-.14-.17-.12s-.1,0-.07.2a.93.93,0,0,1-.07.62c-.12.21-.25.21-.32.26s-.07.1,0,.19.18.13.18.24-.14.14-.28.16a.42.42,0,0,1-.32-.11c-.08-.07-.22-.18-.24-.24s0-.11.06-.13.21-.07.21-.22,0-.23,0-.29a.22.22,0,0,0,0-.33c-.12-.13-.42-.53-.47-.6a.62.62,0,0,1-.1-.2c0-.06,0-.12-.06-.21s-.15-.3,0-.48.23-.29.4-.29.29,0,.37-.1,0-.31.2-.36a.76.76,0,0,1,.6.2C46.23,52.4,46.74,52.8,46.74,52.8Z"/><path class="cls-1" d="M44.72,57.83a.21.21,0,0,1,.23,0c.1.1.62.49.8.64A.63.63,0,0,1,46,59a.53.53,0,0,0,.21.5c.19.15.58.37.89.59s.5.41.77.42a1.44,1.44,0,0,1,.8.17l.52.31a2,2,0,0,1,.51.43c.12.15.23.51.44.54s.38,0,.53.12a.76.76,0,0,0,.59.24c.25,0,.36-.2.58,0a2,2,0,0,0,.59.44,3.22,3.22,0,0,1,.82.35,2.55,2.55,0,0,0,.3.22c.11.09.24.14.24.34s0,.43-.12.42a.47.47,0,0,1-.28-.07,1.52,1.52,0,0,0-.52-.07,1.54,1.54,0,0,1-.79-.2,2.29,2.29,0,0,0-.65-.32,1.88,1.88,0,0,1-.54-.26c-.08-.06-.2-.15-.3-.09s-.19.08-.26,0,0-.11-.14-.28A1.77,1.77,0,0,0,50,62.4c-.11-.11-.12-.15-.29-.14a3.79,3.79,0,0,1-.4,0,.33.33,0,0,1-.28-.16c-.08-.15-.17-.49-.4-.58s-.43-.1-.52-.14a.28.28,0,0,0-.29,0c-.11.09-.13.31-.36.27a.27.27,0,0,1-.14-.45c.11-.15.21-.26.08-.43a1.2,1.2,0,0,0-.56-.31,3.06,3.06,0,0,1-.77-.28,1.65,1.65,0,0,1-.78-.86,2.7,2.7,0,0,0-.17-.74c-.1-.2-.18-.22-.3-.22a.26.26,0,0,1-.26-.2.21.21,0,0,1,.05-.19A1.41,1.41,0,0,1,44.72,57.83Z"/><path class="cls-1" d="M101.36,65s0-.25.19-.26.29.08.48.24a2.12,2.12,0,0,0,.41.29.35.35,0,0,1,.18.42c-.06.24-.06.24,0,.34a.37.37,0,0,1,0,.35c-.09.1-.15.16-.11.27a.34.34,0,0,0,.16.2c.07,0,.12.13,0,.28s-.06.23,0,.4a1.63,1.63,0,0,1,0,.52c0,.09,0,.27-.2.25s-.19-.07-.23-.26a1.15,1.15,0,0,0-.17-.61c-.2-.29-.56-.62-.57-.93a2.4,2.4,0,0,0,0-.54,2.85,2.85,0,0,1-.08-.57A3.89,3.89,0,0,1,101.36,65Z"/><path class="cls-1" d="M16.49,41.6s0-.17.08-.19a.71.71,0,0,0,.35-.13l.46-.42a.74.74,0,0,1,.41-.17.63.63,0,0,1,.48.16c.16.16.22.3.42.33s.34,0,.51.23a2.17,2.17,0,0,0,.53.58,1.58,1.58,0,0,0,.56.2.73.73,0,0,1,.45.21c.24.19.21.3.45.33s.46,0,.61.3.21.4.3.44.17,0,.23,0a.42.42,0,0,1,.51.11.82.82,0,0,0,.63.26,1.49,1.49,0,0,1,.7,0,1.69,1.69,0,0,0,.7.15c.2,0,.35,0,.51.17a.54.54,0,0,1,.19.46.79.79,0,0,1-.29.37c-.11.11-.55.46-.65.55a.61.61,0,0,1-.45.21,1.76,1.76,0,0,1-.94-.13c-.39-.19-.35-.26-.62-.36a1.64,1.64,0,0,1-.47-.21,1.27,1.27,0,0,1-.45-.47.92.92,0,0,0-.59-.55.93.93,0,0,1-.52-.25,1.54,1.54,0,0,0-.47-.34,1.69,1.69,0,0,1-.49-.28.6.6,0,0,1-.28-.44,2.44,2.44,0,0,0-.15-.49.14.14,0,0,0-.24,0,.36.36,0,0,0,0,.27c0,.09,0,.22-.2.25a1.1,1.1,0,0,1-.74-.14c-.25-.14-.3-.3-.41-.39a.36.36,0,0,0-.3-.15.85.85,0,0,1-.39-.12C16.82,42,16.54,41.79,16.49,41.6Z"/><path class="cls-1" d="M6.05,13.61a.19.19,0,0,0-.07.32,2.65,2.65,0,0,1,.53.44c.21.26.48.54.61.69a7.1,7.1,0,0,0,.74.62c.22.17.37.19.48.15s.07-.2,0-.26a.56.56,0,0,1-.16-.38c0-.17.06-.28.22-.23s.15.2.41.29a1.71,1.71,0,0,1,.53.22,1.67,1.67,0,0,0,.61.31c.23,0,.41-.23.72,0a3,3,0,0,1,.65.61c.2.25.22.43.54.58s.53.13.7.31a.32.32,0,0,1,0,.47c-.11.09-.24.21-.15.37a.87.87,0,0,0,.47.39.65.65,0,0,1,.32.17c.13.1.22.21.36.22a.84.84,0,0,1,.46.29c.17.2.25.29.38.29s.08,0,.18-.06.27,0,.22.19a.57.57,0,0,0,0,.4c0,.12.2.15.27.17s.19,0,.23.37,0,.43.17.54.15.1.27.08.29-.05.31.18,0,.4.2.53a1.56,1.56,0,0,1,.34.25c.18.16.19.22.3.19s.13-.08.12-.19,0-.19.12-.21a.19.19,0,0,1,.21.19.87.87,0,0,0,.14.33.4.4,0,0,0,.38.15,2.24,2.24,0,0,1,.84,0c.38.08.48.17.49.4s0,.33.1.37.42,0,.4.18a.37.37,0,0,0,.21.37,1,1,0,0,0,.33.11,1.25,1.25,0,0,1,.35.16.49.49,0,0,1,.22.51,1.22,1.22,0,0,0-.05.57.19.19,0,0,0,.33,0c.07-.13.18-.37.37-.35a.57.57,0,0,1,.56.33,3.71,3.71,0,0,0,.36.88c.19.27.21.35.38.4s.2-.09.25-.15.21-.08.18.18,0,.58.16.67.28.07.51-.1.27-.17.35-.16.15.07.17.23a.35.35,0,0,0,.12.28.57.57,0,0,1,.3.51,1,1,0,0,0,.23.65,2.15,2.15,0,0,0,.64.64.79.79,0,0,1,.44.61c0,.25,0,.47.14.6a.35.35,0,0,0,.46-.08.49.49,0,0,1,.46-.23c.23,0,.31,0,.34-.1s0-.18-.19-.27a3.37,3.37,0,0,1-.62-.35c-.22-.16-.69-.6-.79-.68a.68.68,0,0,1-.27-.46.84.84,0,0,0-.24-.51,4.73,4.73,0,0,0-.4-.43.36.36,0,0,1-.12-.34.7.7,0,0,0-.13-.59,5.34,5.34,0,0,0-.39-.37.27.27,0,0,0-.27-.05.28.28,0,0,1-.32,0,.35.35,0,0,1-.12-.41,1.07,1.07,0,0,0,.12-.6c0-.39-.06-.8-.09-1s0-.2,0-.44a.55.55,0,0,0-.2-.42.26.26,0,0,0-.32,0c-.05.07-.12.15-.21.13s-.12-.14-.12-.29a.47.47,0,0,0-.23-.42,2.94,2.94,0,0,0-.66-.34,3.46,3.46,0,0,1-.63-.35c-.09-.09,0-.22.11-.27s.15-.13,0-.25l-.59-.56c-.1-.1-.2-.35-.09-.43s.28-.07.32-.2,0-.18-.08-.27-.37-.25-.58-.4a.67.67,0,0,1-.32-.44.8.8,0,0,0-.16-.35c-.1-.14-.24-.28-.35-.19s-.2.14-.25.18a.24.24,0,0,1-.32,0,3.13,3.13,0,0,1-.23-.31c-.07-.09-.22-.27-.28-.36s-.11-.22,0-.23.32,0,.39-.13a.33.33,0,0,0-.1-.37.36.36,0,0,1-.12-.29c0-.08,0-.2.27-.18s.55.13.77-.1.16-.2.19-.25a.14.14,0,0,0-.14-.2h-.4a.39.39,0,0,1-.42-.2c-.1-.19,0-.19-.2-.35s-.16-.2-.36-.25a.71.71,0,0,1-.34-.17.65.65,0,0,1-.14-.72c.16-.32.29-.6.16-.8a1.07,1.07,0,0,0-.34-.36.32.32,0,0,0-.43,0,2.26,2.26,0,0,0-.25.53.53.53,0,0,0,.06.5,4,4,0,0,1,.46.52,5.14,5.14,0,0,0,.26.47.55.55,0,0,1,.11.36.21.21,0,0,1-.24.21c-.15,0-.24,0-.31.09s0,.19.05.3.19.24.18.39-.09.16-.31.16a.63.63,0,0,1-.43-.12,2.5,2.5,0,0,0-.43-.27,2.31,2.31,0,0,1-.54-.23l-.41-.32c-.07-.05-.17-.11-.23,0s-.23.27-.27.3a.19.19,0,0,1-.24,0c-.09-.07-.08-.25,0-.4s.2-.26.21-.37,0-.22-.23-.14-.19.17-.44.26-.37.07-.37.23,0,.28,0,.28a.17.17,0,0,1-.18.16.29.29,0,0,1-.22-.15,1.42,1.42,0,0,1-.12-.33.77.77,0,0,0-.11-.28c-.08-.1-.28-.37-.37-.47a.3.3,0,0,0-.28-.13c-.17,0-.35.06-.54,0a.39.39,0,0,1-.25-.35,1.39,1.39,0,0,0-.06-.43c-.08-.19-.14-.36,0-.46a.32.32,0,0,1,.45,0,.66.66,0,0,0,.37.19.37.37,0,0,0,.21-.09.49.49,0,0,1,.4-.08c.18,0,.3.23.57.21s.31-.09.32-.17,0-.15-.11-.18a1,1,0,0,1-.36-.16,1.08,1.08,0,0,0-.35-.2,1.37,1.37,0,0,1-.47-.23c-.12-.12-.49-.39-.68-.53s-.4-.35-.62-.29-.13.12-.42.18-.35,0-.47.14a.31.31,0,0,0,0,.35c.05.1.11.22.07.29s-.18.12-.36,0-.2-.19-.32-.29a1.53,1.53,0,0,0-.29-.24c-.11-.07-.31-.21-.23-.44s.14-.29.09-.44-.12-.19-.25-.14-.18.14-.4,0-.34-.33-.54-.14A2.54,2.54,0,0,0,8,12c-.16.22-.42.34-.44.65a5.41,5.41,0,0,1,0,.74,1.28,1.28,0,0,1-.12.48c0,.08-.1.13-.23,0a1,1,0,0,0-.47-.27A2.66,2.66,0,0,0,6.05,13.61Z"/><path class="cls-1" d="M25.94,45.06a.14.14,0,0,1,.2,0c.13.08.47.28.5.49s0,.27-.17.38-.31.15-.32.34,0,.44-.17.59a.52.52,0,0,0-.26.57.31.31,0,0,0,.37.22.39.39,0,0,0,.26-.35.57.57,0,0,1,.15-.55c.19-.19.51-.27.75-.46s.55-.56,1-.52a1.69,1.69,0,0,1,.68.16.34.34,0,0,1,.18.31.33.33,0,0,1-.19.27,1,1,0,0,0-.38.23.7.7,0,0,0-.16.55c0,.25.18.58-.2.92l-.61.52c-.12.1-.27.15-.26.36s.06.42-.12.45-.38,0-.43-.3,0-.44-.17-.46-.36.06-.52-.08-.23-.42-.45-.36-.27-.06-.38-.13-.28-.21-.38-.3a.39.39,0,0,1,0-.57l.56-.54a.55.55,0,0,0,.25-.55.5.5,0,0,0-.15-.29.29.29,0,0,1,0-.39C25.62,45.39,25.94,45.06,25.94,45.06Z"/><path class="cls-1" d="M75.05,58.73s-.08-.14,0-.21.13,0,.18,0a.17.17,0,0,0,.21,0,.22.22,0,0,1,.34,0,1.32,1.32,0,0,1,.39.39c.09.17.13.21.27.26s.31,0,.48.23a2.25,2.25,0,0,1,.36.8c.07.35,0,.8.2.89s.24.07.45.07a1.39,1.39,0,0,1,1.27.55c.53.63.85,1.06,1,1.23a.86.86,0,0,0,1.15.18c.19-.21.38-.49.55-.51a.44.44,0,0,1,.39.11c.11.1,0,.24.19.37s.2.21.15.34a2,2,0,0,1-.12.23s-.16.15.05.24a7,7,0,0,1,1.28.44,2.45,2.45,0,0,1,1.09.9c.07.22.2.52.24.65a1.13,1.13,0,0,1,0,.52.28.28,0,0,1-.4.2,1.94,1.94,0,0,0-.61-.2.91.91,0,0,1-.64,0c-.32-.13-.37-.22-.51-.12s-.18.19-.32.2a1.08,1.08,0,0,1-.52-.13.43.43,0,0,1-.11-.55c.05-.08.13-.21.08-.28s-.14,0-.25,0a.76.76,0,0,1-.41-.17,3.3,3.3,0,0,1-.64-.49c-.24-.26-.45-.42-.54-.51a.3.3,0,0,1-.1-.29c0-.16,0-.3-.07-.35s-.16,0-.19.08-.12.14-.27,0a2.72,2.72,0,0,0-.55-.38,1,1,0,0,1-.37-.36.7.7,0,0,0-.42-.32c-.19,0-.62-.2-.69-.55a2,2,0,0,0-.17-.62.34.34,0,0,0-.3-.11.64.64,0,0,1-.45-.15c-.17-.14-.38-.15-.46-.37a1.4,1.4,0,0,0-.32-.51c-.23-.3-.34-.36-.39-.44a.51.51,0,0,1-.1-.39.51.51,0,0,0-.14-.44A4.15,4.15,0,0,1,75.05,58.73Z"/><path class="cls-1" d="M89,63.11c.08.14.32.45.35.53a.15.15,0,0,0,.15.11c.09,0,.13-.14.18-.24a.62.62,0,0,1,.5-.29,3.93,3.93,0,0,0,.55.09,1.45,1.45,0,0,1,.55,0,.64.64,0,0,1,.39.66c0,.34-.16.45-.38.44a1.1,1.1,0,0,0-.56.07c-.15.07-.17.24-.1.41a2.34,2.34,0,0,1,.1.6c0,.26,0,.45-.08.55s-.25.27-.4.27a.41.41,0,0,1-.29-.12c-.08-.06-.2-.25-.35-.2a.18.18,0,0,0-.08.31,1.42,1.42,0,0,1,.33.65.93.93,0,0,0,.23.55,2.54,2.54,0,0,1,.44.82c0,.2,0,.33-.18.28s-.46-.56-.75-.88a4.35,4.35,0,0,0-.59-.59,1.62,1.62,0,0,0-.42-.22c-.19-.07-.26-.11-.3-.28s-.08-.37-.34-.36a1,1,0,0,1-.59-.19,2.51,2.51,0,0,1-.32-.25c-.1-.09-.2-.09-.25,0a.54.54,0,0,1-.32.22.67.67,0,0,1-.44-.14.8.8,0,0,1-.4-.59,4.06,4.06,0,0,1,0-.88.59.59,0,0,1,.88-.37,6.33,6.33,0,0,1,1.18.64c.22.17.45.4.65.38s.18-.28.11-.43a.93.93,0,0,0-.56-.6,1.45,1.45,0,0,1-.67-.31A12.87,12.87,0,0,1,86,62.85a9.64,9.64,0,0,0-.84-.58A9.88,9.88,0,0,1,84,61.38c-.43-.42-.61-.65-.83-.85s-.35-.36-.28-.5.48-.19.69-.14.32.14.47.08.13-.21,0-.36a2.09,2.09,0,0,1-.67-.67c-.21-.4-.39-.46-.39-.8a2,2,0,0,1,.08-.53c0-.23,0-.37-.19-.3a1,1,0,0,0-.34.18.32.32,0,0,1-.43,0c-.16-.17-.31-.37-.44-.51a1.3,1.3,0,0,1-.27-.26.45.45,0,0,1-.14-.27c0-.14.11-.28.23-.25s.12.11.31.14.21-.13.4,0,.15.14.26.24a.45.45,0,0,0,.39.17,1.43,1.43,0,0,0,.51-.08c.12-.06.27,0,.42.16a4,4,0,0,0,.41.44s.23.14.32.1.1-.14.08-.27-.06-.3,0-.39a.28.28,0,0,1,.42,0,.68.68,0,0,1,.32.5c0,.22,0,.43-.21.47s-.29,0-.37,0-.12.16.06.33a.93.93,0,0,1,.24.29c.06.11.07.15.18.19s.08.09.22.26a.76.76,0,0,1,.29.51c.09.36,0,.31.08.49s.09.23.16.23.09,0,.1-.18,0-.46.13-.48.18,0,.38.18.48.48.75.7.71.45.76.78-.09.32-.17.33a3,3,0,0,1-.34.06c-.1,0-.36,0-.27.09s.17.07.23.08,0,0,.14.09.17.13.27.11.2,0,.36.18.12.27.33.39.19.15.19.28A2.86,2.86,0,0,0,89,63.11Z"/><path class="cls-1" d="M93.46,60.46s.08-.33.32-.39.4-.08.45-.21,0-.14,0-.28-.1-.27,0-.41.23,0,.33,0,.3.21.31.33a.3.3,0,0,1-.12.26c-.08,0-.2.13-.21.26a.23.23,0,0,0,.14.26.4.4,0,0,1,.26.31c0,.16,0,.23.17.28a.63.63,0,0,1,.47.26.77.77,0,0,1,.2.47c0,.22,0,.34.11.39s.16,0,.25-.1.21-.37.46-.14a3.69,3.69,0,0,1,.54.57.22.22,0,0,0,.35.08,1.13,1.13,0,0,0,.2-.23c0-.06.11-.1.17,0a.17.17,0,0,1,0,.22.65.65,0,0,1-.17.22.19.19,0,0,0,0,.24c.13.09.29.12.41.34a1,1,0,0,0,.39.43c.12.06.18,0,.2-.1s0-.29.09-.37.35-.08.6.18a.8.8,0,0,1,.3.5,1.29,1.29,0,0,0,.33.57c.17.17.38.28.37.45s-.06.17-.12.24a.4.4,0,0,0-.14.29,1.28,1.28,0,0,1-.14.47c-.07.2-.16.38-.31.4a.54.54,0,0,1-.34-.14l-.27-.25a1.35,1.35,0,0,1-.45-.66c0-.22-.13-.3-.25-.45a.8.8,0,0,0-.46-.27.6.6,0,0,0-.76.14c-.22.28-.33.6-.64.6s-.41,0-.56-.32-.13-.29-.16-.37-.12-.32-.16-.45a.77.77,0,0,0-.33-.55.45.45,0,0,0-.54.07c-.09.11-.15.24-.31.23a.2.2,0,0,1-.16-.25.53.53,0,0,0-.07-.44,2.63,2.63,0,0,1-.28-.34,1.85,1.85,0,0,0-.29-.35.52.52,0,0,1-.11-.29c0-.09-.08-.11-.13-.21a.53.53,0,0,1-.06-.34.71.71,0,0,0-.05-.34.65.65,0,0,1,0-.41A3.78,3.78,0,0,0,93.46,60.46Z"/><path class="cls-1" d="M96.44,52.93a.22.22,0,0,1,.23-.16c.19,0,.19.09.35.35a3.18,3.18,0,0,1,.26.61c0,.11.09.24.25.26a.59.59,0,0,1,.42.17,1.16,1.16,0,0,0,.43.26,1,1,0,0,1,.62.38,1.1,1.1,0,0,1,.22.51c0,.13.08.3.24.33s.47-.08.71.17.36.29.4.48,0,.22-.11.34a.22.22,0,0,0,.09.33l.4.26c.07,0,.1.35-.06.36s-.27,0-.3.08-.29.19-.6-.11a7.43,7.43,0,0,1-.57-.6c-.09-.12-.21-.23-.31-.19s-.07.15-.06.27a.83.83,0,0,0,.21.62,3,3,0,0,1,.61.81c.08.23.14.34.21.51a.86.86,0,0,1,0,.61.35.35,0,0,1-.36.25.44.44,0,0,1-.35-.12.73.73,0,0,1-.19-.29c-.06-.14,0-.29-.24-.48s-.53-.58-.69-.72a1,1,0,0,1-.3-.77c0-.27.05-.52-.11-.59a1.06,1.06,0,0,1-.36-.22A5.17,5.17,0,0,1,97,56.1.32.32,0,0,0,96.8,56a.79.79,0,0,1-.38-.17,3.26,3.26,0,0,1-.73-.81,1.07,1.07,0,0,1-.15-.55c0-.12,0-.39.16-.48s.26-.15.28-.29a.54.54,0,0,1,.13-.39c.11-.1.2-.11.24-.17S96.44,52.93,96.44,52.93Z"/><path class="cls-1" d="M101.47,50.57a.36.36,0,0,1,.38-.17.62.62,0,0,1,.63.35,3.66,3.66,0,0,1,.27,1c0,.27.07.45.26.51a5.21,5.21,0,0,1,.92.37,3.53,3.53,0,0,1,1.23,1.17,9.76,9.76,0,0,0,.49.88,1.25,1.25,0,0,1,.26.77c0,.25,0,.54-.41.55s-.44-.12-.52-.22a2,2,0,0,0-.63-.47.93.93,0,0,0-.41-.06c-.06,0-.17.08,0,.24s.42.33.56.48a.39.39,0,0,1,0,.49c-.08.16-.08.35-.25.35a.46.46,0,0,1-.38-.14c-.14-.13-.57-.64-.67-.76a1,1,0,0,1-.17-.31,1.89,1.89,0,0,0-.41-.6.61.61,0,0,1-.17-.62.28.28,0,0,1,.27-.16c.09,0,.2,0,.16-.14a1.18,1.18,0,0,0-.23-.28,1.39,1.39,0,0,1-.18-.42.73.73,0,0,0-.3-.51c-.23-.13-.24-.26-.37-.36a4.36,4.36,0,0,1-.43-.43.82.82,0,0,1-.2-.61,1.09,1.09,0,0,1,.14-.46C101.33,50.84,101.47,50.57,101.47,50.57Z"/><path class="cls-1" d="M110.86,60.26c.12-.06.11-.12.11-.25s0-.39,0-.45a.46.46,0,0,1,.14-.3.51.51,0,0,1,.68,0c.26.23.3.34.62.46s.62.22.62.52,0,.5.18.65a1.56,1.56,0,0,0,.57.41c.2,0,.35,0,.45.18a1.59,1.59,0,0,0,.33.5c.19.18.39.29.39.53s0,.55.18.67.78.24.75.58-.09.53.06.74a1,1,0,0,0,.43.37c.14.06.15.12.12.22a.21.21,0,0,0,.09.28c.11,0,.32.25.2.45a.82.82,0,0,1-.42.34c-.14.08-.17.21-.08.26s.3-.06.4-.09a.16.16,0,0,1,.19.19c0,.07-.44.6-.14.58s.5-.19.53,0,0,.23-.13.32a2.39,2.39,0,0,1-.22.23c-.08.07-.09.12,0,.17s.29.08.24.26-.09.32-.33.29a.58.58,0,0,1-.32-.11c-.12-.07-.26-.22-.36-.13a.15.15,0,0,0,0,.25.43.43,0,0,1,.27.32c.06.21.06.27.19.39a2.25,2.25,0,0,0,.41.42c.21.15.34.24.35.4a2.76,2.76,0,0,0,0,.44.7.7,0,0,1,0,.32c0,.13,0,.21.11.34a.3.3,0,0,1-.15.38.6.6,0,0,1-.83-.41,1.08,1.08,0,0,0-.24-.49c-.17-.17-.34-.07-.46-.24-.31-.42-.13-.66-.26-1.07a1.48,1.48,0,0,1-.13-.39c0-.1,0-.34-.09-.36s-.14,0-.3-.07a7.45,7.45,0,0,1-.63-.59.47.47,0,0,0-.32-.24,1,1,0,0,1-.49-.26,9.65,9.65,0,0,0-1-.88,10.54,10.54,0,0,1-1.3-1,2.92,2.92,0,0,1-.57-.85.9.9,0,0,0-.37-.5c-.28-.23-.79-.54-1-.71s-.5-.47-.66-.62a2.92,2.92,0,0,1-.57-.67.86.86,0,0,1,0-.69.55.55,0,0,1,.61-.31c.18.06.4.28.61.27a1.28,1.28,0,0,1,.69.31c.15.12.53.28.62.45a1.69,1.69,0,0,0,.24.31l.12-.05-.17-.37-.18-.36.11-.05.11.13H111s0-.46,0-.57,0-.26-.12-.28l-.21,0,0-.11s.08,0,.08-.07S110.73,60.28,110.86,60.26Z"/><path class="cls-1" d="M68.47,66.36a.57.57,0,0,1,.41.14,1.12,1.12,0,0,0,.32.23.8.8,0,0,1,.4.26c.12.17.25.38.36.4a.3.3,0,0,0,.26,0,.26.26,0,0,1,.29,0,.18.18,0,0,1,0,.28c-.06.08-.17.2-.09.26a.69.69,0,0,0,.42.07.46.46,0,0,1,.44.2,2.71,2.71,0,0,0,.72.62c.22.1.34.14.44.09s.06-.13,0-.21-.27-.22-.29-.34,0-.2.08-.26.12,0,.27.06a.49.49,0,0,0,.51,0c.21-.09.35-.21.53-.19a.41.41,0,0,1,.4.26c0,.19,0,.25.06.29s.16,0,.26-.09.32-.3.52-.29a.5.5,0,0,1,.49.29c.16.26.16.45.43.53s.42.07.56.33.16.29.35.29a1.33,1.33,0,0,1,.94.28c.35.32.81.86.91.94s.22.18.31.13.12-.14,0-.26-.31-.39-.36-.45-.2-.43.07-.54a1.12,1.12,0,0,1,.86.11c.23.12.49.3.68.4s.37.14.48.36a2.73,2.73,0,0,0,.28.6.44.44,0,0,1,0,.58,1.52,1.52,0,0,1-.39.21c-.08,0-.23.12-.17.22a.26.26,0,0,0,.27.1.28.28,0,0,1,.24.07c.08.07.2.13.26,0s.06-.37.25-.44a.42.42,0,0,1,.56.21,3.93,3.93,0,0,0,.41.57.3.3,0,0,1,0,.36c-.09.08-.21.15-.21.25s.14.16.28.14a.5.5,0,0,1,.49.13l.65.68c.19.19.38.27.38.41a.86.86,0,0,1-.11.39.32.32,0,0,0,0,.27c0,.09.16,0,.26-.06s.35-.39.59-.35.37.24.81.26,1.14,0,1.49.39.34.66.72.68a2,2,0,0,1,1.56.45,8.47,8.47,0,0,0,.84.82,1.31,1.31,0,0,0,.73.34c.37,0,.52-.07.74.19s.31.53.41.62.19.32,0,.36a.37.37,0,0,0-.25.14c0,.09-.16.27-.46,0s-.55-.54-.88-.6-.63,0-.87-.19-.36-.4-.44-.47a.36.36,0,0,0-.33-.11c-.14,0-.32.13-.23.31a1.24,1.24,0,0,0,.24.34c.08.11.18.38,0,.5a.45.45,0,0,1-.58-.06,1.64,1.64,0,0,1-.31-.35.33.33,0,0,1,0-.42c.16-.15.28-.15.28-.27s-.08-.17-.25-.28-.68-.65-.83-.77-.21-.16-.33-.15-.1.11,0,.23a3.13,3.13,0,0,0,.31.33.51.51,0,0,1-.06.7,2.55,2.55,0,0,1-.35.25.27.27,0,0,1-.4,0c-.17-.13-.21-.34-.48-.32s-.37-.16-.44-.35a1.08,1.08,0,0,1,0-.38c0-.11,0-.27-.13-.26s-.1,0-.2.13-.13.26-.31.19-.13-.17-.22-.27-.11-.23-.29-.08a1.08,1.08,0,0,1-.44.24,1.65,1.65,0,0,1-.38,0c-.09,0-.29,0-.29.09s.21.3.43.36a1.32,1.32,0,0,1,.8.26,6.08,6.08,0,0,1,.75.71c.12.14.18.18.17.37s-.14.25-.33.14-.44-.32-.68-.48-.56-.44-.71-.32-.29.29-.41.23-.11-.19-.14-.28-.06-.25-.25-.26-.22,0-.5-.22-.3-.28-.61-.29a.8.8,0,0,1-.6-.22,4.19,4.19,0,0,1-.39-.5,2.12,2.12,0,0,0-.36-.34,2.54,2.54,0,0,0-.39-.21c-.14-.08-.5-.37-.5,0,0,.09-.06.29-.21.3a.56.56,0,0,1-.51-.26,2.72,2.72,0,0,1-.26-.6c-.05-.17-.16-.41-.35-.33s-.15.22-.3.18-.1-.23-.09-.32,0-.29-.09-.33-.14,0-.21,0a.32.32,0,0,1-.3,0c-.14,0-.4-.15-.33-.42s0-.44-.11-.51A.59.59,0,0,0,76,73.9a.31.31,0,0,1-.34-.16,1.61,1.61,0,0,0-.35-.44c-.15-.11-.37-.28-.4-.47a.69.69,0,0,0-.16-.52.89.89,0,0,1-.3-.58c0-.31,0-.31,0-.41s-.06-.12-.15-.09-.22.23-.22.23-.12.16-.31,0-.54-.55-.64-.65-.09-.11-.08-.26.07-.35-.08-.37-.24.07-.38-.07-.33-.37-.37-.41-.13-.16-.23-.09-.15.17-.06.26a1.83,1.83,0,0,1,.37.51,1.25,1.25,0,0,0,.3.42.63.63,0,0,1,.14.47c0,.19-.19.28-.41.18A1,1,0,0,1,72,71a.42.42,0,0,0-.35-.23c-.22,0-.55.06-.76-.11s-.17-.21-.36-.31a.79.79,0,0,1-.4-.43c0-.16-.08-.29-.25-.24s-.22.25-.48.11a.46.46,0,0,1-.28-.39c0-.12,0-.22.22-.25s.27,0,.31-.12a.16.16,0,0,0-.14-.23c-.14,0-.32.06-.53-.13s-.31-.31-.29-.43,0-.15.25-.15.34,0,.39-.21,0-.28-.2-.41-.21-.23-.33-.34-.09-.11-.32-.19-.22-.21-.23-.29S68.31,66.34,68.47,66.36Z"/><path class="cls-1" d="M.19,16.33S0,16.15.11,16a.28.28,0,0,1,.4-.13,1.12,1.12,0,0,0,.56.26,1.45,1.45,0,0,0,.68-.23l.56-.29a.35.35,0,0,1,.52.05c.22.23.11.17.38.33s.56.4.43.58a1.88,1.88,0,0,1-.29.34c-.08.07-.11.22.07.25a1,1,0,0,0,.72-.09c.23-.15.27-.27.39-.36s.18-.14.34-.08A.17.17,0,0,1,5,16.9c-.06.09-.21.17-.12.22s.12,0,.24,0a.33.33,0,0,1,.36.14c.18.18.19.23.3.2A.36.36,0,0,0,6,17.32c.1-.13.26-.34.55-.14l.44.31c.11.08.22.19.36.1s.24-.16.4,0,.6.49.66.56a.47.47,0,0,1,.15.28,1.42,1.42,0,0,1,0,.4A.23.23,0,0,1,8.2,19a6.08,6.08,0,0,1-.8-.6c-.07-.08-.2-.18-.28-.14s-.1.14,0,.36a1.55,1.55,0,0,1,0,.8c-.08.21-.17.24-.25.27a.26.26,0,0,1-.3-.1,1.38,1.38,0,0,0-.42-.32.5.5,0,0,0-.38,0c-.11.07,0,.22,0,.28a5.64,5.64,0,0,1,.63.58,2.1,2.1,0,0,0,.55.56,3.94,3.94,0,0,1,.59.49c.22.21.31.58.51.73a5.58,5.58,0,0,1,.88.55,11.13,11.13,0,0,1,.93.83,3,3,0,0,1,.33.4.85.85,0,0,0,.33.34,1.78,1.78,0,0,1,.82.41,2.36,2.36,0,0,0,.66.48,1.43,1.43,0,0,1,.6.51c.19.3.23.47.71.63s.46.07.88.4,2,1.85,2.18,2a13.92,13.92,0,0,0,1.43,1.27,2.57,2.57,0,0,1,.58.48c.23.24.28.38.54.45s.44,0,.62.35a1.6,1.6,0,0,0,.37.54c.15.13.35.28.36.51s0,.44.27.47.52-.07.61.23,0,.45.15.5.18,0,.25-.11.19-.15.35,0a4.86,4.86,0,0,1,.53.82,9.81,9.81,0,0,0,.62.92,9.71,9.71,0,0,1,.79,1,17.48,17.48,0,0,0,.88,1.54,5.25,5.25,0,0,0,1,1.2c.43.35.9.87,1.17,1.1a10.66,10.66,0,0,0,1.22.86l.51.33a1.4,1.4,0,0,0,.36.13,2,2,0,0,1,.29.14l.2.14a.25.25,0,0,1,.07.3.4.4,0,0,0,.12.49,1,1,0,0,0,.53.26,2.19,2.19,0,0,1,.89.47c.33.27.7.53,1,.73a3,3,0,0,1,.71.66,2.49,2.49,0,0,0,.87.83c.48.3,1.22.71,1.32.76a1.41,1.41,0,0,0,.57.21,1.21,1.21,0,0,1,.83.34c.29.28.28.3.55.42a2.11,2.11,0,0,1,.8.56c.19.23.77.89.89,1a1,1,0,0,0,.55.38c.35.09.34,0,.6.15s.33.18.52.14a.76.76,0,0,1,.85.26,4.33,4.33,0,0,1,.71.83c.14.16.17.24.42.27s.44-.05.71.15a.63.63,0,0,1,.33.6,1.28,1.28,0,0,1-.1.53.48.48,0,0,1-.36.32.43.43,0,0,1-.38-.18,2.22,2.22,0,0,1-.22-.44,1.85,1.85,0,0,0-.31-.57l-.31-.36c-.06-.06-.17-.1-.23-.06a.16.16,0,0,0,0,.23c.06.1.16.27.1.38s-.14.23-.42.13a.57.57,0,0,1-.31-.24c-.08-.11-.08-.3-.37-.43a3.72,3.72,0,0,1-.66-.29.76.76,0,0,1-.36-.37.3.3,0,0,1,0-.29.27.27,0,0,0-.07-.29,1.29,1.29,0,0,0-.42-.24,2.32,2.32,0,0,1-.65-.45,1.54,1.54,0,0,0-.66-.43,4.45,4.45,0,0,1-.93-.42c-.36-.23-.41-.39-.62-.49s-.39-.21-.47-.26l-.36-.13a.69.69,0,0,1-.43-.28c-.16-.2-.23-.41-.43-.39s-.42.08-.62-.14-.38-.54-.62-.78a5.57,5.57,0,0,0-.74-.53c-.38-.27-.35-.44-.86-.66a2.37,2.37,0,0,1-.66-.34c-.15-.12-.29-.26-.37-.19s-.12.23-.37.18a1.88,1.88,0,0,1-.63-.28.84.84,0,0,1-.36-.44c0-.16-.05-.3-.26-.33a1.21,1.21,0,0,1-.68-.21c-.19-.15-1.19-.89-1.4-1.08S25.16,40.14,25,40s-.2-.12-.24-.07a.61.61,0,0,1-.43.3A1.65,1.65,0,0,1,23.3,40a4.17,4.17,0,0,1-1.15-1,2.84,2.84,0,0,0-.61-.79c-.31-.24-.33-.3-.54-.37s-.25-.07-.36-.11-.2-.09-.26,0a.21.21,0,0,0,0,.24.48.48,0,0,1,.07.41c-.07.16-.28.29-.59.12a1,1,0,0,1-.45-.44c-.11-.15-.1-.23-.31-.37s-.18-.06-.4-.28A2.55,2.55,0,0,1,18.3,37a2.37,2.37,0,0,0-.53-.54,1.75,1.75,0,0,1-.46-.44,3,3,0,0,0-.49-.51c-.17-.13-.21-.16-.18-.27s.14-.28,0-.34-.15,0-.22,0a.52.52,0,0,1-.44,0,.58.58,0,0,1-.41-.38c0-.13,0-.21,0-.33a.15.15,0,0,0-.21-.11c-.05,0-.1.11-.12.35s0,.28-.09.38a.33.33,0,0,1-.35.13c-.12,0-.09-.18,0-.28s.06-.17,0-.33a3.63,3.63,0,0,0-.43-.44,1.36,1.36,0,0,1-.24-.63c0-.23.12-.6.41-.64s.72.09.79,0,.08-.22,0-.27a.92.92,0,0,0-.44-.1.82.82,0,0,1-.55-.1c-.16-.11-.32-.2-.45-.11s-.25.29-.52.19a.83.83,0,0,1-.47-.3.49.49,0,0,1,.06-.53c.1-.14.24-.34.15-.53a.31.31,0,0,0-.45-.18,2.68,2.68,0,0,0-.33.25.42.42,0,0,1-.24.12.89.89,0,0,1-.53-.09.33.33,0,0,1-.06-.52c.17-.23.25-.35.17-.46a2.6,2.6,0,0,0-.23-.28c-.1-.12-.76-.72-.92-.86s-.33-.27-.5-.39-.29-.26-.37-.22,0,.16,0,.24a1.6,1.6,0,0,1,0,.52.41.41,0,0,1-.62.24A4.67,4.67,0,0,1,8,28.43c-.29-.32-.36-.44-.55-.54a1.21,1.21,0,0,1-.41-.3,1.86,1.86,0,0,1-.43-.77c-.07-.27-.08-.57-.24-.71l-.29-.25a.22.22,0,0,1,0-.25.27.27,0,0,1,.24-.09c.12,0,.18-.08.16-.15a2,2,0,0,0-.18-.23c0-.06-.2-.3-.33-.19a.71.71,0,0,1-.4.16A1.08,1.08,0,0,1,5,24.92a.92.92,0,0,1-.34-.52,2.59,2.59,0,0,1,0-.55.28.28,0,0,0-.15-.3.25.25,0,0,0-.28,0,.45.45,0,0,1-.36.1.47.47,0,0,1-.24-.54c.09-.19.17-.23.21-.46s.08-.3.21-.31.21.09.35.19.24.16.35.07.11-.19,0-.32a2.86,2.86,0,0,1-.46-.49c-.21-.33-.16-.51-.48-.76a8,8,0,0,1-.6-.55,2.42,2.42,0,0,1-.54-.65,1.72,1.72,0,0,0-.31-.48.26.26,0,0,0-.27,0,.18.18,0,0,1-.25,0,.34.34,0,0,1-.15-.34,1,1,0,0,0-.14-.46.76.76,0,0,0-.32-.19,1.48,1.48,0,0,1-.41-.17,5.53,5.53,0,0,1-.68-.7c-.08-.1-.17-.47,0-.57s.43-.09.47-.17,0-.14-.14-.23Z"/><path class="cls-1" d="M62.33,27.45a.35.35,0,0,0-.1.36.74.74,0,0,1,0,.5.41.41,0,0,0,.07.5c.16.15.24.11.4.11a1.42,1.42,0,0,1,.66.3c.17.15.35.27.35.42s-.13.21-.23.23a1.44,1.44,0,0,0-.37.14c-.13.08-.2.18-.12.29a.21.21,0,0,0,.31.05c.11-.07.3-.28.47-.19s.14.26.08.42-.25.4-.17.63a.44.44,0,0,0,.48.29c.23,0,.41-.14.54.06s0,.46,0,.57a1.1,1.1,0,0,0,.24.74c.24.26.6.58.71.69a.48.48,0,0,1,.19.36c0,.17,0,.22.11.29s.19,0,.32-.07.21-.21.34-.09,0,.28,0,.43a1,1,0,0,0-.12.35c0,.15,0,.25.22.26s.28-.14.43,0,.1.2.12.38-.06.47.16.66.42,0,.54.33.09.37.31.37.32-.2.51-.08.15.28.14.47,0,.44.2.52.43,0,.48-.16-.16-.37,0-.54a1.8,1.8,0,0,1,.39-.39c.13-.08.28-.17.51.08a.88.88,0,0,1,.34.66c0,.34,0,.34.11.48a.81.81,0,0,1,.11.45.5.5,0,0,0,.24.5c.2.11.4.11.33.33a.54.54,0,0,0,0,.55.82.82,0,0,0,.58.34c.22,0,.45-.06.58.09s.09.29,0,.43-.19.21-.2.39.08.36-.12.57-.29.26-.28.38a.2.2,0,0,0,.26.18c.14-.05.13-.28.31-.27s.21.1.27.3.08.38.3.43a.6.6,0,0,0,.54-.15.36.36,0,0,0,.13-.3c0-.13,0-.25.12-.26s.23.08.24.39-.06.49.16.74a2.13,2.13,0,0,0,.54.41.61.61,0,0,0,.46.17c.11,0,.21-.19.36-.13s.19.15.23.26.24.49.52.56a.55.55,0,0,0,.55-.12c.11-.1.19-.33.3-.31s.13.07.16.27.09.7.47.78a3,3,0,0,0,.76.06c.16,0,.31,0,.42-.18s.19-.38.28-.42.14,0,.25.13.32.45.65.43.38-.34.35-.51a5.9,5.9,0,0,0-.35-.84c-.14-.3-.38-.91-.65-.89s-.31,0-.45-.09a3.3,3.3,0,0,1-.33-.33s-.15-.16,0-.29a3.46,3.46,0,0,0,.23-.31.25.25,0,0,0,0-.3c-.08-.08-.12-.06-.24,0l-.34,0c-.07,0-.17,0-.35-.16s-.46-.56-.56-.71a.76.76,0,0,0-.78-.26c-.34.13-.37.11-.47,0a1.05,1.05,0,0,1-.25-.37.22.22,0,0,1,.06-.3c.1-.06.31.07.45.13a.85.85,0,0,0,.55,0,2.13,2.13,0,0,0,.61-.39c.09-.09.18-.22.07-.31s-.3-.1-.37-.27-.17-.28-.23-.41a.71.71,0,0,1,0-.47.35.35,0,0,0,0-.4c-.13-.17-.41-.36-.54-.51s-.35-.32-.55-.51a1.25,1.25,0,0,0-.71-.32.6.6,0,0,0-.47.15c-.18.14-.61.42-.72.51a4,4,0,0,0-.35.37c-.1.09-.2.2-.25.23a.17.17,0,0,1-.22-.08.56.56,0,0,1,0-.66c.22-.19.35-.32.41-.38S74,36.07,74,36a1.54,1.54,0,0,0-.23-.29s-.11-.05-.21,0-.26.2-.28.21a.21.21,0,0,1-.23,0,.32.32,0,0,1-.1-.41.52.52,0,0,0-.07-.57,9.62,9.62,0,0,0-.94-.79c-.14-.08-.24-.16-.41-.09a.73.73,0,0,0-.23.18c-.05,0-.14.11-.22.08a.24.24,0,0,1-.18-.17.49.49,0,0,0-.17-.26,4.34,4.34,0,0,1-.44-.39,1.7,1.7,0,0,1-.14-.4,1.88,1.88,0,0,0-.22-.53,1.15,1.15,0,0,1-.24-.63,6.23,6.23,0,0,0-.08-.71,1.8,1.8,0,0,0-.14-.41c-.06-.12-.16-.32,0-.47a3.27,3.27,0,0,0,.5-.64.62.62,0,0,0,0-.5.35.35,0,0,0-.31-.16c-.08,0-.15.08-.22.05s-.05-.09-.06-.16-.07-.16-.15-.16-.15,0-.23.12-.41.38-.5.48a1.2,1.2,0,0,1-.23.17c-.07,0-.13.05-.14,0a.47.47,0,0,1,0-.28.88.88,0,0,0,.1-.41c0-.28-.14-.37,0-.56a.74.74,0,0,0,.14-.51,1.65,1.65,0,0,1-.11-.47c0-.14,0-.3-.06-.34s-.2.06-.26.12a7.07,7.07,0,0,0-.8.88l-.2.48.07.34-.29.2,0,.1.36-.21.17.23,0,.64c0,.29-.21.3-.43.42S66,30.5,65.64,30c-.13-.21-.34-.62-.39-.69a.91.91,0,0,1-.17-.37,1.11,1.11,0,0,0-.13-.6c-.12-.16-.16-.25-.38-.23a1,1,0,0,1-.5-.07.23.23,0,0,1,0-.35.45.45,0,0,0,.15-.48.41.41,0,0,0-.33-.32.7.7,0,0,0-.37.12,1,1,0,0,1-.5.19,1.2,1.2,0,0,0-.46.07A1.33,1.33,0,0,0,62.33,27.45Z"/><path class="cls-1" d="M124.52,67.68s.11-.06.12-.13,0-.17.08-.21a.25.25,0,0,1,.31.07l.74.7.26.17a.37.37,0,0,1,.26.21.59.59,0,0,1-.17.55c-.09,0-.37.07-.44-.05a.5.5,0,0,1-.07-.23l.07-.12s0-.21-.16-.14a.34.34,0,0,1-.31,0c-.1,0-.21.08-.17.17a.29.29,0,0,1-.14.34.43.43,0,0,1-.42-.24c-.1-.19-.21-.31-.21-.44s0-.21,0-.25a.28.28,0,0,0,.09-.18A.26.26,0,0,1,124.52,67.68Z"/><path class="cls-1" d="M113.72,29a.35.35,0,0,0-.29.16c-.08.1,0,.27.09.37s.15.24,0,.32-.41-.09-.58-.22-.15-.38-.15-.61,0-.22-.23-.41-.13-.19-.21-.61-.62-.37-.89-.48-.27-.18-.3-.43,0-.34,0-.45a1.59,1.59,0,0,0-.08-.43c0-.17-.13-.28-.25-.21s0,.46,0,.72a2.29,2.29,0,0,1,0,.58.42.42,0,0,0,.2.36c.11.09.4.2.77.47a1.68,1.68,0,0,1,.56.93,3.66,3.66,0,0,1,.16.74c0,.17.14.22.3.36s.58.45.69.55a.19.19,0,0,1-.06.29c-.07.05-.15.16,0,.25s.16.05.3.05a.28.28,0,0,1,.26.13c.07.09.22.28.48.58a1.53,1.53,0,0,0,.6.49c.22.1.2.45.2.56a.52.52,0,0,0,.16.31.19.19,0,0,1-.09.29c-.15.06-.22-.08-.42-.26s-.37-.15-.55-.27-.26-.4-.42-.42-.24.11-.2.28.3.35.54.49a3.79,3.79,0,0,1,.44.28.36.36,0,0,1,.06.47c-.08.13,0,.27.1.28s.17.16.27.28a1.93,1.93,0,0,0,.31.34c.22.19.19.32.13.45s-.31.09-.44,0-.2.05-.22.16,0,.19.26.43.16.36.25.61.25.22.4.31.15.13.11.4a3.42,3.42,0,0,0,0,.6c0,.15.12.26-.1.52s-.69-.06-.79-.17-.15-.26-.31-.29-.18.16-.18.16a.19.19,0,0,1-.09.17,3.29,3.29,0,0,1-.64,0,.55.55,0,0,0-.52.4.88.88,0,0,0,.14.81.53.53,0,0,1,.07.71c-.21.31-.63.25-.8.29s0,.17,0,.17a2,2,0,0,1,.07.34.92.92,0,0,1,0,.34c0,.25-.33.23-.49.23a1.13,1.13,0,0,1-.39-.07c-.12,0-.32,0-.5-.06a1.79,1.79,0,0,1-.52-.31c-.17-.15-.17-.26-.25-.48s-.39-.12-.55-.21-.26-.08-.38-.26a3.57,3.57,0,0,0-.43-.45c-.15-.17-.2-.14-.25-.07s0,.18.08.26.11.2.27.41.42.32.59.5a.59.59,0,0,1,.2.34.26.26,0,0,0,.11.24c.11.11.13,0,.28.08a.54.54,0,0,1,.38.33.9.9,0,0,0,.33.34c.13.1.11.13.3.33l.39.39c.16.14.09.37.11.51s.1.05.34.14.3.28.5.58a1.74,1.74,0,0,1,.24.45,5.6,5.6,0,0,1,.3,1.26.85.85,0,0,0,.3.58,1.78,1.78,0,0,0,.74.62,2.35,2.35,0,0,1,.86.83c.25.32.84.79,1,1a9.89,9.89,0,0,0,.71.69,3.48,3.48,0,0,1,.68,1.15c.11.25.29.28.58.61a.51.51,0,0,1,.08.14c0,.05.06.11.15.07s.1.1,0,.21.08.33.08.33l.27.22-.09.18-.21-.23a1.76,1.76,0,0,1-.1.2.22.22,0,0,0,0,.24c.06.07.17.24.17.24l.35.78c.06.15.08.28,0,.25a.25.25,0,0,0-.24.06.16.16,0,0,1-.24,0c-.08-.09-.35,0-.44-.15s-.36,0-.55,0-.21.14-.27.29a.15.15,0,0,1-.29,0c0-.13-.17-.06-.26,0a5.77,5.77,0,0,0-.61.23.66.66,0,0,1-.51,0,.43.43,0,0,0-.26-.1c-.09,0-.15,0-.16,0a.46.46,0,0,0-.18-.19,1.34,1.34,0,0,1-.1-.62c0-.15-.06-.23-.1-.2s0,.24,0,.24a4.5,4.5,0,0,1-.11.54,1.18,1.18,0,0,0,.14.76c.11.23-.16.21-.16.21s-.31-.05-.44-.09S114,55,114,54.9s-.33-.07-.44-.07a.47.47,0,0,1-.33-.24c-.09-.13-.07,0-.07,0l.14.42h.14l0,.11-.16,0-.09.16c0,.06,0,.1,0,.19s.31,0,.31,0l.29.41-.18.11-.27-.25-.2,0-.13-.24-.33-.17a7,7,0,0,1-.73-.58,4.73,4.73,0,0,0-1-.6c-.35-.2-.33,0-.63-.15a1.16,1.16,0,0,1-.58-.32,7.92,7.92,0,0,1-1-.83c-.31-.33-.43-.27-.57-.29s-.16-.09-.36-.35-.28-.23-.52-.35-.12-.08-.39-.3-.38-.21-.45-.2a.78.78,0,0,1-.47-.07c-.17-.1-.18-.25-.22-.58s-.52-.66-.68-.82a.35.35,0,0,0-.39-.1.34.34,0,0,1-.28,0c-.15,0-.19-.07-.56-.61a2.2,2.2,0,0,0-.85-.73,2.47,2.47,0,0,1-.61-.53,4.11,4.11,0,0,0-.6-.55,1.07,1.07,0,0,1-.36-.58c-.08-.25-.25-.27-.33-.24a1,1,0,0,1-.4,0,.34.34,0,0,0-.31.13,1.6,1.6,0,0,1-.15.24.52.52,0,0,0-.14.31c0,.14-.1.16-.26.35s-.12.32-.16.47-.18.16-.4.07-.24-.26-.3-.4,0-.22-.16-.24-.19.09-.3.14a1,1,0,0,1-.59.09.69.69,0,0,0-.62.2c-.13.13-.25.13-.53.07a1.69,1.69,0,0,0-.57,0,2.34,2.34,0,0,1-.59-.13,1.29,1.29,0,0,1-.64-.65A.86.86,0,0,0,94.8,47c-.12-.09-.18,0-.17.17a1.7,1.7,0,0,1,0,.32c0,.18-.09.25-.26.29a.29.29,0,0,1-.4-.19c-.1-.24-.1-.06-.09-.57s-.28-.46-.55-.74-.53-.08-.73.07a.67.67,0,0,1-.63.07,2.07,2.07,0,0,0-.53,0c-.17,0-.19-.25-.24-.4s.08-.29.2-.38.29,0,.46.11.22,0,.26-.07-.05-.17-.18-.28-.09-.18,0-.25a.46.46,0,0,0,.09-.28c0-.15-.17,0-.2,0l-.15.24c0,.07,0,.16-.18.18s-.22-.09-.33-.16-.16,0-.24,0a1.84,1.84,0,0,0-.28.26c-.24.23-.72,0-1-.09a3.23,3.23,0,0,0-.68-.26,2.66,2.66,0,0,1-.86-.42,2.57,2.57,0,0,0-.59-.38c-.27-.14-.24,0-.58-.23s-.55-.21-.64,0a6,6,0,0,1-.47.64c-.17.23-.35.22-.43,0s.16-.38.26-.55,0-.07.2-.56-.5-.76-.74-.91a1.73,1.73,0,0,1-.51-.61c-.17-.27-.32,0-.47.2a.28.28,0,0,1-.46,0c-.07-.14,0-.34,0-.38a2.73,2.73,0,0,0,.43-.26c.12-.11,0-.23,0-.3L83.75,41a.51.51,0,0,1-.16-.47,1.1,1.1,0,0,0,0-.54c-.08-.24-.37-.13-.53-.11s-.28,0-.41-.24-.22-.13-.5-.22a1.26,1.26,0,0,1-.64-.55c-.1-.21.18-.44.18-.44s.17-.06.12-.2-.2-.07-.42-.18-.23-.3-.36-.49a.94.94,0,0,0-.54-.35,1.21,1.21,0,0,1-.49-.34,4.62,4.62,0,0,1-.6-.78c-.16-.25-.4-.21-.48-.09s0,.32,0,.49-.08.22-.39.28-.64-.23-.83-.42a.63.63,0,0,1-.12-.57c0-.14,0-.1-.17,0a3,3,0,0,1-.37.32.87.87,0,0,1-.78.08,2,2,0,0,1-.75-.54c-.15-.15-.4-.39-.78-.71s-.86-.76-1-.92a1.77,1.77,0,0,0-.62-.41c-.18,0-.15,0-.51-.58s-.51-.51-.94-.82a.63.63,0,0,1,0-.95c.14-.12.06-.43,0-.49s-.36-.36-.35-.56.05-.25.21-.29.31.13.39.24.27.31.45.57.24.33.41.61.2.37.42.43a.73.73,0,0,1,.45.33,4.93,4.93,0,0,1,.29.78c0,.13,0,.41.11.41s.54-.25.62-.26a.19.19,0,0,0,.19-.17,4.08,4.08,0,0,1,0-.69c0-.34.37-.78.78-.75a.84.84,0,0,1,.57.24c.1.11.07.24.09.31,0,.37.28.16.28.16s.1-.2.24-.24a2.44,2.44,0,0,1,.94-.12c.31,0,.39.33.5.52s.32.18.42.21.14,0,.23.11.26.24.38.42.28.1.43.1.2.12.26.2.18.12.46.38.41.35.49.35a7.5,7.5,0,0,0,.83,0c.6,0,.46.37.65.68s.15.21.37.57a1.12,1.12,0,0,1,.08.88c0,.25,0,.29.18.35a.24.24,0,0,0,.26-.08.64.64,0,0,0,.2-.37c0-.08,0-.37,0-.6s0-.32-.22-.61-.27-.54-.52-1a1.73,1.73,0,0,1-.19-1.06,1.11,1.11,0,0,1,.17-.41l.6-.43c.09-.08.18-.22.08-.25s-.33.09-.33.09a1.27,1.27,0,0,1-.51.33,4.14,4.14,0,0,1-.93,0,3.86,3.86,0,0,0-.62,0c-.15,0-.2-.07-.32-.32a.47.47,0,0,0-.44-.21c-.15,0-.24.15-.32.14s-.08-.42-.07-.59,0-.18-.2-.32-.4-.07-.59-.12-.17-.26-.32-.38a.36.36,0,0,1-.15-.32.68.68,0,0,0,0-.4c-.17-.18-.35,0-.54,0s-.21-.2-.4-.5a.62.62,0,0,0-.52-.32c-.17,0-.27-.2-.31-.4a.53.53,0,0,0-.26-.36c-.12-.09-.36-.19-.48-.29a1,1,0,0,1-.32-.32c-.07-.14,0-.11-.22-.17s-.17.08-.32.16a.62.62,0,0,1-.58,0c-.21-.11-.17-.18-.34-.49s-.53-.44-.7-.62-.12-.35-.11-.6-.06-.28-.18-.45a3.41,3.41,0,0,0-.64-.51c-.2-.16-.25,0-.28.12a.15.15,0,0,1-.26.08c-.12-.1-.19-.07-.29-.08s0,0-.14-.22-.23-.09-.23-.09a.29.29,0,0,1-.23.14c-.14,0-.19-.24-.19-.24s0-.17-.12-.22-.26.15-.33.22a.86.86,0,0,1-.57,0c-.28,0-.6,0-.92,0s-.35-.18-.55-.42a1,1,0,0,0-.57-.32,8,8,0,0,0-1.1-.07c-.21,0-.38-.33-.54-.51s-.09-.39-.17-.55-.27-.1-.38-.05-.18,0-.22-.1,0-.12.14-.26,0-.23-.1-.4,0,0-.14-.28a.71.71,0,0,0-.58-.28.75.75,0,0,1-.4-.2c-.16-.11-.3,0-.44,0s0-.22.06-.33.26-.45.43-.67a.54.54,0,0,0,0-.58,3,3,0,0,0-.34-.49.28.28,0,0,0-.46,0c-.08.13,0,.24,0,.35s.15.16.14.27-.13.15-.25.17a1.43,1.43,0,0,0-.54.4,1,1,0,0,0-.23.55c0,.17-.29.35-.43.3s-.08-.14,0-.43.3-.43.43-.59.11-.29-.07-.35-.46.24-.46.24l-.18.46c-.06.17-.11.19-.27.29a.67.67,0,0,1-.54.09.4.4,0,0,1-.09-.52c.12-.25.41-.34.56-.43a.41.41,0,0,0,.23-.43c0-.18-.35-.19-.48-.2a.29.29,0,0,1-.27-.27c0-.18-.29-.19-.34-.4s.13-.19.2-.4a.53.53,0,0,0,0-.48l.39-.41.33-.29.26-.27.31-.32.62-.72.2-.27.15-.23.29-.5.21-.44h0v.12h0l0,0,0,0,0,0,0,0h.14l0,0,0,0,0,.07h.11l.08,0,.06,0,0,0,0,0,0,0,.08,0,.05,0h.07l.07,0,0,0v.06l0,0h.14v0l0,0h0l0,0,0,0,.05.05h.07l.06,0,0,0,0,0,0,.09.12.11.17.18.16.14.06.07,0,.05v.1h0l.07,0h.13l0,0,0,0,0,.07,0,0,0,0V16h.18v0l.06.05.06.09.07.1.15.12.06,0h0l.08.08.07.07,0,.08v.16l0,.14,0,.1,0,.08v.14l0,0h.12l.06,0,.06,0,.06.07,0,.06.05,0,.06.1h.05l.06.07,0,0,0,.07.08.06.08.09.07.08.07.09.06.08,0,0,0,.05,0,0,0,0,0,0,0,.07,0,.06,0,0v0l0,0,0,0v.06l0,.05v.12l0,0,.05.12.06.06,0,0,0,.08,0,.05,0,0h.07l0,0,.06,0,0,0,0,.05.06,0,0,0,0,0v.06l0,0h0l0,0,0,0,0,0h0l0,0v0h0l0,0,0,0h.05l0,0h0l.07,0v.09l0,0,.06,0,.07,0,0,0,.06.08,0,0h.09l0,0,0,.05,0,0,0,0h.08l0,0,0,0,0,0v0l.05,0,.08.07.1.1.14.07.15.09.1.08,0,.08.07,0,0,0,.09.07.09.05,0,0,.06.06h.17l0,.06.07.09,0,.09.05.06,0,0,.06,0,0,.09,0,.06,0,0,.12.1.17.18.1.13.07,0,.06,0,.07,0,0,0,.06.07h.09l.08,0,.11.07.13.1.08,0,.08,0h0l0,0,0,0,.11.08.1.08,0,.08h.08v.11h.07l0,0h0l.06,0,0,.07,0,.08.05,0h.06l.09,0h.14l0,0h.06v.06l0,0,0,0,0,0h.11l0,0h.28l.1,0,0-.07,0-.06,0-.07-.1-.1L75,23.13l-.1-.14-.06,0-.22-.16-.24-.15-.16-.13-.1-.08,0-.07v-.29l0-.14v-.06h0l-.06,0-.1.07-.13.07-.13,0h-.15l-.1,0L73.33,22l0-.11,0-.09-.07-.05,0,0L73,21.52,73,21.38l0-.19,0-.12V21l0-.13,0-.12.06-.1.06,0h.16l.09,0h.07l.09,0,.12,0,0,0,0,.06v.08l0,.08.07.1.11.11.1.13,0,.05.07.11,0,.09,0,.07v.07h0l0-.05,0,0,0-.06.07-.13.11-.14.12-.12.14-.08.13-.05H75l.1,0,.14,0,.19.05.16,0,.14,0,.06,0,.05,0,.06-.12.1-.09.06,0,.06,0,.1,0h0v0l-.06-.1,0-.07,0-.13,0-.09,0-.07.12-.08.08,0h.07v0l-.05,0,0-.05h-.22l0,0H76l-.09,0L75.82,20,75.73,20h.92l1.25-.06.22-.09,1.07-1,2.12-3.32.25.18h.14l.67-.94.56-.67.55-.76.09,0L84.74,15l1.2,1.66.64.4.21.08.38.15.83.33.88.31.82.32.62.28.61.32.41.16.17.12,1.38,1.77.13-.07.6.15.49.42.15-.26.25-.77.08-.11-.07,0-.14-.08-.06-.1.1-.51.08-.31,0-.15.21-.47.18-.35-.25,0,.28-.35.41-.54.14-.35,0-.28.11-.24L96,16l.1-.22.27-.82.18-.4.29-.48.22-.42v-.28l.15-.27-.09-.48-.27-.17-.74-.37-1.26.15-1.65-1.31,1.3-.86.25,0,.55-.62.59,1.18.54.2.35.31h.61l.67-.26.38-.38.21-.27.08-.17,0-.08,0-.2.06-.12.09-.18.23-.16L99.27,9l.18-.21.2-.13h.17l.4-.34.54-.47.2-.21c.13,1,.78,1.69.91,2.69.26,0,.51.38.64.51s.25.12.5.12c0,.13.13.25.13.38.25,0,.37.12.5.5,1.13,0,1.77,1.51,2.15,2.38.38.13.88.76,1.26,1,0,.12.13.25.13.5h.25c0,1.88-1.62,3-1.61,4.89a2.56,2.56,0,0,0,1.76,1c.13.12,1.52,2,1.65,2,0,.25.25.76.25,1a12.66,12.66,0,0,0,1.64,1c0,.5.51,1.13.64,1.63.12,0,.25.13.38.13.12.25.12.37.5.37C112.64,27.86,113.47,29,113.72,29Z"/><path class="cls-1" d="M168.76,62.68c-2.14,0-3.64-.94-5.78-.94-1.14-1.13-.77-4.52-2.54-5.4,0-.12-.13-.37-.13-.5-.63-.38-.51-1.76-1.39-2s-2,.25-2.64,0a3.12,3.12,0,0,0-1.51-.5,1.33,1.33,0,0,0-.51-.63c0-1-2.91-3.51-3.79-3.89-1.51-.75-3.65-1.25-4.67-2.76-1.26-1.88,2.63-4.51,4-4.51l.13-.13v-.75h-.12v-.25h-.38a3.7,3.7,0,0,0-1-1c0-1.38-.78-4.27-.15-5.52.37-.88,1.25-.76,2-1.26l.12-.25c1.38,0,1.25-1.75,1.25-2.51-.51-.12-1.89-1.25-1.9-1.75-2-.51-2.14-.13-3.64.37,0,.13-.25.38-.25.5-.25,0-.38.13-.51.13,0,.92-1.42,2.26-2.38,2.93.14,0,.12.19,0,.26s-.23.11-.52.33a1.41,1.41,0,0,0-.7.92c-.13.57-.26.86-.66.92s-.6.1-.77.3l-.28.32c-.12.11-.26.26,0,.41s.65,0,.63.36,0,.38-.09.4-.09,0-.18-.08-.2-.34-.48-.29-.5.07-.61-.06a.61.61,0,0,0-.35-.26c-.15,0-.33.16-.47.14s-.36,0-.38.17a1.13,1.13,0,0,0,.05.4,1.08,1.08,0,0,1,0,.35c-.06.1-.1.13-.18.11s-.09-.11-.09-.22,0-.25-.1-.35a.28.28,0,0,0-.38,0c-.14.09-.32.25-.54.05s-.46-.54-.76-.46a6,6,0,0,1-.94.16c-.26,0-.48,0-.55-.12s-.06-.25-.24-.39-.5-.36-.79-.6a8.22,8.22,0,0,1-.83-1.07,1.84,1.84,0,0,1-.46-.65,3.63,3.63,0,0,0-.49-.86,5.19,5.19,0,0,1-.57-.63c-.2-.25-.37-.59-.66-.57a1.13,1.13,0,0,0-.66.31,3.8,3.8,0,0,0-.53.46,3.38,3.38,0,0,1-.47.46c-.12.1-.36.16-.47.29s-.21.33-.37.29-.24-.18-.42,0-.07.1-.2.1-.12,0-.17.1a.19.19,0,0,1-.25.06c-.13-.08-.26-.17-.33,0s0,.27-.1.41a.49.49,0,0,0-.06.37c0,.14.14.29.14.38s0,.16-.15.12-.21-.11-.3-.1a.5.5,0,0,0-.28.09l-.32.29a.48.48,0,0,1-.35.15.68.68,0,0,0-.46.09.52.52,0,0,1-.62.1c-.31-.16-.33-.3-.55-.22a1.36,1.36,0,0,1-.58.18c-.23,0-.45-.11-.67.09a1.62,1.62,0,0,0-.35.5c0,.1-.06.18-.19.19s-.17,0-.26-.13,0-.26-.21-.3A.58.58,0,0,1,121,35a4.2,4.2,0,0,0-.52-.41c-.13-.1-.27-.17-.37-.09s-.16,0-.23,0a.28.28,0,0,0-.2.29.8.8,0,0,0,.09.39,1.06,1.06,0,0,0,.26.52c.17.14.27.19.26.45s0,.47.18.5.44,0,.65.28.24.32.34.33.18-.15.18-.15.21-.17.25.12a1.3,1.3,0,0,0,.18.76,1.82,1.82,0,0,0,.53.54.82.82,0,0,0,.49,0c.1,0,.19,0,.14.2s0,.15,0,.23.08.19-.09.2a.86.86,0,0,1-.66-.28l-.75-.73c-.24-.23-.36-.44-.61-.26a.42.42,0,0,0-.23.43c0,.19.06.66-.2.64s-.2-.1-.33-.18-.19-.18-.37-.12a1.13,1.13,0,0,1-.32.09c-.11,0-.21.13-.18.37a.51.51,0,0,0,.15.37c.08.1.13.4,0,.42a.9.9,0,0,1-.58,0,.39.39,0,0,1-.26-.43c0-.18.11-.36,0-.54s-.06-.4-.46-.32a1.29,1.29,0,0,1-.71,0c-.45,0-.52-.17-.75,0s-.24.18-.31.2a.55.55,0,0,0-.24.19.33.33,0,0,1-.34.21c-.27,0-.79,0-.92,0a2.12,2.12,0,0,1-.57-.28c-.16-.11-.3-.21-.38-.18a.28.28,0,0,0-.14.26,1.43,1.43,0,0,0,.14.82c.18.4.14.2.21.28s.11.14,0,.26-.28.08-.42.23-.42.17-.42.41.38.37.26.7-.08.5-.44.53-.5-.14-.57.1-.06.33.18.55a3.4,3.4,0,0,0,.56.44c.14.09.14.11.11.25a.5.5,0,0,0,.12.47c.18.23.31.26.28.6a1.63,1.63,0,0,0,.12.82.75.75,0,0,0,.48.3c.12,0,.22.06.22.23a.35.35,0,0,0,.24.31,1.07,1.07,0,0,1,.57.47,2.89,2.89,0,0,0,1,1,9.83,9.83,0,0,1,1,.64,1.26,1.26,0,0,1,.35.38,2.11,2.11,0,0,0,.37.4c.2.2.24.13.28.28s-.09.21.11.4a2.24,2.24,0,0,0,.61.32s.61,0,.43.12-.08.22,0,.37.22.42.37.43a.29.29,0,0,0,.2,0s.08-.07.12,0a.28.28,0,0,0,.22.17.13.13,0,0,1,.1.21,1,1,0,0,0-.14.45,1.26,1.26,0,0,0,0,.43,1,1,0,0,0,.28.32,3.26,3.26,0,0,1,.37.33l-.1.1.61.61V54l.31.28.22,0,.47.23-.15.1-.13-.11-.1,0a3.43,3.43,0,0,1,.43.43.71.71,0,0,0,.24.22l.2.14,0,.11-.4-.07-.08.23.37.36.5.3.24.26-.18.2-.47-.32s-.47-.32-.55-.4-.49-.39-.59-.46-.2,0-.27.07,0,.13.07.22a1.67,1.67,0,0,1,.22.42c0,.13.16.4.34.36a1,1,0,0,1,.5.09.71.71,0,0,1,.27.21.39.39,0,0,0,.23.1c.06,0,.19.25.19.25l.19.21-.11.08.14.15s-.42-.06-.52.08-.17.19-.24.19a.26.26,0,0,0-.24.06c-.07.09-.16.1-.19,0a.53.53,0,0,0-.32-.29.27.27,0,0,1-.21-.19.64.64,0,0,0-.34-.33c-.1,0-.22-.06-.21-.15a.19.19,0,0,0-.19-.18c-.08,0-.29.11-.24,0s0-.25-.06-.25-.18-.21-.21-.32a4.06,4.06,0,0,0-.27-.61c-.08-.11-.24-.36-.13-.36s.16,0,.14-.16a.85.85,0,0,0-.17-.33c0-.06-.17-.18-.26-.13s-.15,0-.21-.06a.39.39,0,0,0-.2-.11s-.43-.17-.45,0-.08.45-.25.39-.27-.09-.33,0a.13.13,0,0,1-.21,0c-.08-.09-.31-.2-.43-.13a.72.72,0,0,1-.44.07.27.27,0,0,0-.28.13c-.05.12-.36.29-.36.29s-.13.12-.25.07-.2-.07-.25,0a.39.39,0,0,1-.31.08c-.08,0-.22,0-.22.09s-.22.27-.33.16-.21-.17-.32-.09a.36.36,0,0,0-.1.39c.06.12.13.4.18.49s.1.22,0,.28-.24,0-.31.1-.26.12-.19,0,.11-.36,0-.44a.85.85,0,0,0-.33-.09.45.45,0,0,0-.07.34.52.52,0,0,0,.24.43c.15.06.24,0,.24.14s0,.3-.1.22-.17,0-.19.08a.61.61,0,0,0,.09.35,9.43,9.43,0,0,1,.72.92,3.54,3.54,0,0,0,.38.6c.19.45.38.56.53.57s.26-.14.37.16.06.32.4.56.22.27.4.54a1.82,1.82,0,0,0,.62.52,1.88,1.88,0,0,1,.64.61c.11.22.29.66.59.72s.39,0,.67.05.37.13.42.06a1.06,1.06,0,0,0,0-.35.17.17,0,0,1,.22-.06c.13.08.19,0,.29-.11s.22-.29.14-.46a.78.78,0,0,1-.12-.39c0-.08.07-.14.23-.13s.43-.08.62.28.37.81.37.81l.16.18.12-.08.21.21-.23.18.11.11.15-.15.39,0,.37.75.07.37s.3.2.46.14.23-.09.26.1.23.29.16.43a.54.54,0,0,0,0,.52.86.86,0,0,0,.31.31s.18.08.19.2a.27.27,0,0,0,.2.22c.09,0,.1.06,0,.14s0,.26.11.35a1.11,1.11,0,0,0,.25.18,2.81,2.81,0,0,0,.74.71.82.82,0,0,1,.31.38c.07.09.27.44.46.49s.36.14.39.06.12-.42.15-.5,0-.25.21-.21.22.09.35,0a.34.34,0,0,1,.36,0c.13.08.17.1.28,0s.28-.12.31.09,0,.18.17.32a.48.48,0,0,0,.38.2c.13,0,.26-.17.49-.16s.47-.09.48-.29,0-.55,0-.66a.66.66,0,0,1,.18-.39.47.47,0,0,0,.12-.56c-.13-.25-.31-.37-.4-.55a1.94,1.94,0,0,1-.17-.68.63.63,0,0,0-.13-.41c-.11-.15-.29-.2-.32-.43s0-.14-.06-.26a.63.63,0,0,1,.18-.53.82.82,0,0,1,1-.08,1.71,1.71,0,0,1,.76.61,1.56,1.56,0,0,0,.48.62,5.4,5.4,0,0,0,.55.31.43.43,0,0,1,.34.4.6.6,0,0,1-.08.55,1.83,1.83,0,0,0-.35.4.59.59,0,0,1-.31.33c-.15.06-.25.22-.51.27s-.65.2-.69.54a6.26,6.26,0,0,1-.2.72c0,.24,0,.71-.41.75a2.91,2.91,0,0,0-.43,0,.68.68,0,0,1-.69-.09c-.41-.22-.66-.4-.81-.49a.94.94,0,0,0-.75,0c-.16.12-.09.37,0,.58a1.93,1.93,0,0,0,.8.73c.33.16.67.15.87.32s.29.34.18.46a.37.37,0,0,0-.1.34c0,.11.18.15.31.18s.16.14.07.24-.3.13-.26.26.13.23.4.24a.59.59,0,0,0,.39-.08c.14-.07.22-.11.36,0a.34.34,0,0,0,.27.06c.09,0,.22-.13.32-.14s.32.06.32.1-.93.37-1,.41-.24.08-.15.35a2.69,2.69,0,0,0,.27.66.52.52,0,0,0,.38.22c.15,0,.38,0,.51.09s0,.23-.11.31a.37.37,0,0,0-.12.34c0,.18.06.38-.09.57s-.29.25-.28.47a1.46,1.46,0,0,0,.26.6,4.46,4.46,0,0,0,.28.53c.06.08.15.3,0,.33a1.28,1.28,0,0,1-.67-.15,1,1,0,0,1-.37-.53c-.06-.15-.05-.48-.18-.51s-.28,0-.35.07-.1.25-.18.23-.08-.2,0-.41.06-.23-.13-.46-.2-.25-.32-.27-.21,0-.28-.18-.08-.29-.27-.3-.21.08-.37-.16-.21-.25-.3-.39a2.14,2.14,0,0,0-.61-.53c-.2-.09-.32-.07-.33.11s0,.2.2.38.32.45.46.48.31.06.31.22-.18.13-.32.13-.35-.09-.46.09-.19.36-.45.38l-.48,0c-.06,0-.25,0-.25-.21s.06-.47-.21-.54a.41.41,0,0,0-.44.17,1.41,1.41,0,0,1-.52.32,2.48,2.48,0,0,0-.68.23c-.2.15-.31.31-.54.19a4.69,4.69,0,0,1-.54-.35c-.09-.08-.24-.24-.3,0s.17.28.22.37a3.77,3.77,0,0,0,.2.38.93.93,0,0,0,.66.48c.37.06.67,0,1,.22a1.28,1.28,0,0,0,1,.25c.37-.1.64-.28.94-.36a1.26,1.26,0,0,1,.81,0c.18.07.23.26.45.23a2.94,2.94,0,0,1,.69-.23.34.34,0,0,1,.49-.06c.19.19,0,.22.17.29s.48.18.47.38,0,.43.17.55.56.44.69.52a.58.58,0,0,0,.53.07c.18-.09.29-.19.55-.08s.52.28.7.22.2-.2.18-.29-.12-.25,0-.25.19.16.22.32,0,.21.13.33.41.29.54.22.27-.17.47,0,.23.27.38.24a.58.58,0,0,1,.58.13c.25.2.23.23.39.28s.36.07.38.21-.12.13-.28.13a1.86,1.86,0,0,1-.56-.13.53.53,0,0,0-.53,0,.62.62,0,0,1-.53.11,1.16,1.16,0,0,0-.37,0,1,1,0,0,1-.46-.1.57.57,0,0,0-.42-.1,1,1,0,0,1-.54,0,.83.83,0,0,0-.54-.09c-.35,0-1.49.07-1.73.11s-1.45.23-1.69.25-.2,0-.35-.22-.1-.42-.45-.45-1.1-.14-1.3-.15a3.78,3.78,0,0,0,1.09,1c.73.46,2.4.19,3.59.14s1.14.39,3,.39,4,1.38,6,1.38l.13.25,4.53,1.25c2.14.63,3.92,1.84,5.93,2.6,0,0,.12-.23.9-.41s1.36,0,1.78-.74a5.94,5.94,0,0,1,1.12-1.36l1.18-.43,3.11,1.53.45.07.52-3.23.79-1.57.58-.64.57-.64,1.66.3.67-2.43.23-.39,0-.88.24-.85.71-1.26,1.51-3.54s.44-1.1.56-1.58.48-2.09.48-2.09l.41-1.08.32-.57Z"/></g></g></g></svg>