<svg xmlns="http://www.w3.org/2000/svg" viewBox="0 0 117.13 113.16"><defs><style>.cls-1{fill:#4e83bf;fill-rule:evenodd;}</style></defs><g id="Layer_2" data-name="Layer 2"><g id="regije"><path id="sinj" class="cls-1" d="M82.91,109.43a6.8,6.8,0,0,1-2.16,1.69c0,.79-1.26.47-1.26,1.26-.63.16-1.41.63-2,.78H77a2.32,2.32,0,0,0-.32-.62c-.78,0-1.26-1.58-1.58-1.89V110s-.16-.63-.48-.63c0-2.2-4.11-3-4.12-4.4-.31-.16-1-1.26-1.26-1.26a3.13,3.13,0,0,0-.64-1.26V102H65.1l-.47.47H63.37l-.16.16a8.19,8.19,0,0,1-.62,1.73c-.39,0-1.77.22-2.21-.16-.16,0-.16.16-.16.31-.16,0-.16.32-.47.32,0,.15-.16.47-.16.63-1.1,0-2.19,2.35-3.45,2.67a8.33,8.33,0,0,1-.57,1.43c-.29.65-.61,1.32-.68,1.56-.32,0-.32.31-.47.47-.79,0-1.43-.79-2.21-.79-.16-.31-.16-.47-.64-.47-.16-.16-.47-.47-.47-.63-.32,0-1.11-.79-1.43-.79,0-.15-.15-.31-.16-.47-2-.31-4.73-1.89-6.94-2.52-.16-.15-.32-.62-.48-.62v-.63a12.19,12.19,0,0,1-1.28-3.62c-.32-.16-.48-1.57-.8-2-.16,0-.31-.16-.47-.16,0-.32-.48-.79-.64-1.1-.31,0-.63-.47-.63-.63H37.8l-.16-.32a2.7,2.7,0,0,1-1.58-.94h-.32a9.87,9.87,0,0,1-.5-6h.32a6.64,6.64,0,0,1,.31-1.73c-.48,0-.8-1.41-1.11-1.57l-.18-4.09c-1.89,0-2.69-1.73-3.64-3.14h-.63v.16H30c-.15.47-.78,1.25-1.25,1.25A6.33,6.33,0,0,0,27.8,82h-.48v.32a.9.9,0,0,0-.32.78c-.15,0-.47.47-.47.79-2.05,0-3.46,1.25-5.51,1.25V83.91h-.16c-.64-1.89,0-4.41-.82-6.45-.16-.47-3.48-2.52-4.11-2.83-2.53-1.57-5.53-2.2-8.69-2.83L6,68.81,0,70.53c.18-.25,2.75-4,2.75-4l.6-1.13L2.22,62.88l-1-1.11L.54,61.4a1,1,0,0,1-.32-.51,1.32,1.32,0,0,1,.33-1l.91-1.3.27,0,.77-1.51a1,1,0,0,1,.42-.26,3.4,3.4,0,0,0,.68-.32l1.2-.3L3.64,54.43s-.48-.75-.73-.77a1.83,1.83,0,0,0-.38,0,4.59,4.59,0,0,0-.63-1.07A4.27,4.27,0,0,0,1.16,52s-.3-.38.13-.36.46,0,1-.5a2.29,2.29,0,0,1,1-.73c.39-.17.9-.46.9-.46A9.32,9.32,0,0,1,5,49.43c.35-.18,1.68-1,1.68-1a2.18,2.18,0,0,1,.54-.17A1.05,1.05,0,0,0,8,47.6a3.63,3.63,0,0,0,.14-.52l1.37,0,.92-.63.76-.94-.13-.45.5-.6.38,0,3.47-3,3.7-1.34L17,37.34l-.56-.67L13.78,33l-1.06-.82-.84-1.07,1-.07-2.5-1.64L8.29,27.14l-1.11-.88a5.29,5.29,0,0,0-.6-.46,11.51,11.51,0,0,0-1.76-1l-1.07-.37L3.48,24l-1.69-.19-.25-.34-1-2.53A3.1,3.1,0,0,0,.45,20a1.94,1.94,0,0,1-.11-.57l.48-.19.28,0,.34-.46a9.43,9.43,0,0,0,.5-1.23c.23-.69.29-1,.41-1.39s.19-1.13.34-1.64.71-1.89.71-1.89l.48-.53,2.29,2.09.5-.07.4.26.45.08,2.27,0,.64-.2.7-.68a1.4,1.4,0,0,1,.42-.05l1.72.46.27-.11a8.7,8.7,0,0,0,.56-.77c0-.11.11-.72.11-.72l-.52-.52L12.16,11a.88.88,0,0,1-.28-.89c.11-.6.1-.79.5-1.14a5.45,5.45,0,0,0,1-1.12L14.53,6.3l.73.4.16.41L15.83,7l-.08-.35L16.1,6,16.7,6l.57.19s.16.81.51.66a10.8,10.8,0,0,1,1.41-.38l.75-.67.54-.15.58-.67.41-1.39.68-.77,1.26-.56,1.26-.56,2-1.14,1-.41L29.22,0l8.71,0,1,5.19,4.27,1.7,2.53.91.51,1.39L48,9.9l.68,2.41.88.53.3,1.49,1.31,1.55,1.12,1,.54,1.19,3.45,3.31.22.35a5,5,0,0,0,1.05.59,2.43,2.43,0,0,1,.89.36,1.39,1.39,0,0,1,.43.62,2.8,2.8,0,0,0,.41.53l.35.4,1,0,2.85,2.88L67.21,29l.93.9.87,2v.79l.58.73,0,1.28.41.88-.46.57.46,1a10.15,10.15,0,0,0-.34,1.65c0,.4,0,2.06,0,2.06l.11,1.06.77.67.61,1.13a1,1,0,0,1-.08.44c-.11.22-.27.47-.27.47l.45.5,4.69,6.1.8-.2,3.85.61,4.11,1.29,2,1.8.85,2.05,1.6,3.74,1.41.58,3,2.75,3.37,2,.94,1.06.67,1.45v.51L98.78,70l1,.6.46,1.56,4.26,2.72.52,1.19,1,1.59-.09.33.23.08.42.87,1.47.88.46,1.39.28.72v.66l3.12,2.88L116,89l1.18,2.78c0,.47-1.14.75-1.14,1.22h-.47c0,.16-.47.48-.47.63-.47.16-.31,1.89-.31,2.36l1.6,5.19c-4.1,0-7.41-1.57-11.51-.32l-.16.32c-.47,0-1.57.16-1.73-.32h-1l-.78.95a1.6,1.6,0,0,1-.95-.79,6.65,6.65,0,0,0-3,.94c-1.42.79-7.26.32-7.88,1.73-2.52.32-4.26.63-5,3.3A6.8,6.8,0,0,1,82.91,109.43Z"/></g></g></svg>