<svg xmlns="http://www.w3.org/2000/svg" viewBox="0 0 41.2 37.77"><defs><style>.cls-1{fill:#c7eafb;fill-rule:evenodd;}</style></defs><g id="Layer_2" data-name="Layer 2"><g id="regije"><path id="skradin" class="cls-1" d="M41.2,3.66c-.13,0-.37-.17-.37-.3h-.37c-2.28-2.25-7.56-.75-9.06,1.51C31,4.87,30.15,5.75,30,6c-2,.5-3.52,2.13-5,3.13,0,.13-.13.25-.13.38a1,1,0,0,0-.5.25c-.38,0-1-.13-1.38-.13-.64-1.38-1.78-3-2.41-4.39-3,0-4.54-1.63-5.43-4H13.27c0-.13-.5-.25-.5-.38A4.56,4.56,0,0,1,11.5,0l-.26.21-.87.6.26.43.25.13.31,0,0,.33-.94,2-.39.44-.16.11-.37.35L9.14,5v.48L8.06,5l-.43-.12-.34-.34L7,4l-.3-.45-.35-.66L6,2.24l-.56-1-.14.1L5,1.53l-.39.18-.31.11-.18,0L1.57.19,0,4.09l1,.68.79.53,1.3.93h0l.21.24-.24.23L2.6,7l-.44.74-.36.24.43,1.38.49.51c.13,1,.79,1.69.92,2.69.25,0,.5.38.63.51s.25.12.5.12c0,.13.13.25.13.38.25,0,.38.12.5.5,1.14,0,1.77,1.51,2.15,2.38.38.13.89.76,1.27,1,0,.12.12.25.12.5h.25c0,1.88-1.62,3-1.61,4.89a2.58,2.58,0,0,0,1.77,1c.12.12,1.51,2,1.64,2,0,.25.25.76.26,1a11.44,11.44,0,0,0,1.64,1c0,.5.5,1.13.63,1.63.13,0,.25.13.38.13.13.25.13.37.5.37,0,.13.83,1.31,1.09,1.31a.56.56,0,0,1,.25,0c.33.06.42.13.54.08s.13-.32,0-.37a1.23,1.23,0,0,1-.48-.13c-.16-.11-.24-.3-.12-.39s.28-.07.35-.21a1,1,0,0,1,.33-.38A1.55,1.55,0,0,1,17,29.6a.66.66,0,0,1,.6.29,3.58,3.58,0,0,0,.31.33c.13.09.41.32.79.59s.3.18.41.27l.74.54a12.54,12.54,0,0,1,1,.94c.21.24.48.43.37.93a1.9,1.9,0,0,0-.06,1.09.49.49,0,0,0,.69,0c.27-.21.38-.27.36-.41s-.08-.13-.15-.21S22,33.8,22,33.72a.18.18,0,0,1,.31,0c.11.15.17.23.28.23a.39.39,0,0,0,.22-.06c.05,0,.19-.14.27,0s0,.24-.15.33a2,2,0,0,0-.63.74.51.51,0,0,0,.23.55c.16.05.36-.1.43,0s-.16.41.07.48.4-.07.46.14,0,.22.28.29.57-.1.76,0a1.22,1.22,0,0,0,.6.11.72.72,0,0,1,.61,0,.94.94,0,0,0,.72.15,1.89,1.89,0,0,1,.69-.29c.33-.06.61-.18.68-.59s-.05-.63.22-.85.34-.27.34-.38,0-.11-.13-.24L28,34l.21-.16a4.06,4.06,0,0,0,.49.56.47.47,0,0,0,.56.09c.25-.1.19-.23.52-.21a1,1,0,0,0,.69-.17,7.48,7.48,0,0,0,.59-.51A2.72,2.72,0,0,1,32,33c.27-.07,1-.1,1.3.3a3.54,3.54,0,0,1,.65,1c.37.8.45,1.11.85,1.43a5.69,5.69,0,0,1,.88.8c.42.45.33.47.65.7s.39.11.48.27.11.17.19.2a.69.69,0,0,0,.35-.08.39.39,0,0,1,.3,0c.08,0,.31,0,.37,0a.16.16,0,0,0,0-.23.19.19,0,0,1,0-.25.56.56,0,0,0,.18-.4.86.86,0,0,0-.16-.41,4.94,4.94,0,0,1-.16-.79c0-.23-.06-.32,0-.42s.15-.29.06-.37-.37-.22-.61-.36-.26-.17-.33-.37a1.16,1.16,0,0,0-.35-.56,3.26,3.26,0,0,1-.42-.39.5.5,0,0,1-.14-.45c0-.12.07-.43.34-.41a.71.71,0,0,1,.57.39c.16.22.58.69.63.77s.27.34.75.08a4.67,4.67,0,0,0,.9-.66c.07-.06.17-.08.19-.22s-.05-.33.12-.38.27-.13.22-.26a1.19,1.19,0,0,1-.09-.36.57.57,0,0,0-.18-.45c-.2-.22-.39-.4-.39-.4a.26.26,0,0,1,0-.22.18.18,0,0,1,.29,0,.52.52,0,0,0,.55.19c.25-.11.26-.16.33-.47a.88.88,0,0,0-.1-.65c-.09-.18-.27-.29-.24-.45a.57.57,0,0,0-.08-.43c-.07-.17-.1-.47.1-.51s.35-.05.44-.22a.88.88,0,0,0,.1-.5c0-.13-.12-.16-.25-.13s-.23.12-.36.12-.11-.14,0-.23.24-.21.06-.45a7.69,7.69,0,0,0-.87-1c-.2-.17-.35-.32-.23-.53a1.52,1.52,0,0,0,.23-.57c0-.2-.27-.4-.41-.3s-.38.3-.38.3-.12.11-.27-.06a4.54,4.54,0,0,0-.79-.89c-.36-.24-.34-.28-.33-.4a.37.37,0,0,0-.3-.36,1.12,1.12,0,0,1-.56-.23,2.43,2.43,0,0,0-.54-.3,2.68,2.68,0,0,1-.42-.32.55.55,0,0,1-.21-.42.71.71,0,0,1,.19-.63c.19-.21.26-.21.36-.33s.41-.28.57-.12.36.32.58.21.38-.24.58-.15.19.12.27,0,0-.37.21-.36.26.05.28-.12,0-.53.15-.66.25-.08.25-.38,0-.58,0-.71a.55.55,0,0,1,.13-.41c.12-.13.35-.25.27-.6A9.94,9.94,0,0,1,38.47,16a2.52,2.52,0,0,0-.06-.66,2.3,2.3,0,0,1-.13-.7,1.51,1.51,0,0,0-.13-.81,3.16,3.16,0,0,0-.34-.79.91.91,0,0,1-.14-.72,1.63,1.63,0,0,1,.26-.51c.14-.16.67-.41.85-.63a1.21,1.21,0,0,0,.16-.7,6.35,6.35,0,0,1,.18-.76,4.54,4.54,0,0,1,.18-.63,1.93,1.93,0,0,1,.44-.85c.27-.24.09-.43.12-.63a2.33,2.33,0,0,1,0-.55c.06-.15.11-.45.15-.55a4.87,4.87,0,0,1,.48-1,5.39,5.39,0,0,0,.55-1.37A4.18,4.18,0,0,0,41.2,3.66Z"/></g></g></svg>