<svg xmlns="http://www.w3.org/2000/svg" viewBox="0 0 168.77 62.26"><defs><style>.cls-1{fill:#a25641;fill-rule:evenodd;}</style></defs><g id="Layer_2" data-name="Layer 2"><g id="regije"><path id="slavnoski_brod" class="cls-1" d="M159.38,12.23a3.42,3.42,0,0,1,3.68-.29c.43.21,1.61.9,1.93.28.41-.79.91.24.9.67,0,2.19,1.54,0,2.34,0,.51,0,.62,1.68.17,2-.61.38-1,.82-.41,1.27.27.21.79.55.78.95s-.71.34-.91.53-.07.86-.08,1.31c0,.63-.32,1.19-.33,1.79-.22,1.88-1.92,1.29-3.08,2.59l-.86.95c-.35.43-1.81,1.09-1.13,1.79.28.28-1.15.87-1.16,1.44,0,1.28-1.31,2.6-2,3.59a11.35,11.35,0,0,0-.8,2l-.84,1.53c-.15.65-.67,1.33-.68,2v1.46c0,1.22-1.58,1.52-.91,2.92.33.72,1.12,1.47,1.39,2.18.11.32-.12.86,0,1.11s.59.21.7.47.08.74.39.94c.7.5,1.45.33,2.12,1,.19.19,1.22.5,1.58.72l-.14.13a.73.73,0,0,0-.1.79,1.16,1.16,0,0,0,.91.83,6.06,6.06,0,0,1,2.5,1.27,1.46,1.46,0,0,1,.27,1.5,2,2,0,0,1-1,1.18A2.4,2.4,0,0,0,163.21,55c0,.93.22,1.59.25,2.32s0,1.55-.31,1.74-.92.33-1-.49,0-1.89,0-1.89.09-1.25-.5-1.52-.88-.49-1.57,0-1.53,1.18-2.28.78a4.49,4.49,0,0,0-2.47-.95c-1.06,0-2.14.24-2.84-.24a7.36,7.36,0,0,1-1.93-1.93A5.28,5.28,0,0,0,148.69,51c-.78-.38-1.82-.81-2.15-1.49a10.56,10.56,0,0,1-.75-2.13c-.19-.73-.63-2.37-1.53-2.94a5.31,5.31,0,0,0-2.66-1.19,5.46,5.46,0,0,0-2.44.13,28.46,28.46,0,0,1-2.86.76c-.78.13-2.52.31-3.28.45s-6.38,1-6.38,1a7.08,7.08,0,0,1-1.93.2,1.72,1.72,0,0,1-1.19-1.23c-.34-.87-.72-1.76-1.26-2a1.53,1.53,0,0,0-1.41-.17,6.18,6.18,0,0,1-2.37.54c-.61-.1-1-.21-1.13-.57a3,3,0,0,1-.23-1.53c.23-3.14-1.58-4.7-4.88-4.12a9,9,0,0,0-2.45.84c-.88.42-3.22,1.77-3.22,1.77s-1.57.88-1.77,2.12.06,3,.69,3.63,1.85,1.35,1.63,2.07a14.2,14.2,0,0,1-1.72,2.59s-2,2.41-3.44,2.63-3,.28-3,.28A6.65,6.65,0,0,1,96.71,52a14.49,14.49,0,0,0-2.39-1.32,2.86,2.86,0,0,0-2.23-.05c-.87.38-2.24,1.14-2.24,1.14a1.77,1.77,0,0,1-1.57,0A6.28,6.28,0,0,1,86.18,50c-.39-.66-1-1.75-1-1.75a6.56,6.56,0,0,0-.79-.82,5.61,5.61,0,0,0-2-.94c-.56-.09-1.74-.2-2-.94s-.27-1,.53-1.48,2-1.12,1.72-1.89-.91-1.77-1.2-2.47-.87-2-.87-2a2.51,2.51,0,0,0-2.42-1.32c-1.58.26-3,.48-3.16,1.79s-.08,2.42-.57,2.66-.88.31-1.19-.31-.79-1.52-1-1.9a7.42,7.42,0,0,1-.48-1.42c-.08-.42,0-1.36-.74-1.87a3,3,0,0,0-2.45-.79,17.75,17.75,0,0,0-2.2.77,5.57,5.57,0,0,0-1.27.8c-.4.39-1.91,1.68-2.06,3.22a8,8,0,0,1-.67,3.26c-.46.76-1.51,2.32-2.62,2.33a9.84,9.84,0,0,0-3.51.34,2.65,2.65,0,0,0-1.35,2,4.5,4.5,0,0,0,.67,2.69c.57,1,1,1.64.83,2.15a3.14,3.14,0,0,1-1.16,1.29c-.3.17-1,.66-1,.66a7.94,7.94,0,0,0-1.55,1.25,22.11,22.11,0,0,1-2.49,2.85c-.65.44-2.89,1.81-3.94,2.49a8,8,0,0,1-4.17,1.63,6.5,6.5,0,0,1-3.79-.89c-1-.65-3.05-2.08-3.65-2.61a31.08,31.08,0,0,1-4-4c-.78-1.18-1.25-2-2.06-2.28a2.79,2.79,0,0,0-1.61-.1,4,4,0,0,1-2,0,5.18,5.18,0,0,1-1.38-.88,18.44,18.44,0,0,0-2.81-2.34,15.06,15.06,0,0,1-2.62-2,6.3,6.3,0,0,0-3.21-2c-1.47-.23-2.3-.21-3.33-1.75a7.28,7.28,0,0,0-2.14-2.51,3.54,3.54,0,0,0-2.38-.68,12.71,12.71,0,0,0-3,1.16,11.88,11.88,0,0,0-1.72,1.06.22.22,0,0,1-.2-.2H2.05c0-.09-.2-.29-.2-.39a.19.19,0,0,1-.19-.19h-.1l-.1-.19H.69c-.4-.39-.69-.58-.69-1.17.1,0,.39-.29.48-.29v-.77c0-.1.29-.29.29-.39h.58c1,1,3,1,3.7-.39.58-.19,1.06-.67.86-1.26a13.24,13.24,0,0,1-.5-4.36c.19-.19,1.07-.87,1.06-1.16.29-.1.58-.58.78-.77,0-.2.09-.59.09-.78a13,13,0,0,1,2.82-.77,1.12,1.12,0,0,1,.67-.78c.1-1-.1-2.33.28-3.1,1.07,0,.87-1.16.87-1.94a.42.42,0,0,1-.29-.29c-.5-2,1-1.7,2.64-1.31-.25.11-.55.16-.84.26-.91.29.64,1.53,1.2,1.54.9,0,1,.79,1.79.74l.21.06a1,1,0,0,1,.3.18c.09.07.05.36.05.48a1.83,1.83,0,0,0,.08,1c.41.88,1.39-.94,1.94.21.29.6.84,0,1.32,0,.27,0,.5.43.53.43.66,0,1.65-.7,2-.46.77.61,1.48,1.7,2.21.24.22-.42,1.11-.38,1.51-.76.24-.24,1.63-1.21.22-1-.39.06-.79.65-1,.17,0-.06.53-1.55.8-1.63.69-.21.15-.33.16-.75s1.19,0,1.4,0,1.2.13,1.2-.29,0-.84-.47-.84.25-.87.08-1.26c-.47-1-.72-2.07.95-2.05,0-.45.78-.26.78.31s.31,1.2.82,1.27l3.55.61c.45.06,1.36-.76,1.22-1.27,0-.12-.33-.67-.17-.81.42-.42.74.39,1.12.73a1.71,1.71,0,0,0,.43-1c0-.53.46-.74.85-1s.2-1.26.18-1.89.93-.46,1.41-.67.4-.74.53-1.22,1-.85,1-.85a9.27,9.27,0,0,0,1.55-1.81c.13-.45,1.14-.49,1.3-1s.84-.47,1.36-.76.62-1.82.39-2.48a1.39,1.39,0,0,1,.52-1.61c.46-.32.17-1.07.38-1.43s-.05-.63.25-.84.34-.89.5-1.37.42-.38,1-.34A9,9,0,0,0,51.22.43,8.61,8.61,0,0,1,52.69.2,1.42,1.42,0,0,0,54.06.13c.7-.44,4.73.36,5.26.51a5.23,5.23,0,0,0,2.52,0,2.42,2.42,0,0,1,1.64.16s4.39.78,6.45,1.07a15.91,15.91,0,0,1,4.14,1.34c.43.92,2.11,1.34,3,1.49C79,5,80,6.6,81.63,7.16a9,9,0,0,0,2.22.37c.82,0,2.08,1.45,2.63.91,1.09-1.07,3,.72,3.9-.12,1.58-1.55,1.45,2.15,2,2.44.46,0,1.27.53,1.28-.15,0-.91,1.31.1,2-.23.45-.23.5.46.87.46s1.71-.2,2.08.06c.11.06.59.18.65.23.22.23.1.72.47.95.62.43,1,.33,1.26,1.13s-.45,2,.83,2.31A5.23,5.23,0,0,1,104.49,17c1,1,3.16-.36,4.1-.61l2-.6a10.11,10.11,0,0,0,1.8-.55,7.75,7.75,0,0,0,2.94-.53l2.25-3.25L120.66,10l3.47.36L126,10c1.08-.16,2.22.08,3.19-.39.51-.25,1-.58,1.54-.15a4.11,4.11,0,0,0,1.18.73c1,.49,1.52,1.44,2.86.94.4-.13,2.4-.88,2.39-.34l12.05-4.43c2.52.29,6,1.16,8.5,1.16-.13.52-2.13,1.35-1,2.41l1.09,1C158.11,11.12,159.38,11.83,159.38,12.23Z"/></g></g></svg>