<svg xmlns="http://www.w3.org/2000/svg" viewBox="0 0 36.48 22.72"><defs><style>.cls-1{fill:#c7eafb;fill-rule:evenodd;}</style></defs><g id="Layer_2" data-name="Layer 2"><g id="regije"><path id="solta" class="cls-1" d="M3.11.23a.34.34,0,0,0-.27.21c0,.09-.08.16-.24.16S2.44.51,2.35.33,2.14.2,2.08.3,2,.44,1.88.4s0-.05-.25-.27A.48.48,0,0,0,1,.12C.86.22.44.51.2.72s-.2.37-.2.37a1,1,0,0,0,.35.62c.31.23.62.43.77.54a2.3,2.3,0,0,1,.34.28c.06.07,0,.16-.11.15l-.4,0a.53.53,0,0,0-.33,0A.22.22,0,0,0,.59,3c.12.13.23.23.06.37s-.24.13-.26.25a.3.3,0,0,0,.2.29c.13,0,.24,0,.27.14s0,.22-.17.29a.48.48,0,0,0-.27.39.7.7,0,0,0,.19.46c.07.09.28.36.49.4a.43.43,0,0,0,.48-.15c.12-.16.2-.39.56-.44a.79.79,0,0,1,.65.1.15.15,0,0,1-.11.27,1.68,1.68,0,0,0-.61,0,.39.39,0,0,0-.15.29A.29.29,0,0,1,1.69,6a.84.84,0,0,0-.39.23L1,6.59c-.07.08-.2.25-.1.42s.19.22.29.24a.75.75,0,0,0,.3,0c.08,0,.35-.07.31.19s-.15.41,0,.56A.41.41,0,0,0,2.28,8a3,3,0,0,0,.34-.3.34.34,0,0,1,.47-.07c.2.15.41.42.69.47s.31-.06.58,0a1.09,1.09,0,0,0,.52.11c.14,0,.17-.07.22-.23s.05-.29.15-.35.2-.07.24-.18.08-.18.14-.16.1,0,.07.27a1.1,1.1,0,0,0,.1.74c.15.19.23.26.44.24s.31-.2.54,0,.31.22.43.11.15-.17.2-.21.09-.13.16-.09.09.13,0,.3a.43.43,0,0,0,0,.37c.06.08.17.07.23-.05s.1-.28.23-.26.19.06.26,0,.19-.16.25,0a.68.68,0,0,1,0,.4.32.32,0,0,0,.24.39.48.48,0,0,0,.58-.22.55.55,0,0,0,0-.34c0-.07,0-.15.08-.16s.2,0,.24.41,0,.39.14.49.23,0,.32-.13.17-.28.26-.24.1.16.06.27-.13.36,0,.46.26,0,.38-.16.14-.42.28-.42.15.05.14.25,0,.55.17.67a.32.32,0,0,0,.47,0c.12-.15.22-.36.35-.34s.18.14.1.28-.27.26-.26.45a.25.25,0,0,0,.29.26c.12,0,.15-.11.21-.2s.11-.31.24-.29.12.12.12.25a.62.62,0,0,0,.14.49.67.67,0,0,0,.47.28.71.71,0,0,1,.46.21.43.43,0,0,0,.59.09c.21-.16.2-.28.2-.36a.22.22,0,0,1,.08-.24A.25.25,0,0,0,15,11c0-.1-.12-.15-.17-.22s0-.17.09-.16.09.05.14.09a.24.24,0,0,0,.25.06c.09,0,.27-.05.26.1s0,.24.09.31.21.07.35-.06.13-.27.29-.21.09.24,0,.42a1.36,1.36,0,0,0-.44.85.52.52,0,0,0,.46.54.81.81,0,0,0,.6-.07.37.37,0,0,0,.15-.35c0-.17,0-.35.05-.38s.14,0,.2.13a.72.72,0,0,1,.17.52c0,.36,0,.48.1.66s.21.2.35.2.22-.11.3-.23.1-.23.2-.21.08.14.09.31-.07.62.19.73a.42.42,0,0,0,.44-.07l.55-.55a.18.18,0,0,1,.29,0c.07.12.05.18-.06.29s-.17.21-.13.3.18.09.25.07.24-.09.28.06,0,.27-.19.28-.41,0-.55.11a.43.43,0,0,0-.17.34.2.2,0,0,0,.22.18c.11,0,.31,0,.35.17s.17.28.32.22a1.33,1.33,0,0,0,.34-.18.19.19,0,0,1,.3,0c.05.13,0,.24-.12.4s-.21.27-.18.4a.23.23,0,0,0,.26.2c.17,0,.29-.08.38.14a.46.46,0,0,0,.47.34.77.77,0,0,0,.39,0c.07,0,.26-.18.26.06s-.14.33,0,.37a.48.48,0,0,0,.37,0,.48.48,0,0,1,.52.05,2.46,2.46,0,0,0,.9.24,2.13,2.13,0,0,1,1,.48c.13.11.14.25.27.31a7.54,7.54,0,0,0,.83.12c.39.1.56.36.68.33a.39.39,0,0,0,.23-.14c.07-.09.05-.22.15-.17s.11.17.09.43.06.91.4,1.06a1,1,0,0,0,.67.08.34.34,0,0,1,.36.17c.09.14.15.18.23.18s.19-.18.47-.16.3-.07.31-.16,0-.38.18-.48.23-.25.07-.34-.24-.2-.22-.29.07-.1.19-.08.23.06.32,0,.19-.17.28-.09.11.21,0,.47a3.46,3.46,0,0,0-.36,1.33,1.81,1.81,0,0,0,.65,1,.74.74,0,0,0,.69,0,.7.7,0,0,0,.41-.59,3.84,3.84,0,0,0,0-.59c0-.08,0-.25.12-.26s.18.11.2.28.06.53.1.67a1,1,0,0,1,.05.53c-.06.23-.12.3,0,.51a1.24,1.24,0,0,0,.57.42.29.29,0,0,0,.26-.07c.07-.06.16-.14.27,0s.19.32.33.32.2-.12.19-.24a.54.54,0,0,1,0-.39.61.61,0,0,0,.16-.4,5.34,5.34,0,0,1,0-.8,1.65,1.65,0,0,0,0-.59c0-.18,0-.44.17-.43a.47.47,0,0,1,.52.47,3.41,3.41,0,0,0,.25,1.2.6.6,0,0,0,.53.34.76.76,0,0,0,.62-.8A2.67,2.67,0,0,0,36,19.64a4.65,4.65,0,0,0-1.2-1.51c-.56-.38-.65-.33-.65-.33s-.09,0-.17.11-.11.31-.21.35-.18,0-.25-.19A2.13,2.13,0,0,0,33,17a7.5,7.5,0,0,0-1-.75c-.12-.05-.39-.11-.47-.14s-.09-.11,0-.17l.36-.35c.05-.06.09-.15,0-.17s-.27,0-.37,0a.25.25,0,0,1-.26-.23,3,3,0,0,1,0-.36c0-.08,0-.17-.26-.18h-.6a.29.29,0,0,1-.28-.13c-.07-.14,0-.24.19-.26a.76.76,0,0,0,.56-.26.47.47,0,0,0,.06-.5.44.44,0,0,0-.32-.17c-.15,0-.32-.05-.36-.32s0-.41-.19-.45a.33.33,0,0,1-.27-.22.63.63,0,0,0-.12-.38c-.13-.17-.21-.37-.08-.5s.22-.23.1-.54-.21-.45-.53-.43-.25.06-.52,0-.36-.2-.46-.11a1.52,1.52,0,0,0-.22.21.3.3,0,0,1-.34.05.3.3,0,0,1-.1-.45c.13-.14.35-.27.34-.44a.46.46,0,0,0-.26-.36,2.1,2.1,0,0,0-.38-.16c-.1,0-.2-.06-.22-.26a.58.58,0,0,0-.25-.41,1.51,1.51,0,0,0-.9-.29c-.18,0-.31,0-.38-.15s0-.25-.11-.39a1.26,1.26,0,0,1-.12-.42A.59.59,0,0,0,25,6.84c-.21-.15-.37-.23-.41-.27s-.15-.05-.14-.22a1.57,1.57,0,0,0,0-.45.45.45,0,0,0-.26-.25c-.1,0-.24,0-.27-.23a1.07,1.07,0,0,0-.19-.5.42.42,0,0,0-.43,0c-.07.05-.27.18-.26.39a.79.79,0,0,0,.18.42.26.26,0,0,1,0,.34c-.1.15-.13.21-.08.37a1.34,1.34,0,0,1,0,.63,1.11,1.11,0,0,1-.34.7c-.2.13-.34,0-.4-.08s-.09-.43-.22-.44-.24.08-.33.14-.23.17-.42.3-.55.22-.55.5V8.5a.56.56,0,0,1-.1.27.12.12,0,0,1-.21,0,.51.51,0,0,1,0-.22.35.35,0,0,0-.22-.32C20.06,8.09,20,8,20,7.92s.08-.15.23-.07a.22.22,0,0,0,.32-.06.2.2,0,0,0-.06-.28c-.12-.1-.37-.16-.42-.23s0-.16.11-.16.5.11.69,0,.3-.19.33-.4A.35.35,0,0,0,21,6.29c-.17-.08-.32-.12-.33-.22s.08-.17.23-.21a1.12,1.12,0,0,0,.45-.29A1,1,0,0,0,21.53,5a.35.35,0,0,0-.25-.38c-.19,0-.34-.05-.47-.24a1.2,1.2,0,0,0-.52-.4c-.17-.07-.39-.09-.5-.13s-.43-.19-.53.05a.48.48,0,0,0,0,.42c0,.09.12.21,0,.26s-.29.06-.25.22.07.29-.07.41-.29.22-.41.18-.1-.13,0-.24.08-.22,0-.27-.24,0-.31-.09,0-.11.11-.22a.3.3,0,0,0,.06-.39c-.06-.1-.11-.21-.36-.15s-.24.14-.4.08A3.22,3.22,0,0,1,17.21,4c-.13-.06-.29,0-.34-.12s.11-.16.25-.19a1.74,1.74,0,0,0,.45-.17A.5.5,0,0,0,17.65,3c-.07-.17-.26-.23-.49-.22s-.38.13-.6.1-.25-.06-.33-.21,0-.49-.4-.69-1.37-.73-1.69-.85A1.81,1.81,0,0,0,13.37,1c-.16,0-.36.12-.45.13a.45.45,0,0,0-.31.12c-.07.1-.16.26-.26.24s-.11-.15,0-.25a.28.28,0,0,0,0-.36.57.57,0,0,0-.57-.26,2.63,2.63,0,0,1-.92-.1A3.51,3.51,0,0,0,9.35.09,5.21,5.21,0,0,1,8.16.21c-.34,0-.32,0-.55,0S7.38,0,7.1,0a1.27,1.27,0,0,0-.69.11c-.14.12-.21.24-.3.25A.42.42,0,0,1,5.88.3S5.73.15,5.6.15a3.23,3.23,0,0,0-.77,0,1.7,1.7,0,0,1-.45.22c-.09,0-.15,0-.24-.13A.36.36,0,0,0,3.78.13Z"/></g></g></svg>