<svg xmlns="http://www.w3.org/2000/svg" viewBox="0 0 187.89 121.03"><defs><style>.cls-1{fill:#6dbce3;fill-rule:evenodd;}</style></defs><g id="Layer_2" data-name="Layer 2"><g id="regije"><g id="split"><path class="cls-1" d="M176.47,101.89l-.13.28-.34,1.35-.11,1.59,5-.53.12,0,1.21,1.12,1.56,4,.26.71.1.26,2.75,3.23,1,1.12-2.77-.13-3,2-1,.43-1.31.82-.62,1.86-.66.64-.14.17-.27.33a1.54,1.54,0,0,1-.19-.84,2.6,2.6,0,0,0-.54-1.15,4,4,0,0,1-.48-.88,4,4,0,0,1-.25-.82c-.13-.53-.11-.36-.47-.93s-.66-.27-1-.42-.2-.47-.25-.88-.12-.26-.34-.71-.56-.42-.77-.51a1.64,1.64,0,0,1-.67-.53,1.93,1.93,0,0,0-.74-.65,6.38,6.38,0,0,0-1.72-.9,11,11,0,0,0-2.51-.18c-.77-.13-.65-.85-.85-1.1s-.56-.08-1.07-.13a1.48,1.48,0,0,1-1-.67c-.28-.3-.28-1-.48-1.71s-.57-.6-1-.7a2.68,2.68,0,0,1-.93-.44,7.51,7.51,0,0,1-1.29-1,.84.84,0,0,0-.71-.3.42.42,0,0,1-.39-.22c-.09-.17,0-.48,0-.72s-.37-.32-.6-.34a.65.65,0,0,0-.46.11.76.76,0,0,1-.41.12c-.18,0-.35-.23-.53-.43a.66.66,0,0,1-.21-.46.26.26,0,0,0-.33-.23c-.17,0-.28.26-.39.43s-.28.19-.35.12-.23-.12-.33-.23-.21-.18-.31-.31-.53-.49-.66-.61-.21.11-.24.14-.05,0-.21.07a.74.74,0,0,1-.57-.23c-.18-.17-.22-.32-.25-.69s-.25-.32-.57-.34a.72.72,0,0,1-.56-.38c-.14-.18-.41-.15-.73-.18a2.35,2.35,0,0,1-1-.35,2.4,2.4,0,0,0-.64-.29c-.41-.15-.33-.16-.87-.56s-.7-.41-.95-.4a2.88,2.88,0,0,0-.86.36,1.45,1.45,0,0,1-1-.1c-.35-.1-.4.06-.64.07s-.44-.16-.67-.37-.21-.28-.22-.42a.44.44,0,0,0-.1-.38c-.15-.19-.4-.07-.47,0a1.19,1.19,0,0,1-.63.06,3.84,3.84,0,0,1-1.26-.66,4.65,4.65,0,0,1-1-1c-.3-.4-.14-.85-.31-1.47s-.72-.5-1-.56-.31-.26-.42-.6a1,1,0,0,0-.66-.69,1.41,1.41,0,0,0-.69-.12.45.45,0,0,1-.36-.25c0-.07-.07-.11-.27-.08a.94.94,0,0,0-.59.26c-.13.16,0,.38-.25.37a.38.38,0,0,1-.32-.3,2.14,2.14,0,0,0-.24-.68c-.17-.24-.29-.16-.41-.16a1.2,1.2,0,0,1-.47-.2l-1-.74c-.51-.37-1.11-.64-1.48-.92a2.6,2.6,0,0,0-.8-.51c-.43-.18-.36-.64-.33-.87a4.18,4.18,0,0,0-.07-.83,1.87,1.87,0,0,0-.22-.71c-.19-.12-.34-.22-.32-.48a9.36,9.36,0,0,1,0-1.19c0-.23,0,.16-.08-.29a1.68,1.68,0,0,0-.73-.89.69.69,0,0,0-.37-.08l-.37.18c-.19.1-.23.22-.8.12a2.88,2.88,0,0,1-1.48-1c-.37-.43-.71-.2-1.14-.21a1,1,0,0,1-.79-.48c-.2-.23-.16-.39-.17-.88a2,2,0,0,0-.43-1.23c-.26-.35-.62-.15-.85-.17s-.33-.27-.37-.46a.91.91,0,0,0-.25-.51c-.14-.13-.35-.1-.63-.27s0-.66,0-.66a2,2,0,0,0,.07-.44c0-.2-.14-.34-.23-.58a2.53,2.53,0,0,1-.24-.72,3.19,3.19,0,0,0-.15-1c-.17-.31-.5-.87-.79-1.28a2.6,2.6,0,0,0-1.24-1.14c-.33-.11-1.35-.47-1.59-.59a3.18,3.18,0,0,1-.78-1c-.19-.36-.37-.19-.53-.19a.39.39,0,0,1-.29-.16c-.07-.06-.26-.28-.68-.71a2.73,2.73,0,0,0-.84-.58,4,4,0,0,1-.94-.74c-.29-.35.08-.41.14-.52s.26-.21.32-.41a1.06,1.06,0,0,0-.24-.62.53.53,0,0,0-.29-.11c-.2,0-.24.11-.23.24a.24.24,0,0,1-.11.25,1.06,1.06,0,0,1-.53,0,1.66,1.66,0,0,1-.51-.31c-.1-.09-.24,0-.28-.09a.17.17,0,0,1,0-.14l.05-.06a.12.12,0,0,1,.15,0c.06,0,.17-.05.23,0a.56.56,0,0,0,.39-.08c.08-.1.17-.32,0-.9s-1.28-1.08-1.5-1.24a2.34,2.34,0,0,1-.86-.94,2.35,2.35,0,0,0-.85-1.25,1.34,1.34,0,0,1-.35-.47,1.36,1.36,0,0,0-.39-.64,9.33,9.33,0,0,1-1.39-1.12,6.78,6.78,0,0,1-.68-1.09,1,1,0,0,0-.52-.45,2.64,2.64,0,0,1-.63-.62,1.57,1.57,0,0,1-.27-.72c-.1-.34-.24-.25-.41-.33a1.33,1.33,0,0,1-.52-.41c-.21-.25-.36-.27-.62-.49a2.34,2.34,0,0,1-.56-.67,1.42,1.42,0,0,0-.34-.43,3.37,3.37,0,0,1-.53-.73,1.75,1.75,0,0,0-.58-.64,1.17,1.17,0,0,1-.34-.66,4,4,0,0,0-.44-.75,1.24,1.24,0,0,1-.1-.76c0-.15-.09-.08-.16-.09a.33.33,0,0,1-.18-.17c-.05-.07.07-.15.13-.19s0-.13,0-.13a1.11,1.11,0,0,0-.4-.42c-.34-.24-.48-.11-.83-.12s-.32,0-.51-.26-.4-.53-.7-.92-.43-.36-.64-.38-.28,0-.45-.35c-.24-.55-.76-.25-.94-.41s-.07-.55-.23-.83a1.4,1.4,0,0,0-.65-.62c-.37-.24-.42-.25-.6-.6a.63.63,0,0,0-.58-.43c-.26-.06-.27-.05-.55-.32s-.33-.19-.56-.27-.1-.06-.52-.49a7.12,7.12,0,0,0-1.07-.82l.27-.21c.16,0,.32-.16.47-.16,0-.31-.16-.78-.16-1.1-1-.47-1.11-2.83-.8-3.77.47,0,.63-.63.94-.63,0-.32.31-.63.31-1l.16-.15a4,4,0,0,0,.79-.32c1.42,0,2.51-1.1,3.78-1.1l.15-.31c.95,0,1.73.2,2.36-.59.64,1,1.33,1.86,1.75,2.48,1.1,0,1.27,3,1.28,3.77.16,0,.31.16.47.16,0,.47.32.63.64.78,0,.32.63.95.79,1.11v.31l.32.16A.56.56,0,0,0,107,45l.79,2.36h.79a6.19,6.19,0,0,0,2.06,1.42c0,.31.47.47.63.47,0,.31.48.63.63.63.32.94,2.54,3,3.17,3.61a2.44,2.44,0,0,1,1.27.63h1.1a8,8,0,0,1,1.89-.15c.16.15,1.9,1.73,2.38,1.73,0,.15.16.31.16.47,1.42.31,3.32,3.14,4.43,3.14,0,.32,0,1.73-.47,1.73,0,.79.48,2.68,1.43,2.68,0,.47.63.94.64,1.41,1.57-.47,6.31,1.42,6.95,2.68.15,0,.47.15.63.15.16.16.32.48.47.63h.32c0,1.1,1.9,2.68,2.07,3.78h.31l.48,1.26a7.3,7.3,0,0,1,2.38,2.51h.31c0,.63-.15,1.26-.15,1.89a4.73,4.73,0,0,0,2.69,1.89c0,.15.32.47.32.63H145c.64.62,1.44,4.4,1.44,5.19.48,0,1,1.1,1.59,1.1.31.63,2.52.94,2.53,1.88l.31.16A2.3,2.3,0,0,0,152,90.43a6.44,6.44,0,0,1-.78.16c0,.47-.16,1.26-.15,1.89.94,0,1.77.72,2.72.72l2.31-2.77a6.82,6.82,0,0,1,2.07,4.72l.32.16v.31c1.11.48,3-.15,3.95.48v.15c.15,0,.63.32.79.32a13.05,13.05,0,0,1,.79,1.26c1.42,0,2.84.63,3.95.63.95.94,3.15,1.41,4.57,1.41,0,0,.48.16.48.47.47,0,1.26.32,1.74.32.31.31,1.1.31,1.1.79.32,0,.48.15.63.15A2.13,2.13,0,0,1,176.47,101.89Z"/><path class="cls-1" d="M73.24,7.43a9.13,9.13,0,0,0,1.3.91c.16.47.79.94.8,1.26,2.21.78,6.15,1.88,7.9,3.61,1.1,0,3.78.16,4.41.79-.31.47-.94.47-1.25.79,0,.78.49,4.71-.3,5v.31l-.31.16c0,2.2-.77,4.25-.76,6.45h3.78c.48.63.33,1.88.33,2.67a7.81,7.81,0,0,0,3.63,1.73V33a14.38,14.38,0,0,0-1.57,1.26H90.9v1.25a2.1,2.1,0,0,1,.79.48v2c-.32,0-.47.47-.47.63h-.32a17,17,0,0,1-.42,3.51c-.13.1-.17.24-.75.25a6.87,6.87,0,0,0-1.31.34,2.81,2.81,0,0,1-1.13-.23,2.43,2.43,0,0,0-.79-.1,1.42,1.42,0,0,1-.62-.17,3.07,3.07,0,0,0-.63-.15,3.29,3.29,0,0,1-.48-.13c-.09,0-.18-.13-.28-.15s-.46.06-.83,0a5,5,0,0,0-1.34,0,3.91,3.91,0,0,1-1.07.16,3.76,3.76,0,0,1-1.05-.18,5.87,5.87,0,0,0-1-.14c-.18,0-.38-.23-.57-.3a4,4,0,0,0-.54-.1c-.25-.1-.35-.08-.44,0s-.06.07-.25.07-.29-.14-.48-.25-.28-.1-.38,0a1.73,1.73,0,0,1-.39.18.85.85,0,0,1-.44.07c-.28,0,0-.15-.27-.23S75,40.91,74.8,41s-.52.29-.7.29-.32-.15-.56-.28-.53-.24-.35-.34c0-.13-.36-.11-.46-.11l-.6,0a.59.59,0,0,0-.44.14.44.44,0,0,1-.38.18c-.22,0-.35-.11-.56-.35a1.34,1.34,0,0,0-.83-.35,10.71,10.71,0,0,0-1.15-.16,2.12,2.12,0,0,0-1.48.34,1.51,1.51,0,0,1-.94,0,1.09,1.09,0,0,1-.65-.19,1,1,0,0,0-.61-.19c-.12,0-.2-.05-.33-.21a1.24,1.24,0,0,0-.56-.26,4.65,4.65,0,0,0-.61-.19c-.34-.07-.51,0-1.06-.13A4.88,4.88,0,0,0,61.6,39c-.18,0-.23,0-.28-.4s-.4-.31-.57-.29a.63.63,0,0,1-.51-.06c-.2-.12-.17-.4-.28-.65s-.43-.19-.8-.32-.34-.38-.42-.76-.25-.41-.42-.75-.07-.3-.06-.56-.18-.19-.35-.23-.11-.18-.17-.35a2.93,2.93,0,0,0-.33-1.23A4.66,4.66,0,0,0,56,31.5c-.27-.2-.51.16-.59.24s-.1.14-.26.2-.28-.09-.26-.19a1.18,1.18,0,0,1,.21-.42c.09-.12.42-.47.3-.55s-.38.34-.58.49-.22.2-.26.32a1.46,1.46,0,0,1-.2.36c-.09.14-.36.11-.6.1s-.24.2-.49.27a5.51,5.51,0,0,1-1.05.12c-.47,0-1.06,0-1.35,0a5.25,5.25,0,0,1-1.2-.28,2.56,2.56,0,0,0-1.24-.27,3.23,3.23,0,0,0-1,.34c-.19.13-.21.22-.45.32a.53.53,0,0,1-.65-.09.61.61,0,0,1-.25-.5,1.12,1.12,0,0,0-.31-.85c-.31-.32-.36-.23-.73-.3s-.39.09-.8,0-.66-.74-.84-1.15a1.44,1.44,0,0,0-.9-.89,2.84,2.84,0,0,1-.9-.48c-.42-.21-.75-.21-1.2-.42a5.51,5.51,0,0,1-1.21-.69c-.38-.28-.78-.06-1.11.06a.4.4,0,0,1-.5-.12,7.6,7.6,0,0,1-.76-.75c-.28-.33-.38-.27-.5-.26h-.79c-.48,0-.58-.24-.78-.41a13.5,13.5,0,0,1-1.25-1.35,1.46,1.46,0,0,0-.81-.58,1.71,1.71,0,0,1-.68-.44,10.31,10.31,0,0,1-1.07-1.39,2.41,2.41,0,0,0-1-.75,2.1,2.1,0,0,1-.79-.48,3.89,3.89,0,0,0-.73-.54c-.23-.11-.19-.16-.38-.39a2.38,2.38,0,0,0-.58-.56c-.4-.31-.44-.63-.59-1.77a2.83,2.83,0,0,0-.4-1.23.82.82,0,0,0-.47-.35c-.33-.08-.28.12-.26.36s-.1.35-.34.29-.21-.13-.54.08-.17.34.1.5.24.3-.06.41-.38,0-.82-.43a1.46,1.46,0,0,0-1.34-.33,4.49,4.49,0,0,1-1.6-.15,2.05,2.05,0,0,0-1.64.39l-.2.05a1.68,1.68,0,0,1-.71-.08,3.35,3.35,0,0,0-.94,0,1,1,0,0,1-.57-.16l-.29-.15h-.43l-.22.07.18.18-.49.2-.13.18-.17,0,0-.15-.16,0v-.13h-.12c-.13.09-.17.2-.38.23s-.3-.14-.48-.2-.35.08-.55.17a.77.77,0,0,1-.39.11c-.12,0-.82.06-1,0s-.39,0-.61,0a.84.84,0,0,1-.52-.28.59.59,0,0,0-.54-.09c-.16,0-.2.41-.18.54s-.31.06-.4-.06a.74.74,0,0,0-.35-.15h-1l0-.22h1l.05-.2-.35-.05,0-.24h.4l0-.24-.39.09,0-.12.37-.13-.18-.27-.48,0v-.12h.22l0-.09s-.12,0-.34-.1a.53.53,0,0,0-.6.07c-.12.1-.78.6-.86.7s0,.15,0,.28-.2.21-.2.21l-.16,0,0,.13.28.15.06-.23.09,0-.05.31.2.08-.06.12s-.31-.12-.37-.13l-.37,0a.86.86,0,0,1-.36-.07c-.1,0-.16-.21-.15-.37s-.2-.16-.28-.16-.09.2-.09.2-.5-.18-.51-.24-.13-.08-.25-.08a.81.81,0,0,0-.41.07.46.46,0,0,1-.38.05,2.55,2.55,0,0,0-.52-.11c-.11,0-.16-.14-.24-.14s-.12.14-.12.14-1-.13-1.13-.19-.22-.14-.19-.27-.08-.21-.11-.4-.3-.2-.39-.2a2.15,2.15,0,0,0-.71,0,5.57,5.57,0,0,1-1,0c-.21,0-.2-.17-.2-.26s.13-.32.46-.39a5.18,5.18,0,0,0,1.12-.72A.77.77,0,0,1,1.9,14c.1,0,.31-.11.42-.13a.17.17,0,0,0,.13-.22.18.18,0,0,1,.08-.17,1.65,1.65,0,0,1,.34-.12c.13,0,.16.1.24.18s.36.16.43.09.53,0,.63,0l.45,0,1.23.06V13.4H6v.24l.48-.07A1.4,1.4,0,0,0,7,13.26l.45-.65-.16-.12,0-.16H6.91v-.16l.49,0s-.11-.1-.18-.1a.42.42,0,0,1-.27-.17.32.32,0,0,0-.35-.05.8.8,0,0,1-.36,0c-.16,0-.14-.24-.13-.44s.5-.34.5-.34l0-.3h.12l0,.37L8,11.2v-.11l-.11,0,.09-.38H8l0-.23-1-.21-.64.39-.07-.1.68-.41s1,.18,1.1.23a.38.38,0,0,0,.29,0,1.2,1.2,0,0,1,.38-.08.56.56,0,0,0,.3-.12.47.47,0,0,1,.37,0c.11,0,0,.16-.07.21a1.12,1.12,0,0,0-.23.29l.16.23c.09.12.37.09.37.09l0,.33h.1l.1-.33h.13l0-.13h.09l0,.28h.07l.07-.18h.08l-.17.45.14.05.19-.6,0-.29a4.26,4.26,0,0,1,.18-.47c.07-.14-.06-.36-.06-.36l.11,0a.91.91,0,0,0,.17.16.7.7,0,0,1,.27.22c.09.11-.05.35-.05.35s0,0,.13,0,.19-.26.19-.26l-.07-.13.09,0,.11.11.3,0a.7.7,0,0,1,.38.12,1.26,1.26,0,0,0,.69,0c.1,0,.21,0,.36.14s.43-.14.56-.22a.88.88,0,0,1,.43,0l1.23.23c.23.06.28,0,.23-.06.63,0,3.6-1.25,3.92-.62a7.14,7.14,0,0,0,.79.16c0,.16.32.31.48.31l.15.32c.48,0,.79.31,1.27.31.16.32.63.32.95.32l.15.31a3.24,3.24,0,0,0,2.69.32c0-.16.15-.47.15-.63.16,0,.47-.63.47-.94.16,0,.32-.16.47-.16,0-.16.16-.32.16-.47a3.2,3.2,0,0,0,1.1-1.42c.31-.16.62-.63.94-.94,0-.47.28-1.05.28-1.52a7.39,7.39,0,0,0,3.17-1.78c2.21.63,4.9,2.2,7,2.51,0,.16.16.32.16.48.32,0,1.11.78,1.42.78,0,.16.32.47.48.63.47,0,.47.16.63.47.79,0,1.43.79,2.21.79.16-.16.16-.47.48-.47.07-.24.39-.91.68-1.55a8,8,0,0,0,.56-1.44c1.26-.31,2.36-2.67,3.46-2.67,0-.16.16-.47.16-.63.31,0,.31-.32.47-.32,0-.15,0-.31.15-.31.45.38,1.83.16,2.21.16A7.54,7.54,0,0,0,53.54.63l.15-.16H55L55.43,0H58.9V.47a3.32,3.32,0,0,1,.63,1.26c.32,0,.95,1.1,1.27,1.26,0,1.41,4.11,2.2,4.12,4.4.31,0,.47.63.47.63v.63c.31.31.79,1.89,1.58,1.89a2.26,2.26,0,0,1,.32.63h.47c.63-.16,1.42-.63,2-.79,0-.79,1.26-.47,1.26-1.26A6.91,6.91,0,0,0,73.24,7.43Z"/></g></g></g></svg>