<svg xmlns="http://www.w3.org/2000/svg" viewBox="0 0 168.13 159.84"><defs><style>.cls-1{fill:#e96c30;fill-rule:evenodd;}</style></defs><g id="Layer_2" data-name="Layer 2"><g id="regije"><path id="srijem" class="cls-1" d="M87.25,12a8.87,8.87,0,0,1,2.13,1.15,9,9,0,0,1,1,1,6.15,6.15,0,0,1,1.15,1.19,3.38,3.38,0,0,1,.48,1.5A3.12,3.12,0,0,1,91.47,19c-.51.69-.81,1.22-1.33,1.35a4.07,4.07,0,0,1-1,.18,7.31,7.31,0,0,0-1,.06c-.42,0-1.52.08-2.11.2s-2.07.51-2.07.51a7.78,7.78,0,0,1-.79.6,6.17,6.17,0,0,0-.82.76,3.42,3.42,0,0,0-.64,1.89,4.22,4.22,0,0,0,1,3.28,22.85,22.85,0,0,0,3,2.29c1.1.71,2.53,1.55,2.53,1.55s.64-.45,1-.33a3.51,3.51,0,0,1,1.13.69,3.65,3.65,0,0,0,2,1.14c1,.13,2.52.33,3,.36a1.26,1.26,0,0,1,.83.24,2.56,2.56,0,0,1,.58.51l.13.62,1.67.32,1.83,0,1.85.52a7.74,7.74,0,0,1,1.68,1.12,5.84,5.84,0,0,1,.93,2c.07.68.22,1.52.22,1.52v.94l-.13.73a14.11,14.11,0,0,0,.54,1.78l.75,1.8s1.07,1,1.42,1.24a16.93,16.93,0,0,0,1.7,1,9.43,9.43,0,0,1,1.73.88,18.12,18.12,0,0,0,4.33,2.15,14.14,14.14,0,0,1,3,1l1.78,1.14.79.29a2.2,2.2,0,0,1,1.44.11,3.07,3.07,0,0,0,1,.44l.54-.48,2.43.17.76.11a10.46,10.46,0,0,0,2.46-.86,6.47,6.47,0,0,0,2.58-2.25c.47-1,.75-1.06,1.39-1.29a2.45,2.45,0,0,1,1.95.12c.45.3,1.16.85,1.22,1.47a3.41,3.41,0,0,1-.73,2.44,9.43,9.43,0,0,0-1.69,3,3.54,3.54,0,0,0-.08,1.83c.13.42.27.78.27.78l2.62.75.26,0a11.43,11.43,0,0,0,3.26.61,8.38,8.38,0,0,1,2,0l1.45.19,3.94.37.44.17,1.47,0a13.3,13.3,0,0,0,2.87,0c.68-.21.8-.23,1.06-.19a2.53,2.53,0,0,0,1.1.06,2.48,2.48,0,0,1,.87-.11c.18,0,2.72-.33,2.72-.33a8.13,8.13,0,0,1,1.36-.14,4.15,4.15,0,0,0,.85,0L163,60l.41,2.15,1.23,2.13,2.92,4.16.56.81-.94.72-1.14,0,0,.79-.4.4-.82.33a18.56,18.56,0,0,0,.91,2.4,9.54,9.54,0,0,1,.58,1.22,2.89,2.89,0,0,0-.78.45c-.31.28-.31.5-.57.61a2.63,2.63,0,0,1-.8.37c-.28,0-.38,0-.52.15a3.21,3.21,0,0,0-.26.3,2.07,2.07,0,0,0-.64-.27,9.46,9.46,0,0,1-1-.41L160.38,76l-.06.2-2.24-.75s-.46-.14-.6,0a.78.78,0,0,1-.58.29c-.2,0-1.78.08-1.78.08l-.06.32-.86-.29-.7-.88-.15.51-.64.17.13.62-.94.35.09,1-.94.07-.43-1.9-3.1-1.06.27-1a.47.47,0,0,0,0-.56,5.11,5.11,0,0,1-1-1.55c-.23-.64-.65-1.72-.85-2.16a2.31,2.31,0,0,1-.18-1.12,2.32,2.32,0,0,0-.11-.83.73.73,0,0,0-.9-.39,7.7,7.7,0,0,1-1.57.4c-.42,0-3.36.43-3.36.43l-.33-.2-.16.1-.46-.37.44,1.82a1.43,1.43,0,0,0,.39.74,4.62,4.62,0,0,1,.39.33l-.22.45-.76-.11-.36.28s.92,1.5,1.33,2,1,1.54,1,1.54a1.87,1.87,0,0,0,.06,1c.2.38.45.82.45.82s-.38,0-.49-.1-.56-.35-.68-.11a.54.54,0,0,1-.66.35c-.42,0-1.54-.06-1.54-.06l-.9-1.1a4,4,0,0,0-1.14.22,1.41,1.41,0,0,1-.88.29,2.3,2.3,0,0,0-1.23.08,7.35,7.35,0,0,1-.75.31l-.5-1.2-1.66.68a12.51,12.51,0,0,0-.77-1c-.21-.22-.61-.6-.61-.6l-.13-.32-.44-.39s-1.91-.2-2.28-.6a3.57,3.57,0,0,0-1.28-1,5.62,5.62,0,0,1-1.33-.94,1.86,1.86,0,0,0-.73-.48,2.22,2.22,0,0,1-.73-.59,1.75,1.75,0,0,1-.21-.28,1.36,1.36,0,0,1-.72,0,.51.51,0,0,0-.6,0c-.2.14-.8.35-1,.19a1.39,1.39,0,0,1-.31-.42l-.93.64s-.28.6-.49,1.15a8.67,8.67,0,0,0-.31,1.49L121.69,74l1.72,1.2-.81,2.54-.39.77L120,81.29l-1.6,2-3.94,4.55-3.93-.81-1.09-1-2.91-1-2-.68.28,1.76-1.15,1.06s.13.54,0,.78a9.11,9.11,0,0,0-.45.83L103,92.34a6.6,6.6,0,0,1,1,.33,2,2,0,0,0,.36.23l-.32.33.29.66.67.11,1.06,1.29s-.18.4,0,.56a.61.61,0,0,1,.13.84,5.05,5.05,0,0,0-.37.77,5.87,5.87,0,0,0,.68,1,8.38,8.38,0,0,1,.77,1s.19.42.41.44a2.44,2.44,0,0,1,.67.35l.18.52a17.11,17.11,0,0,1-.83,2.6,6.65,6.65,0,0,0-.66,1.69c-.13.47-.25,1.15-.25,1.15a1.26,1.26,0,0,1,.69.13c.24.16.48.36.48.36l0,.44.52.12,0,.3.3.17a2.24,2.24,0,0,1-.27.83c-.18.2-.4.31-.4.53a1.24,1.24,0,0,1-.09.76,6.87,6.87,0,0,1-.67.81l-.45.53.25,1.06.54.21-.11.63.27.5v.26h-.22a3.12,3.12,0,0,0,0,1.25,6,6,0,0,1,.4,1.42,4.27,4.27,0,0,0,0,.5l.58,1-1.11,1.28-.51,2.7-1.16.37-.18.47a1.58,1.58,0,0,0-.37.38c-.12.19-.61.91-.61.91l-1.34.4a3.83,3.83,0,0,0-.86.31,6.91,6.91,0,0,1-.94.4l-1.1.61-.28.21a.85.85,0,0,1,0,.52c-.1.24.06.46.66.65a5.69,5.69,0,0,1,1.22.52,1.1,1.1,0,0,0,.56.1,2.21,2.21,0,0,1,.78.18,1.19,1.19,0,0,0,1.26.13,2.81,2.81,0,0,1,1.43-.53.94.94,0,0,1,.91.33,1,1,0,0,0,.91.27,10.21,10.21,0,0,1,1.78.07c.51.13,1.29.25,1.56-.31s.11-.71.77-1a10.92,10.92,0,0,0,2-.84c.4-.29.87-.7,1.28-.68a1.2,1.2,0,0,1,.83.41c.23.2.46.45.67.62a1.16,1.16,0,0,1,.29.3,10.09,10.09,0,0,1,.08,1.07,5.77,5.77,0,0,0,0,.84,2.36,2.36,0,0,1,.09.73c0,.27,0,1.27,0,1.41a2.51,2.51,0,0,1-.07.53.62.62,0,0,0,.48,0,2.64,2.64,0,0,1,.76-.17l.07.48a.41.41,0,0,0,.17.36c.2.12.46.28.18.42l-.62.29v.24l-1.56,1s-.2.19,0,.35a.18.18,0,0,1,0,.3.43.43,0,0,0-.08.46,2.24,2.24,0,0,1,.09.34,3.11,3.11,0,0,1-.94.37c-.38,0-1.22.14-1.22.14a3.88,3.88,0,0,0-1.54.6,6.51,6.51,0,0,1-1.25,1,2.31,2.31,0,0,1-.66.29.58.58,0,0,0-.53-.26,1.94,1.94,0,0,0-.73.41l0,.24-.48.41-.28-.08-2.11,1.23,0,.33-.42.2-.17.89.23.23.52.16-.11.44-.55-.05-.22.22-.41.61,1.15.69-.81,1.15s-1.3,0-1.54.36-.81,1.18-1.31.9-1.5-1-1.5-1a6.17,6.17,0,0,0-1.25-.87,3.65,3.65,0,0,1-1.5-1c-.29-.44-1.23-1.59-1.23-1.59a1.23,1.23,0,0,0-1-.55,7.52,7.52,0,0,0-1.74.24,6.18,6.18,0,0,0-1.34.34,1.63,1.63,0,0,0-.68.51l-2,1,0,.42-.27.61-.28.14-1,1.2.39.7.27,2.18,1.41,2.25.65.13.8,1.7,2.78,5.51s-1.35.12-1.77.1a4.5,4.5,0,0,0-1.74.3c-.27.11-1,.3-1.82.58a11.66,11.66,0,0,1-3.71.79c-2.47,0-4.43.06-4.43.06a24.87,24.87,0,0,1-3.15.09c-.7-.11-3.24-.37-3.24-.37s-3.25-.09-4.82,0a36.17,36.17,0,0,1-5.41,0A6,6,0,0,1,63.5,158a21.86,21.86,0,0,1-2.08-2.56,5.19,5.19,0,0,0-2.61-2.39,11.86,11.86,0,0,1-4.5-2.15c-1.11-1-2-1.78-2-1.78A8.7,8.7,0,0,0,50.75,148c-.63-.27-1.54-1-1.63-1.62a1.94,1.94,0,0,1,.42-1.7c.44-.41,1.14-.88,1.16-1.38a1.11,1.11,0,0,0-.68-1.09,8.43,8.43,0,0,1-2.32-1.64,3.82,3.82,0,0,1-.92-1.75c-.1-.62-.05-1.33.4-1.57s.93-.55,1.51-.17a19,19,0,0,0,3,2,5.34,5.34,0,0,0,2.39.14c.9-.15,1.93-.37,2.12-1.28a2,2,0,0,0-.58-2.21c-.68-.51-1.72-1-2.06-1.59a12,12,0,0,1-.73-2.33c-.16-.6-.41-2.23-.41-2.23a2.08,2.08,0,0,1,.42-1.52,5.46,5.46,0,0,0,1.37-2.42c0-.7-.16-1.77-1.38-1.85a18.16,18.16,0,0,1-2.61-.23c-.53-.14-1.83-.53-1.83-.53a1.78,1.78,0,0,0-1.63.17,11.87,11.87,0,0,1-2.46,1.85,2.2,2.2,0,0,1-1.84-.21,1.49,1.49,0,0,1-.34-2,14,14,0,0,0,1.27-2.13c.26-.81.6-1.83-.11-2.21s-2.48-.84-2.79-2.24-.53-2.73-2-2.68-2.14.17-3.21-.65-1.29-1.38-2.05-2A12.61,12.61,0,0,1,31,108.53a1.77,1.77,0,0,1,.52-2.07c.81-.54,1.65-.69,2.11-1.32a2.42,2.42,0,0,0,.23-2.58,21.61,21.61,0,0,0-1.15-2.08s-.71-.9-1.37-.91a1.85,1.85,0,0,0-1.8,1c-.45.84-1.45,2.79-1.41,3.59a2.73,2.73,0,0,0,.66,1.61,3.1,3.1,0,0,1,.72,1.42c0,.55-.08,1.73-.58,2a1.6,1.6,0,0,1-1.6-.23l-1.12-.81a2,2,0,0,0-1.67-.3,11.1,11.1,0,0,1-3.16.39,2,2,0,0,1-1.62-1,1.68,1.68,0,0,1,.62-1.87,23.29,23.29,0,0,1,3-2c.6-.25.9-.33,1.17-.86s.63-1.62,0-2.12a6.73,6.73,0,0,0-1.23-.82s-1.17-.39-1.23,1.13-.06,2.29-.82,2.58a3.4,3.4,0,0,1-1.87.25,3.75,3.75,0,0,1-1.8-.72L16.4,101.3a1.59,1.59,0,0,0-.75-.68c-.53-.22-1.8-.57-1.8-.57s-.72-.27-1,.26,0,1.08.48,1.53S15,103.3,15,103.3a1.57,1.57,0,0,1,.53,1.6c-.25,1-.58,2.25-1.19,2.31s-.86-.46-.95-1,0-2.11-1.16-2.92a17,17,0,0,1-2.17-1.79c-.46-.45-1-1-1.55-1.06a1.72,1.72,0,0,0-1.31.26c-.26.19-.65.53-.86.71a15.94,15.94,0,0,1-1.58-.72c-.68-.7-1.42-.54-2.12-1-.31-.2-.25-.63-.39-.94s-.6-.21-.71-.47.13-.79,0-1.11C1.28,96.43.49,95.68.16,95c-.66-1.41.93-1.7.92-2.92V90.58c0-.68.53-1.36.68-2L2.59,87a11.31,11.31,0,0,1,.79-2c.67-1,2-2.31,2-3.6,0-.57,1.44-1.15,1.16-1.44-.68-.69.78-1.35,1.13-1.78l.86-1c1.15-1.29,2.85-.7,3.07-2.58,0-.6.33-1.16.34-1.79,0-.46-.24-1,.07-1.31s.91-.13.92-.53-.51-.74-.79-1c-.59-.45-.19-.89.42-1.28.45-.28.33-2-.18-2-.79,0-2.36,2.19-2.33,0,0-.43-.49-1.46-.9-.67-.32.62-1.51-.08-1.93-.28a3.48,3.48,0,0,0-3.69.29c0-.4-1.27-1.11-1.51-1.36l-1.09-1c-1.15-1.06.85-1.89,1-2.41l-.59-7a3.23,3.23,0,0,1,.22-2.91c.43,0,1.4-1.58,2-1.76L6.4,48.57a3.65,3.65,0,0,1,3.95,1c.66,1,2.12-.4,2.74-1,.22-.21,1.24-1,1.24-1.3l.18-2.24c0-.77,1.24-.66,1.76-.65l2.63.15c.56,0,1.16.51,1.81.21s2.23.39,2.22-1.14a8.21,8.21,0,0,0-.66-3.54A15.93,15.93,0,0,0,21,37.86a2.84,2.84,0,0,1-.69-1.11l2.89-1.16a2.89,2.89,0,0,1,1-.51,7.73,7.73,0,0,0,1.45-.63l-1.1-2.68.64-1.93-.91-3.23s-.61-.4-.39-.89.35-.86.8-.73,1-.17,1.44.23.7.35,1.23.2,5-1.59,5-1.59a1.89,1.89,0,0,0,1.67-1.12c.35-1.07.78-1.58,1.15-1.58s0-.86.65-.76,3.68.51,3.75-.23S40.93,19,40.93,19l2.46-.64,0,.58,2.69.19L46,21.54l.52.44,2.41-1.48,1,0,.33.37,1.89-.84.1-.92-.83-.07L52,16.89l-3-3.17,1.7-3.44a4.27,4.27,0,0,1,1.56,0c.61.16,1.29.26.65-.49S51.74,8.3,51.28,8.29a2.83,2.83,0,0,1-1.14-.44l1-1.78,3,1.33,2.15-1.94.8-.9,1.68,1.19s2-2.49,1.48-3.27-.93-1.27-.2-1.29,1.05-.08,1.39-.47,1.69-.29,2.3-.28a4.76,4.76,0,0,0,2-.22c.37-.24.34-.37.64.07s1.9.54,2.5,1.38.93,1.36,1.67,1.4,1.26,0,1.1.53-.51,1.32,0,1.75,1.62.42,1.24,1-1.18,1.06-.17,1.41,2.51.83,2.51.83l.94.93-.23,1.34,1,.11.32,1.11s-.6,1.12,0,1.16.77.39,1.42-.05,1.49-.89,1.49-.89L82.84,12l-.09-.59h.15l.21.63.64.67a5.05,5.05,0,0,0,1.65.22,6.28,6.28,0,0,1,1-.08S87.08,13,87.25,12Z"/></g></g></svg>