<svg xmlns="http://www.w3.org/2000/svg" viewBox="0 0 61.73 35.66"><defs><style>.cls-1{fill:#c3d266;fill-rule:evenodd;}</style></defs><g id="Layer_2" data-name="Layer 2"><g id="regije"><path id="stubica" class="cls-1" d="M32,1.21c-.26-.09-.27-.35-.44-.43-.35,0-.69.08-.95.08,0,.18-.18.18-.26.26a1.15,1.15,0,0,1-.26.43v.26a1.16,1.16,0,0,0-.95.35.84.84,0,0,0-.61.35c-.35,0-.52.34-.87.34a3.43,3.43,0,0,1-3.2,1.65c0,.09-.7.42-1.33.88s-1,.9-1.1.93c0,.35-1.21,1-1.47,1-.86,1.3-2.42,1.13-3.9,1.13a2.13,2.13,0,0,0-.52-.69L12.48,7.7c-.09.08-.43.17-.52.34H11.7c0,.09-.09.18-.09.26-.43.18-.51.61-.69,1C9.71,9.26,8.4,9,7.1,9c-.52.51-3.47,1.12-3.46,2.33-.09,0-.17.18-.26.18v.17l-.09.08H3.12L3,11.85v.09H3v.26c-.09,0-.26.17-.26.17v.17C2,12.54.7,14.45.62,15c-.17.69-.43,1.44-.62,2.21a1.48,1.48,0,0,1,.35.09c.85.43,3-.24,3.45.74a2.07,2.07,0,0,0,2.05,1.35c.8,0,1.32.07,1.65.76a3.09,3.09,0,0,0,1,1.2c.94.48,1.75-.14,2.28,1,.28,0,.92-.41,1.11,0s1.75,1.57,1,1.56c-1.27,0-.39.49.05.94a6.73,6.73,0,0,0,1.59.9c.38.23-.21.94.29,1.33,1,.73,2.06.58,2.74,1.5.38.5,1.4.71.76,1.33-.26.25,0,.91.15,1.28a4.38,4.38,0,0,1-.22,2.17,6.37,6.37,0,0,0-.37,2.35,3.72,3.72,0,0,1,.57-.19,1.38,1.38,0,0,0,1.12-.83c.22-.52,1-.84,1-.84s.92-.47,1-1,.93-.91.93-.91a2.13,2.13,0,0,0,1.19-.54,5.26,5.26,0,0,1,1.82-.9c.59-.25.93-.87,1.34-1.24a2.11,2.11,0,0,1,1.45-.64,8.78,8.78,0,0,0,2.4-.93c.63-.29.86-.73,1.27-1a1.79,1.79,0,0,1,1.33-.42,1.48,1.48,0,0,1,1.32.49c.55.45.63-.32.64-.95a1.21,1.21,0,0,1,1.23-1.09c.63,0,1.11-.28,1.11-.76s.16-.77.75-.73a1.39,1.39,0,0,0,1.34-.76c.33-.51.88-.1,1.37-.42a1.32,1.32,0,0,1,1.62.05,1,1,0,0,0,1.28.32,5.23,5.23,0,0,0,1.41-.5c.85-.47.85-2.87.85-2.87s.7-.4,1.17.05.89.05,1.51.57,1.58.32,1.62-.12.27-.37.67-.47.81.34,1.18,0a.65.65,0,0,1,.63,0,10.5,10.5,0,0,0,.31-1l0-1.4a7,7,0,0,1,.67-2.78c.26-.5-.31-1.28-.17-1.33.72-.35,1.8-.48,2.3-1.11,1-.45,2.1.28,3.09.62.52.17,2.86.73,2.37-.27-.13-.31-.68-.45-.9-.68-.57-.58-1.48-1-2-1.46-.27-.28,0-1-.62-1s-.72-.31-.71-1c0-.27-.43-.39-.43-.67,0-.77,0-1,.81-.65l-.4-.52c0-.26-.17-.7-.17-1a1.3,1.3,0,0,1-.18-.34c-.09,0-.26-.18-.35-.18s-.35-.34-.35-.43c-.17,0-.35-.26-.43-.26a1.51,1.51,0,0,1-.87.26c0,.09-.09.17-.09.26l-.17.09v.78c.17.17.17.86.17,1.29h-.17V6.15h-.35c-.08-.09-.26-.26-.26-.35A.23.23,0,0,1,54,5.54c-.17-.09-.26-.34-.35-.43,0-.69.77-2.77-.53-2.77a.93.93,0,0,0-.61-.26L52.13.78c-.35,0-.79-.52-1.14-.52,0-.09-.08-.17-.17-.26l-.09.09h-.17a1.41,1.41,0,0,1-.69.43,1.21,1.21,0,0,1-.78.69c-2.17,1-4.52-1.3-6.42.61-.44,0-1.13-.09-1.13-.7-2,0-4.18-.86-5.73.7-.35,0-.61,0-.78-.26a1.21,1.21,0,0,0-1,.6h-.61l-.09-.09c0-.17-.35-.43-.35-.6C32.59,1.47,32.59,1.38,32,1.21Z"/></g></g></svg>