<svg xmlns="http://www.w3.org/2000/svg" viewBox="0 0 30.78 42.58"><defs><style>.cls-1{fill:#adce3a;fill-rule:evenodd;}</style></defs><g id="Layer_2" data-name="Layer 2"><g id="regije"><path id="sveta_jana" class="cls-1" d="M18.25,3.44a2.72,2.72,0,0,0,0,1.73C18.54,6.43,19,8,19,8s-.11,1.45-.32,2.89-.73,4.24-.17,5.88-.24,3.86,0,4.92.7,5.51.7,5.51a5.09,5.09,0,0,0,1.23,2.42,44.7,44.7,0,0,1,2.84,4l7.46,5.49a.38.38,0,0,0-.45.4s.08,1.06-.44.93-.87.28-1.33-.22-.82-1.14-1.15-.58a1.55,1.55,0,0,1-1.21.88c-.46,0-1.2.19-1.36-.41a1,1,0,0,0-.85-.91c-.53-.17-.92-.41-.88-.77s-.73-.51-.73-.51l-.95-1.07s-1.3.31-1.62,0-1.06-.35-1.52-.75-.95-1.34-1.41-1.11-1.59-.22-1.7.14-.54.53-.28.89.1.7-.33.56a2.19,2.19,0,0,0-1.63.32c-.37.29-.84.62-.85,1s-.14.53-.64.69-1,.15-1.1.75a5.71,5.71,0,0,1-1,2.21c-.4.39-1.11,1-1.11,1a.75.75,0,0,1-.86-.37c-.25-.54-.34-1.27-.74-1.31,0-.24.15-1.24.15-1.49.08,0,.08-.75.08-.92L7,38.38c.42,0,.16-.83.16-1a.86.86,0,0,1-.42-.33H6.46c-.26-.33-.84-.41-1.09-.66,0-.25.08-.5.08-.67a.52.52,0,0,0,.41-.33.74.74,0,0,0,.59-.33c.08,0,.25-.09.33-.09L8,34.06V33.4a2.7,2.7,0,0,1-.5-.33H7.19c0-.08-.17-.24-.25-.33H6.77a.43.43,0,0,1-.17-.33c-.25,0-.17-.41-.17-.58-.16,0-.25-.33-.33-.42H6l-.08-.25c-.17,0,0-.08-.17-.08a.41.41,0,0,0-.17-.33c-.16,0-.41-.08-.58-.08v-.25c.08,0,.17-.17.17-.33.5,0,1.33-.34,1.91-.34l.17-.16c0-1.66-.77-3.57-.19-5.23a8,8,0,0,1-.27-3.16.71.71,0,0,1-.25-.42c-.58,0-1-.83-1.67-.83a3.7,3.7,0,0,1-.67-1.41c-.42-.16-.84-2-1.34-2,0-.08-.08-.17-.09-.25l-.16-.08a5.28,5.28,0,0,1-.68-2.91c.17,0,0-.08.17-.08,0-.17.24-.5.24-.67,1-.66-.43-2.65-.59-3.32A7.83,7.83,0,0,1,0,8.48V7.65c.08,0,.42-.25.41-.41A.89.89,0,0,0,1,6.91c.08,0,.16-.17.16-.34.08,0,.25-.16.33-.24s.5-.09.67-.09c0-.16.08-.33.16-.33V5.74c.09-.08.5-.49.67-.49a.71.71,0,0,1,.49-.67c.09-.25.25-.41.25-.58.08,0,.5-.17.5,0,.08,0,.58,0,.58-.08h.25a.62.62,0,0,0,.17-.33,2.35,2.35,0,0,0,.58-1.08A3.9,3.9,0,0,1,7.3,2.26c0,.25.17.25.26.41.08,0,.16.09.25.17.25,0,.41.08.66.08a.4.4,0,0,0,.17-.33c.08,0,.25-.25.25-.33l1.33-.08c0-.42.08-1-.26-1.25,0-.17-.08-.5-.08-.75.5-.5,2.41.17,2.91.33,0,.5,1.92.34,2.34.34,0,.08.25.16.33.16,0,.25.92.58.92,1H17c0,.25.42.83.42,1.08C17.73,3.2,18,3.36,18.25,3.44Z"/></g></g></svg>