<svg xmlns="http://www.w3.org/2000/svg" viewBox="0 0 117.59 99.16"><defs><style>.cls-1{fill:#c3d266;fill-rule:evenodd;}</style></defs><g id="Layer_2" data-name="Layer 2"><g id="regije"><path id="varazdin" class="cls-1" d="M110.7,23.84l-2.85-.76a2.41,2.41,0,0,0-.72-.19c-.29,0-.31-.33-.46-.62s-.37-.13-.6-.1-.22.21-.34.35-.21,0-.18-.21-.06-.28-.2-.28-.12,0-.17-.25-.4-.21-.54-.11a.36.36,0,0,1-.32,0l-.55.08-.86.14s0-.09-.16-.33-.09-.32-.08-.9-.3-.76-.55-.75a3.32,3.32,0,0,0-1.07.25c-.26.13-.28.49-.26.78a2.06,2.06,0,0,1-.21,1.05,3.41,3.41,0,0,0-.25.93l-4.53.46.1-.49-.16-.34-.23-.14L93.74,22l-1.34-.46a11.3,11.3,0,0,0-2.05.58,5,5,0,0,1-2.13.13l-.64.93s-1.72-.5-2-.62a6.57,6.57,0,0,1-.78-.44l-.31-.37L83,20.39S82,17.33,82,17a1.89,1.89,0,0,0-.48-.68L79.62,14.7a6,6,0,0,1-.53-1.38A13.66,13.66,0,0,1,78.47,12a9.76,9.76,0,0,0-1.16-1.37,8.07,8.07,0,0,0-1.06-1.06,6.37,6.37,0,0,1-.87-.81L73.49,7.54l.23-.74H68.58l-1.2.59s-2.14-.69-2.61-.87a5,5,0,0,0-1.22-.22l-.82.38-.39-.43s0-.46-.05-.84-.51-.74-.77-.91a1.68,1.68,0,0,0-.72-.16l-.45.27-.18.51v.65c0,.44-.78.89-.78.89L59,6.3l-.14-.93L58.63,5l-.2,0-.8.22a3.48,3.48,0,0,0-.5.51,2,2,0,0,1-1.28.59A15.86,15.86,0,0,0,54,6.87a1.06,1.06,0,0,1-.23-.34c-.09-.2-.06-.33.29-1a.8.8,0,0,0-.15-1h-.39L53,4.87,52.46,5H52l-.31-.13-.32-.51,0-.72-1.11-.75s-1-1.06-1.32-1.38-.69-.62-1-.9A3,3,0,0,0,46.53.06a3.8,3.8,0,0,0-2.3.34c-1.13.44-6.84,3.33-6.84,3.33L35,3.7l-3.89-.88s-.1.24-.22.6a1.76,1.76,0,0,1-.63.7l.22.49-.32.2-.31.79s.55.42.62.81.58.51.87.63.22.35.26.62.91.94.91.94a9.22,9.22,0,0,0,.74,1.2.79.79,0,0,1,.3.75,2.52,2.52,0,0,0,.24,1.15.91.91,0,0,1,0,.74c-.11.26.42,1.18.57,1.71A1.32,1.32,0,0,1,34,15.37c-.13,0,0,.32-.36.76a.61.61,0,0,1-1-.07c-.07-.23-.25-.25-.62-.27s-.45.16-.45.16a3.06,3.06,0,0,1-.5.57,1.73,1.73,0,0,0-.55.72c-.17.36-.67.34-1,.35a1.42,1.42,0,0,1-1-.53c-.17-.24-.57-.13-1-.08a1.68,1.68,0,0,0-.82.55l-.78.9a1.51,1.51,0,0,0-.4.88c0,.39-.73,1-.93,1.21a.53.53,0,0,0-.22.51,3.85,3.85,0,0,0,.18.92,1,1,0,0,1-.05.55s-.31.61-.44.8a1.36,1.36,0,0,1-.52.48,1.32,1.32,0,0,1-1.07.09,2,2,0,0,0-1.26.41c-.09.12-.12.13-.34,0s-1-.72-1.34-1-.65.07-.92.48-.8,0-1.23-.26-.75.27-.75.27l-.47.48a5.75,5.75,0,0,0-.84,1.18,4.62,4.62,0,0,1-.63,1,1.44,1.44,0,0,1-.87.54,15.05,15.05,0,0,0-2.2,1.32,6.68,6.68,0,0,1-1.7.59c-.59.14-2.32.75-2.72.86s-.38.05-.46-.12a1.33,1.33,0,0,0-.4-.44c-.19-.16-.28-.08-.69,0a2.4,2.4,0,0,1-1.26,0c-.27-.1-.89.7-1,.9s-.12.25-.57.37a13,13,0,0,1-2.24.08c.74.71.2,1.14.15,1.79S0,34.86,0,35.28s.25.54.44.73c1.17,1.2-.23,2.9-.25,4.3,0,.58.4,1.06.39,1.64a3.29,3.29,0,0,0,.18,1.16c.27.56.47,0,.89-.18,1.27-.4,1.59,1,2.41,1.57.55.42,1.32.16,2,.17.85,0,2.53.22,2.88,1.13a2.5,2.5,0,0,0,.7,1.31l1.52.57c.37,1.17-1.16,2.31.34,3.24a2.05,2.05,0,0,0,1.79.32,1.12,1.12,0,0,1,1.44.13c.65.67,3.1-.6,3.47.59a4.21,4.21,0,0,0,1.25,1.76c.22.22.9.45.9.73,0,1,1.13.43,1.6.29.69-.21,1.27.1,2-.25,1.08-.51,1.63,0,2.56.45.36.17,1.61-.65,2-.81.53-.24,1.11-.34,1.42-.81s.78-.32,1.1,0c.71.72,1.59-1,2.22-.64s1.25-.51,1.94-.28a3.26,3.26,0,0,1,1.93.27c.63.31,2.38-1,2.37.42,0,.63,0,.55.51.81.3.14-.2.68-.2.9a2.12,2.12,0,0,0,1.41,1.79c.49.25,1.69-.42,2.32-.42,1.14,0,3,1,3.51.05.4-.8,1.13-2,2.07-2,1.13,0,.45-1,.63-1.7.08-.33.18-1.27.48-1.35l2.5-1c.42-.19,1-1.37,1.45-1.36.39-.25,1.12-.73,1.44-.56a2.6,2.6,0,0,1,1.68,2.8c0,1.14-1.8.53-1.81,1.8,0,.94,1.36,1,2.08,1.41s2-.22,2.82-.21c1.4,0,3.26,1.5,4.08-.09.29-.58.52.45.52.72,0,1-.71,1.35-1.7,1.33s-1.15,1.32-1.68,1.83-.18.86.35.53c.36-.24,1,.79,1,1a2.61,2.61,0,0,0,1,2c.27.58,1.31,1,1.3,1.73a1.55,1.55,0,0,1-1.06,1.28c-.28.14-.9.79-.43,1,.3.14,2.38-.06,2.37.3,0,.58-.67.52-1.08.65-.56.16-1.4,1.2-1.1,1.81.46.95-.67.68-.9,1.37-.72,2.09,1.39,3.66,2,4.91.08.45-.67.6-1,.76a2.64,2.64,0,0,0-.83,2.59c.21.66.16,2,.88,2.33a2.54,2.54,0,0,0,1.13,0c.5,0,.19.45,0,.64s.27.44.27.61c0,.41-.64.76-.65,1.45,0,.43.3.87.31,1.3,0,0,0,0,0,0v.06a6.16,6.16,0,0,1,1.1,1.9,6.73,6.73,0,0,1,.5,3.18c0,.31,1.11,1.68,1.3,1.31.82-1.62,1.52.17,1.51,1.19a8.58,8.58,0,0,1,0,2.58c-.54,1.09-.28,1.7.66,2,.38.12.33.73.63.88.64.31,1.6-.43,1.58.93,0,1.1,1.06.28,1.29.28s.82,1.19.83.09c0-1.44,1.19-1.69,2-2.52.42-.41.35-1.2.74-1.58.73-.71,1.86,2.18,1.88,1.16,0-.83,1.13-1.08,1.87-.89,0-1.52,1.7.06.92-1.57a1.57,1.57,0,0,1,.13-1,2.87,2.87,0,0,0-.46-2.54c-.46-.24.51-1.55.13-1.93-.63-.66.86-1.58.86-2.3,0-1.37-1-2-1-3.46,0-.42.24-1.74.7-1.74.83,0,1.62.33,2.13-.65a2.71,2.71,0,0,0,.18-2.43c-.13-1.4,1.56-.77,1.76-1.38s.12-.79.51-1.16,1.49-1.24.63-2.12c-.68-.69,0-1-.59-1.63-.86-.89.21-1.21.89-1.32s2.31-.16,2.81-.65c.65-.63-.36-1.25.51-1.81,1.07-.67,2.61-2.16,3.85-1.73,0,0,.1-2,1.27-1.39.41.2-.17,1.06-.17,1.25,0,.72.87.09.87.58,0,1.78,1.73,3.62,3.52,2.85l4.38-2c.46-.18,2.52-1.41,2.53-1.94,0-.22-.34-.45-.33-.8s-.1-1.13,0-1.28c.65-.64-1.49-1.76-.58-2.21.72-.33,1.11-.89,2.13-.88l4.18-.6a5.62,5.62,0,0,1,2.89.67c.49.25,1.85,1.15,1.87-.19,0-1,.08-.56-.45-1.1-.34-.36-.51-1.24-1-1.49-.33-.18-.47-.32-.5-.43h-.15c0-.19-.47-.37-.56-.37a15,15,0,0,1,.08-2.86c.18-.74.92-.93.92-1.76h-.19a4,4,0,0,0-.84-1.93l-.1-1.76c-.37,0-.83-.27-1.11-.27-.09-.1-.56-.37-.74-.56,0-.55-.67-4.15-1.32-4.24-.46,0-1,.09-1.38.09,0,.18-.19.18-.19.28-.46,0-.93-.28-1.3-.28l-.54-1.15a7.55,7.55,0,0,0,1.09-1.34,3.13,3.13,0,0,1,.73-1.57v-.28c.65-.28.64-2.31.64-2.95-.1,0-.19-.28-.37-.28,0-.09,0-.37.09-.37l-.1-1.84a3.19,3.19,0,0,1-.56-.37,4.11,4.11,0,0,1,.55-1.57c.09,0,.18-.09.27-.09,0-.28.19-.74.19-1.11-.19,0,0-.09-.19-.09a13.62,13.62,0,0,0-.84-1.66c-.56-1.11.18-1.94.17-3A2.4,2.4,0,0,0,110.7,23.84Z"/></g></g></svg>