<svg xmlns="http://www.w3.org/2000/svg" viewBox="0 0 94.48 79.49"><defs><style>.cls-1{fill:#d18044;fill-rule:evenodd;}</style></defs><g id="Layer_2" data-name="Layer 2"><g id="regije"><path id="virovitica" class="cls-1" d="M65.21,79.49a.85.85,0,0,1,.45-.2c.66-.14,1.33-1,.46-1.43-.68-.34.43-.83.44-1A4.85,4.85,0,0,0,66,75.5c-.24-.07-1-.4-1-.7s-.41-.76-.58-.94-.78-.28-.95-.46a5,5,0,0,0-2-.83A8.73,8.73,0,0,0,59,72.48c-.84.08-1.08-.19-1.07-1s.34-.75,1-.83.15-2.06-.12-2.33a5.83,5.83,0,0,0-1.54-1,6.3,6.3,0,0,0-2.89.86c-.84.41-1.29.73-1.31,1.78,0,.75-.66.77-1.2.5-1.16-.59-1.33,1.15-1.57,1.62-.46.89-.69,2-2.09,2-.84.15-1.16.5-1.26-.39l-.38-2.37-.1-.66a4.87,4.87,0,0,0-.27-.91A4.13,4.13,0,0,1,46,69l-3.18,1.65-1.14-.3.14-.91-1-.3s.59-1.32.8-1.71a6.89,6.89,0,0,1,1-1.4,1.7,1.7,0,0,0,.66-1c0-.41.25-3.54.25-3.54l-.67-.25-.51-1.36-.7,0-.64-1-.54-.42-.92.54-.24.38.33.5-.17,1H38.6l0,1.86-1.26.66-2.1-.6a1,1,0,0,1-.31-.71c0-.52.18-1.56.55-1.69s.89-.54.84-1.06a4.93,4.93,0,0,0-.19-1c-1.3,0-1.13-1.84-2.75-1-.34.15-.78.52-1.11.17s-1.21.2-1.52.35c-.53.24-.18-.56-.52-.71s-.68,0-.8-.35a3.67,3.67,0,0,1-.2-1.12c0-1.11-1.34-2.21-1.48-3.42-.22-1.89-.29-4-2.1-4.92a9.33,9.33,0,0,0-2.59-1,3.63,3.63,0,0,1-2.46-1.14c-.61-.63-1.34-2-2.14-2.29-.22,0-.43-.59-.83-.59s-.71.23-1.18.23c-.65,0-1-1.44-1.22-1.56-.55-.29-1,.26-1.48,0s-.24-1.24-.76-1.25c-.81,0-.14-1.61-.5-2s-.46-.32-.45-1.06-.46-1-.45-1.55c0-1-1-.42-1.6-.43-.87,0-1.27,0-1.26-1C8.79,33,8.09,32,7.38,32a2.15,2.15,0,0,1-1.6-.49c-.16-.15-.86-.9-1.11-.91-.46,0-.87.24-1.39,0-1.11-.57-2.07-.58-3-1.46l.08-.07a3,3,0,0,0,.14-2.61c-.6-1.27,1.11-2.48,2-3.31.29-.28,1-1.43,0-.94C2,22.44.92,23.41.2,22.67c-.53-.55.1-2.28.62-2.6,1-.6,2.25-.51,2.48-1.63.48-1,1.54-1.58,2-2.84.34-1,.58-3,2-2.95,1,0,.53-1.45.86-2.1a6.2,6.2,0,0,1,2.71-2.14c.88-.42.51-.43,1-1.29s-.09-1.92.75-2.31c.59-.28,1.18-1.11,1.79-.7.32.22.31,1.09.75,1.09,1,0,.32-2.46.89-2.16a7.67,7.67,0,0,0,3.66.55A12.67,12.67,0,0,1,22.3,4,7.33,7.33,0,0,0,24,4.14c.35-.06.69-.09.79-.26a3,3,0,0,1,.38-.46s1,.66,1.41.33a4.83,4.83,0,0,1,.82-.6c.1,0,.25,0,.28.12a.62.62,0,0,0,.32.36,3.64,3.64,0,0,1,.46.25l.71-.41,0-.48.9-1a5,5,0,0,0,.22.49l.23.32a.5.5,0,0,0,.31.51A6,6,0,0,0,32,3.68l.68.06L33,2.43l-.08-.06a2.62,2.62,0,0,1,.42-.77,1.36,1.36,0,0,1,.85-.33,1.81,1.81,0,0,1,.74.34,1.35,1.35,0,0,1,.35.76,1.77,1.77,0,0,1-.33.94l-.61.52-.3.2.19.37s.1.68-.21.82l-1.2.56a1.72,1.72,0,0,0-.25.66,1.1,1.1,0,0,0,.29.72,1.09,1.09,0,0,0,.65.4h.37l.66-.25.81.12L35.78,7a1.87,1.87,0,0,0,.76-.6c.19-.34.52-1.13.64-1.35a2.92,2.92,0,0,0,.47-1.32c0-.47-.08-.89-.38-1s-.45-.09-.62-.22A2.09,2.09,0,0,1,36,1.77,1.07,1.07,0,0,1,36,1a1.57,1.57,0,0,1,.75-.84,1.36,1.36,0,0,1,1-.06,1.46,1.46,0,0,1,.65.73,8.82,8.82,0,0,1,.22,1.88c0,.51.64,1,.64,1A11,11,0,0,0,39.9,5a1.33,1.33,0,0,0,.83.42,1.06,1.06,0,0,0,1-.93c0-.71.11-2.39.11-2.39s.16-.92.64-1a2.1,2.1,0,0,1,1,.15c.13.07.63.57.63.91A3.25,3.25,0,0,1,44,3.46l-.81,1a1.69,1.69,0,0,0-.29.72.83.83,0,0,0,.49.64l.76.35s.36.18.2.45-.39.58-.72.38a2.21,2.21,0,0,0-1.25-.34c-.28.07-.85.41-.88.86a1,1,0,0,0,.31,1,1.12,1.12,0,0,0,.87.34,5.14,5.14,0,0,0,2-.25,1.72,1.72,0,0,0,.77-.64A.88.88,0,0,1,46,7.66a.9.9,0,0,1,.71.24,1,1,0,0,1,.4.85c0,.4-.25,1-.83,1.12a5.46,5.46,0,0,1-1.64,0l-1.9-.45a2.12,2.12,0,0,0-1,0,1.15,1.15,0,0,0-.67.71c0,.22,0,.48-.28.66s-.68.23-.84-.05a1,1,0,0,1-.16-.58V9.86L40,9.78s0-.74-.41-.87a.93.93,0,0,0-1,.19,1,1,0,0,0-.12.58c0,.25.09.77.09.77l-.46-.15.32,1.5a4.38,4.38,0,0,0,.59,1.37,4.2,4.2,0,0,0,1.16.58,2.66,2.66,0,0,0,.56.09l1.7-.68,1.5-1a2.34,2.34,0,0,1,1-.26,1.78,1.78,0,0,1,.82.26c.36.21.73.46.77.88a1.76,1.76,0,0,1-.14,1,1.66,1.66,0,0,0-.26.84,4.42,4.42,0,0,0,.57,1.13,1.2,1.2,0,0,0,1.63,0l1.24-.92.5-.6.53-.49.18.3.07.81-.37.68,0,.27a.7.7,0,0,0,.51.64c.66.23,1.32.35,1.7.5a2.26,2.26,0,0,0,1.91-.07,1.66,1.66,0,0,0,.68-1.12l-.61-1.21-1.14-1.36V13l.15-.46-.06-.18.33-.15a1.52,1.52,0,0,1,.61-.58,1.86,1.86,0,0,1,.87-.19,6.47,6.47,0,0,1,1.53,0,7.81,7.81,0,0,1,1.35.58,5.33,5.33,0,0,0,.88.54,16,16,0,0,0,3,.88c.81,0,3.07,0,3.35.06a4.63,4.63,0,0,1,1.08.09,5.37,5.37,0,0,0,1.47.38,1.86,1.86,0,0,1,1.22.25c.38.24,1.31.89,1.31.89a1.6,1.6,0,0,0,1,.37,1.53,1.53,0,0,0,1-.25,1.76,1.76,0,0,1,.8-.31,6.05,6.05,0,0,0,1.43-.16,5.59,5.59,0,0,1,1.74-.38c.37.07,1.57.38,1.57.38s.67.31,1.11.58a5.89,5.89,0,0,1,1.09.9l1.27,1.33a8.43,8.43,0,0,1,1.37,1.25A9.51,9.51,0,0,0,84,20.14a8.41,8.41,0,0,0,1.23.55,3,3,0,0,1,1.07.5c.32.3.61.41.78.68s.44.58.61.85l.94,1.33s.62,1,.84,1.38a20.23,20.23,0,0,1,1,2.2c.2.63.46,1.42.46,1.42s.74,1.76.92,2.05a5.78,5.78,0,0,1,.88,2.77,6.13,6.13,0,0,0,.21,2.27,10.45,10.45,0,0,0,1,1.91,7.34,7.34,0,0,0,.56.72c-.15,0-1.46.56-1.61.56a3.73,3.73,0,0,1-.74,1.33,2.49,2.49,0,0,1-1.48-.29v-.15c-.15-.15-.74-.44-.75-.89-.14,0-.44-.29-.59-.44-.59,0-.92.52-1.22.82,0,.38.25.25.26.5-.51,0-1.14,0-1.27.38H86.7l-.12.25c-.64.26.13,2.53-1.51,2.53,0,.13-.13.25-.13.38-.25.12-.38.38-.63.63v.5c.26.26.39.51.77.64v.25c.25.12.89.63,1.14.63A2.62,2.62,0,0,0,87,47.66v.76c-.13,0-.25.25-.25.38-.38.12-.63.5-.89.63,0,.76-.61,3.66.15,4a1.37,1.37,0,0,1-.25,1c0,1.64-1,3.28-1,4.8-.26,0-.38.25-.51.5-.13,0-.25.13-.38.13a8.53,8.53,0,0,1-1.13,2.9c0,.26-.12.63-.37.63-.88,1.77-4.93,1.9-6.7,1.9a3.12,3.12,0,0,1-2.53,1c-.25.25-1.39.12-1.9.12l-.25.25c0,.64.14,4.42.65,4.42,0,.76.26,1.65.26,2.53-.38,0-.5.38-.88.5,0,.13-.13.26-.13.38l-.25.13c0,.38-.5.5-.5,1-.38,0-.38.12-.38.5l-.25.13c0,.13-.13.38-.25.38,0,.76-.5,1.26-.5,1.89a1.53,1.53,0,0,0-.63.63C67.49,79.22,66,79.49,65.21,79.49Z"/></g></g></svg>