<svg xmlns="http://www.w3.org/2000/svg" viewBox="0 0 47.62 32.34"><defs><style>.cls-1{fill:#e1f4fd;fill-rule:evenodd;}</style></defs><g id="Layer_2" data-name="Layer 2"><g id="regije"><g id="vis"><path class="cls-1" d="M.18,32.34a.13.13,0,0,1-.16-.1,1.24,1.24,0,0,1,.1-.74,2,2,0,0,1,.26-.41,2.12,2.12,0,0,1,.43-.35.79.79,0,0,0,.39-.56c0-.3,0-.82,0-1a3.17,3.17,0,0,1,0-.8.71.71,0,0,0-.08-.63c-.14-.22-.2-.37-.3-.56a.38.38,0,0,1,.08-.52c.16-.12.34-.27.29-.34S1,26,1,26a.22.22,0,0,1,0-.33c.19-.16.42-.33.42-.47s0-.24-.14-.18-.27.22-.41.09a.35.35,0,0,1,0-.55l.3-.28s.1-.16,0-.18-.35-.14-.3-.33A.79.79,0,0,0,1,23.35a.54.54,0,0,1,.18-.54,7.66,7.66,0,0,1,.62-.48.46.46,0,0,1,.69,0,2.72,2.72,0,0,1,.44.72c.15.36.2.49.4.51a.68.68,0,0,1,.54.24c.22.23.31.31.44.31s.18-.08.25-.18a.22.22,0,0,1,.33,0c.1.1.07.37-.07.6s-.32.48-.3.63.08.27.25.24.36-.11.37.15-.11.23-.19.33-.34.31-.23.47a.54.54,0,0,0,.46.23c.17,0,.31,0,.3.19s-.12.22-.12.22a.42.42,0,0,0-.13.3,2.64,2.64,0,0,1,0,.67,2.85,2.85,0,0,0,0,.81,2.7,2.7,0,0,1-.09.78c-.06.26-.07.12,0,.31a.46.46,0,0,1-.12.43,1.1,1.1,0,0,0-.28.36A.45.45,0,0,1,4.2,31a1.38,1.38,0,0,1-.75-.26c-.27-.2-.59-.54-.9-.46a2.11,2.11,0,0,0-.77.6.64.64,0,0,0-.18.44.5.5,0,0,1-.29.4A2.77,2.77,0,0,0,.69,32C.51,32.12.25,32.31.18,32.34Z"/><path class="cls-1" d="M17,12.93c.13.28.35.42.26.61S17,13.8,17,14s.27.42.07.61a4.84,4.84,0,0,1-1.09.92c-.45.2-1,.52-1.32.68a14.13,14.13,0,0,0-1.32.8c-.44.3-.39.35-.42.52a.9.9,0,0,1-.16.6c-.19.2-.31.35-.38.4a.41.41,0,0,0-.13.34.18.18,0,0,0,.26.14.91.91,0,0,0,.31-.34c0-.09.21-.16.24.05s0,.28.11.36a.4.4,0,0,0,.44,0c.17-.1.67-.49,1.06-.46a1.48,1.48,0,0,1,.9.39c.13.11.24,0,.33,0s.13.25.21.24.07-.24.14-.34.17-.25.31-.12.19.2.33.12.27-.28.52-.14a.49.49,0,0,0,.5.05.61.61,0,0,1,.55,0c.11.06.33.3.42.29s.06-.24.11-.3.06-.37.25-.29,0,.19,0,.23.36,0,.46,0,.55,0,.58-.06-.07-.22,0-.26.19.21.28.17.32-.12.26,0-.24.3-.14.37.32-.12.44-.27A2.93,2.93,0,0,1,22.58,18a3.22,3.22,0,0,1,1.25,0c.25,0,.36.11.43,0s0-.11-.08-.19-.16-.16-.11-.23.16-.1.33,0,.21.18.31.13a.2.2,0,0,0,.12-.24c0-.13-.06-.25.05-.29s.15,0,.24.19.11.23.3.26.32,0,.55,0,.43,0,.55-.16a1,1,0,0,1,.83-.5c.45,0,.91.07,1.07-.13s.22-.24.27-.32.12-.15.23-.11.07.1,0,.22-.17.2-.12.37.17.17.25.07.18-.29.37-.18.35.15.47,0a.51.51,0,0,0,.1-.44c0-.21-.06-.41.11-.47s.2.07.2.25a.77.77,0,0,0,.17.49.35.35,0,0,0,.33.16c.09,0,.09-.05.1-.2s.09-.36.27-.29.15.12.24.24.25.23.35.17a.38.38,0,0,0,0-.48,1.71,1.71,0,0,1-.14-.67c0-.23,0-.37.14-.37s.15.11.22.4.16.66.41.71.31-.13.36-.33,0-.36.18-.51.22-.11.31,0a.21.21,0,0,1,0,.3.34.34,0,0,0-.08.33c0,.17.26.12.34,0a.71.71,0,0,1,.35-.36c.21-.1.24-.15.3-.27s.07-.22.17-.2.1.18,0,.37a.32.32,0,0,0,.06.45.61.61,0,0,0,.55.18c.18-.07.26-.28.51-.2s.4.11.59,0,.4-.19.45-.43a.56.56,0,0,0-.15-.52.43.43,0,0,1-.13-.38c0-.14.28-.26.4-.15a.72.72,0,0,1,.19.44c0,.15,0,.41.19.45a.29.29,0,0,0,.38-.18c0-.17,0-.35.18-.35s.18.11.25.25a.73.73,0,0,1,0,.46.68.68,0,0,0,0,.51c.09.18.46.23.69.2s.52-.44.79-.19.36.25.5.19a.29.29,0,0,0,0-.53c-.29-.17-.63-.21-.7-.39a1.71,1.71,0,0,1-.07-.59c0-.18,0-.29.1-.31s.14,0,.23.1a.76.76,0,0,0,.57.29,3.12,3.12,0,0,0,1,0c.14-.08.24-.16.24-.31a.55.55,0,0,1,.19-.45c.16-.16.14-.3,0-.34s-.24,0-.26-.16.11-.4.55-.36.72.05.82-.08a.63.63,0,0,0,.17-.48c0-.22-.11-.19-.22-.23s-.36-.09-.25-.3a6.89,6.89,0,0,1,.54-.65.55.55,0,0,0,.1-.6,1.52,1.52,0,0,0-.21-.29s-.07-.19,0-.26.17-.09.3.06.13.27.26.27.17,0,.35-.21l.57-.55a.26.26,0,0,1,.26-.12c.13,0,.31,0,.35-.11s0-.38.17-.44A.7.7,0,0,0,45.34,9,2.21,2.21,0,0,1,46,8.4a1.6,1.6,0,0,0,.56-.57,2.77,2.77,0,0,0,.21-.47,2.83,2.83,0,0,0,.14-.52.69.69,0,0,1,.16-.56,4.1,4.1,0,0,0,.46-.63c.07-.15.17-.33.06-.43s-.19-.07-.34.07-.42.44-.42.44a.37.37,0,0,1-.28,0c-.13,0-.11-.25,0-.38s.28-.23.31-.39a.94.94,0,0,1,.24-.42c.13-.14.39-.2.42-.37s0-.44-.39-.44a3,3,0,0,0-.73,0c-.16,0-.23.16-.41.1s-.06-.25.13-.37A3.76,3.76,0,0,0,46.77,3c.14-.17.34-.33.26-.52a.35.35,0,0,0-.46-.23,1.48,1.48,0,0,0-.4.28.33.33,0,0,1-.25.06c-.13,0-.14-.1-.18-.2s-.11-.22-.23-.12a1.37,1.37,0,0,0-.48.76,4.07,4.07,0,0,1-.07.76c-.08.18-.18.36-.33.33s-.2-.18-.08-.37.25-.48.06-.65-.27-.15-.32-.25,0-.14.2-.21.3-.15.31-.29-.1-.22-.27-.16a1.09,1.09,0,0,1-.5.14c-.23,0-.21-.2-.05-.3a5.16,5.16,0,0,1,.52-.33c.18-.09.37-.12.38-.31s-.14-.28-.31-.24-.24.21-.65.2-.49,0-.6,0a.56.56,0,0,0-.46.21c-.13.16-.31.52-.36.59s-.16.24-.28.22-.16-.18-.06-.37.11-.44,0-.53-.3,0-.54.22a2.22,2.22,0,0,0-.44.54c0,.1-.1.23-.27.23s-.18-.15-.15-.28,0-.31-.12-.36-.2,0-.29.07-.23.39-.47.4l-.59,0a.79.79,0,0,0-.65.25c-.17.24-.4.6-.4.6s-.09.12-.19.07a1.2,1.2,0,0,1-.27-.22s-.11-.06-.15,0-.21.15-.06.28.29.23.22.36a.56.56,0,0,0-.1.27.67.67,0,0,1-.24.46c-.17.13-.49.3-.6.62s-.09.65-.28.79a.59.59,0,0,1-.6.13c-.24-.08-.38-.36-.61-.4l-.6-.09a.93.93,0,0,1-.51-.23.47.47,0,0,1-.09-.63c.19-.21.48-.18.53,0s.11.34.26.35.09-.13.08-.26-.2-.41-.12-.61.11-.29.08-.4-.14-.4,0-.45.21,0,.37.14a.63.63,0,0,0,.54.19.34.34,0,0,0,.23-.36c0-.15-.05-.57.16-.71s.53-.42.52-.65a.49.49,0,0,0-.2-.43.37.37,0,0,0-.51.13,2.48,2.48,0,0,0-.21.47s0,.15-.16.12-.11-.09-.1-.22,0-.42-.14-.43-.24.06-.32.21,0,.27-.14.27-.1,0-.14-.17-.12-.47-.39-.52-.33,0-.45.17-.09.14-.22.13-.15,0-.15-.2,0-.19-.21-.27-.31-.1-.39-.13a.18.18,0,0,1-.13-.18c0-.08.09-.17.46-.11s.34.14.58.2.28.06.37,0,0-.23-.06-.3-.15-.17,0-.28.15-.21.05-.28a.44.44,0,0,0-.5,0c-.15.12-.3.37-.55.27s-.48-.3-.66-.27-.2.11-.25.31a.37.37,0,0,1-.49.29A2.73,2.73,0,0,0,30.85.6,2,2,0,0,1,30,.45c-.29-.09-.59-.26-.84-.19s-.51.27-.77.22-.48-.23-.84-.12a5.18,5.18,0,0,0-.7.24,1.74,1.74,0,0,1-.9.18c-.4-.05-.58-.17-.73-.07S25,.94,25,1a.53.53,0,0,0,.2.19.13.13,0,0,1,.05.18c-.07.11-.15.15-.33.12a.75.75,0,0,1-.28-.09c-.09,0-.24-.07-.24.09s0,.29,0,.33-.06.21-.18.09-.1-.38-.37-.32-.34.08-.36,0,0-.17.16-.22.28-.19.24-.32-.16-.16-.3-.23a1.81,1.81,0,0,1-.35-.16c-.16-.08-.32-.12-.33,0s0,.18.11.36a.53.53,0,0,1,0,.51.71.71,0,0,1-.26.28.14.14,0,0,1-.19,0c-.07-.06,0-.16,0-.23s0-.2-.23-.24A.85.85,0,0,1,22,1.19a.88.88,0,0,0-.5-.11c-.14,0-.21.26-.22.41s0,.34-.11.43-.24,0-.26-.16,0-.24-.1-.27a.28.28,0,0,0-.26.09c-.06.06-.08.12-.37.11l-.91,0a.82.82,0,0,0-.5.15,1.06,1.06,0,0,1-.81.35,2.38,2.38,0,0,0-.83-.06c-.15,0-.23.12-.24.22s0,.28-.11.31a.2.2,0,0,1-.23-.09c-.07-.1-.22-.12-.4-.08a.47.47,0,0,0-.36.33c0,.17-.1.31-.21.32s-.14-.14-.19-.19A.4.4,0,0,0,15,2.84c-.22.07-.46.12-.53.43s0,.43-.21.58-.52.37-.62.42-.16.23-.42.25a1.18,1.18,0,0,0-.5.13,4.15,4.15,0,0,1-.79.35,2.9,2.9,0,0,0-.7.27c-.18.1-.24.22-.24.3a.27.27,0,0,1-.23.29,1.12,1.12,0,0,0-.68.23c-.17.19-.24.38-.45.51s-.46.17-.47.32c0,0-.06.21,0,.31a.71.71,0,0,0,.52.17,1.67,1.67,0,0,1,.61,0c.1.06,0,.17,0,.24a.15.15,0,0,0,0,.24,1,1,0,0,1,.26.22.28.28,0,0,0,.25.12c.1,0,.28,0,.3.19s0,.19-.13.3a.38.38,0,0,0-.12.42c0,.15.19.19.4.19s.43,0,.45.08,0,.23-.13.28-.24,0-.24.17.1.16.18.18a.74.74,0,0,1,.3.16.46.46,0,0,0,.52,0c.17-.12,1.23-.86,1.55-1.1a3.17,3.17,0,0,1,.67-.44,2.23,2.23,0,0,1,1-.22,1.72,1.72,0,0,1,.46.38s.62.39.42.49a.94.94,0,0,1-.54,0l0,.15s.34,0,.41.14a2.87,2.87,0,0,1,.13.58s.27,0,.36.17A1.8,1.8,0,0,1,17,11c0,.14,0,.16.08.24s.07.27.12.38.12.36,0,.44-.17.12-.14.29.09.3,0,.37S17,12.78,17,12.93Z"/></g></g></g></svg>