<svg xmlns="http://www.w3.org/2000/svg" viewBox="0 0 163.22 144.09"><defs><style>.cls-1{fill:#81bc47;fill-rule:evenodd;}</style></defs><g id="Layer_2" data-name="Layer 2"><g id="regije"><path id="voloder" class="cls-1" d="M4.06,45.28l.71-1s.65-1.14,1-1,1.16.35,1.48-.21a1.5,1.5,0,0,1,1.15-.78A15,15,0,0,0,10,41.77a2.35,2.35,0,0,1,1.41.25c.43.36.19,1.27,0,1.52S10.22,46,10.22,46a3.39,3.39,0,0,0-.28,1.18,5.8,5.8,0,0,1-.14,1.1.47.47,0,0,0,.64-.1,2.28,2.28,0,0,1,1.22-.82c.39,0,1,0,1.18-.29s1.93-1.48,2.24-1.24a2.2,2.2,0,0,0,1,.22l1.82.31.64.11.12-.56s1.6-.25,1.36.64c-.12.35-.48,1.42-.11,1.65,0,0,.36.09.51.11a.71.71,0,0,0,.3,0s.33-.06.33.15,0,.4.12.45.9.28,1,.45.11.34.22.37a1.46,1.46,0,0,1,.36.78,3.81,3.81,0,0,1,0,.9c-.07.16-.14.61,0,.66a.59.59,0,0,1,.3.28c.05.1.1.32.23.34a.68.68,0,0,1,.41.21.84.84,0,0,0,.4.35.73.73,0,0,0,.44-.13c.11-.08.29-.23.39-.23a.63.63,0,0,0,.34-.18,1.28,1.28,0,0,1,.65-.31.26.26,0,0,1,.3.26c0,.15,0,.44-.06.52s-.19.33-.05.48.48.57.62.57.52-.09.65-.09a1.12,1.12,0,0,0,.39-.17l.3,0,.36,0a.86.86,0,0,0,.27.08.44.44,0,0,0,.26-.06.27.27,0,0,1,.23,0,.31.31,0,0,1,.15.22,1.33,1.33,0,0,1-.15.59.61.61,0,0,0,0,.61c.12.1.4.34.58.22s.5,0,.5.15a1.6,1.6,0,0,0,.31.61c.08.1.29.33.19.52s0,.34.16.44,1.21.77,1.27,1a.69.69,0,0,0,.61.39c.14,0,.3-.12.4.07s.19.3.19.3l-.85.86a9.29,9.29,0,0,0-.53,1.29c0,.23.1.27.31.46a.49.49,0,0,0,.49.07l.36-.27a.43.43,0,0,0,.29-.39c0,.6-.07,3-.06,3.46H33c-.15.15-.3.45-.45.45a1.19,1.19,0,0,1-.6.61c0,1.35-1,3.16-1,4.37a3.7,3.7,0,0,0-.6.3,13.36,13.36,0,0,0,1.52,1.5c.15.76,1.52,2.42,2.42,2.42,0,.45,1.07.6,1.07,1.2.3,0,.6.3.91.61h.45c0,.15.3.45.31.6h.6c0-.15,0-.45.3-.45,0-.3.15-.61.3-.61a1.28,1.28,0,0,1,.45-.75v-.45c.3,0,.45-.45.6-.6a13.85,13.85,0,0,1,3.48.45c0,.45.91.6,1.21.6l.15-.3a.52.52,0,0,0,.3-.15,1.07,1.07,0,0,1,.91.45h.45c.16.45.62,2.26,1.07,2.41v2c.15.15.31.61.46.76h.15l.15.3c.45,0,.6-.3.76-.45a.65.65,0,0,0,.6-.61c.3,0,.3-.15.6-.45.3,0,.61.6.76.75s.3.16.45.16v.45A3.91,3.91,0,0,1,52,82h.3c0,.15.16.3.16.45a5.26,5.26,0,0,0,2,.75c.45.46,2.11.46,2.87.46V84l.15.15L58.5,84v-.15c.45-.3,1.21.3,1.51.6h.76c0,.15.3.3.3.45,1.21,0,5.61,2.87,6.52,3.77,1.51,0,2.72.45,4.23.46v-.31h.3c0-.15.3-.6.61-.6a7.4,7.4,0,0,1,.44-1c.16.6.78,3.46.33,4.22h-.16v.45c.15.15.6.45.6.75h.46V96.2h-.3l-.15.15v.9l.16.16H75c0,.15,1.22,1.8,1.52,1.8,0,.31.46,1.21.76,1.21a.79.79,0,0,0,.31.6h1.06c0,.15.45.61.6.76H80c.15-.15.45-.45.45-.61.6,0,1.36-1.2,2.11-.9s.46.6,1.21.6c0,.61-.29,2.26,0,2.72H84v.3l.15.3a2.9,2.9,0,0,1,.76,1.36.33.33,0,0,1,.31.3c.45.15.91.75,1.21.9,0,1.51-.75,2.72-.74,4.22.3,0,.91.76,1.06.76a6.75,6.75,0,0,1,.76-.15,1.6,1.6,0,0,0,1.06.9c0,.15.15.3.3.45h.31a1.25,1.25,0,0,0,.91.61c.15-.16.45-.31.6-.46v-.75h-.31a3.16,3.16,0,0,0-.76-.45v-.61a2.69,2.69,0,0,1,2.57-.75c0,.15.15.45.3.45v.61c.15,0,.45.15.6.15,0,.45.15.15.15.45h.31l.15.6h.15v.61c-.15,0-.45.45-.6.6v1.2c.3,0,.75.15,1.06.15,0,.16.45.31.75.46.16.45.91.9,1.22,1.2h.45c.15.3.46.46.61.61v.15l.45.15c0,.3.15,0,.16.3a1,1,0,0,0-.3.6c-.16,0-.31.15-.46.3h-.6a1.62,1.62,0,0,1-.91.3c-.6.61-.59,2.11-.59,3,.45,0,1.21.15,1.66.15,1.07,1.06,1.83,2.71,2.74,3.62,0,.45.15.45.46.6l.15.3c.45,0,.91.3,1.36.3l.91.61v.3l.76.75c1.51,0,3.32-.45,4.53-.45a1.23,1.23,0,0,1,1.21-.6l.45-.45c2.12,0,4.24.6,6.35.6.91,1.36,3.49,2.11,5,2.11,0,.15.3.3.45.3l.16.3h.45a4.28,4.28,0,0,0,.61,1.81c.91,0,2,.61,3,.61,1.67,1.65,7.26,1.35,9.53,1.81a4.08,4.08,0,0,0,1.06,1.2,1.11,1.11,0,0,0,.31.61h1.36l.6.6c0,.15.16.45.16.6.15,0,.3.15.6.15v.3l.31.15V139a2.83,2.83,0,0,0,1.21.3c0-.15.15-.3.15-.45h.45v1H139.3c0,.15-.45.6-.45.6v.91c.31.3.31.3.61.3a.32.32,0,0,0,.3.3c.16.15.31.45.46.6H141c0-.15.3-.45.3-.6h.3c.15.15.76.75.76,1.06h.6c.15-.61.6-.61,1.06-.46a.32.32,0,0,0,.3.31v.45c.16.15.46.3.46.45l.39.25c-.38-.4-.08-.87.23-1.17a6.6,6.6,0,0,1,2.65-1.79c.69-.14,1.18-.88,1.93-.87,1.49,0,3.16-1.94,3.75-3.07l2.54-4.52c.61-1.16,2-1.59,2.87-2.42.21-.2,1.13.47,1.61.23s1.85.45,1.85.18c0-1.17-1.2-1.66-1.61-2.54-.3,0-1-1-1.24-1.24s-1.16-1.09-.55-1.47c1.26-.82.89-2.18,1.8-3.06.45-.45,1.87,1,2.15.08s-.14-2.63-1.16-2.88c-.24-.07-1.72,1.2-1.35.13a2.42,2.42,0,0,0-.1-1.74c-.13-.45-.39-.86-.25-1.21-.42,0-1,.09-1.22-.18s-1.34-1-1.74-.26c-.58,1.16-2,1.2-3,1.73-.84.4-2.11,1-2.54-.36s.68-2.12.4-3.41a4.85,4.85,0,0,0-2.63-2.91l-5.65-2.25c-.78-.4-1.53,0-2.21-.68-.41-.43-.41-1.18-1-1.57a5.65,5.65,0,0,0-1.55-.62c-.3-.06-.81.2-1,0-.45-.46-.06-.51-.57,0-.18.18-1.06.53-1-.13,0-.48-.19-1.23.11-1.53.64-.62,1.45-.88,1.31-2.08-.08-.77,1.24-1,.71-1.93s-.43-1.26.62-1.25c.18,0,.3-.39.63-.38,1,0,.54,0,.37-1L140,96.48c0-.3.82-.77.31-1.11a5.89,5.89,0,0,0-3-.57c-.84,0-.42,2.24-.42,2.71s0,1.89-.69,1.88-.46-1.32-1-.28c0,.06-1.16-.61-1.52-.26s-.26,1.41-.7.5c-.64-1.35.19-.62-.95-.64-.57,0-.16-1.44-.86-.76-.51.51-.28-1-.31-1.14-.29-.63-1.15-1.27-.37-1.77.27-.17,1.27-1.27,1.42-1.27l-1.92-2c-.76-.85-.85-1.18-2.13-1.41a2.37,2.37,0,0,0-2,.46c-.31.29-1.56-.08-1.92-.09-.93,0-2.22.37-3.14,0a2.18,2.18,0,0,1-1.27-1.45,3.76,3.76,0,0,0-1-1.42c-.71-.72-.79-1.8-1.47-2.5-.2-.21-1.59-1-1.58-1.3a1.07,1.07,0,0,1-.46.67.36.36,0,0,0-.24.4c0,.18.27.32.43.38s.07.3,0,.51.45.28.56.28,0,.22-.12.24-.14.17-.2.37-.43-.09-.43-.09-.25-.24-.41-.24-.27.23-.35.49a.61.61,0,0,1-.52.38.52.52,0,0,1-.43-.26.22.22,0,0,0-.37,0c-.1.12-.14.12-.25.06s-.22-.12-.34,0-.48-.23-.5-.37a7.35,7.35,0,0,1,0-1.43,3.46,3.46,0,0,0,0-1A3.19,3.19,0,0,0,111,82.7a1.3,1.3,0,0,1-.51-1.56c.12-.67-.14-.86-.67-.83s-.37-.53-.37-.53a3.81,3.81,0,0,1-.14-.8c0-.45-.79-.35-1-.76s-.75,0-.82-.58-.56-.34-.71-.87-.18-.27-.67-.54a1.27,1.27,0,0,0-1.39.13,4.56,4.56,0,0,1-2.08.13c-.68,0-.41-.46.12-.64s-.52-.46-.59-1,1.15-1.23,2.32-1.63.09-1.47.09-1.47a9.4,9.4,0,0,0-1.79-1.3c-.6-.24-.43-1.48-.19-2.46s-.71-1.21-.89-1.74-1.12-.28-1.12-.28L99.7,66a5.44,5.44,0,0,1-1.42-.7c-.64-.46-.55-1.36-.51-1.89s-.13-1.13-.09-1.81S97.2,61,97.2,61a1.62,1.62,0,0,0-.57.6c-.2.37-.23.34-.92,1s-1.52-1.75-1.52-1.75a1.69,1.69,0,0,0-.6-.84c-.44-.31-.21-.68-.58-1.1a1.57,1.57,0,0,1-.33-1.06,1.15,1.15,0,0,0-.25-.94,1.18,1.18,0,0,1,0-1.4c.23-.49,0-1,.24-1.43S92.48,53,92.48,53a4.06,4.06,0,0,0-.52-1.4,2.32,2.32,0,0,1-.09-1.74c.12-.48-.44-1-.44-1a1.14,1.14,0,0,1-.36-1c.08-.56-.18-.64-.75-.76a1.28,1.28,0,0,0-.94.14,1.07,1.07,0,0,0-1,.44c-.42.56-.65.37-1.07.74a1.45,1.45,0,0,1-1.43.36c-.53-.16-.87.1-1.37.47s-.56-.08-1.16-.16-.45-.54-.44-1.18-.86-.57-.86-.57a.63.63,0,0,0-.72.25c-.3.41-.57.52-1.21.4s-.62-1.25-.62-1.25a2,2,0,0,0-.33-1.28,4,4,0,0,1-.62-1.37,2.86,2.86,0,0,1-.4-1.51c.12-.6-1.12-.54-1.11-1.07s-.68.14-.75-.38-.41-.2-.48-.69-.22-.45-.71-.46-.07-.68-.45-.91-.64.22-1.17.63a5,5,0,0,1-2,.5s-1,.33-1.43-.17-.52-.19-1.09.29-.56-.68-.56-.68a1.51,1.51,0,0,1,.28-1.17c.42-.52-.07-.79-.06-1.32s-.86-.5-1-.91-.33-.46-.71,0-.54.34-1.25.14-.72.41-1.14.81-.64.34-1.13.14a4.83,4.83,0,0,0-2.22-.06c-.65.14-1.43-.55-2-1.2s-1-.27-1-.27a3,3,0,0,1-.09-.68,1.93,1.93,0,0,0-.4-1.33,10.74,10.74,0,0,0-1.29-2.2c-.45-.34-1,1.39-1,1.39s-.24,1.16-.65,1.08,0-1.17-.28-1.77l-.26-.61s-.94,0-.44-.72a2.14,2.14,0,0,0,.47-1.95c-.22-.57-.06-1-.67-.77s-1,.1-1.23-.58-.51-1.58-.51-1.58S51.11,25,50.62,25a1.94,1.94,0,0,0-1.36.59c-.39.41-1,.06-1,.06a5.22,5.22,0,0,0-.53.78c-.2.38,0,.49-.57.19l-.56-.31s-.27.26-.87-.16-1.12-.54-1.53-1.08-1-.84-.47-1.21-.4-1.62-.4-1.62A1.38,1.38,0,0,0,42,22.06c-.72.33-2,.65-1.7.17s.73-1.39.05-.76-1.1.18-1.1.18a1.11,1.11,0,0,0-1,.21c-.34.38-1.36.4-1.16-.2l.19-.6a1.49,1.49,0,0,1,.5-.86c.42-.33,1.57-1.53,1.57-1.53A2.26,2.26,0,0,0,40,17.36a8.64,8.64,0,0,1,1.16-3.06c.86-1.68-.36-2.12-1.33-3,0-.11-2.23-1.74-1.54-1.73L30.43,3.13a10.06,10.06,0,0,0,0-2.74c-.08,0-.17-.08-.25-.08,0-.58-2.16-.17-2.66-.17a.18.18,0,0,1-.17.17c0,1-1.07,2.08-1.07,3.07-.08.08-.25.17-.25.33-.08,0-.25.17-.33.25C24.52,4,23,2.88,22,2.88c-.17-.33-.67-.25-.83-.58a2.18,2.18,0,0,1-1-.23c0,1.24-.51,2.39-.51,3.72-.08.08-.16.33-.33.33a.66.66,0,0,1-.33.33c0,2-.82,2.41-1.48,3.91a9.26,9.26,0,0,0,.09,3.4c.09.5.43,2.16.1,2.66s-1,.83-1.16,1.41l-.17.08c0,.25-1,.91-1.24.91L15.1,19c-1.42.75-4.08.33-5.42-.25A2.29,2.29,0,0,1,8.6,18c-.25.25-.42.83-.75,1a1,1,0,0,1-.33.66c0,.34-.16.67-.16,1-.42.42-1.83,1-1.83,1.66-.58.33-1.07,1.16-2,.75V23a3,3,0,0,0-.84,0,.28.28,0,0,1-.08.17c0,.17-.08.42-.08.58.42.42.59.5.59,1.25-.08,0-.25.08-.25.16-.75,0-1.5.5-2.25.5-.08.08-.24.25-.41.25,0,.33-.5.83,0,1.08,0,.25.34.58.51.75L5,33.85c0,.34-.08.75-.08,1a11.08,11.08,0,0,0-1,.58c-.25,0-2.15.84-2.4.93-.25,1-.75,2.3.06,3.28a4.16,4.16,0,0,1,1,2.66c0,.82-.26,1.64.31,2S4.12,45.21,4.06,45.28Z"/></g></g></svg>