<svg xmlns="http://www.w3.org/2000/svg" viewBox="0 0 59.1 45.33"><defs><style>.cls-1{fill:#2e6faa;fill-rule:evenodd;}</style></defs><g id="Layer_2" data-name="Layer 2"><g id="regije"><path id="vrgorac" class="cls-1" d="M30,2.47a11.71,11.71,0,0,0,1,1.65,6,6,0,0,1,1,1.74A7.24,7.24,0,0,0,33,7.69a20,20,0,0,1,1.39,1.82,2.91,2.91,0,0,0,1,1c.32.13.8.33.82.78a16.4,16.4,0,0,0,.46,2.39c.11.23.42.63.28.81s-.1.24,0,.4a1.31,1.31,0,0,1,.19.29l-.36.53a18.5,18.5,0,0,0,1.34,2.08.68.68,0,0,1,.38.57c0,.25,0,.51.54.6a10.85,10.85,0,0,1,2.26.51,2.06,2.06,0,0,0,1.06.27c.34,0,2.52,0,2.52,0l.83.38.66.11,2.49.62,3.63,2.8a7.82,7.82,0,0,1,.67.75,9.54,9.54,0,0,1,.63,1.84,4.35,4.35,0,0,0,.53,1.28,2.24,2.24,0,0,1,.52,1.3,3.45,3.45,0,0,0,.21,1.42,3.85,3.85,0,0,1,.23,2.06l-.5,2.07s-.36.62-.24,1,.48.71.54,1,.23.81.23.81.42.43.77.23a1.3,1.3,0,0,1,1.08-.19,5.67,5.67,0,0,0,.7.32,6.61,6.61,0,0,1,1.11.5l-.38,1.75-.47,1-.33.5L57,43.07l.07.16,0,.15,0,.07-.43.25,0,0-.94.37-.36.14-1,.37-.45.18-.8.3-.25.08-.23,0-.71,0-1.49.1L49,44.68l-.91-.46-.59-.28-2.89-1L44,42.82l-1.79.35-2-.74,0-.28c-.15,0-.31-.16-.63-.16,0-.47-.79-.47-1.1-.79-.48,0-1.27-.31-1.74-.31,0-.32-.47-.48-.47-.48-1.42,0-3.63-.47-4.58-1.41-1.11,0-2.53-.63-4-.63a14.41,14.41,0,0,0-.79-1.26c-.16,0-.63-.31-.79-.31v-.16c-.95-.63-2.84,0-3.95-.47v-.32l-.31-.16A6.87,6.87,0,0,0,19.81,31l-2.32,2.76c-.95,0-1.78-.72-2.72-.72,0-.63.15-1.41.15-1.89a7.56,7.56,0,0,0,.79-.15,2.33,2.33,0,0,1-1.12-1.58l-.31-.15c0-.95-2.21-1.26-2.53-1.89-.63,0-1.11-1.1-1.58-1.1,0-.79-.81-4.56-1.45-5.19H8.41c0-.16-.32-.47-.32-.63A4.73,4.73,0,0,1,5.4,18.55c0-.63.15-1.26.15-1.88H5.24a7.33,7.33,0,0,0-2.38-2.52l-.48-1.26H2.07C1.9,11.79,0,10.22,0,9.12c.16,0,.47.15.63,0,.63,0,4.08-3.93,4.08-4.25A10.29,10.29,0,0,1,7.86,4.4c.16.47,1.27.79,1.27,1.26.47,0,.63.16.79.63h1.74a1.89,1.89,0,0,1,1.26-.63c0-.32,1.1-.31,1.41-.31a3.21,3.21,0,0,0,2.85.94c0-.16.62-1.26.78-1.26l0-.63h.6c.15-.15.31-.63.47-.63,0-1.25,1.72-2.67,1.72-3.77h1.89C23.78,2.36,27.58,2.47,30,2.47Z"/></g></g></svg>