<svg xmlns="http://www.w3.org/2000/svg" viewBox="0 0 99.83 83.5"><defs><style>.cls-1{fill:#c3d266;fill-rule:evenodd;}</style></defs><g id="Layer_2" data-name="Layer 2"><g id="regije"><path id="vukomericke_gorice" class="cls-1" d="M99.82,41.75l-.23,1.09s-.11.62-.43.79-.17.43,0,.72-.69.76-.69.76-.42.31-.42.6-.49.62-.49.62l-.31-.17s-.45-.32-.43-.55-.08-.25-.37-.23a1,1,0,0,1-.59-.24l-1.87,1.35L95,48.63s-.42,0-.79,0-.65.26-.88.67-1,.47-1.6.4-.65.45-.65.45a1.73,1.73,0,0,1-.11.75,1.4,1.4,0,0,0-.32.66c0,.25-.3.55-.7.94s-.79-.11-1.07-.42.68-1.26.68-1.26-.49-.63-.68-.84-.61-.53-.47-.84-.26-.46-.46-.67-.6-.67-.89-.28-.44,0-.62-.38-.52-.26-.77.07-.5.37-.58,0-.35-.33-.35-.33-1.91,0-2.24,0-.13.35.09,1-.52.24-.89-.14-.32-.71-.61-1-.28-.78-.12-1.5-.28-1.42-.6-2.4a24.49,24.49,0,0,0-1.84-3.35l-.28.25c-.25.22-.91.15-1.41,0a3.45,3.45,0,0,0-1.68.06c-.31.12-.66.12-1.31.34a.94.94,0,0,0-.61.91l-.78,1,.08.37-.93,1.4-.4-.1s-.61,1-.84,1.48-.82.43-.86.18-.14-.29-.76-.34a10.24,10.24,0,0,0-3,.6c-.44.23,0,1.27.2,1.92s-.32.62-.58.41-.9.19-1.31.36-.78.38-.78.65-.55.66-.55.66-.44.16-.42.43-.4.66-.47,1a.4.4,0,0,0,.62.39c.31-.19.52.27.43.64s-.07.54.34,1,.18.66.05,1-.5.28-.78.61-.49.08-.74,0-.58.1-.69.55-.43.56-.69.31-.31-.24-.31-.24a2.49,2.49,0,0,1-.55.66,9.94,9.94,0,0,0-.88.93c-.27.26-.26.83-.29,1.24s0,1.17.47,1.34.61.88.66,1.31a.63.63,0,0,0,.64.64,2.67,2.67,0,0,1,1.42,1.07c.08.32,1.21,1.06,1.58,1.35s1.34.93,1.6,1.08.2.82-.11,1-.26.79-.47,1.2a3.39,3.39,0,0,0,0,1.48s.26.66.15.91a1.1,1.1,0,0,0,.05.88,3.41,3.41,0,0,1,.13,1.18,3.32,3.32,0,0,0,1,1.41.62.62,0,0,1,.35.52l0,.71-.58-.55-1.33-1.18a4.37,4.37,0,0,0-2.44-.57c-1.14,0-2.76,1.61-3.18,1.94s-.25.68-.14,1.12a5.48,5.48,0,0,0,.53,1.08l1.15,1.33s-.57.53-.78.53a1,1,0,0,0-.41.12.51.51,0,0,1-.44.12c-.25-.07-.27,0-.85,0s-.72,1.21-.79,1.48a1.65,1.65,0,0,0,.24,1.19,5.08,5.08,0,0,1,.56,1.88c0,.27-.38-.13-.78-.82a8.4,8.4,0,0,0-1.79-1.79,4.22,4.22,0,0,1-.89-1.4c-.12-.3-.91-.37-2.17-.4a2.13,2.13,0,0,1-1.82-.84c-.35-.29-1.29.26-1.92.69s-1,1.69-1.45,2.22-1.28.76-1.55,1a1.7,1.7,0,0,1-1.07.39,4,4,0,0,0-1.12.25,2.67,2.67,0,0,1-1.92-.35c-.72-.41-2.39,0-3.1.21a3.21,3.21,0,0,1-2.13-.53,7.37,7.37,0,0,0-1.69-.48c-.33-.06-.76-.74-.76-.74l-.81-1.34a1.68,1.68,0,0,1-.18-1.46c.34-.62,1-2,1-2a3,3,0,0,0,.05-1.66,7.11,7.11,0,0,1-.44-1.9,5.85,5.85,0,0,0-.71-1.6L30.23,68a2.27,2.27,0,0,0-1.58-.82,6.33,6.33,0,0,0-2.49.5c-.44.2-1,.56-1.44.32s-1.81-1.09-1.4-1.78,1.18-1.51.85-2a4.33,4.33,0,0,0-2.24-1.42A5.54,5.54,0,0,0,19,63a7.19,7.19,0,0,0-3,1.95c-.85,1.16-.75,1.09-.75,1.59s-.78,1.15-.78,1.15l-.38,1a1,1,0,0,1-1,.09c-.46-.28-.7-.41-1.17.08S11,70,10,69.82s-1.12-.34-1.12-.34v-.24c0-.23.38-.14.59-.14s.18-.24.18-.48-.38-.33-.61-.38-.12-.31-.07-.56.16-.28.32-.27.23-.27.23-.27,0-.15,0-.26a.32.32,0,0,1,.19-.26.41.41,0,0,0,.19-.37c0-.19-.21-.31-.35-.39a.46.46,0,0,1-.21-.34c0-.1,0-.14-.14-.15a.23.23,0,0,0-.26.18c-.07.16-.26.06-.32-.07s-.2-.12-.31-.12-.16.07-.28.31-.26.12-.29,0a.31.31,0,0,0-.37-.15c-.21,0-.17-.21-.18-.39s-.55-.33-.74-.41-.14-.65-.17-.86a.18.18,0,0,0-.32-.08c0,.1-.21.13-.43.06s-.24-.66-.47-1.41S.88,59.76.54,59.63A2.17,2.17,0,0,1,0,59.26c-.15-.14.49-.28.49-.28s.67-.26.5-.59-.16-.43.24-.46.57-.13.6-.46.28-.73.68-.72.24-.7.24-.7L4.19,56c.17,0,.42-.08.58-.08l.08-.17c.17,0,.5-.5.67-.58l-.09-.08a.7.7,0,0,1,.34-.34v-.16l.16-.09c0-.24.17-.49.17-.66a1.2,1.2,0,0,1,.49-.17c0-.08.34-.16.42-.16s.17-.25.25-.33a6.44,6.44,0,0,1,.24-1.33h.17c.08-.09.16-.25.25-.25a2,2,0,0,1,.33-1h.16l-.18-2.79.34-.28c0-.08.08-.25.08-.33.16,0,.66-.42.83-.5l.08-.17h.25c0-.16.25-.33.42-.33,0-.08.24-.41.41-.41,0-.09.08-.17.08-.25.17-.09.33-.33.5-.42,0-.58.83-1.24.83-1.91.16,0,.16-.33.33-.33l.25-.17c0-.08.16-.16.25-.16v-.08c.59-.42,1.41-2.5,2.24-2.25,0,.17.26.42.34.5a2,2,0,0,0,.33-.08l.08-.25.58-.66a1.62,1.62,0,0,1,.5-1.08v-.17l.5-.58v-.17l.34-.33a15.68,15.68,0,0,0-.66-5.09c-.19-.25-.77-.24-.77-.24a7.77,7.77,0,0,1-.89.1,1.15,1.15,0,0,1-.79-.25,1.24,1.24,0,0,1-.39-1,1.27,1.27,0,0,0-.28-.84c-.24-.31-.91-.32-1.06-.32a1.07,1.07,0,0,1-.59-.26s-.29.12-.43-.32-.95-.42-.95-.42S8.83,27.91,8,27.57s-.75-2.11-.7-2.51a2.5,2.5,0,0,0-.24-1.81c-.43-.56,0-.74,0-.74l.76-1.69s.88-3.08,1-3.67a1.08,1.08,0,0,1,1.44-.64c.55.22,1-.69,1-.69a3.84,3.84,0,0,0,1.34-.72c.48-.48.68,0,.68.2a1.79,1.79,0,0,1-.06.61.65.65,0,0,0,0,.66,7,7,0,0,1,.42.65s.69.91,1.06,1a1.39,1.39,0,0,1,.56.28s0,.26.39.2.44-.23.68-.23.56-.12.62-.38a.78.78,0,0,1,.53-.59.49.49,0,0,1,.6.25c.09.24.06.37.22.45s.54.19.56.41a.54.54,0,0,0,.33.46c.14.05,1.8,1.17,1.8,1.17s.68-1.32,1.13-1.54.63-.76,1-1.05.78-.69.09-1,.93-1.28,1.49-1.38,1.5-2.71,1.5-2.71.16-.66-1-1.85-7.84-4.08-7.84-4.08a5.42,5.42,0,0,1-1.28-.72c-.8-.56.13-1.36.13-1.36l1.19-1.24,2.86-1.07L20.08,0l.72,1a4.66,4.66,0,0,0,.83.85,3.61,3.61,0,0,1,.94.78,2.3,2.3,0,0,0,1.57.91,3.21,3.21,0,0,0,1.76-.51,2.23,2.23,0,0,1,1.4-.41c.46,0,1.22,0,1.6.46a14.93,14.93,0,0,0,1.33,1.76,2,2,0,0,0,1.2.48,6.18,6.18,0,0,1,1.7.54c.34.21,2.19.79,3,0A13.68,13.68,0,0,1,39.2,3.5a10.26,10.26,0,0,1,4-1.24,8.14,8.14,0,0,1,3.76.9A9.31,9.31,0,0,1,49.23,5C49.88,5.71,51,6.87,51,6.87A14.49,14.49,0,0,0,52.53,8.3c.52.38,1.31,1.07,1.31,1.07s2.41,1.69,3.69-.36,2.17-2.26,2.84-3A4.82,4.82,0,0,1,62.53,4.2c.93-.24,1.44-.49,1.67-1s1.34-.79,1.93-.75a17.36,17.36,0,0,1,2.06.43s1.78.21,2.25.89,1.91,2,2,2.78a2.43,2.43,0,0,0,1.32,2.28,8.58,8.58,0,0,1,3.44,2.36c.62,1,1.42,2,2.29,1.71s1.26-.47,1.5-.27.39.1.58-.28.17-1.4,1.21-.37,2.35,1.71,2.83,1.24.78-.77,1.17-.57.28.92-.07,1.35-1.92,3.21-2.45,3.54a1.61,1.61,0,0,0,.11,2.7c1.39.89,3,2.79,2.46,4s-.8,1.87.45,2.42a3.68,3.68,0,0,0,2.12.51c.53,0,1-.09.86.68s-.31,1-.12,1.5a6,6,0,0,1,.22,2.07c-.06.53-.6,1.25.46,1.55a4.92,4.92,0,0,0,3.18-.1l2.57-.84s1-.23.71.73-.75,2.31.06,3.28a4.21,4.21,0,0,1,1,2.67c0,.82-.26,1.63.31,2S99.88,41.68,99.82,41.75Z"/></g></g></svg>