<svg xmlns="http://www.w3.org/2000/svg" viewBox="0 0 49.75 38.6"><defs><style>.cls-1{fill:#489052;fill-rule:evenodd;}</style></defs><g id="Layer_2" data-name="Layer 2"><g id="regije"><path id="zabok" class="cls-1" d="M.38,5.65h.7l.08-.08c0-.18.09,0,.09-.26.17,0,.52-.61.52-.7.52,0,1.55-1.21,1.81-1.47.61,0,1.21-.6,1.74-.6.08-.09.86-.87,1-.87l.09-.17c.17,0,.35,0,.43-.18a1.88,1.88,0,0,0,.61-.25c0-.09.09-.18.09-.26.17,0,.34-.18.51-.35,0-.09,0-.18,0-.29.35,0,1.57-.4,1.75,0a1,1,0,0,1,.52.26c.09,0,.26.09.35.09.18.52.78.78.79,1.3.69.17,1.48.6,2.08.77,0,.44.44,1.3.45,1.74.08,0,.69.17.69.26H15a.94.94,0,0,1,.26.69,4.37,4.37,0,0,1,.27.6,2.33,2.33,0,0,1,1.17,1.47l.22-.08V7.13c.18,0,.35-.09.35-.18h.26c0-.08.08-.34.08-.43h.09c0-.17.09-.61.08-.78a.18.18,0,0,0,.18-.17h.34V5.22c.09,0,.35-.43.35-.52h.69c0,.18.26.26.35.26a.38.38,0,0,0,.35.35c0,.09.09.17.17.26h1.22V5.4a2.28,2.28,0,0,0,.43-1.22,3.58,3.58,0,0,0,.78-.43c0-.08.08-.26.17-.26a1.22,1.22,0,0,1,.26-.6h.43c.09.08.18.26.26.34h1V4l-.17.09c0,.26-.09.26-.26.34V5.66c.26,0,.52-.09.78-.09,0-.09.17-.26.17-.35h.69a1.1,1.1,0,0,0,.79.35c0-.09.17-.35.26-.35a.39.39,0,0,1,.17-.34L30.5,5h3.22c0-.09.26-.18.34-.18.17-.34.7-.34,1-.34V4.36c.78-.26,2.17-.09,2.95-.26a9.15,9.15,0,0,1,1.57,0l1,.35a2.92,2.92,0,0,1,.09,1.47c-1.13.26.1,2.16.45,2.42v.09l.87.43a.41.41,0,0,0,.17.26v2.25c.27,1,1.39,1,1.4,2.34-.26.52-.61.52-1.21.52a2.74,2.74,0,0,0,0,1.21,1.22,1.22,0,0,0,.61-.17c.09,0,.26.17.35.17V17a1.1,1.1,0,0,0,.53.09c.6-1,.94-1.91,2.24-1.91.35.44.88.87,1.23,1.3a1.37,1.37,0,0,1,1.21.7c.09,0,.18.08.26.08a.39.39,0,0,0,.27.26c0,.43.35.87.35,1.3.09,0,.17.09.26.09v.95s-.26.17-.08.17c0,.18-.09.52-.09.69a7.91,7.91,0,0,0-2.07,1.13,2.66,2.66,0,0,0-2.17.78c-.26-.09-.26-.35-.44-.43-.35,0-.69.08-.95.08,0,.18-.18.18-.26.26a1,1,0,0,1-.26.43v.26a1.18,1.18,0,0,0-1,.35.86.86,0,0,0-.61.35c-.35,0-.52.34-.87.34a3.43,3.43,0,0,1-3.2,1.65c0,.09-.69.42-1.33.88s-1,.9-1.09.93c0,.35-1.22,1-1.48,1C33,30.07,31.48,29.9,30,29.9a2.13,2.13,0,0,0-.52-.69l-3.65-.09c-.08.08-.43.17-.52.34h-.26c0,.09-.08.18-.08.26-.44.18-.52.61-.69,1-1.22,0-2.52-.26-3.83-.26-.51.51-3.46,1.12-3.46,2.33-.08,0-.17.18-.26.18v.17l-.08.09h-.18l-.08.08v.09H16.3v.26c-.09,0-.26.17-.26.17V34c-.69,0-2,1.91-2.07,2.43-.17.69-.43,1.44-.62,2.21-.58-.08-1.41,0-1.65-.48-.41-.84-.74-.87-1.24,0-.64,0-1.45-1.37-1.61-1.89-.4-1.28-.79-1-1.95-1-.75,0-.49-.62-1-.85a1.06,1.06,0,0,0-1.52.84c0,.66-.56.67-1.11.68a2.91,2.91,0,0,0-.35-.5c0-.74-1.79-1.35-2.1-2H.61C.42,33,.1,30.83.47,30.47v-.13l.13-.06.06-.06v-.06l.06-.06H.9A.13.13,0,0,1,1,30v-.12h.06v-.18l.3-1.54c.06,0,.12-.13.18-.13,0-.24.12-1.66-.37-1.66a3.91,3.91,0,0,1,0-1.23h.06c.06-.12-.06-.62.12-.62v-.12c.06,0,.13-.12.19-.12a3.77,3.77,0,0,1,.79-1.36c0-.12.13-.49.25-.49,0-.25.06,0,.06-.25.25-.12.06-1,.06-1.23-.07,0-.13-.06-.19-.06v-.74l-.06-.06a1.86,1.86,0,0,1-1.12-.78L0,18.12c.09-.26.35-.35.52-.43,0-.09.09-.18.17-.26H.87c.17-.18,1.12-.18,1.3-.52.52,0,1.73-.09,2-.52h.17a3.53,3.53,0,0,0-.27-1.91c-.08,0-.17-.08-.26-.17-.26,0-.52-.17-.78-.17-.09-.09-.17-.26-.26-.26s-.09-.18-.09-.26-.17-.09-.26-.18-.17-.52-.26-.52v-.17s-.18-.17-.26-.17c-.09-.43-.79-1.39-1.23-1.39l-.08-.08L.49,11c0-.61.43-1.39.43-1.9C1,9.12,1.09,9,1.18,9c0-.52-.36-1.21-.36-1.65A.38.38,0,0,1,.47,7a.43.43,0,0,1-.34-.18V6.08L.3,6C.29,5.91.38,5.74.38,5.65Z"/></g></g></svg>