<svg xmlns="http://www.w3.org/2000/svg" viewBox="0 0 189.86 147.31"><defs><style>.cls-1{fill:#9cd2ef;fill-rule:evenodd;}</style></defs><g id="Layer_2" data-name="Layer 2"><g id="regije"><g id="zadar"><path class="cls-1" d="M161.36,143.83s-.11-.33,0-.45.3,0,.44.1a.74.74,0,0,0,.47.16.49.49,0,0,1,.5.38c.07.29.06.48.28.61a.46.46,0,0,0,.55,0c.08-.12,0-.25-.14-.35a1,1,0,0,1-.31-.6c0-.18,0-.33.26-.32s.3,0,.43,0a.33.33,0,0,1,.36.25.52.52,0,0,1-.08.43c-.07.09-.17.3.07.38s.54-.07.79.17.2.32.39.36.33,0,.4.18.09.22.25.28.34.17.36.31,0,.23.21.25.37,0,.4.3a.43.43,0,0,1-.2.45.55.55,0,0,1-.49,0c-.22-.1-.33-.28-.47-.23s-.12.14-.1.26,0,.62-.43.58a4.16,4.16,0,0,0-1-.07,1.12,1.12,0,0,1-.9-.21c-.19-.2-.68-.8-.8-.94a3,3,0,0,1-.67-.87,5.53,5.53,0,0,0-.39-1A1.41,1.41,0,0,1,161.36,143.83Z"/><path class="cls-1" d="M47.78,8.57a.36.36,0,0,1,.28.13c.15.14.3,0,.42.23s.19.27.24.41,0,.25.06.3.11-.05.17,0a1.23,1.23,0,0,1,.46.41c.26.33.71.8.89,1a3.5,3.5,0,0,1,.53.68c.07.14,0,.22.06.32a1.31,1.31,0,0,1,.43.59c.06.21-.07.24,0,.34s.28.37.08.42a.64.64,0,0,1-.67-.19,11.44,11.44,0,0,1-.85-.81,5.06,5.06,0,0,0-.9-.89,1.13,1.13,0,0,1-.55-.71c0-.25.09-.6.07-.78a.56.56,0,0,0-.31-.38,1.07,1.07,0,0,1-.49-.52C47.44,8.7,47.67,8.57,47.78,8.57Z"/><path class="cls-1" d="M83,96.82c0,.14-.06.16.1.26s.32.18.22.4-.18.27-.13.41.15.2.35,0a.72.72,0,0,0,.22-.31c.06-.1.08-.15.23-.14s.15.18.08.3a.53.53,0,0,0,0,.66c.22.24.23.26.39.35a.24.24,0,0,1,.13.34c0,.16-.1.19-.29.21s-.33,0-.32.15a.4.4,0,0,0,.26.35,1,1,0,0,0,.5.14c.2,0,.38,0,.41.14s0,.13-.14.24a.85.85,0,0,1-.54.22,1.17,1.17,0,0,0-.66.12.52.52,0,0,0-.21.48c0,.17,0,.39.17.46a.47.47,0,0,0,.5-.11c.17-.12.24-.2.35-.15s.12.1.06.33-.14.13-.07.36,0,.16.19.24.17.14.28.42.19.35.45.39.38-.14.5.14a2.19,2.19,0,0,0,.3.59c.22.33.37.65.62.61s.5,0,.53.25a.73.73,0,0,0,.39.58c.17.09.45,0,.64.09s.39.32.72.25.3-.29.33-.48.06-.26-.23-.54-.64-.4-.65-.61a1.67,1.67,0,0,0-.37-.8c-.24-.31-.32-.42-.27-.55s.36,0,.3-.22-.12-.21-.19-.39,0-.32-.2-.43-.24-.06-.38,0-.21.26-.52.22-.12-.37,0-.49a1.32,1.32,0,0,0,.17-.56c0-.19,0-.35-.25-.35a.68.68,0,0,0-.4.11,1,1,0,0,1-.41.14c-.18,0-.21-.2-.23-.32s0-.13-.18-.34a2.86,2.86,0,0,1-.44-.58,1.17,1.17,0,0,1-.08-1.09,4.41,4.41,0,0,1,.32-.46c.09-.12.12-.21.21-.31a.31.31,0,0,0-.11-.45,1,1,0,0,0-.85,0c-.23.16-.16.24-.43.15s-.23-.15-.23-.33,0-.39-.2-.4a1.09,1.09,0,0,1-.43,0A.42.42,0,0,0,83,96.82Z"/><path class="cls-1" d="M18.16,33a.31.31,0,0,0,0,.3.29.29,0,0,0,.3.13c.15,0,.37-.08.36.09s-.1.34.07.55a7,7,0,0,0,.83.74.47.47,0,0,0,.47.1,1.22,1.22,0,0,0,.34-.19c.09-.06.18-.06.21,0s0,.18,0,.29-.1.15-.09.25a.79.79,0,0,1,0,.34c0,.15-.11.27,0,.43s.32.16.44.39.16.35.34.38a.44.44,0,0,1,.39.23c.09.17.21.29.34.3s.16-.11.21-.17.12-.19.22-.11.05.15.06.24-.11.3.07.46a.34.34,0,0,0,.5-.07,1.14,1.14,0,0,0,.42-.7c0-.39,0-.51-.17-.62L23,35.94c-.13-.08-.25-.13-.3-.24s.06-.21.18-.16a.94.94,0,0,0,.42.07c.2,0,.41-.08.54.12a1,1,0,0,0,.42.42c.21.11.55.1.77.36l.25.3s.16.11.24.07a.24.24,0,0,0,.1-.29,5,5,0,0,0-.41-.5.31.31,0,0,1-.14-.28c0-.14.11-.45,0-.6s-.26-.13-.34-.28a2.45,2.45,0,0,0-.33-.51c-.15-.15-.2-.13-.4-.25a2,2,0,0,1-.53-.43c-.21-.23-.65-.85-1-.9s-.34.07-.6.07a1.8,1.8,0,0,0-.6,0,2,2,0,0,1-.65.07c-.19,0-.28-.25-.32-.33a.59.59,0,0,0-.49-.47.53.53,0,0,0-.44.1c-.1.07-.25.31-.42.3a.74.74,0,0,0-.46,0A1,1,0,0,0,18.16,33Z"/><path class="cls-1" d="M30.48,31.94a.53.53,0,0,1,.59.11c.24.26.3.53.82.72s.68.07,1,.51.31.5.69.72.47.28.62.53a1.87,1.87,0,0,0,.75.84A2.87,2.87,0,0,1,36,36c.28.31.36.56.28.75a.36.36,0,0,1-.35.21c-.1,0-.34,0-.35.19s.15.19.28.18a2.33,2.33,0,0,1,.7,0,2,2,0,0,0,.59.15.83.83,0,0,1,.79.22c.28.3.55.44.54.73s-.1.3-.24.29a1.52,1.52,0,0,0-.56,0,.58.58,0,0,1-.39.07c-.11,0-.27-.23-.36-.12a.35.35,0,0,0,0,.42c.09.19.12.16.11.39s-.07.19-.2.25-.21,0-.36.13a.91.91,0,0,1-.76.06c-.22-.07-.15,0-.37-.18a5.32,5.32,0,0,1-.49-.51c-.11-.11-.12-.2-.34-.19a1,1,0,0,1-.86-.18A5.15,5.15,0,0,1,33,38a1.11,1.11,0,0,0-.7-.43c-.28-.07-.34.08-.37.21a1.29,1.29,0,0,0,.17.8,4,4,0,0,1,.4,1,2.73,2.73,0,0,0,.2,1,2.62,2.62,0,0,1,.34.87c0,.19-.09.29-.3.29s-.36-.17-.62-.09a.87.87,0,0,1-.72-.16c-.25-.14-.47-.58-.93-.8A5.16,5.16,0,0,1,29.44,40a10.79,10.79,0,0,0-.9-.88c-.33-.22-.54-.43-.52-.59s.05-.49-.1-.52-.41,0-.44-.21a1.5,1.5,0,0,0-.07-.56,1.08,1.08,0,0,1-.07-.67,1.17,1.17,0,0,0-.05-.71c-.11-.19-.2-.3-.16-.41s.14-.12.22,0,.31.4.38.47.16.23.31.23.21,0,.24-.11-.09-.17-.12-.24-.24-.44.16-.5a1.8,1.8,0,0,1,.8.06c.38.06.72,0,.81.3s0,.42.17.48.21,0,.24-.08.31-.3.52-.16a2.79,2.79,0,0,1,.49.47.31.31,0,0,0,.34.12c.1,0,.07-.22-.07-.43a5.78,5.78,0,0,1-.44-.74c-.16-.3-.18-.42-.42-.81s-.57-.85-.72-1.17-.33-.77,0-1A2,2,0,0,1,30.48,31.94Z"/><path class="cls-1" d="M54,62.34s0-.19.33-.12.08.09.59.2a3.75,3.75,0,0,1,1.28.41,8.75,8.75,0,0,1,.87.49,3.37,3.37,0,0,0,.59.34,3.17,3.17,0,0,1,.8.49,6.53,6.53,0,0,0,1,.75,3.46,3.46,0,0,1,.72.56,2.85,2.85,0,0,0,.56.47,1.84,1.84,0,0,1,.49.38c.17.17.37.31.71.63a8.36,8.36,0,0,1,.88.9c.32.38.62.69.89,1a4.65,4.65,0,0,1,.45.71.72.72,0,0,1,.12.6.33.33,0,0,1-.55.18c-.2-.21-.41-.45-.68-.78a1,1,0,0,0-.79-.45c-.28,0-.41.06-.45-.14s.06-.43,0-.67a1,1,0,0,0-.42-.45c-.19-.14-.43-.21-.48,0s.24.36.16.6-.24.31-.46.08-.45-.6-.86-.71-.62,0-.68-.35,0-.57-.09-1-.18-.63-.44-.55-.14.07-.53,0-.3-.16-.44,0-.17.15-.36-.08-.11-.36-.11-.36-.09-.25-.31-.15-.12.08-.28.15a.77.77,0,0,0-.24.15s-.41.06-.3-.09a2.59,2.59,0,0,1,.27-.32s.11-.29-.08-.28-.22,0-.37-.19a2.54,2.54,0,0,0-.63-.64,2.15,2.15,0,0,1-.93-.73C54,63,54,63,54,62.82A1,1,0,0,1,54,62.34Z"/><path class="cls-1" d="M78.07,64.85s-.21,0-.22.18,0,.24.24.56a2.07,2.07,0,0,1,.59.86,4.36,4.36,0,0,0,.56,1c.11.16.71,1.14,1.09,1.61a4.38,4.38,0,0,0,.79.73c.29.28.33.24.49.53s.07.47.49.63a4.21,4.21,0,0,1,1.23.43,1.82,1.82,0,0,0,1,.38c.24,0,.38-.13.32-.45a.72.72,0,0,0-.29-.5c-.11-.09-.18-.2-.29-.31s-.17-.28,0-.37.27-.16.28-.53.07-.61-.16-.91-.39-.41-.74-.34-.35.23-.74,0-.31-.42-.58-.62-.23-.3-.64-.77-.75-1.34-1.38-1.5-.46-.07-.54-.07-.3-.12-.26-.27.07-.13,0-.3a.8.8,0,0,1-.12-.38c0-.17,0-.35-.15-.35s-.18,0-.2.16,0,.17-.12.33-.15.23-.32.23Z"/><path class="cls-1" d="M80.44,72.21s.18.19.17.34-.12.26-.11.46,0,.69,0,.94a1,1,0,0,1,0,.42.21.21,0,0,1-.19.11c-.08,0-.18,0-.15.14a.62.62,0,0,1,0,.45,2.17,2.17,0,0,1-.23.42.27.27,0,0,1-.24.09c-.11,0-.22-.15-.41-.07a.83.83,0,0,1-.5.1.27.27,0,0,1-.22-.3c0-.17.05-.33-.08-.41a3.81,3.81,0,0,1-.64-.54,1.87,1.87,0,0,1-.42-.86,1,1,0,0,0-.15-.57c-.1-.13-.16-.31-.37-.3a.64.64,0,0,1-.47-.19c-.11-.1-.07-.12-.2-.19A.58.58,0,0,1,75.9,72c-.09-.13-.11-.29-.26-.26s-.11.13-.11.26a.44.44,0,0,0,.2.31c.09.09.34.2.29.38s-.1.22-.2.17-.22-.14-.27,0,0,.29-.15.31a.23.23,0,0,1-.29-.12.58.58,0,0,1-.13-.37c0-.13-.07-.38-.29-.39s-.43.06-.57-.08a4,4,0,0,1-.34-.41.63.63,0,0,0-.36-.22.93.93,0,0,1-.79-.18c-.29-.28-.47-.64-.62-.77a2.75,2.75,0,0,1-.33-.48,2.57,2.57,0,0,0-.47-.51c-.11-.07-.38-.26-.39-.4a1.52,1.52,0,0,1,.06-.5c0-.17.06-.27-.08-.34a.64.64,0,0,1-.43-.41l-.18-.67c0-.12,0-.23-.13-.25s-.16.13-.2.28a.31.31,0,0,1-.53.1c-.26-.23-.39-.23-.49-.49s-.06-.45-.29-.59-.47-.38-.32-.61.37-.38.39-.54-.05-.2-.16-.21-.32,0-.37-.15a.25.25,0,0,1,.11-.28s.09-.11,0-.22-.54-.48-.74-.75a6.71,6.71,0,0,0-.49-.77c-.21-.24-.85-.92-1.1-1.19s-1.12-1.16-1.36-1.46a3.24,3.24,0,0,1-.54-.81,4.86,4.86,0,0,1-.37-1.17,2.65,2.65,0,0,1-.1-.58.38.38,0,0,1,.12-.33c.14-.11.36-.25.38-.48a.64.64,0,0,0-.17-.45c0-.06-.26-.24-.26-.42s.14-.29.26-.24.15.09.2.27.07.35.21.4.17-.07.23-.14.24-.24.43-.11.3.22.3.34a.23.23,0,0,1-.13.24.25.25,0,0,0-.14.28.51.51,0,0,0,.26.31.71.71,0,0,1,.49.29,14.05,14.05,0,0,0,1,1.11,3.83,3.83,0,0,1,.44.38,2.84,2.84,0,0,1,.41.46,4.25,4.25,0,0,0,.61.83c.33.34,1.16,1.21,1.38,1.4a3.37,3.37,0,0,1,.68.68c.13.25.32.6.44.78a3.51,3.51,0,0,1,.57.84c.18.4.67,1.08.86,1.56s.5,1,.84,1a2.69,2.69,0,0,0,.55.07.62.62,0,0,0,.4-.13.66.66,0,0,1,.43-.18c.22,0,.69,0,.87,0a.63.63,0,0,1,.48.2,1.55,1.55,0,0,1,.37.59,2.94,2.94,0,0,0,.34.67,5.53,5.53,0,0,1,.56.84,3,3,0,0,0,.37.84c.22.28.49.63.77.58s.69-.23,1,0a1.21,1.21,0,0,1,.4.62c.07.23,0,.47.22.63S80.44,72.21,80.44,72.21Z"/><path class="cls-1" d="M58.81,58.7c.32.25,1.24,1.07,1.6,1.36a16.13,16.13,0,0,1,1.41,1.23,2.15,2.15,0,0,1,.5.85,1.6,1.6,0,0,0,.3.65,2.27,2.27,0,0,1,.48.84c0,.3,0,.32-.06.46s-.58.13-.74-.08-.49-.8-.55-.89a.33.33,0,0,0-.32-.22c-.17,0-.37.12-.55-.08s-.69-.76-.84-.89a5.33,5.33,0,0,1-.75-.64,3.7,3.7,0,0,0-.72-.86,3.6,3.6,0,0,1-.68-.49,3.62,3.62,0,0,0-.61-.58c-.16-.09-.25,0-.39-.12a.43.43,0,0,1-.18-.49.78.78,0,0,1,.71-.44A2.18,2.18,0,0,1,58.81,58.7Z"/><path class="cls-1" d="M108.77,121.31a.44.44,0,0,1,.45,0,3.47,3.47,0,0,1,.51.25,4.66,4.66,0,0,1,.88.61c.17.17.58.69.82.92a3.12,3.12,0,0,1,.91,1.14,12.57,12.57,0,0,0,.74,1.51,4.08,4.08,0,0,0,.66.88,8.94,8.94,0,0,1,.62.72c.13.17.1.23,0,.28a.37.37,0,0,1-.4-.08c-.1-.12-.63-.62-.74-.75s-.25-.26-.4-.2-.12.1-.14.27,0,.29-.16.25-.19-.08-.22-.19a.74.74,0,0,0-.25-.38c-.17-.13-.37-.19-.46-.32a.38.38,0,0,1-.09-.28c0-.11-.07-.3-.21-.29s-.26.06-.42-.1-.19-.35-.42-.58l-.43-.46c-.06-.07,0-.19.12-.19a.2.2,0,0,0,.21-.12c0-.1,0-.18-.18-.2s-.43-.08-.48-.32a1.53,1.53,0,0,1,0-.46c0-.13,0-.31-.12-.31a.4.4,0,0,1-.42-.24,3.21,3.21,0,0,0-.25-.49.64.64,0,0,1-.16-.39A.46.46,0,0,1,108.77,121.31Z"/><path class="cls-1" d="M90.28,95.48A1.6,1.6,0,0,1,90,95c-.09-.25,0-.5-.22-.52s-.28.14-.48.05-.23-.46-.58-.39-.52.13-.68,0a.25.25,0,0,1-.14-.28.42.42,0,0,0-.15-.37.44.44,0,0,1-.24-.42.41.41,0,0,0-.15-.46c-.18-.1-.31-.16-.32-.37s0-.33.22-.42.29,0,.37.17,0,.43.23.53.2-.06.2-.13-.06-.15,0-.24a.29.29,0,0,0,0-.41.83.83,0,0,1-.3-.71,2.9,2.9,0,0,0,.08-1.26c-.1-.4-.3-.47-.43-.78a4.22,4.22,0,0,1-.49-1.11c0-.33.11-.5,0-.72a.76.76,0,0,1-.07-.79.52.52,0,0,1,.6-.2.46.46,0,0,1,.32.4c0,.24,0,.32.13.45a.52.52,0,0,0,.44.2,1,1,0,0,1,.72.21,1.43,1.43,0,0,1,.36.5,4.68,4.68,0,0,0,.38.66,2.36,2.36,0,0,0,1.1.75c.1,0,.16,0,.2-.11s0-.25.2-.23.15.07.27.25a1.74,1.74,0,0,0,.23.33c.11.12.19.26.11.39s-.17.27-.2.32-.06.13,0,.18.14.07.25,0,.21-.22.44-.1A1.45,1.45,0,0,1,93,91c.17.29.16.62.36.83a8,8,0,0,1,.56.7c.07.11.16.21.12.33S94,93,93.79,93s-.28-.07-.32,0,0,.17.14.3a3.56,3.56,0,0,0,.48.32.29.29,0,0,1,.15.24c0,.11-.1.17-.2.26s-.35.21-.41.31a.2.2,0,0,0,.13.29c.14,0,.18,0,.31-.1a.74.74,0,0,1,.69,0c.2.11.42.21.53.9v0a4.65,4.65,0,0,0,0,.75.79.79,0,0,0,.3.57,3.73,3.73,0,0,0,.49.27,1.65,1.65,0,0,0,.44.16,1.15,1.15,0,0,1,.49.17c.11.1.26.3.21.47s-.13.36,0,.52a.57.57,0,0,1,.2.47c0,.24,0,.41.16.45a1.67,1.67,0,0,1,.57.11c.24.1.27.09.41.15s.41.1.42.41,0,.39.13.46a1,1,0,0,0,.44.13c.21,0,.54,0,.7,0a.32.32,0,0,1,.11.45c-.09.19-.19.36-.24.46s-.1.27,0,.37.24,0,.35,0,.31-.31.41-.38a.38.38,0,0,1,.52,0,1,1,0,0,1,.46.67,1.28,1.28,0,0,1-.09.64,2.55,2.55,0,0,1-.28.4.36.36,0,0,1-.45.13c-.3-.1-.35-.19-.44-.14a.13.13,0,0,0,0,.23c.09.07.37.09.36.34s-.12.34,0,.62.3.48.44.75.24.66.52.82a2.19,2.19,0,0,1,.88.61c.34.41.31.53.53.77a4.28,4.28,0,0,0,.49.41c.12.09.2.13.19.3s0,.26-.33.17a1.42,1.42,0,0,1-.62-.38c-.18-.16-.5-.49-.71-.53a.57.57,0,0,1-.46-.22c-.13-.18-.29-.42-.34-.5s-.1-.17-.18-.13a.49.49,0,0,1-.36.1.46.46,0,0,1-.31-.25.59.59,0,0,1-.07-.29.36.36,0,0,0-.13-.37,1.9,1.9,0,0,0-.78-.35c-.46-.13-.45-.13-.51-.23a.56.56,0,0,1,0-.36.36.36,0,0,0-.06-.28.28.28,0,0,0-.35,0,.59.59,0,0,1-.46.13.48.48,0,0,1-.36-.37,1.06,1.06,0,0,0-.28-.57c-.17-.13-.4-.29-.44-.46a.66.66,0,0,1,0-.3c0-.08-.06-.23-.19-.18s-.17.24-.31.22a.54.54,0,0,1-.34-.19,2.82,2.82,0,0,0-.66-.58,1.69,1.69,0,0,1-.55-.49,2.32,2.32,0,0,1-.36-.74,2.78,2.78,0,0,0-.38-.81,1.88,1.88,0,0,1-.41-.51c-.07-.18-.07-.35-.32-.4s-.28,0-.45-.3-.56-.91-.71-1.22a1.93,1.93,0,0,1-.26-.6c-.06-.25-.12-.44-.3-.5a1.34,1.34,0,0,1-.37-.12,3.52,3.52,0,0,0-.4-.18,3,3,0,0,1-.55-.27,1.81,1.81,0,0,1-.38-.47l-.09-.1Z"/><path class="cls-1" d="M1.39,15.7s.09-.24.31-.09a6.57,6.57,0,0,1,.71.63.61.61,0,0,1,.15.34.56.56,0,0,0,.17.44c.2.22.5.39.51.65s0,.37.13.49a7.24,7.24,0,0,0,.69.51c.15.1.14.12.13.31s-.09.42,0,.57.39.47.59.38.39-.27.62-.15S7,21.29,7.16,21.45s.19.3.38.29a.59.59,0,0,1,.56.17c.21.21.59.62.59.62s.18.17.25.14,0-.15,0-.21,0-.32.06-.37a.39.39,0,0,1,.45.11c.19.16,1,1,1.11,1.09a.24.24,0,0,1,0,.39c-.15.1-.17.16-.17.28s.07.1.15.11a.78.78,0,0,1,.57.36,1.46,1.46,0,0,0,.57.72,2.3,2.3,0,0,1,.55.51c.17.18.34.53.51.72a6.17,6.17,0,0,1,.64.8,4.05,4.05,0,0,0,.72.93,4,4,0,0,1,1,1,.86.86,0,0,1,.05.48.16.16,0,0,1-.27.09c-.09-.07-.85-.83-1-.94s-.26-.31-.34-.25-.12.11-.13.19a.43.43,0,0,1-.13.25.46.46,0,0,1-.47,0,5,5,0,0,1-.66-.59.44.44,0,0,1-.13-.39.29.29,0,0,0-.1-.32c-.08-.05-.07,0-.18,0s-.1.21-.34.2-.3-.09-.44,0-.39.17-.48.12a.24.24,0,0,1-.13-.15c0-.08,0-.1-.16-.22s-.33-.26-.24-.36.09-.22,0-.38a7.49,7.49,0,0,0-1-1c-.23-.19-.27-.21-.34-.19a.15.15,0,0,0-.14.15c0,.09.15.3,0,.34s-.2.05-.35-.08a7.05,7.05,0,0,1-.56-.5c-.1-.13-.12-.23,0-.29s.23,0,.33-.07a.17.17,0,0,0,0-.29.68.68,0,0,1-.37-.18.75.75,0,0,1-.26-.33c-.07-.12-.11-.14-.2-.08s-.12.21-.36.15-.49-.39-.58-.49-.16-.36-.07-.47a.32.32,0,0,1,.38,0c.09.07.23.2.35.18s.24-.13.12-.2-.3-.18-.3-.34,0-.4-.14-.38a.71.71,0,0,1-.6-.11c-.17-.17-.19-.33-.31-.29a.13.13,0,0,0-.09.14s0,.24-.27.22a1.58,1.58,0,0,1-1-.29,17.17,17.17,0,0,1-1.59-1.26,8.52,8.52,0,0,1-1.25-1.32c-.36-.5-.5-.81-.71-1.15s-.32-.46-.37-.56a.56.56,0,0,1-.11-.38c0-.17,0-.38-.06-.45S0,17.09,0,17s.1-.2.37-.22.61,0,.77-.2.08-.24.15-.34a.48.48,0,0,0,.09-.28C1.38,15.87,1.39,15.73,1.39,15.7Z"/><path class="cls-1" d="M43.78,44.33c-.15.06-.41.06-.39.27s.17.14.3.22.13.18.22.27.26.19.33.27.09.25.2.29.19,0,.31.13c.27.35.35.62.59.66s0-.18.1-.29.22-.11.39-.11a2.09,2.09,0,0,1,1.09.22c.22.2.23.25.26.42a2.38,2.38,0,0,1,0,.52c-.15.2,0,.26.13,0s.31-.45.49-.46.29.17.4.29.37.29.37.57-.09.4,0,.48.17,0,.28-.09.14-.22.32-.21a.35.35,0,0,1,.35.22.73.73,0,0,0,.45.38c.14,0,.28-.18.34,0s0,.27.08.35a.75.75,0,0,1,.2.5.76.76,0,0,1-.2.31c-.07.07-.28,0-.1.16s.3.29.52.25a.65.65,0,0,1,.59.14c.2.17.4.29.49.54a1.27,1.27,0,0,0,.2.41c.09.11.39.4.43.46s.15.13.23,0,0-.35.2-.36.29.06.4-.07a.7.7,0,0,0,0-.71,3.17,3.17,0,0,0-.36-.39s-.09-.14-.05-.16.23,0,.31-.11a.47.47,0,0,0,.09-.24.83.83,0,0,1,.08-.35c.06-.1.13-.17.19-.28s.13-.28.23-.24.1.11.09.23a5,5,0,0,0,.09.51,2.09,2.09,0,0,1,.08.36c0,.15,0,.29.12.33s.19-.09.23-.13a1.53,1.53,0,0,1,.59-.32.62.62,0,0,1,.53.13c.18.16.22.37.41.52s.55.14.64.36,0,.36-.14.39-.58-.06-.73,0a1.35,1.35,0,0,1-.45.19c-.24,0-.39.1-.39.18s0,.1.16.1a2.94,2.94,0,0,1,1,0,1.58,1.58,0,0,1,1,.62,1.43,1.43,0,0,1,.25.65.41.41,0,0,0,.26.32c.14,0,.45-.12.53-.13a.42.42,0,0,1,.3.26.26.26,0,0,1-.11.29.87.87,0,0,1-.48,0c-.11,0-.29-.07-.37,0s-.17.33-.5.38a3.15,3.15,0,0,1-.7,0c-.07,0-.24,0-.23.09s.16.13.24.19.39.14.29.33,0,.56-.56.69c-.05,0-.29.18-.33.18-.38.08-.38-.19-.42,0s.23.34.31.48.24.55.12.72a.64.64,0,0,1-.83.21A5.62,5.62,0,0,1,53.66,56a4.18,4.18,0,0,1-.54-.4c-.06,0,.17-.23.09-.29s-.5,0-.5-.13.1-.36-.08-.44-.34,0-.33.15a3.74,3.74,0,0,1,0,.45s0,.22-.13.26a.53.53,0,0,1-.47-.22c-.1-.14-.28-.21-.47-.38s-.5-.36-.67-.54-.34-.32-.29-.54.22-.23.36-.28a4.41,4.41,0,0,0,.78-.48.58.58,0,0,0,.12-.23A1.12,1.12,0,0,0,51,53a1.49,1.49,0,0,1-.69.13c-.22,0-.43,0-.52-.23s-.07-.28,0-.34.28-.05.18-.23-.19-.2-.35-.31-.37-.25-.46-.32-.26-.16-.32,0,.11.19.09.46-.1.29-.27.31a.91.91,0,0,1-.68-.07c-.35-.18-.2-.43-.44-.42a.83.83,0,0,1-.71-.19c-.27-.23-.4-.23-.59-.47a2.48,2.48,0,0,0-.48-.56c-.33-.27-.28-.43-.36-.76s.13-.52-.12-.66-.5-.14-.76-.44-.41-.54-.7-.54a2.26,2.26,0,0,1-1.11-.28,8.9,8.9,0,0,1-1.19-.75c-.31-.24-.44-.52-.6-.47s0,.24.06.38a2.77,2.77,0,0,1,.14.41,1.68,1.68,0,0,0,.39.77c.17.14.39.41.32.66a1.52,1.52,0,0,1-.17.43c-.09.15-.25.25,0,.49s.37.2.65.77a4.74,4.74,0,0,0,.57,1,3.54,3.54,0,0,1,.48.73,2.15,2.15,0,0,0,.49.93c.1.12.22.23.34.35s.3.11.39.19a6.56,6.56,0,0,1,.48.61c.19.19.54.39.56.64a3,3,0,0,1,0,.41c0,.17.11.16.08.32s-.19.37-.57.34-.33-.12-.52-.09-.26.13-.49,0,0-.23-.24-.31-.63-.14-.7-.44a2.36,2.36,0,0,0-.22-.73c-.21-.52-.1-.3-.23-.63s-.11-.27-.2-.52-.07-.31-.23-.48a1.47,1.47,0,0,1-.4-.84,1.3,1.3,0,0,0-.37-.82c-.19-.21-.08-.25-.33-.42s-.33-.24-.27-.39a1.49,1.49,0,0,1,.1-.35c.09-.18.25-.33.17-.34-.3,0-.73,0-.8-.26a2.07,2.07,0,0,1,0-.64.72.72,0,0,0-.23-.58c-.19-.15-.3-.2-.34-.49a1.35,1.35,0,0,0-.17-.61c-.14-.22-.22-.18-.28-.39a1.27,1.27,0,0,0-.39-.63,2.57,2.57,0,0,1-.64-1A2.45,2.45,0,0,0,38,44.5a2.09,2.09,0,0,1-.45-1,5,5,0,0,1,0-.81c0-.21,0-.33-.08-.34a.27.27,0,0,1-.25-.18c-.07-.17-.13-.14-.25-.39s-.26-.45-.43-.32-.16.18-.31.14-.15-.18-.06-.28a1.13,1.13,0,0,0,.34-.55c.06-.29.14-.67.35-.66s.13,0,.2.16.15.27.34.25.34-.16.48,0,.13.4.3.39.2-.22.26-.48a4.33,4.33,0,0,1,.24-.82s.2-.28.43-.23a.45.45,0,0,1,.4.43.47.47,0,0,0,.37.47,1,1,0,0,1,.63.37,5.76,5.76,0,0,0,.61.92c.3.32,1,.73,1.07,1.31s0,.65.15.88.24.31.45.22.17-.34.43-.26.16,0,.25-.08.21-.07.13,0-.17.22,0,.26.23,0,.19-.07,0-.16.06-.19a.58.58,0,0,1,.2,0s.08.41,0,.49S43.78,44.35,43.78,44.33Z"/><path class="cls-1" d="M18.68,1.93a.56.56,0,0,1,.37.15,1.28,1.28,0,0,0,.53.42c.35.17.42.1.62.28s.71.51.8.89.11.65.41.86a2.66,2.66,0,0,1,.77.8c.18.31.23.29.23.58a.53.53,0,0,1-.23.45c-.06.07-.55.53-.57.83s0,.55-.11.68-.36.29-.33.44.15.18.19.43a1.65,1.65,0,0,0,.17.59c.12.23.16.17.16.45s-.1.4,0,.69.14.47,0,.68-.26.29-.18.41.29.1.24.28-.1.25,0,.34a.26.26,0,0,0,.24.12c.12,0,.16,0,.38.14a1,1,0,0,0,.59.24.87.87,0,0,1,.58.14c.21.16.11.15.26.22a.83.83,0,0,1,.39.31,1.3,1.3,0,0,0,.45.4,2.2,2.2,0,0,1,.57.57,1.24,1.24,0,0,1,.22.65c0,.23,0,.58-.11.71a.76.76,0,0,1-.35.18s-.15.08-.11.22a.58.58,0,0,0,.23.31l.92.84a.7.7,0,0,1,.24.55.68.68,0,0,1-.31.61,2,2,0,0,1-.73.21.88.88,0,0,1-.59-.11c-.23-.14-.43-.37-.65-.4a.55.55,0,0,1-.42-.27,5.87,5.87,0,0,0-.48-.63.42.42,0,0,0-.4-.19c-.22,0-.59,0-.71-.05a.25.25,0,0,1,0-.4,1.29,1.29,0,0,0,.36-.45c.05-.15-.08-.21-.21-.2s-.47.12-.62,0a.25.25,0,0,1-.12-.3c0-.13,0-.24-.08-.25s-.12,0-.26.13-.05.45-.19.46-.27-.09-.41-.26-.22-.33-.36-.43a.5.5,0,0,1-.19-.48.84.84,0,0,0-.09-.55c-.11-.22-.35-.54-.25-.77a.55.55,0,0,1,.42-.34c.16,0,.2-.11.13-.27s-.31-.29-.33-.53.05-.38-.05-.59a.77.77,0,0,1-.15-.51c0-.23.19-.39-.07-.66a5.75,5.75,0,0,1-.73-.85c-.13-.23-.3-.42-.24-.72s0-.4.06-.51.05-.21-.06-.27A1.81,1.81,0,0,1,18,7.93a.85.85,0,0,1-.22-.39s-.1-.28-.22-.23-.1.12-.1.2a1.14,1.14,0,0,1,.08.38.26.26,0,0,1-.39.18,1,1,0,0,1-.56-.44c-.13-.27-.13-.46-.3-.36s-.24.29-.62.19a1.57,1.57,0,0,1-.74-.37,3.47,3.47,0,0,1-.56-.6A.51.51,0,0,1,14.28,6c.06-.15.26-.18.26-.31s-.11-.2-.24-.3a.5.5,0,0,1-.2-.51.66.66,0,0,1,.45-.53c.32-.13.43-.16.48-.23S15,4,15,4s-.12-.12-.1-.2a.64.64,0,0,0,.06-.28A.43.43,0,0,1,15,3.24c0-.08.11-.19.16-.31s.11-.31.28-.33.17,0,.26,0a.38.38,0,0,0,.31,0,.51.51,0,0,0,.2-.23c.06-.09.41-.54.74-.54a3,3,0,0,1,.82.07,1.08,1.08,0,0,0,.6.05A1.05,1.05,0,0,1,18.68,1.93Z"/><path class="cls-1" d="M37,0a.8.8,0,0,1,.58.26c.27.28.55.7.77.93s.23.24.42.31.2.1.3.27.08.09.18.15a.33.33,0,0,1,.23.28.64.64,0,0,0,.28.48,1,1,0,0,1,.34.47c.07.17.09.09.1.31a.67.67,0,0,0,.19.44c.1.14.48.53.39.74s-.22.27-.19.4.14.18.25.2.42.15.43.44,0,.68-.5.72-.8,0-1.2.09a.22.22,0,0,0-.21.23.46.46,0,0,0,.17.3c.1.09.59.49.62.83a.94.94,0,0,1-.21.74,3.17,3.17,0,0,1-.71.48,1.35,1.35,0,0,1-.47.12,1,1,0,0,1-.42,0c-.1,0-.22-.14-.34-.06s-.08.34,0,.44a8.63,8.63,0,0,0,.68.85c.2.19.29.35.25.54a1.2,1.2,0,0,0,0,.81c.16.3.25.43.39.75a2,2,0,0,0,.55.83,12.81,12.81,0,0,1,1.19,1.07,12.52,12.52,0,0,1,1.31,1.94c.12.22.23.38.32.54a1.69,1.69,0,0,1,.24.61.86.86,0,0,1-.16.67c-.17.2-.48.36-.47.68a4.77,4.77,0,0,1,0,.86,1.2,1.2,0,0,1-.17.62.74.74,0,0,1-.77.15,8.61,8.61,0,0,0-1.06-.34,1.32,1.32,0,0,1-.68-.17c-.19-.11-.33-.27-.51-.23a.3.3,0,0,0-.24.29c0,.12,0,.31-.13.41a.45.45,0,0,1-.46,0c-.14-.08-.42-.37-.82-.63a3.18,3.18,0,0,1-.7-.62c-.23-.23-.24-.33-.48-.36a.92.92,0,0,1-.5-.2,5,5,0,0,1-.53-.47.27.27,0,0,1-.09-.21c0-.06,0-.19-.07-.22s-.16.05-.23.08a.3.3,0,0,1-.31,0c-.13-.08-.21-.19-.13-.3s.18-.26.24-.32a.15.15,0,0,0,0-.22c-.07,0-.18,0-.25-.11s-.21-.13-.26,0a.73.73,0,0,0,0,.28s0,.2-.14.2a.3.3,0,0,1-.32-.29c0-.22,0-.43-.08-.56s-.31-.29-.33-.41a.48.48,0,0,1,.07-.35c.08-.1.16-.21.06-.27s-.22.16-.46.07-.21-.15-.17-.24.16-.33.09-.38-.07,0-.12,0-.31.44-.52.38-.2,0-.31-.14-.21-.33-.43-.31a.37.37,0,0,1-.38-.15.35.35,0,0,1-.1-.27c0-.07,0-.27-.06-.31s-.18,0-.29.06a.83.83,0,0,1-.57,0c-.22-.09-.38-.22-.52-.27a.82.82,0,0,1-.33-.2.6.6,0,0,1-.19-.5.84.84,0,0,1,.42-.45,3.26,3.26,0,0,1,1.18-.32A8.34,8.34,0,0,0,32,12.29a2.49,2.49,0,0,1,.53-.11.85.85,0,0,0,.61-.15c.18-.17.49-.51.62-.67s.22-.24.42-.24a1.1,1.1,0,0,0,.65-.1.64.64,0,0,0,.21-.45,2.4,2.4,0,0,0-.09-1.17,7,7,0,0,0-1-1.33,4.57,4.57,0,0,1-.59-.64.88.88,0,0,1-.08-.89,3.89,3.89,0,0,0,.53-1.2,2.28,2.28,0,0,0,0-1.08c-.09-.35-.15-.44-.21-.69a2.22,2.22,0,0,0-.39-.79c-.22-.29-.77-1-.79-1s-.22-.31-.11-.4.25-.05.38,0l.73.61a.77.77,0,0,0,.42.18c.16,0,.41-.18.6-.18S35,2,35,1.93s0-.13,0-.21-.25-.21-.25-.41.06-.4.27-.44.32,0,.45-.14.6-.7.89-.71A5,5,0,0,1,37,0Z"/><path class="cls-1" d="M94.78,75.25a1,1,0,0,0,.36.29c.22.09.26,0,.48-.09s.27,0,.3.1a.25.25,0,0,1,0,.26.48.48,0,0,0-.09.35c0,.18.2.17.3.17a.25.25,0,0,0,.21-.12l.31-.42c.08-.1.12-.21.3-.19s.31.23.42.34a1.34,1.34,0,0,1,.2.5.91.91,0,0,0,.25.45c.09.09.42.42.58.62a1.54,1.54,0,0,1,.24.36c.06.11,0,.24-.07.38a.21.21,0,0,0,.11.32c.12,0,.24-.11.31-.17a.33.33,0,0,1,.3-.08c.13,0,.2.13.21.3s-.13.17-.25.25,0,.2.15.19.47,0,.69,0a.37.37,0,0,1,.4.2,5.47,5.47,0,0,1,.58.84,1.86,1.86,0,0,1,.13.67,1.12,1.12,0,0,0,.32.66c.09.11.24.19.25,0a1.43,1.43,0,0,1,.05-.45,1.11,1.11,0,0,0,.08-.36c0-.11,0-.28.13-.23a1.11,1.11,0,0,1,.5.31c.11.14.37.42.46.43a2.49,2.49,0,0,0,.37.09.51.51,0,0,1,.28.16c.1.09.16.23.26.23s.31.13.26.27a1.06,1.06,0,0,0,0,.5,1.73,1.73,0,0,1-.05.51,1,1,0,0,0-.07.16l.09.08-.07.08-.09-.06a.12.12,0,0,0-.05.11c0,.08.1.07.19,0s.23-.08.28,0,.07.2.19.22l.23,0,.14-.11.1.1-.13.18.33.16a.45.45,0,0,0,0-.32,1.16,1.16,0,0,1-.07-.28l-.15,0,0-.14.17-.06s0-.28-.1-.35-.34-.31-.34-.42,0-.32.18-.26a4.19,4.19,0,0,0,.41.23,6,6,0,0,1,.74.43c.34.25.41.51.7.77a1.49,1.49,0,0,0,.61.37,1.24,1.24,0,0,1,.44.36c.13.13.26.24.17.34s-.26-.07-.39-.14-.29-.13-.31,0,.16.28.2.34a.73.73,0,0,1,.06.51,1.82,1.82,0,0,1-.18.64.41.41,0,0,0,0,.5.15.15,0,0,0,.22,0s0-.23,0-.19a.69.69,0,0,0,.16.13c.08,0,.11.1.12.22a1.08,1.08,0,0,0,.11.5c.1.21.19.21.41.27s.23.09.4.31a3.9,3.9,0,0,0,.42,1.26s.13,0,.15,0l.59.87c.32.49.26.65.52,1s.51.16.71.22a4.2,4.2,0,0,1,.83.38c.25.15-.08.29-.16.55s.19.11.39.18a12.44,12.44,0,0,1,1.07.87c.23.17.29.29.47.33a.23.23,0,0,0,.26-.11.41.41,0,0,1,.32-.13.55.55,0,0,1,.53.36.76.76,0,0,1-.07.56c-.06.13,0,.26.14.39a9,9,0,0,0,.86.77,4.11,4.11,0,0,1,.59.64,1.28,1.28,0,0,0,.3.28c.12.06.16,0,.21-.07s.14-.14.23-.2l0,0a.69.69,0,0,1,.39,0,.7.7,0,0,1,.16.1,3.44,3.44,0,0,1,.64.93,2.48,2.48,0,0,1,.16.9c0,.22,0,.26.14.28s.27-.09.42-.09.32,0,.42.13a1,1,0,0,1,.22.49c0,.17,0,.41-.25.45s-.52-.14-.67-.18-.24,0-.24.14a.31.31,0,0,0,.19.2c.09,0,.32.11.47.18a.44.44,0,0,1,.23.29c0,.09.12.11.19.28a1.23,1.23,0,0,0,.17.29c.06.09.17.22.34.46a1.16,1.16,0,0,1,.24.54.89.89,0,0,0,.1.38c.06.14.25.41.33.58a.43.43,0,0,1-.13.49c-.14.14-.27.08-.4,0a3,3,0,0,0-.55-.19.58.58,0,0,0-.65.28c-.1.21,0,.4,0,.84a1.21,1.21,0,0,1-.12.76,1.29,1.29,0,0,1-.5.46c-.17.09-.28.14-.39.21s-.21.17-.34.13-.1-.08-.16-.31-.32-.34-.46-.5a1,1,0,0,1-.24-.5c0-.18,0-.38,0-.44s.26,0,.41,0a1.61,1.61,0,0,0,.38,0,.28.28,0,0,0,.25-.22.41.41,0,0,0-.14-.32.73.73,0,0,1-.22-.5.41.41,0,0,1,.17-.4c.08-.07.15-.12.12-.24a.14.14,0,0,0-.16-.13,2,2,0,0,1-.49,0,1,1,0,0,1-.56-.19.49.49,0,0,1-.18-.28c0-.1,0-.25-.13-.29s-.2.1-.26.17a.31.31,0,0,1-.33.11.64.64,0,0,1-.43-.46.46.46,0,0,1,.16-.5l.3-.26c.07-.06.19-.14.12-.22s-.13,0-.35,0a.54.54,0,0,1-.36-.26c-.12-.14,0-.21,0-.31a.2.2,0,0,0,0-.26c-.07-.07-.15,0-.28,0s-.21,0-.23-.15.13-.17.19-.21l.25-.12c.08,0,.21-.1.21-.21s-.18-.23-.32-.35a.94.94,0,0,0-.44-.19,1,1,0,0,1-.39-.18,8.5,8.5,0,0,1-.65-.57c-.17-.18-.17-.29-.16-.58s-.17-.32-.28-.37a1.58,1.58,0,0,1-.24-.15,3,3,0,0,1-.36-.34c-.15-.18-.25-.17-.31-.17s-.14.07-.08.23.09.22.11.27v0a1.79,1.79,0,0,1,.13.32,6.81,6.81,0,0,1,.13.79c0,.3.14.56.16,1s.32.51.44.62.32.25.36.4,0,.33-.21.35-.33-.13-.48-.35-.42-.5-.65-.82-.6-.69-1-1.17a8.52,8.52,0,0,1-.71-1.14h0c-.07-.09-.21-.36-.22-.37-.12-.22-.24-.26-.33-.23s-.11.12-.07.3a1.37,1.37,0,0,0,0,.28h0a5.47,5.47,0,0,0,.55,1.15,2.85,2.85,0,0,1,.35.92c.08.26.25.37.25.57s-.15.28-.42.36-.35.37-.43.58-.13.18-.23.15,0,0-.11-.31-.44-.25-.78-.4-.5-.46-.92-1-.8-.75-1.16-1.15a3,3,0,0,1-.58-.89l0,0-.1-.28a1,1,0,0,0-.33-.51,15.19,15.19,0,0,1-1.14-1.23c-.21-.26-.07-.44,0-.69s0-.23-.1-.21-.14.22-.21.31-.26,0-.33,0a2.45,2.45,0,0,1-.56-.34,2.72,2.72,0,0,1-.41-.5c-.09-.18-.23-.18-.34-.34a3.33,3.33,0,0,1-.4-.59c-.23-.42-.69-.57-.91-.79a.48.48,0,0,1-.11-.56c0-.11.1-.21,0-.32s-.21,0-.42-.09a.72.72,0,0,1-.42-.25c-.14-.14-.54-.77-1-1.21s-1.1-1.38-1.44-1.84a7.12,7.12,0,0,0-.9-.92c-.37-.42-.27-.44-.39-.8s-.12-.32-.29-.78a10.2,10.2,0,0,0-.77-1.19,1.11,1.11,0,0,1-.16-.67c0-.22-.22-.35-.41-.55a.44.44,0,0,1-.17-.4c0-.13.05-.14,0-.3s-.16,0-.36-.12-.31-.28-.5-.42-.33-.21-.34-.07.26.41.33.45a.65.65,0,0,1,.07.36c0,.07,0,.26-.2.22s-.36-.28-.63-.56c-.11-.11-.3,0-.48-.13s-.13-.37-.26-.39-.26.33-.3.32,0-.15,0-.22,0-.17-.09-.23-.19,0-.26.08a.23.23,0,0,1-.31,0c-.14-.11-.1-.24-.14-.41a1.23,1.23,0,0,0-.08-.4,6.36,6.36,0,0,0-.53-.73,2.16,2.16,0,0,1-.35-.58c-.15-.31-.1-.43-.27-.59a1.57,1.57,0,0,0-.68-.27c-.11,0-.22.16-.42,0s-.12-.18-.31-.48a1.16,1.16,0,0,0-.58-.54c-.21-.08-.23,0-.26-.15s.12-.22.17-.33,0-.13-.1-.23l-.85-.67a.66.66,0,0,1-.23-.41c0-.13,0-.2-.1-.28a.17.17,0,0,0-.28.11c0,.14,0,.34,0,.48s-.07.19-.26.17-.41-.3-.54-.42a.56.56,0,0,1-.27-.49.47.47,0,0,1,.4-.48c.25,0,.43.07.69.05s.18-.22.21-.44.28-.19.37-.3a.39.39,0,0,0,0-.46,3.2,3.2,0,0,0-.51-.55.77.77,0,0,1-.28-.51c0-.23-.15-.29-.26-.45a.75.75,0,0,1-.21-.44,1.27,1.27,0,0,0-.44-.66A.8.8,0,0,1,85.3,69a2.68,2.68,0,0,1,.13-.92,1.1,1.1,0,0,1,.23-.54.42.42,0,0,1,.36-.2c.15,0,.44.24.68.46s.79.77,1.09,1.08A9.26,9.26,0,0,1,88.64,70a9.57,9.57,0,0,0,.78,1,.59.59,0,0,0,.47.11.71.71,0,0,1,.38.14,5.32,5.32,0,0,0,.44.32,7,7,0,0,1,.57.43.56.56,0,0,0,.32.13.64.64,0,0,1,.31.2.36.36,0,0,1,.12.3c0,.15-.1.17,0,.24s.08.08.08.17,0,.23.13.15.16-.32.32-.25a1.76,1.76,0,0,1,.55.22l.37.39s.12.13.12.2-.06.09-.15,0-.3-.18-.19,0,.16.29.25.34.15.18,0,.18-.06.15-.05.23.15.28.23.29a1.34,1.34,0,0,1,.33.12l.14.09.3-.1.15.24Z"/><path class="cls-1" d="M119.5,104.15a.38.38,0,0,1,.47.07c.2.21.31.31.49.28a.53.53,0,0,0,.32-.12.55.55,0,0,1,.34-.17.39.39,0,0,0,.35-.17c.06-.12,0-.21-.16-.34a.57.57,0,0,1-.22-.46.48.48,0,0,1,.28-.43.74.74,0,0,1,.83,0c.27.22.55.49.5.73s0,.34-.17.4-.21.06-.2.18.06.13.16.13.18,0,.33.16a.49.49,0,0,0,.46.12,3.09,3.09,0,0,0,.46-.12c.14-.06.35-.13.49,0s.08.24,0,.37-.15.12-.09.27.21.14.36,0,.27-.25.55-.19a1.33,1.33,0,0,0,.61,0c.18,0,.44,0,.51.07a.43.43,0,0,1-.05.39,1.65,1.65,0,0,0-.13.56c0,.21.08.24.3.39a4.37,4.37,0,0,1,.69.62,1,1,0,0,1,.2.34c0,.13,0,.22.32.29a6.48,6.48,0,0,1,1.18.27,3.45,3.45,0,0,0,.86.19,1.64,1.64,0,0,1,.8.39,3,3,0,0,0,1.05.62c.4.12.83.07,1.09.54s.08.81.58,1.23a10,10,0,0,1,.81.64c.38.38.42.43.66.54a1,1,0,0,1,.65.53c.25.41.38.52.65.61s.4-.14.66.16,0,.69.3.92l.62.47c.09.08.15.05.11.36s-.11.34.13.59.32.23.41.47.08.6.51.69.64.15.82,0a.53.53,0,0,0,.19-.44c0-.17-.06-.15.11-.35a.78.78,0,0,1,.87-.22,2.88,2.88,0,0,1,.93.45,1,1,0,0,1,.51.58,1.23,1.23,0,0,0,.28.52.83.83,0,0,1,.28.59.69.69,0,0,1-.11.46c-.07.12-.17.19-.11.34a.26.26,0,0,0,.4.1c.12-.12.32-.29.51-.23s.28.3.49.28.45-.16.46.14,0,.31,0,.51a.45.45,0,0,1-.25.47c-.21.12-.48.2-.47.53s-.07.45.08.72a1.15,1.15,0,0,1,.18.62c0,.3,0,.34,0,.56s.3.35.3.71,0,.63.21.75.51.06.56.51.13.52.37.63.6-.08.86.25a1.55,1.55,0,0,0,.59.54,2,2,0,0,1,1.08.57,5.64,5.64,0,0,0,1,1.08,9.06,9.06,0,0,1,1.47,1c.23.3.4.39.62.65a2,2,0,0,1,.49.72,2.59,2.59,0,0,0,.91,1.11,3.17,3.17,0,0,1,1.06.77,5.91,5.91,0,0,0,.83.91c.25.21.54.38.64.47s.29.21.23.44-.13.37-.08.5.16.14.22,0,.15-.3.39-.08a1,1,0,0,1,.41.58c.06.28-.06.32-.16.36s-.27.08-.21.31a.82.82,0,0,1,0,.31.67.67,0,0,0,.13.39.3.3,0,0,1-.06.43c-.15.09-.28,0-.37.18s-.18.28-.39.22-.23-.19-.17-.37.06-.39-.08-.43-.39,0-.48-.19a2,2,0,0,0-.29-.58c-.18-.2-.22-.15-.29-.31s-.13-.32-.23-.26a3,3,0,0,0-.35.42,3.82,3.82,0,0,0-.37.42,3.05,3.05,0,0,1-.29.42,1,1,0,0,1-.64.31,1.47,1.47,0,0,1-.95-.16c-.31-.18-.61-.48-.9-.68a7.77,7.77,0,0,1-.86-.52,1.44,1.44,0,0,1-.33-.5c-.05-.11-.09-.22-.18-.18s-.25.13-.36.08-.07-.19-.09-.25a.6.6,0,0,0-.15-.29l-1.35-1.22a.46.46,0,0,0-.32-.15.91.91,0,0,1-.36-.08.84.84,0,0,0-.37-.09.48.48,0,0,1-.42-.24.86.86,0,0,1,0-.65c.11-.13.3-.16.3-.26a.18.18,0,0,0-.24-.18l-.44.13a.59.59,0,0,1-.65-.17c-.21-.29-.17-.26-.44-.6s-.34-.55-.64-.57a1,1,0,0,0-.57.07c-.12.05-.36.24-.22.41a2.83,2.83,0,0,0,.52.49c.32.26.43.4.48.63s0,.35-.16.37a.37.37,0,0,1-.3-.07.4.4,0,0,0-.33-.07.7.7,0,0,1-.45-.08c-.1-.06-.14-.18-.14-.38a2.3,2.3,0,0,0,0-.83,2.18,2.18,0,0,0-.27-.41.33.33,0,0,0-.22,0,.33.33,0,0,1-.27,0c-.11-.05-.18-.18-.32-.14s-.12.22,0,.33.51.48.55.76a.55.55,0,0,1-.9.58,4.87,4.87,0,0,0-.7-.37,1,1,0,0,1-.54-.3c-.14-.18-.2-.5-.46-.7s-.56-.35-.63-.69a1.19,1.19,0,0,1,0-.45,1.63,1.63,0,0,0-.1-.47A.4.4,0,0,1,138,128c.11-.11.2-.29.1-.36s-.32-.07-.44-.26a.45.45,0,0,1,.15-.57.5.5,0,0,1,.62.12,4.58,4.58,0,0,1,.46.65c.08.11.13.12.2.09a1.3,1.3,0,0,0,.34-.28.17.17,0,0,0-.05-.24c-.09-.06-.21-.12-.33-.21a1.44,1.44,0,0,1-.35-.71.75.75,0,0,0-.29-.48,2.37,2.37,0,0,0-.65-.45c-.2-.1-.46-.17-.54-.12s-.18,0-.16.09,0,.33,0,.45a.3.3,0,0,1-.12.3.3.3,0,0,1-.34.05.31.31,0,0,1-.17-.17,1.17,1.17,0,0,1-.11-.28.57.57,0,0,1,.11-.48c.15-.2.28-.3.29-.46a.36.36,0,0,0-.12-.27,1,1,0,0,0-.43-.27.12.12,0,0,0-.11.17c0,.07.15.13.13.25s-.11.12-.23.09a.67.67,0,0,0-.49-.07,1.1,1.1,0,0,1-1.34-.64.93.93,0,0,1,.23-.91,3.5,3.5,0,0,0,.37-.42.25.25,0,0,0,.07-.23c0-.11-.16-.13-.25,0l-.15.14a.34.34,0,0,1-.42,0,3.16,3.16,0,0,1-.5-.54.15.15,0,0,0-.19-.07c-.1,0-.08.14-.07.19s0,.24-.1.24a.25.25,0,0,1-.21-.12.33.33,0,0,1,0-.32.47.47,0,0,0,0-.41.29.29,0,0,0-.42-.08c-.15.1-.22.17-.34.1a.25.25,0,0,1-.16-.28c0-.14,0-.5,0-.65s-.05-.3-.15-.3-.14.11-.18.15-.17.29-.36.3a.57.57,0,0,1-.45-.18c-.16-.14-.38-.4-.59-.39a.56.56,0,0,1-.51-.19,2.32,2.32,0,0,1-.65-.83,2.44,2.44,0,0,0-.4-.74.54.54,0,0,1-.21-.47.79.79,0,0,0-.13-.64c-.16-.19-.4-.35-.37-.64s0-.45.07-.62a1.08,1.08,0,0,0-.19-.76c-.2-.24-.38-.45-.59-.46a.82.82,0,0,1-.51-.14,2.75,2.75,0,0,1-.46-.54,2.32,2.32,0,0,1-.14-.35.67.67,0,0,0-.3-.47,1.91,1.91,0,0,1-.59-.61,4.35,4.35,0,0,0-.54-.72c-.19-.17-.84-.94-1.1-1.27s-.85-.92-1.07-1.14a1.42,1.42,0,0,1-.27-.37,2.63,2.63,0,0,0-.42-.64,1.09,1.09,0,0,1-.29-.5.73.73,0,0,1,.19-.72c.23-.18.24-.16.25-.34s-.06-.33-.26-.33-.22-.1-.38-.19-.31-.2-.5,0-.31.22-.55.09a1,1,0,0,1-.45-.52l-.36-.72a4.1,4.1,0,0,1-.29-.63A.31.31,0,0,1,119.5,104.15Z"/><path class="cls-1" d="M73.47,84.81c-.1,0-.22,0-.25.17s0,.29.18.46l0,0v.18a3.36,3.36,0,0,1,.59,1c.11.44.15.57,0,.67a.31.31,0,0,1-.37,0s-.11-.14-.21-.23h0a3,3,0,0,0-.28-.2c-.2-.07-.55-.29-1-.55a2.37,2.37,0,0,1-.83-.59,1.22,1.22,0,0,1-.18-.46c0-.11-.08-.16-.24-.12a.69.69,0,0,1-.6-.09c-.28-.16-.27-.22-.55-.29a1.56,1.56,0,0,1-.49-.18,1.36,1.36,0,0,0-.53-.17c-.18,0-.38,0-.53-.2a3.65,3.65,0,0,0-.66-1,1.3,1.3,0,0,1-.43-.48c-.18-.25-.2-.59-.58-.6a1.76,1.76,0,0,1-1-.15,3.55,3.55,0,0,1-.58-.74c-.13-.19-.2-.26-.41-.27s-.5,0-.57-.1a.19.19,0,0,1,.07-.3c.13-.08.35-.2.35-.42a.82.82,0,0,0-.3-.76,1,1,0,0,0-.69-.39c-.37-.08-.39,0-.53-.08s-.1-.23,0-.34a1.89,1.89,0,0,0,.26-.39.65.65,0,0,1,.39-.35.52.52,0,0,0,.44-.41.48.48,0,0,0-.13-.51,1.29,1.29,0,0,0-.55-.41,2.32,2.32,0,0,1-.57-.33,3.84,3.84,0,0,0-.46-.44c-.17-.11-.29-.17-.42-.07a.31.31,0,0,0-.11.42,2.76,2.76,0,0,0,.31.36c.05,0,.06.19,0,.2a.67.67,0,0,1-.34-.09.34.34,0,0,0-.35,0c-.11.07-.14.17-.29.15s-.19-.07-.18-.19a.59.59,0,0,0-.21-.46,1.33,1.33,0,0,0-.54-.28c-.24-.07-.41,0-.49-.17s0-.19,0-.32a.45.45,0,0,0,0-.45A3.67,3.67,0,0,0,59,74.2c-.23-.19-.27-.16-.41-.14s-.14.12-.28.09-.12-.17-.06-.26a.49.49,0,0,0-.21-.73c-.18-.09-.33-.1-.35-.25a1.31,1.31,0,0,0-.19-.53c-.14-.25-.18-.37-.32-.6s-.11-.2-.17-.25a.17.17,0,0,1,0-.24c.07-.09.19-.07.29,0a.51.51,0,0,0,.4.11c.13,0,.16-.22.16-.22a.21.21,0,0,1,0-.1c.05,0,.09-.14-.1-.26s-.43-.15-.55-.32a1.15,1.15,0,0,0-.38-.47.6.6,0,0,1-.26-.23c-.09-.1-.11-.14-.2-.18s-.16-.07-.16-.2a.75.75,0,0,0-.16-.46c-.14-.18-.53-.68-.62-.76a.56.56,0,0,0-.53-.14.39.39,0,0,0-.3.31c0,.08-.07.21-.18.21s-.14,0-.23-.19a1.54,1.54,0,0,1-.37-.77,5.69,5.69,0,0,0,0-.7c-.05-.19-.15-.31-.47-.34s-.61.12-.72,0a1.53,1.53,0,0,1-.29-.4c0-.08-.14-.36.1-.4s.49,0,.57-.22a.42.42,0,0,0-.08-.45.32.32,0,0,0-.47,0c-.19.17-.23.36-.49.34s-.28-.2-.73-.17a1.08,1.08,0,0,1-.74-.12c-.14-.09-.21-.36,0-.42s.44,0,.49-.22a.4.4,0,0,0-.3-.43.84.84,0,0,1-.45-.22c-.22-.18-.31-.6-.73-.58s-.39.06-.56,0a.45.45,0,0,1-.19-.43c0-.13.06-.42-.07-.57a1.4,1.4,0,0,0-.27-.25c-.08-.07-.17-.08-.23,0s.11.35-.11.41-.3.07-.34.21.09.17.17.2.33.1.2.45-.14.42-.12.58,0,.38.18.52.28.11.38,0,.17-.17.26-.1.07.14,0,.37-.08.26,0,.47.32.14.34.53,0,.38.13.59.22.23.23.48.09.3.26.42.2.12.19.35-.06.29,0,.5a.46.46,0,0,0,.4.41c.25,0,.4-.09.55.26s.07.43.3.62a3.53,3.53,0,0,1,.87,1.08,2.57,2.57,0,0,1,.16.8c0,.12,0,.29-.21.26a1.88,1.88,0,0,1-.57-.22,3.09,3.09,0,0,0-.77-.27,5.84,5.84,0,0,0-1-.11h-.14a.29.29,0,0,1-.15,0l-.06-.08c-.06-.07-.15-.15,0-.24s.36,0,.46,0,.17-.07.18-.33a.92.92,0,0,0-.37-.67c-.2-.17-.86-.71-1-.83l-.48-.36c-.08-.06-.25-.1-.28,0a1.91,1.91,0,0,0,.07.56c0,.1.07.23-.06.27a.59.59,0,0,1-.47-.18c-.15-.14-.89-.71-1-.83s-.28,0-.28,0c-.17.14-.11.45-.09.55a1.73,1.73,0,0,0,.21.47,15.28,15.28,0,0,0,1.06,1.13,1.52,1.52,0,0,0,1,.25c.24,0,.13,0,.4.09a.56.56,0,0,0,.26,0,.25.25,0,0,1,.21.11.61.61,0,0,1,.08.18.2.2,0,0,1,0,.15c-.11.18-.1.29-.18.42s-.24.16-.26.38,0,.39-.19.36a1.53,1.53,0,0,0-.46,0,.31.31,0,0,1-.37-.29,1.41,1.41,0,0,0,0-.54,1.43,1.43,0,0,0-.25-.54,1.27,1.27,0,0,0-.64-.5c-.27-.09-.52,0-.7,0a.63.63,0,0,1-.52-.24c-.21-.22-.57-.56-.63-.63a.42.42,0,0,0-.26-.15c-.13,0-.19.11-.3.2a.39.39,0,0,1-.41.07.34.34,0,0,1-.14-.43,1.41,1.41,0,0,0,.15-.47.76.76,0,0,0-.21-.49c-.16-.18-.3-.56-.42-.69s-.12-.15-.29-.13-.37.2-.47.16,0-.14.06-.2.09-.19,0-.25-.29-.19-.3-.41a.81.81,0,0,1,.21-.63c.17-.19.44-.18.56-.24s-.12-.16,0-.26a.71.71,0,0,1,.21-.11s0,.19.12.21a3.15,3.15,0,0,0,.55.19c.15,0,.31-.06.44-.07s.27.06.31,0,0-.22-.09-.26a2.68,2.68,0,0,0-.36-.27.87.87,0,0,1-.28-.18c-.06-.08,0-.26-.08-.32s-.27-.1-.34,0,0,.31-.14.47a.65.65,0,0,1-.38.2c-.16,0-.38-.07-.47-.07s-.24,0-.26.12,0,.42-.15.62a8.8,8.8,0,0,1-.76.62c-.08.07-.29.27-.12.46a.72.72,0,0,1,.24.41c0,.14-.31.18-.22.39s.47,0,.46.32-.06.51,0,.6.2.12.19.29.08.27.21.28a.35.35,0,0,0,.22-.07s.21-.13.25,0a4.28,4.28,0,0,0,0,.6.42.42,0,0,0,.29.3c.13.06.25,0,.36.15s.18.32.3.37a1.42,1.42,0,0,1,.64.25,2.64,2.64,0,0,0,.68.43,5.79,5.79,0,0,1,.7.39,4.75,4.75,0,0,0,.93.54,6.7,6.7,0,0,1,1.36.58c.31.25.32.58.59.74s.68,0,.91.2.29.56.39.66a.92.92,0,0,0,.39.24c.14,0,.37-.07.49,0s.13.38.32.36.29-.08.32-.18,0-.22-.17-.25-.29,0-.38-.07-.14-.13,0-.22a.47.47,0,0,0,.13-.4.94.94,0,0,0-.08-.56c-.12-.2-.25-.34-.27-.39s-.15-.19,0-.34.33-.41.55-.25a6.47,6.47,0,0,0,1,.7,4.3,4.3,0,0,1,1.52,1,15.16,15.16,0,0,1,1.29,1.51,9.46,9.46,0,0,0,1.45,1.46c.72.64,1,1,1.6,1.55s.9,1,1.23,1.27a2.23,2.23,0,0,1,.7.93,2.46,2.46,0,0,0,.56,1.44c.47.42.69.34,1,1a4.43,4.43,0,0,0,.67,1.25c.28.39.5.7.83.74s.49,0,.72.42a1.6,1.6,0,0,0,.6.72,7.61,7.61,0,0,0,.91.61c.36.19.55,0,.84.41a6.65,6.65,0,0,0,.53.76,5.68,5.68,0,0,0,.69.47c.17.13.31.31.48.32s.32-.1.35.16-.06.28.17.65a9.27,9.27,0,0,0,.8,1c.14.14.15.17.26.16s.15-.29.28-.16.08.16.08.34-.1.21.1.4.39.13.67.58.21.51.47.66a.43.43,0,0,0,.61-.08c.11-.18.19-.32.3-.25s.09.16,0,.32-.36.29-.23.63.24.24.44.64.2.51.32.51.25-.16.25-.16a.24.24,0,0,1,.37,0c.14.09.16.11.23.12h0c.07,0,0,.28,0,.39s0,.22.1.41.44.53.48.61a.17.17,0,0,0,.24.06c.06-.06,0-.21.12-.25s.16.12.23.2.25.19.1.4-.27.19-.25.42a.27.27,0,0,0,.28.29c.12,0,.46-.17.52.1s.07.42.24.53.38.13.39.33a.38.38,0,0,0,.16.36,1.91,1.91,0,0,1,.67,1,1,1,0,0,0,.39.8c.21.16.62.36.61.84a1.12,1.12,0,0,0,.24.89,1.16,1.16,0,0,0,.15.43c.13.23.6.14.51.36a2.22,2.22,0,0,0-.22.81,2.18,2.18,0,0,0,.44.93c.1.12.45.71.77.85a1.45,1.45,0,0,1,.6.34c.21.19.31.29.31.56a.7.7,0,0,0,.16.48c.08.15.24.23.27.41a.88.88,0,0,0,.21.42,1.74,1.74,0,0,1,.26.48,2.32,2.32,0,0,0,.38.6,2.73,2.73,0,0,1,.49.91,2.93,2.93,0,0,0,.44,1.08c.21.29.56.47.58.73a.6.6,0,0,0,.46.56c.3.1.39.07.43.18s-.07.22-.13.35a.57.57,0,0,0,0,.44c.07.13.43.71.6.76s.35-.06.43.06,0,.21-.09.29a.52.52,0,0,0,0,.61,2.65,2.65,0,0,0,.44.37.35.35,0,0,1,.21.35,1,1,0,0,0,.17.78c.24.24.4.3.39.56a.63.63,0,0,0,.15.55c.14.15.33.23.34.4s.06.42.29.44a1.52,1.52,0,0,0,.46,0,.23.23,0,0,1,.28.09c.06.12,0,.28.21.49a1.72,1.72,0,0,0,.26.22.34.34,0,0,1,.16.28.35.35,0,0,1-.2.35,1.32,1.32,0,0,1-.38,0s-.08.07,0,.15.16,0,.49.08a1.33,1.33,0,0,1,.72.51,1.68,1.68,0,0,1,.39.76c.07.25.08.4.26.5s.6.23.56.65.07.44.23.6a2.64,2.64,0,0,1,.81.83,2.17,2.17,0,0,0,.37.57c.14.18.37.24.37.71s.09.58.24.68a2.88,2.88,0,0,1,.85.73c.28.4.54.77.7,1a4,4,0,0,0,.34.32.88.88,0,0,1,.18.29.82.82,0,0,0,.27.4,2,2,0,0,1,.83.6c.23.37.2.32.32.43a4.83,4.83,0,0,0,.42.34s.23.15.24.25-.14.19,0,.34c0,0,.13-.07.18,0,.32.28,1,1,1.29,1.24.06.05.23.1.28.15s.09.19.15.27.18,0,.26,0,0,.22.11.32.21-.12.23,0,.44.33.89.73a2.09,2.09,0,0,1,.37.5c0,.05.29.09.34.15.33.38.55.85.73,1s.7.39.86.73a1.49,1.49,0,0,0,.47.72c.13.11.35.18.62.37.09.06.15.23.25.29s.14,0,.22,0a5.19,5.19,0,0,1,.63.34c.16.1.25.36.43.45s.43.12.51.17.29.31.47.3.3-.13.36-.06-.26.3-.23.25a.46.46,0,0,0-.1.45.44.44,0,0,0,.44.27c.19,0,.45-.08.54,0s.06.27,0,.35a.55.55,0,0,0,.27.56,3.79,3.79,0,0,1,.73.46l.85.61c.16.13.36.25.52.38s.26.15.42.07a.41.41,0,0,0,.2-.37c0-.14-.07-.27-.23-.24s-.26.14-.51,0-.18-.3-.25-.41-.22-.26-.06-.37.21.07.32,0,.16-.33.22-.38a.73.73,0,0,1,.31-.19.2.2,0,0,0,.15-.22.17.17,0,0,0-.08-.16.29.29,0,0,1-.08-.29c0-.15.15-.41,0-.55s-.39-.31-.51-.42-.29-.32-.5-.32a.52.52,0,0,0-.45.15,1.89,1.89,0,0,1-.25.25c-.3.19-.45-.14-.55-.32s-.11-.3-.21-.38c-.31-.37-.17-.5-.91-.2-.18,0-.16-.21-.16-.39a.92.92,0,0,0-.32-.52.58.58,0,0,0-.43-.09c-.13,0-.33,0-.43-.1s0-.28,0-.37a.88.88,0,0,0-.13-.36c-.08-.15-.17-.25-.22-.36s-.1-.26,0-.3.29,0,.28-.19,0-.2-.18-.28a.62.62,0,0,1-.26-.25,1,1,0,0,0-.31-.35,1.8,1.8,0,0,0-.38-.17.41.41,0,0,0-.43,0,.45.45,0,0,0-.22.38c0,.26,0,.32-.16.46s-.2.08-.28.23-.11.37-.29.26a1.78,1.78,0,0,1-.49-.41,4.55,4.55,0,0,1-.72-.66c-.3-.38-.41-.57-.48-.66s-.06-.21,0-.21.35.1.46,0,.08-.19.07-.37a.59.59,0,0,0-.35-.54c-.3-.16-.37-.28-.35-.43a1.31,1.31,0,0,0,0-.87c-.17-.27-.4-.57-.38-.57s-.19-.21-.14-.44a.78.78,0,0,1,.09-.33.39.39,0,0,0-.07-.35c0-.09-.13-.15-.3-.06s-.23.32-.46.19-.3-.36-.57-.21a1.74,1.74,0,0,1-.69.26c-.34.08-.34,0-.4-.09s0-.13.18-.14a.91.91,0,0,0,.52-.15c.09-.1.05-.28-.15-.34s-.27-.22-.52-.37a1.33,1.33,0,0,1-.51-.51c0-.11-.07-.34.15-.37a.64.64,0,0,0,.51-.41c.07-.22.12-.53.22-.59s.16-.1.31.06.22.24.35.21.11-.14.06-.23a1.13,1.13,0,0,1-.16-.31c0-.14,0-.33.07-.36s.16,0,.26.19.27.61.57.71.75.06.86.45.08.41.14.58a.92.92,0,0,1,0,.68c-.09.22-.16.36-.16.36s-.07.14,0,.21.42.11.52-.11,0-.28.07-.34.1-.08.29.09l.68.65c.11.1.32.28.43.36a4.84,4.84,0,0,1,.57.45l.51.49c.12.12.12.27-.08.28a3.15,3.15,0,0,1-.62-.06l-.3-.09a1.11,1.11,0,0,0-.32,0c-.14,0-.33.07-.33.23a.28.28,0,0,0,.28.24.65.65,0,0,1,.37.12c.11.08.19.22,0,.33a2.81,2.81,0,0,0-.49.56c-.07.13-.08.32,0,.39a.58.58,0,0,0,.46-.05c.14-.06.33-.2.34-.32s0-.31.14-.31.12-.07.41.18.52.51.76.56.26,0,.26-.11-.07-.13-.11-.22a.28.28,0,0,1,0-.28s.15-.23.3-.06.52.37.66.26.21-.05.34-.18.28-.09.35.1,0,.4.14.52a.54.54,0,0,0,.48,0c.19,0,.29-.16.36,0a1.78,1.78,0,0,0,.27.49,2.06,2.06,0,0,0,.65.59c.11,0,0-.16,0-.33a.93.93,0,0,0-.1-.36c0-.06-.15-.26-.07-.38s.09-.07.1-.37-.09-.48.07-.52.21.16.22.33a1.87,1.87,0,0,0,.08.91,1.81,1.81,0,0,1,.28.7,1.08,1.08,0,0,0,.36.7,3.51,3.51,0,0,1,1,.7c.36.44.36.54.51.58s.28,0,.43-.24.23-.24.42,0a.57.57,0,0,1,.18.42c0,.14,0,.29.17.35s.22,0,.27-.15,0-.29.24-.36.18,0,.27-.07a.46.46,0,0,1,.39,0c.2.08.28.13.43,0s.15-.23.08-.38a.66.66,0,0,1-.14-.38,1,1,0,0,0-.36-.74c-.24-.15-.42-.29-.42-.42s0-.29.26-.27.27.08.4-.05a.28.28,0,0,1,.47,0,7.88,7.88,0,0,0,.61.64c.15.09.46.2.51,0s-.05-.26,0-.54a1.3,1.3,0,0,0-.13-.9,3.67,3.67,0,0,0-.61-.73,11.31,11.31,0,0,1-.91-.92,6,6,0,0,0-.77-.74c-.18-.17-.37-.25-.44-.2s-.28.22-.47,0-.58-.39-.74-.55a.85.85,0,0,0-.49-.31.65.65,0,0,1-.33-.11c-.12-.07-.23-.23-.36-.14s-.19.12-.2.27,0,.23,0,.3a.25.25,0,0,1-.24.11c-.11,0-.13-.11-.1-.29a.58.58,0,0,0-.11-.51,3.88,3.88,0,0,0-.54-.53,5.65,5.65,0,0,1-.55-.54c-.24-.27-.65-.77-1.06-.77s-.29.11-.52.11a1.42,1.42,0,0,1-.62-.19c-.12-.09-.08-.23.08-.23s.4,0,.41-.12.06-.17-.14-.33-.4-.38-.45-.42a1.32,1.32,0,0,1-.35-.42,2.22,2.22,0,0,0-.32-.61c-.13-.14-.55-.54-.67-.65a.34.34,0,0,1-.08-.36.27.27,0,0,1,.28,0c.11.07.35.2.43.1s.1-.19,0-.34a7.68,7.68,0,0,0-.8-.76c-.08,0-.27-.17-.38,0a6.11,6.11,0,0,0-.37.51c0,.07-.13.27-.22.21s-.1-.16-.08-.29a.47.47,0,0,0-.1-.52c-.21-.22-.46-.25-.74-.58A4.37,4.37,0,0,1,101,121c-.11-.18-.15-.33-.38-.3a1.29,1.29,0,0,0-.36.11.35.35,0,0,1-.28-.08,2.23,2.23,0,0,1-.23-.27.36.36,0,0,1,0-.3A.26.26,0,0,1,100,120c.17,0,.22,0,.3-.08s0-.17-.13-.3-.35-.23-.26-.35.19-.29.07-.45a1,1,0,0,0-.66-.35,11.31,11.31,0,0,1-1.32-.32,1.7,1.7,0,0,1-1-.56,1.64,1.64,0,0,1-.32-.48c0-.18-.06-.2-.16-.27a.23.23,0,0,1-.08-.31c.07-.12.17-.2,0-.4s-.75-.79-.9-1-.21-.16-.36-.17-.38.09-.47,0-.11-.21,0-.32.29-.15.33-.33,0-.28.15-.32a.85.85,0,0,0,.37-.19,1,1,0,0,0,.18-.34c0-.11,0-.24,0-.4a.31.31,0,0,0-.22-.41c-.25-.12-.92-.66-1.78-1.09s-1.13-.59-1.26-.66-.33-.07-.4-.36a1,1,0,0,0-.34-.61.51.51,0,0,0-.46-.11c-.12.06-.14.18,0,.34a1.28,1.28,0,0,1,.21.6c0,.28,0,.47.21.52s.26,0,.26.19,0,.14-.15.26a.65.65,0,0,0-.28.38.5.5,0,0,1-.18.4c-.15.11-.22.17-.33.09a3.14,3.14,0,0,1-.45-.56,1.82,1.82,0,0,0-.68-.64c-.3-.13-.51-.2-.51-.42a.48.48,0,0,0-.18-.5c-.2-.18-.69-.68-.78-.77s-.17-.17-.28-.12-.13.2-.26.13-.1-.07-.09-.26a.72.72,0,0,0-.14-.49c-.13-.22-.24-.36-.5-.77S86.38,107.09,86,107s-.52,0-.6.11a.34.34,0,0,1-.37.18c-.21,0-.14-.21-.19-.3a.68.68,0,0,0-.25-.33c-.16-.09-.55-.56-1-.92A1.38,1.38,0,0,1,83,105c-.07-.19-.5-1.07-.62-1.26a1,1,0,0,1-.18-.57c0-.23,0-.54,0-.66s0-.28-.23-.29a.51.51,0,0,1-.44-.19c-.13-.13-.34-.32-.39-.39a.53.53,0,0,1-.1-.34c0-.18,0-.4-.1-.52s-.42-.22-.42-.41a.54.54,0,0,0-.19-.55,1.64,1.64,0,0,1-.51-.6,4.78,4.78,0,0,0-.33-.62.62.62,0,0,1-.16-.5,1.11,1.11,0,0,0-.14-.78c-.17-.2-.11-.23-.15-.46s.06-.45-.19-.67a.85.85,0,0,1-.28-.34c0-.07-.06-.18,0-.21s.19.06.31.09.21,0,.23-.09a.34.34,0,0,0,0-.3s-.2-.57-.28-.9-.14-.43-.2-.64a1.2,1.2,0,0,0-.26-.59c-.19-.19-.4-.26-.27-.42s.34-.18.35-.52,0-.5,0-.71,0-.44-.16-.36-.13.12-.18.27-.06.38-.34.24a.54.54,0,0,1-.36-.59A3.47,3.47,0,0,0,77.27,90a1,1,0,0,0-.91-.73c-.44,0-.37.08-.52.2s-.16.3-.28.22-.23-.25-.35-.14a2.65,2.65,0,0,0-.22.26s-.21.09-.16-.11.16-.29.09-.5-.15-.2-.22-.29-.18-.15-.24-.25-.09-.27,0-.31.08,0,.19.07.13.15.27.11.2-.17.43-.14.43,0,.46-.11a.48.48,0,0,0,0-.29c0-.15-.21-.26-.2-.46s.17-.19.22-.37a.71.71,0,0,0,0-.35.45.45,0,0,0-.23-.48,4.13,4.13,0,0,1-.63-.53c-.14-.17-.38-.6-.78-.73a2.19,2.19,0,0,0-.7-.12h-.08Z"/><path class="cls-1" d="M32.8,49.44a.94.94,0,0,0-.37-.19c-.13,0-.35.12-.17.39s.16.42.44.41.29.09.29.19a1.33,1.33,0,0,0,.23.44.35.35,0,0,0,.27.12.19.19,0,0,1,.18.11c0,.09.08.13.25,0s.26-.14.34,0,.15.25.27.29.23,0,.26-.2,0-.25,0-.3-.08-.09,0-.2a.72.72,0,0,0,.24-.65,1.17,1.17,0,0,0-.32-.68,2.78,2.78,0,0,1-.4-.34c0-.08-.41-.38-.5-.09a1.35,1.35,0,0,1-.45.71c-.17.11-.3.22-.39.11S32.79,49.45,32.8,49.44Z"/><path class="cls-1" d="M184.07,74.59l-.26-.34a16.69,16.69,0,0,1-1-1.57,1.9,1.9,0,0,1-.25-.89,2.81,2.81,0,0,1,.07-.67,1.43,1.43,0,0,0,.11-.5,5.88,5.88,0,0,1,0-.72c0-.29.07-.48.22-.52s.19,0,.28.07a.19.19,0,0,0,.23,0c.08,0,.05-.12,0-.29a5.51,5.51,0,0,1-.31-.6c-.1-.24-.19-.38-.15-.5a.28.28,0,0,1,.29-.24c.18,0,.36,0,.38-.17a1.25,1.25,0,0,0-.1-.62c-.11-.22-.12-.36-.44-.39s-.36.07-.5-.1a1.7,1.7,0,0,0-.26-.27.41.41,0,0,1-.18-.37,1.21,1.21,0,0,0-.09-.66,2.23,2.23,0,0,0-.47-.71c-.13-.14-.29-.23-.27-.45a2.34,2.34,0,0,1,0-.33c0-.15,0-.29-.1-.32s-.12,0-.21.1-.25.34-.51.14-.15-.29-.65-.47a4,4,0,0,1-1.33-.55c-.3-.3-.64-.8-.86-1.07a2.9,2.9,0,0,0-1.06-.88,2.85,2.85,0,0,1-.68-.27c-.23-.13-.47-.26-.63-.2a1,1,0,0,1-.46.11,3.45,3.45,0,0,0-1.19,0,1.48,1.48,0,0,0-.53.28,1.55,1.55,0,0,0-.43.58c0,.11-.13.17,0,.34a2.79,2.79,0,0,0,.53.44.23.23,0,0,1,.05.3,1.74,1.74,0,0,1-.25.38.19.19,0,0,0,0,.3l.22.24s.13.23-.15.11-.38-.27-.38-.36a1,1,0,0,1,.14-.5c.12-.23.08-.32-.06-.44s-.35-.3-.4-.33a.4.4,0,0,0-.56,0,6,6,0,0,1-.72.69,2.77,2.77,0,0,0-.61.51c-.2.24-.42.56-.59.72a3.19,3.19,0,0,1-.63.49.48.48,0,0,1-.49-.12c-.2-.18-.3,0-.46-.11s-.19-.16-.54-.31a2.29,2.29,0,0,1-.71-.48,2.31,2.31,0,0,0-.76-.53,4.22,4.22,0,0,1-1-.75,8.68,8.68,0,0,1-1-.64A5.54,5.54,0,0,1,163.23,60a4.67,4.67,0,0,0-.91-1.22,3.4,3.4,0,0,1-.5-.39c-.44-.39-.48-.5-.63-.61s-.13-.21-.41-.21l-.54,0a.39.39,0,0,1-.45-.21.59.59,0,0,1-.12-.49.51.51,0,0,0-.17-.45c-.17-.18-.15-.18-.15-.18a.5.5,0,0,1,.08-.29c.09-.11.3-.29.38-.38s.17-.22.49-.14,1,.27,1.34,0,.45-.24.54-.3a.7.7,0,0,1,.51-.16c.27,0,.41,0,.58.15a.39.39,0,0,0,.53.11c.27-.11.35-.31.56-.33a3.25,3.25,0,0,0,.57-.09.55.55,0,0,1,.45-.06.82.82,0,0,0,.56-.06c.14-.07.5-.08.63-.53s.24-.59.46-.57.39,0,.51-.12.14-.2.15-.26A.28.28,0,0,1,168,53a1.77,1.77,0,0,1,.63.1,2.72,2.72,0,0,0,.54.11,3.21,3.21,0,0,0,.57,0,1,1,0,0,1,.53.1,1.25,1.25,0,0,0,.53.1.4.4,0,0,0,.29,0,.22.22,0,0,0-.07-.37.85.85,0,0,1-.36-.18,1.9,1.9,0,0,1-.4-.45,1.85,1.85,0,0,0-.49-.56c-.22-.13-.44-.16-.44-.43a.85.85,0,0,0-.13-.63,2.62,2.62,0,0,1-.4-.78,5.66,5.66,0,0,0-.26-.84,2.83,2.83,0,0,1-.26-1,3.75,3.75,0,0,1,.19-.75.84.84,0,0,0,0-.55.34.34,0,0,0-.34-.13c-.1,0-.19.11-.33-.1s-.1-.21-.26-.32L167,46a.68.68,0,0,0-.37-.2,1.1,1.1,0,0,0-.35-.06.44.44,0,0,0-.39.07c-.09.11-.14.25-.28.23s-.1-.06-.14-.17a.92.92,0,0,0-.16-.33.32.32,0,0,0-.31-.06c-.12,0-.2.1-.36,0s-.23-.23-.43-.19a.45.45,0,0,0-.34.2c-.11.11-.17.15-.27.13s-.09-.16,0-.29.17-.29,0-.34-.18,0-.42-.17-.28-.27-.53-.24-.05,0-.25,0-.51-.24-.6-.09,0,.21,0,.27.14.26,0,.2a.67.67,0,0,1-.25-.15c-.08,0-.21-.3-.34-.18s-.44.26-.51.2,0-.15.05-.2.4-.23.28-.37a.63.63,0,0,0-.29-.22c-.1,0-.56-.12-.7,0s-.22.3-.4.27a.57.57,0,0,1-.42-.27l-.55-.68a.17.17,0,0,0-.22,0,.44.44,0,0,0-.19.26.76.76,0,0,1-.05.27.15.15,0,0,1-.23,0,3.31,3.31,0,0,1-.25-.3c-.06-.09-.28-.43-.44-.45s-.2,0-.29-.1-.19-.21-.35-.2-.3.09-.45-.07a1.09,1.09,0,0,0-.67-.37,1.22,1.22,0,0,1-.58-.07,1.06,1.06,0,0,0-.66-.15c-.27.05-.67.09-1.21.23s-1.63.18-1.88.72-.27.79-.65.9-.33.21-.54.23-.47-.13-.57-.11-.24.21-.35.09a1.22,1.22,0,0,0-.54-.38c-.3-.1-.11-.07-.46-.19a1.74,1.74,0,0,0-.52-.15c-.37-.06-.32-.08-.5-.23s-.39-.32-.69-.53a8.12,8.12,0,0,1-.93-.74c-.3-.29-.4-.39-.56-.44s0,0-.45-.29-.4-.33-.63-.53a3.1,3.1,0,0,0-.47-.37,4.38,4.38,0,0,1-.59-.49,5.53,5.53,0,0,0-.46-.32,5.53,5.53,0,0,1-.65-.56c-.19-.21-.5-.54-.73-.51s-.18.15-.25.17-.18,0-.09-.16a.32.32,0,0,0-.25-.43c-.18,0-.3.07-.4,0s0,0-.21-.13-.42-.43-.64-.46-.2,0-.38,0-.14-.33-.46-.45-.24-.1-.47-.19a2.35,2.35,0,0,0-.42-.13c-.28-.1-.47-.08-.71-.38s-.58-.54-.6-.82-.11-.46-.39-.49-.59.08-.73,0a5.39,5.39,0,0,0-.6-.33c-.19-.1-.37-.4-.15-.59a5.63,5.63,0,0,0,.47-.45.78.78,0,0,0,.26-.31,1.06,1.06,0,0,0-.16-.84c-.12-.17-.42-.31-.55-.44s-.42-.5-.71-.47-.45,0-.58-.1a.3.3,0,0,1,0-.36.58.58,0,0,0,0-.45.74.74,0,0,0-.5-.22,1.26,1.26,0,0,1-.63-.22c-.16-.15-.46-.42-.67-.64a1,1,0,0,0-.51-.36,2,2,0,0,1-.62-.28,10.73,10.73,0,0,1-.84-.71.7.7,0,0,0-.4-.23,1,1,0,0,1-.57-.23,3.8,3.8,0,0,1-.38-.35.45.45,0,0,0-.4-.2,1.76,1.76,0,0,1-.62-.08,1.66,1.66,0,0,1-.4-.2,2.94,2.94,0,0,0-.57-.26,1.1,1.1,0,0,1-.52-.19c-.19-.15-.5-.43-.57-.5a.66.66,0,0,1,0-.73,1.68,1.68,0,0,0,.26-.4.44.44,0,0,0,0-.43.3.3,0,0,0-.45-.08,1.46,1.46,0,0,0-.37.49c-.08.11-.09.18-.3.19s-.22-.09-.29-.07a1.64,1.64,0,0,0-.38,0c-.17,0-.18-.38-.19-.54s-.12-.15-.17-.08a.28.28,0,0,0,0,.25.46.46,0,0,1,0,.39,2.84,2.84,0,0,1-.34.52.31.31,0,0,0-.14.2.49.49,0,0,1-.24.3,2.57,2.57,0,0,0-.38.27l-.26,0v.14l.35.06a1.14,1.14,0,0,1,.2.37c.06.2-.11.52-.12.66a.29.29,0,0,0,.25.27c.1,0,.12.09.25.17a4.85,4.85,0,0,0,.41.29,2.3,2.3,0,0,1,.42.2,1.24,1.24,0,0,1,.68.81c0,.38.12.35.29.56s.38.27.51.43a.91.91,0,0,1,.26.4.63.63,0,0,0,.21.37,1.22,1.22,0,0,1,.37.42A1.23,1.23,0,0,0,126,32a1.75,1.75,0,0,1,.74.45,2.8,2.8,0,0,1,.56.69,1,1,0,0,0,.49.47c.21.08.35-.11.67.18a6.78,6.78,0,0,1,1.07,1.12,3.6,3.6,0,0,1,.46,1.22c.07.31.16.71,0,.84s-.5.24-.6.38a.72.72,0,0,1-.52.41,1.84,1.84,0,0,1-1,.07,6.72,6.72,0,0,1-.73-.3l-.61-.26c-.16-.06-.67-.33-.92-.16s-.22.55-.16.8.21.29.28.6,0,.34.26.46a1,1,0,0,1,.58.76,1.59,1.59,0,0,1,0,.84c-.08.26-.14.5.12.72s.56.3.72.58.25.31.32.56.31.35.41.52.43.38.46.83a1.23,1.23,0,0,0,.14.62.67.67,0,0,1,0,.62,1.78,1.78,0,0,1-.39.51,4,4,0,0,1-.66.54,2.14,2.14,0,0,1-.52.18A1.51,1.51,0,0,1,126.1,46a4.89,4.89,0,0,0-.8-.75,5,5,0,0,1-.85-.6c-.19-.19-.77-.91-1.09-1a1.54,1.54,0,0,1-.87-.36c-.3-.28-.42-.16-.84-.64s-.27-.49-.54-.78-.54-.65-.7-.78-.12-.16-.2-.24-.23-.09-.32-.2-.21-.37-.25-.41a1.79,1.79,0,0,0-.12-.26c-.07-.13-.11,0-.3,0s-.2,0-.13-.15,0,0-.13-.07a.58.58,0,0,1-.21-.36c0-.15-.12-.19-.28-.19a.16.16,0,0,1-.18-.21c0-.1-.13-.25-.13-.25l-.22-.25-.37-.77-.59-.87c-.13-.18-.53-.09-.63,0s-.24.1-.24,0,0-.11-.09-.2a.19.19,0,0,0-.23-.1c-.1,0-.09,0-.1-.23s-.18-.14-.33,0-.24-.1,0-.21-.32-.45-.32-.45a2.7,2.7,0,0,0-.42-.21.39.39,0,0,0-.31.09c-.13.1-.08-.1-.06-.23a1.13,1.13,0,0,0-.1-.44,3.18,3.18,0,0,0-.54-.32,4,4,0,0,1-.65-.37.23.23,0,0,0-.27,0,2.48,2.48,0,0,1-.44.22c-.14,0,0,.13,0,.13l.32.26s1,.87,1.17,1.1a.58.58,0,0,1,.14.52s-.19.36-.35.6-.34.34-.45.25-.11,0-.16.1-.16,0-.2-.06a.24.24,0,0,0-.2-.15,3.7,3.7,0,0,1-.76-.62c-.15-.13-.5-.59-.48-.72s-.23-.13-.34-.13-.24,0-.31-.13-.29-.09-.57.15-.1.13-.35.39-.46.48-.37.8a.68.68,0,0,0,.32.42s.28.18.29.4,0,.27.08.36.17.13.22.2,0,.27,0,.32.16,0,.29,0,.32-.1.47,0,.13.23.2.29.32.08.47.3,0,.42,0,.54.14,0,.22.18a2.14,2.14,0,0,1,.06.67.93.93,0,0,0,.09.61c.15.18.59.42.77.82s.72.71.54,1.19a2.58,2.58,0,0,1-.46.64l-.14.24a1.78,1.78,0,0,1-.47.53,2.92,2.92,0,0,1-.28.21,4.25,4.25,0,0,1-.41.38c-.1.06-.05.14-.14.24a.7.7,0,0,1-.44.23,2.54,2.54,0,0,1-.69-.06l-.38-.07s-.67-.19-.82-.21l-.79-.14a2.55,2.55,0,0,0-.52-.11.44.44,0,0,0-.39.27c-.06.18.08.05.14,0s.16,0,.23,0a.57.57,0,0,1,.37.14c.11.11.3,0,.37,0a.25.25,0,0,1,.29,0,.54.54,0,0,1,.19.42,4.11,4.11,0,0,1-.17.57c-.05.17-.19.15-.29.11s-.1-.15-.1-.22-.16-.22-.37-.28a.27.27,0,0,0-.34.15.37.37,0,0,1-.26.18c-.09,0,0,.1,0,.15s0,.21,0,.4.36.24.36.24l0,.23s-.3-.14-.34-.22a1.11,1.11,0,0,0-.08-.15l-.19-.06-.39-.34a1.76,1.76,0,0,1-.31-1c0-.41-.24-.25-.42-.4a2.29,2.29,0,0,1-.38-.47c-.09-.11.08-.25.18-.31s.12.05.21.2a.69.69,0,0,0,.21.3.27.27,0,0,0,.37.05.31.31,0,0,0,.13-.28.43.43,0,0,0-.15-.33c-.11-.09-.29-.12-.49-.27a5.87,5.87,0,0,1-.62-.61c-.21-.21-.68-.76-.79-.87a1.09,1.09,0,0,1-.19-.44c-.05-.16-.05-.2-.12-.27s-.27-.29-.37-.38-.12-.32-.2-.53c0,0-.22-.15-.27-.25s0-.17-.06-.24-.26-.15-.32-.19,0-.16-.16-.33-.41,0-.51,0-.27-.24-.35-.35a1.29,1.29,0,0,1-.19-.36,4.28,4.28,0,0,0-.47-.7,1.36,1.36,0,0,1-.25-.44,1.63,1.63,0,0,0-.18-.46,4,4,0,0,0-.63-.54.46.46,0,0,0-.65,0c0,.05,0,.18-.12.31-.25.34-.64.85-.74,1a.28.28,0,0,1-.38.06,1.88,1.88,0,0,1-.26-.22c-.06-.07-.11-.09-.11-.23s.17-.32.28-.43.07-.18,0-.23-.2,0-.29.14a5.25,5.25,0,0,1-.5.37.74.74,0,0,0-.21.31c0,.12.08.39.09.51a.62.62,0,0,1,0,.42.77.77,0,0,0-.07.37.94.94,0,0,1-.24.5.33.33,0,0,1-.34.15c-.15,0-.14,0-.25.12a2.32,2.32,0,0,0-.43.47c-.06.09-.33.14-.4.14s.18-.32,0-.33-.3.25-.35.24c-.23,0-.36.24-.39.44a2,2,0,0,1-.15.45.68.68,0,0,0-.07.32.51.51,0,0,0,.17.39s0,.23.19.29a.48.48,0,0,0,.26,0l.27-.18c.16-.11.25.06.4.17s.27,0,.44,0,.15.17.21.27,0,.06.19.21.23.1.46,0,.43,0,.46.06-.18.18-.27.28a3.53,3.53,0,0,0-.47.76c-.14.32,0,.51.15.55a.93.93,0,0,0,.49-.06,1.46,1.46,0,0,1,.48,0,.49.49,0,0,1,.4.29.44.44,0,0,1,0,.38,3.68,3.68,0,0,1-.31.47c-.15.23-.09.32,0,.53a4,4,0,0,0,.36.61c.15.22.55.13.65.07a2.8,2.8,0,0,1,.46-.23.2.2,0,0,1,.26.06,1.26,1.26,0,0,1,.19.2c.1.11.17.06.2,0l.3-.24a.18.18,0,0,1,.24,0,1.49,1.49,0,0,1,.32.43c.08.21-.06.31-.12.39s0,.13.09.19.26.29.36.33a.85.85,0,0,0,.37.12c.14,0,.2.05.32.17a.88.88,0,0,1,.25.47c.06.21.26.14.33.13a2.85,2.85,0,0,0,.52-.12.32.32,0,0,1,.34,0,1,1,0,0,1,.39.42.76.76,0,0,1,0,.5.23.23,0,0,0,.22.21c.14,0,.28-.06.44-.06s.07.25,0,.37a2,2,0,0,1-.46.28.41.41,0,0,0-.22.4,2.23,2.23,0,0,0,0,.73,1.39,1.39,0,0,0,.4.8.54.54,0,0,1,.09.44c0,.16-.2.16-.32.11s-.13-.26-.16-.43,0-.2-.24-.29-.59.33-.77.6a.72.72,0,0,0,0,.66,1.11,1.11,0,0,1,0,.69,2.78,2.78,0,0,0,.12,1.14c.07.44,0,.32.09.58s-.07.23-.27.3-.12.52-.34.75a2.32,2.32,0,0,1-1.2.44,4.36,4.36,0,0,0-1.23.3c-.16.13,0,.38.07.52s.33.38.46.5.17.18.33.2.22.12.39.24a1.13,1.13,0,0,0,.54.24c.28,0,.32.19.5.35a1.35,1.35,0,0,1,.34.47c.12.23.2.18.32.2a.3.3,0,0,1,.22.23,4.32,4.32,0,0,1,0,.79c0,.16-.24.08-.36.08s-.28,0-.39,0a.18.18,0,0,0-.17.23c0,.12.13.21.39.33a2.28,2.28,0,0,1,.57.39,6.13,6.13,0,0,0,.77.52.9.9,0,0,0,.53.17.84.84,0,0,1,.49.23.44.44,0,0,0,.29.12.31.31,0,0,1,.26.19.56.56,0,0,0,.17.24c.1.08.52.35.86.65a12.68,12.68,0,0,1,1.06,1.18c.26.3.42.67.63.93a8.37,8.37,0,0,0,.71.64,1.88,1.88,0,0,1,.39.6,1.92,1.92,0,0,0,.6.62,12.79,12.79,0,0,1,1,.88,5.91,5.91,0,0,1,.62.73,4.46,4.46,0,0,1,.39.72,1.67,1.67,0,0,1,0,.77c0,.24.17.32.28.45a.56.56,0,0,1,.09.49c0,.18-.31.26-.54.41s-.14.49-.16.64-.17.2-.31.21-.45,0-.65,0-.18.31-.11.39a.63.63,0,0,1,.12.23.42.42,0,0,0,.17.28c.1.06.18.11.31,0l.57-.28a.12.12,0,0,1,.18.08,1,1,0,0,0,.25.38.44.44,0,0,0,.42.13c.25,0,.33.17.47.26a.43.43,0,0,0,.31.06c.1,0,.13,0,.18.16s0,.19.14.34.26.1.41.1.17,0,.19.13-.17.31-.24.41a.32.32,0,0,0,0,.35,4.18,4.18,0,0,0,.45.57c.09.08.1.13.23.12s.2-.08.32-.15.18,0,.21.12a.23.23,0,0,1,0,.18l-.23.24c-.09.1,0,.23.07.32s.32.38.45.55l.35.43-.15.17a3,3,0,0,1-.33-.31c-.21-.22-.45-.52-.58-.67a2.74,2.74,0,0,0-.62-.6c-.25-.15-.5-.13-.55,0s.07.28.15.39.51.69.61.81a2.36,2.36,0,0,1,.22.38,3,3,0,0,0,.17.27l.21-.16.44.63.42.61a2.22,2.22,0,0,0,.52.48,3.16,3.16,0,0,1,.49.68,3.78,3.78,0,0,0,.73.86c.23.17.18.12.32.08s.39.26.39.26a6,6,0,0,0,.49.57s.08.07.11,0a.14.14,0,0,0,0-.23c-.11-.15-.25-.31-.25-.31s-.1-.11,0-.24.13-.16.07-.32.09-.5.34-.33.3.6.4.75l.11.16c.06.09.26.11.35.11s.08-.29.18-.34-.11-.24-.06-.29.28.11.32.14,0,.34.07.38.19.51.41.61a1.58,1.58,0,0,0,.39.2,1.18,1.18,0,0,1,.48.11,2.39,2.39,0,0,1,.4.49c0,.27.18.54,0,.58l-1,.19,0,.15,1.17-.15.07.15-.83.19.05.13.93-.17.25.31,0,.21.27,0,.56.15-.06.42s-.07.77-.07.89a1.45,1.45,0,0,0,.18.62c.14.28.92,1.47.94,1.56s.17.22.13.39,0,.18-.19.15a.64.64,0,0,1-.21-.07s-.11-.12-.16,0a.44.44,0,0,0,.09.44.7.7,0,0,1,.16.53.85.85,0,0,0,.13.67c.15.15,1.15,1.16,1.47,1.57s.29.18.37.42.24.41.33.42l.4.08.29.4.11-.06-.15-.35-.2-.44-.23-.47s-.09-.3.06-.35a.38.38,0,0,1,.44.2,2.21,2.21,0,0,0,.18.36l.63.07.58.23,0,.13-.42.25s-.29-.2-.49-.12-.22.22-.22.22H128V95l.4.14s0-.21.11-.22a.24.24,0,0,1,.27.18.14.14,0,0,1-.08.14l.29.22.06-.07-.08,0a.84.84,0,0,0,0-.4l.41-.27.06.05.22-.19.29.35.3.3-.18.24-.18-.15-.06.07.1.16-.06.21-.13.07,0,.06.14,0s0,.16.15.19l.22,0-.31.14-.36-.24h-.16l0,.13.44.24a.45.45,0,0,0-.13.25c0,.12,0,.27,0,.27l.23.06-.12.24-.46-.09a1.62,1.62,0,0,1-.58-.27c-.13-.14-.43-.44-.53-.3s-.14.27-.21.31-.1.06-.12.1a.4.4,0,0,0,.31.38c.18,0,.29.12.36.08a1.83,1.83,0,0,1,.92.33c.23.19.05.2.08.42s-.36.51.12.64a2.69,2.69,0,0,0,.92.08c.08,0,.27,0,.33-.07s.1-.24.22-.1.1.27.27.27.08-.07.24,0,.29.27.51.24.3-.32.65-.32a2.71,2.71,0,0,1,1.56.61,5.41,5.41,0,0,1,1.37,1c.52.55.72.83,1.08,1.2s.62.51.65.87.1.57.39.73a1.86,1.86,0,0,1,.89.89c.31.57.69,1.37.86,1.71a4.25,4.25,0,0,1,.26.56,2.78,2.78,0,0,1,.16.78,1.73,1.73,0,0,0,.07.48.76.76,0,0,0,.58.54,1.52,1.52,0,0,1,.95.39,3.82,3.82,0,0,1,.88.87c.22.36.27.45.52.55a.84.84,0,0,1,.58.51,3.68,3.68,0,0,0,.5.8,2.78,2.78,0,0,1,.79,1.29,2.06,2.06,0,0,0,.34,1.31,4,4,0,0,0,.72.72,2.15,2.15,0,0,1,.81,1,1.93,1.93,0,0,0,1.15,1.2,7.89,7.89,0,0,1,1.84.76,5.52,5.52,0,0,0,.88.55c.23.13.39.09.62.47s.09.31.45.59a1.55,1.55,0,0,1,.53.52,1.46,1.46,0,0,0,.5.45c.18.13.33.14.52.49a3.25,3.25,0,0,0,.4.55c.09.16.38.61.47.79a1.39,1.39,0,0,1,.07.58l-.39.24,0,.11.39-.21,0,.14-.19.07v.08h.14l-.22.32v.23l-.1.06s-.18-.26-.34-.31a1.65,1.65,0,0,0-.46,0l-.15.23.11.32.11.27.1-.06.17.17-.07.06.42.54c.24.26.15.09.3.19a.82.82,0,0,1,.29.34c.1.18.08.24.21.36a.65.65,0,0,0,.29.19c.09,0,.21.06.32.28a4.76,4.76,0,0,0,.34.62c.22.35.32.75.53.81s.43,0,.65.24a1.57,1.57,0,0,0,.45.39,1.2,1.2,0,0,1,.61.53c.17.34.27.8.49.93s.32,0,.32-.06.08-.29.29-.26,0,0,0,0,.39.2.58.11a1,1,0,0,0,.47-.39c.11-.19.13-.4.32-.33s.22.17.15.35-.18.2-.3.29a.27.27,0,0,0,.05.46.83.83,0,0,0,.64.09,1.29,1.29,0,0,0,.57-.13.52.52,0,0,1,.64.08c.16.23.06.34.24.41s.2,0,.28,0,.36-.12.39.13-.08.46.06.71.3.19.37.41.66,0,.88.16.31.15.42,0,.43-.14.47.11,0,.32.12.36.11,0,.22,0,.14-.22.56,0,.55.24.79.62.23.37.44.48a6.45,6.45,0,0,1,.91.57c.29.24.51.37.52.63s.08.31.27.44.3.13.48.38.14.3.36.42.37.25.41.47.16.56,0,.55-.24-.35-.42-.14,0,.32-.19.3-.38-.31-.51-.2-.24.14-.09.32a2.42,2.42,0,0,0,.39.35s.36.33.54.29.2-.24.23-.06.07.29,0,.37-.23.09-.23.2a.29.29,0,0,0,.26.25.57.57,0,0,1,.51.22c.28.27.29.33.44.36s.21,0,.27,0a.19.19,0,0,1,.33,0c.12.2.19.2.33.36a5.92,5.92,0,0,0,.92.7c.27.18.38.2.42.43s.08.33.23.35a.43.43,0,0,0,.35-.16c.1-.09.31-.19.39-.05l.39-.41.34-.29.25-.27.31-.32.62-.72.21-.27.14-.23.29-.5.21-.44h0v.12l0,0,0,0,0,0,0,0,.05,0h.14l0,0,0,0,0,.07h.12l.07,0,.06,0,0,0,0,0,0,0,.08,0,.06,0h.06l.07,0,0,0v.07l0,0h.16v0h0l0,0,0,0,0,.05h.07l.06,0,0,0,0,0,0,.09.12.11.18.18.16.14.05.07v.05l0,.08,0,0h0l.08,0h.12l0,0,0,0,0,.07v0l0,.06v.16h.18l0,.05.06,0,.06.09.06.1.15.12.06,0h0l.08.08.07.07,0,.08V140l0,.14,0,.1v.22l0,0h.12l.06,0,.06.06.06.06,0,.06.05.05.07.11h.05l0,.07,0,0,0,.07.08.06.08.09.07.08.08.09,0,.08,0,0,0,.05,0,0,0,0,0,0,0,.08v0l0,0v0l0,0,0,0V142l0,0v.12l0,.05.06.12.05.06.05.05,0,.07,0,.05,0,0h.07l.05,0,0,0,.06,0,0,.05.06,0,0,0,0,0v.06l0,0h0l0,0,0,0,0,0h0l0,0v0h0l0,0,0,0h0l0,0h0l.07,0v.08l.05,0,.06,0,.07,0,0,0,.06.08.05,0h.12l0,.06h0l.05,0h.07l0,0v0l0,0v0l.05,0,.08.07.1.1.15.08.14.08.1.08,0,.08.06,0,.06,0,.09.07.08.06.06,0,0,.06h.17l.06.06.06.09,0,.1.06.05,0,0,.06,0,0,.09,0,.06,0,0,.12.11.17.17.1.13.07,0,.07,0,.06,0,.06,0,.05.07,0,0h.05l.09,0,.11.07.12.1.09,0,.07,0h0l0,0,.05,0,.11.09.11.07,0,.08h.07v.1h.07l0,0h0l.07.05,0,.07.05.08,0,0,.07,0,.08,0h.14l0,0h0v.08h0l0,0h.11l0,0h.28l.1,0,0-.07,0-.06,0-.07-.1-.1-.08-.12-.1-.14-.06-.05L188,146l-.24-.15-.17-.13-.1-.08,0-.07v-.29l0-.14v0h0l-.07,0-.1.07-.13.07-.13,0h-.14l-.1,0-.09-.07,0-.11,0-.09-.06,0-.06,0-.1-.16-.07-.14,0-.19,0-.12v-.11l0-.13.06-.11.06-.11.06,0h.16l.08,0h.07l.09,0,.12,0,0,0,0,.06v.08l0,.08.07.1.11.12.1.12,0,0,.08.11,0,.09,0,.08v.06h0l0,0,0,0,.05-.06.07-.13.1-.14.12-.12.15-.07.13-.06h.13l.1,0,.15,0,.18,0,.16,0,.14,0,.06,0,.05,0,.07-.12.09-.09.06,0,.06,0,.1,0h0v0l-.06-.09,0-.08v-.22l.05-.07.12-.08.08,0h.07v0l-.05,0,0,0h-.22l0,0h-.16l-.09,0-.1-.06-.09-.08a2,2,0,0,0-.32-1.34v-.29c-.2,0-.69-.78-.69-1a2.43,2.43,0,0,0-1.18-.29c0-.29-.1-.49-.1-.68a4.73,4.73,0,0,0-1.27-.3c-.2-.87-1.77-1.26-1.77-2.14-.13-.08-.59-.4-.59-.49h-.4a1.64,1.64,0,0,0-.58-.59c0-.19-.1-.39-.1-.58a1.47,1.47,0,0,0-.4-.2c0-.19-.19-.19-.39-.19,0-.1-.2-.3-.29-.39h-.3a2.36,2.36,0,0,1-.39-1.17c-.1,0-.3-.3-.3-.39h-.2c0-.1-.19-.3-.19-.39a.78.78,0,0,1-.4-.4,8.66,8.66,0,0,0-2-3.9c0-.19.1,0,.1-.19h.29l.2-.2.09-.19c.3,0,.39-.3.69-.3,0-.88,2.73-1.75,2.72-2.63a11,11,0,0,1,2.55-.2c-.88-.39-1-1.07-1.48-1.56,0-1.66.28-4-1.19-5a3.05,3.05,0,0,0-1.67-1.66c-.2-.78-2-3.71-3.05-3.71-.49-.78-3.33-.49-4.11-.49h-.59c-.1.1-.2.1-.39.1-1,1.56-4.41.19-5.78.19-1.28-2-4.51-2.93-6.08-4.88l-.27-.15h-.16c-.16-.16-.32-.63-.63-.63,0-.16-.32-.48-.32-.64-.48,0-.64-.31-.8-.63-.16,0-.32-.16-.48-.16,0-.16-.16-.32-.16-.47-.16,0-.32-.16-.48-.16,0-.16-.16-.32-.16-.48a1.29,1.29,0,0,1-.95-.63,1.22,1.22,0,0,1-.8-.32,14.16,14.16,0,0,1,.62-2.38h.16V100c.32-.16.63-.64,1-.64,0-.16.47-.63.47-.63v-1c-.16-.16-.32-.48-.48-.64,0-.16.79-.63,1.11-.79,0-.16.16-.32.16-.47.47,0,.47-1.59.46-1.91l-.31-.31c-.32,0-.64-.16-.64-.32a1.69,1.69,0,0,1-1.28-.63l-.16-.16c-.31,0-1.43,0-1.43-.48,0,.16-.31.32-.47.48-.48,0-.8-.16-1.27-.16,0-.48-.8-1.11-.81-1.59l-.31-.16c0-.15-.32-.47-.32-.63-.64,0-1.28-.63-1.91-.63A23,23,0,0,0,147,87.49c0-.15-.16-.47-.16-.63-.32,0-.48-.32-.48-.63-.48,0-.32-1.11-.32-1.43a10.59,10.59,0,0,1,1.27-.16,4.5,4.5,0,0,1,2.22-1.26c0-.16.31-.48.31-.64h.48l.63-.63H153a17.36,17.36,0,0,1,2.37-2.7v-.47c-.32,0-.65-1.43-1.28-1.43a6.45,6.45,0,0,0-2.55-1.9,6.49,6.49,0,0,0-1.12-1.74,2.92,2.92,0,0,0-.39-1.56l.38,0c0-.16.16-.31.16-.47a1.23,1.23,0,0,0,.63-.64,1.32,1.32,0,0,0,1.11-.63l.32-.16v-.63a1.87,1.87,0,0,1-.17-.48h-.31a6.17,6.17,0,0,0-1.28-1.58l.15-2.86h.31v-.31l.32-.16V63.25h.48A5.54,5.54,0,0,1,154.17,62a1.19,1.19,0,0,1,1.11-.79c0,.32.32.32.64.32,0,.47,1,1.42,1,1.9.48,0,.48.63,1,.63a2.52,2.52,0,0,0,1.28,1.27c0,.16.16.32.16.48.16,0,.48.16.64.16,0,.53.76.5,1.59.47v1.9c.64.64,1.59,1.27,2.23,1.91h.48c.16.47.95.79,1.27,1.26a2.58,2.58,0,0,1,1.12.64l.16.16a1.52,1.52,0,0,1,.16.47c1.59,0,3.18.64,4.77.64a5.69,5.69,0,0,0,1.6,1.26c0,1.91,3.83,4,5.1,4.76v.16h.32v.16h.64l.15-.32c.32,0,.64-.16,1-.16,0-.47.95-.79.94-1.43.32,0,1.27-1.42,1.27-1.74.16,0,.31-.16.47-.16,0-.15.16-.31.16-.47.16-.16.48-.32.47-.64C183.94,74.82,183.91,74.75,184.07,74.59Z"/><path class="cls-1" d="M136.26,3.9a5,5,0,0,1-2-.54,1.88,1.88,0,0,0-1.83-.25,1.76,1.76,0,0,0-1,1.59,9.77,9.77,0,0,1-1.17,3.91,20.92,20.92,0,0,0-1.71,3.54c-.17.57-1.24,4.51-1.24,4.51a.35.35,0,0,1,.13.29.46.46,0,0,0,.19.31.44.44,0,0,0,.31.14c.11,0,.21,0,.21-.14s0-.18.12-.19.18.05.21.17a1.2,1.2,0,0,0,.38.47,1,1,0,0,0,.45.15c.14,0,.33,0,.4.18s.15.24.3.27.35,0,.38.28,0,.54,0,.76.05.43.22.44a.21.21,0,0,0,.24-.17.43.43,0,0,1,.28-.33c.2-.05.23.16.22.3a.79.79,0,0,0,.15.47.81.81,0,0,0,.65.24c.28,0,.64-.12.85.09s.73.69.94.9a2.38,2.38,0,0,0,.79.5,1.68,1.68,0,0,1,.92.55c.27.36.24.72.44.87a6.53,6.53,0,0,0,1,.4,6.33,6.33,0,0,0,1,.37,5.2,5.2,0,0,1,1.14.47c.5.29.6.45.87.46a2.8,2.8,0,0,1,1.76.37c.59.48.72.58,1,.63s.45-.15.67.16.2.38.48.41.43-.09.64.19a1.27,1.27,0,0,0,.72.45,3.16,3.16,0,0,1,1.48.54,2.51,2.51,0,0,0,1,.63,1,1,0,0,1,.63.25c.14.19.12.35.38.62a4.4,4.4,0,0,0,.77.6,1.12,1.12,0,0,0,.44.16.26.26,0,0,1,.2.22.37.37,0,0,0,.21.32c.15.06.22,0,.25.25a.7.7,0,0,0,.26.46,4.51,4.51,0,0,1,.85.75c.22.34.35.31.37.7s0,.28.11.48a.55.55,0,0,0,.36.25.54.54,0,0,1,.42.22,5.49,5.49,0,0,0,.53.54.56.56,0,0,1,.1.32c0,.15,0,.2.19.36s.26.18.52.41.54.42.53.74a.74.74,0,0,0,.21.57c.12.13.7.6.84.73a.76.76,0,0,1,.29.47c0,.23,0,.28.1.35s.21,0,.27-.05a.79.79,0,0,1,.46-.16c.23,0,.32,0,.39-.07a.33.33,0,0,0,.09-.27c0-.07-.09-.28.11-.34a2.85,2.85,0,0,1,.87-.07c.23,0,.34,0,.51.23s.07.32.25.53.31.11.51.33.57.49.64.58a.85.85,0,0,1,.12.61c-.06.22-.16.32-.1.54s.27.3.24.56-.08.37.07.44.16-.05.36-.07a1.12,1.12,0,0,1,.44,0c.1,0,.37-.14.42-.17a1.42,1.42,0,0,1,.55.15c.19.1.47,0,.62,0s.11-.1.24-.09a.35.35,0,0,0,.32-.08.56.56,0,0,1,.31-.17.48.48,0,0,0,.33-.15c.09-.1.31-.37.52-.29s.2.19.33.18.25-.19.26-.26-.12-.23,0-.28a1.33,1.33,0,0,1,.74,0,5,5,0,0,1,.71.4.75.75,0,0,0,.45.13,1.75,1.75,0,0,1,.83.1,3.41,3.41,0,0,1,1,.47.52.52,0,0,1,.19.39,3,3,0,0,0,.08.79c.09.14.15.09.2,0s0-.18,0-.27.12-.11.22,0a.33.33,0,0,1,.16.23.51.51,0,0,0,.1.25c.07.08.1.12.06.33a1.37,1.37,0,0,0-.09.61c.06.17.3.16.63.12s.29-.09.35-.17a2,2,0,0,1,.12-.21c.06-.08.13-.12.2-.09s.13.25.18.44c.43-.29.62-2.74.6-4.34a5.53,5.53,0,0,1,.69-3.13,4,4,0,0,0,.55-1l2.84-.92a28.25,28.25,0,0,1-2.58-6.19,14.74,14.74,0,0,0-4.53-7.44,11.42,11.42,0,0,0-1.5-.95s-2.86-.2-3.65-1a6.92,6.92,0,0,0-3.09-1.58,41,41,0,0,1-4.79-2.11s-5.24-1.76-6.37-2-4-1-4.76-1.67-3-2-3.59-2.7S136.26,3.9,136.26,3.9Z"/></g></g></g></svg>