<svg xmlns="http://www.w3.org/2000/svg" viewBox="0 0 73.17 53.15"><defs><style>.cls-1{fill:#81bc47;fill-rule:evenodd;}</style></defs><g id="Layer_2" data-name="Layer 2"><g id="regije"><path id="zagreb" class="cls-1" d="M38.29,52.49s2.41,1.69,3.69-.36,2.16-2.26,2.83-3A4.75,4.75,0,0,1,47,47.33c.93-.25,1.45-.5,1.68-1s1.33-.79,1.92-.75a19.72,19.72,0,0,1,2.06.43s.75-1.17,1-1.64a2.55,2.55,0,0,1,2.37-1,29.52,29.52,0,0,1,5.1,1.79c.62.41,3.8,2.59,3.8,2.59l1.25,1V48l-.24-.89s.18-2.61.26-3.2a22,22,0,0,1,.18-2.8c.19-.44.6-1.17.35-1.73a2.53,2.53,0,0,1-.09-2,2.87,2.87,0,0,0,.5-1.43c0-.37.08-.59.56-.66s.67-.47.9-.91.57-1.39,1-1.31.37-.07.8.23.63-.07,1.14.2.3-.11,1,.12.67-.14.67-.14a1.12,1.12,0,0,0-.77-.71c-.62-.19-1-.2-1-.9a2.69,2.69,0,0,0-.64-1.52l-.61-1.33s.63-.77,1.08-.87,0-.74,0-.74A32.35,32.35,0,0,1,69,25.11,20.59,20.59,0,0,0,67.69,23,29.06,29.06,0,0,1,66,19.52l-1.84-.39L63,19l.38-.62a2.32,2.32,0,0,0,.23-1.21,4.36,4.36,0,0,1,.09-1.37s0-.84-.43-1-.55-.37-.28-.77.19-.74-.25-.74-.7-.49-.69-1.12-.23-2.51-.23-2.51V7.33l0-.92a1.29,1.29,0,0,1-1.05-1.23,15.41,15.41,0,0,0-.24-2L59,2.13,58.86.51s-1-.64-1.32-.31-.77-.12-1.18,0-.63,0-.67.47-1,.65-1.62.12S53,.66,52.56.21s-1.18,0-1.18,0,0,2.4-.84,2.87a5.35,5.35,0,0,1-1.41.5,1,1,0,0,1-1.28-.31,1.32,1.32,0,0,0-1.63-.06c-.48.32-1-.09-1.36.42a1.39,1.39,0,0,1-1.34.76c-.59,0-.74.25-.75.73s-.49.73-1.11.76a1.21,1.21,0,0,0-1.23,1.09c0,.63-.09,1.4-.64,1a1.48,1.48,0,0,0-1.32-.49,1.79,1.79,0,0,0-1.33.42c-.41.29-.64.73-1.27,1a8.41,8.41,0,0,1-2.41.93,2.09,2.09,0,0,0-1.44.64c-.41.37-.75,1-1.34,1.24a5.26,5.26,0,0,0-1.82.9,2.13,2.13,0,0,1-1.19.54s-.81.39-.93.91-1,1-1,1a2.17,2.17,0,0,0-1.05.84,1.37,1.37,0,0,1-1.11.83A5.8,5.8,0,0,0,21,18.07c-.48.66-1.24,2.27-2,2a5.45,5.45,0,0,0-2.81.18c-1.07.25-3.81,1.47-4,2.57a5,5,0,0,1-.69,2.28c-.34.4-1,.76-.68,1.28s.36.93-.12,1-.73-.71-.73-.71-.8-.86-.92.1a19.41,19.41,0,0,1-.41,2.68c-.19.59-.93,1.36-1,.58s.25-2.06-.83-1.45-1.59.76-1.64,1.35,0,.85-.53,1.1a.81.81,0,0,0-.56,1c0,.47-.35,1.28-1,1a4.92,4.92,0,0,0-2.24-.39c-.67.1-.85.28-.86.76s.42,1.67.23,2,.39,1.33.39,1.33l.9,2,1.81,2.75,1.2,1.67.71,1a4.48,4.48,0,0,0,.84.85,4,4,0,0,1,.94.78,2.28,2.28,0,0,0,1.57.91,3.09,3.09,0,0,0,1.75-.51,2.28,2.28,0,0,1,1.41-.41c.46,0,1.22-.05,1.6.46A13.23,13.23,0,0,0,14.68,48a2,2,0,0,0,1.2.48,6.46,6.46,0,0,1,1.69.54c.35.21,2.2.79,3,0a13.64,13.64,0,0,1,3.08-2.41,10.27,10.27,0,0,1,4-1.25,8,8,0,0,1,3.75.91,9.11,9.11,0,0,1,2.28,1.82c.66.72,1.81,1.88,1.81,1.88A16.74,16.74,0,0,0,37,51.43C37.5,51.81,38.29,52.49,38.29,52.49Z"/></g></g></svg>