<svg xmlns="http://www.w3.org/2000/svg" viewBox="0 0 99.58 187.77"><defs><style>.cls-1{fill:#f0516c;fill-rule:evenodd;}</style></defs><g id="Layer_2" data-name="Layer 2"><g id="regije"><g id="zapadna_istra"><path class="cls-1" d="M93.31,128.46a1.1,1.1,0,0,0-.43.77c0,.18-.09.42,0,.5s.27-.11.57-.13a3.56,3.56,0,0,1,1.2.51c.16.1.13.41,0,.53s-.17.24,0,.33.27-.14.89-.16.43.07.92.39.69.23,1.45.24a.78.78,0,0,1,.78.92c0,.24.07.44.08.83s0,.68,0,1.08a1.37,1.37,0,0,0,.47.92c.21.21.24.22.24.35s-.25.43-.65.52-.61-.29-.83-.54-.53-.24-.63,0,.1.41.17.52a.67.67,0,0,1,.2.6c0,.37-.36.57-.43.89s.19.47.08.73-.41.31-.72.3-.35.19-.51.42-.4.14-.65.12-.27.24-.18.41a.76.76,0,0,0,.4.33c.15.06.25.06.22.27s-.2.1-.3.21,0,.38-.07.46-.63.19-.66.33,0,.09.28.23.15.24.2.42a3.42,3.42,0,0,1,.13.56c0,.32.1.38-.26.61a.74.74,0,0,1-.93-.12.56.56,0,0,0-.46-.17.31.31,0,0,1-.26-.08,1,1,0,0,0-.55-.27c-.37-.1-.31-.3-.53-.37s-.16-.18-.17-.41-.18-.17-.33-.05-.2,0-.41-.11-.15.15-.12.27.06.15,0,.27.2,0,.38.09.14.35.25.47.09,0,.43.08.3.23.5.45,0,.48-.14.52-.28.21-.08.28.3,0,.64-.05a.6.6,0,0,1,.64.47c.09.28-.18.17-.23.27s.09.26.42.38.14.84,0,1a.83.83,0,0,1-.67.24c-.29,0-.36.18-.35.32,0,.29.78,0,.6.52a.9.9,0,0,1-.66.55c-.21.08-.14.26.06.29s.21.08.17.26-.21.31-.49.28-.3-.08-.3.06.36.19.45.33-.16.33-.29.58a2.53,2.53,0,0,0-.17.73.55.55,0,0,1-.29.47.29.29,0,0,1-.48-.16c0-.2-.13-.23-.25-.32s-.11-.31-.14-.57a.41.41,0,0,0-.34-.42c-.22-.08-.38-.61-.47-.7s-.22-.26-.3-.08.15.3.27.52a2.12,2.12,0,0,1,.18.84c0,.22-.26.19-.47.14s-.12.29-.12.45-.17.16-.42.06-.42.16-.64.38.06.39.33.42a2.13,2.13,0,0,1,.54.16,3.62,3.62,0,0,0,.55.2c.22,0,.31.09.32.26s-.19.21-.44.35,0,.51,0,.51a.4.4,0,0,1,.1.31,1.64,1.64,0,0,1-.12.76c-.13.19-.32.07-.51,0s0,.35-.1.53-.34,0-.56,0-.24.27-.24.49-.31.54-.44.76-.3.28-.34.15a1.37,1.37,0,0,1-.12-.73c0-.25,0-.3-.14-.37s-.27,0-.27.17.07.05-.07.19,0,.13,0,.3.18.1-.1.25c-.08,0-.21.38-.32.51s-.3.13-.34.27,0,.21,0,.3c-.2.24-.71,0-.76-.13s-.25.16-.41.13-.26-.28-.35-.31-.07.19-.26.47c-.39.27-.7-.27-.86-.53s-.34-.28-.77-.46-.62-1.09-.78-1.47-.31-.33-.49-.27-.12.34-.07.45.25.47.25.47a.82.82,0,0,1,.19.46c0,.24-.33.46-.5.69s-.2.52-.1.6.27-.13.42-.28a.39.39,0,0,1,.5,0c.06.07.58.47.77.68s0,.41-.13.57.07.27.39.26.33.16.57.19.87-.26,1.29-.26.36.76.36,1,0,.29-.29.23-.08.14-.33.4-.38,0-.66-.16-.48.2-.58.44-.32.16-.49.22-.13.25.1.42,0,.32-.13.49.12.26.36.27.27.21.26.4.14.17.3.23.07.36,0,.56a.44.44,0,0,0,0,.55,1.21,1.21,0,0,0,.52.26.52.52,0,0,1,.4.7c-.09.18-.23.19-.65.15s-.46,0-.71.32-.12.58-.12.82a.72.72,0,0,1-.32.6,1.63,1.63,0,0,1-.82.21c-.3,0-.13.05-.21.21s-.33.16-.33.16-.1-.25-.29-.14.14.38.21.59-.06.27-.05.61,0,.87-.29,1.13-.5.51-.48.85c0,.17.22.16.41.41s.23.66.36.79.24,0,.38.13a4.63,4.63,0,0,1,.38.71c.12.22.27.31.31.48a.68.68,0,0,1,0,.56c-.15.15-.44.06-.55.09s.23.34,0,.67c0,.18-.22-.07-.64.09-.13.05.08.12,0,.2s-.41.17-.55.28-.12.25-.22.35c-.28.28-.26.31-.76.2-.21,0-.33-.08-.34,0a.3.3,0,0,0,.24.29c.18,0,.09.24.26.43s.29.15.5.11.52,0,.77,0a.43.43,0,0,0,.42-.53c0-.36.34-.3.57-.25s0,0,.37,0,.32.1.36.43-.07.43-.18.83.67.67,1.07.77.48.25.55.58-.48.56-.63.67-.06.33.25.4.69.12.8.25,0,.42-.3.52-.45.16-.59,0-.32-.21-.61-.21-.24-.16-.53-.27-.38.24-.55.4-.36,0-.44,0-1.08.06-1.44,0a.71.71,0,0,1-.56-.3,1.06,1.06,0,0,0-.8-.08,2.79,2.79,0,0,1-.83.31c-.51.08-.71-.34-1.13-.51s-.88.4-1.33.42a1.68,1.68,0,0,1-1.23-.48,2.74,2.74,0,0,1-.28-.92c-.06-.31-.46-.44-.78-.67s-.35-.43-.84-.55-.6.32-.63.52.25.39.34.52-.12.39-.27.56.08.55.08.69-.06.24-.2.23-.19-.27-.23-.42-.16-.26-.27-.5,0-.43.08-.83a5.73,5.73,0,0,0,.1-.78c.08-.3.07-.24.46-.39s.47-.34.4-.63-.06-.49-.38-.57-.27.44-.32.55c-.2.44-.78.37-1,.31s-.28-.46-.28-.64a.49.49,0,0,1,.21-.42c.16-.11.38,0,.53.08s.32.11.37-.08,0-.26-.26-.35-.2-.23-.27-.51a.29.29,0,0,0-.4-.23c-.12,0,0,0-.21,0s-.46-.44-.74-.72-.32-.35-.47-.33-.06,0-.35-.14-.42-.32-.63-.25.07.18.13.33-.1.2-.07.27.12,0,.2.42a.9.9,0,0,1-.29.94c-.18.1,0,0-.24-.25s-.51-.12-.78-.17-.4-.15-.61-.1.09.25.27.45a1.9,1.9,0,0,1,.33.65.43.43,0,0,1-.4.57c-.3,0-.47-.1-.65-.39s-.2-.29-.48-.37-.28-.27-.44-.63-.65-.26-.76-.2-.21,0-.39,0-.16-.1-.3,0a1,1,0,0,0-.19.64.6.6,0,0,0,.53.52c.42.09.19.36.54.59s.51.15.84,0,.58,0,1,.24a1.4,1.4,0,0,0,.7.24,9.94,9.94,0,0,0,1.11,0c.26,0,.49.19.86.48s.33.27.46.3.1.32-.12.47-.1.31.25.32a.35.35,0,0,1,.29.56c-.15.17,0,.37,0,.37a2.5,2.5,0,0,1,.76.46c.14.21,0,.53-.47.51s-.24.23-.14.38,0,.26-.17.39,0,.35,0,.35.33.07.2.3-.36,0-.54,0,0,.25-.12.54-.35.23-.53.26-.17.25-.09.42a9.42,9.42,0,0,1,.29,1.19c0,.22.15,0,.43.07s.19.31.07.4-.33.2-.32.38.34.18.52.4.06.5-.24.72c0,0-.24,0-.27.08a1.44,1.44,0,0,1-.6.27c-.26,0-.38.27-.2.4a.39.39,0,0,0,.52,0c.23-.11.41-.35.76-.42s.29.2.28.36,0,.32,0,.45-.16.14-.43.13a.37.37,0,0,0-.39.27c0,.12.25.12.42.12a1.28,1.28,0,0,1,.55.36,1.07,1.07,0,0,0,.58.25c.16,0,0,.34-.19.55s-.39.16-.61.08-.32.18-.47.17-.19-.13-.47-.39c-.1-.08-.22,0-.36,0s-.35-.19-.52-.23-.22.1-.29.1c-.24,0-.53,0-.7-.15a.58.58,0,0,1,0-.64c.09-.13.26-.13.19-.31s-.26-.37-.22-.71-.08-.21-.27-.64a1.8,1.8,0,0,1-.06-1.05c0-.4.31-.55.44-.73s.21-.26.08-.39-.25,0-.31.06a.29.29,0,0,1-.36.09c-.2-.08.1-.44.16-.73s-.31-.15-.38-.53.29-.55.41-1a.85.85,0,0,0-.12-.83.76.76,0,0,1,.14-.75c.12-.16.14-.4.12-.9a1.15,1.15,0,0,0-.47-.87c-.22-.23-.42.05-.63.05s-.26-.13-.54-.37-.58.07-.75.11a.76.76,0,0,1-.52,0c-.12-.08-.07-.09-.3-.09s-.57.53-.7.63a.88.88,0,0,1-.54.28,1.46,1.46,0,0,0-.56.22.25.25,0,0,1-.34-.29c.07-.24.34-.3.55-.41s.28-.15.24-.39-.37,0-.52.07-.29,0-.55-.23-.52.25-.68.26-.3-.17-.5-.5-.35-.2-.45-.43.07-.39.16-.49A1,1,0,0,0,61,175c.06-.26.66-.36,1-.47a1.9,1.9,0,0,0,.73-.37c.2-.16.11-.25-.11-.33s-.49-.13-.75-.22a.78.78,0,0,0-.7.17c-.17.14-.16.27-.19.47a1.25,1.25,0,0,1-.41.61.74.74,0,0,1-.69.27c-.44,0-.78-.25-.82-.52s.29-.46.37-.53.19-.18.12-.35-.24-.08-.54-.09a1.24,1.24,0,0,1-.76-.37,1.53,1.53,0,0,1-.35-.82c-.05-.26,0-.55.21-.64s.27.22.46.35.22,0,.45-.2.45,0,.66.09.17,0,.31-.05a.58.58,0,0,1,.36,0,.33.33,0,0,0,.39-.14c.11-.2-.13-.19-.28-.35s0-.36,0-.66-.3-.14-.42-.08-.1,0-.45,0-.58.31-.75.4a3.22,3.22,0,0,1-1.08,0,.44.44,0,0,1-.4-.53c0-.37.38-.5.65-.78s-.13-.33-.31-.37c-.49,0-.46-.3-.51-.43a1.15,1.15,0,0,1,.25-.94c.32-.49,1-.4,1.22-.54s0-.28-.12-.27a6.69,6.69,0,0,0-.85,0c-.42.06-.67.79-.8,1a4.77,4.77,0,0,1-.51.71.18.18,0,0,0,0,.3,1.15,1.15,0,0,1,.39.22c.12.12.22.19.12.36s-.29.17-.55.1-.4.3-.49.4-.38.11-.58,0,0-.18-.45-.34a.55.55,0,0,1-.37-.75c.06-.26.32-.22.56-.27s.61-.66.68-.89,0-.22-.23-.23-.2-.3-.2-.47-.11-.3,0-.49.48-.29.63-.31.1-.12.05-.34-.47-.08-.57-.1-.22-.17-.28-.47-.1-.28-.24-.27a1.1,1.1,0,0,1-.64-.16c-.18-.13.22-.7.22-.94s-.4.22-.65.18,0-.32-.21-.67c-.07-.13-.26-.15-.35-.21a1,1,0,0,0-.5-.11c-.27,0-.05.22-.05.38s-.18.27-.23.42.33.35.4.44.08.35-.37.39-.59-.39-.71-.49-.27-.19-.26-.41.41-.31.57-.35.2-.27,0-.48-.33.05-.33.05a1,1,0,0,1-.49.39c-.33.11-.29-.2-.31-.34s0-.1-.16-.36-.36,0-.43.1a.44.44,0,0,1-.46.2c-.31,0-.35-.36-.57-.59s-.21-.45-.11-.92c0-.23-.15-.32-.25-.5s-.11-.43-.22-.64a1.38,1.38,0,0,1,.09-1.28l0,0-.6-2.18.21-.06s.59,2.2.65,2.27a1.65,1.65,0,0,0,.23.22.48.48,0,0,0,.5,0,5.1,5.1,0,0,0-.21-.58l.19-.06.2.61c.16,0,.27.24.36.37s.15.24.34.29.21,0,.37.24-.23.28-.2.48.12.17.55.28a1.79,1.79,0,0,1,.83.52.65.65,0,0,1,.3.5c0,.28.31.33.55.33a5.63,5.63,0,0,0,1,0c.34,0,.24-.09.44-.33,0-.24-.07-.43.55-.26.18.17-.18.34-.26.53s.57.19.86.1a5.72,5.72,0,0,0,1.23-.57c.26-.19.23-.45.11-.91s-.31-.5-.65-.35l-.07-.29a1.27,1.27,0,0,0-.28,0L56,161l-.16,0,.18-.53c0-.05.38-.22.42-.25l-.34,0,0-.14.53,0,.09-.2.17,0-.1.42a1.31,1.31,0,0,0,0,.34c0,.18.32.34.47.38a.41.41,0,0,0,.39-.14c.11-.09,0-.09.38-.24s.18-.55.1-.73a2.38,2.38,0,0,1,0-1c0-.38.24-.57.24-.84s-.15-.18-.37-.13-.27,0-.58-.32-.93,0-1.16.15-.23.26-.23.53-.17.2-.36.31,0,.36,0,.36.17.12,0,.31-.5.18-.93.07-.66-.13-.91-.22a.38.38,0,0,0-.52.28.43.43,0,0,0,0,.26l.45.11,0-.13.41.09-.08.51-.43-.09,0-.22-.57-.16a.32.32,0,0,1-.14,0c-.16,0,0-.09,0-.37s-.72-.29-1-.41.08-.55-.08-.92-.44,0-.65,0-.32-.09-.57-.54a1.25,1.25,0,0,1,.09-1.17c.1-.2.21-.3.14-.6s-.42-.2-.6-.16a1.21,1.21,0,0,0-.41.25.92.92,0,0,1-.62.32c-.37,0-.31-.22-.27-.51a2.77,2.77,0,0,1,.53-.62c.15-.19.58-.13.74-.22s.22-.18.24-.45.38-.31.71-.33.36-.21.38-.42a5.84,5.84,0,0,0,.22-.84.77.77,0,0,1,.23-.64c.1,0,.23-.1.23-.37s-.22-.23-.31-.26-.22,0-.28-.2.23-.55.33-.67.13-.3-.09-.27a2.11,2.11,0,0,1-.61.12c-.42,0-.46-.5-.62-.89a5.39,5.39,0,0,1-.44-1.47,3.47,3.47,0,0,1,.12-1.3l-.22,0,0-.08.23-.07-.06-.16-.22.12,0-.06.37-.31a1.72,1.72,0,0,0-.32-.63c-.05-.08-.32-.21-.46-.43s-.11-.38-.21-.54a7.6,7.6,0,0,0-1.05-1.12c-.29-.31-.22-.74-.24-1.2a1.75,1.75,0,0,0-.68-1.05,1.82,1.82,0,0,1-.54-.7c-.07-.26.33-.5.47-.75s.21-.11.09-.5c0-.1-.54-.26-.62-.35s-.06-.35-.12-.52a.66.66,0,0,0-.35-.28c-.4-.2-.19-.18-.42-.42s-.22-.29-.61-.71a2.76,2.76,0,0,1-.53-.9c-.16-.32-.52-1-.64-1.2a1.14,1.14,0,0,1,0-1c.18-.44-.53-.7-.62-1.09a.64.64,0,0,1,.21-.61c.1-.14,0-.33-.12-.47a.77.77,0,0,0-.61-.22,1.61,1.61,0,0,0-.78.38c-.25.2-.73,0-1-.07s-.48.15-.69.13-.21-.2-.43-.41-.57.16-.8.24a.51.51,0,0,1-.62-.38c-.07-.29.24-.49.34-.88s-.21-.32-.52-.44-.26-.35-.32-.52a1.87,1.87,0,0,0-.43-.56c-.28-.3-.39-.11-.58-.18a1,1,0,0,1-.44-.72c0-.13.08-.16.12-.25a1.59,1.59,0,0,1,.18-.4c.18-.19-.12-.28-.24-.32s-.12-.27-.27-.39-.24-.08-.3-.19.25-.11.29-.3a.4.4,0,0,0-.33-.42c-.18,0-.21.1-.45.15a1.56,1.56,0,0,1-.7,0c-.4-.06-.36-.21-.37-.44s.36-.28.48-.28a.25.25,0,0,0,.28-.25c0-.19-.18-.26-.33-.33s-.22-.24-.2-.62a2.21,2.21,0,0,1,.54-1,.35.35,0,0,0,.11-.34c0-.18-.22-.35-.51-.56s-.46,0-.61.15-.2.27-.48.12-.37-.43-.63-.6-.39.09-.67.28a1.47,1.47,0,0,1-1.17,0c-.4-.12-.52-.63-.51-.92s.14-.4.41-.55.11-.54,0-.58-.1-.2-.1-.29a.57.57,0,0,0-.06-.27.61.61,0,0,1,.07-.51c.09-.15,0-.24,0-.38s0,.11.07-.33-.58-.48-.78-.67-.17-.12-.22-.37-.17-.26-.35-.23-.25-.23-.21-.37a3.92,3.92,0,0,1,.12-.59c.13-.33.63-.16.79-.18a.55.55,0,0,0,.4-.37c0-.14.05-.23-.1-.34s-.38,0-.6,0-.24-.1-.51-.39-.51-.12-.67-.14a.62.62,0,0,1-.48-.44c-.1-.29-.43-.24-.55-.25s-.31,0-.34-.35.53-.26.63-.49-.13-.21-.27-.24-.24-.15-.49-.33-.68,0-.93,0-.54-.49-.73-.7a1.43,1.43,0,0,0-.72-.36,4.13,4.13,0,0,1-.76,0c-.24-.06.12-.21.17-.36s-.38,0-.56,0-.17,0-.4-.17-.4,0-.49.14,0,.26-.24.37-.38,0-.57-.11-.29.13-.29.21,0,.18-.15.19-.21-.09-.39-.21-.31.05-.4.16a.51.51,0,0,1-.53,0c-.21-.09-.1-.32-.07-.51s-.07-.3-.26-.5a.84.84,0,0,1-.28-.59c0-.21.21-.21.43-.21s.29.22.44.42.21,0,.52,0,.62-.46.68-.65-.25-.21-.37-.33,0-.16,0-.42a1.93,1.93,0,0,1,.32-.62c.08-.1.2-.09.25-.17a.28.28,0,0,0-.14-.46.34.34,0,0,1-.24-.32c0-.11,0-.12-.14-.27s-.18-.08-.18-.08l.07.24h-.11l-.08-.13-.14,0v.22H21.5v-.2a.65.65,0,0,1-.23-.06.91.91,0,0,1-.42-.46c-.06-.2,0-.29.24-.28a.6.6,0,0,1,.43.19c.11.1.25-.11.34-.16a2.44,2.44,0,0,1,.37-.08c.18,0,.35-.35.5-.42s.17-.3.17-.44.11-1.29.08-1.84c0-.11.11-.23.07-.29-.14-.29-.63-.23-.87-.23s-.27.38-.28.52-.13.25-.25.36a.43.43,0,0,1-.62-.15c-.1-.45.26-.64.43-.86s.11-.3-.45-.56-.89.11-1.13.06-.08-.27-.17-.59a.92.92,0,0,0-.67-.62,1.83,1.83,0,0,1-.76-.45c-.25-.22-.26-.37-.24-1s-.48-.86-.7-1.13a.54.54,0,0,1,.11-.86c.36-.17.59.07.84.22a.61.61,0,0,0,.61,0c.18-.06,0-.34-.07-.42s-.15-.08-.21-.21-.09-.28.13-.31a.89.89,0,0,1,.61.32c.12.12.26.37.46.62s.22.24.46.26.13-.27,0-.57a.74.74,0,0,1,0-.6c.06-.26.22-.17.4-.15s.17-.12.11-.19-.07-.08-.24-.28-.49.09-.49.09-.27.07-.32,0,.08-.21.17-.24.1-.23.09-.38.34-.08.44-.26-.17-.3-.19-.44.13-.16.32-.37a.79.79,0,0,1,.56-.25c.15,0-.06.06.52,0s.66.23,1,.37a1.85,1.85,0,0,0,1.19.06A2,2,0,0,1,25,95.2c.36.1.47,0,.84-.06a3.13,3.13,0,0,1,.89.07,5.09,5.09,0,0,0,.68.1c.38,0,0,0,.72.08a6.21,6.21,0,0,0,1.66,0,7.55,7.55,0,0,1,1.44.09c.79,0,1.07-.47,1.4-.76.13-.12.33,0,.54-.06s.29-.17.44-.17l.51,0a3,3,0,0,0,1-.29c.31-.1.43.29.78.4s.31,0,.65-.25.55.17.77.25a2.49,2.49,0,0,0,1.13,0c.51-.08.95.52,1.26.76l-.29,2.4c.73,1.56-1.27,3.41-1.26,4.84-.29,0-.28.85-.28,1.14.43,0,.86.57,1.14.57.86.43,2.15.71,2.72-.43,3.14-.71,7.14-.28,10.28-.28a.78.78,0,0,0,.86.57c.72.71,3.72,1.14,4.86,1.14,0,.14.14.28.14.43.29,0,.58.71.72.71.29,1.85,3.45,5.55,2.75,7.4,0,.29-.43.57-.57.57,0,.72-1.14,1.71-1.56,2.14-.72.71-4.13,3.56-4.13,4.42-.28,0-.42.14-.57.14,0,.43-.42.71-.57,1a3.73,3.73,0,0,0,1.58.43,8.61,8.61,0,0,1,.57,1.14h2.29a1.63,1.63,0,0,0,.86.43,19.68,19.68,0,0,0,.88,5c.14,0,.43.15.43.29,1.28,0,5.57.57,6.13-.85v-.29l.29-.14v-.43a1.73,1.73,0,0,1,1.42-.71c.43-.43,1.71-2.28,2.42-2.28a1,1,0,0,1,.71-.57,5.39,5.39,0,0,1,2.14-1.28H75.5c.14.43.86.86,1.14,1.14h.43c.29.43,1,.71,1.44,1.14.14,0,.42.14.57.14.28.43,1,1,1,1.43.15,0,.29.14.43.14.15.43.15.57.58.57.14.43.71.57,1.14.57.14-.43.57-.43.85-.71v-1.43a1.06,1.06,0,0,1-.57-.57h-.43c0-.42-.15-1.14-.15-1.56,1,0,2.7-2.14,3.13-2.85.57,0,1-1.28,2-1.28l.14.14.15.28c0,1.14-.56,2.14-.56,3.28.14,0,.29-.28.43-.28,0-.15.14-.29.14-.43a3.83,3.83,0,0,0,.58,2.56h.43a2.11,2.11,0,0,0,.29.57v.57a1.19,1.19,0,0,1,.58.57h.42c0,.29.15,0,.15.43a6.32,6.32,0,0,0,.71.14c.86-.85,1.14-.28,2.14-.28C92.77,127.38,93.1,128.07,93.31,128.46Z"/><path class="cls-1" d="M38.84,146.9a.28.28,0,0,1-.19.13c-.06,0-.08.1,0,.17s0,.18,0,.19.27,0,.23.12-.12.14-.06.23.19,0,.31.16.15.24.25.25.16-.07.15-.19,0-.12,0-.14,0-.12.13,0,.16,0,.32.32.18.32.26.32a.46.46,0,0,0,.25-.11,1.59,1.59,0,0,0,.29-.15c.09-.07.2-.16.29-.11s0,.09,0,.21-.08.18,0,.25,0,.14,0,.21-.06.08,0,.18.12.05.19.12a.3.3,0,0,0,.24.05c.09,0,.38,0,.47.08a.7.7,0,0,1,.2.35c0,.14-.1.26,0,.37a.71.71,0,0,1,0,.39,1.66,1.66,0,0,0,0,.44.52.52,0,0,1-.16.55,1.65,1.65,0,0,1-.55.34l-.55.18c-.24.08-.41.14-.45.3s0,.22.09.26.25.08.21.22-.18.22-.14.33a.31.31,0,0,0,.2.19c.08,0,.31,0,.31.14s-.14.21-.12.4a.32.32,0,0,0,.3.29c.15,0,.32,0,.39.09a.4.4,0,0,1,.09.34c0,.15,0,.19,0,.27s0,.2-.06.21-.08,0-.18-.06a.75.75,0,0,0-.3-.14.55.55,0,0,0-.34,0c-.18,0-.22.08-.25.19a1.77,1.77,0,0,1-.06.3c0,.11-.16.21-.15.39a.37.37,0,0,0,.3.35.68.68,0,0,0,.43,0,.67.67,0,0,1,.32-.12.14.14,0,0,1,.13.15.3.3,0,0,1-.17.29c-.17.12-.3.11-.28.23s.07.13.12.15.38.07.43.08a.25.25,0,0,0,.23-.13c.06-.11.12-.24.07-.33s-.15-.22-.13-.31a1.38,1.38,0,0,0,.08-.29v-.25a.16.16,0,0,1,.14-.15c.11,0,.12.05.15.1s.05.09.12.09a.33.33,0,0,1,.24,0,.16.16,0,0,0,.2,0s0-.07,0-.12a.16.16,0,0,1,0-.15s.08-.07,0-.2a2,2,0,0,1-.11-.39c0-.15-.1-.55-.12-.69s-.07-.5,0-.62a.48.48,0,0,0,.14-.46,2.31,2.31,0,0,0-.11-.33c0-.08-.13-.29,0-.35s.2,0,.26,0a.3.3,0,0,0,.3,0c.12-.1.1-.11.1-.2s-.07-.22,0-.24a.42.42,0,0,1,.34.1c.11.08.28.13.31.21s0,.08-.08.21-.08.19-.15.32a1.23,1.23,0,0,0-.16.49c0,.15,0,.3.1.36a.22.22,0,0,0,.28-.06.3.3,0,0,1,.27-.1.71.71,0,0,0,.38,0c.1-.06.1-.08.11-.16a.32.32,0,0,0-.12-.23c-.09-.08-.19-.1-.18-.21s0-.19.16-.2.23,0,.3,0l.15.13.14-.16-.24-.22.11-.12.07.05.08-.09-.11-.1h0s-.06-.11,0-.17a.19.19,0,0,1,.26,0,1.09,1.09,0,0,1,.2.34.72.72,0,0,0,.13.32.57.57,0,0,0,.33.25.47.47,0,0,0,.35-.08c.08-.06.16-.15.2-.18a.24.24,0,0,0,.07-.15c0-.07,0-.17.06-.22s.16-.14.16-.24a.19.19,0,0,0-.08-.17.27.27,0,0,1-.12-.22c0-.12,0-.22,0-.32a.45.45,0,0,0-.48-.07c-.18.09-.21.11-.31.07s-.18-.11-.24-.06a.43.43,0,0,1-.25.11c-.07,0-.11,0-.11-.1s.06-.1.11-.11a.16.16,0,0,0,.13-.06,1.19,1.19,0,0,0,.12-.22.1.1,0,0,1,.1-.08,1.28,1.28,0,0,0,.29-.07c.13,0,.35-.06.43-.22s.1-.37,0-.46a2,2,0,0,0-.29-.19.23.23,0,0,1-.13-.19,1.85,1.85,0,0,1,0-.44c0-.17,0-.22,0-.26a.09.09,0,0,0-.15,0,.73.73,0,0,1-.49.42,1.7,1.7,0,0,1-.54,0l-.05.19-.42,0v-.54l.41.19,0-.14-.48-.28a1,1,0,0,0,0-.18c0-.1,0-.19-.11-.28s-.26-.26-.45-.22-.21,0-.29,0l-.36-.18s-.06,0-.06-.08a.28.28,0,0,0-.07-.19.21.21,0,0,0-.21-.05c-.05,0-.11.08-.19,0a.36.36,0,0,1-.14-.13.36.36,0,0,0-.24-.16l-.24,0c-.06,0-.06,0-.12-.06s-.06-.08-.12-.15a.31.31,0,0,0-.31-.11.47.47,0,0,1-.39-.06c-.14-.08-.18-.19-.35-.19s-.25,0-.31,0a.32.32,0,0,1-.19.1.58.58,0,0,0-.19,0,.29.29,0,0,1-.22.08,3.61,3.61,0,0,1-.5-.06C39.16,146.82,38.89,146.77,38.84,146.9Z"/><path class="cls-1" d="M39.76,94.86a2.17,2.17,0,0,0-.88-.66,1.67,1.67,0,0,0-1.07,0c-.2,0-.45-.23-.73-.52s-.65-.13-.92-.07-.27-.13-.61-.2a2.37,2.37,0,0,0-1.15.19c-.32.12-.23,0-.57,0a1.29,1.29,0,0,0-.81.2c-.23.14-.54-.06-.86.08a1.07,1.07,0,0,0-.5.55c-.06.14-.25.12-.4.07a1.33,1.33,0,0,0-.42-.06c-.2,0-.66,0-1,0a2.45,2.45,0,0,1-.79-.08,1.62,1.62,0,0,0-.57-.12.86.86,0,0,1-.51-.15,2.37,2.37,0,0,0-.88-.19,1.31,1.31,0,0,1-.51-.11,6.33,6.33,0,0,0-.73.06c-.26,0-.42-.09-.57-.07a2.11,2.11,0,0,1-.88,0c-.44,0-.57,0-.86,0s-.4-.08-.61-.41c-.09-.15-.37-.07-.71-.1s-.95-.14-1.15-.13a1.59,1.59,0,0,0-.71.2c-.2.07-.15,0-.39,0a.37.37,0,0,0-.38.25,3.29,3.29,0,0,1-.59.59c-.08,0-.21.13-.33.18s-.2.32-.4.34a.36.36,0,0,1-.38-.23c-.08-.17,0-.27-.15-.37s-.28.11-.39.15a.67.67,0,0,1-.46,0c-.24-.06-.22-.32-.22-.72s-.16-.29-.23-.39,0-.17,0-.29c-.05-.33.2-.26.19-.45s-.19-.17-.27-.09-.06.12-.25,0a.56.56,0,0,1-.46-.48c0-.33.46-.24.64-.4s0-.09,0-.17-.18-.25-.34-.31-.14-.32-.11-.5a.5.5,0,0,1,.27-.39,1.26,1.26,0,0,1,.62-.1c.18,0,.24-.07.17-.32s-.36-.11-.51-.12a.3.3,0,0,1-.3-.27c0-.08,0-.16,0-.23s-.25-.08-.24-.18c0-.25.31-.13.52-.22s.57.15.78.15.18-.13.18-.28.23-.15.38-.26.14-.2.14-.34a.23.23,0,0,1,.25-.21c.14,0,.14-.07.11-.22s-.11-.08-.3-.11-.23-.32-.33-.38-.13.14-.21,0,.13-.28.19-.36.12-.13-.07-.28-.33.07-.39.16-.19,0-.34,0a.64.64,0,0,1-.35-.19c-.11-.1-.13-.18,0-.25s.26.06.44.08.22,0,.19-.15-.15-.15-.27-.18-.11-.06-.32-.28-.45,0-.6-.26,0-.35.19-.39.21-.19.23-.4-.09-.25-.41-.52a1.32,1.32,0,0,0-.71-.21.89.89,0,0,1-.63-.54c-.08-.21.18-.31.45-.44a.42.42,0,0,1,.52,0A.73.73,0,0,0,16,83c.34,0,.32.13.64.11s.18-.16.09-.2-.38-.14-.37-.27.43.06.69.06.43-.07.42-.27-.06-.22-.24-.24-.26-.15-.34-.29a7.9,7.9,0,0,0-.75-.77c-.33-.32-.22-.4-.4-.56s-.42.07-.55.16a.4.4,0,0,1-.48-.15c-.12-.15.09-.34.17-.41s.24-.08.11-.42-.47-.13-.7-.22A.57.57,0,0,1,14,79c0-.09.18-.27.19-.39a7.3,7.3,0,0,0-.94-.81c-.15-.18-.06-.33.14-.44s.35.12.53.12.16,0,.4-.22.35.22.56.28.12-.09,0-.39-.11-.44-.35-.6a.6.6,0,0,1-.33-.4c-.07-.19.07-.45.28-.43s.35.47.48.65a.66.66,0,0,0,.54.19c.15,0,.2-.05.35-.18s.28,0,.48.08.22-.1.16-.18a4.4,4.4,0,0,0-.36-.78c-.25-.36-.19-.35-.42-.38s-.31.1-.43.19-.24,0-.41-.07-.38-.26-.37-.42.36,0,.5,0,.37,0,.26-.27-.3-.37-.42-.56a.28.28,0,0,1,.13-.41c.12-.05.19,0,.36.13s.2.09.44.09,0-.22-.05-.37,0,0,0-.33-.24-.26-.31-.5,0-.29.2-.42.12-.28.13-.51.1-.28.31-.38,0-.27-.14-.53a.42.42,0,0,0-.44-.23.35.35,0,0,1-.35-.2.33.33,0,0,1,.05-.44c.16-.17.3-.11.5,0a1.46,1.46,0,0,0,.71.26c.41,0,.32-.49.3-.8s-.22-.32-.27-.44a1.29,1.29,0,0,1-.16-.47c0-.19-.11-.18-.19-.36s.1-.34.26-.46.16-.35.18-.56.27-.29.44-.46a.41.41,0,0,0,.11-.5c-.07-.23-.38-.17-.56-.18s-.25-.07-.34-.24a.45.45,0,0,0-.31-.27c-.12,0-.12-.1-.31-.25s-.28-.15-.28-.33.12-.17.54-.27.46-.18.54-.47a.7.7,0,0,0-.39-.71.87.87,0,0,0-.81.1,1.13,1.13,0,0,1-.62.24c-.31,0-.37-.12-.54-.39s-.44-.17-.65-.18-.31-.06-.29-.24.15-.22.47-.43.21-.49.23-.69a.65.65,0,0,1,.24-.43c.16-.16.14-.15.16-.42s-.28-.38-.62-.4-.32.23-.35.39a.28.28,0,0,1-.32.24c-.18,0-.34-.08-.31-.31s.24-.28.39-.41a.55.55,0,0,0,.2-.3c.06-.15.21-.12.47-.25s.22-.49.2-.62.14,0,.38-.24a.47.47,0,0,0,.22-.41l-.21-.88c0-.14,0-.24.23-.24s.13.24.24.41.38.11.56.11a.67.67,0,0,0,.41-.13.45.45,0,0,1,.48.12c.09.11,0,.12.35.14s.35.23.55.37.23,0,.22-.27.22-.17.37-.17h.62c.1,0,.36-.11.08-.29a1.76,1.76,0,0,0-.92-.15c-.34,0-.53-.06-.6-.35A.42.42,0,0,1,17,56.7c.14-.1.27-.13.36-.34a2.43,2.43,0,0,1,.42-.51s.22-.19.1-.31-.31.16-.31.16a2.86,2.86,0,0,1-.5.44,1.21,1.21,0,0,1-.78.09c-.17,0-.1-.13-.13-.29s.21-.24,0-.32-.22.17-.32.24-.11.18-.3.18-.3-.08-.46-.35-.26-.2-.48-.45a1.34,1.34,0,0,1-.36-.58c-.08-.23,0,0-.37-.5s-1.42-1.4-1.65-1.65-.06-.45.1-.46a1,1,0,0,0,.5-.19c.16-.12.1-.15.46-.16a1,1,0,0,1,.79.37c.15.18.51.2.84.22s.58.29.82.33.34-.12.29-.25a1,1,0,0,0-.31-.37.5.5,0,0,1-.25-.41c-.06-.25.11-.4.29-.55a1.72,1.72,0,0,0,.33-.4c.17-.22.05-.13.53-.2a3.59,3.59,0,0,0,1.27-.53c.15-.12.61-.58.83-.77s.75,0,.95,0a.57.57,0,0,0,.52-.13c.15-.15.4-.41.25-.53s-.29.18-.62.19-.85-.28-.9-.48a1.13,1.13,0,0,0-.36,0,4.11,4.11,0,0,1-.72,0h-.56c-.47,0-.26-.07-.57-.08s-.35.18-.54.07-.3,0-.74,0a1.27,1.27,0,0,0-.82.28.79.79,0,0,1-.69-.06c-.29-.14-.57,0-.93,0s-.39-.34-.69-.46-.43.32-.63.38a2.19,2.19,0,0,1-1-.1,1.46,1.46,0,0,1-.6-.46L10,47.33l.13,0,.15.31.42-.29,0-.13-.15-.13.12-.11.19.13-.08.41a1.07,1.07,0,0,0,.59-.12.84.84,0,0,0,.33-.6,2.65,2.65,0,0,0-.06-.46c0-.21-.36-.21-.64-.26s-.26-.13-.49-.26-.31.38-.47.57-.37.14-.62-.11-.05-.43-.09-.79S9,45,8.75,45a5.59,5.59,0,0,1-1.06-.29.66.66,0,0,1-.51-.69c0-.29.28-.28.6-.46S8,43.28,8,43.1a.6.6,0,0,0-.29-.46.47.47,0,0,1-.22-.51A.67.67,0,0,1,8,41.58c.26-.13.25-.39.13-.73a5.64,5.64,0,0,0-.58-1c-.19-.33,0-.29,0-.57s-.23-.41-.3-.58-.11-.27.12-.37.33.17.6.26a.77.77,0,0,0,.73-.22,5.44,5.44,0,0,1,.72-.23c.23,0,.38-.38.38-.55s.32-.15.58-.21,0-.38-.14-.6-.21-.19-.64-.36-.66,0-1.17-.09S8,36,8,35.55a1.65,1.65,0,0,0,0-.63.86.86,0,0,1,0-.43,1.14,1.14,0,0,1,.49-.77c.13-.07.27-.08.21-.28s-.31-.21-.51-.25-.65-.25-.89-.35-.38-.13-.18-.28a2.72,2.72,0,0,1,1-.3c.33-.08.38-.06.52-.23s0-.18-.27-.4a3,3,0,0,0-.69-.42,2.14,2.14,0,0,1-.55-.46,2.47,2.47,0,0,1-.6-1,.77.77,0,0,1,.35-.62.73.73,0,0,1,.67-.21.62.62,0,0,0,.63-.27c.11-.24-.19-.15-.37-.18a1.09,1.09,0,0,1-.71-.55c-.27-.39-.51-.2-.58-.36s.17-.67.33-.81a2.55,2.55,0,0,0,.37-.38c.09-.11.24-.12.21-.33a.18.18,0,0,0-.22-.17,3.24,3.24,0,0,1-.59,0c-.31,0-.46-.28-.57-.66a1.17,1.17,0,0,0-.62-.62c-.12-.06-.21-.18-.25-.62,0-.27-.27-.33-.5-.47s-.26-.28-.37-.36c-.3-.23-.35-.25-.53-.81A.71.71,0,0,1,4,21.4c.12-.06.14-.47.14-.47l-.33-.43.14-.11.33.42.31.05c.18,0,.28-.06.24-.19s.43-.31.43-.31.18-.06.09-.45-.56-.38-.68-.4a1,1,0,0,1-.22-.13c-.21-.18,0-.52.17-.82a2.12,2.12,0,0,0,.09-.37l0-.13H4.09l-.61-.66.11-.06.39.39.34-.1.71.3a1.06,1.06,0,0,0,.35-.42,1.32,1.32,0,0,0,0-1c-.13-.23-.64-.34-.64-.34l-.5-.05-.41.05-.33,0-.12.29-.14,0s0-.22,0-.35S3,16,2.92,16s-.12-.07-.09-.3.31-.46.55-.65.38-.12.5-.25a.53.53,0,0,0,.23-.48c0-.33-.25-.42-.35-.54s-.32-.28-.21-.49.47-.12.56-.17.37-.12.37-.27-.26-.4-.36-.51S4,12.24,4,11.94s-.39-.26-.52-.27-.45,0-.5-.06.29-.18.4-.21.13-.19.15-.34.2-.16.32-.25.07-.14.06-.33a.4.4,0,0,0-.27-.36c-.57,0-.13-.1-.13-.23s0-.08-.11-.29A.6.6,0,0,0,3,9.32c-.12,0-.25.14-.35.1s.18-.2.3-.26.1,0,.12-.22.06,0,.29-.45a.84.84,0,0,0-.24-1,2,2,0,0,0-.84-.25c-.18,0-.23-.15-.06-.3,0-.15-.23-.11-.36-.17s-.08-.16-.36-.38a4.94,4.94,0,0,1-.71-1c-.2-.27-.35-.35-.62-.66a.71.71,0,0,1,0-.86c.12-.18.14-.34.32-.48a1.24,1.24,0,0,1,.73-.17c.32-.09.29-.25.31-.45s-.26-.07-.22-.7c-.13-.36,0-.6.31-.72a.82.82,0,0,1,.65,0c.22,0,.31,0,.39-.06s-.12-.24-.12-.24a.49.49,0,0,1-.1-.29c0-.21.29-.51.51-.61S2.85,0,3.62,0s.87.45,1.22.72a1.3,1.3,0,0,0,.89.22,1.35,1.35,0,0,1,.53.19,1.85,1.85,0,0,0,.4.17c.26.06.57.44.84.62a6.38,6.38,0,0,0,1,.45A11,11,0,0,1,9.64,3a3.41,3.41,0,0,0,.79.34,3.47,3.47,0,0,1,1,.54c.27.2.74.52,1.28.87a8.71,8.71,0,0,1,1,.75c.39.3.67.51.91.73a2,2,0,0,0,.59.38c.18.08.4.43.59.59a.34.34,0,0,0,.21.1.65.65,0,0,0,.32,0,.65.65,0,0,1,.28-.14.27.27,0,0,0,.14,0,12.63,12.63,0,0,0,2.36,2.6,6.8,6.8,0,0,0,2.81,1.24,6.22,6.22,0,0,1,1.07.15,3.1,3.1,0,0,1,.7.36c.15.08.4.22.45.26a1.37,1.37,0,0,0,.57.19,13.6,13.6,0,0,1,1.82.42c.51.19,1.09.44,1.22.71s.19.39.31.47a.92.92,0,0,1,.36.34c.13.21.39.23.61.27a1.28,1.28,0,0,1,.84.41c.23.3.42.82.68.87s.73.21.81.42a1.08,1.08,0,0,0,.52.67c.29.11.65.19.7,0s-.06-.35.24-.3a1,1,0,0,0,.85-.24,4.6,4.6,0,0,0,.52-.49,1.69,1.69,0,0,1,.38-.26,3.74,3.74,0,0,0,.87-.58c.27-.25.74-.68.92-.67s.58,0,.72-.24.14-.38.3-.38.17,0,.35-.13.55-.31.58.31,0,.93,0,.93-.05.11.35.12a1.16,1.16,0,0,0,1-.46c.17-.33.2-.36.54-.42s.88-.19.88-.19a.3.3,0,0,0,.27-.33c0-.31-.09-.61.47-.59a4.28,4.28,0,0,0,1.21,0,3.33,3.33,0,0,1,1.3-.11,8.77,8.77,0,0,0,1.92.14,2,2,0,0,0,1.08-.4,4.65,4.65,0,0,1,.74-.8c.34-.23.51-.39.65-.18s.16.44.5.31a.72.72,0,0,1,.64,0,.43.43,0,0,0,.55-.09.57.57,0,0,1,.74-.18,2.57,2.57,0,0,0,.9.38,6.29,6.29,0,0,1,1.31.43,3.42,3.42,0,0,1,1.09.68,3.17,3.17,0,0,0,.62.64c.2.13.63.74.4,1.06S55,15,55,15.47a2.38,2.38,0,0,1-.19,1.12c-.15.22-.33.5.22.63s1.44.27,1.54.79a3,3,0,0,1,0,.52,3,3,0,0,0-2.1,3.08c-1.13,1.14-.84,2.56-.84,4.13a2.93,2.93,0,0,1-.71.57c-.42,1.57-1.41,3.27-1.83,5.13H50c-.56.57-.42,1.42-.41,2.13.85,0,1.42-.85,2.28-.85a2.63,2.63,0,0,0,.72,1.71c0,.42.15,1.14.15,1.56a17.71,17.71,0,0,0-.13,2.85c-.15,0-.43.43-.43.57a.3.3,0,0,0-.28.29,2.61,2.61,0,0,1-.48-.05c0,1.14.06,2.61-1.08,3.18,0,3-2,5.41-.68,8.4a4.69,4.69,0,0,1,2.29,1.71h.29a30.19,30.19,0,0,1,.74,5.13c-.29.14-.85,2.56-1.42,3.13v2c-.29,0-1,.71-1.14,1-.14,0-.28.15-.43.15v-.29l-.14-.14h-.43a3.39,3.39,0,0,1-.71.71c0,2.14-1.13,3.56-1.12,5.7.43,0,1.15.43,1.57.43v.42l.28.15c0,.42.15,1,.15,1.42l.15,1.85v.29a1.19,1.19,0,0,0-.42.71c-.72,0-.85,2.14-.85,2.7.15.15.43.86.58.86,0,1.14.45,5.27,1.17,6.12h.14l.14.29h.29l.14.28h.43l.15.29.14.14,0,0c-1.73.38-2,3.09-4.46,3.09,0,.15-.42.43-.56.57S43.1,92.06,42.2,92.7A30,30,0,0,0,39.76,94.86Z"/></g></g></g></svg>