<svg xmlns="http://www.w3.org/2000/svg" viewBox="0 0 48.75 41.4"><defs><style>.cls-1{fill:#adce3a;fill-rule:evenodd;}</style></defs><g id="Layer_2" data-name="Layer 2"><g id="regije"><path id="zapresic" class="cls-1" d="M5.1,36.55c.42-.17,4,.1,4-.4,1.08-.16,2.83-.25,3.58.75A11.81,11.81,0,0,1,13.4,39a4,4,0,0,0,.75-.25,2.26,2.26,0,0,1,.24-.91v-.25a2.43,2.43,0,0,0,.58-.42,3.28,3.28,0,0,0,2-1c.41,0,.72-.35,1.13-.35.06.09.15.19.2.19v.33c.33.33-.24,2-.24,2.58.08.08.17.16.17.24.25,0,.66-.08.91-.08.09.17.34.5.34.67.17,0,0,.08.17.08l.08.17a20.91,20.91,0,0,1,3.33.41c.09.25.34.25.59.25a1,1,0,0,0,.75.33,1.07,1.07,0,0,0,1,.43c.19-.37-.23-1.55-.23-2s.19-.66.86-.77a4.8,4.8,0,0,1,2.24.4c.66.27,1-.54,1-1a.81.81,0,0,1,.56-1c.56-.25.49-.51.53-1.1s.57-.73,1.64-1.34.77.67.83,1.45.81,0,1-.58a21.48,21.48,0,0,0,.4-2.69c.12-.95.92-.1.92-.1s.25.74.73.71.48-.43.12-1,.34-.88.68-1.29a4.88,4.88,0,0,0,.69-2.27c.16-1.11,2.9-2.33,4-2.57a5.32,5.32,0,0,1,2.8-.19c.77.27,1.53-1.34,2-2a5.31,5.31,0,0,1,2-1.26,6.32,6.32,0,0,1,.36-2.34,4.4,4.4,0,0,0,.22-2.18c-.11-.36-.41-1-.16-1.27.65-.63-.37-.83-.75-1.34-.68-.91-1.79-.76-2.74-1.49-.5-.39.09-1.11-.29-1.33a7.1,7.1,0,0,1-1.59-.9c-.44-.45-1.32-1,0-.94.78,0-.86-1.31-1-1.56s-.83,0-1.11,0c-.53-1.14-1.34-.51-2.28-1a3.09,3.09,0,0,1-1-1.2c-.33-.7-.85-.76-1.65-.77a2.05,2.05,0,0,1-2.05-1.35c-.46-1-2.6-.31-3.45-.73-.52-.25-1.71,0-2-.58-.4-.83-.73-.86-1.24,0-.63,0-1.44-1.37-1.6-1.9C25.35.64,25,1,23.8,1c-.75,0-.49-.61-1-.84A1.06,1.06,0,0,0,21.31,1c0,1.24-1.93.17-2.19,1.19-.29,1.18-1.43,1.41-1.45,2.91,0,.66-.65,1.15-.79,1.78-.26,1-1.09.93-1.08-.18s.27-1.57-1.1-2a3,3,0,0,0-2.55.1c-.33.18-1,.17-1.22.52a1,1,0,0,1-.92.6A7.07,7.07,0,0,0,8.06,6a.72.72,0,0,1-.82,0c-.3-.22-.8-.22-.66-.57s.27-.44.08-.53-.1-.5-.29-.39-.23-.43-.23-.43l-.92.23a1,1,0,0,1,0,.26c0,.27.09.93.12,1.08s.25,1,.25,1a10.7,10.7,0,0,1,.09,1.75,6.28,6.28,0,0,0,0,1,5.51,5.51,0,0,1,0,1.08,2.15,2.15,0,0,1-.12.36.92.92,0,0,0,0,.38,4.25,4.25,0,0,0,.19.67.68.68,0,0,1-.17.65l.26.11.12.42.06.32-.17.3s-.34-.27-.49-.18,0,.24,0,.43a1,1,0,0,1-.09.63c-.09.28,0,.45.13.4s.11.18.16.41-.17.17-.27,0-.21.25-.36.21-.1.16,0,.32.36.06.36.06v.2H4.91l0,.39a1.51,1.51,0,0,1,0,.48c0,.17,0,.21.16.39s0,.4-.15.69-.3.08-.45-.08-.2,0-.43.14a.88.88,0,0,0-.35.4,2.65,2.65,0,0,1,0,.73c-.06.21-.51.37-.68.32s-.23,0-.27.2-.18.17-.34.09-.21,0-.26.11.17.15.34.2-.33.42-.33.42l-.72.53L1,21.7l-.89.42.21.72a1.23,1.23,0,0,1,.27.54,2,2,0,0,1-.18.71c-.08.21.26.13.4.08s0,.51-.13.77.31.36.31.36l.09.26,0,.23s-.42-.21-.57-.3-.22-.06-.23.16.51.38.65.51,0,.27.18.46.22.11.22-.07.24-.06.34.08-.05.38-.05.38a2.87,2.87,0,0,0,.53-.09c.32-.07.21.18.21.18l-.3.44-.36-.17.28.72-.15.17s-.31-.37-.52-.35-.47.1-.67-.1-.17.24-.09.52.48.37.44.63-.32-.1-.61-.11-.21.25-.14.53.33.29.5.55-.26.45-.12.68-.12.21-.39.2-.25.28-.25.28l.81,1a2,2,0,0,0,1,.72,6.61,6.61,0,0,1,.68.3,2,2,0,0,1,.8.79c.13.2.31.37.69.88a10.5,10.5,0,0,0,1.18,1.25A2.38,2.38,0,0,1,5.1,36.55Z"/></g></g></svg>