<svg xmlns="http://www.w3.org/2000/svg" viewBox="0 0 41.18 58.02"><defs><style>.cls-1{fill:#2e783b;fill-rule:evenodd;}</style></defs><g id="Layer_2" data-name="Layer 2"><g id="regije"><path class="cls-1" d="M0,25.09s.31-.9.31-1l0-1.4A6.82,6.82,0,0,1,1,19.9c.25-.5-.32-1.28-.18-1.33.72-.35,1.8-.48,2.31-1.11,1-.45,2.09.28,3.08.62.52.17,2.86.73,2.38-.27-.14-.31-.69-.45-.9-.68-.58-.58-1.48-.95-2-1.46-.28-.28,0-1-.63-1s-.71-.31-.7-1c0-.27-.44-.39-.44-.67,0-.77,0-1.05.81-.65s1.44-.09,2.18-.08,1.53-.65,2-.39c1.24.62,1.26-1,2.13-.11.36.36.83.09.67-.47-.24-.74-.18-.88-.95-1.28-.52-.25-.4-1.19-1-1.34s-.64-1.33-.64-1.77.9-1.12,1.13-1.59c0-.61.94-.84,1.17-1.06l.62-1.43c.66-1.56,2.43,0,3.38-1C15.88,1.48,17.07.44,17.14,0a6.29,6.29,0,0,1,1.11,1.92,6.67,6.67,0,0,1,.49,3.19c0,.3,1.12,1.68,1.31,1.3.81-1.62,1.51.17,1.5,1.19a8.58,8.58,0,0,1,0,2.58c-.55,1.09-.29,1.7.65,2,.38.12.34.73.64.88.64.31,1.59-.43,1.58.93,0,1.1,1.05.28,1.28.28s.82,1.19.83.09c0-1.44,1.2-1.69,2-2.51.42-.42.36-1.21.74-1.59.73-.71,1.87,2.19,1.88,1.16,0-.83,1.13-1.08,1.87-.89.37.09.64.29.63.58,0,.45,1,2,1.82,2a20,20,0,0,0,.41,3.82,5.85,5.85,0,0,1,.76,2.16c-.41,0-1.08.16-1.58.16a11.47,11.47,0,0,0-1.39,5.9c-.08,0-.08,1.33-.16,1.41,0,.58-.24,1.33-.24,2,.17.09.5.67.83.67a1.63,1.63,0,0,0,.26.66h.25l.08.09c0,.25.09.58.09.91.33,0,1,.66,1.58.66,1.08-1.41,2.26,2,3.43,2,0,.25.25.5.25.75.17.16.17.24.33.24,0,.25.5.34.67.42,0,.08.09.17.09.25a5.45,5.45,0,0,0-.83.66H40.1c0,.09-.09.17-.09.25s-.5.17-.58.17l.09.08a3.14,3.14,0,0,1-.84.17,1.53,1.53,0,0,1-.83.33c-.08.17-.58.33-.83.33a.68.68,0,0,1-.58.33c-.83.83-2.25.83-2.24,2.33-.08,0-.42.16-.41.25h-.25c0,.08-.42.41-.42.41,0,.33.09.67.09,1H33a2,2,0,0,0-.16.66.66.66,0,0,0-.08.42.27.27,0,0,0-.09.16c-.08,0-.33.17-.33.25a1.8,1.8,0,0,1-.5-.33H31.3V44a1.92,1.92,0,0,1-1,.16,3.18,3.18,0,0,1-.09-.33c-.25-.08-.67-.66-.84-.91a1.1,1.1,0,0,1-.75-.33,3.36,3.36,0,0,1-.41-.09l.07-1.57H28c-.08.08-.58.41-.58.58-.25,0-.58.41-.58.66l-.08.08a1.9,1.9,0,0,0-.83.42c-.17,0-.59.17-.84.17a.77.77,0,0,1-.49.33A7.38,7.38,0,0,1,24,45.21l-.08.17c0,.25.12.55.12.71.52.71.31,2,.31,2.86h-.5a4.72,4.72,0,0,1-.5.66c0,.75-1.07,1.42-1.66,1.5l-.08.16a3.36,3.36,0,0,0-.41.09A4.68,4.68,0,0,0,21,53.27c-.17.08-.33.41-.5.5,0,.66-.83,1.66-.82,2.07-.83.42-2.67.33-3.25,1.33a3.78,3.78,0,0,0-1,.08c0,.17.18-.15-.74.77a1.11,1.11,0,0,0-.48-.28c-.63-.19-1-.2-1-.9a2.69,2.69,0,0,0-.64-1.52L12,54s.63-.77,1.07-.87.05-.74.05-.74A32.35,32.35,0,0,1,10.83,50a24.73,24.73,0,0,0-1.3-2.15,29.36,29.36,0,0,1-1.74-3.45L6,44l-1.16-.13.37-.62a2.41,2.41,0,0,0,.24-1.22,4,4,0,0,1,.09-1.36s0-.85-.43-1-.55-.37-.29-.78.2-.73-.25-.74-.69-.48-.68-1.11-.23-2.51-.23-2.51V32.25l0-.92A1.3,1.3,0,0,1,2.52,30.1a16.66,16.66,0,0,0-.23-2L.79,27.05.7,25.43A2.46,2.46,0,0,0,0,25.09Z"/></g></g></svg>