<svg xmlns="http://www.w3.org/2000/svg" viewBox="0 0 54.93 48.48"><defs><style>.cls-1{fill:#4bb752;fill-rule:evenodd;}</style></defs><g id="Layer_2" data-name="Layer 2"><g id="regije"><path id="zlatar" class="cls-1" d="M41.58,48.35c.66.34,1.44-.09,2.18-.09s1.53-.64,2-.38c1.24.62,1.26-1,2.13-.12.35.37.83.1.67-.46-.24-.75-.18-.88-.95-1.28-.52-.25-.4-1.19-1-1.34S46,43.35,46,42.91s.9-1.12,1.12-1.59c0-.61.95-.84,1.18-1.06l.62-1.43c.65-1.57,2.43,0,3.38-1,.35-.35,1.55-1.38,1.62-1.82,0,0,0,0,0,0s0,0,0,0c0-.43-.32-.87-.31-1.3,0-.69.65-1,.65-1.45,0-.17-.49-.4-.27-.61s.51-.63,0-.64a2.54,2.54,0,0,1-1.13,0c-.71-.37-.67-1.67-.88-2.33A2.64,2.64,0,0,1,52.83,27c.33-.16,1.08-.31,1-.76-.59-1.25-2.7-2.82-2-4.91.23-.69,1.36-.42.9-1.37-.3-.61.54-1.65,1.1-1.81.41-.13,1.08-.07,1.08-.65,0-.36-2.07-.16-2.37-.3-.46-.23.15-.88.43-1a1.53,1.53,0,0,0,1.06-1.28c0-.72-1-1.15-1.3-1.73a2.57,2.57,0,0,1-1-2c0-.25-.62-1.28-1-1-.52.33-.77-.12-.35-.53s.71-1.84,1.68-1.83,1.69-.28,1.7-1.33c0-.27-.23-1.3-.51-.72-.83,1.59-2.68.1-4.09.09-.86,0-2,.61-2.82.21s-2.09-.47-2.08-1.41c0-1.27,1.8-.66,1.81-1.8A2.6,2.6,0,0,0,44.41,0C44.08-.13,43.35.35,43,.6c-.41,0-1,1.17-1.45,1.36l-2.5,1c-.3.08-.39,1-.48,1.35C38.35,4.93,39,6,37.9,6c-.94,0-1.67,1.17-2.07,2-.51,1-2.37,0-3.5-.05-.64,0-1.83.67-2.33.42a2.12,2.12,0,0,1-1.41-1.79c0-.22.51-.76.2-.9-.49-.26-.52-.18-.51-.81,0-1.38-1.74-.11-2.37-.42A3.25,3.25,0,0,0,24,4.12c-.69-.23-1.33.65-1.94.28s-1.5,1.36-2.21.64c-.33-.34-.77-.51-1.11,0s-.89.57-1.42.81c-.36.16-1.61,1-2,.81-.93-.48-1.48-1-2.56-.45-.72.35-1.3,0-2,.25-.47.14-1.61.73-1.6-.29,0-.28-.68-.51-.9-.73A4.21,4.21,0,0,1,7,3.66a.68.68,0,0,0-.31-.39A33.57,33.57,0,0,1,4.54,6.09C5.24,7.39,5,8.77,5,10c-.08,0-.26.09-.26.18-.17,0-.78.52-.77.69-1.65.78-1.38,3.46-1.37,5-.09.09-.26.26-.26.35s-.26.08-.35.08-.17.26-.17.26v1.3c-.34.35-.95.61-1.29.95v.26c-.18,0-.26.26-.43.35v.17L0,19.76c.43,0,1.13.35,1.74.35,0,.61.36,2.43-.95,2.43,0,.34-.17.6-.17.95.44.17.27,1.64.27,2.16H4.11c0-.08.26-.17.34-.17.17-.35.7-.35,1-.35v-.08c.78-.26,2.17-.09,2.95-.26a9.15,9.15,0,0,1,1.57,0l1,.34a3,3,0,0,1,.09,1.48c-1.13.26.1,2.16.45,2.42v.09l.87.43c0,.09.08.17.17.26v2.25c.27.95,1.39,1,1.4,2.34-.26.52-.61.52-1.21.52a2.74,2.74,0,0,0,0,1.21,1.33,1.33,0,0,0,.61-.17c.09,0,.26.17.35.17v1.56a1.23,1.23,0,0,0,.53.08c.6-1,.94-1.9,2.24-1.9.35.43.88.87,1.23,1.3a1.38,1.38,0,0,1,1.21.69c.09,0,.18.09.26.09a.41.41,0,0,0,.27.26c0,.43.35.86.35,1.3.09,0,.17.08.26.08v1s-.26.17-.08.17c0,.17-.09.52-.09.69a7.63,7.63,0,0,0-2.07,1.13,2.66,2.66,0,0,0-2.17.78c.61.17.61.26.95.26,0,.17.35.43.35.6l.09.09h.61a1.2,1.2,0,0,1,1-.61c.17.26.43.26.78.26,1.56-1.56,3.73-.69,5.73-.69,0,.61.7.69,1.13.69,1.9-1.9,4.26.44,6.42-.6a1.26,1.26,0,0,0,.78-.69,1.36,1.36,0,0,0,.69-.44h.18l.08-.08c.09.08.18.17.18.26.34,0,.78.52,1.13.52l.35,1.3a1,1,0,0,1,.61.25c1.3,0,.53,2.08.53,2.78.09.08.18.34.35.43a.23.23,0,0,0,.26.26c0,.08.18.26.27.34h.34v.09h.18a3,3,0,0,0-.18-1.3v-.78l.18-.08c0-.09.08-.18.08-.26a1.49,1.49,0,0,0,.87-.26c.09,0,.26.26.44.26,0,.08.34.34.34.43s.27.17.35.17a1.23,1.23,0,0,0,.18.35c0,.26.17.69.18,1Z"/></g></g></svg>